<?xml version="1.0" encoding="UTF-8" standalone="no"?>
<!-- Created with Inkscape (http://www.inkscape.org/) -->

<svg
   xmlns:dc="http://purl.org/dc/elements/1.1/"
   xmlns:cc="http://creativecommons.org/ns#"
   xmlns:rdf="http://www.w3.org/1999/02/22-rdf-syntax-ns#"
   xmlns:svg="http://www.w3.org/2000/svg"
   xmlns="http://www.w3.org/2000/svg"
   version="1.1"
   width="42.138626"
   height="17.908875"
   id="svg2985"
   xml:space="preserve"><metadata
     id="metadata2991"><rdf:RDF><cc:Work
         rdf:about=""><dc:format>image/svg+xml</dc:format><dc:type
           rdf:resource="http://purl.org/dc/dcmitype/StillImage" /><dc:title></dc:title></cc:Work></rdf:RDF></metadata><defs
     id="defs2989"><clipPath
       id="clipPath2999"><path
         d="m 0,14.327 33.711,0 L 33.711,0 0,0 0,14.327 z"
         id="path3001" /></clipPath></defs><g
     transform="matrix(1.25,0,0,-1.25,0,17.908875)"
     id="g2993"><g
       transform="translate(29.8028,10.978)"
       id="g3003"
       style="fill:#ffffff;fill-opacity:1;stroke:none"><path
         d="m 0,0 0.869,-0.31 c 0,0.063 0.062,0.063 0.124,0.063 0,-0.063 0.807,-0.435 2.357,-1.118 0,-0.185 0.125,-0.309 0.372,-0.496 L 3.598,-2.109 c 0.187,0 0.249,-0.372 0.31,-1.055 -3.783,-3.038 -7.381,-5.458 -10.854,-7.256 0,-0.124 -0.249,-0.31 -0.806,-0.558 -0.683,0.123 -1.241,0.434 -1.675,0.93 0,0.062 -0.063,0.186 -0.125,0.31 l 0.125,0.186 -0.125,0.249 c 0,0.681 0.808,1.364 2.42,2.046 2.358,1.364 4.28,2.605 5.768,3.784 l 0.682,0.681 c -0.061,0 -0.061,0.063 -0.061,0.125 l -0.249,-0.125 c -0.311,0 -2.234,0.807 -5.706,2.482 -0.682,0.063 -1.054,0.186 -1.054,0.31 -0.062,0 -0.062,-0.062 -0.062,-0.124 -2.11,0.31 -3.164,0.992 -3.164,1.923 l 0,0.247 c 0,0.063 0.062,0.063 0.123,0.063 l -0.123,0.248 c 0.31,0.682 0.993,0.992 2.046,0.992 C -7.318,2.853 -4.341,1.737 0,0"
         id="path3005"
         style="fill:#ffffff;fill-opacity:1;fill-rule:nonzero;stroke:none" /></g><path
       d="m 11.1035,8.8386 c 0.061,0 0.061,-0.062 0.061,-0.125 l 0.496,0.125 0.125,0 0.62,-0.125 0.185,0.125 c 0.062,0 0.187,-0.062 0.311,-0.125 0.123,0 0.495,0.063 1.115,0.125 0.931,-0.062 1.489,-0.125 1.675,-0.125 l 0.745,0.125 0.186,-0.125 c 0.125,0.063 0.249,0.125 0.31,0.125 0.062,0 0.372,-0.062 0.931,-0.187 0.123,0.062 0.248,0.062 0.372,0.062 l 0,-0.062 0.186,0.062 0.745,0 c 0.123,0 0.248,0 0.371,-0.062 l 0.187,0.062 c 0.495,-0.062 0.744,-0.124 0.744,-0.185 l 0.495,0.123 2.048,0 c 0.062,0 0.062,-0.062 0.062,-0.123 l 0.495,0.185 c 0.062,0 0.126,0 0.126,-0.062 l 0.495,0.062 0.31,0 c 0.31,0 0.621,0 0.869,-0.062 l 2.357,0.187 c 0.682,-0.125 0.992,-0.497 0.992,-1.117 0,-0.124 0.062,-0.185 0.185,-0.185 0,-0.435 -0.185,-0.807 -0.495,-1.055 0,0.062 0,0.124 -0.062,0.124 l -0.125,-0.187 c 0.064,0 0.125,-0.062 0.125,-0.124 -0.435,-0.247 -0.746,-0.372 -1.056,-0.372 l -0.682,0.125 c -0.123,-0.063 -0.246,-0.125 -0.309,-0.125 -0.309,0.062 -0.497,0.186 -0.497,0.248 -0.248,-0.186 -0.497,-0.248 -0.805,-0.248 l -1.241,0 c -0.061,0 -0.061,0.062 -0.061,0.125 l -0.249,-0.125 -1.179,0 c -0.062,0 -0.124,0.062 -0.124,0.125 l -0.992,-0.249 c -0.187,0.063 -0.311,0.186 -0.311,0.249 l -0.186,-0.125 -0.682,0 c -0.185,0 -0.31,-0.061 -0.434,-0.124 l -0.187,0.124 -0.184,-0.124 c -0.311,0.063 -0.434,0.186 -0.434,0.249 -0.064,0 -0.064,-0.063 -0.064,-0.125 l -0.744,0.125 -0.31,0 c -0.123,0 -0.248,-0.063 -0.372,-0.125 -0.123,0.062 -0.248,0.125 -0.434,0.125 l -0.497,0 c -0.123,0 -0.246,-0.063 -0.372,-0.125 -0.434,0.062 -0.62,0.186 -0.62,0.248 l -0.185,-0.123 c -0.062,0 -0.125,0.061 -0.125,0.123 l -0.496,-0.123 -1.674,0 c -0.062,0 -0.126,0.061 -0.126,0.123 -0.123,-0.062 -0.246,-0.123 -0.308,-0.123 -0.373,0 -0.931,-0.063 -1.738,-0.125 l -0.495,0.125 c -0.062,0 -0.062,-0.063 -0.062,-0.125 l -0.559,0.125 -0.061,0 c -0.187,0 -0.311,-0.063 -0.436,-0.125 -0.061,0 -0.061,0.062 -0.061,0.125 l -0.62,-0.125 -0.931,0.125 c -0.124,-0.063 -0.247,-0.125 -0.309,-0.125 l 0,0.125 c -0.063,-0.063 -0.558,-0.186 -1.489,-0.249 -0.249,0.063 -0.372,0.124 -0.434,0.124 l -1.118,-0.248 -0.184,0.124 c -0.497,-0.124 -0.931,-0.186 -1.365,-0.186 l -0.187,0.062 c 0,-0.124 -0.062,-0.186 -0.248,-0.186 l -0.186,0.124 c -0.061,0 -0.125,-0.062 -0.125,-0.124 -0.744,0 -1.364,0.31 -1.798,0.993 0,0.744 0.187,1.178 0.621,1.24 0,0.062 0.31,0.372 0.867,0.807 0.374,-0.063 0.684,-0.124 0.869,-0.124 0.125,0.061 0.187,0.124 0.249,0.124 l 0,-0.124 0.184,0.124 c 0.188,0 0.311,-0.063 0.311,-0.124 0.745,0.061 1.241,0.185 1.428,0.247 0.061,0 0.123,-0.062 0.123,-0.123 l 2.295,0.185 0,-0.062 c 0.124,0.062 0.249,0.062 0.31,0.062 0.124,0 0.186,0 0.186,-0.062 l 0.745,0.062 2.295,0 0.621,0.125 z"
       id="path3009"
       style="fill:#ffffff;fill-opacity:1;fill-rule:nonzero;stroke:none" /></g></svg>