<?xml version="1.0" encoding="UTF-8" standalone="no"?>
<!-- Created with Inkscape (http://www.inkscape.org/) -->

<svg
   xmlns:dc="http://purl.org/dc/elements/1.1/"
   xmlns:cc="http://creativecommons.org/ns#"
   xmlns:rdf="http://www.w3.org/1999/02/22-rdf-syntax-ns#"
   xmlns:svg="http://www.w3.org/2000/svg"
   xmlns="http://www.w3.org/2000/svg"
   version="1.1"
   width="14.6545"
   height="21.798626"
   id="svg2985"
   xml:space="preserve"><metadata
     id="metadata2991"><rdf:RDF><cc:Work
         rdf:about=""><dc:format>image/svg+xml</dc:format><dc:type
           rdf:resource="http://purl.org/dc/dcmitype/StillImage" /><dc:title></dc:title></cc:Work></rdf:RDF></metadata><defs
     id="defs2989"><clipPath
       id="clipPath2999"><path
         d="m 0,17.439 11.724,0 L 11.724,0 0,0 0,17.439 z"
         id="path3001" /></clipPath></defs><g
     transform="matrix(1.25,0,0,-1.25,0,21.798625)"
     id="g2993"><path
       d="M 2.8277387,0.14893733 C 2.1217387,0.35793733 1.6053,1.318 1.3453,3.003 l -0.511,2.77 C 0.3773,7.89 0.0723,8.99 3e-4,9.122 c 0.231,0.604 0.795,0.812 1.69,0.621 0.868,-0.257 1.434,-0.835 1.694,-1.735 L 3.2233,7.906 C 3.3863,7.857 3.4013,7.742 3.3243,7.54 L 3.8433,5.105 3.9543,5.073 C 4.1393785,5.7390122 4.5392006,6.2893026 4.7556788,7.0952591 6.9725877,11.014369 7.5187252,14.529983 9.3373,17.385 c 0.026,0.067 0.386,0.072 1.092,0.012 0.722498,-0.252695 1.115289,-0.800405 1.294,-1.355 -0.117,-0.301 -0.248,-0.487 -0.475,-0.608 0.01206,-0.04028 -0.03997,-0.409204 -0.11,-0.603 l -0.166,-0.435 C 6.6011788,5.2414958 9.4919927,10.620745 5.6133,1.515 5.5896619,1.157514 5.214522,0.83079507 4.9993,0.537 4.8183,0.068 4.2123,-0.09 3.1183,0.048 3.0303833,0.22637425 2.9516842,0.11194835 2.8277387,0.14893733 z"
       id="path3005"
       style="fill:#ffffff;fill-opacity:1;fill-rule:nonzero;stroke:none" /></g></svg>