<?xml version="1.0" encoding="UTF-8" standalone="no"?>
<!-- Created with Inkscape (http://www.inkscape.org/) -->

<svg
   xmlns:dc="http://purl.org/dc/elements/1.1/"
   xmlns:cc="http://creativecommons.org/ns#"
   xmlns:rdf="http://www.w3.org/1999/02/22-rdf-syntax-ns#"
   xmlns:svg="http://www.w3.org/2000/svg"
   xmlns="http://www.w3.org/2000/svg"
   version="1.1"
   width="314.2475"
   height="432.04251"
   id="svg2985"
   xml:space="preserve"><metadata
     id="metadata2991"><rdf:RDF><cc:Work
         rdf:about=""><dc:format>image/svg+xml</dc:format><dc:type
           rdf:resource="http://purl.org/dc/dcmitype/StillImage" /><dc:title></dc:title></cc:Work></rdf:RDF></metadata><defs
     id="defs2989"><clipPath
       id="clipPath2999"><path
         d="m 0,345.634 251.398,0 L 251.398,0 0,0 0,345.634 z"
         id="path3001" /></clipPath></defs><g
     transform="matrix(1.25,0,0,-1.25,0,432.0425)"
     id="g2993"><g
       id="g2995"><g
         clip-path="url(#clipPath2999)"
         id="g2997"><g
           transform="translate(120.5879,3.3656)"
           id="g3003"><path
             d="m 0,0 -0.156,341.964 -4.82,0.053 -2.012,-12.027 -3.307,12.127 -9.149,0.151 L -15.922,0 C -15.868,-4.771 0,-4.195 0,0"
             id="path3005"
             style="fill:#3c7e9e;fill-opacity:1;fill-rule:nonzero;stroke:none" /></g><g
           transform="translate(77.4719,290.069)"
           id="g3007"><path
             d="m 0,0 0.453,-3.694 148.644,6 24.83,32.479 L 142.991,54.179 -2.139,24.033 -1.691,13.819 0,0 z"
             id="path3009"
             style="fill:#f45b3d;fill-opacity:1;fill-rule:nonzero;stroke:none" /></g><g
           transform="translate(91.8486,201.1132)"
           id="g3011"><path
             d="M 0,0 -1.021,-6.052 72.061,-8.418 84.658,-1.095 73.465,10.751 2.19,21.7 1.311,15.541 0,0 z"
             id="path3013"
             style="fill:#3c7e9e;fill-opacity:1;fill-rule:nonzero;stroke:none" /></g><g
           transform="translate(15.0488,275.7391)"
           id="g3015"><path
             d="m 0,0 -15.049,-14.122 19.016,-16.425 112.775,1.106 1.041,10.735 0.011,2.733 0.741,7.717 L 5.669,5.321 2.504,2.35 0,0 z"
             id="path3017"
             style="fill:#3c7e9e;fill-opacity:1;fill-rule:nonzero;stroke:none" /></g></g></g></g></svg>