<?xml version="1.0" encoding="UTF-8" standalone="no"?>
<!-- Created with Inkscape (http://www.inkscape.org/) -->

<svg
   xmlns:dc="http://purl.org/dc/elements/1.1/"
   xmlns:cc="http://creativecommons.org/ns#"
   xmlns:rdf="http://www.w3.org/1999/02/22-rdf-syntax-ns#"
   xmlns:svg="http://www.w3.org/2000/svg"
   xmlns="http://www.w3.org/2000/svg"
   xmlns:xlink="http://www.w3.org/1999/xlink"
   version="1.1"
   width="145"
   height="400"
   id="svg4399"
   xml:space="preserve"><metadata
     id="metadata4405"><rdf:RDF><cc:Work
         rdf:about=""><dc:format>image/svg+xml</dc:format><dc:type
           rdf:resource="http://purl.org/dc/dcmitype/StillImage" /><dc:title></dc:title></cc:Work></rdf:RDF></metadata><defs
     id="defs4403"><linearGradient
       id="linearGradient5512"><stop
         id="stop5514"
         style="stop-color:#3c7e9e;stop-opacity:0"
         offset="0" /><stop
         id="stop5522"
         style="stop-color:#3c7f9e;stop-opacity:1"
         offset="0.5" /><stop
         id="stop5516"
         style="stop-color:#3c7e9e;stop-opacity:1"
         offset="1" /></linearGradient><clipPath
       id="clipPath4413"><path
         d="m 0,368.284 183.521,0 L 183.521,0 0,0 0,368.284 z"
         id="path4415" /></clipPath><linearGradient
       x1="-57.464001"
       y1="8.7205"
       x2="0"
       y2="8.7205"
       id="linearGradient5518"
       xlink:href="#linearGradient5512"
       gradientUnits="userSpaceOnUse" /><linearGradient
       x1="-57.464001"
       y1="8.7205"
       x2="0"
       y2="8.7205"
       id="linearGradient5520"
       xlink:href="#linearGradient5512"
       gradientUnits="userSpaceOnUse" /></defs><g
     transform="matrix(0.99439618,0,0,-1.2962175,64.751607,383.41927)"
     id="g4489"
     style="fill:#3c7e9e;fill-opacity:1"><path
       d="M 0,0 -14.026,26.443 C -90.70167,-18.695232 -75.112677,-20.256797 0,0 z"
       id="path4491"
       style="fill:#3c7e9e;fill-opacity:1;fill-rule:nonzero;stroke:none" /></g><g
     transform="matrix(1.25,0,0,-1.25,62.233232,378.04064)"
     id="g4493"><path
       d="m 0,0 c -6.448,3.726 -10.888,8.037 -10.788,13.827 3.169,7.227 6.547,8.785 6.547,8.785 l 16.27,7.57 16.486,-18 C 28.515,12.182 9.527,-5.506 0,0"
       id="path4495"
       style="fill:#3c7e9e;fill-opacity:1;fill-rule:nonzero;stroke:none" /></g><g
     transform="matrix(1.25,0,0,-1.25,51.788982,286.42439)"
     id="g4497"><path
       d="m 0,0 c 0.89,-3.739 3.928,-19.822 4.794,-26.427 0.67,-3.554 12.491,1.833 12.766,0.671 5.646,-23.928 -17.164,-39.684 -17.732,-38.977 -13.972,17.374 -6.974,25.83 -6.868,32.535 0.188,11.844 -2.538,19.34 -9.714,25.658 C -33.818,8.485 -5.686,23.891 0,0"
       id="path4499"
       style="fill:#3c7e9e;fill-opacity:1;fill-rule:nonzero;stroke:none" /></g><g
     transform="matrix(1.25,0,0,-1.25,76.511857,360.58701)"
     id="g4501"><path
       d="M 0,0 C 0,0 -6.954,6.099 -14.277,-0.51"
       id="path4503"
       style="fill:none;stroke:#060d0b;stroke-width:1.78699994;stroke-linecap:butt;stroke-linejoin:miter;stroke-miterlimit:10;stroke-opacity:1;stroke-dasharray:none" /></g><g
     transform="matrix(1.25,0,0,-1.25,94.970103,351.41589)"
     id="g4505"><path
       d="m 0,0 c -4.023,-2.631 -10.499,-4.273 -13.357,-6.445 -2.865,-2.158 0.526,-8.044 3.084,-7.774 1.422,0.156 6.576,1.266 10.839,3.781 C 8.068,-6.004 4.016,2.626 0,0"
       id="path4507"
       style="fill:#3c7e9e;fill-opacity:1;fill-rule:nonzero;stroke:none" /></g><g
     transform="matrix(1.25,0,0,-1.25,94.970103,351.41589)"
     id="g4509"><path
       d="m 0,0 c -4.023,-2.631 -10.499,-4.273 -13.357,-6.445 -2.865,-2.158 0.526,-8.044 3.084,-7.774 1.422,0.156 6.576,1.266 10.839,3.781 C 8.068,-6.004 4.016,2.626 0,0 z"
       id="path4511"
       style="fill:none;stroke:#060d0b;stroke-width:1.78699994;stroke-linecap:butt;stroke-linejoin:miter;stroke-miterlimit:10;stroke-opacity:1;stroke-dasharray:none" /></g><g
     transform="matrix(1.25,0,0,-1.25,74.949357,360.02176)"
     id="g4513"><path
       d="M 0,0 C 1.715,0.18 9.263,2.505 14.377,5.148 23.771,10.012 16.492,18.653 11.308,16.37 6.013,14.045 0.05,10.698 -3.43,8.136 -6.904,5.578 -3.063,-0.318 0,0"
       id="path4515"
       style="fill:#3c7e9e;fill-opacity:1;fill-rule:nonzero;stroke:none" /></g><g
     transform="matrix(1.25,0,0,-1.25,74.949357,360.02176)"
     id="g4517"><path
       d="M 0,0 C 1.715,0.18 9.263,2.505 14.377,5.148 23.771,10.012 16.492,18.653 11.308,16.37 6.013,14.045 0.05,10.698 -3.43,8.136 -6.904,5.578 -3.063,-0.318 0,0 z"
       id="path4519"
       style="fill:none;stroke:#060d0b;stroke-width:1.78699994;stroke-linecap:butt;stroke-linejoin:miter;stroke-miterlimit:10;stroke-opacity:1;stroke-dasharray:none" /></g><g
     transform="matrix(1.25,0,0,-1.25,73.827482,345.89589)"
     id="g4521"><path
       d="m 0,0 c 1.708,0.178 11.073,5.245 16.239,7.784 8.787,4.314 1.715,14.353 -4.528,10.433 C 6.808,15.143 1.049,12.003 -2.436,9.449 -6.849,6.213 -3.073,-0.325 0,0"
       id="path4523"
       style="fill:#3c7e9e;fill-opacity:1;fill-rule:nonzero;stroke:none" /></g><g
     transform="matrix(1.25,0,0,-1.25,73.827482,345.89589)"
     id="g4525"><path
       d="m 0,0 c 1.708,0.178 11.073,5.245 16.239,7.784 8.787,4.314 1.715,14.353 -4.528,10.433 C 6.808,15.143 1.049,12.003 -2.436,9.449 -6.849,6.213 -3.073,-0.325 0,0 z"
       id="path4527"
       style="fill:none;stroke:#060d0b;stroke-width:1.78699994;stroke-linecap:butt;stroke-linejoin:miter;stroke-miterlimit:10;stroke-opacity:1;stroke-dasharray:none" /></g><g
     transform="matrix(1.25,0,0,-1.25,75.728107,330.27202)"
     id="g4529"><path
       d="m 0,0 c 1.688,0.298 9.374,5.404 14.291,8.396 9.033,5.51 0.96,14.495 -4.438,11.162 C 4.926,16.523 -1.065,11.712 -4.354,8.911 -7.643,6.12 -3.037,-0.537 0,0"
       id="path4531"
       style="fill:#3c7e9e;fill-opacity:1;fill-rule:nonzero;stroke:none" /></g><g
     transform="matrix(1.25,0,0,-1.25,75.728107,330.27202)"
     id="g4533"><path
       d="m 0,0 c 1.688,0.298 9.374,5.404 14.291,8.396 9.033,5.51 0.96,14.495 -4.438,11.162 C 4.926,16.523 -1.065,11.712 -4.354,8.911 -7.643,6.12 -3.037,-0.537 0,0 z"
       id="path4535"
       style="fill:none;stroke:#060d0b;stroke-width:1.78699994;stroke-linecap:butt;stroke-linejoin:miter;stroke-miterlimit:10;stroke-opacity:1;stroke-dasharray:none" /></g><g
     transform="matrix(1.25,0,0,-1.25,97.288233,266.98589)"
     id="g4537"><path
       d="m 0,0 c -15.052,0.491 -6.877,8.593 -4.77,11.466 -10.282,-10.975 -15.416,-1.012 -15.157,3.059 -1.106,-5.838 -3.64,-11.389 -14.506,-6.967 9.528,-6.017 5.733,-11.621 1.586,-12.26 6.51,-0.963 8.494,-5.07 3.623,-10.426 8.898,4.337 11.818,-1.685 13.673,-6.088 -0.148,6.115 1.325,12.365 11.92,10.006 C -8.658,-6.991 -11.793,-2.81 0,0"
       id="path4539"
       style="fill:#f45b3d;fill-opacity:1;fill-rule:nonzero;stroke:none" /></g><g
     transform="matrix(1.25,0,0,-1.25,52.940107,34.046512)"
     id="g4541"><path
       d="m 0,0 -4.692,-6.258 0.03,-0.022 c -4.447,-7.247 2.232,-20.659 15.347,-30.508 13.1,-9.839 27.857,-12.499 33.566,-6.195 l 0.035,-0.025 4.693,6.258 L 0,0 z"
       id="path4543"
       style="fill:#3c7e9e;fill-opacity:1;fill-rule:nonzero;stroke:none" /></g><g
     transform="matrix(1.25,0,0,-1.25,113.18911,81.288888)"
     id="g4545"><path
       d="m 0,0 c -5.29,-7.056 -20.552,-4.557 -34.082,5.592 -13.523,10.142 -20.189,24.102 -14.897,31.157 5.3,7.067 20.561,4.568 34.098,-5.585 C -1.364,21.026 5.3,7.066 0,0"
       id="path4547"
       style="fill:#ffffff;fill-opacity:1;fill-rule:nonzero;stroke:none" /></g><g
     transform="matrix(1.25,0,0,-1.25,114.65886,79.324762)"
     id="g4549"><path
       d="m 0,0 c -5.29,-7.055 -20.553,-4.557 -34.068,5.6 -13.529,10.147 -20.202,24.095 -14.911,31.15 5.315,7.073 20.567,4.563 34.097,-5.585 C -1.357,21.021 5.299,7.066 0,0"
       id="path4551"
       style="fill:#3c7e9e;fill-opacity:1;fill-rule:nonzero;stroke:none" /></g><g
     transform="matrix(1.25,0,0,-1.25,61.401982,41.577638)"
     id="g4553"><path
       d="M 0,0 C 4.215,5.61 16.689,3.349 27.875,-5.041 32.82,-8.743 36.672,-13.029 39.08,-17.144 37.166,-11.977 32.552,-6.113 26.059,-1.245 14.873,7.145 2.395,9.41 -1.815,3.796 -4.159,0.665 -3.439,-4.255 -0.389,-9.445 -1.779,-5.72 -1.766,-2.355 0,0"
       id="path4555"
       style="fill:#ffffff;fill-opacity:1;fill-rule:nonzero;stroke:none" /></g><g
     transform="matrix(1.25,0,0,-1.25,84.981103,89.121513)"
     id="g4557"><path
       d="M 0,0 3.394,4.72 C 2.989,4.858 2.581,5.003 2.172,5.158 L -1.225,0.437 C -0.814,0.284 -0.407,0.138 0,0"
       id="path4559"
       style="fill:#ffffff;fill-opacity:1;fill-rule:nonzero;stroke:none" /></g><g
     transform="matrix(1.25,0,0,-1.25,71.733982,82.697013)"
     id="g4561"><path
       d="M 0,0 3.405,4.733 C 3.056,4.955 2.707,5.185 2.357,5.417 L -1.048,0.682 C -0.698,0.451 -0.35,0.221 0,0"
       id="path4563"
       style="fill:#ffffff;fill-opacity:1;fill-rule:nonzero;stroke:none" /></g><g
     transform="matrix(1.25,0,0,-1.25,78.247732,86.338388)"
     id="g4565"><path
       d="M 0,0 3.4,4.726 C 3.025,4.91 2.648,5.101 2.272,5.297 L -1.129,0.57 C -0.751,0.375 -0.375,0.183 0,0"
       id="path4567"
       style="fill:#ffffff;fill-opacity:1;fill-rule:nonzero;stroke:none" /></g><g
     transform="matrix(1.25,0,0,-1.25,91.443483,90.820763)"
     id="g4569"><path
       d="M 0,0 3.392,4.713 C 2.95,4.793 2.503,4.885 2.051,4.988 L -1.341,0.273 C -0.888,0.171 -0.441,0.08 0,0"
       id="path4571"
       style="fill:#ffffff;fill-opacity:1;fill-rule:nonzero;stroke:none" /></g><g
     transform="matrix(1.25,0,0,-1.25,106.12486,89.330262)"
     id="g4573"><path
       d="M 0,0 3.352,4.659 C 2.974,4.448 2.584,4.253 2.17,4.084 L -1.191,-0.589 C -0.774,-0.415 -0.379,-0.217 0,0"
       id="path4575"
       style="fill:#ffffff;fill-opacity:1;fill-rule:nonzero;stroke:none" /></g><g
     transform="matrix(1.25,0,0,-1.25,101.93174,90.898263)"
     id="g4577"><path
       d="M 0,0 3.375,4.692 C 2.947,4.6 2.51,4.521 2.057,4.463 L -1.321,-0.232 C -0.868,-0.172 -0.429,-0.094 0,0"
       id="path4579"
       style="fill:#ffffff;fill-opacity:1;fill-rule:nonzero;stroke:none" /></g><g
     transform="matrix(1.25,0,0,-1.25,64.114357,77.157388)"
     id="g4581"><path
       d="M 0,0 3.41,4.74 C 3.086,5.009 2.77,5.28 2.456,5.552 L -0.955,0.812 C -0.641,0.539 -0.323,0.269 0,0"
       id="path4583"
       style="fill:#ffffff;fill-opacity:1;fill-rule:nonzero;stroke:none" /></g><g
     transform="matrix(1.25,0,0,-1.25,97.203983,91.375513)"
     id="g4585"><path
       d="M 0,0 3.385,4.705 C 2.895,4.707 2.396,4.724 1.885,4.759 L -1.501,0.052 C -0.991,0.018 -0.49,0 0,0"
       id="path4587"
       style="fill:#ffffff;fill-opacity:1;fill-rule:nonzero;stroke:none" /></g><g
     transform="matrix(1.25,0,0,-1.25,46.108982,46.407263)"
     id="g4589"><path
       d="M 0,0 3.437,4.776 C 3.467,5.093 3.51,5.404 3.566,5.708 L 3.416,5.816 0.221,1.375 C 0.12,0.93 0.045,0.472 0,0"
       id="path4591"
       style="fill:#ffffff;fill-opacity:1;fill-rule:nonzero;stroke:none" /></g><g
     transform="matrix(1.25,0,0,-1.25,46.331232,51.029513)"
     id="g4593"><path
       d="M 0,0 3.424,4.758 C 3.344,5.221 3.289,5.677 3.253,6.125 L -0.176,1.359 C -0.137,0.914 -0.079,0.46 0,0"
       id="path4595"
       style="fill:#ffffff;fill-opacity:1;fill-rule:nonzero;stroke:none" /></g><g
     transform="matrix(1.25,0,0,-1.25,58.622482,72.094012)"
     id="g4597"><path
       d="M 0,0 3.412,4.743 C 3.114,5.049 2.824,5.357 2.538,5.667 L -0.874,0.923 C -0.589,0.614 -0.298,0.307 0,0"
       id="path4599"
       style="fill:#ffffff;fill-opacity:1;fill-rule:nonzero;stroke:none" /></g><g
     transform="matrix(1.25,0,0,-1.25,53.850732,66.586762)"
     id="g4601"><path
       d="M 0,0 3.413,4.745 C 3.146,5.096 2.886,5.448 2.634,5.799 L -0.78,1.054 C -0.527,0.702 -0.269,0.351 0,0"
       id="path4603"
       style="fill:#ffffff;fill-opacity:1;fill-rule:nonzero;stroke:none" /></g><g
     transform="matrix(1.25,0,0,-1.25,50.153232,61.039887)"
     id="g4605"><path
       d="M 0,0 3.416,4.749 C 3.184,5.157 2.966,5.564 2.757,5.97 L -0.66,1.221 C -0.45,0.816 -0.232,0.409 0,0"
       id="path4607"
       style="fill:#ffffff;fill-opacity:1;fill-rule:nonzero;stroke:none" /></g><g
     transform="matrix(1.25,0,0,-1.25,47.695982,55.895262)"
     id="g4609"><path
       d="M 0,0 3.418,4.751 C 3.232,5.24 3.072,5.723 2.925,6.204 L -0.495,1.449 C -0.348,0.971 -0.186,0.488 0,0"
       id="path4611"
       style="fill:#ffffff;fill-opacity:1;fill-rule:nonzero;stroke:none" /></g><path
     d="m 73.866107,195.87689 2.5,0 0,-6.25 -2.5,0 0,6.25 z"
     id="path4613"
     style="fill:#060d0b;fill-opacity:1;fill-rule:nonzero;stroke:none" /><path
     d="m 73.866107,183.37689 2.5,0 0,-6.25 -2.5,0 0,6.25 z"
     id="path4615"
     style="fill:#060d0b;fill-opacity:1;fill-rule:nonzero;stroke:none" /><path
     d="m 73.866107,208.37689 2.5,0 0,-6.25 -2.5,0 0,6.25 z"
     id="path4617"
     style="fill:#060d0b;fill-opacity:1;fill-rule:nonzero;stroke:none" /><path
     d="m 73.866107,232.06314 2.5,0 0,-4.9375 -2.5,0 0,4.9375 z"
     id="path4619"
     style="fill:#060d0b;fill-opacity:1;fill-rule:nonzero;stroke:none" /><path
     d="m 73.866107,220.87689 2.5,0 0,-6.25 -2.5,0 0,6.25 z"
     id="path4621"
     style="fill:#060d0b;fill-opacity:1;fill-rule:nonzero;stroke:none" /><path
     d="m 73.866107,170.87689 2.5,0 0,-6.25 -2.5,0 0,6.25 z"
     id="path4623"
     style="fill:#060d0b;fill-opacity:1;fill-rule:nonzero;stroke:none" /><path
     d="m 73.866107,108.37689 2.5,0 0,-6.25 -2.5,0 0,6.25 z"
     id="path4625"
     style="fill:#060d0b;fill-opacity:1;fill-rule:nonzero;stroke:none" /><path
     d="m 73.866107,120.87689 2.5,0 0,-6.25 -2.5,0 0,6.25 z"
     id="path4627"
     style="fill:#060d0b;fill-opacity:1;fill-rule:nonzero;stroke:none" /><path
     d="m 73.866107,145.87689 2.5,0 0,-6.25 -2.5,0 0,6.25 z"
     id="path4629"
     style="fill:#060d0b;fill-opacity:1;fill-rule:nonzero;stroke:none" /><path
     d="m 73.866107,133.37689 2.5,0 0,-6.25 -2.5,0 0,6.25 z"
     id="path4631"
     style="fill:#060d0b;fill-opacity:1;fill-rule:nonzero;stroke:none" /><path
     d="m 73.866107,158.37689 2.5,0 0,-6.25 -2.5,0 0,6.25 z"
     id="path4633"
     style="fill:#060d0b;fill-opacity:1;fill-rule:nonzero;stroke:none" /><g
     transform="matrix(1.25,0,0,-1.25,98.939856,30.769512)"
     id="g4635"><path
       d="M 0,0 11.903,18.864 17.222,15.034 0,0 z"
       id="path4637"
       style="fill:#060d0b;fill-opacity:1;fill-rule:nonzero;stroke:none" /></g><g
     transform="matrix(1.25,0,0,-1.25,120.71837,52.582888)"
     id="g4639"><path
       d="M 0,0 17.048,4.2 17.555,-1.164 0,0 z"
       id="path4641"
       style="fill:#060d0b;fill-opacity:1;fill-rule:nonzero;stroke:none" /></g><g
     transform="matrix(1.25,0,0,-1.25,61.370232,19.551887)"
     id="g4643"><path
       d="M 0,0 -6.268,13.385 -0.784,15.348 0,0 z"
       id="path4645"
       style="fill:#060d0b;fill-opacity:1;fill-rule:nonzero;stroke:none" /></g><g
     transform="matrix(1.25,0,0,-1.25,39.214482,34.535387)"
     id="g4647"><path
       d="m 0,0 -16.957,5.384 1.133,4.834 L 0,0 z"
       id="path4649"
       style="fill:#060d0b;fill-opacity:1;fill-rule:nonzero;stroke:none" /></g></svg>