<?xml version="1.0" encoding="UTF-8" standalone="no"?>
<!-- Created with Inkscape (http://www.inkscape.org/) -->

<svg
   xmlns:dc="http://purl.org/dc/elements/1.1/"
   xmlns:cc="http://creativecommons.org/ns#"
   xmlns:rdf="http://www.w3.org/1999/02/22-rdf-syntax-ns#"
   xmlns:svg="http://www.w3.org/2000/svg"
   xmlns="http://www.w3.org/2000/svg"
   version="1.1"
   width="880"
   height="840"
   id="svg2"
   xml:space="preserve"><metadata
     id="metadata8"><rdf:RDF><cc:Work
         rdf:about=""><dc:format>image/svg+xml</dc:format><dc:type
           rdf:resource="http://purl.org/dc/dcmitype/StillImage" /><dc:title></dc:title></cc:Work></rdf:RDF></metadata><defs
     id="defs6"><clipPath
       id="clipPath16"><path
         d="m 0,590.528 533.561,0 L 533.561,0 0,0 0,590.528 z"
         id="path18" /></clipPath></defs><g
     transform="matrix(1.25,0,0,-1.25,0,840.00006)"
     id="g10"><g
       transform="translate(40,8)"
       id="g12"><g
         clip-path="url(#clipPath16)"
         id="g14"><g
           transform="translate(391.1617,590.5283)"
           id="g20"><path
             d="m 0,0 -110.07,0 c -24.241,-3.379 -94.615,-37.705 -88.462,-49.832 3.586,-7.064 19.093,-22.703 31.428,-34.544 0,0 -0.505,-299.238 -0.505,-346.9 0,-47.663 214.152,-44.582 214.152,0 l 0,372.354 C 46.543,0 46.543,0 0,0"
             id="path22"
             style="fill:#407fa2;fill-opacity:1;fill-rule:nonzero;stroke:none" /></g><g
           transform="translate(282.2711,538.2324)"
           id="g24"><path
             d="m 0,0 c 0,-15.172 -8.15,-27.472 -18.205,-27.472 -10.054,0 -18.205,12.3 -18.205,27.472 0,15.171 8.151,27.471 18.205,27.471 C -8.15,27.471 0,15.171 0,0"
             id="path26"
             style="fill:#ffffff;fill-opacity:1;fill-rule:nonzero;stroke:none" /></g><g
           transform="translate(272.0709,538.2324)"
           id="g28"><path
             d="m 0,0 c 0,-6.67 -3.583,-12.079 -8.005,-12.079 -4.42,0 -8.004,5.409 -8.004,12.079 0,6.669 3.584,12.077 8.004,12.077 C -3.583,12.077 0,6.669 0,0"
             id="path30"
             style="fill:#000000;fill-opacity:1;fill-rule:nonzero;stroke:none" /></g><g
           transform="translate(346.3492,538.2324)"
           id="g32"><path
             d="m 0,0 c 0,-15.172 -8.15,-27.472 -18.205,-27.472 -10.054,0 -18.204,12.3 -18.204,27.472 0,15.171 8.15,27.471 18.204,27.471 C -8.15,27.471 0,15.171 0,0"
             id="path34"
             style="fill:#ffffff;fill-opacity:1;fill-rule:nonzero;stroke:none" /></g><g
           transform="translate(336.149,538.2324)"
           id="g36"><path
             d="m 0,0 c 0,-6.67 -3.583,-12.079 -8.005,-12.079 -4.42,0 -8.004,5.409 -8.004,12.079 0,6.669 3.584,12.077 8.004,12.077 C -3.583,12.077 0,6.669 0,0"
             id="path38"
             style="fill:#000000;fill-opacity:1;fill-rule:nonzero;stroke:none" /></g><g
           transform="translate(208.5367,486.584)"
           id="g40"><path
             d="m 0,0 0,-25.255 c 0,-13.891 13.507,-25.256 30.015,-25.256 16.507,0 30.014,11.365 30.014,25.256 l 0,25.255"
             id="path42"
             style="fill:none;stroke:#000000;stroke-width:9;stroke-linecap:round;stroke-linejoin:round;stroke-miterlimit:10;stroke-opacity:1;stroke-dasharray:none" /></g><g
           transform="translate(276.6295,166.3535)"
           id="g44"><path
             d="m 0,0 c 0,0 29.317,-132.636 29.317,-131.858 0,1.547 -31.726,-30.18 -31.726,-30.18 l 143.931,0 -31.726,30.18 L 87.02,0 0,0 z"
             id="path46"
             style="fill:#407fa2;fill-opacity:1;fill-rule:nonzero;stroke:none" /></g><g
           transform="translate(326.8238,138.2569)"
           id="g48"><path
             d="M 0,0 19.199,-133.757"
             id="path50"
             style="fill:none;stroke:#000000;stroke-width:9;stroke-linecap:round;stroke-linejoin:round;stroke-miterlimit:10;stroke-opacity:1;stroke-dasharray:none" /></g><g
           transform="translate(230.9976,397.6553)"
           id="g52"><path
             d="m 0,0 c 0,0 -28.658,-68.766 -80.119,4.312 -3.595,-14.455 -47.812,-72.78 -47.812,-72.78 80.196,-62.911 143.472,17.149 133.687,49.463 L 0,0 z"
             id="path54"
             style="fill:#407fa2;fill-opacity:1;fill-rule:nonzero;stroke:none" /></g><g
           transform="translate(230.9976,397.6553)"
           id="g56"><path
             d="m 0,0 c 0,0 -28.658,-68.766 -80.119,4.312 -3.595,-14.455 -47.812,-72.78 -47.812,-72.78 80.196,-62.911 143.472,17.149 133.687,49.463 L 0,0 z"
             id="path58"
             style="fill:none;stroke:#407fa2;stroke-width:6;stroke-linecap:butt;stroke-linejoin:round;stroke-miterlimit:10;stroke-opacity:1;stroke-dasharray:none" /></g><g
           transform="translate(78.6231,482.1182)"
           id="g60"><path
             d="m 0,0 c -4.597,3.02 -10.829,1.729 -13.849,-2.867 l -51.829,-78.895 c -3.02,-4.595 -1.729,-10.828 2.867,-13.847 l 78.896,-51.83 c 4.597,-3.021 10.829,-1.731 13.849,2.867 l 51.83,78.896 c 3.02,4.596 1.729,10.828 -2.868,13.848 L 0,0 z"
             id="path62"
             style="fill:#407fa2;fill-opacity:1;fill-rule:nonzero;stroke:none" /></g><g
           transform="translate(151.8956,495.4229)"
           id="g64"><path
             d="m 0,0 19.359,46.153 c 3.342,7.966 1.178,17.254 -4.709,23.195 L -5.308,23.16 C -9.64,13.133 -21.192,8.896 -30.98,13.746 l -17.456,8.645 c -9.788,4.849 -13.413,16.606 -8.057,26.125 l 24.663,43.83 c -8.272,1.05 -16.936,-2.852 -21.236,-10.319 L -78.05,38.661 c -5.452,-9.464 -1.906,-21.174 7.881,-26.023 0,0 7.386,-2.574 3.429,-10.56 l -72.439,-126.313 c -5.433,-9.475 -1.872,-21.196 7.916,-26.042 l 13.207,-6.542 c 9.787,-4.848 21.269,-0.581 25.513,9.484 l 56.585,134.163 c 3.786,7.64 10.481,3.672 10.481,3.672 C -15.69,-14.348 -4.225,-10.073 0,0"
             id="path66"
             style="fill:#ffffff;fill-opacity:1;fill-rule:nonzero;stroke:none" /></g><g
           transform="translate(151.8956,495.4229)"
           id="g68"><path
             d="m 0,0 19.359,46.153 c 3.342,7.966 1.178,17.254 -4.709,23.195 L -5.308,23.16 C -9.64,13.133 -21.192,8.896 -30.98,13.746 l -17.456,8.645 c -9.788,4.849 -13.413,16.606 -8.057,26.125 l 24.663,43.83 c -8.272,1.05 -16.936,-2.852 -21.236,-10.319 L -78.05,38.661 c -5.452,-9.464 -1.906,-21.174 7.881,-26.023 0,0 7.386,-2.574 3.429,-10.56 l -72.439,-126.313 c -5.433,-9.475 -1.872,-21.196 7.916,-26.042 l 13.207,-6.542 c 9.787,-4.848 21.269,-0.581 25.513,9.484 l 56.585,134.163 c 3.786,7.64 10.481,3.672 10.481,3.672 C -15.69,-14.348 -4.225,-10.073 0,0 z"
             id="path70"
             style="fill:none;stroke:#ffffff;stroke-width:5;stroke-linecap:butt;stroke-linejoin:round;stroke-miterlimit:10;stroke-opacity:1;stroke-dasharray:none" /></g><g
           transform="translate(62.8258,492.8643)"
           id="g72"><path
             d="m 0,0 c -6.309,4.143 -14.788,2.386 -18.932,-3.924 -4.145,-6.312 -2.39,-14.788 3.921,-18.934 L 7.496,-37.644 c 6.311,-4.145 14.786,-2.395 18.932,3.917 4.148,6.315 2.392,14.79 -3.921,18.932 L 0,0 z"
             id="path74"
             style="fill:#407fa2;fill-opacity:1;fill-rule:nonzero;stroke:none" /></g><g
           transform="translate(34.6949,443.2569)"
           id="g76"><path
             d="m 0,0 c -6.923,4.545 -16.229,2.618 -20.777,-4.308 -4.547,-6.924 -2.621,-16.224 4.305,-20.777 L 8.226,-41.311 c 6.925,-4.549 16.227,-2.628 20.775,4.301 4.554,6.928 2.627,16.23 -4.302,20.776 L 0,0 z"
             id="path78"
             style="fill:#407fa2;fill-opacity:1;fill-rule:nonzero;stroke:none" /></g><g
           transform="translate(21.1778,415.7002)"
           id="g80"><path
             d="m 0,0 c -6.31,4.143 -14.788,2.385 -18.933,-3.922 -4.144,-6.312 -2.387,-14.789 3.923,-18.935 L 7.496,-37.642 c 6.31,-4.146 14.785,-2.395 18.932,3.917 4.148,6.314 2.392,14.79 -3.922,18.93 L 0,0 z"
             id="path82"
             style="fill:#407fa2;fill-opacity:1;fill-rule:nonzero;stroke:none" /></g><g
           transform="translate(47.6056,381.9756)"
           id="g84"><path
             d="M 0,0 C 4.148,6.314 2.392,14.789 -3.922,17.05 L -26.428,31.844"
             id="path86"
             style="fill:none;stroke:#000000;stroke-width:9;stroke-linecap:round;stroke-linejoin:round;stroke-miterlimit:10;stroke-opacity:1;stroke-dasharray:none" /></g><g
           transform="translate(48.4708,469.5127)"
           id="g88"><path
             d="m 0,0 c -7.103,4.664 -16.651,2.69 -21.317,-4.417 -4.667,-7.106 -2.691,-16.651 4.415,-21.319 l 25.343,-16.65 c 7.105,-4.668 16.648,-2.694 21.317,4.414 4.672,7.11 2.694,16.652 -4.415,21.314 L 0,0 z"
             id="path90"
             style="fill:#407fa2;fill-opacity:1;fill-rule:nonzero;stroke:none" /></g><g
           transform="translate(28.6734,378.0586)"
           id="g92"><path
             d="M 0,0 C 6.31,-4.146 14.786,-2.396 18.932,3.917"
             id="path94"
             style="fill:none;stroke:#000000;stroke-width:9;stroke-linecap:round;stroke-linejoin:round;stroke-miterlimit:10;stroke-opacity:1;stroke-dasharray:none" /></g><g
           transform="translate(63.6964,406.2471)"
           id="g96"><path
             d="M 0,0 C 4.553,6.928 2.626,16.229 -4.303,18.895 L -29.001,35.129"
             id="path98"
             style="fill:none;stroke:#000000;stroke-width:9;stroke-linecap:round;stroke-linejoin:round;stroke-miterlimit:10;stroke-opacity:1;stroke-dasharray:none" /></g><g
           transform="translate(42.921,401.9463)"
           id="g100"><path
             d="M 0,0 C 9.226,-6.062 13.926,-6.133 20.775,4.301"
             id="path102"
             style="fill:none;stroke:#000000;stroke-width:9;stroke-linecap:round;stroke-linejoin:round;stroke-miterlimit:10;stroke-opacity:1;stroke-dasharray:none" /></g><g
           transform="translate(78.2286,431.541)"
           id="g104"><path
             d="M 0,0 C 4.672,7.109 2.694,16.651 -4.415,19.433 L -29.758,36.091"
             id="path106"
             style="fill:none;stroke:#000000;stroke-width:9;stroke-linecap:round;stroke-linejoin:round;stroke-miterlimit:10;stroke-opacity:1;stroke-dasharray:none" /></g><g
           transform="translate(65.5465,424.5977)"
           id="g108"><path
             d="m 0,0 c 4.941,0.064 9.763,0.62 12.682,5.062 l 0,1.881"
             id="path110"
             style="fill:none;stroke:#000000;stroke-width:9;stroke-linecap:round;stroke-linejoin:round;stroke-miterlimit:10;stroke-opacity:1;stroke-dasharray:none" /></g><g
           transform="translate(139.5885,472.666)"
           id="g112"><path
             d="M 0,0 C -2.182,7.327 -9.894,11.496 -17.217,9.314 L -18.17,9.03 c -0.617,-0.111 -1.232,-0.247 -1.847,-0.433 -0.613,-0.18 -1.204,-0.401 -1.779,-0.645 l -37.521,-11.98 c -7.328,-2.181 -11.501,-9.89 -9.314,-17.214 2.177,-7.331 9.886,-11.5 17.216,-9.32 l 23.484,7.073 6.06,-20.36 c 2.642,-8.862 11.968,-13.908 20.826,-11.268 8.868,2.639 20.208,0.964 17.572,9.822 L 0.809,-2.671 C 0.662,-2.179 0.488,-1.702 0.301,-1.232 0.217,-0.821 0.121,-0.41 0,0"
             id="path114"
             style="fill:#407fa2;fill-opacity:1;fill-rule:nonzero;stroke:none" /></g><g
           transform="translate(91.2262,472.1367)"
           id="g116"><path
             d="m 0,0 -10.955,-3.499 c -7.327,-2.181 -11.501,-9.89 -9.314,-17.214 2.178,-7.331 9.887,-11.5 17.216,-9.32 l 23.484,7.073 6.06,-20.359 c -3.996,-1.968 -41.744,-25.568 -8.979,-50.552"
             id="path118"
             style="fill:none;stroke:#000000;stroke-width:9;stroke-linecap:round;stroke-linejoin:round;stroke-miterlimit:10;stroke-opacity:1;stroke-dasharray:none" /></g><g
           transform="translate(300.0103,152.6494)"
           id="g120"><path
             d="m 0,0 2.387,-6.151 c 1.093,-2.822 4.298,-4.237 7.117,-3.14 l 2.734,1.061 c 2.823,1.093 5.727,0.451 6.455,-1.428 0.731,-1.88 -0.981,-4.315 -3.8,-5.408 l -1.026,-0.398 c -2.821,-1.095 -4.233,-4.298 -3.139,-7.118 l 3.845,-9.914 -5.7,-2.21 c -4.908,-1.903 -7.344,-7.429 -5.438,-12.339 1.903,-4.906 7.425,-7.346 12.335,-5.439 l 5.699,2.209 10.211,-26.327 c 1.093,-2.819 3.933,-6.66 6.31,-8.531 l 15.444,-12.169 c 2.375,-1.874 6.629,-2.509 9.448,-1.416 L 67.311,-97 c 2.82,1.094 5.529,4.43 6.023,7.416 l 3.2,19.402 c 0.493,2.982 10e-4,7.734 -1.094,10.556 l -10.21,26.325 162.232,62.557 c 4.909,1.904 7.345,7.429 5.441,12.339 -1.904,4.909 -7.428,7.346 -12.338,5.441 L 58.334,-15.522 54.488,-5.608 c -1.093,2.819 -4.295,4.234 -7.117,3.137 l -1.025,-0.395 c -2.821,-1.094 -5.727,-0.451 -6.455,1.43 -0.73,1.877 0.982,4.311 3.803,5.405 l 2.734,1.062 c 2.821,1.093 4.233,4.298 3.139,7.117 l -2.386,6.153 c -1.094,2.822 -4.297,4.235 -7.118,3.14 L 3.139,7.122 C 0.318,6.025 -1.094,2.822 0,0"
             id="path122"
             style="fill:#ffffff;fill-opacity:1;fill-rule:nonzero;stroke:none" /></g><g
           transform="translate(513.7906,141.4453)"
           id="g124"><path
             d="m 0,0 -5.461,26.367 -10e-4,0.004 -14.018,67.707 c -1.608,7.757 -7.607,13.515 -14.856,15.264 6.585,2.449 10.828,4.184 10.828,4.184 -12.222,101.194 -74.886,167.082 -90.817,137.315 l -9.368,-17.511 c 0,0 30.2,-49.393 14.914,-137.457 l -7.304,-1.512 c -7.627,-1.581 -13.323,-7.409 -15.171,-14.501 l -18.215,-39.501 c -0.247,-0.451 -0.461,-0.913 -0.66,-1.376 -0.232,-0.351 -0.455,-0.708 -0.657,-1.085 -3.639,-6.723 -1.134,-15.123 5.588,-18.761 l 0.872,-0.474 c 0.517,-0.356 1.048,-0.693 1.613,-0.996 0.563,-0.307 1.137,-0.568 1.714,-0.806 l 23.155,-11.944 1.317,-6.355 c -0.004,-0.939 0.084,-1.893 0.283,-2.849 l 5.453,-26.376 c 1.533,-7.391 8.772,-12.144 16.162,-10.612 7.395,1.533 12.146,8.766 10.615,16.162 l -1.845,8.909 0.056,0.012 1.678,-8.11 c 1.723,-8.319 9.871,-13.675 18.194,-11.95 7.462,1.548 12.519,8.256 12.247,15.626 3.278,-5.012 9.383,-7.785 15.6,-6.496 8.111,1.68 13.327,9.62 11.649,17.736 l -1.088,5.26 0.433,0.09 0.313,-1.514 c 1.532,-7.39 8.769,-12.142 16.16,-10.613 C -3.223,-14.63 1.529,-7.396 0,0"
             id="path126"
             style="fill:#407fa2;fill-opacity:1;fill-rule:nonzero;stroke:none" /></g><g
           transform="translate(372.8707,208.2364)"
           id="g128"><path
             d="m 0,0 -53.045,-1.881 0,167.574 41.025,25.552 89.745,0"
             id="path130"
             style="fill:#407fa2;fill-opacity:1;fill-rule:nonzero;stroke:#000000;stroke-width:9;stroke-linecap:round;stroke-linejoin:round;stroke-miterlimit:10;stroke-opacity:1;stroke-dasharray:none" /></g><g
           transform="translate(390.0973,374.7754)"
           id="g132"><path
             d="m 0,0 c 0.678,-1.109 29.522,-53.299 14.914,-137.457 l -7.304,-1.512 c -7.627,-1.581 -13.323,-7.409 -15.171,-14.501 l -18.214,-39.501 c -0.247,-0.451 -0.461,-0.913 -0.661,-1.376 -0.232,-0.351 -0.455,-0.708 -0.657,-1.086 -3.638,-6.722 -1.134,-15.122 5.588,-18.76 l 0.872,-0.474 c 0.518,-0.356 1.048,-0.693 1.613,-0.996 0.563,-0.307 1.137,-0.568 1.714,-0.806 l 23.156,-11.944 2.794,-14.096"
             id="path134"
             style="fill:none;stroke:#000000;stroke-width:9;stroke-linecap:round;stroke-linejoin:round;stroke-miterlimit:10;stroke-opacity:1;stroke-dasharray:none" /></g><g
           transform="translate(395.9469,146.3623)"
           id="g136"><path
             d="M 0,0 -4.599,24.145"
             id="path138"
             style="fill:none;stroke:#000000;stroke-width:9;stroke-linecap:round;stroke-linejoin:round;stroke-miterlimit:10;stroke-opacity:1;stroke-dasharray:none" /></g><path
           d="m 256.062,208.236 -41.025,0 0,167.574 41.025,0 0,-167.574 z"
           id="path140"
           style="fill:#407fa2;fill-opacity:1;fill-rule:nonzero;stroke:#407fa2;stroke-width:5;stroke-linecap:butt;stroke-linejoin:round;stroke-miterlimit:10;stroke-opacity:1;stroke-dasharray:none" /><g
           transform="translate(203.0172,208.2364)"
           id="g142"><path
             d="m 0,0 53.045,0 0,165.693 -41.025,23.671"
             id="path144"
             style="fill:#407fa2;fill-opacity:1;fill-rule:nonzero;stroke:#000000;stroke-width:9;stroke-linecap:round;stroke-linejoin:round;stroke-miterlimit:10;stroke-opacity:1;stroke-dasharray:none" /></g><g
           transform="translate(360.8512,399.4815)"
           id="g146"><path
             d="m 0,0 0,-24.706 8.029,-9.91 -49.054,-158.51"
             id="path148"
             style="fill:none;stroke:#000000;stroke-width:9;stroke-linecap:round;stroke-linejoin:round;stroke-miterlimit:10;stroke-opacity:1;stroke-dasharray:none" /></g><g
           transform="translate(213.0426,397.6006)"
           id="g150"><path
             d="m 0,0 0,-24.706 -8.03,-6.148 49.054,-158.51"
             id="path152"
             style="fill:none;stroke:#000000;stroke-width:9;stroke-linecap:round;stroke-linejoin:round;stroke-miterlimit:10;stroke-opacity:1;stroke-dasharray:none" /></g></g></g></g></svg>