<?xml version="1.0" encoding="UTF-8" standalone="no"?>
<!-- Created with Inkscape (http://www.inkscape.org/) -->

<svg
   xmlns:dc="http://purl.org/dc/elements/1.1/"
   xmlns:cc="http://creativecommons.org/ns#"
   xmlns:rdf="http://www.w3.org/1999/02/22-rdf-syntax-ns#"
   xmlns:svg="http://www.w3.org/2000/svg"
   xmlns="http://www.w3.org/2000/svg"
   version="1.1"
   width="880"
   height="840"
   id="svg2985"
   xml:space="preserve"><metadata
     id="metadata2991"><rdf:RDF><cc:Work
         rdf:about=""><dc:format>image/svg+xml</dc:format><dc:type
           rdf:resource="http://purl.org/dc/dcmitype/StillImage" /><dc:title></dc:title></cc:Work></rdf:RDF></metadata><defs
     id="defs2989"><clipPath
       id="clipPath2999"><path
         d="m 0,587.33 693.795,0 L 693.795,0 0,0 0,587.33 z"
         id="path3001" /></clipPath></defs><g
     transform="matrix(1.25,0,0,-1.25,0,840.00005)"
     id="g2993"><g
       transform="translate(5.6,4)"
       id="g2995"><g
         clip-path="url(#clipPath2999)"
         id="g2997"><g
           transform="translate(158.7886,266.1074)"
           id="g3003"><path
             d="m 0,0 -18.13,9.213 -18.836,9.572 c 6.327,2.76 9.987,9.714 8.355,16.671 -1.834,7.843 -9.676,12.711 -17.517,10.876 L -74.1,39.783 c -0.88,-0.206 -1.717,-0.498 -2.517,-0.847 l -5.866,2.981 c -4.904,2.492 -10.954,0.519 -13.446,-4.386 l -36.066,-70.968 c -2.492,-4.903 -0.519,-10.954 4.385,-13.445 l 64.318,-32.688 c 0.011,-0.006 0.021,-0.013 0.033,-0.019 l 18.132,-9.212 c 5.082,-2.584 11.295,-0.556 13.877,4.523 2.582,5.084 0.554,11.298 -4.525,13.878 l -2.6,1.321 2.572,5.061 2.599,-1.321 c 5.083,-2.58 11.297,-0.556 13.878,4.528 2.583,5.082 0.557,11.293 -4.525,13.878 l -2.598,1.321 2.573,5.062 2.599,-1.321 c 5.081,-2.585 11.295,-0.557 13.877,4.525 2.583,5.084 0.556,11.296 -4.526,13.881 l -2.597,1.319 2.572,5.063 2.598,-1.32 C -4.27,-20.988 1.943,-18.96 4.526,-13.88 7.109,-8.799 5.083,-2.583 0,0"
             id="path3005"
             style="fill:#407fa2;fill-opacity:1;fill-rule:nonzero;stroke:none" /></g><g
           transform="translate(324.3818,373.9434)"
           id="g3007"><path
             d="m 0,0 149.787,0 c 23.215,0 26.961,-66.973 74.891,-66.973 l 125.072,0 c 25.463,0 26.961,-47.396 0,-47.396 13.131,13.131 15.73,34.937 0,34.937 l -125.072,0 c -74.891,0 -62.179,71.457 -108.836,71.457 l -118.896,0 C -22.271,-6.25 0,0 0,0"
             id="path3009"
             style="fill:#ffffff;fill-opacity:1;fill-rule:nonzero;stroke:none" /></g><g
           transform="translate(674.1318,259.5742)"
           id="g3011"><path
             d="m 0,0 c 13.131,13.131 15.73,34.938 0,34.938 l -125.072,0 c -74.891,0 -62.179,71.457 -108.836,71.457 l -118.896,0 -67.937,-13.602 c 24.538,-2.201 109.646,0 118.892,0 46.658,0 33.944,-71.453 108.835,-71.453 l 125.073,0 c 15.726,0 30.117,-8.209 16.986,-21.34 L 0,0 z"
             id="path3013"
             style="fill:#407fa2;fill-opacity:1;fill-rule:nonzero;stroke:none" /></g><g
           transform="translate(158.2925,365.9688)"
           id="g3015"><path
             d="m 0,0 -27.83,66.039 c -14.059,-39.138 -25.038,-82.59 -27.767,-119.236 -10.327,-138.637 -5.604,-183.432 44.975,-183.432 89.848,0 128.027,-0.949 128.027,32.168 0,115.827 34.143,157.565 64.727,206.199 C 127.323,3.477 0,0 0,0"
             id="path3017"
             style="fill:#ffffff;fill-opacity:1;fill-rule:nonzero;stroke:none" /></g><g
           transform="translate(363.3228,536.7246)"
           id="g3019"><path
             d="m 0,0 c -34.566,25.418 -72.554,45.258 -100.902,47.922 -0.041,0.017 -0.066,0.033 -0.111,0.041 -23.826,5.334 -99.7,2.963 -98.201,-10.52 0.872,-7.857 9.876,-27.898 17.248,-43.279 -16.086,-17.704 -35.368,-55.662 -50.894,-98.881 l 27.83,-66.039 c 0,0 127.322,3.477 182.132,1.738 8.119,12.911 15.987,26.303 22.898,41.7 C 32.954,-53.922 50.931,-37.447 0,0"
             id="path3021"
             style="fill:#407fa2;fill-opacity:1;fill-rule:nonzero;stroke:none" /></g><g
           transform="translate(248.9512,82.0215)"
           id="g3023"><path
             d="m 0,0 c 0,0 -4.889,52.416 -4.811,56.355 l -89.876,0 C -94.608,52.258 -84.219,0 -84.219,0 L 0,0 z"
             id="path3025"
             style="fill:#ffffff;fill-opacity:1;fill-rule:nonzero;stroke:none" /></g><g
           transform="translate(164.7324,82.0215)"
           id="g3027"><path
             d="m 0,0 -12.593,0 c 0,0 26.09,-49.242 26.09,-48.492 0,1.498 -30.706,-29.209 -30.706,-29.209 l 139.299,0 L 91.385,-48.492 99.187,0 84.219,0 0,0 z"
             id="path3029"
             style="fill:#407fa2;fill-opacity:1;fill-rule:nonzero;stroke:none" /></g><g
           transform="translate(288.0508,218.1973)"
           id="g3031"><path
             d="m 0,0 -195.682,22.68 3.471,29.935 L 3.472,29.939 0,0 z"
             id="path3033"
             style="fill:#000000;fill-opacity:1;fill-rule:nonzero;stroke:none" /></g><g
           transform="translate(288.0508,218.1973)"
           id="g3035"><path
             d="m 0,0 -195.682,22.68 3.471,29.935 L 3.472,29.939 0,0 z"
             id="path3037"
             style="fill:none;stroke:#000000;stroke-width:5;stroke-linecap:butt;stroke-linejoin:round;stroke-miterlimit:10;stroke-opacity:1;stroke-dasharray:none" /></g><g
           transform="translate(214.7969,240.0859)"
           id="g3039"><path
             d="m 0,0 c -8.591,-27.648 -37.967,-43.1 -65.616,-34.508 -27.653,8.586 -43.1,37.967 -34.513,65.615 8.591,27.649 37.968,43.106 65.621,34.514 C -6.859,57.029 8.592,27.648 0,0"
             id="path3041"
             style="fill:#407fa2;fill-opacity:1;fill-rule:nonzero;stroke:none" /></g><g
           transform="translate(214.7969,240.0859)"
           id="g3043"><path
             d="m 0,0 c -8.591,-27.648 -37.967,-43.1 -65.616,-34.508 -27.653,8.586 -43.1,37.967 -34.513,65.615 8.591,27.649 37.968,43.106 65.621,34.514 C -6.859,57.029 8.592,27.648 0,0 z"
             id="path3045"
             style="fill:none;stroke:#000000;stroke-width:9;stroke-linecap:round;stroke-linejoin:miter;stroke-miterlimit:10;stroke-opacity:1;stroke-dasharray:none" /></g><g
           transform="translate(176.4121,293.2344)"
           id="g3047"><path
             d="M 0,0 4.016,-25.314 27.146,-36.361 4.31,-48.004 0.95,-73.412 l -18.129,18.123 -25.205,-4.662 11.633,22.84 -12.218,22.533 25.316,-4.004 L 0,0 z"
             id="path3049"
             style="fill:#ffffff;fill-opacity:1;fill-rule:nonzero;stroke:none" /></g><g
           transform="translate(135.7559,373.377)"
           id="g3051"><path
             d="m 0,0 -14.211,29.34 -118.545,-62.423 30.235,-94.119 26.504,47.059 -20.388,28.448 L 0,0 z"
             id="path3053"
             style="fill:#ffffff;fill-opacity:1;fill-rule:nonzero;stroke:none" /></g><g
           transform="translate(135.7559,373.377)"
           id="g3055"><path
             d="m 0,0 -14.211,29.34 -118.545,-62.423 30.235,-94.119 26.504,47.059 -20.388,28.448 L 0,0 z"
             id="path3057"
             style="fill:none;stroke:#ffffff;stroke-width:6;stroke-linecap:butt;stroke-linejoin:round;stroke-miterlimit:10;stroke-opacity:1;stroke-dasharray:none" /></g><g
           transform="translate(291.1309,329.1797)"
           id="g3059"><path
             d="m 0,0 34.874,28.392 90.638,-97.997 -83.085,-84.143 10.837,73.893 23.002,12.187 L 0,0 z"
             id="path3061"
             style="fill:#ffffff;fill-opacity:1;fill-rule:nonzero;stroke:none" /></g><g
           transform="translate(291.1309,329.1797)"
           id="g3063"><path
             d="m 0,0 34.874,28.392 90.638,-97.997 -83.085,-84.143 10.837,73.893 23.002,12.187 L 0,0 z"
             id="path3065"
             style="fill:none;stroke:#ffffff;stroke-width:6;stroke-linecap:butt;stroke-linejoin:round;stroke-miterlimit:10;stroke-opacity:1;stroke-dasharray:none" /></g><g
           transform="translate(248.8438,552.1113)"
           id="g3067"><path
             d="m 0,0 -6.488,-17.285 c -3.491,-9.291 -13.851,-13.998 -23.15,-10.512 -9.292,3.488 -13.999,13.852 -10.507,23.143 l 6.487,17.289"
             id="path3069"
             style="fill:none;stroke:#000000;stroke-width:9;stroke-linecap:round;stroke-linejoin:miter;stroke-miterlimit:10;stroke-opacity:1;stroke-dasharray:none" /></g><g
           transform="translate(304.5669,531.1914)"
           id="g3071"><path
             d="m 0,0 -6.487,-17.281 c -3.488,-9.291 -13.856,-14.002 -23.147,-10.516 -9.291,3.492 -13.998,13.856 -10.507,23.147 l 6.488,17.285"
             id="path3073"
             style="fill:none;stroke:#000000;stroke-width:9;stroke-linecap:round;stroke-linejoin:miter;stroke-miterlimit:10;stroke-opacity:1;stroke-dasharray:none" /></g><g
           transform="translate(252.3267,473.9375)"
           id="g3075"><path
             d="m 0,0 c 0,0 -45.22,-49.389 -85.902,-30.307 -40.681,19.075 -31.627,85.424 -31.627,85.424 0,0 16.561,-33.138 49.011,-48.355 C -36.06,-8.461 0,0 0,0"
             id="path3077"
             style="fill:#ffffff;fill-opacity:1;fill-rule:nonzero;stroke:none" /></g><g
           transform="translate(252.3267,473.9375)"
           id="g3079"><path
             d="m 0,0 c 0,0 -45.22,-49.389 -85.902,-30.307 -40.681,19.075 -31.627,85.424 -31.627,85.424 0,0 16.561,-33.138 49.011,-48.355 C -36.06,-8.461 0,0 0,0 z"
             id="path3081"
             style="fill:none;stroke:#000000;stroke-width:9;stroke-linecap:round;stroke-linejoin:round;stroke-miterlimit:10;stroke-opacity:1;stroke-dasharray:none" /></g><g
           transform="translate(154.5757,502.1426)"
           id="g3083"><path
             d="M 0,0 -13.81,-29.453"
             id="path3085"
             style="fill:none;stroke:#000000;stroke-width:5;stroke-linecap:round;stroke-linejoin:round;stroke-miterlimit:10;stroke-opacity:1;stroke-dasharray:none" /></g><g
           transform="translate(172.0898,483.9238)"
           id="g3087"><path
             d="M 0,0 -14.71,-31.369"
             id="path3089"
             style="fill:none;stroke:#000000;stroke-width:5;stroke-linecap:round;stroke-linejoin:round;stroke-miterlimit:10;stroke-opacity:1;stroke-dasharray:none" /></g><g
           transform="translate(193.3125,473.6016)"
           id="g3091"><path
             d="M 0,0 -14.973,-31.918"
             id="path3093"
             style="fill:none;stroke:#000000;stroke-width:5;stroke-linecap:round;stroke-linejoin:round;stroke-miterlimit:10;stroke-opacity:1;stroke-dasharray:none" /></g><g
           transform="translate(218.6611,472.0859)"
           id="g3095"><path
             d="M 0,0 -13.814,-29.453"
             id="path3097"
             style="fill:none;stroke:#000000;stroke-width:5;stroke-linecap:round;stroke-linejoin:round;stroke-miterlimit:10;stroke-opacity:1;stroke-dasharray:none" /></g><g
           transform="translate(203.4063,123.8379)"
           id="g3099"><path
             d="M 0,0 13.609,-119.338"
             id="path3101"
             style="fill:none;stroke:#000000;stroke-width:9;stroke-linecap:round;stroke-linejoin:miter;stroke-miterlimit:10;stroke-opacity:1;stroke-dasharray:none" /></g><g
           transform="translate(336.3857,263.625)"
           id="g3103"><path
             d="M 0,0 -6.512,0.955 C -6.963,1.702 -7.477,2.423 -8.076,3.1 l -19.051,21.5 c -5.341,6.027 -14.555,6.586 -20.581,1.242 -5.353,-4.737 -6.381,-12.525 -2.812,-18.434 l -28.248,4.143 c -0.007,10e-4 -0.013,10e-4 -0.02,0.002 l -12.756,1.874 c -5.639,0.826 -10.884,-3.077 -11.71,-8.718 -0.828,-5.64 3.074,-10.884 8.715,-11.709 l 2.882,-0.423 -0.825,-5.621 -2.882,0.423 c -5.641,0.828 -10.884,-3.072 -11.71,-8.715 -0.828,-5.641 3.074,-10.881 8.714,-11.709 l 2.883,-0.423 -0.824,-5.62 -2.883,0.422 c -5.641,0.831 -10.884,-3.072 -11.71,-8.713 -0.828,-5.642 3.075,-10.884 8.714,-11.712 l 2.883,-0.422 -0.824,-5.618 -2.883,0.422 c -5.639,0.828 -10.881,-3.072 -11.711,-8.715 -0.826,-5.638 3.076,-10.881 8.714,-11.707 l 20.126,-2.95 c 0.004,-10e-4 0.009,-10e-4 0.013,-0.002 l 71.407,-10.472 c 5.442,-0.798 10.547,3.001 11.346,8.444 L 8.443,-11.344 C 9.241,-5.902 5.442,-0.797 0,0"
             id="path3105"
             style="fill:#407fa2;fill-opacity:1;fill-rule:nonzero;stroke:none" /></g></g></g></g></svg>