<?xml version="1.0" encoding="UTF-8" standalone="no"?>
<!-- Created with Inkscape (http://www.inkscape.org/) -->

<svg
   xmlns:dc="http://purl.org/dc/elements/1.1/"
   xmlns:cc="http://creativecommons.org/ns#"
   xmlns:rdf="http://www.w3.org/1999/02/22-rdf-syntax-ns#"
   xmlns:svg="http://www.w3.org/2000/svg"
   xmlns="http://www.w3.org/2000/svg"
   version="1.1"
   width="880"
   height="840"
   id="svg2985"
   xml:space="preserve"><metadata
     id="metadata2991"><rdf:RDF><cc:Work
         rdf:about=""><dc:format>image/svg+xml</dc:format><dc:type
           rdf:resource="http://purl.org/dc/dcmitype/StillImage" /><dc:title></dc:title></cc:Work></rdf:RDF></metadata><defs
     id="defs2989"><clipPath
       id="clipPath2999"><path
         d="m 0,590.528 552.428,0 L 552.428,0 0,0 0,590.528 z"
         id="path3001" /></clipPath></defs><g
     transform="matrix(1.25,0,0,-1.25,35.59322,832.88139)"
     id="g2993"><g
       transform="translate(44.8,2.4)"
       id="g2995"><g
         clip-path="url(#clipPath2999)"
         id="g2997"><g
           transform="translate(297.4629,410.8819)"
           id="g3003"><path
             d="M 0,0 C 0,0 24.445,-66.927 81.275,-116.877 67.087,-121.415 11.798,-169.375 11.798,-169.375 -56.253,-93.491 -58.166,-22.937 -25.719,0 -9.503,11.463 0,0 0,0"
             id="path3005"
             style="fill:#407fa2;fill-opacity:1;fill-rule:nonzero;stroke:none" /></g><g
           transform="translate(297.4629,410.8819)"
           id="g3007"><path
             d="M 0,0 C 0,0 24.445,-66.927 81.275,-116.877 67.087,-121.415 11.798,-169.375 11.798,-169.375 -56.253,-93.491 -58.166,-22.937 -25.719,0 -9.503,11.463 0,0 0,0 z"
             id="path3009"
             style="fill:none;stroke:#407fa2;stroke-width:6;stroke-linecap:butt;stroke-linejoin:round;stroke-miterlimit:10;stroke-opacity:1;stroke-dasharray:none" /></g><g
           transform="translate(455.0522,215.7735)"
           id="g3011"><path
             d="m 0,0 c 3.316,-4.388 2.438,-10.691 -1.95,-14.007 l -75.314,-56.908 c -4.388,-3.315 -10.691,-2.438 -14.007,1.95 L -148.179,6.35 c -3.316,4.387 -2.438,10.691 1.95,14.006 l 75.316,56.909 c 4.388,3.316 10.691,2.439 14.006,-1.95 L 0,0 z"
             id="path3013"
             style="fill:#407fa2;fill-opacity:1;fill-rule:nonzero;stroke:none" /></g><g
           transform="translate(421.9224,172.75)"
           id="g3015"><path
             d="m 0,0 c -1.084,0 -2.158,0.48 -2.879,1.399 l -57.822,73.769 c -0.598,0.764 -0.868,1.732 -0.752,2.694 0.117,0.962 0.611,1.839 1.374,2.437 L 63.12,176.866 c 0.647,0.507 1.442,0.779 2.255,0.779 0.146,0 0.292,-0.009 0.439,-0.027 0.962,-0.116 1.839,-0.61 2.437,-1.373 l 57.822,-73.77 c 1.245,-1.589 0.967,-3.886 -0.622,-5.131 L 2.252,0.778 C 1.583,0.254 0.789,0 0,0"
             id="path3017"
             style="fill:#ffffff;fill-opacity:1;fill-rule:nonzero;stroke:none" /></g><g
           transform="translate(487.2968,354.0493)"
           id="g3019"><path
             d="m 0,0 c -1.626,0 -3.216,-0.543 -4.509,-1.557 l -123.199,-96.567 c -1.526,-1.196 -2.514,-2.949 -2.747,-4.873 -0.233,-1.924 0.308,-3.863 1.503,-5.388 l 57.823,-73.769 c 1.441,-1.839 3.588,-2.801 5.757,-2.801 1.578,0 3.166,0.509 4.504,1.558 l 123.199,96.565 c 3.177,2.49 3.734,7.084 1.244,10.261 L 5.753,-2.8 C 4.557,-1.274 2.804,-0.286 0.879,-0.053 0.586,-0.018 0.292,0 0,0 M 0,-7.309 57.822,-81.08 -65.377,-177.645 -123.199,-103.876 0,-7.309"
             id="path3021"
             style="fill:#2b2b2a;fill-opacity:1;fill-rule:nonzero;stroke:none" /></g><g
           transform="translate(461.1636,319.7529)"
           id="g3023"><path
             d="M 0,0 51.508,-65.714 77.044,-45.699 25.536,20.016 0,0 z"
             id="path3025"
             style="fill:#407fa2;fill-opacity:1;fill-rule:nonzero;stroke:none" /></g><g
           transform="translate(461.1636,319.7529)"
           id="g3027"><path
             d="M 0,0 51.508,-65.714 77.044,-45.699 25.536,20.016 0,0 z"
             id="path3029"
             style="fill:none;stroke:#ffffff;stroke-width:2.28500009;stroke-linecap:round;stroke-linejoin:round;stroke-miterlimit:10;stroke-opacity:1;stroke-dasharray:none" /></g><g
           transform="translate(452.4463,312.9209)"
           id="g3031"><path
             d="m 0,0 -10.66,-8.355 c -1.124,-0.88 -1.322,-2.52 -0.442,-3.645 l 8.841,-11.279"
             id="path3033"
             style="fill:none;stroke:#2b2b2a;stroke-width:2.28500009;stroke-linecap:round;stroke-linejoin:miter;stroke-miterlimit:10;stroke-opacity:1;stroke-dasharray:none" /></g><g
           transform="translate(465.709,295.9981)"
           id="g3035"><path
             d="m 0,0 -10.659,-8.355 c -1.124,-0.879 -1.323,-2.519 -0.442,-3.643 l 8.84,-11.278"
             id="path3037"
             style="fill:none;stroke:#2b2b2a;stroke-width:2.28500009;stroke-linecap:round;stroke-linejoin:miter;stroke-miterlimit:10;stroke-opacity:1;stroke-dasharray:none" /></g><g
           transform="translate(478.9727,279.0791)"
           id="g3039"><path
             d="m 0,0 -10.66,-8.355 c -1.124,-0.88 -1.322,-2.52 -0.442,-3.644 l 8.841,-11.28"
             id="path3041"
             style="fill:none;stroke:#2b2b2a;stroke-width:2.28500009;stroke-linecap:round;stroke-linejoin:miter;stroke-miterlimit:10;stroke-opacity:1;stroke-dasharray:none" /></g><g
           transform="translate(492.2354,262.1563)"
           id="g3043"><path
             d="m 0,0 -10.66,-8.357 c -1.124,-0.88 -1.323,-2.519 -0.442,-3.642 l 8.841,-11.278"
             id="path3045"
             style="fill:none;stroke:#2b2b2a;stroke-width:2.28500009;stroke-linecap:round;stroke-linejoin:miter;stroke-miterlimit:10;stroke-opacity:1;stroke-dasharray:none" /></g><g
           transform="translate(435.084,299.3115)"
           id="g3047"><path
             d="m 0,0 -10.662,-8.357 c -1.123,-0.881 -1.322,-2.52 -0.442,-3.644 l 8.841,-11.28"
             id="path3049"
             style="fill:none;stroke:#2b2b2a;stroke-width:2.28500009;stroke-linecap:round;stroke-linejoin:miter;stroke-miterlimit:10;stroke-opacity:1;stroke-dasharray:none" /></g><g
           transform="translate(448.3467,282.3887)"
           id="g3051"><path
             d="m 0,0 -10.661,-8.357 c -1.124,-0.88 -1.322,-2.519 -0.442,-3.643 l 8.84,-11.278"
             id="path3053"
             style="fill:none;stroke:#2b2b2a;stroke-width:2.28500009;stroke-linecap:round;stroke-linejoin:miter;stroke-miterlimit:10;stroke-opacity:1;stroke-dasharray:none" /></g><g
           transform="translate(461.6099,265.4688)"
           id="g3055"><path
             d="m 0,0 -10.662,-8.357 c -1.124,-0.88 -1.322,-2.519 -0.442,-3.643 l 8.841,-11.281"
             id="path3057"
             style="fill:none;stroke:#2b2b2a;stroke-width:2.28500009;stroke-linecap:round;stroke-linejoin:miter;stroke-miterlimit:10;stroke-opacity:1;stroke-dasharray:none" /></g><g
           transform="translate(474.873,248.5469)"
           id="g3059"><path
             d="m 0,0 -10.662,-8.357 c -1.123,-0.879 -1.322,-2.519 -0.441,-3.643 l 8.839,-11.279"
             id="path3061"
             style="fill:none;stroke:#2b2b2a;stroke-width:2.28500009;stroke-linecap:round;stroke-linejoin:miter;stroke-miterlimit:10;stroke-opacity:1;stroke-dasharray:none" /></g><g
           transform="translate(418.0293,285.9444)"
           id="g3063"><path
             d="m 0,0 -10.66,-8.355 c -1.123,-0.881 -1.322,-2.52 -0.442,-3.644 l 8.841,-11.279"
             id="path3065"
             style="fill:none;stroke:#2b2b2a;stroke-width:2.28500009;stroke-linecap:round;stroke-linejoin:miter;stroke-miterlimit:10;stroke-opacity:1;stroke-dasharray:none" /></g><g
           transform="translate(431.293,269.0225)"
           id="g3067"><path
             d="m 0,0 -10.66,-8.355 c -1.123,-0.881 -1.322,-2.52 -0.442,-3.644 l 8.84,-11.279"
             id="path3069"
             style="fill:none;stroke:#2b2b2a;stroke-width:2.28500009;stroke-linecap:round;stroke-linejoin:miter;stroke-miterlimit:10;stroke-opacity:1;stroke-dasharray:none" /></g><g
           transform="translate(444.5557,252.1016)"
           id="g3071"><path
             d="m 0,0 -10.66,-8.354 c -1.124,-0.881 -1.322,-2.522 -0.442,-3.645 l 8.841,-11.28"
             id="path3073"
             style="fill:none;stroke:#2b2b2a;stroke-width:2.28500009;stroke-linecap:round;stroke-linejoin:miter;stroke-miterlimit:10;stroke-opacity:1;stroke-dasharray:none" /></g><g
           transform="translate(457.8188,235.1817)"
           id="g3075"><path
             d="m 0,0 -10.66,-8.357 c -1.124,-0.88 -1.322,-2.519 -0.442,-3.643 l 8.841,-11.278"
             id="path3077"
             style="fill:none;stroke:#2b2b2a;stroke-width:2.28500009;stroke-linecap:round;stroke-linejoin:miter;stroke-miterlimit:10;stroke-opacity:1;stroke-dasharray:none" /></g><g
           transform="translate(458.6826,211.6084)"
           id="g3079"><path
             d="m 0,0 10.661,8.357 c 1.123,0.881 1.322,2.521 0.441,3.645 L 2.261,23.28"
             id="path3081"
             style="fill:none;stroke:#407fa2;stroke-width:1.523;stroke-linecap:round;stroke-linejoin:miter;stroke-miterlimit:10;stroke-opacity:1;stroke-dasharray:none" /></g><g
           transform="translate(445.4189,228.5322)"
           id="g3083"><path
             d="m 0,0 10.66,8.354 c 1.124,0.88 1.323,2.521 0.442,3.644 l -8.84,11.281"
             id="path3085"
             style="fill:none;stroke:#407fa2;stroke-width:1.523;stroke-linecap:round;stroke-linejoin:miter;stroke-miterlimit:10;stroke-opacity:1;stroke-dasharray:none" /></g><g
           transform="translate(432.1572,245.4531)"
           id="g3087"><path
             d="m 0,0 10.66,8.357 c 1.124,0.88 1.322,2.519 0.442,3.642 L 2.26,23.277"
             id="path3089"
             style="fill:none;stroke:#407fa2;stroke-width:1.523;stroke-linecap:round;stroke-linejoin:miter;stroke-miterlimit:10;stroke-opacity:1;stroke-dasharray:none" /></g><g
           transform="translate(418.8926,262.3731)"
           id="g3091"><path
             d="m 0,0 10.661,8.356 c 1.124,0.881 1.322,2.52 0.442,3.644 L 2.262,23.281"
             id="path3093"
             style="fill:none;stroke:#407fa2;stroke-width:1.523;stroke-linecap:round;stroke-linejoin:miter;stroke-miterlimit:10;stroke-opacity:1;stroke-dasharray:none" /></g><g
           transform="translate(400.9834,272.582)"
           id="g3095"><path
             d="m 0,0 -10.661,-8.356 c -1.123,-0.881 -1.322,-2.52 -0.442,-3.644 l 8.842,-11.279"
             id="path3097"
             style="fill:none;stroke:#2b2b2a;stroke-width:2.28500009;stroke-linecap:round;stroke-linejoin:miter;stroke-miterlimit:10;stroke-opacity:1;stroke-dasharray:none" /></g><g
           transform="translate(414.2461,255.6621)"
           id="g3099"><path
             d="m 0,0 -10.66,-8.354 c -1.124,-0.88 -1.322,-2.52 -0.442,-3.644 l 8.841,-11.282"
             id="path3101"
             style="fill:none;stroke:#2b2b2a;stroke-width:2.28500009;stroke-linecap:round;stroke-linejoin:miter;stroke-miterlimit:10;stroke-opacity:1;stroke-dasharray:none" /></g><g
           transform="translate(427.5088,238.7403)"
           id="g3103"><path
             d="m 0,0 -10.66,-8.354 c -1.123,-0.881 -1.322,-2.522 -0.442,-3.645 l 8.841,-11.28"
             id="path3105"
             style="fill:none;stroke:#2b2b2a;stroke-width:2.28500009;stroke-linecap:round;stroke-linejoin:miter;stroke-miterlimit:10;stroke-opacity:1;stroke-dasharray:none" /></g><g
           transform="translate(440.772,221.8174)"
           id="g3107"><path
             d="m 0,0 -10.66,-8.355 c -1.123,-0.881 -1.322,-2.52 -0.442,-3.645 l 8.841,-11.276"
             id="path3109"
             style="fill:none;stroke:#2b2b2a;stroke-width:2.28500009;stroke-linecap:round;stroke-linejoin:miter;stroke-miterlimit:10;stroke-opacity:1;stroke-dasharray:none" /></g><g
           transform="translate(441.6357,198.2481)"
           id="g3111"><path
             d="m 0,0 10.661,8.357 c 1.123,0.881 1.322,2.521 0.441,3.644 L 2.261,23.279"
             id="path3113"
             style="fill:none;stroke:#407fa2;stroke-width:1.523;stroke-linecap:round;stroke-linejoin:miter;stroke-miterlimit:10;stroke-opacity:1;stroke-dasharray:none" /></g><g
           transform="translate(428.3721,215.1699)"
           id="g3115"><path
             d="m 0,0 10.661,8.356 c 1.123,0.881 1.322,2.52 0.442,3.644 L 2.262,23.279"
             id="path3117"
             style="fill:none;stroke:#407fa2;stroke-width:1.523;stroke-linecap:round;stroke-linejoin:miter;stroke-miterlimit:10;stroke-opacity:1;stroke-dasharray:none" /></g><g
           transform="translate(415.1099,232.0908)"
           id="g3119"><path
             d="m 0,0 10.661,8.355 c 1.123,0.88 1.322,2.52 0.442,3.643 l -8.842,11.28"
             id="path3121"
             style="fill:none;stroke:#407fa2;stroke-width:1.523;stroke-linecap:round;stroke-linejoin:miter;stroke-miterlimit:10;stroke-opacity:1;stroke-dasharray:none" /></g><g
           transform="translate(401.8462,249.0117)"
           id="g3123"><path
             d="m 0,0 10.662,8.357 c 1.123,0.881 1.321,2.521 0.441,3.644 L 2.26,23.279"
             id="path3125"
             style="fill:none;stroke:#407fa2;stroke-width:1.523;stroke-linecap:round;stroke-linejoin:miter;stroke-miterlimit:10;stroke-opacity:1;stroke-dasharray:none" /></g><g
           transform="translate(383.8198,259.1289)"
           id="g3127"><path
             d="m 0,0 -10.661,-8.355 c -1.123,-0.879 -1.322,-2.519 -0.442,-3.644 l 8.843,-11.278"
             id="path3129"
             style="fill:none;stroke:#2b2b2a;stroke-width:2.28500009;stroke-linecap:round;stroke-linejoin:miter;stroke-miterlimit:10;stroke-opacity:1;stroke-dasharray:none" /></g><g
           transform="translate(397.0835,242.209)"
           id="g3131"><path
             d="m 0,0 -10.661,-8.356 c -1.123,-0.881 -1.322,-2.522 -0.442,-3.645 l 8.841,-11.278"
             id="path3133"
             style="fill:none;stroke:#2b2b2a;stroke-width:2.28500009;stroke-linecap:round;stroke-linejoin:miter;stroke-miterlimit:10;stroke-opacity:1;stroke-dasharray:none" /></g><g
           transform="translate(410.3462,225.2891)"
           id="g3135"><path
             d="m 0,0 -10.661,-8.357 c -1.123,-0.881 -1.322,-2.521 -0.441,-3.645 l 8.84,-11.277"
             id="path3137"
             style="fill:none;stroke:#2b2b2a;stroke-width:2.28500009;stroke-linecap:round;stroke-linejoin:miter;stroke-miterlimit:10;stroke-opacity:1;stroke-dasharray:none" /></g><g
           transform="translate(423.6084,208.3653)"
           id="g3139"><path
             d="m 0,0 -10.66,-8.356 c -1.123,-0.881 -1.322,-2.52 -0.442,-3.644 l 8.841,-11.277"
             id="path3141"
             style="fill:none;stroke:#2b2b2a;stroke-width:2.28500009;stroke-linecap:round;stroke-linejoin:miter;stroke-miterlimit:10;stroke-opacity:1;stroke-dasharray:none" /></g><g
           transform="translate(424.4731,184.7949)"
           id="g3143"><path
             d="m 0,0 10.66,8.356 c 1.123,0.881 1.322,2.52 0.442,3.644 l -8.84,11.279"
             id="path3145"
             style="fill:none;stroke:#407fa2;stroke-width:1.523;stroke-linecap:round;stroke-linejoin:miter;stroke-miterlimit:10;stroke-opacity:1;stroke-dasharray:none" /></g><g
           transform="translate(411.2095,201.7188)"
           id="g3147"><path
             d="m 0,0 10.661,8.356 c 1.123,0.881 1.322,2.52 0.441,3.643 L 2.261,23.277"
             id="path3149"
             style="fill:none;stroke:#407fa2;stroke-width:1.523;stroke-linecap:round;stroke-linejoin:miter;stroke-miterlimit:10;stroke-opacity:1;stroke-dasharray:none" /></g><g
           transform="translate(397.9473,218.6367)"
           id="g3151"><path
             d="m 0,0 10.661,8.356 c 1.123,0.881 1.322,2.522 0.442,3.645 L 2.26,23.281"
             id="path3153"
             style="fill:none;stroke:#407fa2;stroke-width:1.523;stroke-linecap:round;stroke-linejoin:miter;stroke-miterlimit:10;stroke-opacity:1;stroke-dasharray:none" /></g><g
           transform="translate(384.6841,235.5596)"
           id="g3155"><path
             d="m 0,0 10.66,8.355 c 1.123,0.881 1.322,2.522 0.442,3.645 L 2.261,23.279"
             id="path3157"
             style="fill:none;stroke:#407fa2;stroke-width:1.523;stroke-linecap:round;stroke-linejoin:miter;stroke-miterlimit:10;stroke-opacity:1;stroke-dasharray:none" /></g><g
           transform="translate(476.0469,225.2207)"
           id="g3159"><path
             d="m 0,0 10.662,8.356 c 1.123,0.881 1.322,2.521 0.441,3.645 L 2.262,23.279"
             id="path3161"
             style="fill:none;stroke:#407fa2;stroke-width:1.523;stroke-linecap:round;stroke-linejoin:miter;stroke-miterlimit:10;stroke-opacity:1;stroke-dasharray:none" /></g><g
           transform="translate(462.7822,242.1416)"
           id="g3163"><path
             d="m 0,0 10.661,8.357 c 1.124,0.881 1.322,2.52 0.442,3.644 L 2.262,23.279"
             id="path3165"
             style="fill:none;stroke:#407fa2;stroke-width:1.523;stroke-linecap:round;stroke-linejoin:miter;stroke-miterlimit:10;stroke-opacity:1;stroke-dasharray:none" /></g><g
           transform="translate(449.5205,259.0625)"
           id="g3167"><path
             d="m 0,0 10.662,8.357 c 1.123,0.88 1.322,2.52 0.441,3.644 L 2.261,23.278"
             id="path3169"
             style="fill:none;stroke:#407fa2;stroke-width:1.523;stroke-linecap:round;stroke-linejoin:miter;stroke-miterlimit:10;stroke-opacity:1;stroke-dasharray:none" /></g><g
           transform="translate(436.2568,275.9834)"
           id="g3171"><path
             d="m 0,0 10.662,8.357 c 1.123,0.881 1.322,2.52 0.441,3.643 L 2.262,23.279"
             id="path3173"
             style="fill:none;stroke:#407fa2;stroke-width:1.523;stroke-linecap:round;stroke-linejoin:miter;stroke-miterlimit:10;stroke-opacity:1;stroke-dasharray:none" /></g><g
           transform="translate(493.0986,238.586)"
           id="g3175"><path
             d="m 0,0 10.661,8.356 c 1.123,0.881 1.322,2.52 0.442,3.644 L 2.261,23.279"
             id="path3177"
             style="fill:none;stroke:#407fa2;stroke-width:1.523;stroke-linecap:round;stroke-linejoin:miter;stroke-miterlimit:10;stroke-opacity:1;stroke-dasharray:none" /></g><g
           transform="translate(479.8354,255.5088)"
           id="g3179"><path
             d="m 0,0 10.66,8.354 c 1.124,0.88 1.323,2.521 0.442,3.644 L 2.261,23.276"
             id="path3181"
             style="fill:none;stroke:#407fa2;stroke-width:1.523;stroke-linecap:round;stroke-linejoin:miter;stroke-miterlimit:10;stroke-opacity:1;stroke-dasharray:none" /></g><g
           transform="translate(466.5732,272.4278)"
           id="g3183"><path
             d="m 0,0 10.66,8.356 c 1.123,0.881 1.322,2.52 0.442,3.644 L 2.26,23.279"
             id="path3185"
             style="fill:none;stroke:#407fa2;stroke-width:1.523;stroke-linecap:round;stroke-linejoin:miter;stroke-miterlimit:10;stroke-opacity:1;stroke-dasharray:none" /></g><g
           transform="translate(453.3091,289.3496)"
           id="g3187"><path
             d="m 0,0 10.661,8.356 c 1.124,0.881 1.322,2.521 0.441,3.645 L 2.261,23.279"
             id="path3189"
             style="fill:none;stroke:#407fa2;stroke-width:1.523;stroke-linecap:round;stroke-linejoin:miter;stroke-miterlimit:10;stroke-opacity:1;stroke-dasharray:none" /></g><g
           transform="translate(388.2798,284.3584)"
           id="g3191"><path
             d="m 0,0 -44.72,-37.159 c 0,0 6.875,-10.695 13.607,-14.818 6.733,-4.121 30.416,-10.372 43.817,23.418 C 13.566,-7.604 0,0 0,0"
             id="path3193"
             style="fill:#407fa2;fill-opacity:1;fill-rule:nonzero;stroke:none" /></g><g
           transform="translate(466.814,200.7178)"
           id="g3195"><path
             d="m 0,0 c 4.549,-6.023 3.354,-14.599 -2.67,-19.15 -6.025,-4.55 -14.598,-3.357 -19.151,2.666 L -38.055,5.003 c -4.552,6.024 -3.363,14.595 2.663,19.148 6.027,4.554 14.6,3.36 19.149,-2.667 L 0,0 z"
             id="path3197"
             style="fill:#407fa2;fill-opacity:1;fill-rule:nonzero;stroke:none" /></g><g
           transform="translate(419.165,169.3819)"
           id="g3199"><path
             d="m 0,0 c 4.991,-6.607 3.681,-16.021 -2.931,-21.013 -6.61,-4.994 -16.018,-3.685 -21.017,2.928 L -41.762,5.492 c -4.996,6.61 -3.691,16.019 2.924,21.013 6.613,5 16.022,3.689 21.014,-2.927 L 0,0 z"
             id="path3201"
             style="fill:#407fa2;fill-opacity:1;fill-rule:nonzero;stroke:none" /></g><g
           transform="translate(392.5576,154.082)"
           id="g3203"><path
             d="m 0,0 c 4.548,-6.023 3.353,-14.599 -2.668,-19.149 -6.026,-4.553 -14.599,-3.357 -19.152,2.668 L -38.053,5.004 c -4.553,6.022 -3.363,14.596 2.662,19.147 6.028,4.556 14.6,3.363 19.148,-2.668 L 0,0 z"
             id="path3205"
             style="fill:#407fa2;fill-opacity:1;fill-rule:nonzero;stroke:none" /></g><g
           transform="translate(357.167,178.2334)"
           id="g3207"><path
             d="M 0,0 C 6.027,4.556 14.6,3.362 17.271,-2.791 L 33.514,-24.274"
             id="path3209"
             style="fill:none;stroke:#2b2b2a;stroke-width:9;stroke-linecap:round;stroke-linejoin:round;stroke-miterlimit:10;stroke-opacity:1;stroke-dasharray:none" /></g><g
           transform="translate(444.457,184.8574)"
           id="g3211"><path
             d="m 0,0 c 5.122,-6.78 3.78,-16.438 -3.005,-21.562 -6.783,-5.125 -16.437,-3.782 -21.563,3.002 L -42.849,5.634 c -5.126,6.782 -3.783,16.434 3.001,21.56 6.788,5.13 16.439,3.784 21.559,-3.004 L 0,0 z"
             id="path3213"
             style="fill:#407fa2;fill-opacity:1;fill-rule:nonzero;stroke:none" /></g><g
           transform="translate(354.5044,159.086)"
           id="g3215"><path
             d="M 0,0 C -4.553,6.022 -3.363,14.596 2.663,19.147"
             id="path3217"
             style="fill:none;stroke:#2b2b2a;stroke-width:9;stroke-linecap:round;stroke-linejoin:round;stroke-miterlimit:10;stroke-opacity:1;stroke-dasharray:none" /></g><g
           transform="translate(380.3271,195.8867)"
           id="g3219"><path
             d="M 0,0 C 6.613,5 16.022,3.689 19.137,-3.051 L 36.961,-26.627"
             id="path3221"
             style="fill:none;stroke:#2b2b2a;stroke-width:9;stroke-linecap:round;stroke-linejoin:round;stroke-miterlimit:10;stroke-opacity:1;stroke-dasharray:none" /></g><g
           transform="translate(377.4033,174.874)"
           id="g3223"><path
             d="M 0,0 C -6.656,8.807 -7.037,13.493 2.924,21.013"
             id="path3225"
             style="fill:none;stroke:#2b2b2a;stroke-width:9;stroke-linecap:round;stroke-linejoin:round;stroke-miterlimit:10;stroke-opacity:1;stroke-dasharray:none" /></g><g
           transform="translate(404.6094,212.0518)"
           id="g3227"><path
             d="M 0,0 C 6.788,5.13 16.439,3.783 19.682,-3.127 L 37.971,-27.32"
             id="path3229"
             style="fill:none;stroke:#2b2b2a;stroke-width:9;stroke-linecap:round;stroke-linejoin:round;stroke-miterlimit:10;stroke-opacity:1;stroke-dasharray:none" /></g><g
           transform="translate(398.5166,198.9404)"
           id="g3231"><path
             d="m 0,0 c -0.262,4.935 -0.023,9.782 4.217,12.988 l 1.876,0.123"
             id="path3233"
             style="fill:none;stroke:#2b2b2a;stroke-width:9;stroke-linecap:round;stroke-linejoin:round;stroke-miterlimit:10;stroke-opacity:1;stroke-dasharray:none" /></g><g
           transform="translate(441.6089,275.9834)"
           id="g3235"><path
             d="m 0,0 c 7.455,-1.692 12.122,-9.114 10.426,-16.565 l -0.218,-0.969 c -0.072,-0.624 -0.167,-1.247 -0.312,-1.871 -0.14,-0.625 -0.321,-1.229 -0.526,-1.82 l -9.487,-38.227 c -1.694,-7.456 -9.111,-12.127 -16.564,-10.426 -7.458,1.69 -12.125,9.108 -10.432,16.565 l 5.514,23.899 -20.716,4.705 c -9.016,2.056 -14.665,11.028 -12.613,20.041 2.048,9.022 -0.369,20.228 8.643,18.179 L -2.718,0.632 C -2.217,0.519 -1.73,0.375 -1.249,0.222 -0.834,0.163 -0.417,0.096 0,0"
             id="path3237"
             style="fill:#407fa2;fill-opacity:1;fill-rule:nonzero;stroke:none" /></g><g
           transform="translate(444.2627,227.6924)"
           id="g3239"><path
             d="m 0,0 -2.771,-11.161 c -1.694,-7.456 -9.111,-12.127 -16.564,-10.426 -7.458,1.69 -12.125,9.108 -10.432,16.566 l 5.514,23.898 -20.716,4.705 c -1.699,-4.115 -22.765,-43.335 -49.85,-12.284"
             id="path3241"
             style="fill:none;stroke:#2b2b2a;stroke-width:9;stroke-linecap:round;stroke-linejoin:round;stroke-miterlimit:10;stroke-opacity:1;stroke-dasharray:none" /></g><g
           transform="translate(383.0098,296.7158)"
           id="g3243"><path
             d="m 0,0 c 0,0 -60.723,-48.639 -71.998,-57.652 -19.267,-2.012 -39.988,42.472 -37.36,67.198 6.4,35.02 64.802,49.477 64.802,49.477 0,0 40.588,-41.582 44.556,-59.023"
             id="path3245"
             style="fill:#2b2b2a;fill-opacity:1;fill-rule:nonzero;stroke:none" /></g><g
           transform="translate(383.0098,296.7158)"
           id="g3247"><path
             d="m 0,0 c 0,0 -60.723,-48.639 -71.998,-57.652 -19.267,-2.012 -39.988,42.472 -37.36,67.198 6.4,35.02 64.802,49.477 64.802,49.477 0,0 40.588,-41.582 44.556,-59.023 z"
             id="path3249"
             style="fill:none;stroke:#2b2b2a;stroke-width:9;stroke-linecap:round;stroke-linejoin:round;stroke-miterlimit:10;stroke-opacity:1;stroke-dasharray:none" /></g><g
           transform="translate(144.6484,590.5283)"
           id="g3251"><path
             d="m 0,0 110.07,0 c 24.241,-3.379 94.615,-37.705 88.462,-49.832 -3.586,-7.064 -19.093,-22.703 -31.428,-34.545 0,0 0.505,-299.237 0.505,-346.899 0,-47.663 -214.152,-44.582 -214.152,0 l 0,372.354 C -46.543,0 -46.543,0 0,0"
             id="path3253"
             style="fill:#407fa2;fill-opacity:1;fill-rule:nonzero;stroke:none" /></g><g
           transform="translate(253.5391,538.2315)"
           id="g3255"><path
             d="m 0,0 c 0,-15.171 8.15,-27.471 18.205,-27.471 10.054,0 18.205,12.3 18.205,27.471 0,15.172 -8.151,27.472 -18.205,27.472 L 0,0 z"
             id="path3257"
             style="fill:#ffffff;fill-opacity:1;fill-rule:nonzero;stroke:none" /></g><g
           transform="translate(263.7393,538.2315)"
           id="g3259"><path
             d="m 0,0 c 0,-6.669 3.583,-12.078 8.005,-12.078 4.42,0 8.004,5.409 8.004,12.078 0,6.67 -3.584,12.078 -8.004,12.078 C 3.583,12.078 0,6.67 0,0"
             id="path3261"
             style="fill:#2b2b2a;fill-opacity:1;fill-rule:nonzero;stroke:none" /></g><g
           transform="translate(249.5254,416.8477)"
           id="g3263"><path
             d="m 0,0 45.893,0 5.31,-44.216 -14.215,-14.22 -28.083,0 -14.214,14.22 L 0,0 z"
             id="path3265"
             style="fill:#2b2b2a;fill-opacity:1;fill-rule:nonzero;stroke:none" /></g><g
           transform="translate(249.5254,416.8477)"
           id="g3267"><path
             d="m 0,0 45.893,0 5.31,-44.216 -14.215,-14.22 -28.083,0 -14.214,14.22 L 0,0 z"
             id="path3269"
             style="fill:none;stroke:#2b2b2a;stroke-width:3;stroke-linecap:butt;stroke-linejoin:round;stroke-miterlimit:10;stroke-opacity:1;stroke-dasharray:none" /></g><g
           transform="translate(271.6855,177.9463)"
           id="g3271"><path
             d="m 0,0 -24.208,38.398 10.953,141.245 28.083,0 L 25.777,38.398 1.573,0 0,0 z"
             id="path3273"
             style="fill:#2b2b2a;fill-opacity:1;fill-rule:nonzero;stroke:none" /></g><g
           transform="translate(271.6855,177.9463)"
           id="g3275"><path
             d="m 0,0 -24.208,38.398 10.953,141.245 28.083,0 L 25.777,38.398 1.573,0 0,0 z"
             id="path3277"
             style="fill:none;stroke:#2b2b2a;stroke-width:3;stroke-linecap:round;stroke-linejoin:round;stroke-miterlimit:10;stroke-opacity:1;stroke-dasharray:none" /></g><g
           transform="translate(189.4609,538.2315)"
           id="g3279"><path
             d="m 0,0 c 0,-15.171 8.15,-27.471 18.205,-27.471 10.054,0 18.204,12.3 18.204,27.471 L 18.205,27.472 C 8.15,27.472 0,15.172 0,0"
             id="path3281"
             style="fill:#ffffff;fill-opacity:1;fill-rule:nonzero;stroke:none" /></g><g
           transform="translate(199.6611,538.2315)"
           id="g3283"><path
             d="m 0,0 c 0,-6.669 3.583,-12.078 8.005,-12.078 4.42,0 8.004,5.409 8.004,12.078 0,6.67 -3.584,12.078 -8.004,12.078 C 3.583,12.078 0,6.67 0,0"
             id="path3285"
             style="fill:#2b2b2a;fill-opacity:1;fill-rule:nonzero;stroke:none" /></g><g
           transform="translate(260.105,170.5342)"
           id="g3287"><path
             d="m 0,0 c 0,0 -0.973,-132.635 -0.973,-131.858 0,1.547 31.727,-30.18 31.727,-30.18 l -143.932,0 31.727,30.18 L -87.021,0 0,0 z"
             id="path3289"
             style="fill:#407fa2;fill-opacity:1;fill-rule:nonzero;stroke:none" /></g><g
           transform="translate(220.3242,138.2569)"
           id="g3291"><path
             d="M 0,0 -2.192,-133.757"
             id="path3293"
             style="fill:none;stroke:#2b2b2a;stroke-width:9;stroke-linecap:round;stroke-linejoin:round;stroke-miterlimit:10;stroke-opacity:1;stroke-dasharray:none" /></g><g
           transform="translate(10,160.0879)"
           id="g3295"><path
             d="M 0,0 235.275,-48.708 267.726,108.035 32.45,156.746 0,0 z"
             id="path3297"
             style="fill:none;stroke:#ffffff;stroke-width:20;stroke-linecap:round;stroke-linejoin:round;stroke-miterlimit:10;stroke-opacity:1;stroke-dasharray:none" /></g><g
           transform="translate(267.752,222.3106)"
           id="g3299"><path
             d="M 0,0 -234.338,48.516"
             id="path3301"
             style="fill:none;stroke:#ffffff;stroke-width:15;stroke-linecap:round;stroke-linejoin:round;stroke-miterlimit:10;stroke-opacity:1;stroke-dasharray:none" /></g><g
           transform="translate(238.7979,279.1953)"
           id="g3303"><path
             d="M 0,0 -31.517,-152.236"
             id="path3305"
             style="fill:none;stroke:#ffffff;stroke-width:7;stroke-linecap:round;stroke-linejoin:round;stroke-miterlimit:10;stroke-opacity:1;stroke-dasharray:none" /></g><g
           transform="translate(199.7422,287.2813)"
           id="g3307"><path
             d="M 0,0 -31.518,-152.236"
             id="path3309"
             style="fill:none;stroke:#ffffff;stroke-width:7;stroke-linecap:round;stroke-linejoin:round;stroke-miterlimit:10;stroke-opacity:1;stroke-dasharray:none" /></g><g
           transform="translate(160.6855,295.3672)"
           id="g3311"><path
             d="M 0,0 -31.517,-152.238"
             id="path3313"
             style="fill:none;stroke:#ffffff;stroke-width:7;stroke-linecap:round;stroke-linejoin:round;stroke-miterlimit:10;stroke-opacity:1;stroke-dasharray:none" /></g><g
           transform="translate(121.6294,303.4531)"
           id="g3315"><path
             d="M 0,0 -31.517,-152.239"
             id="path3317"
             style="fill:none;stroke:#2b2b2a;stroke-width:7;stroke-linecap:round;stroke-linejoin:round;stroke-miterlimit:10;stroke-opacity:1;stroke-dasharray:none" /></g><g
           transform="translate(82.5732,311.5391)"
           id="g3319"><path
             d="M 0,0 -31.517,-152.238"
             id="path3321"
             style="fill:none;stroke:#2b2b2a;stroke-width:7;stroke-linecap:round;stroke-linejoin:round;stroke-miterlimit:10;stroke-opacity:1;stroke-dasharray:none" /></g><g
           transform="translate(223.6094,255.1992)"
           id="g3323"><path
             d="M 0,0 19.601,-4.057 20.623,0.877 1.022,4.936 0,0 z"
             id="path3325"
             style="fill:none;stroke:#ffffff;stroke-width:5;stroke-linecap:round;stroke-linejoin:round;stroke-miterlimit:10;stroke-opacity:1;stroke-dasharray:none" /></g><g
           transform="translate(221.3911,244.4805)"
           id="g3327"><path
             d="M 0,0 19.601,-4.058 20.622,0.877 1.021,4.936 0,0 z"
             id="path3329"
             style="fill:none;stroke:#ffffff;stroke-width:5;stroke-linecap:round;stroke-linejoin:round;stroke-miterlimit:10;stroke-opacity:1;stroke-dasharray:none" /></g><g
           transform="translate(201.1406,146.666)"
           id="g3331"><path
             d="M 0,0 19.601,-4.059 20.623,0.879 1.022,4.937 0,0 z"
             id="path3333"
             style="fill:none;stroke:#ffffff;stroke-width:5;stroke-linecap:round;stroke-linejoin:round;stroke-miterlimit:10;stroke-opacity:1;stroke-dasharray:none" /></g><g
           transform="translate(198.7856,135.293)"
           id="g3335"><path
             d="M 0,0 19.601,-4.06 20.623,0.875 1.021,4.932 0,0 z"
             id="path3337"
             style="fill:none;stroke:#ffffff;stroke-width:5;stroke-linecap:round;stroke-linejoin:round;stroke-miterlimit:10;stroke-opacity:1;stroke-dasharray:none" /></g><g
           transform="translate(205.8501,169.416)"
           id="g3339"><path
             d="M 0,0 19.602,-4.059 20.623,0.879 1.023,4.937 0,0 z"
             id="path3341"
             style="fill:none;stroke:#ffffff;stroke-width:5;stroke-linecap:round;stroke-linejoin:round;stroke-miterlimit:10;stroke-opacity:1;stroke-dasharray:none" /></g><g
           transform="translate(208.2051,180.791)"
           id="g3343"><path
             d="M 0,0 19.602,-4.059 20.622,0.877 1.021,4.936 0,0 z"
             id="path3345"
             style="fill:none;stroke:#ffffff;stroke-width:5;stroke-linecap:round;stroke-linejoin:round;stroke-miterlimit:10;stroke-opacity:1;stroke-dasharray:none" /></g><g
           transform="translate(203.4961,158.043)"
           id="g3347"><path
             d="M 0,0 19.601,-4.06 20.622,0.877 1.021,4.934 0,0 z"
             id="path3349"
             style="fill:none;stroke:#ffffff;stroke-width:5;stroke-linecap:round;stroke-linejoin:round;stroke-miterlimit:10;stroke-opacity:1;stroke-dasharray:none" /></g><g
           transform="translate(162.084,154.752)"
           id="g3351"><path
             d="M 0,0 19.601,-4.057 20.623,0.878 1.022,4.936 0,0 z"
             id="path3353"
             style="fill:none;stroke:#ffffff;stroke-width:5;stroke-linecap:round;stroke-linejoin:round;stroke-miterlimit:10;stroke-opacity:1;stroke-dasharray:none" /></g><g
           transform="translate(159.7295,143.377)"
           id="g3355"><path
             d="M 0,0 19.6,-4.06 20.622,0.877 1.022,4.936 0,0 z"
             id="path3357"
             style="fill:none;stroke:#ffffff;stroke-width:5;stroke-linecap:round;stroke-linejoin:round;stroke-miterlimit:10;stroke-opacity:1;stroke-dasharray:none" /></g><g
           transform="translate(166.7939,177.502)"
           id="g3359"><path
             d="M 0,0 19.601,-4.06 20.623,0.877 1.023,4.936 0,0 z"
             id="path3361"
             style="fill:none;stroke:#ffffff;stroke-width:5;stroke-linecap:round;stroke-linejoin:round;stroke-miterlimit:10;stroke-opacity:1;stroke-dasharray:none" /></g><g
           transform="translate(169.1489,188.877)"
           id="g3363"><path
             d="M 0,0 19.601,-4.057 20.623,0.877 1.022,4.936 0,0 z"
             id="path3365"
             style="fill:none;stroke:#ffffff;stroke-width:5;stroke-linecap:round;stroke-linejoin:round;stroke-miterlimit:10;stroke-opacity:1;stroke-dasharray:none" /></g><g
           transform="translate(164.4395,166.1289)"
           id="g3367"><path
             d="M 0,0 19.6,-4.059 20.622,0.875 1.022,4.934 0,0 z"
             id="path3369"
             style="fill:none;stroke:#ffffff;stroke-width:5;stroke-linecap:round;stroke-linejoin:round;stroke-miterlimit:10;stroke-opacity:1;stroke-dasharray:none" /></g><g
           transform="translate(123.0283,162.836)"
           id="g3371"><path
             d="M 0,0 19.601,-4.057 20.622,0.881 1.021,4.937 0,0 z"
             id="path3373"
             style="fill:none;stroke:#ffffff;stroke-width:5;stroke-linecap:round;stroke-linejoin:round;stroke-miterlimit:10;stroke-opacity:1;stroke-dasharray:none" /></g><g
           transform="translate(120.6738,151.4629)"
           id="g3375"><path
             d="M 0,0 19.6,-4.057 20.622,0.876 1.021,4.934 0,0 z"
             id="path3377"
             style="fill:none;stroke:#ffffff;stroke-width:5;stroke-linecap:round;stroke-linejoin:round;stroke-miterlimit:10;stroke-opacity:1;stroke-dasharray:none" /></g><g
           transform="translate(127.7383,185.5879)"
           id="g3379"><path
             d="M 0,0 19.601,-4.059 20.622,0.879 1.021,4.936 0,0 z"
             id="path3381"
             style="fill:none;stroke:#ffffff;stroke-width:5;stroke-linecap:round;stroke-linejoin:round;stroke-miterlimit:10;stroke-opacity:1;stroke-dasharray:none" /></g><g
           transform="translate(130.0933,196.961)"
           id="g3383"><path
             d="M 0,0 19.6,-4.057 20.622,0.878 1.021,4.937 0,0 z"
             id="path3385"
             style="fill:none;stroke:#ffffff;stroke-width:5;stroke-linecap:round;stroke-linejoin:round;stroke-miterlimit:10;stroke-opacity:1;stroke-dasharray:none" /></g><g
           transform="translate(125.3833,174.2139)"
           id="g3387"><path
             d="M 0,0 19.601,-4.058 20.622,0.875 1.022,4.935 0,0 z"
             id="path3389"
             style="fill:none;stroke:#ffffff;stroke-width:5;stroke-linecap:round;stroke-linejoin:round;stroke-miterlimit:10;stroke-opacity:1;stroke-dasharray:none" /></g><g
           transform="translate(83.9722,170.9229)"
           id="g3391"><path
             d="M 0,0 19.601,-4.058 20.622,0.88 1.021,4.936 0,0 z"
             id="path3393"
             style="fill:none;stroke:#ffffff;stroke-width:5;stroke-linecap:round;stroke-linejoin:round;stroke-miterlimit:10;stroke-opacity:1;stroke-dasharray:none" /></g><g
           transform="translate(81.6172,159.5479)"
           id="g3395"><path
             d="M 0,0 19.601,-4.058 20.622,0.878 1.021,4.936 0,0 z"
             id="path3397"
             style="fill:none;stroke:#ffffff;stroke-width:5;stroke-linecap:round;stroke-linejoin:round;stroke-miterlimit:10;stroke-opacity:1;stroke-dasharray:none" /></g><g
           transform="translate(88.6821,193.6729)"
           id="g3399"><path
             d="M 0,0 19.601,-4.058 20.622,0.878 1.021,4.936 0,0 z"
             id="path3401"
             style="fill:none;stroke:#ffffff;stroke-width:5;stroke-linecap:round;stroke-linejoin:round;stroke-miterlimit:10;stroke-opacity:1;stroke-dasharray:none" /></g><g
           transform="translate(91.0371,205.0479)"
           id="g3403"><path
             d="M 0,0 19.601,-4.058 20.622,0.878 1.021,4.936 0,0 z"
             id="path3405"
             style="fill:none;stroke:#ffffff;stroke-width:5;stroke-linecap:round;stroke-linejoin:round;stroke-miterlimit:10;stroke-opacity:1;stroke-dasharray:none" /></g><g
           transform="translate(86.3271,182.2979)"
           id="g3407"><path
             d="M 0,0 19.601,-4.056 20.622,0.878 1.021,4.934 0,0 z"
             id="path3409"
             style="fill:none;stroke:#ffffff;stroke-width:5;stroke-linecap:round;stroke-linejoin:round;stroke-miterlimit:10;stroke-opacity:1;stroke-dasharray:none" /></g><g
           transform="translate(44.916,179.0069)"
           id="g3411"><path
             d="M 0,0 19.601,-4.056 20.623,0.88 1.022,4.938 0,0 z"
             id="path3413"
             style="fill:none;stroke:#ffffff;stroke-width:5;stroke-linecap:round;stroke-linejoin:round;stroke-miterlimit:10;stroke-opacity:1;stroke-dasharray:none" /></g><g
           transform="translate(42.561,167.6348)"
           id="g3415"><path
             d="M 0,0 19.601,-4.057 20.623,0.875 1.021,4.933 0,0 z"
             id="path3417"
             style="fill:none;stroke:#ffffff;stroke-width:5;stroke-linecap:round;stroke-linejoin:round;stroke-miterlimit:10;stroke-opacity:1;stroke-dasharray:none" /></g><g
           transform="translate(49.626,201.7569)"
           id="g3419"><path
             d="M 0,0 19.601,-4.056 20.622,0.882 1.022,4.938 0,0 z"
             id="path3421"
             style="fill:none;stroke:#ffffff;stroke-width:5;stroke-linecap:round;stroke-linejoin:round;stroke-miterlimit:10;stroke-opacity:1;stroke-dasharray:none" /></g><g
           transform="translate(51.9805,213.1319)"
           id="g3423"><path
             d="M 0,0 19.601,-4.056 20.622,0.88 1.021,4.936 0,0 z"
             id="path3425"
             style="fill:none;stroke:#ffffff;stroke-width:5;stroke-linecap:round;stroke-linejoin:round;stroke-miterlimit:10;stroke-opacity:1;stroke-dasharray:none" /></g><g
           transform="translate(47.2705,190.3848)"
           id="g3427"><path
             d="M 0,0 19.601,-4.057 20.623,0.877 1.022,4.936 0,0 z"
             id="path3429"
             style="fill:none;stroke:#ffffff;stroke-width:5;stroke-linecap:round;stroke-linejoin:round;stroke-miterlimit:10;stroke-opacity:1;stroke-dasharray:none" /></g><g
           transform="translate(184.5537,263.2852)"
           id="g3431"><path
             d="M 0,0 19.601,-4.059 20.623,0.877 1.022,4.936 0,0 z"
             id="path3433"
             style="fill:none;stroke:#ffffff;stroke-width:5;stroke-linecap:round;stroke-linejoin:round;stroke-miterlimit:10;stroke-opacity:1;stroke-dasharray:none" /></g><g
           transform="translate(182.335,252.5674)"
           id="g3435"><path
             d="M 0,0 19.601,-4.058 20.622,0.875 1.021,4.935 0,0 z"
             id="path3437"
             style="fill:none;stroke:#ffffff;stroke-width:5;stroke-linecap:round;stroke-linejoin:round;stroke-miterlimit:10;stroke-opacity:1;stroke-dasharray:none" /></g><g
           transform="translate(145.4976,271.3711)"
           id="g3439"><path
             d="M 0,0 19.6,-4.059 20.622,0.877 1.022,4.936 0,0 z"
             id="path3441"
             style="fill:none;stroke:#ffffff;stroke-width:5;stroke-linecap:round;stroke-linejoin:round;stroke-miterlimit:10;stroke-opacity:1;stroke-dasharray:none" /></g><g
           transform="translate(143.2783,260.6514)"
           id="g3443"><path
             d="M 0,0 19.601,-4.056 20.622,0.878 1.021,4.936 0,0 z"
             id="path3445"
             style="fill:none;stroke:#ffffff;stroke-width:5;stroke-linecap:round;stroke-linejoin:round;stroke-miterlimit:10;stroke-opacity:1;stroke-dasharray:none" /></g><g
           transform="translate(106.4414,279.4551)"
           id="g3447"><path
             d="M 0,0 19.601,-4.057 20.622,0.879 1.021,4.935 0,0 z"
             id="path3449"
             style="fill:none;stroke:#ffffff;stroke-width:5;stroke-linecap:round;stroke-linejoin:round;stroke-miterlimit:10;stroke-opacity:1;stroke-dasharray:none" /></g><g
           transform="translate(104.2227,268.7403)"
           id="g3451"><path
             d="M 0,0 19.6,-4.059 20.622,0.875 1.021,4.933 0,0 z"
             id="path3453"
             style="fill:none;stroke:#ffffff;stroke-width:5;stroke-linecap:round;stroke-linejoin:round;stroke-miterlimit:10;stroke-opacity:1;stroke-dasharray:none" /></g><g
           transform="translate(67.3853,287.543)"
           id="g3455"><path
             d="M 0,0 19.6,-4.06 20.622,0.877 1.021,4.934 0,0 z"
             id="path3457"
             style="fill:none;stroke:#ffffff;stroke-width:5;stroke-linecap:round;stroke-linejoin:round;stroke-miterlimit:10;stroke-opacity:1;stroke-dasharray:none" /></g><g
           transform="translate(65.1665,276.8242)"
           id="g3459"><path
             d="M 0,0 19.601,-4.059 20.622,0.877 1.021,4.933 0,0 z"
             id="path3461"
             style="fill:none;stroke:#ffffff;stroke-width:5;stroke-linecap:round;stroke-linejoin:round;stroke-miterlimit:10;stroke-opacity:1;stroke-dasharray:none" /></g><g
           transform="translate(22.0195,141.4453)"
           id="g3463"><path
             d="m 0,0 5.461,26.367 10e-4,0.002 14.018,67.709 c 1.608,7.757 7.607,13.515 14.856,15.264 -6.585,2.449 -10.828,4.184 -10.828,4.184 12.222,101.194 74.887,167.082 90.817,137.315 l 9.368,-17.512 c 0,0 -30.2,-49.392 -14.914,-137.457 l 7.304,-1.511 c 7.627,-1.581 13.323,-7.409 15.171,-14.501 l 18.215,-39.501 c 0.247,-0.451 0.461,-0.913 0.66,-1.376 0.232,-0.351 0.455,-0.708 0.657,-1.085 3.639,-6.723 1.134,-15.123 -5.588,-18.761 l -0.872,-0.474 c -0.517,-0.356 -1.048,-0.693 -1.613,-0.996 -0.563,-0.307 -1.137,-0.568 -1.714,-0.806 L 117.844,4.917 116.527,-1.438 c 0.004,-0.94 -0.084,-1.893 -0.283,-2.849 l -5.453,-26.376 c -1.533,-7.391 -8.771,-12.144 -16.162,-10.612 -7.395,1.533 -12.146,8.766 -10.615,16.162 l 1.845,8.909 -0.056,0.012 -1.678,-8.11 c -1.723,-8.319 -9.871,-13.675 -18.194,-11.951 -7.462,1.549 -12.519,8.257 -12.247,15.627 -3.278,-5.012 -9.383,-7.785 -15.6,-6.496 -8.111,1.68 -13.327,9.619 -11.648,17.736 l 1.087,5.26 -0.433,0.09 -0.313,-1.514 C 25.245,-12.94 18.008,-17.692 10.617,-16.163 3.223,-14.63 -1.529,-7.397 0,0"
             id="path3465"
             style="fill:#407fa2;fill-opacity:1;fill-rule:nonzero;stroke:none" /></g><g
           transform="translate(130.7988,237.3174)"
           id="g3467"><path
             d="m 0,0 7.304,-1.511 c 7.627,-1.581 13.323,-7.409 15.171,-14.501 l 18.214,-39.501 c 0.248,-0.451 0.461,-0.913 0.661,-1.376 0.232,-0.351 0.455,-0.708 0.657,-1.085 3.639,-6.723 1.134,-15.123 -5.588,-18.761 l -0.872,-0.474 c -0.518,-0.356 -1.048,-0.693 -1.613,-0.996 -0.563,-0.307 -1.137,-0.568 -1.714,-0.806 L 9.064,-90.955 6.271,-105.051"
             id="path3469"
             style="fill:none;stroke:#2b2b2a;stroke-width:9;stroke-linecap:round;stroke-linejoin:round;stroke-miterlimit:10;stroke-opacity:1;stroke-dasharray:none" /></g><g
           transform="translate(139.8633,146.3623)"
           id="g3471"><path
             d="M 0,0 4.599,24.145"
             id="path3473"
             style="fill:none;stroke:#2b2b2a;stroke-width:9;stroke-linecap:round;stroke-linejoin:round;stroke-miterlimit:10;stroke-opacity:1;stroke-dasharray:none" /></g><g
           transform="translate(321.9082,425.3389)"
           id="g3475"><path
             d="m 0,0 0,-46.623 -15.515,-11.34 -33.747,46.443 -30.912,-49.278 -152.584,14.175 0,46.623 L 0,0 z"
             id="path3477"
             style="fill:#ffffff;fill-opacity:1;fill-rule:nonzero;stroke:none" /></g><g
           transform="translate(321.9082,425.3389)"
           id="g3479"><path
             d="m 0,0 0,-46.623 -15.515,-11.34 -33.747,46.443 -30.912,-49.278 -152.584,14.175 0,46.623 L 0,0 z"
             id="path3481"
             style="fill:none;stroke:#ffffff;stroke-width:3;stroke-linecap:butt;stroke-linejoin:round;stroke-miterlimit:10;stroke-opacity:1;stroke-dasharray:none" /></g><g
           transform="translate(327.6504,467.6319)"
           id="g3483"><path
             d="M 0,0 -80.173,0"
             id="path3485"
             style="fill:none;stroke:#2b2b2a;stroke-width:9;stroke-linecap:round;stroke-linejoin:round;stroke-miterlimit:10;stroke-opacity:1;stroke-dasharray:none" /></g><g
           transform="translate(142.1626,321.5069)"
           id="g3487"><path
             d="m 0,0 -4.06,-85.7 c 0,0 -69.312,-4.099 -92.575,19.165 -4.185,4.184 11.637,75.639 11.637,75.639 L 0,0 z"
             id="path3489"
             style="fill:#2b2b2a;fill-opacity:1;fill-rule:nonzero;stroke:none" /></g><g
           transform="translate(142.1626,321.5069)"
           id="g3491"><path
             d="m 0,0 -4.06,-85.7 c 0,0 -69.312,-4.099 -92.575,19.165 -4.185,4.184 11.637,75.639 11.637,75.639 L 0,0 z"
             id="path3493"
             style="fill:none;stroke:#2b2b2a;stroke-width:9;stroke-linecap:round;stroke-linejoin:round;stroke-miterlimit:10;stroke-opacity:1;stroke-dasharray:none" /></g><g
           transform="translate(138.0415,357.5889)"
           id="g3495"><path
             d="M 0,0 C 0,0 -8.575,-20.573 -8.733,-34.704"
             id="path3497"
             style="fill:none;stroke:#2b2b2a;stroke-width:9;stroke-linecap:round;stroke-linejoin:round;stroke-miterlimit:10;stroke-opacity:1;stroke-dasharray:none" /></g></g></g></g></svg>