<?xml version="1.0" encoding="UTF-8" standalone="no"?>
<!-- Created with Inkscape (http://www.inkscape.org/) -->

<svg
   xmlns:dc="http://purl.org/dc/elements/1.1/"
   xmlns:cc="http://creativecommons.org/ns#"
   xmlns:rdf="http://www.w3.org/1999/02/22-rdf-syntax-ns#"
   xmlns:svg="http://www.w3.org/2000/svg"
   xmlns="http://www.w3.org/2000/svg"
   version="1.1"
   width="880"
   height="840"
   id="svg2985"
   xml:space="preserve"><metadata
     id="metadata2991"><rdf:RDF><cc:Work
         rdf:about=""><dc:format>image/svg+xml</dc:format><dc:type
           rdf:resource="http://purl.org/dc/dcmitype/StillImage" /><dc:title></dc:title></cc:Work></rdf:RDF></metadata><defs
     id="defs2989"><clipPath
       id="clipPath3003"><path
         d="m 0,651.498 332.561,0 L 332.561,0 0,0 0,651.498 z"
         id="path3005" /></clipPath></defs><g
     transform="matrix(1.25,0,0,-1.25,0,840)"
     id="g2993"><g
       transform="translate(437.6615,430.1137)"
       id="g2995"><path
         d="m 0,0 -31.217,0.02 22.097,24.46 -19.695,17.903 -200.539,0 28.817,-59.143 19.117,-123.629 -26.214,-156.875 207.634,0 -30.099,162.729 L 0,0 z"
         id="path2997"
         style="fill:#ffffff;fill-opacity:1;fill-rule:nonzero;stroke:none" /></g><g
       transform="translate(109.6,5.6)"
       id="g2999"><g
         clip-path="url(#clipPath3003)"
         id="g3001"><g
           transform="translate(328.0615,424.5137)"
           id="g3007"><path
             d="m 0,0 -31.217,0.02 22.097,24.46 -19.695,17.903 -200.539,0 28.817,-59.143 19.117,-123.629 -26.214,-156.875 207.634,0 -30.099,162.729 L 0,0 z"
             id="path3009"
             style="fill:none;stroke:#ffffff;stroke-width:9;stroke-linecap:butt;stroke-linejoin:round;stroke-miterlimit:10;stroke-opacity:1;stroke-dasharray:none" /></g><g
           transform="translate(121.7001,589.6016)"
           id="g3011"><path
             d="m 0,0 109.896,0 c 24.205,-3.376 94.467,-37.648 88.321,-49.755 -3.578,-7.052 -19.062,-22.663 -31.377,-34.487 0,0 0.506,-298.764 0.506,-346.35 0,-47.591 -213.813,-44.512 -213.813,0 l 0,371.764 C -46.467,0 -46.467,0 0,0"
             id="path3013"
             style="fill:#407fa2;fill-opacity:1;fill-rule:nonzero;stroke:none" /></g><g
           transform="translate(236.0507,166.0996)"
           id="g3015"><path
             d="m 0,0 c 0,0 -29.268,-132.424 -29.268,-131.648 0,1.547 31.674,-30.131 31.674,-30.131 l -143.703,0 31.677,30.131 L -86.881,0 0,0 z"
             id="path3017"
             style="fill:#407fa2;fill-opacity:1;fill-rule:nonzero;stroke:none" /></g><g
           transform="translate(185.9384,138.0489)"
           id="g3019"><path
             d="M 0,0 -19.168,-133.549"
             id="path3021"
             style="fill:none;stroke:#2b2b2a;stroke-width:9;stroke-linecap:round;stroke-linejoin:round;stroke-miterlimit:10;stroke-opacity:1;stroke-dasharray:none" /></g><g
           transform="translate(263.8779,578.5157)"
           id="g3023"><path
             d="m 0,0 -19.135,-19.135 28.278,0"
             id="path3025"
             style="fill:none;stroke:#2b2b2a;stroke-width:9;stroke-linecap:round;stroke-linejoin:round;stroke-miterlimit:10;stroke-opacity:1;stroke-dasharray:none" /></g><g
           transform="translate(76.6259,601.5)"
           id="g3027"><path
             d="m 0,0 14.522,-6.092 c 7.614,-3.193 20.597,-5.806 28.852,-5.806 l 23.957,0 c 8.255,0 21.238,2.613 28.852,5.806 L 110.706,0"
             id="path3029"
             style="fill:none;stroke:#2b2b2a;stroke-width:12;stroke-linecap:round;stroke-linejoin:round;stroke-miterlimit:10;stroke-opacity:1;stroke-dasharray:none" /></g><g
           transform="translate(159.082,595.5489)"
           id="g3031"><path
             d="m 0,0 0,31.5 c 0,17.326 -6.098,24.414 -13.551,15.752 -7.453,-8.662 -19.648,-8.662 -27.101,0 -7.454,8.662 -13.552,1.574 -13.552,-15.752 l 0,-31.5"
             id="path3033"
             style="fill:#2b2b2a;fill-opacity:1;fill-rule:nonzero;stroke:#2b2b2a;stroke-width:10;stroke-linecap:round;stroke-linejoin:round;stroke-miterlimit:10;stroke-opacity:1;stroke-dasharray:none" /></g><g
           transform="translate(97.5156,604.1055)"
           id="g3035"><path
             d="M 0,0 68.927,0"
             id="path3037"
             style="fill:none;stroke:#407fa2;stroke-width:12;stroke-linecap:round;stroke-linejoin:round;stroke-miterlimit:10;stroke-opacity:1;stroke-dasharray:none" /></g><g
           transform="translate(293.0702,424.5176)"
           id="g3039"><path
             d="m 0,0 -67.134,0.02 22.097,24.46 -19.695,17.903 -200.538,0 28.817,-59.141 19.117,-123.631 -26.215,-171.058 243.551,0 0,176.914 L 0,0 z"
             id="path3041"
             style="fill:#ffffff;fill-opacity:1;fill-rule:nonzero;stroke:none" /></g><g
           transform="translate(293.0702,424.5176)"
           id="g3043"><path
             d="m 0,0 -67.134,0.02 22.097,24.46 -19.695,17.903 -200.538,0 28.817,-59.141 19.117,-123.631 -26.215,-171.058 243.551,0 0,176.914 L 0,0 z"
             id="path3045"
             style="fill:none;stroke:#ffffff;stroke-width:9;stroke-linecap:butt;stroke-linejoin:round;stroke-miterlimit:10;stroke-opacity:1;stroke-dasharray:none" /></g><g
           transform="translate(293.0702,124.459)"
           id="g3047"><path
             d="M 0,0 0,300.059"
             id="path3049"
             style="fill:none;stroke:#2b2b2a;stroke-width:9;stroke-linecap:round;stroke-linejoin:round;stroke-miterlimit:10;stroke-opacity:1;stroke-dasharray:none" /></g><g
           transform="translate(234.7216,458.0821)"
           id="g3051"><path
             d="m 0,0 c 0,0 3.242,6.473 7.204,14.383 3.962,7.91 14.473,14.383 23.356,14.383 l 2.971,0 c 8.883,0 19.394,-6.473 23.357,-14.383 C 60.85,6.473 64.092,0 64.092,0"
             id="path3053"
             style="fill:none;stroke:#2b2b2a;stroke-width:9;stroke-linecap:round;stroke-linejoin:round;stroke-miterlimit:10;stroke-opacity:1;stroke-dasharray:none" /></g><g
           transform="translate(128.1591,445.7588)"
           id="g3055"><path
             d="m 0,0 c 5.702,-10.803 9.196,-52.784 -26.385,-62.216 2.829,-26.935 31.995,-8.525 31.995,-8.525 0,0 29.891,14.732 28.925,54.76 C 33.571,24.045 -11.53,21.845 0,0"
             id="path3057"
             style="fill:#407fa2;fill-opacity:1;fill-rule:nonzero;stroke:none" /></g><g
           transform="translate(234.1435,548.2539)"
           id="g3059"><path
             d="m 0,0 c 0,-35.531 -28.805,-64.334 -64.334,-64.334 -35.529,0 -64.334,28.803 -64.334,64.334 0,35.533 28.805,64.338 64.334,64.338 C -28.805,64.338 0,35.533 0,0"
             id="path3061"
             style="fill:#407fa2;fill-opacity:1;fill-rule:nonzero;stroke:none" /></g><g
           transform="translate(234.1435,548.2539)"
           id="g3063"><path
             d="m 0,0 c 0,-35.531 -28.805,-64.334 -64.334,-64.334 -35.529,0 -64.334,28.803 -64.334,64.334 0,35.533 28.805,64.338 64.334,64.338 C -28.805,64.338 0,35.533 0,0 z"
             id="path3065"
             style="fill:none;stroke:#2b2b2a;stroke-width:12.04399967;stroke-linecap:round;stroke-linejoin:round;stroke-miterlimit:10;stroke-opacity:1;stroke-dasharray:none" /></g><g
           transform="translate(138.624,548.2539)"
           id="g3067"><path
             d="m 0,0 c 0,-25.988 13.964,-47.057 31.187,-47.057 17.219,0 31.186,21.069 31.186,47.057 0,25.99 -13.967,47.06 -31.186,47.06 C 13.964,47.06 0,25.99 0,0"
             id="path3069"
             style="fill:#ffffff;fill-opacity:1;fill-rule:nonzero;stroke:none" /></g><g
           transform="translate(156.0966,548.2539)"
           id="g3071"><path
             d="m 0,0 c 0,-11.416 6.141,-20.685 13.715,-20.685 7.568,0 13.711,9.269 13.711,20.685 0,11.43 -6.143,20.695 -13.711,20.695 C 6.141,20.695 0,11.43 0,0"
             id="path3073"
             style="fill:#2b2b2a;fill-opacity:1;fill-rule:nonzero;stroke:none" /></g><g
           transform="translate(182.8329,368.5293)"
           id="g3075"><path
             d="m 0,0 c 0,-7.187 -5.832,-13.017 -13.023,-13.017 -7.191,0 -13.02,5.83 -13.02,13.017 l 0,99.074 c 0,7.188 5.829,13.024 13.02,13.024 C -5.832,112.098 0,106.262 0,99.074 L 0,0 z"
             id="path3077"
             style="fill:#2b2b2a;fill-opacity:1;fill-rule:nonzero;stroke:none" /></g><path
           d="m 185.929,467.604 -32.236,0 0,16.316 32.236,0 0,-16.316 z"
           id="path3079"
           style="fill:#2b2b2a;fill-opacity:1;fill-rule:nonzero;stroke:none" /><path
           d="m 302.222,274.949 -200.396,0 0,22.125 200.396,0 0,-22.125 z"
           id="path3081"
           style="fill:#ffffff;fill-opacity:1;fill-rule:nonzero;stroke:#2b2b2a;stroke-width:9;stroke-linecap:butt;stroke-linejoin:round;stroke-miterlimit:10;stroke-opacity:1;stroke-dasharray:none" /><g
           transform="translate(199.5058,393.9063)"
           id="g3083"><path
             d="m 0,0 c 5.466,0.529 10.371,-3.509 10.9,-8.975 l 9.088,-93.81 c 0.53,-5.466 -3.508,-10.371 -8.974,-10.901 l -93.809,-9.082 c -5.466,-0.529 -10.371,3.509 -10.9,8.975 l -9.088,93.806 c -0.529,5.465 3.509,10.371 8.974,10.9 L 0,0 z"
             id="path3085"
             style="fill:#407fa2;fill-opacity:1;fill-rule:nonzero;stroke:none" /></g><g
           transform="translate(218.4579,396.0518)"
           id="g3087"><path
             d="m 0,0 c 7.503,0.724 14.176,-4.769 14.9,-12.272 0.723,-7.507 -4.765,-14.176 -12.271,-14.905 l -26.762,-2.59 c -7.5,-0.732 -14.175,4.764 -14.899,12.265 -0.732,7.515 4.765,14.186 12.265,14.903 L 0,0 z"
             id="path3089"
             style="fill:#407fa2;fill-opacity:1;fill-rule:nonzero;stroke:none" /></g><g
           transform="translate(220.2314,339.1426)"
           id="g3091"><path
             d="M 0,0 C 8.236,0.797 15.561,-5.242 16.356,-13.471 17.152,-21.709 11.124,-29.024 2.888,-29.83 l -29.368,-2.838 c -8.233,-0.797 -15.557,5.223 -16.351,13.461 -0.797,8.238 5.23,15.559 13.463,16.35 L 0,0 z"
             id="path3093"
             style="fill:#407fa2;fill-opacity:1;fill-rule:nonzero;stroke:none" /></g><g
           transform="translate(219.3593,308.5118)"
           id="g3095"><path
             d="m 0,0 c 7.503,0.723 14.173,-4.779 14.903,-12.273 0.723,-7.506 -4.772,-14.176 -12.274,-14.904 l -26.761,-2.591 c -7.503,-0.731 -14.178,4.76 -14.903,12.262 -0.729,7.51 4.764,14.179 12.271,14.897 L 0,0 z"
             id="path3097"
             style="fill:#407fa2;fill-opacity:1;fill-rule:nonzero;stroke:none" /></g><g
           transform="translate(220.2753,368.7442)"
           id="g3099"><path
             d="m 0,0 c 8.445,0.815 15.968,-5.371 16.779,-13.824 0.816,-8.448 -5.367,-15.959 -13.813,-16.778 l -30.137,-2.918 c -8.449,-0.822 -15.959,5.371 -16.779,13.819 -0.818,8.453 5.367,15.961 13.818,16.773 L 0,0 z"
             id="path3101"
             style="fill:#407fa2;fill-opacity:1;fill-rule:nonzero;stroke:none" /></g><g
           transform="translate(83.5976,393.7071)"
           id="g3103"><path
             d="m 0,0 c 0,0 -29.095,-44.992 13.091,-37.77 -3.582,-14.435 8.189,-86.554 8.189,-86.554 -11.275,-2.031 -21.934,-2.891 -31.803,-2.686 -77.795,1.571 -106.634,68.958 -3.134,145.852 L 0,0 z"
             id="path3105"
             style="fill:#ffffff;fill-opacity:1;fill-rule:nonzero;stroke:none" /></g><g
           transform="translate(83.5976,393.7071)"
           id="g3107"><path
             d="m 0,0 c 0,0 -29.095,-44.992 13.091,-37.77 -3.582,-14.435 8.189,-86.554 8.189,-86.554 -11.275,-2.031 -21.934,-2.891 -31.803,-2.686 -77.795,1.571 -106.634,68.958 -3.134,145.852 L 0,0 z"
             id="path3109"
             style="fill:none;stroke:#ffffff;stroke-width:6;stroke-linecap:round;stroke-linejoin:round;stroke-miterlimit:10;stroke-opacity:1;stroke-dasharray:none" /></g><g
           transform="translate(54.1425,355.9375)"
           id="g3111"><path
             d="m 0,0 42.546,0 c 0.825,-12.606 8.189,-86.555 8.189,-86.555 -11.275,-2.031 -21.934,-2.89 -31.803,-2.685"
             id="path3113"
             style="fill:none;stroke:#2b2b2a;stroke-width:9;stroke-linecap:round;stroke-linejoin:round;stroke-miterlimit:10;stroke-opacity:1;stroke-dasharray:none" /></g><g
           transform="translate(93.4296,412.5489)"
           id="g3115"><path
             d="M 0,0 C 0,0 -18.196,-17.68 -18.196,-55.518"
             id="path3117"
             style="fill:none;stroke:#2b2b2a;stroke-width:9;stroke-linecap:round;stroke-linejoin:round;stroke-miterlimit:10;stroke-opacity:1;stroke-dasharray:none" /></g><g
           transform="translate(169.8095,253.2696)"
           id="g3119"><path
             d="M 0,0 -48.867,-48.867"
             id="path3121"
             style="fill:none;stroke:#2b2b2a;stroke-width:9;stroke-linecap:round;stroke-linejoin:round;stroke-miterlimit:10;stroke-opacity:1;stroke-dasharray:none" /></g></g></g></g></svg>