<?xml version="1.0" encoding="UTF-8" standalone="no"?>
<!-- Created with Inkscape (http://www.inkscape.org/) -->

<svg
   xmlns:dc="http://purl.org/dc/elements/1.1/"
   xmlns:cc="http://creativecommons.org/ns#"
   xmlns:rdf="http://www.w3.org/1999/02/22-rdf-syntax-ns#"
   xmlns:svg="http://www.w3.org/2000/svg"
   xmlns="http://www.w3.org/2000/svg"
   version="1.1"
   width="880"
   height="840"
   id="svg2985"
   xml:space="preserve"><metadata
     id="metadata2991"><rdf:RDF><cc:Work
         rdf:about=""><dc:format>image/svg+xml</dc:format><dc:type
           rdf:resource="http://purl.org/dc/dcmitype/StillImage" /><dc:title></dc:title></cc:Work></rdf:RDF></metadata><defs
     id="defs2989"><clipPath
       id="clipPath2999"><path
         d="m 0,659.979 522.481,0 L 522.481,0 0,0 0,659.979 z"
         id="path3001" /></clipPath></defs><g
     transform="matrix(1.25,0,0,-1.25,0,840.00003)"
     id="g2993"><g
       transform="translate(40.8,9.6)"
       id="g2995"><g
         clip-path="url(#clipPath2999)"
         id="g2997"><g
           transform="translate(399.5658,590.7128)"
           id="g3003"><path
             d="m 0,0 -110.07,0 c -24.241,-3.379 -94.615,-37.705 -88.462,-49.832 3.586,-7.064 19.092,-22.703 31.428,-34.544 0,0 -0.505,-299.238 -0.505,-346.9 0,-47.663 214.152,-44.582 214.152,0 l 0,372.354 C 46.543,0 46.543,0 0,0"
             id="path3005"
             style="fill:#407fa2;fill-opacity:1;fill-rule:nonzero;stroke:none" /></g><g
           transform="translate(290.675,538.4169)"
           id="g3007"><path
             d="m 0,0 c 0,-15.172 -8.15,-27.472 -18.205,-27.472 -10.054,0 -18.205,12.3 -18.205,27.472 0,15.171 8.151,27.471 18.205,27.471 C -8.15,27.471 0,15.171 0,0"
             id="path3009"
             style="fill:#ffffff;fill-opacity:1;fill-rule:nonzero;stroke:none" /></g><g
           transform="translate(280.4748,538.4169)"
           id="g3011"><path
             d="m 0,0 c 0,-6.67 -3.583,-12.079 -8.005,-12.079 -4.42,0 -8.004,5.409 -8.004,12.079 0,6.669 3.584,12.077 8.004,12.077 C -3.583,12.077 0,6.669 0,0"
             id="path3013"
             style="fill:#2b2b2a;fill-opacity:1;fill-rule:nonzero;stroke:none" /></g><g
           transform="translate(354.7532,538.4169)"
           id="g3015"><path
             d="m 0,0 c 0,-15.172 -8.15,-27.472 -18.205,-27.472 -10.054,0 -18.204,12.3 -18.204,27.472 0,15.171 8.15,27.471 18.204,27.471 C -8.15,27.471 0,15.171 0,0"
             id="path3017"
             style="fill:#ffffff;fill-opacity:1;fill-rule:nonzero;stroke:none" /></g><g
           transform="translate(344.553,538.4169)"
           id="g3019"><path
             d="m 0,0 c 0,-6.67 -3.583,-12.079 -8.005,-12.079 -4.42,0 -8.004,5.409 -8.004,12.079 0,6.669 3.584,12.077 8.004,12.077 C -3.583,12.077 0,6.669 0,0"
             id="path3021"
             style="fill:#2b2b2a;fill-opacity:1;fill-rule:nonzero;stroke:none" /></g><g
           transform="translate(276.97,486.7685)"
           id="g3023"><path
             d="m 0,0 0,-25.255 c 0,-13.891 -13.507,-25.256 -30.015,-25.256 -16.507,0 -30.014,11.365 -30.014,25.256 L -60.029,0 0,0 z"
             id="path3025"
             style="fill:#ffffff;fill-opacity:1;fill-rule:nonzero;stroke:none" /></g><g
           transform="translate(276.97,486.7685)"
           id="g3027"><path
             d="m 0,0 0,-25.255 c 0,-13.891 -13.507,-25.256 -30.015,-25.256 -16.507,0 -30.014,11.365 -30.014,25.256 L -60.029,0 0,0 z"
             id="path3029"
             style="fill:none;stroke:#2b2b2a;stroke-width:9;stroke-linecap:round;stroke-linejoin:round;stroke-miterlimit:10;stroke-opacity:1;stroke-dasharray:none" /></g><g
           transform="translate(285.0334,166.538)"
           id="g3031"><path
             d="m 0,0 c 0,0 29.317,-132.636 29.317,-131.858 0,1.548 -31.726,-30.18 -31.726,-30.18 l 143.932,0 -31.727,30.18 L 87.02,0 0,0 z"
             id="path3033"
             style="fill:#407fa2;fill-opacity:1;fill-rule:nonzero;stroke:none" /></g><g
           transform="translate(335.2278,138.4414)"
           id="g3035"><path
             d="M 0,0 19.199,-133.757"
             id="path3037"
             style="fill:none;stroke:#2b2b2a;stroke-width:9;stroke-linecap:round;stroke-linejoin:round;stroke-miterlimit:10;stroke-opacity:1;stroke-dasharray:none" /></g><g
           transform="translate(239.4016,397.8408)"
           id="g3039"><path
             d="M 0,0 C 0,0 -28.657,-68.767 -80.119,4.312 -83.714,-10.144 -175.57,-30.35 -175.57,-30.35 -89.613,-169.276 15.541,-51.32 5.756,-19.006 L 0,0 z"
             id="path3041"
             style="fill:#407fa2;fill-opacity:1;fill-rule:nonzero;stroke:none" /></g><g
           transform="translate(239.4016,397.8408)"
           id="g3043"><path
             d="M 0,0 C 0,0 -28.657,-68.767 -80.119,4.312 -83.714,-10.144 -175.57,-30.35 -175.57,-30.35 -89.613,-169.276 15.541,-51.32 5.756,-19.006 L 0,0 z"
             id="path3045"
             style="fill:none;stroke:#407fa2;stroke-width:6;stroke-linecap:butt;stroke-linejoin:round;stroke-miterlimit:10;stroke-opacity:1;stroke-dasharray:none" /></g><g
           transform="translate(142.4612,495.1494)"
           id="g3047"><path
             d="m 0,0 c -1.551,5.276 -7.137,8.325 -12.414,6.775 l -90.568,-26.611 c -5.277,-1.55 -8.326,-7.136 -6.775,-12.413 l 26.611,-90.569 c 1.551,-5.277 7.137,-8.325 12.414,-6.775 l 90.569,26.611 c 5.277,1.55 8.326,7.137 6.775,12.414 L 0,0 z"
             id="path3049"
             style="fill:#407fa2;fill-opacity:1;fill-rule:nonzero;stroke:none" /></g><g
           transform="translate(24.2385,514.0166)"
           id="g3051"><path
             d="m 0,0 c -3.093,6.172 -10.98,8.576 -17.469,5.076 -6.489,-3.512 -8.65,-11.36 -5.004,-17.236 L 9.762,-51.729 c 2.632,-4.866 8.712,-6.681 13.582,-4.047 4.871,2.634 6.681,8.714 4.046,13.583 L 0,0 z"
             id="path3053"
             style="fill:#407fa2;fill-opacity:1;fill-rule:nonzero;stroke:none" /></g><g
           transform="translate(58.1595,549.2334)"
           id="g3055"><path
             d="M 0,0 C -1.428,8.848 -10.259,14.893 -19.655,13.085 -29.059,11.261 -34.788,2.386 -32.561,-6.313 l 24.514,-61.54 c 1.365,-7.051 8.188,-11.666 15.242,-10.297 7.057,1.363 11.666,8.188 10.295,15.245 L 0,0 z"
             id="path3057"
             style="fill:#407fa2;fill-opacity:1;fill-rule:nonzero;stroke:none" /></g><g
           transform="translate(149.9592,557.3691)"
           id="g3059"><path
             d="m 0,0 c 2.009,8.733 -3.895,17.66 -13.279,19.524 -9.397,1.853 -18.049,-4.21 -19.262,-13.108 l -0.471,-66.24 c -1.391,-7.046 3.19,-13.89 10.241,-15.282 7.05,-1.393 13.892,3.194 15.279,10.244 L 0,0 z"
             id="path3061"
             style="fill:#407fa2;fill-opacity:1;fill-rule:nonzero;stroke:none" /></g><g
           transform="translate(192.385,456.6025)"
           id="g3063"><path
             d="m 0,0 c 4.264,7.882 0.952,18.06 -7.597,22.356 -8.563,4.289 -18.518,0.751 -22.058,-7.502 l -18.103,-63.72 c -3.218,-6.42 -0.626,-14.238 5.8,-17.459 6.424,-3.221 14.24,-0.621 17.456,5.803 L 0,0 z"
             id="path3065"
             style="fill:#407fa2;fill-opacity:1;fill-rule:nonzero;stroke:none" /></g><g
           transform="translate(97.1077,573.3593)"
           id="g3067"><path
             d="M 0,0 C -0.165,8.959 -8.058,16.188 -17.614,15.723 -27.18,15.242 -34.104,7.264 -33.122,-1.662 l 17.665,-84.065 c 0.358,-7.171 6.461,-12.701 13.641,-12.342 7.176,0.357 12.702,6.465 12.337,13.643 L 0,0 z"
             id="path3069"
             style="fill:#407fa2;fill-opacity:1;fill-rule:nonzero;stroke:none" /></g><g
           transform="translate(522.1946,141.6298)"
           id="g3071"><path
             d="m 0,0 -5.461,26.367 -10e-4,0.004 -14.018,67.707 c -1.608,7.757 -7.607,13.515 -14.856,15.264 6.585,2.449 10.828,4.184 10.828,4.184 -12.222,101.194 -74.887,167.082 -90.817,137.315 l -9.368,-17.511 c 0,0 30.2,-49.393 14.914,-137.457 l -7.304,-1.512 c -7.627,-1.581 -13.323,-7.409 -15.171,-14.501 l -18.215,-39.501 c -0.247,-0.451 -0.461,-0.913 -0.66,-1.376 -0.232,-0.351 -0.455,-0.708 -0.657,-1.086 -3.639,-6.722 -1.134,-15.122 5.588,-18.76 l 0.872,-0.474 c 0.517,-0.356 1.048,-0.693 1.613,-0.996 0.563,-0.307 1.137,-0.568 1.714,-0.806 l 23.155,-11.944 1.317,-6.355 c -0.004,-0.939 0.084,-1.893 0.283,-2.849 l 5.453,-26.376 c 1.533,-7.391 8.771,-12.144 16.162,-10.612 7.395,1.533 12.146,8.766 10.615,16.162 l -1.845,8.909 0.056,0.012 1.678,-8.11 c 1.723,-8.319 9.871,-13.676 18.194,-11.95 7.462,1.548 12.519,8.256 12.247,15.626 3.278,-5.012 9.383,-7.785 15.6,-6.496 8.111,1.68 13.327,9.62 11.648,17.736 l -1.087,5.26 0.433,0.09 0.313,-1.514 c 1.532,-7.39 8.769,-12.142 16.16,-10.613 C -3.223,-14.63 1.529,-7.396 0,0"
             id="path3073"
             style="fill:#407fa2;fill-opacity:1;fill-rule:nonzero;stroke:none" /></g><g
           transform="translate(408.7757,348.5566)"
           id="g3075"><path
             d="m 0,0 c 0.678,-1.109 19.248,-26.896 4.64,-111.054 l -7.304,-1.511 c -7.627,-1.582 -13.323,-7.41 -15.171,-14.501 l -18.215,-39.501 c -0.247,-0.452 -0.461,-0.914 -0.66,-1.376 -0.232,-0.352 -0.455,-0.708 -0.657,-1.086 -3.639,-6.723 -1.134,-15.122 5.588,-18.761 l 0.872,-0.474 c 0.517,-0.356 1.048,-0.693 1.613,-0.996 0.563,-0.306 1.137,-0.568 1.714,-0.805 l 23.155,-11.945 2.794,-14.096"
             id="path3077"
             style="fill:none;stroke:#2b2b2a;stroke-width:9;stroke-linecap:round;stroke-linejoin:round;stroke-miterlimit:10;stroke-opacity:1;stroke-dasharray:none" /></g><g
           transform="translate(404.3509,146.5468)"
           id="g3079"><path
             d="M 0,0 -4.599,24.145"
             id="path3081"
             style="fill:none;stroke:#2b2b2a;stroke-width:9;stroke-linecap:round;stroke-linejoin:round;stroke-miterlimit:10;stroke-opacity:1;stroke-dasharray:none" /></g><g
           transform="translate(286.2678,659.9785)"
           id="g3083"><path
             d="m 0,0 c -31.14,0 -49.158,-68.763 -9.298,-83.684 39.86,-14.92 130.182,14.418 101.883,14.418 C 64.286,-69.266 0,-53.586 0,0"
             id="path3085"
             style="fill:#407fa2;fill-opacity:1;fill-rule:nonzero;stroke:none" /></g><g
           transform="translate(317.4065,635.3427)"
           id="g3087"><path
             d="M 0,0 C 0,0 -12.424,-23.084 5.05,-36.943 22.523,-50.803 63.986,-50.91 63.986,-50.91 l 14.989,6.28 C 78.975,-44.63 0,-43.057 0,0"
             id="path3089"
             style="fill:#407fa2;fill-opacity:1;fill-rule:nonzero;stroke:none" /></g><g
           transform="translate(361.0256,407.8017)"
           id="g3091"><path
             d="m 0,0 c 0,-20.885 -27.486,-37.815 -61.392,-37.815 -33.905,0 -61.391,16.93 -61.391,37.815"
             id="path3093"
             style="fill:none;stroke:#2b2b2a;stroke-width:15;stroke-linecap:butt;stroke-linejoin:miter;stroke-miterlimit:10;stroke-opacity:1;stroke-dasharray:none" /></g><g
           transform="translate(361.0256,407.8017)"
           id="g3095"><path
             d="M 0,0 C 0,-0.839 -0.044,-1.671 -0.132,-2.495"
             id="path3097"
             style="fill:none;stroke:#ffffff;stroke-width:4;stroke-linecap:round;stroke-linejoin:miter;stroke-miterlimit:10;stroke-opacity:1;stroke-dasharray:none" /></g><g
           transform="translate(359.8772,400.4863)"
           id="g3099"><path
             d="m 0,0 c -5.531,-17.385 -30.401,-30.5 -60.243,-30.5 -31.192,0 -56.949,14.328 -60.874,32.883"
             id="path3101"
             style="fill:none;stroke:#ffffff;stroke-width:4;stroke-linecap:round;stroke-linejoin:miter;stroke-miterlimit:10;stroke-opacity:1;stroke-dasharray:4.936, 4.936;stroke-dashoffset:0" /></g><g
           transform="translate(238.3743,405.3066)"
           id="g3103"><path
             d="M 0,0 C -0.088,0.824 -0.132,1.656 -0.132,2.495"
             id="path3105"
             style="fill:none;stroke:#ffffff;stroke-width:4;stroke-linecap:round;stroke-linejoin:miter;stroke-miterlimit:10;stroke-opacity:1;stroke-dasharray:none" /></g><g
           transform="translate(502.5755,260.1855)"
           id="g3107"><path
             d="m 0,0 c 0,-7.451 -20.959,-13.492 -46.813,-13.492 -25.853,0 -46.812,6.041 -46.812,13.492"
             id="path3109"
             style="fill:none;stroke:#2b2b2a;stroke-width:15;stroke-linecap:round;stroke-linejoin:miter;stroke-miterlimit:10;stroke-opacity:1;stroke-dasharray:none" /></g><g
           transform="translate(502.5755,260.1855)"
           id="g3111"><path
             d="M 0,0 C 0,-1.093 -0.451,-2.155 -1.302,-3.173"
             id="path3113"
             style="fill:none;stroke:#ffffff;stroke-width:5;stroke-linecap:round;stroke-linejoin:miter;stroke-miterlimit:10;stroke-opacity:1;stroke-dasharray:none" /></g><g
           transform="translate(495.265,252.9433)"
           id="g3115"><path
             d="m 0,0 c -8.311,-3.758 -22.896,-6.25 -39.502,-6.25 -19.021,0 -35.393,3.27 -42.718,7.966"
             id="path3117"
             style="fill:none;stroke:#ffffff;stroke-width:5;stroke-linecap:round;stroke-linejoin:miter;stroke-miterlimit:10;stroke-opacity:1;stroke-dasharray:7.315, 7.315;stroke-dashoffset:0" /></g><g
           transform="translate(410.2523,257.0127)"
           id="g3119"><path
             d="M 0,0 C -0.851,1.018 -1.302,2.08 -1.302,3.173"
             id="path3121"
             style="fill:none;stroke:#ffffff;stroke-width:5;stroke-linecap:round;stroke-linejoin:miter;stroke-miterlimit:10;stroke-opacity:1;stroke-dasharray:none" /></g><g
           transform="translate(289.468,309.4218)"
           id="g3123"><path
             d="m 0,0 -38.22,101.675 -24.12,0.389 5.126,-32.237 L 0,0 z"
             id="path3125"
             style="fill:#407fa2;fill-opacity:1;fill-rule:nonzero;stroke:none" /></g><g
           transform="translate(316.7297,319.9951)"
           id="g3127"><path
             d="M 0,0 37.697,102.741 87.621,51.433 0,0 z"
             id="path3129"
             style="fill:#407fa2;fill-opacity:1;fill-rule:nonzero;stroke:none" /></g><g
           transform="translate(452.968,433.2861)"
           id="g3131"><path
             d="M 0,0 -98.541,-17.011 -72.582,-76.315 0,-37.568"
             id="path3133"
             style="fill:#407fa2;fill-opacity:1;fill-rule:nonzero;stroke:#2b2b2a;stroke-width:9;stroke-linecap:round;stroke-linejoin:round;stroke-miterlimit:10;stroke-opacity:1;stroke-dasharray:none" /></g><g
           transform="translate(215.6721,387.2128)"
           id="g3135"><path
             d="M 0,0 17.536,-32.797 43.495,20.838 0,37.568 0,0 z"
             id="path3137"
             style="fill:#407fa2;fill-opacity:1;fill-rule:nonzero;stroke:none" /></g><g
           transform="translate(215.6721,387.2128)"
           id="g3139"><path
             d="M 0,0 17.536,-32.797 43.495,20.838 0,37.568 0,0 z"
             id="path3141"
             style="fill:none;stroke:#2b2b2a;stroke-width:9;stroke-linecap:round;stroke-linejoin:round;stroke-miterlimit:10;stroke-opacity:1;stroke-dasharray:none" /></g><g
           transform="translate(354.427,416.2753)"
           id="g3143"><path
             d="m 0,0 -54.793,-139.942 0,-109.614"
             id="path3145"
             style="fill:none;stroke:#2b2b2a;stroke-width:9;stroke-linecap:round;stroke-linejoin:round;stroke-miterlimit:10;stroke-opacity:1;stroke-dasharray:none" /></g><g
           transform="translate(299.634,276.333)"
           id="g3147"><path
             d="M 0,0 -40.467,131.718"
             id="path3149"
             style="fill:none;stroke:#2b2b2a;stroke-width:9;stroke-linecap:round;stroke-linejoin:round;stroke-miterlimit:10;stroke-opacity:1;stroke-dasharray:none" /></g><g
           transform="translate(307.9827,28.0498)"
           id="g3151"><path
             d="M 0,0 -2.448,-6.148 27.245,-23.365"
             id="path3153"
             style="fill:none;stroke:#2b2b2a;stroke-width:9;stroke-linecap:round;stroke-linejoin:round;stroke-miterlimit:10;stroke-opacity:1;stroke-dasharray:none" /></g><g
           transform="translate(406.7699,28.0498)"
           id="g3155"><path
             d="M 0,0 2.448,-6.148 -27.245,-23.365"
             id="path3157"
             style="fill:none;stroke:#2b2b2a;stroke-width:9;stroke-linecap:round;stroke-linejoin:round;stroke-miterlimit:10;stroke-opacity:1;stroke-dasharray:none" /></g><g
           transform="translate(279.4006,4.5)"
           id="g3159"><path
             d="M 0,0 147.155,0"
             id="path3161"
             style="fill:none;stroke:#2b2b2a;stroke-width:9;stroke-linecap:round;stroke-linejoin:round;stroke-miterlimit:10;stroke-opacity:1;stroke-dasharray:none" /></g><g
           transform="translate(102.4143,416.2753)"
           id="g3163"><path
             d="m 0,0 c 4.5,40.958 44.19,20.798 47.938,18.388 l 5.836,13.768"
             id="path3165"
             style="fill:none;stroke:#2b2b2a;stroke-width:9;stroke-linecap:round;stroke-linejoin:round;stroke-miterlimit:10;stroke-opacity:1;stroke-dasharray:none" /></g></g></g></g></svg>