<?xml version="1.0" encoding="utf-8"?>
<!-- Generator: Adobe Illustrator 16.0.0, SVG Export Plug-In . SVG Version: 6.00 Build 0)  -->
<!DOCTYPE svg PUBLIC "-//W3C//DTD SVG 1.1//EN" "http://www.w3.org/Graphics/SVG/1.1/DTD/svg11.dtd">
<svg version="1.1" id="Layer_1" xmlns="http://www.w3.org/2000/svg" xmlns:xlink="http://www.w3.org/1999/xlink" x="0px" y="0px"
	 width="161.359px" height="263.004px" viewBox="0 0 161.359 263.004" enable-background="new 0 0 161.359 263.004"
	 xml:space="preserve">
<pattern  x="-1336.821" y="1124.002" width="48" height="48" patternUnits="userSpaceOnUse" id="SVGID_17_" viewBox="2.4 -50.401 48 48" overflow="visible">
	<g>
		<polygon fill="none" points="2.4,-2.4 50.4,-2.4 50.4,-50.4 2.4,-50.4 		"/>
		<g>
			<polygon fill="none" points="2.4,-2.4 50.4,-2.4 50.4,-50.4 2.4,-50.4 			"/>
			<g>
				<g>
					<defs>
						<rect id="SVGID_1_" x="2.4" y="-50.4" width="48" height="48"/>
					</defs>
					<clipPath id="SVGID_2_">
						<use xlink:href="#SVGID_1_"  overflow="visible"/>
					</clipPath>
					<path clip-path="url(#SVGID_2_)" d="M26.4,0c1.324,0,2.399-1.074,2.399-2.4c0-1.323-1.075-2.399-2.399-2.399
						C25.074-4.8,24-3.724,24-2.4C24-1.074,25.074,0,26.4,0"/>
				</g>
				<g>
					<defs>
						<rect id="SVGID_3_" x="2.4" y="-50.4" width="48" height="48"/>
					</defs>
					<clipPath id="SVGID_4_">
						<use xlink:href="#SVGID_3_"  overflow="visible"/>
					</clipPath>
					<path clip-path="url(#SVGID_4_)" d="M50.4,0c1.324,0,2.399-1.074,2.399-2.4c0-1.323-1.075-2.399-2.399-2.399
						C49.074-4.8,48-3.724,48-2.4C48-1.074,49.074,0,50.4,0"/>
				</g>
				<g>
					<defs>
						<rect id="SVGID_5_" x="2.4" y="-50.4" width="48" height="48"/>
					</defs>
					<clipPath id="SVGID_6_">
						<use xlink:href="#SVGID_5_"  overflow="visible"/>
					</clipPath>
					<path clip-path="url(#SVGID_6_)" d="M26.4-24c1.324,0,2.399-1.074,2.399-2.4c0-1.323-1.075-2.399-2.399-2.399
						c-1.326,0-2.4,1.076-2.4,2.399C24-25.074,25.074-24,26.4-24"/>
				</g>
				<g>
					<defs>
						<rect id="SVGID_7_" x="2.4" y="-50.4" width="48" height="48"/>
					</defs>
					<clipPath id="SVGID_8_">
						<use xlink:href="#SVGID_7_"  overflow="visible"/>
					</clipPath>
					<path clip-path="url(#SVGID_8_)" d="M50.4-24c1.324,0,2.399-1.074,2.399-2.4c0-1.323-1.075-2.399-2.399-2.399
						c-1.326,0-2.4,1.076-2.4,2.399C48-25.074,49.074-24,50.4-24"/>
				</g>
				<g>
					<defs>
						<rect id="SVGID_9_" x="2.4" y="-50.4" width="48" height="48"/>
					</defs>
					<clipPath id="SVGID_10_">
						<use xlink:href="#SVGID_9_"  overflow="visible"/>
					</clipPath>
					<path clip-path="url(#SVGID_10_)" d="M38.4-12c1.324,0,2.399-1.074,2.399-2.4c0-1.323-1.075-2.399-2.399-2.399
						c-1.326,0-2.4,1.076-2.4,2.399C36-13.074,37.074-12,38.4-12"/>
				</g>
				<g>
					<defs>
						<rect id="SVGID_11_" x="2.4" y="-50.4" width="48" height="48"/>
					</defs>
					<clipPath id="SVGID_12_">
						<use xlink:href="#SVGID_11_"  overflow="visible"/>
					</clipPath>
					<path clip-path="url(#SVGID_12_)" d="M14.4-12c1.324,0,2.399-1.074,2.399-2.4c0-1.323-1.075-2.399-2.399-2.399
						c-1.326,0-2.4,1.076-2.4,2.399C12-13.074,13.074-12,14.4-12"/>
				</g>
				<g>
					<defs>
						<rect id="SVGID_13_" x="2.4" y="-50.4" width="48" height="48"/>
					</defs>
					<clipPath id="SVGID_14_">
						<use xlink:href="#SVGID_13_"  overflow="visible"/>
					</clipPath>
					<path clip-path="url(#SVGID_14_)" d="M38.4-36c1.324,0,2.399-1.074,2.399-2.4c0-1.323-1.075-2.399-2.399-2.399
						c-1.326,0-2.4,1.076-2.4,2.399C36-37.074,37.074-36,38.4-36"/>
				</g>
				<g>
					<defs>
						<rect id="SVGID_15_" x="2.4" y="-50.4" width="48" height="48"/>
					</defs>
					<clipPath id="SVGID_16_">
						<use xlink:href="#SVGID_15_"  overflow="visible"/>
					</clipPath>
					<path clip-path="url(#SVGID_16_)" d="M14.4-36c1.324,0,2.399-1.074,2.399-2.4c0-1.323-1.075-2.399-2.399-2.399
						c-1.326,0-2.4,1.076-2.4,2.399C12-37.074,13.074-36,14.4-36"/>
				</g>
				<g>
					<defs>
						<rect id="SVGID_18_" x="2.4" y="-50.4" width="48" height="48"/>
					</defs>
					<clipPath id="SVGID_19_">
						<use xlink:href="#SVGID_18_"  overflow="visible"/>
					</clipPath>
					<path clip-path="url(#SVGID_19_)" d="M2.4,0c1.324,0,2.399-1.074,2.399-2.4C4.799-3.724,3.724-4.8,2.4-4.8
						C1.074-4.801,0-3.725,0-2.4C0-1.074,1.074,0,2.4,0"/>
				</g>
				<g>
					<defs>
						<rect id="SVGID_20_" x="2.4" y="-50.4" width="48" height="48"/>
					</defs>
					<clipPath id="SVGID_21_">
						<use xlink:href="#SVGID_20_"  overflow="visible"/>
					</clipPath>
					<path clip-path="url(#SVGID_21_)" d="M2.4-24c1.324,0,2.399-1.074,2.399-2.4c0-1.323-1.075-2.399-2.399-2.399
						C1.074-28.801,0-27.725,0-26.4C0-25.074,1.074-24,2.4-24"/>
				</g>
				<g>
					<defs>
						<rect id="SVGID_22_" x="2.4" y="-50.4" width="48" height="48"/>
					</defs>
					<clipPath id="SVGID_23_">
						<use xlink:href="#SVGID_22_"  overflow="visible"/>
					</clipPath>
					<path clip-path="url(#SVGID_23_)" d="M26.4-48c1.324,0,2.399-1.074,2.399-2.4c0-1.323-1.075-2.399-2.399-2.399
						C25.074-52.801,24-51.725,24-50.4C24-49.074,25.074-48,26.4-48"/>
				</g>
				<g>
					<defs>
						<rect id="SVGID_24_" x="2.4" y="-50.4" width="48" height="48"/>
					</defs>
					<clipPath id="SVGID_25_">
						<use xlink:href="#SVGID_24_"  overflow="visible"/>
					</clipPath>
					<path clip-path="url(#SVGID_25_)" d="M50.4-48c1.324,0,2.399-1.074,2.399-2.4c0-1.323-1.075-2.399-2.399-2.399
						C49.074-52.801,48-51.725,48-50.4C48-49.074,49.074-48,50.4-48"/>
				</g>
				<g>
					<defs>
						<rect id="SVGID_26_" x="2.4" y="-50.4" width="48" height="48"/>
					</defs>
					<clipPath id="SVGID_27_">
						<use xlink:href="#SVGID_26_"  overflow="visible"/>
					</clipPath>
					<path clip-path="url(#SVGID_27_)" d="M2.4-48c1.324,0,2.399-1.074,2.399-2.4c0-1.324-1.075-2.4-2.399-2.4
						c-1.326,0-2.4,1.076-2.4,2.4C0-49.074,1.074-48,2.4-48"/>
				</g>
			</g>
		</g>
	</g>
</pattern>
<polygon fill="#387CA0" points="160.359,248.301 32.075,230.051 32.075,25.526 160.359,9.479 "/>
<g>
	<polygon fill="#FFFFFF" points="138.047,9.479 154.885,18.034 154.885,242.266 138.047,256.231 	"/>
	<path d="M150.973,245.51v-55.657c0-0.828-0.672-1.5-1.5-1.5s-1.5,0.672-1.5,1.5v58.145L150.973,245.51z"/>
	<path d="M144.061,12.535v49.97c0,0.829,0.672,1.5,1.5,1.5s1.5-0.671,1.5-1.5V14.059L144.061,12.535z"/>
	<path d="M150.692,15.904v24.077c0,0.829,0.672,1.5,1.5,1.5s1.5-0.671,1.5-1.5V17.428L150.692,15.904z"/>
</g>
<polygon fill="#387CA0" points="0.5,20.304 0.5,241.174 139.035,260.885 139.035,2.977 "/>
<polygon fill="#FFFFFF" points="15.557,27.08 129.036,14.306 129.036,249.361 15.557,234.633 "/>
<g id="dots" opacity="0.2">
	<pattern  id="SVGID_28_" xlink:href="#SVGID_17_" patternTransform="matrix(1 0 0 1 1628.5391 1612.2471)"  opacity="0.2">
	</pattern>
	<polygon fill="url(#SVGID_28_)" points="15.557,27.08 129.036,14.306 129.036,249.361 15.557,234.633 	"/>
</g>
<line fill="none" stroke="#000000" stroke-width="5" stroke-linecap="round" stroke-miterlimit="10" x1="9.442" y1="24.911" x2="9.442" y2="236.573"/>
<polygon fill="#387CA0" points="141.95,3.993 139.035,2.977 139.035,260.885 141.95,258.917 "/>
<g id="scribbles">
	<path d="M118.119,47.208c-0.013-0.913-0.609-1.435-1.295-1.575c-0.146-0.178-0.284-0.363-0.432-0.522
		c-0.582-0.624-1.833-0.702-2.4,0c-0.425,0.526-0.712,0.933-1.031,1.538c-0.287,0.542-0.354,0.979-0.358,1.236
		c-0.013-0.068-0.025-0.138-0.051-0.239c-0.438-1.733-1.237-3.022-3.191-3.022c-1.961,0-4.176,2.143-5.272,3.573
		c-0.652,0.85-4.032,7.076-5.54,3.022c-0.561-1.507-1.322-2.783-2.031-4.226c-2.513-5.111-7.843,0.236-9.872,2.702
		c-3.553,4.313-5.56-1.079-8.773-2.12c-2.359-0.764-4.36-0.347-6.311,1.155c-0.842,0.648-4.981,6.662-5.038,6.571
		c-1.495-2.402-1.525-4.343-3.9-6.279c-3.678-2.998-7.685,3.067-9.356,5.849c-0.58,0.964-0.892,2.913-1.692,1.079
		c-0.618-1.414-0.905-2.955-1.521-4.371c-0.554-1.274-1.783-3.352-3.565-2.862c-2.04,0.562-3.253,3.315-4.103,4.95
		c-0.295,0.568-1.915,4.607-2.573,2.635c-0.643-1.92-0.358-3.809-0.726-5.738c-0.125-0.661-1.008-0.803-1.442-0.381
		c-2.067,2.004-4.628,6.921-5.232,9.711c0.268-1.241-0.701-3.837-0.878-5.152c-0.341-2.523-0.326-5.021-0.516-7.535
		c-0.063-0.829-1.084-1.135-1.555-0.421c-2.532,3.852-3.506,8.593-5.83,12.532c-0.296,0.5,0.439,1.104,0.822,0.634
		c2.291-2.809,3.385-6.339,4.931-9.573c0.01,4.439,0.217,11.232,3.487,11.488c0.302,0.024,0.579-0.181,0.734-0.421
		c1.597-2.461,2.34-5.88,3.998-8.45c0.263,3.095,0.889,8.145,3.805,5.564c1.03-0.913,5.185-7.793,5.953-5.847
		c0.838,2.124,1.03,4.977,2.735,6.682c0.997,0.998,2.878,0.622,3.776-0.3c2.177-2.228,3.458-5.024,5.745-7.23
		c2.554-2.464,4.955,10.671,9.024,5.646c1.191-1.472,2.274-2.968,3.321-4.55c2.787-4.209,5.655-2.601,8.256,0.344
		c1.486,1.682,3.231,2.138,5.337,1.485c2.686-0.833,4.738-4.771,6.928-6.416c1-0.751,3.966,7.292,5.887,7.856
		c2.303,0.676,3.729,0.097,5.361-1.636c0.998-1.06,1.699-2.303,2.502-3.51c0.789-1.229,1.826-2.176,3.113-2.842
		c-0.119,0.49-0.13,0.978-0.029,1.463c0.351,1.273,1.872,2.945,3.368,2.485c1.74-0.535,2.185-1.877,2.84-3.235
		c0.026,0.021,0.048,0.04,0.076,0.06c1.049,0.764,2.54-0.268,2.522-1.448C118.123,47.447,118.122,47.328,118.119,47.208"/>
	<path d="M119.987,83.363c-0.312-1.94-3.031-1.254-3.192,0.432c0.158-1.66,1.632-2.873-0.529-4.218
		c-1.072-0.667-2.139-0.951-3.314-0.173c-1.723,1.136-3.225,2.543-4.937,3.696c-3.099,2.086-3.893-1.692-5.193-3.074
		c-0.708-0.753-1.792-0.608-2.519,0c-0.945,0.791-1.678,1.777-2.506,2.695c-2.714,3.007-5.789,2.427-9.255,2.672
		c-3.702,0.261-5.771,1.19-9.273-0.888c-1.424-0.845-2.786-1.755-4.354-2.289c-0.771-0.264-1.427,0.274-2.019,0.667
		c-0.828,0.548-5.684,8.499-7.258,3.58c-0.707-2.206-0.97-4.454-3.736-4.595c-1.594-0.081-6.983,4.018-8.108,2.885
		c-1.546-1.559-4.612-4.048-7.09-3.034c-4.187,1.713-10.712,4.785-14.378,1.119c-1.016-1.016-2.653,0.724-3.302,1.415
		c-0.325,0.345,0.173,0.843,0.519,0.519c2.142-2.007,3.675,1.254,6.203,1.827c1.42,0.321,3.214-0.307,4.534-0.694
		c1.037-0.303,6.938-2.386,7.835-2.418c3.154-0.112,4.024,5.412,7.558,4.439c1.607-0.442,3.164-2.212,4.812-2.853
		c2.765-1.075,1.913,2.018,2.813,3.515c1.45,2.409,4.416,3.538,6.987,1.788c1.337-0.91,2.56-1.931,3.493-3.285
		c1.587-2.304,4.115,0.563,6.17,1.637c1.737,0.908,3.35,0.918,5.22,0.697c3.156-0.373,6.034-0.111,9.13-0.104
		c3.104,0.007,5.157-3.145,7.176-5.429c1.85,2.215,3.715,4.429,7.205,2.798c0.936-0.436,1.755-0.882,2.562-1.531
		c2.129-1.709,1.991-2.752,3.681-0.473c0.966,1.301,1.524,1.919,3.143,2.129c0.59,0.077,1.247-0.389,1.523-0.874
		C120.146,84.964,120.164,84.464,119.987,83.363"/>
	<path d="M106.631,108.906c-0.273-0.853-1.229-1.376-2.126-1.149c-0.952,0.241-1.713,0.768-2.565,1.259
		c-2.656,1.529-2.334,0.092-3.991-0.88c-2.089-1.222-5.511,1.291-7.294,2.026c-1.337,0.551-2.521-2.15-3.353-2.637
		c-1.232-0.722-2.062-0.558-3.339-0.197c-0.957,0.271-1.863,1.192-2.604,1.819c-1.458,1.233-3.53-0.501-5.316-0.992
		c-0.908-0.25-1.93,0.063-2.802,0.284c-3.051,0.771-5.729,1.449-8.768,0.153c-3.759-1.603-7.789,0.671-11.665-1.065
		c-2.943-1.319-5.218-1.525-8.421-0.442c-1.994,0.676-4.052,1.051-6.008,1.856c-1.97,0.811-2.917-1.118-4.128-1.937
		c-0.334-0.226-0.892-0.157-1.157,0.149c-0.437,0.567-0.929,1.081-1.478,1.541c-0.146,0-0.282,0.185-0.182,0.317
		c0.067,0.09,0.137,0.18,0.204,0.27c0.11,0.146,0.254,0.224,0.44,0.18c2.299-0.539,0.966,0.882,2.832,1.579
		c3.582,1.337,7.664-1.165,10.941-2.497c3.189-1.297,6.098,0.728,9.125,1.318c1.699,0.331,3.707-0.174,5.428-0.23
		c2.496-0.082,4.673,1.448,7.073,2.006c1.594,0.37,3.837-0.367,5.333-0.734c2.812-0.689,4.914,0.501,7.275,1.662
		c0.854,0.419,1.438-0.058,2.183-0.504c2.302-1.381,2.65-2.116,4.455,0.018c0.671,0.793,1.299,1.589,2.396,1.693
		c1.466,0.139,2.83-0.438,4.148-1.03c2.108-0.947,2.414-1.416,4.194-0.373c2.329,1.364,3.994,0.398,5.912-0.478
		c0.217,0.321,0.533,0.572,0.949,0.678c1.55,0.396,3.651,0.069,4.746-1.176C110.537,109.724,108.155,107.287,106.631,108.906"/>
</g>
<polygon id="badge" fill="#fe6f48" points="107.405,209.729 100.462,206.815 98.09,213.542 90.856,213.475 91.514,220.465
	85.13,223.107 88.545,229.327 83.953,234.225 89.544,238.793 88.024,243.486 87.454,245.249 94.394,247.479 95.239,254.583 
	102.48,254.027 103.526,255.833 121.936,258.452 123.364,256.417 131.602,258.862 132.602,251.346 139.035,250.698 139.035,244.364 
	138.499,242.795 139.035,242.486 139.035,223.484 136.069,222.159 136.875,214.465 128.289,214.186 125.602,206.958 
	118.076,209.859 112.676,204.387 "/>
<polygon points="139.035,260.885 140.554,259.859 140.554,3.507 139.035,2.977 137.515,3.167 137.515,260.638 "/>
</svg>
