<?xml version="1.0" encoding="utf-8"?>
<!-- Generator: Adobe Illustrator 16.0.0, SVG Export Plug-In . SVG Version: 6.00 Build 0)  -->
<!DOCTYPE svg PUBLIC "-//W3C//DTD SVG 1.1//EN" "http://www.w3.org/Graphics/SVG/1.1/DTD/svg11.dtd">
<svg version="1.1"
	 id="svg2" xmlns:cc="http://creativecommons.org/ns#" xmlns:dc="http://purl.org/dc/elements/1.1/" xmlns:svg="http://www.w3.org/2000/svg" xmlns:rdf="http://www.w3.org/1999/02/22-rdf-syntax-ns#"
	 xmlns="http://www.w3.org/2000/svg" xmlns:xlink="http://www.w3.org/1999/xlink" x="0px" y="0px" width="197.906px"
	 height="122.411px" viewBox="0 0 197.906 122.411" enable-background="new 0 0 197.906 122.411" xml:space="preserve">
<path id="path3005" fill="#407FA2" d="M189.964,64.969c-0.515-3.253,1.71-6.315,4.966-6.831l-0.932-5.891
	c-3.258,0.516-6.319-1.707-6.834-4.961c-0.518-3.26,1.709-6.316,4.966-6.833l-0.935-5.901c-3.258,0.516-6.318-1.7-6.834-4.957
	c-0.517-3.262,1.709-6.319,4.967-6.835l-1.123-7.086C177.919,17.304,168.258,10.281,166.63,0L15.676,23.909
	C17.304,34.19,10.286,43.854,0,45.484l1.123,7.086c3.256-0.515,6.317,1.704,6.833,4.966c0.515,3.256-1.71,6.31-4.966,6.826
	l0.935,5.9c3.255-0.516,6.316,1.704,6.833,4.964c0.516,3.255-1.708,6.315-4.965,6.83l0.934,5.892
	c3.255-0.517,6.318,1.709,6.833,4.961c0.517,3.263-1.708,6.326-4.964,6.842l1.106,6.983c10.286-1.629,19.947,5.394,21.576,15.677
	l150.954-23.908c-1.629-10.283,5.389-19.949,15.675-21.578l-1.106-6.982C193.543,70.458,190.48,68.231,189.964,64.969"/>
<g>
	<path fill="#FFFFFF" d="M95.322,53.358c0.067-0.067,0.09-0.167,0.06-0.257l-2.908-8.564l5.41-7.25
		c0.057-0.076,0.066-0.178,0.022-0.263c-0.043-0.085-0.11-0.137-0.226-0.137L88.637,37l-5.226-7.386
		c-0.055-0.078-0.151-0.121-0.241-0.103c-0.093,0.014-0.171,0.079-0.2,0.169l-2.849,8.668l-8.473,2.663
		c-0.091,0.028-0.158,0.105-0.172,0.2c-0.015,0.094,0.025,0.188,0.103,0.243l7.382,5.224l-0.114,9.042
		c-0.001,0.095,0.052,0.183,0.137,0.226c0.036,0.019,0.075,0.027,0.113,0.027c0.053,0,0.105-0.017,0.149-0.05l7.248-5.411
		l8.57,2.906C95.155,53.449,95.254,53.426,95.322,53.358z"/>
	<path fill="#FFFFFF" d="M62.927,52.023l-6.179,0.076l-3.569-5.041c-0.056-0.078-0.151-0.117-0.243-0.103
		c-0.094,0.015-0.171,0.082-0.2,0.173l-1.834,5.896l-5.9,1.837c-0.091,0.028-0.158,0.106-0.173,0.2
		c-0.015,0.094,0.025,0.188,0.103,0.243l5.044,3.568l-0.08,6.175c-0.001,0.095,0.052,0.183,0.136,0.226
		c0.036,0.019,0.075,0.027,0.114,0.027c0.053,0,0.105-0.017,0.149-0.05l4.954-3.689l5.853,1.978c0.089,0.03,0.185,0.008,0.253-0.057
		c0.067-0.064,0.093-0.161,0.067-0.25l-1.708-5.902l3.42-4.915c0.054-0.077,0.06-0.177,0.016-0.26
		C63.108,52.074,63.05,52.022,62.927,52.023z"/>
	<path fill="#FFFFFF" d="M127.303,41.828l-6.181,0.076l-3.568-5.041c-0.055-0.078-0.147-0.116-0.243-0.103
		c-0.094,0.015-0.172,0.082-0.199,0.173l-1.835,5.896l-5.898,1.837c-0.093,0.029-0.16,0.108-0.173,0.204
		c-0.014,0.096,0.028,0.191,0.109,0.244l5.156,3.399l-0.199,6.334c-0.003,0.096,0.049,0.185,0.135,0.229
		c0.036,0.019,0.075,0.028,0.115,0.028c0.053,0,0.105-0.017,0.149-0.049l4.952-3.689l5.852,1.978c0.092,0.031,0.19,0.008,0.257-0.06
		c0.067-0.067,0.091-0.167,0.06-0.257l-1.982-5.848l3.697-4.953c0.057-0.076,0.065-0.178,0.022-0.263
		C127.484,41.879,127.398,41.814,127.303,41.828z"/>
	<path fill="#FFFFFF" d="M175.676,27.537c-7.695-1.674-14.393-6.538-18.363-13.341L28.922,34.53
		c-1.675,7.699-6.54,14.394-13.344,18.362l6.649,41.977c7.697,1.678,14.394,6.543,18.365,13.344l128.39-20.334
		c1.675-7.697,6.54-14.392,13.342-18.367L175.676,27.537z M87.123,98.312l5.701-7.849l7.849,5.703L87.123,98.312z M166.955,85.668
		l-63.447,10.049l-5.59-6.06l6.365-1.007c0.701-0.111,1.182-0.774,1.072-1.476l-2.276-14.368c-0.781,0.344-1.604,0.625-2.489,0.766
		c-3.75,0.594-7.33-0.955-9.574-3.703l-2.835,0.448c-1.285,3.309-4.207,5.888-7.961,6.481c-0.885,0.141-1.749,0.125-2.604,0.041
		l2.275,14.367c0.111,0.701,0.773,1.184,1.475,1.072l6.366-1.008l-3.443,7.489l-42.451,6.724
		c-4.079-6.154-10.283-10.662-17.4-12.643l-6.13-38.703c6.157-4.079,10.665-10.281,12.642-17.399l125.118-19.816
		c4.08,6.158,10.282,10.664,17.399,12.64l6.129,38.705C173.438,72.35,168.933,78.554,166.955,85.668z"/>
	<path fill="#FFFFFF" d="M113.523,72.83c-0.111-0.702-0.629-0.879-1.149-0.399l-4.938,4.556c-0.521,0.479-0.856,1.444-0.745,2.146
		l0.403,2.549c0.11,0.701,0.729,1.514,1.372,1.811l6.104,2.807c0.644,0.295,1.081-0.034,0.97-0.735L113.523,72.83z"/>
	<path fill="#FFFFFF" d="M77.396,58.976c-4.218,0.667-7.098,4.63-6.43,8.849c0.668,4.217,4.632,7.098,8.85,6.428
		c4.216-0.667,7.096-4.631,6.429-8.848C85.578,61.187,81.614,58.307,77.396,58.976z"/>
	<circle fill="#FFFFFF" cx="98.977" cy="63.388" r="7.734"/>
</g>
<g>
	
		<rect x="135.801" y="4.66" transform="matrix(0.9877 -0.1566 0.1566 0.9877 0.7682 21.5717)" fill="#2B2B2A" width="3" height="2.5"/>
	
		<rect x="140.834" y="35.684" transform="matrix(0.9877 -0.1566 0.1566 0.9877 -4.1441 22.7515)" fill="#2B2B2A" width="3" height="3.989"/>
	
		<rect x="142.082" y="43.564" transform="matrix(0.9877 -0.1566 0.1566 0.9877 -5.3625 23.0441)" fill="#2B2B2A" width="3" height="3.989"/>
	
		<rect x="139.585" y="27.805" transform="matrix(0.9877 -0.1566 0.1566 0.9877 -2.9257 22.4589)" fill="#2B2B2A" width="3" height="3.989"/>
	
		<rect x="137.089" y="12.045" transform="matrix(0.9877 -0.1566 0.1566 0.9877 -0.4888 21.8736)" fill="#2B2B2A" width="3" height="3.989"/>
	
		<rect x="138.337" y="19.925" transform="matrix(0.9877 -0.1566 0.1566 0.9877 -1.7072 22.1663)" fill="#2B2B2A" width="3" height="3.989"/>
	
		<rect x="145.825" y="67.203" transform="matrix(0.9877 -0.1563 0.1563 0.9877 -9.0033 23.8715)" fill="#2B2B2A" width="3" height="3.989"/>
	
		<rect x="143.329" y="51.444" transform="matrix(0.9877 -0.1566 0.1566 0.9877 -6.581 23.3366)" fill="#2B2B2A" width="3" height="3.989"/>
	
		<rect x="147.073" y="75.083" transform="matrix(0.9877 -0.1563 0.1563 0.9877 -10.2193 24.1634)" fill="#2B2B2A" width="3" height="3.989"/>
	
		<rect x="148.321" y="82.963" transform="matrix(0.9877 -0.1563 0.1563 0.9877 -11.4353 24.4552)" fill="#2B2B2A" width="3" height="3.989"/>
	
		<rect x="144.577" y="59.324" transform="matrix(0.9877 -0.1566 0.1566 0.9877 -7.7993 23.6292)" fill="#2B2B2A" width="3" height="3.988"/>
	
		<rect x="149.569" y="90.843" transform="matrix(0.9877 -0.1563 0.1563 0.9877 -12.6513 24.747)" fill="#2B2B2A" width="3" height="3.989"/>
	
		<rect x="151.012" y="100.694" transform="matrix(0.9876 -0.1569 0.1569 0.9876 -14.1059 25.1916)" fill="#2B2B2A" width="3" height="2.5"/>
</g>
<g>
	
		<rect x="137.911" y="4.327" transform="matrix(0.9877 -0.1566 0.1566 0.9877 0.8391 21.8985)" fill="#FFFFFF" width="3" height="2.593"/>
	
		<rect x="142.94" y="35.387" transform="matrix(0.9877 -0.1566 0.1566 0.9877 -4.0709 23.0777)" fill="#FFFFFF" width="3" height="3.981"/>
	
		<rect x="144.186" y="43.251" transform="matrix(0.9877 -0.1563 0.1563 0.9877 -5.2799 23.3212)" fill="#FFFFFF" width="3" height="3.981"/>
	
		<rect x="141.695" y="27.523" transform="matrix(0.9877 -0.1566 0.1566 0.9877 -2.8549 22.7857)" fill="#FFFFFF" width="3" height="3.981"/>
	
		<rect x="139.204" y="11.795" transform="matrix(0.9877 -0.1566 0.1566 0.9877 -0.423 22.2016)" fill="#FFFFFF" width="3" height="3.981"/>
	
		<rect x="140.449" y="19.659" transform="matrix(0.9877 -0.1566 0.1566 0.9877 -1.6389 22.4936)" fill="#FFFFFF" width="3" height="3.981"/>
	
		<rect x="146.677" y="58.979" transform="matrix(0.9877 -0.1566 0.1566 0.9877 -7.7188 23.9537)" fill="#FFFFFF" width="3" height="3.98"/>
	
		<rect x="150.414" y="82.571" transform="matrix(0.9877 -0.1563 0.1563 0.9877 -11.3476 24.7773)" fill="#FFFFFF" width="3" height="3.981"/>
	
		<rect x="151.659" y="90.435" transform="matrix(0.9877 -0.1563 0.1563 0.9877 -12.5612 25.0686)" fill="#FFFFFF" width="3" height="3.981"/>
	
		<rect x="149.168" y="74.706" transform="matrix(0.9877 -0.1563 0.1563 0.9877 -10.1341 24.4861)" fill="#FFFFFF" width="3" height="3.982"/>
	
		<rect x="145.432" y="51.115" transform="matrix(0.9877 -0.1566 0.1566 0.9877 -6.5029 23.6618)" fill="#FFFFFF" width="3" height="3.981"/>
	
		<rect x="147.923" y="66.842" transform="matrix(0.9877 -0.1563 0.1563 0.9877 -8.9205 24.1949)" fill="#FFFFFF" width="3" height="3.982"/>
	
		<rect x="153.106" y="100.268" transform="matrix(0.9876 -0.1569 0.1569 0.9876 -14.0206 25.5154)" fill="#FFFFFF" width="3" height="2.595"/>
</g>
</svg>
