<?xml version="1.0" encoding="utf-8"?>
<!-- Generator: Adobe Illustrator 16.0.0, SVG Export Plug-In . SVG Version: 6.00 Build 0)  -->
<!DOCTYPE svg PUBLIC "-//W3C//DTD SVG 1.1//EN" "http://www.w3.org/Graphics/SVG/1.1/DTD/svg11.dtd">
<svg version="1.1" id="Layer_1" xmlns="http://www.w3.org/2000/svg" xmlns:xlink="http://www.w3.org/1999/xlink" x="0px" y="0px"
	 width="203.836px" height="127.239px" viewBox="0 0 203.836 127.239" enable-background="new 0 0 203.836 127.239"
	 xml:space="preserve">
<path fill="#387CA0" d="M155.008,0.25c0.282,0.846,47.329,42.549,47.329,42.549l-1.661,50.112L71.331,120.65L32.449,74.189V22.506
	L155.008,0.25z"/>
<path d="M203.811,42.525c-0.151-0.814-0.94-1.355-1.748-1.201L71.898,65.487L33.58,21.521c-0.461-0.53-1.228-0.668-1.843-0.335
	c-0.617,0.333-0.921,1.048-0.733,1.723l21.631,77.536c0.185,0.663,0.788,1.097,1.444,1.097c0.134,0,0.269-0.018,0.404-0.056
	c0.798-0.222,1.265-1.05,1.042-1.848l-1.919-6.879L69.83,71.547v49.103c0,0.828,0.671,1.5,1.5,1.5s1.5-0.672,1.5-1.5V68.365
	l129.779-24.091C203.424,44.123,203.962,43.339,203.811,42.525z M35.676,28.492l33.718,38.688L52.597,89.141L35.676,28.492z"/>
<path fill="#387CA0" d="M193.775,104.016H45.889c-21.789,0-32.505-7.795-41.794-0.355c-4.171,3.336-7.376,13.508,1.966,19.465
	c8.141,5.191,38.4,6.965,84.124-3.75h104.663C198.779,119.375,198.779,104.016,193.775,104.016"/>
<path fill="#FFFFFF" d="M193.775,104.338H45.889c-8.458,0-15.086-1.169-20.935-2.199c-9.08-1.603-15.641-2.757-21.797,2.172
	c-0.646,0.518-0.751,1.462-0.233,2.108c0.519,0.647,1.461,0.752,2.108,0.233c5.099-4.081,10.789-3.077,19.401-1.56
	c5.674,1,12.736,2.245,21.456,2.245h39.863v12.359c0,0.276,0.224,0.5,0.5,0.5h0.455c0.646,0,1.003-0.721,1.232-2.486
	c0.155-1.198,0.241-2.844,0.241-4.633c0-2.817-0.147-4.601-0.352-5.74h105.948c0.828,0,1.5-0.672,1.5-1.5
	S194.604,104.338,193.775,104.338z"/>
</svg>
