<?xml version="1.0" encoding="utf-8"?>
<!-- Generator: Adobe Illustrator 16.0.0, SVG Export Plug-In . SVG Version: 6.00 Build 0)  -->
<!DOCTYPE svg PUBLIC "-//W3C//DTD SVG 1.1//EN" "http://www.w3.org/Graphics/SVG/1.1/DTD/svg11.dtd">
<svg version="1.1" id="Layer_1" xmlns="http://www.w3.org/2000/svg" xmlns:xlink="http://www.w3.org/1999/xlink" x="0px" y="0px"
	 width="85px" height="176.503px" viewBox="0 0 85 176.503" enable-background="new 0 0 85 176.503" xml:space="preserve">
<path id="blue" fill="#387CA0" d="M14.773,56.601l0.019,0.268c0.661,9.257,7.779,39.619,14.112,63.912
	c3.121,11.972,13.526,51.031,16.369,51.031c2.812,0,5.57-12.327,11.54-40.211c4.379-20.454,9.829-45.91,17.436-74.686l0.083-0.314
	H14.773z"/>
<g>
	<g>
		<path fill="#1D1D1B" d="M51.592,63.048c0.324,0,0.65-0.104,0.925-0.32c0.652-0.512,0.766-1.455,0.254-2.106
			c-0.924-1.178-1.997-2.55-3.139-4.021h-3.79c1.668,2.168,3.268,4.214,4.569,5.873C50.707,62.851,51.147,63.048,51.592,63.048z
			 M33.326,59.787c2.613-0.977,5.217-2.047,7.79-3.186h-7.871c-0.323,0.124-0.646,0.255-0.97,0.376
			c-0.776,0.29-1.17,1.154-0.879,1.93C31.686,59.684,32.552,60.079,33.326,59.787z M26.104,57.576c0.271,0,0.544-0.073,0.791-0.226
			c0.292-0.182,0.495-0.45,0.607-0.749h-2.837c0.056,0.09,0.108,0.177,0.164,0.267C25.112,57.325,25.602,57.576,26.104,57.576z
			 M40.339,72.026c0.331,0.759,1.214,1.107,1.974,0.776c3.94-1.717,7.849-3.667,11.636-5.806c1.815,2.325,3.605,4.625,5.338,6.891
			c0.295,0.386,0.741,0.589,1.192,0.589c0.317,0,0.638-0.101,0.91-0.308c0.658-0.503,0.783-1.445,0.28-2.103
			c-1.992-2.606-4.06-5.256-6.156-7.939c-0.46-0.589-1.283-0.75-1.933-0.375c-4.041,2.336-8.235,4.456-12.466,6.3
			C40.355,70.383,40.008,71.267,40.339,72.026z M65.622,72.585c-0.642,0.523-0.737,1.469-0.214,2.11
			c0.523,0.641,1.467,0.739,2.11,0.214c0.923-0.753,1.818-1.503,2.692-2.249c0.42-1.688,0.847-3.389,1.282-5.104
			c-0.833,0.745-1.664,1.479-2.487,2.189C67.923,70.684,66.788,71.633,65.622,72.585z M18.794,64.429
			c3.134-0.841,6.192-1.757,9.108-2.727c1.797,2.755,3.702,5.581,5.798,8.603c0.292,0.42,0.759,0.645,1.234,0.645
			c0.295,0,0.593-0.087,0.854-0.268c0.681-0.472,0.85-1.407,0.377-2.087c-2.327-3.354-4.414-6.462-6.38-9.501
			c-0.374-0.578-1.095-0.828-1.744-0.604c-3.183,1.087-6.555,2.111-10.024,3.042c-0.8,0.215-1.275,1.038-1.06,1.837
			C17.171,64.169,17.997,64.644,18.794,64.429z M47.371,166.385c-1.46,0.684-2.914,1.281-4.356,1.836
			c0.494,1.175,0.943,2.097,1.335,2.713c0.978-0.381,1.959-0.788,2.945-1.226c0.42-0.846,0.853-1.946,1.311-3.324
			C48.219,166.215,47.773,166.196,47.371,166.385z M71.678,56.601h-7.132c-2.363,1.724-4.774,3.367-7.212,4.893
			c-0.702,0.439-0.915,1.365-0.476,2.067c0.284,0.455,0.773,0.705,1.272,0.704c0.272,0,0.548-0.074,0.795-0.229
			c3.286-2.057,6.533-4.308,9.672-6.705c1.207,1.922,2.335,3.753,3.361,5.46c0.151,0.252,0.367,0.439,0.611,0.562
			c0.319-1.238,0.645-2.487,0.972-3.738C72.949,58.645,72.324,57.634,71.678,56.601z M44.979,165.785
			c0.342,0,0.686-0.116,0.967-0.354c0.633-0.534,0.713-1.48,0.178-2.113c-2.288-2.71-4.582-5.645-6.816-8.723
			c-0.274-0.379-0.703-0.598-1.154-0.616c0.76,2.492,1.509,4.862,2.224,7.017c1.147,1.467,2.301,2.893,3.455,4.258
			C44.129,165.604,44.553,165.785,44.979,165.785z M43.811,84.351c0.294,0.398,0.748,0.609,1.208,0.609
			c0.31,0,0.621-0.095,0.89-0.293c0.667-0.492,0.809-1.431,0.316-2.098c-3.009-4.078-5.311-7.25-7.463-10.283
			c-0.399-0.563-1.131-0.782-1.773-0.527c-3.698,1.457-7.525,2.759-11.376,3.87c-0.796,0.229-1.255,1.061-1.026,1.857
			c0.23,0.796,1.06,1.257,1.857,1.026c3.562-1.028,7.106-2.215,10.55-3.536C38.965,77.741,41.104,80.681,43.811,84.351z
			 M49.177,146.9c0.295,0.384,0.74,0.585,1.189,0.585c0.319,0,0.642-0.102,0.914-0.312c0.656-0.505,0.779-1.446,0.273-2.104
			c-2.02-2.625-4.085-5.399-6.137-8.246c-0.395-0.547-1.108-0.763-1.737-0.529c-3.164,1.172-6.468,2.124-9.827,2.853
			c0.267,0.956,0.538,1.923,0.812,2.893c3.058-0.671,6.073-1.519,8.983-2.544C45.498,142.046,47.355,144.533,49.177,146.9z
			 M20.143,75.57c0.725-0.401,0.988-1.313,0.587-2.039c-1.576-2.851-3.187-5.886-4.899-9.22c0.513,2.924,1.188,6.357,1.985,10.145
			c0.096,0.174,0.193,0.354,0.288,0.526c0.274,0.495,0.786,0.775,1.314,0.775C19.664,75.757,19.913,75.697,20.143,75.57z
			 M50.14,117.84c-0.432-0.538-1.179-0.712-1.804-0.418c-3.071,1.436-6.306,2.724-9.612,3.83c-0.786,0.264-1.209,1.113-0.946,1.898
			c0.263,0.785,1.113,1.209,1.898,0.947c3.034-1.016,6.009-2.18,8.862-3.468c1.972,2.426,4.043,4.875,6.168,7.295
			c0.297,0.337,0.711,0.51,1.128,0.51c0.352,0,0.704-0.123,0.989-0.373c0.622-0.547,0.684-1.494,0.137-2.117
			C54.598,123.255,52.303,120.529,50.14,117.84z M40.34,134.857c0.292,0.416,0.757,0.639,1.229,0.639
			c0.297,0,0.598-0.088,0.86-0.272c0.678-0.476,0.842-1.411,0.366-2.089c-2.241-3.192-4.506-6.536-6.733-9.938
			c-0.358-0.547-1.03-0.803-1.66-0.623c-1.556,0.436-3.132,0.833-4.717,1.189c0.236,0.895,0.492,1.861,0.766,2.891
			c1.239-0.28,2.477-0.572,3.7-0.9C36.204,128.867,38.282,131.925,40.34,134.857z M59.243,97.724
			c0.288,0.439,0.768,0.678,1.256,0.678c0.282,0,0.567-0.079,0.821-0.245c1.128-0.739,2.243-1.511,3.35-2.296
			c0.34-1.478,0.685-2.969,1.035-4.476c-1.969,1.491-3.98,2.92-6.029,4.262C58.983,96.101,58.789,97.031,59.243,97.724z
			 M32.301,121.636c0.276,0,0.555-0.076,0.805-0.235c0.699-0.445,0.904-1.372,0.459-2.07c-1.996-3.132-3.885-6.179-5.615-9.057
			c-0.329-0.548-0.97-0.827-1.591-0.696c-0.102,0.021-0.205,0.036-0.306,0.057c0.475,1.89,0.951,3.766,1.426,5.622
			c1.144,1.856,2.32,3.745,3.556,5.686C31.321,121.391,31.806,121.636,32.301,121.636z M24.956,105.238
			c0.207,0.838,0.415,1.674,0.624,2.51c0.242-0.447,0.255-1.004-0.021-1.474C25.357,105.932,25.157,105.582,24.956,105.238z
			 M47.021,136.601c0.34,0.755,1.226,1.093,1.982,0.756c2.564-1.148,5.04-2.439,7.401-3.85c0.135-0.63,0.27-1.26,0.408-1.906
			c0.154-0.722,0.313-1.464,0.471-2.198c-2.966,1.955-6.153,3.714-9.507,5.216C47.021,134.958,46.683,135.845,47.021,136.601z
			 M42.052,152.677c-0.783,0.27-1.199,1.124-0.929,1.907c0.27,0.783,1.123,1.197,1.907,0.929c3.164-1.092,6.329-2.43,9.43-3.979
			c0.254-1.113,0.517-2.281,0.786-3.492c-0.276-0.023-0.56,0.009-0.82,0.146C49.029,149.964,45.539,151.475,42.052,152.677z
			 M36.256,104.327c0.292,0.419,0.758,0.644,1.232,0.644c0.295,0,0.594-0.087,0.855-0.269c0.68-0.474,0.848-1.408,0.374-2.088
			c-1.896-2.726-3.802-5.562-5.825-8.673c-0.385-0.592-1.132-0.835-1.792-0.583c-2.582,0.985-5.171,1.838-7.696,2.533
			c-0.25,0.069-0.463,0.202-0.638,0.371c0.2,0.833,0.401,1.669,0.604,2.507c0.262,0.079,0.547,0.092,0.83,0.015
			c2.246-0.619,4.54-1.357,6.834-2.198C32.834,99.332,34.548,101.874,36.256,104.327z M29.229,92.474
			c0.272,0,0.548-0.074,0.796-0.229c0.702-0.44,0.914-1.366,0.473-2.067c-2.55-4.065-5.02-8.208-7.551-12.667
			c-0.333-0.586-1.016-0.88-1.671-0.714c-0.915,0.23-1.865,0.448-2.82,0.664c0.208,0.959,0.421,1.936,0.641,2.93
			c0.604-0.136,1.215-0.269,1.803-0.411c2.358,4.124,4.672,7.992,7.057,11.792C28.242,92.225,28.73,92.474,29.229,92.474z
			 M51.688,117.48c0.269,0.51,0.79,0.801,1.328,0.801c0.236,0,0.476-0.056,0.698-0.173c2.345-1.236,4.641-2.586,6.877-4.02
			c0.304-1.391,0.612-2.797,0.927-4.22c-2.948,2.033-6.03,3.913-9.202,5.585C51.583,115.84,51.303,116.748,51.688,117.48z
			 M49.222,91.618c1.254,1.679,2.483,3.33,3.696,4.962c0.295,0.396,0.747,0.605,1.205,0.605c0.312,0,0.625-0.097,0.894-0.296
			c0.665-0.494,0.804-1.435,0.31-2.099c-1.215-1.634-2.446-3.287-3.7-4.968c-0.916-1.228-1.838-2.463-2.761-3.706
			c-0.456-0.615-1.299-0.787-1.96-0.402c-3.949,2.303-7.89,4.313-11.716,5.975c-0.76,0.33-1.108,1.214-0.778,1.974
			c0.331,0.76,1.211,1.106,1.974,0.778c3.557-1.545,7.208-3.381,10.869-5.465C47.911,89.861,48.567,90.742,49.222,91.618z
			 M30.814,108.547c-0.802,0.209-1.283,1.027-1.074,1.829c0.208,0.803,1.028,1.279,1.829,1.075c2.687-0.699,5.379-1.524,8.019-2.459
			c1.8,2.479,3.604,4.883,5.374,7.16c0.296,0.38,0.738,0.579,1.186,0.579c0.321,0,0.646-0.103,0.92-0.315
			c0.653-0.509,0.771-1.451,0.264-2.105c-1.965-2.527-3.974-5.216-5.972-7.989c-0.394-0.545-1.1-0.762-1.734-0.531
			C36.736,106.851,33.771,107.779,30.814,108.547z M63.327,75.007c-0.4-0.054-0.804,0.054-1.122,0.301
			c-3.828,2.967-7.721,5.705-11.567,8.136c-0.7,0.443-0.909,1.369-0.466,2.069c0.443,0.701,1.369,0.909,2.069,0.467
			c3.52-2.225,7.074-4.699,10.584-7.367c1.679,2.284,3.128,4.34,4.417,6.253c0.309-1.3,0.623-2.608,0.941-3.927
			c-1.16-1.66-2.427-3.419-3.855-5.341C64.087,75.275,63.727,75.062,63.327,75.007z M55.984,97.958
			c-3.978,2.368-8.086,4.45-12.21,6.188c-0.763,0.321-1.121,1.201-0.799,1.965s1.202,1.122,1.965,0.799
			c3.845-1.621,7.676-3.531,11.404-5.686c1.514,2.062,2.891,3.971,4.188,5.805c0.292,0.413,0.756,0.634,1.226,0.634
			c0.086,0,0.171-0.024,0.257-0.039c0.205-0.928,0.415-1.865,0.625-2.807c-1.438-2.025-2.971-4.142-4.682-6.461
			C57.502,97.736,56.649,97.565,55.984,97.958z"/>
	</g>
</g>
<path id="scope" fill="#FFFFFF" d="M14.985,60.237c3.162-3.162-10.879-6.701-10.879-22.045c0-15.342,5.018-26.775,26.498-35.143
	C52.085-5.32,56.544,6.186,63.8,6.186c7.252,0,13.667,12.201,13.386,14.992c2.789,3.348,8.929,23.435,1.676,31.241
	c-7.252,7.812-10.601,14.228-8.928,18.687c1.676,4.465,0.699,5.442-0.138,6.277c-0.841,0.84-5.161,0.422-3.211-7.111
	c1.956-7.531,3.349-11.142,1.956-10.035c-1.396,1.108-25.148,0-28.175,0c-15.885,0-3.772,26.076-10.443,26.076
	c-3.554,0-0.487-21.117-3.225-23.857c-1.42-1.418-5.577-3.071-7.812,0C16.658,65.532,13.311,61.914,14.985,60.237"/>
</svg>
