<?xml version="1.0" encoding="utf-8"?>
<!-- Generator: Adobe Illustrator 16.0.0, SVG Export Plug-In . SVG Version: 6.00 Build 0)  -->
<!DOCTYPE svg PUBLIC "-//W3C//DTD SVG 1.1//EN" "http://www.w3.org/Graphics/SVG/1.1/DTD/svg11.dtd">
<svg version="1.1" id="Layer_1" xmlns="http://www.w3.org/2000/svg" xmlns:xlink="http://www.w3.org/1999/xlink" x="0px" y="0px"
	 width="258.246px" height="246.543px" viewBox="0 0 258.246 246.543" enable-background="new 0 0 258.246 246.543"
	 xml:space="preserve">
<g id="delete">
	<defs>
		<rect id="SVGID_1_" width="258.246" height="246.543"/>
	</defs>
	<defs>
		<rect id="SVGID_2_" width="258.246" height="246.543"/>
	</defs>
	<defs>
		<rect id="SVGID_3_" width="258.246" height="246.543"/>
	</defs>
	<defs>
		<rect id="SVGID_4_" width="258.246" height="246.543"/>
	</defs>
	<defs>
		<rect id="SVGID_5_" width="258.246" height="246.543"/>
	</defs>
	<defs>
		<rect id="SVGID_6_" width="258.246" height="246.543"/>
	</defs>
	<clipPath id="SVGID_7_">
		<use xlink:href="#SVGID_1_"  overflow="visible"/>
	</clipPath>
	<clipPath id="SVGID_8_" clip-path="url(#SVGID_7_)">
		<use xlink:href="#SVGID_2_"  overflow="visible"/>
	</clipPath>
	<clipPath id="SVGID_9_" clip-path="url(#SVGID_8_)">
		<use xlink:href="#SVGID_3_"  overflow="visible"/>
	</clipPath>
	<clipPath id="SVGID_10_" clip-path="url(#SVGID_9_)">
		<use xlink:href="#SVGID_4_"  overflow="visible"/>
	</clipPath>
	<clipPath id="SVGID_11_" clip-path="url(#SVGID_10_)">
		<use xlink:href="#SVGID_5_"  overflow="visible"/>
	</clipPath>
	<clipPath id="SVGID_12_" clip-path="url(#SVGID_11_)">
		<use xlink:href="#SVGID_6_"  overflow="visible"/>
	</clipPath>
	<g clip-path="url(#SVGID_12_)">
		<defs>
			<rect id="SVGID_13_" width="258.246" height="246.543"/>
		</defs>
		<clipPath id="SVGID_14_">
			<use xlink:href="#SVGID_13_"  overflow="visible"/>
		</clipPath>
	</g>
	<g clip-path="url(#SVGID_12_)">
		<defs>
			<rect id="SVGID_15_" width="258.246" height="246.543"/>
		</defs>
		<clipPath id="SVGID_16_">
			<use xlink:href="#SVGID_15_"  overflow="visible"/>
		</clipPath>
	</g>
	<g clip-path="url(#SVGID_12_)">
		<defs>
			<rect id="SVGID_17_" width="258.246" height="246.543"/>
		</defs>
		<clipPath id="SVGID_18_">
			<use xlink:href="#SVGID_17_"  overflow="visible"/>
		</clipPath>
	</g>
	<g clip-path="url(#SVGID_12_)">
		<defs>
			<rect id="SVGID_19_" width="258.246" height="246.543"/>
		</defs>
		<clipPath id="SVGID_20_">
			<use xlink:href="#SVGID_19_"  overflow="visible"/>
		</clipPath>
	</g>
	<g clip-path="url(#SVGID_12_)">
		<defs>
			<rect id="SVGID_21_" width="258.246" height="246.543"/>
		</defs>
		<clipPath id="SVGID_22_">
			<use xlink:href="#SVGID_21_"  overflow="visible"/>
		</clipPath>
	</g>
	<g clip-path="url(#SVGID_12_)">
		<defs>
			<rect id="SVGID_23_" width="258.246" height="246.543"/>
		</defs>
		<clipPath id="SVGID_24_">
			<use xlink:href="#SVGID_23_"  overflow="visible"/>
		</clipPath>
	</g>
	<g clip-path="url(#SVGID_12_)">
		<defs>
			<rect id="SVGID_25_" width="258.246" height="246.543"/>
		</defs>
		<clipPath id="SVGID_26_">
			<use xlink:href="#SVGID_25_"  overflow="visible"/>
		</clipPath>
	</g>
	<g clip-path="url(#SVGID_12_)">
		<defs>
			<rect id="SVGID_27_" width="258.246" height="246.543"/>
		</defs>
		<clipPath id="SVGID_28_">
			<use xlink:href="#SVGID_27_"  overflow="visible"/>
		</clipPath>
	</g>
	<g clip-path="url(#SVGID_12_)">
		<defs>
			<rect id="SVGID_29_" width="258.246" height="246.543"/>
		</defs>
		<clipPath id="SVGID_30_">
			<use xlink:href="#SVGID_29_"  overflow="visible"/>
		</clipPath>
	</g>
	<g clip-path="url(#SVGID_12_)">
		<defs>
			
				<rect id="SVGID_31_" x="11.414" y="-45.237" transform="matrix(-0.6933 -0.7207 0.7207 -0.6933 181.7352 233.4273)" width="258.255" height="246.553"/>
		</defs>
		<clipPath id="SVGID_32_">
			<use xlink:href="#SVGID_31_"  overflow="visible"/>
		</clipPath>
	</g>
	<g clip-path="url(#SVGID_12_)">
		<defs>
			
				<rect id="SVGID_33_" x="11.414" y="-45.237" transform="matrix(-0.6933 -0.7207 0.7207 -0.6933 181.7352 233.4273)" width="258.255" height="246.553"/>
		</defs>
		<clipPath id="SVGID_34_">
			<use xlink:href="#SVGID_33_"  overflow="visible"/>
		</clipPath>
	</g>
	<g clip-path="url(#SVGID_12_)">
		<defs>
			<rect id="SVGID_35_" width="258.246" height="246.543"/>
		</defs>
		<clipPath id="SVGID_36_">
			<use xlink:href="#SVGID_35_"  overflow="visible"/>
		</clipPath>
	</g>
	<g clip-path="url(#SVGID_12_)">
		<defs>
			<rect id="SVGID_37_" width="258.246" height="246.543"/>
		</defs>
		<clipPath id="SVGID_38_">
			<use xlink:href="#SVGID_37_"  overflow="visible"/>
		</clipPath>
	</g>
</g>
<path fill="#fe6f48" d="M75.432,202.087c-0.027-0.225-0.117-0.437-0.261-0.611L32.043,148.85c-0.338-0.414-0.912-0.549-1.401-0.332
	c-0.489,0.218-0.771,0.735-0.69,1.265l6.33,41.15c0.031,0.197,0.11,0.384,0.232,0.542l41.942,54.604
	c0.23,0.3,0.581,0.465,0.942,0.465c0.15,0,0.302-0.029,0.447-0.088c0.495-0.202,0.794-0.71,0.731-1.24L75.432,202.087z"/>
<path fill="#fe6f48" d="M201.636,4.713l1.339-1.112l-14.406-3.603l-0.224,0.078C125.527,22.016,5.624,63.555,1.448,63.739
	c-0.395,0-0.748,0.184-0.994,0.517c-3.128,4.244,14.482,61.815,18.044,73.313l0.055,0.179l10.136,10.56l0.476-0.395L202.104,75.28
	c0.297-0.125,0.488-0.417,0.484-0.738L201.87,5.237C201.869,5.035,201.772,4.857,201.636,4.713z"/>
<g>
	<polygon points="202.884,75.766 31.124,149.602 74.254,202.228 256.663,106.077 	"/>
	<path d="M74.254,203.416c-0.347,0-0.687-0.152-0.918-0.436l-43.13-52.626c-0.236-0.288-0.324-0.671-0.235-1.033
		s0.342-0.662,0.685-0.81l171.76-73.835c0.341-0.146,0.729-0.125,1.052,0.056l53.779,30.311c0.378,0.213,0.61,0.617,0.604,1.051
		c-0.006,0.435-0.249,0.831-0.633,1.034l-182.409,96.15C74.632,203.371,74.442,203.416,74.254,203.416z M33.042,150.07
		l41.516,50.656l179.626-94.684l-51.371-28.954L33.042,150.07z"/>
	<path d="M24.799,131.67l-0.865-2.211l165.86-64.932V7.631h2.373v57.707c0,0.489-0.299,0.927-0.754,1.105L24.799,131.67z"/>
	<path d="M28.749,148.416c-0.526,0-1.007-0.353-1.147-0.886L7.818,72.349c-0.157-0.597,0.17-1.215,0.752-1.421L200.873,2.871
		c0.623-0.218,1.297,0.105,1.516,0.723s-0.105,1.296-0.723,1.515L10.392,72.801l19.506,74.125c0.167,0.634-0.212,1.283-0.846,1.449
		C28.951,148.403,28.849,148.416,28.749,148.416z"/>
</g>
<path id="somethingElse" fill="#407fa2" d="M220.879,65.795c-4.53-4.707-10.894-7.749-16.211-7.749c-2.729,0-5.003,0.8-6.578,2.315
	c-0.168,0.162-0.257,0.39-0.241,0.624s0.134,0.448,0.323,0.585c0.122,0.089,12.21,9.004,12.658,15.65
	c0.096,1.417-0.361,2.591-1.396,3.587c-3.742,3.601-13.854,14.28-23.632,24.608c-9.07,9.58-17.638,18.628-20.558,21.437
	c-2.431,2.338-3.241,5.128-2.224,7.654c0.845,2.095,2.838,3.502,4.962,3.502c1.312,0,2.553-0.527,3.59-1.525
	c1.052-1.013,11.551-11.672,22.665-22.957c12.955-13.154,26.352-26.756,27.863-28.209c1.368-1.316,3.043-4.223,3.26-8.085
	C225.525,74.312,224.881,69.955,220.879,65.795z"/>
<g id="something">
	<path fill="#FFFFFF" d="M206.874,93.381c-3.367-6.098-4.522-7.242-4.92-7.318l1.878-1.807l-11.801-12.263
		c0,0-2.961-1.856-6.422,1.474c-3.459,3.328-52.566,56.858-52.566,56.858s-21.589,19.596-24.784,22.67
		c-6.864,6.604,6.236,20.221,13.1,13.617c3.929-3.779,24.372-25.963,24.372-25.963s15.824-18.852,26.321-20.571
		c10.497-1.722,11.757-2.448,8.126-7.037c2.922-2.812,6.734-7.261,6.734-7.261s7.318,7.609,9.67,10.051
		c2.35,2.442,4.385,0.482,8.861-3.826C209.922,107.699,211.964,102.597,206.874,93.381 M118.129,161.508
		c-1.164,1.121-3.036,1.068-4.178-0.121l-0.792-0.821c-1.143-1.188-1.125-3.06,0.04-4.181l5.075-4.883
		c1.165-1.121,3.035-1.066,4.179,0.121l0.791,0.824c1.143,1.188,1.125,3.059-0.042,4.182L118.129,161.508z"/>
	
		<rect x="181.261" y="109.106" transform="matrix(-0.6933 -0.7206 0.7206 -0.6933 236.0954 328.6432)" width="13.438" height="9.954"/>
	<path fill="#FFFFFF" d="M189.051,123.167c-0.208,0-0.415-0.081-0.57-0.243l-9.315-9.684c-0.303-0.315-0.293-0.816,0.021-1.119
		l7.173-6.9c0.314-0.305,0.816-0.294,1.119,0.021l9.316,9.684c0.146,0.151,0.226,0.354,0.221,0.564
		c-0.004,0.21-0.091,0.41-0.242,0.555l-7.174,6.9C189.446,123.093,189.248,123.167,189.051,123.167z M180.854,112.713l8.218,8.543
		l6.033-5.803l-8.219-8.543L180.854,112.713z"/>
	<path d="M116.115,153.411c-0.208,0-0.415-0.081-0.57-0.242c-0.303-0.315-0.293-0.816,0.021-1.119l63.256-60.863
		c0.116-0.112,0.264-0.186,0.423-0.211l8.459-1.363c0.433-0.066,0.838,0.224,0.907,0.655c0.069,0.432-0.224,0.838-0.655,0.907
		l-8.215,1.324l-63.077,60.691C116.51,153.337,116.313,153.411,116.115,153.411z"/>
	<g>
		<path fill="#407fa2" d="M117.031,169.165c-4.199,0-8.931-3.582-10.774-8.154c-1.327-3.291-0.797-6.421,1.453-8.586
			c3.167-3.047,24.585-22.489,24.801-22.686c1.955-2.136,49.112-53.535,52.55-56.842c1.899-1.827,3.692-2.211,4.862-2.211
			c1.471,0,2.425,0.572,2.529,0.637c0.055,0.034,0.104,0.075,0.149,0.122l11.801,12.263c0.146,0.151,0.225,0.354,0.221,0.564
			s-0.091,0.41-0.242,0.555l-1.223,1.177c0.761,0.84,2.046,2.716,4.409,6.995c5.741,10.397,2.426,15.731-1.575,19.578
			c-3.313,3.189-5.312,5.111-7.319,5.111l0,0c-0.944,0-1.814-0.427-2.661-1.307l-9.069-9.427c-1.094,1.252-3.565,4.04-5.707,6.162
			c1.246,1.656,1.886,2.955,1.43,4.131c-0.708,1.831-3.739,2.507-10.485,3.614c-10.091,1.652-25.687,20.112-25.843,20.298
			c-0.859,0.935-20.528,22.271-24.429,26.024C120.56,168.479,118.873,169.165,117.031,169.165z M189.923,72.269
			c-1.278,0-2.545,0.595-3.765,1.769c-3.402,3.273-52.041,56.288-52.532,56.823c-0.267,0.247-21.668,19.674-24.818,22.705
			c-2.411,2.319-1.713,5.29-1.083,6.854c1.592,3.95,5.766,7.163,9.306,7.163c1.445,0,2.717-0.518,3.779-1.54
			c3.867-3.72,24.134-25.707,24.338-25.929c0.63-0.752,16.111-19.07,26.775-20.816c4.819-0.791,8.844-1.534,9.266-2.623
			c0.251-0.649-0.812-2.104-1.633-3.142c-0.253-0.32-0.222-0.779,0.072-1.062c2.86-2.753,6.645-7.161,6.683-7.206
			c0.145-0.169,0.354-0.27,0.578-0.276c0.217-0.021,0.438,0.081,0.593,0.242l9.67,10.051c0.709,0.737,1.207,0.822,1.521,0.822
			c1.369,0,3.298-1.856,6.218-4.666c3.751-3.607,6.501-8.241,1.291-17.675c-3.24-5.867-4.249-6.8-4.461-6.944
			c-0.251-0.078-0.449-0.276-0.525-0.531c-0.084-0.284-0.003-0.59,0.21-0.795l1.308-1.258l-11.169-11.606
			C191.351,72.531,190.753,72.269,189.923,72.269z M116.117,163.107c-1.024,0-2.022-0.427-2.737-1.172l-0.791-0.819
			c-1.444-1.502-1.417-3.879,0.061-5.301l5.075-4.883c1.421-1.368,3.908-1.301,5.298,0.143l0.792,0.825
			c1.442,1.499,1.414,3.877-0.064,5.3l-5.073,4.879C117.989,162.742,117.08,163.107,116.117,163.107z M120.285,151.488
			c-0.551,0-1.07,0.208-1.462,0.585l-5.075,4.883c-0.849,0.816-0.857,2.19-0.019,3.062l0.792,0.82
			c0.813,0.848,2.236,0.893,3.059,0.101l5.073-4.879c0.85-0.817,0.859-2.191,0.021-3.062l-0.792-0.825
			C121.458,151.731,120.89,151.488,120.285,151.488z"/>
	</g>
</g>
<g id="hamme">
	<g>
		<polygon fill="#407fa2" points="102.336,208.083 87.54,208.771 82.378,93.116 96.805,92.445 		"/>
	</g>
	<path d="M87.54,209.958c-0.295,0-0.581-0.109-0.8-0.31c-0.233-0.213-0.372-0.509-0.386-0.824L81.192,93.169
		c-0.029-0.654,0.477-1.208,1.131-1.238l14.427-0.671c0.651-0.033,1.209,0.475,1.241,1.129l5.531,115.638
		c0.015,0.314-0.096,0.622-0.308,0.855s-0.508,0.372-0.823,0.387l-14.796,0.688C87.577,209.958,87.559,209.958,87.54,209.958z
		 M83.617,94.247l5.056,113.283l12.421-0.578L95.676,93.686L83.617,94.247z"/>
	<polygon fill="#FFFFFF" points="128.945,94.973 108.95,87.26 64.785,89.316 65.773,110.541 109.938,108.484 129.13,98.947 	"/>
	<g>
		<path d="M65.297,111.064L64.263,88.84l44.77-2.084l20.397,7.869l0.215,4.626l-19.683,9.733L65.297,111.064z M65.308,89.792
			l0.941,20.226l43.561-2.029l18.806-9.345l-0.154-3.322l-19.593-7.558L65.308,89.792z"/>
	</g>
</g>
<g id="wrench">
	<path fill="#407fa2" d="M162.564,171.053c-1.057,0.947-3.332,1.059-6.819-2.838c-3.488-3.895-3.125-6.146-2.069-7.092
		l14.695-13.154c-2.782-1.658-5.991-2.691-9.45-2.885c-10.028-0.553-18.783,9.377-28.812,8.824l-45.329-2.504
		c-10.028-0.555-17.638-11.389-27.665-11.941c-11.419-0.631-21.188,8.113-21.817,19.533c-0.166,2.989,0.317,5.865,1.318,8.494
		l14.729-13.188c1.058-0.943,3.333-1.059,6.821,2.84c3.49,3.895,3.126,6.143,2.07,7.09l-15.122,13.541
		c2.842,1.752,6.149,2.842,9.715,3.039c10.031,0.555,18.785-9.377,28.814-8.824l45.329,2.504
		c10.03,0.555,17.637,11.389,27.667,11.942c11.418,0.63,21.185-8.114,21.815-19.531c0.172-3.104-0.354-6.081-1.435-8.791
		L162.564,171.053z"/>
	<path d="M150.247,177.61c-0.224,0-0.449-0.063-0.649-0.194c-4.158-2.725-6.571-7.496-6.299-12.454
		c0.279-5.049,3.277-9.563,7.825-11.781c0.59-0.287,1.3-0.044,1.587,0.546c0.288,0.59,0.043,1.3-0.546,1.587
		c-3.775,1.842-6.264,5.589-6.495,9.779c-0.227,4.114,1.776,8.075,5.229,10.337c0.549,0.359,0.702,1.096,0.343,1.644
		C151.013,177.42,150.634,177.61,150.247,177.61z"/>
	<path d="M63.17,172.797c-0.433,0-0.851-0.238-1.06-0.651c-0.296-0.584-0.062-1.299,0.522-1.595c3.68-1.865,6.107-5.581,6.334-9.698
		c0.232-4.188-1.829-8.186-5.378-10.434c-0.554-0.351-0.718-1.084-0.368-1.638c0.351-0.556,1.084-0.719,1.638-0.368
		c4.275,2.708,6.757,7.524,6.478,12.57c-0.274,4.961-3.198,9.438-7.631,11.685C63.534,172.755,63.35,172.797,63.17,172.797z"/>
	<path fill="#FFFFFF" d="M157.798,186.967c-0.394,0-0.789-0.011-1.187-0.033c-5.147-0.284-9.688-3.215-14.077-6.05
		c-4.281-2.765-8.707-5.622-13.59-5.893l-45.329-2.504c-4.885-0.275-9.594,2.084-14.154,4.36c-4.675,2.334-9.514,4.757-14.661,4.464
		c-3.522-0.194-6.962-1.271-9.949-3.112c-0.134-0.083-0.222-0.225-0.236-0.382c-0.014-0.156,0.047-0.312,0.165-0.416l15.122-13.541
		c0.968-0.868,0.922-3.002-2.109-6.384c-2.384-2.664-3.997-3.224-4.93-3.224c-0.466,0-0.876,0.146-1.187,0.423L36.95,167.863
		c-0.123,0.11-0.292,0.149-0.452,0.114c-0.16-0.039-0.291-0.154-0.349-0.309c-1.062-2.788-1.516-5.716-1.35-8.699
		c0.642-11.63,10.576-20.673,22.344-20.005c5.146,0.283,9.686,3.215,14.076,6.049c4.281,2.765,8.708,5.622,13.589,5.893
		l45.329,2.504c4.893,0.272,9.595-2.084,14.155-4.36c4.673-2.333,9.514-4.75,14.656-4.464c3.457,0.193,6.714,1.188,9.679,2.954
		c0.137,0.082,0.227,0.224,0.242,0.382c0.015,0.158-0.046,0.314-0.165,0.42l-14.695,13.154c-0.968,0.868-0.923,3.002,2.108,6.386
		c2.385,2.664,3.997,3.224,4.929,3.224c0.466,0,0.875-0.146,1.185-0.424l14.455-12.94c0.122-0.109,0.288-0.155,0.448-0.114
		c0.159,0.037,0.29,0.149,0.351,0.301c1.146,2.877,1.641,5.906,1.469,9.004C178.333,178.167,169.04,186.967,157.798,186.967z
		 M82.831,171.466c0.279,0,0.559,0.008,0.84,0.023L129,173.994c5.147,0.284,9.687,3.216,14.077,6.051
		c4.281,2.764,8.708,5.622,13.59,5.892c11.197,0.615,20.677-7.979,21.289-19.06c0.149-2.711-0.235-5.367-1.146-7.905l-13.912,12.454
		c-0.495,0.444-1.136,0.68-1.852,0.68c-1.652,0-3.562-1.196-5.674-3.557c-4.433-4.949-2.675-7.22-2.03-7.797l14.18-12.693
		c-2.664-1.471-5.563-2.303-8.629-2.475c-4.872-0.278-9.595,2.084-14.154,4.36c-4.674,2.334-9.513,4.749-14.656,4.464l-45.329-2.504
		c-5.146-0.284-9.686-3.216-14.076-6.05c-4.281-2.765-8.708-5.622-13.589-5.892c-11.206-0.598-20.68,7.98-21.291,19.062
		c-0.144,2.599,0.205,5.151,1.038,7.6l14.176-12.692c0.497-0.443,1.138-0.678,1.853-0.678c1.654,0,3.563,1.196,5.675,3.557
		c4.434,4.946,2.676,7.217,2.031,7.795l-14.614,13.087c2.708,1.545,5.771,2.448,8.901,2.622c4.878,0.274,9.598-2.083,14.159-4.36
		C73.434,173.748,78.002,171.466,82.831,171.466z"/>
</g>
<path fill="#fe6f48" d="M257.395,105.143c-0.368-0.289-0.87-0.332-1.285-0.115l-182.41,96.151c-0.435,0.229-0.683,0.702-0.625,1.19
	l5.144,43.128c0.047,0.397,0.292,0.744,0.65,0.922c0.167,0.083,0.348,0.124,0.528,0.124c0.208,0,0.415-0.054,0.6-0.162
	l166.978-97.732c0.276-0.162,0.476-0.429,0.553-0.739l10.288-41.546C257.928,105.909,257.763,105.431,257.395,105.143z"/>
<g id="outline">
	<path d="M7.676,72.964c0,0-0.317-0.62-0.847-1.55c-0.531-0.929-1.265-2.158-2.08-3.321c-0.814-1.153-1.714-2.285-2.573-2.812
		c-0.214-0.121-0.423-0.203-0.612-0.212c-0.185-0.003-0.352,0.057-0.464,0.154c-0.236,0.19-0.294,0.387-0.309,0.374
		c0.02,0.009,0.014-0.188,0.21-0.468c0.094-0.141,0.277-0.285,0.528-0.35c0.252-0.061,0.54-0.029,0.83,0.043
		c1.155,0.334,2.386,1.251,3.547,2.19c1.16,0.952,2.24,1.981,3.037,2.77c0.795,0.787,1.314,1.349,1.314,1.349l0.019,0.02
		c0.599,0.65,0.558,1.661-0.091,2.261c-0.649,0.599-1.661,0.558-2.26-0.091C7.825,73.213,7.74,73.088,7.676,72.964"/>
	<path d="M258.064,105.339c-0.408-0.774-1.365-1.069-2.139-0.662l-182.41,96.15c-0.773,0.408-1.07,1.365-0.662,2.139
		c0.089,0.168,0.21,0.305,0.343,0.426l5.021,42.104c0.072,0.604,0.584,1.047,1.177,1.047c0.047,0,0.094-0.003,0.142-0.009
		c0.651-0.078,1.116-0.668,1.038-1.319l-4.996-41.896l181.823-95.842C258.175,107.069,258.472,106.112,258.064,105.339z"/>
	<g>
		<path d="M202.884,73.971L190.283,66.3c-0.562-0.342-0.74-1.075-0.398-1.636c0.344-0.562,1.075-0.74,1.639-0.398
			c0.053,0.032,0.107,0.073,0.153,0.112L202.884,73.971z"/>
	</g>
</g>
<g id="lock">
	<path id="lockTop" d="M124,24.673l-8.123-1.583c-0.065-0.012-0.134-0.008-0.199,0.012l-8.129,2.67
		c-0.162,0.054-0.272,0.205-0.272,0.376v4.155c0,0.183,0.125,0.341,0.302,0.384l8.129,1.979c0.031,0.007,0.062,0.011,0.094,0.011
		c0.043,0,0.085-0.007,0.126-0.021l8.123-2.737c0.161-0.054,0.269-0.205,0.269-0.375v-4.483
		C124.319,24.872,124.185,24.709,124,24.673z"/>
	<path id="lockB" d="M169.083,157.28l0.137,15.694l0.267,0.09c0.036,0.012,0.903,0.299,2.354,0.299c0.001,0,0.001,0,0.001,0
		c1.8,0,4.632-0.447,7.906-2.575c4.074-2.649,5.374-20.529,5.428-21.289l0.05-0.708L169.083,157.28z"/>
	<path id="lockBottomW" fill="#FFFFFF" d="M177.095,160.965c-2.34,0-5.067-0.799-8.158-2.394c-0.583-0.301-0.812-1.017-0.511-1.599
		c0.301-0.584,1.019-0.812,1.599-0.511c4.448,2.294,7.856,2.739,10.13,1.326c3.509-2.182,3.441-8.233,3.44-8.294
		c-0.012-0.655,0.509-1.196,1.163-1.209c0.008-0.001,0.016-0.001,0.024-0.001c0.644,0,1.172,0.515,1.186,1.162
		c0.007,0.303,0.102,7.45-4.551,10.353C180.171,160.577,178.727,160.965,177.095,160.965z"/>
</g>
</svg>
