<?xml version="1.0" encoding="utf-8"?>
<!-- Generator: Adobe Illustrator 16.0.0, SVG Export Plug-In . SVG Version: 6.00 Build 0)  -->
<!DOCTYPE svg PUBLIC "-//W3C//DTD SVG 1.1//EN" "http://www.w3.org/Graphics/SVG/1.1/DTD/svg11.dtd">
<svg version="1.1" id="Layer_1" xmlns="http://www.w3.org/2000/svg" xmlns:xlink="http://www.w3.org/1999/xlink" x="0px" y="0px"
	 width="348.864px" height="164.566px" viewBox="0 0 348.864 164.566" enable-background="new 0 0 348.864 164.566"
	 xml:space="preserve">
<path fill="#387CA0" d="M272.243,139.34c-0.369,0.368-0.914,0.732-4.502,2.518c-29.408,14.646-68.506,22.709-110.093,22.709
	c-41.593,0-80.692-8.063-110.099-22.709c-29.408-14.643-45.605-34.11-45.605-54.819V75.802c0,20.708,16.197,40.177,45.605,54.82
	c29.407,14.644,68.506,22.709,110.099,22.709c41.587,0,80.685-8.065,110.093-22.709l4.502,2.508V139.34z"/>
<rect x="160.534" y="63.215" fill="#387CA0" width="150.339" height="2.001"/>
<rect x="160.534" y="63.215" fill="none" stroke="#387CA0" stroke-width="1.943" stroke-linejoin="round" stroke-miterlimit="10" width="150.339" height="2.001"/>
<path fill="#FFFFFF" d="M269.002,130.858c-1.307,0.7-4.008,2.07-4.008,2.07c-28.672,14.277-66.797,22.14-107.348,22.14
	c-40.556,0-78.674-7.861-107.348-22.14c-1.365-0.68-2.702-1.371-4.009-2.072C20.158,116.839,5.833,98.706,5.833,79.475
	c0-5.63,1.227-11.166,3.619-16.532C15.64,49.062,29.621,36.317,50.3,26.019c8.692-4.327,18.251-8.064,28.483-11.175
	c23.523-7.145,50.602-10.963,78.865-10.963c28.259,0,55.338,3.818,78.862,10.963c10.232,3.109,19.793,6.847,28.484,11.175
	c20.68,10.297,34.656,23.042,40.846,36.923H157.645L269.002,130.858z"/>
<path fill="none" stroke="#387CA0" stroke-width="1.943" stroke-linejoin="round" stroke-miterlimit="10" d="M269.002,130.858
	c-1.307,0.7-4.008,2.07-4.008,2.07c-28.672,14.277-66.797,22.14-107.348,22.14c-40.556,0-78.674-7.861-107.348-22.14
	c-1.365-0.68-2.702-1.371-4.009-2.072C20.158,116.839,5.833,98.706,5.833,79.475c0-5.63,1.227-11.166,3.619-16.532
	C15.64,49.062,29.621,36.317,50.3,26.019c8.692-4.327,18.251-8.064,28.483-11.175c23.523-7.145,50.602-10.963,78.865-10.963
	c28.259,0,55.338,3.818,78.862,10.963c10.232,3.109,19.793,6.847,28.484,11.175c20.68,10.297,34.656,23.042,40.846,36.923H157.645
	L269.002,130.858z"/>
<polygon points="238.991,13.332 157.9,62.469 157.647,1.944 157.395,62.412 76.301,13.332 157.073,62.97 45.952,130.303 
	46.627,131.409 157.39,63.42 157,157.004 158.295,157.004 157.903,63.106 "/>
<path fill="#387CA0" d="M267.741,24.652c-8.783-4.374-18.431-8.159-28.75-11.319c-24.234-7.421-52.178-11.389-81.344-11.389
	c-29.17,0-57.113,3.967-81.346,11.389c-10.321,3.16-19.969,6.945-28.752,11.319C26.13,35.317,11.719,48.542,5.47,62.942
	c-2.331,5.371-3.527,10.907-3.527,16.533c0,19.814,14.827,38.493,41.866,52.896c1.222,0.649,2.468,1.293,3.74,1.926
	c29.407,14.645,68.506,22.709,110.098,22.709c41.588,0,80.686-8.064,110.094-22.709c1.271-0.633,2.52-1.275,3.74-1.926l-2.479-1.513
	c-1.307,0.7-4.008,2.07-4.008,2.07c-28.672,14.277-66.797,22.14-107.348,22.14c-40.555,0-78.674-7.861-107.347-22.14
	c-1.366-0.68-2.703-1.371-4.01-2.072C20.158,116.839,5.833,98.706,5.833,79.475c0-5.63,1.227-11.166,3.619-16.532
	C15.639,49.062,29.62,36.317,50.3,26.019c8.691-4.327,18.25-8.064,28.482-11.175c23.523-7.145,50.603-10.963,78.865-10.963
	c28.258,0,55.338,3.818,78.861,10.963c10.234,3.109,19.795,6.847,28.486,11.175c20.68,10.297,34.656,23.042,40.844,36.923
	l3.982,0.005C303.575,48.545,289.163,35.319,267.741,24.652"/>
<path fill="none" stroke="#387CA0" stroke-width="3.887" stroke-linejoin="round" stroke-miterlimit="10" d="M267.741,24.652
	c-8.783-4.374-18.431-8.159-28.75-11.319c-24.234-7.421-52.178-11.389-81.344-11.389c-29.17,0-57.113,3.967-81.346,11.389
	c-10.321,3.16-19.969,6.945-28.752,11.319C26.13,35.317,11.719,48.542,5.47,62.942c-2.331,5.371-3.527,10.907-3.527,16.533
	c0,19.814,14.827,38.493,41.866,52.896c1.222,0.649,2.468,1.293,3.74,1.926c29.407,14.645,68.506,22.709,110.098,22.709
	c41.588,0,80.686-8.064,110.094-22.709c1.271-0.633,2.52-1.275,3.74-1.926l-2.479-1.513c-1.307,0.7-4.008,2.07-4.008,2.07
	c-28.672,14.277-66.797,22.14-107.348,22.14c-40.555,0-78.674-7.861-107.347-22.14c-1.366-0.68-2.703-1.371-4.01-2.072
	C20.158,116.839,5.833,98.706,5.833,79.475c0-5.63,1.227-11.166,3.619-16.532C15.639,49.062,29.62,36.317,50.3,26.019
	c8.691-4.327,18.25-8.064,28.482-11.175c23.523-7.145,50.603-10.963,78.865-10.963c28.258,0,55.338,3.818,78.861,10.963
	c10.234,3.109,19.795,6.847,28.486,11.175c20.68,10.297,34.656,23.042,40.844,36.923l3.982,0.005
	C303.575,48.545,289.163,35.319,267.741,24.652z"/>
<path d="M0.107,79.475c0,0,0.012,0.296,0.036,0.868c0.009,0.573,0.069,1.422,0.185,2.522c0.122,1.101,0.335,2.45,0.674,4.019
	c0.374,1.559,0.867,3.336,1.584,5.269c1.456,3.854,3.825,8.319,7.345,12.853c3.504,4.541,8.118,9.137,13.634,13.542
	c5.518,4.407,11.974,8.576,19.106,12.407c1.765,0.965,3.638,1.88,5.465,2.797c1.892,0.875,3.802,1.788,5.745,2.66
	c1.955,0.819,3.932,1.649,5.927,2.487c2.027,0.773,4.059,1.592,6.134,2.349c16.612,6.047,35.131,10.203,53.852,12.485
	c9.36,1.175,18.778,1.896,28.062,2.195c9.277,0.301,18.45,0.193,27.271-0.268c8.836-0.465,17.361-1.253,25.399-2.356
	c8.037-1.104,15.601-2.435,22.509-3.999c1.732-0.359,3.407-0.812,5.057-1.199c1.65-0.391,3.257-0.795,4.812-1.229
	c1.557-0.421,3.076-0.831,4.553-1.229c1.463-0.442,2.885-0.874,4.262-1.292c2.771-0.794,5.293-1.741,7.664-2.516
	c2.352-0.826,4.48-1.668,6.42-2.386c3.828-1.565,6.845-2.789,8.845-3.748c2.019-0.92,3.095-1.41,3.095-1.41s-1.062,0.522-3.05,1.506
	c-1.976,1.015-4.94,2.358-8.745,4.005c-1.927,0.763-4.041,1.655-6.379,2.539c-2.355,0.83-4.867,1.841-7.625,2.701
	c-5.462,1.892-11.751,3.636-18.66,5.327c-6.916,1.669-14.494,3.112-22.556,4.338c-2.019,0.278-4.06,0.617-6.138,0.856
	c-2.076,0.246-4.18,0.495-6.305,0.747c-2.133,0.192-4.287,0.389-6.463,0.585c-2.179,0.189-4.382,0.293-6.602,0.444
	c-8.896,0.507-18.073,0.656-27.421,0.397c-9.338-0.263-18.819-0.931-28.245-2.086c-18.836-2.387-37.466-6.657-54.191-12.833
	c-2.088-0.773-4.135-1.607-6.176-2.397c-2.027-0.832-4.007-1.736-5.978-2.59c-1.94-0.904-3.829-1.842-5.712-2.742
	c-1.888-0.979-3.708-1.902-5.498-2.912c-7.142-3.965-13.599-8.263-19.115-12.794c-5.529-4.512-10.085-9.282-13.522-13.954
	c-3.455-4.666-5.747-9.232-7.126-13.152c-1.368-3.938-1.839-7.194-2.011-9.405c-0.082-1.109-0.117-1.958-0.109-2.531
	C0.11,79.771,0.107,79.475,0.107,79.475"/>
<polygon fill="#387CA0" points="305.055,144.752 191.219,73.542 191.219,71.268 305.055,140.696 "/>
<path fill="#FFFFFF" d="M192.02,70.742l147.393,0.525c0,0,5.564,6.596,5.564,18.479c0,25.961-39.122,50.424-39.122,50.424
	L192.02,70.742z"/>
<g>
	<path d="M305.855,141.142c-0.175,0-0.351-0.048-0.506-0.143L191.514,71.572c-0.372-0.227-0.548-0.674-0.429-1.094
		c0.118-0.418,0.5-0.708,0.935-0.708c0.001,0,0.002,0,0.004,0l147.393,0.525c0.284,0.001,0.555,0.127,0.738,0.345
		c0.237,0.28,5.794,7.006,5.794,19.105c0,11.042-6.683,23.036-19.861,35.649c-9.739,9.321-19.619,15.536-19.718,15.599
		C306.212,141.092,306.034,141.142,305.855,141.142z M195.5,71.726l110.342,67.297c4.534-2.961,38.164-25.73,38.164-49.277
		c0-9.874-3.999-16.033-5.074-17.509L195.5,71.726z"/>
</g>
<path fill="#387CA0" d="M302.577,139.184c26.133-14.018,40.455-32.151,40.455-51.383c0-5.631-1.229-11.167-3.619-16.533l3.982,0.003
	c2.33,5.371,3.523,10.904,3.523,16.53c0,19.813-14.826,38.49-41.865,52.896L302.577,139.184z"/>
<path fill="none" stroke="#387CA0" stroke-width="3.887" stroke-linejoin="round" stroke-miterlimit="10" d="M302.577,139.184
	c26.133-14.018,40.455-32.151,40.455-51.383c0-5.631-1.229-11.167-3.619-16.533l3.982,0.003c2.33,5.371,3.523,10.904,3.523,16.53
	c0,19.813-14.826,38.49-41.865,52.896L302.577,139.184z"/>
<path d="M302.577,137.299c0,0,1.154-0.633,3.148-1.785c1.994-1.147,4.814-2.849,8.091-5.045c3.261-2.218,6.989-4.93,10.663-8.202
	c3.674-3.265,7.316-7.077,10.289-11.371c2.982-4.277,5.232-9.048,6.391-13.761c0.588-2.354,0.916-4.68,1.033-6.894
	c0.043-0.554,0.047-1.101,0.051-1.639c0.004-0.264,0.008-0.522,0.01-0.78c-0.01-0.271-0.02-0.539-0.029-0.805
	c-0.021-1.077-0.118-2.068-0.213-3.018c-0.23-1.911-0.551-3.661-0.952-5.177c-0.19-0.762-0.382-1.471-0.601-2.114
	c-0.201-0.648-0.388-1.243-0.597-1.768c-0.378-1.062-0.724-1.878-0.97-2.429c-0.239-0.555-0.367-0.851-0.367-0.851l-0.018-0.043
	c-0.215-0.493,0.016-1.064,0.508-1.276c0.494-0.212,1.062,0.016,1.275,0.509c0.002,0.005,0.006,0.015,0.01,0.02
	c0,0,0.127,0.312,0.361,0.896c0.244,0.581,0.584,1.44,0.955,2.559c0.205,0.551,0.385,1.178,0.581,1.859
	c0.212,0.678,0.396,1.423,0.577,2.223c0.385,1.595,0.676,3.421,0.872,5.436c0.077,1.02,0.153,2.077,0.149,3.131
	c0.004,0.267,0.008,0.534,0.012,0.805c-0.01,0.283-0.02,0.568-0.028,0.855c-0.017,0.56-0.034,1.129-0.092,1.703
	c-0.175,2.301-0.573,4.71-1.239,7.134c-1.312,4.854-3.746,9.701-6.886,13.987c-3.13,4.305-6.905,8.07-10.679,11.272
	c-3.776,3.211-7.582,5.845-10.9,7.99c-3.335,2.126-6.193,3.762-8.219,4.862C303.745,136.696,302.577,137.299,302.577,137.299"/>
<path fill="#387CA0" d="M346.228,80.419c1.845,8.079,8.663,42.636-41.173,64.333v-4.059
	C305.055,140.696,344.977,124.127,346.228,80.419"/>
<g>
	<path fill="#FE6F48" d="M49.173,68.6c0,4.699-7.559,8.508-16.883,8.508c-9.326,0-16.884-3.809-16.884-8.508
		s7.558-8.508,16.884-8.508C41.614,60.092,49.173,63.901,49.173,68.6"/>
	<path fill="#FE6F48" d="M71.847,103.307c0,4.699-7.559,8.508-16.883,8.508c-9.326,0-16.884-3.809-16.884-8.508
		c0-4.698,7.558-8.508,16.884-8.508C64.288,94.799,71.847,98.609,71.847,103.307"/>
	<path fill="#FE6F48" d="M133.856,132.597c0,4.699-7.559,8.509-16.884,8.509c-9.325,0-16.884-3.81-16.884-8.509
		c0-4.698,7.559-8.508,16.884-8.508C126.297,124.089,133.856,127.899,133.856,132.597"/>
	<path fill="#FE6F48" d="M231.375,29.526c0,4.699-7.559,8.509-16.883,8.509c-9.326,0-16.884-3.81-16.884-8.509
		c0-4.698,7.558-8.508,16.884-8.508C223.817,21.018,231.375,24.827,231.375,29.526"/>
	<path fill="#FE6F48" d="M200.446,101.28c0,4.697-7.559,8.508-16.884,8.508c-9.325,0-16.884-3.811-16.884-8.508
		c0-4.699,7.56-8.509,16.884-8.509C192.887,92.771,200.446,96.58,200.446,101.28"/>
	<path fill="#FE6F48" d="M83.548,40.438c0,3.979-6.398,7.203-14.292,7.203c-7.894,0-14.292-3.224-14.292-7.203
		c0-3.977,6.398-7.2,14.292-7.2S83.548,36.461,83.548,40.438"/>
	<path fill="#FE6F48" d="M168.958,113.997c0,4.699-7.559,8.509-16.884,8.509c-9.325,0-16.884-3.81-16.884-8.509
		c0-4.698,7.559-8.508,16.884-8.508C161.399,105.49,168.958,109.298,168.958,113.997"/>
	<path fill="#FE6F48" d="M126.262,103.307c0,5.823-9.367,10.544-20.923,10.544c-11.556,0-20.923-4.721-20.923-10.544
		c0-5.822,9.367-10.543,20.923-10.543C116.895,92.764,126.262,97.485,126.262,103.307"/>
	<path fill="#FE6F48" d="M169.153,82.099c0,3.979-6.398,7.203-14.292,7.203c-7.895,0-14.293-3.225-14.293-7.203
		c0-3.977,6.398-7.201,14.293-7.201C162.755,74.898,169.153,78.122,169.153,82.099"/>
	<path fill="#FE6F48" d="M93.118,82.099c0,3.979-6.398,7.203-14.292,7.203c-7.894,0-14.293-3.225-14.293-7.203
		c0-3.977,6.399-7.201,14.293-7.201C86.72,74.898,93.118,78.122,93.118,82.099"/>
	<path fill="#FE6F48" d="M264.29,40.438c0,3.979-6.397,7.203-14.291,7.203c-7.896,0-14.293-3.224-14.293-7.203
		c0-3.977,6.396-7.2,14.293-7.2C257.892,33.238,264.29,36.461,264.29,40.438"/>
	<path fill="#FE6F48" d="M136.711,21.018c0,3.979-6.398,7.202-14.292,7.202s-14.293-3.224-14.293-7.202
		c0-3.978,6.399-7.202,14.293-7.202S136.711,17.04,136.711,21.018"/>
	<path fill="#FE6F48" d="M154.861,47.64c0,3.401-5.471,6.159-12.221,6.159s-12.221-2.758-12.221-6.159
		c0-3.4,5.471-6.158,12.221-6.158S154.861,44.24,154.861,47.64"/>
	<path fill="#FE6F48" d="M172.755,135.43c0,3.401-5.471,6.158-12.221,6.158s-12.221-2.757-12.221-6.158
		c0-3.399,5.471-6.158,12.221-6.158S172.755,132.031,172.755,135.43"/>
	<path fill="#FE6F48" d="M117.561,35.684c0,3.401-5.471,6.158-12.221,6.158c-6.751,0-12.221-2.757-12.221-6.158
		c0-3.4,5.47-6.158,12.221-6.158C112.09,29.526,117.561,32.283,117.561,35.684"/>
	<path fill="#FE6F48" d="M117.561,60.092c0,3.401-5.471,6.158-12.221,6.158c-6.751,0-12.221-2.757-12.221-6.158
		s5.47-6.158,12.221-6.158C112.09,53.934,117.561,56.691,117.561,60.092"/>
	<path fill="#FE6F48" d="M214.493,51.02c0,3.402-5.472,6.159-12.222,6.159s-12.222-2.757-12.222-6.159
		c0-3.399,5.472-6.156,12.222-6.156S214.493,47.62,214.493,51.02"/>
	<path fill="#FE6F48" d="M161.509,18.085c0,2.626-4.224,4.754-9.435,4.754s-9.434-2.128-9.434-4.754s4.223-4.754,9.434-4.754
		S161.509,15.459,161.509,18.085"/>
	<path fill="#FE6F48" d="M192.997,18.085c0,2.626-4.224,4.754-9.435,4.754s-9.435-2.128-9.435-4.754s4.224-4.754,9.435-4.754
		S192.997,15.459,192.997,18.085"/>
	<path fill="#FE6F48" d="M126.995,74.898c0,2.626-4.224,4.754-9.435,4.754c-5.21,0-9.434-2.128-9.434-4.754s4.224-4.754,9.434-4.754
		C122.771,70.144,126.995,72.272,126.995,74.898"/>
	<path fill="#FE6F48" d="M171.745,33.238c0,3.4-5.471,6.157-12.221,6.157s-12.221-2.757-12.221-6.157
		c0-3.401,5.471-6.158,12.221-6.158S171.745,29.836,171.745,33.238"/>
	<path fill="#FE6F48" d="M235.417,128.04c0,5.824-9.367,10.545-20.924,10.545s-20.924-4.721-20.924-10.545
		c0-5.822,9.367-10.543,20.924-10.543S235.417,122.217,235.417,128.04"/>
	<path fill="#FE6F48" d="M279.114,79.454c0,5.822-9.369,10.544-20.925,10.544s-20.923-4.723-20.923-10.544
		c0-5.823,9.367-10.544,20.923-10.544S279.114,73.631,279.114,79.454"/>
	<path fill="#FE6F48" d="M321.938,110.191c0,4.699-7.559,8.51-16.885,8.51c-9.323,0-16.883-3.811-16.883-8.51
		c0-4.696,7.56-8.508,16.883-8.508C314.379,101.683,321.938,105.494,321.938,110.191"/>
	<path fill="#FE6F48" d="M320.282,90.512c0,3.401-5.473,6.159-12.223,6.159s-12.221-2.758-12.221-6.159
		c0-3.399,5.471-6.157,12.221-6.157S320.282,87.113,320.282,90.512"/>
	<path fill="#FE6F48" d="M282.98,110.191c0,2.627-4.224,4.756-9.435,4.756s-9.436-2.129-9.436-4.756
		c0-2.625,4.225-4.754,9.436-4.754S282.98,107.566,282.98,110.191"/>
</g>
</svg>
