<?xml version="1.0" encoding="utf-8"?>
<!-- Generator: Adobe Illustrator 16.0.0, SVG Export Plug-In . SVG Version: 6.00 Build 0)  -->
<!DOCTYPE svg PUBLIC "-//W3C//DTD SVG 1.1//EN" "http://www.w3.org/Graphics/SVG/1.1/DTD/svg11.dtd">
<svg version="1.1" id="Layer_1" xmlns="http://www.w3.org/2000/svg" xmlns:xlink="http://www.w3.org/1999/xlink" x="0px" y="0px"
	 width="63.074px" height="211.083px" viewBox="0 0 63.074 211.083" enable-background="new 0 0 63.074 211.083"
	 xml:space="preserve">
<path fill="#407fa2" d="M60.677,121.787l0.026-0.171l-0.776-1.386c1.118-18.927-1.631-34.386-3.142-38.918
	c-0.286-0.858-0.095-1.058,0.195-1.36c0.229-0.238,0.542-0.565,0.528-1.141c-0.132-5.091-2.531-12.172-5.309-20.372
	c-3.824-11.287-8.573-25.304-9.472-40.124c0.554-0.063,1.178-0.265,1.617-0.857c1.041-1.407,0.681-4.724-1.259-11.319
	c0.218,0.078,0.449,0.122,0.688,0.122c0.273,0,0.539-0.054,0.793-0.163c0.212-0.092,0.685-0.399,0.503-1.277
	C44.75,3.268,42.262,0,40.841,0h-19.81c-1.632,0-3.62,3.697-3.856,5.092c-0.136,0.797,0.226,1.05,0.459,1.131
	c0.235,0.079,0.493,0.153,0.784,0.218c0.089,0.022,0.179,0.022,0.268,0.032c-1.85,6.368-2.182,9.603-1.158,10.985
	c0.438,0.592,1.06,0.792,1.613,0.856c-0.894,14.82-5.643,28.838-9.467,40.126c-2.777,8.197-5.176,15.277-5.306,20.364
	c-0.019,0.581,0.251,0.987,0.491,1.346c0.258,0.388,0.462,0.694,0.382,1.245c-0.057,0.39-0.209,1.189-0.422,2.308
	c-1.352,7.114-4.932,25.944-2.893,36.556l-0.755,1.354l0.026,0.171C1.23,122,4.559,143.462,5.764,153.994
	c1.177,10.301,0.411,19.989-2.103,26.581c-2.751,7.225-3.191,16.415-1.239,25.88l0.03,0.147l0.106,0.105
	c3.229,3.229,17.306,4.374,28.38,4.374s25.151-1.146,28.379-4.374l0.106-0.105l0.03-0.147c1.947-9.475,1.506-18.666-1.245-25.88
	c-2.514-6.606-3.279-16.295-2.1-26.581C57.309,143.463,60.644,122.001,60.677,121.787z"/>
<g>
	<path d="M61.574,120.043h-7.211c-0.117-0.036-0.237-0.062-0.365-0.069c-0.179-0.009-0.351,0.02-0.513,0.069H8.991
		c-0.182-0.057-0.378-0.081-0.58-0.062c-0.108,0.01-0.211,0.031-0.311,0.062H1.5c-0.829,0-1.5,0.672-1.5,1.5s0.671,1.5,1.5,1.5h5.68
		c0.042,0.461,0.091,1.017,0.151,1.676c0.089,0.99,0.196,2.191,0.321,3.57c0.133,1.379,0.337,2.942,0.53,4.643
		c0.812,6.771,1.894,15.8,2.976,24.828c0.261,2.253,0.523,4.506,0.78,6.723l0.096,0.83l0.047,0.395l0.029,0.414
		c0.039,0.551,0.077,1.101,0.115,1.646c0.03,0.543,0.006,1.064,0.013,1.594c0.012,0.526-0.012,1.053-0.057,1.575
		c-0.232,4.196-1.379,8.019-2.415,11.247c-0.519,1.619-1.014,3.102-1.385,4.439c-0.391,1.332-0.627,2.522-0.775,3.506
		c-0.121,0.99-0.181,1.771-0.146,2.304c0.013,0.532,0.02,0.815,0.02,0.815s0.005-0.283,0.014-0.815
		c-0.014-0.531,0.079-1.308,0.24-2.282c0.187-0.971,0.469-2.139,0.913-3.445c0.421-1.312,0.976-2.769,1.562-4.369
		c1.169-3.187,2.498-7.008,2.918-11.319c0.147-1.065,0.144-2.192,0.18-3.302c-0.016-0.547-0.032-1.098-0.047-1.65l-0.012-0.416
		l-0.032-0.438l-0.062-0.834c-0.166-2.229-0.335-4.494-0.503-6.76c-0.707-9.035-1.413-18.07-1.943-24.846
		c-0.122-1.688-0.259-3.229-0.336-4.604c-0.067-1.383-0.125-2.584-0.173-3.576c-0.029-0.601-0.054-1.112-0.075-1.549h13.441
		c0.083,3.974,0.406,19.567,0.73,35.17c0.094,4.518,0.187,9.037,0.275,13.272c0.044,2.089-0.028,4.158-0.035,6.093
		c-0.013,1.943-0.206,3.758-0.288,5.447c-0.111,1.691-0.213,3.242-0.304,4.616c-0.121,1.373-0.08,2.58-0.111,3.567
		c-0.03,1.977-0.046,3.106-0.046,3.106s0.063-1.128,0.175-3.103c0.072-0.986,0.081-2.186,0.259-3.551
		c0.147-1.369,0.313-2.912,0.494-4.599c0.152-1.69,0.423-3.526,0.516-5.465c0.088-1.946,0.244-3.97,0.29-6.115
		c0.088-4.235,0.181-8.754,0.275-13.272c0.324-15.602,0.647-31.191,0.73-35.168h9.419c0.083,3.98,0.406,19.567,0.729,35.166
		c0.094,4.518,0.187,9.037,0.275,13.272c0.047,2.147,0.202,4.169,0.291,6.114c0.092,1.941,0.364,3.777,0.516,5.466
		c0.183,1.687,0.349,3.229,0.496,4.599c0.178,1.365,0.188,2.565,0.258,3.551c0.113,1.975,0.177,3.103,0.177,3.103
		s-0.017-1.129-0.047-3.106c-0.031-0.988,0.01-2.195-0.112-3.567c-0.09-1.374-0.191-2.925-0.304-4.616
		c-0.082-1.689-0.274-3.504-0.288-5.447c-0.008-1.935-0.08-4.004-0.036-6.093c0.087-4.235,0.181-8.754,0.274-13.272
		c0.324-15.602,0.647-31.191,0.729-35.168h13.44c-0.021,0.437-0.047,0.947-0.076,1.547c-0.051,0.99-0.111,2.193-0.18,3.574
		c-0.103,1.371-0.217,2.916-0.342,4.604c-0.527,6.779-1.229,15.812-1.932,24.85c-0.166,2.264-0.334,4.53-0.498,6.76l-0.062,0.834
		l-0.031,0.437l-0.014,0.416c-0.016,0.552-0.031,1.103-0.047,1.651c0.035,1.109,0.035,2.236,0.18,3.301
		c0.42,4.311,1.748,8.132,2.918,11.32c0.586,1.599,1.141,3.056,1.562,4.367c0.443,1.307,0.725,2.475,0.912,3.446
		c0.16,0.974,0.253,1.751,0.24,2.282c0.008,0.531,0.013,0.814,0.013,0.814s0.007-0.283,0.021-0.814
		c0.037-0.532-0.024-1.314-0.146-2.303c-0.147-0.985-0.382-2.176-0.774-3.506c-0.369-1.338-0.864-2.822-1.385-4.44
		c-1.035-3.228-2.182-7.05-2.412-11.247c-0.047-0.523-0.07-1.049-0.058-1.575c0.007-0.53-0.017-1.051,0.013-1.594
		c0.039-0.545,0.076-1.095,0.115-1.647l0.029-0.414l0.046-0.394l0.097-0.83c0.256-2.218,0.516-4.472,0.776-6.724
		c1.077-9.027,2.155-18.057,2.963-24.827c0.196-1.702,0.377-3.261,0.537-4.644c0.126-1.379,0.235-2.58,0.325-3.568
		c0.06-0.659,0.11-1.215,0.152-1.676h6.287c0.828,0,1.5-0.672,1.5-1.5S62.402,120.043,61.574,120.043z"/>
	<path d="M3.224,84.129H58.65c0.828,0,1.5-0.671,1.5-1.5s-0.672-1.5-1.5-1.5h-6.42c0.057-0.147,0.097-0.303,0.104-0.47
		c0,0,0.029-0.636,0.076-1.746c0.049-0.533-0.01-1.288-0.039-2.111c-0.021-0.411-0.029-0.86-0.07-1.31
		c-0.051-0.444-0.102-0.911-0.158-1.397c-0.092-0.979-0.268-2.017-0.457-3.113c-0.164-1.101-0.438-2.236-0.68-3.418
		c-0.248-1.18-0.571-2.379-0.865-3.605c-0.34-1.214-0.658-2.453-1.027-3.677c-0.72-2.451-1.498-4.88-2.277-7.139
		c-0.769-2.26-1.535-4.352-2.207-6.138c-1.348-3.571-2.32-5.919-2.32-5.919s0.797,2.415,1.877,6.067
		c0.537,1.827,1.143,3.964,1.742,6.265c0.605,2.298,1.199,4.761,1.732,7.233c0.274,1.235,0.498,2.478,0.744,3.694
		c0.197,1.225,0.43,2.424,0.588,3.59c0.147,1.167,0.332,2.291,0.41,3.36c0.105,1.068,0.2,2.076,0.217,3.001
		c0.02,0.463,0.037,0.906,0.055,1.328c0.006,0.416-0.018,0.792-0.023,1.153c-0.029,0.726-0.006,1.322-0.1,1.896
		c-0.131,1.103-0.205,1.734-0.205,1.734l-0.002,0.016c-0.004,0.035-0.008,0.07-0.008,0.106c-0.01,0.211,0.026,0.414,0.098,0.6
		H38.179c0.012-0.044,0.027-0.086,0.035-0.132c0,0,0.1-0.603,0.269-1.659c0.087-0.525,0.194-1.163,0.271-1.935
		c0.084-0.764,0.215-1.616,0.207-2.573c0.014-0.474,0.024-0.969,0.037-1.479c-0.002-0.508-0.055-1.024-0.082-1.558
		c-0.033-0.532-0.066-1.079-0.102-1.638c-0.045-0.554-0.127-1.109-0.191-1.679c-0.145-1.135-0.254-2.32-0.441-3.497
		c-0.18-1.182-0.359-2.381-0.539-3.581c-0.357-2.399-0.777-4.782-1.139-7.023c-0.375-2.236-0.727-4.324-1.026-6.113
		c-0.608-3.578-1.015-5.963-1.015-5.963s0.221,2.409,0.547,6.022c0.16,1.808,0.35,3.916,0.551,6.174
		c0.186,2.259,0.42,4.667,0.588,7.074c0.087,1.203,0.174,2.406,0.26,3.589c0.096,1.185,0.11,2.342,0.168,3.464
		c0.02,0.56,0.059,1.113,0.061,1.648c-0.008,0.532-0.018,1.051-0.025,1.557c-0.014,0.505,0,1-0.035,1.468
		c-0.048,0.464-0.095,0.913-0.14,1.343c-0.058,0.859-0.242,1.644-0.372,2.337c-0.122,0.687-0.275,1.308-0.4,1.818
		c-0.246,1.019-0.387,1.601-0.387,1.601l-0.004,0.016c-0.008,0.036-0.016,0.074-0.021,0.112c-0.034,0.209-0.021,0.414,0.027,0.607
		h-8.404c0.104-0.272,0.129-0.578,0.056-0.882l-0.004-0.015c0,0-0.139-0.581-0.384-1.599c-0.127-0.511-0.276-1.129-0.396-1.817
		c-0.133-0.694-0.308-1.478-0.364-2.338c-0.044-0.431-0.09-0.879-0.138-1.344c-0.028-0.471-0.02-0.965-0.032-1.47
		c-0.009-0.507-0.016-1.027-0.025-1.558c0.004-0.536,0.04-1.089,0.059-1.649c0.056-1.122,0.07-2.279,0.165-3.464
		c0.084-1.184,0.17-2.386,0.255-3.59c0.166-2.407,0.4-4.815,0.584-7.074c0.2-2.258,0.388-4.366,0.549-6.174
		c0.328-3.613,0.547-6.022,0.547-6.022s-0.406,2.385-1.012,5.963c-0.3,1.789-0.651,3.877-1.026,6.114
		c-0.359,2.241-0.778,4.624-1.132,7.024c-0.18,1.2-0.359,2.4-0.536,3.581c-0.187,1.178-0.295,2.362-0.44,3.497
		c-0.063,0.57-0.143,1.126-0.19,1.679c-0.035,0.559-0.069,1.104-0.102,1.637c-0.029,0.533-0.076,1.049-0.085,1.556
		c0.012,0.51,0.023,1.004,0.034,1.478c-0.007,0.955,0.113,1.81,0.198,2.573c0.076,0.773,0.18,1.415,0.267,1.939
		c0.169,1.057,0.266,1.661,0.266,1.661c0.006,0.037,0.013,0.077,0.021,0.114c0.015,0.063,0.041,0.121,0.063,0.18H12.4
		c0.073-0.199,0.109-0.415,0.091-0.64l-0.004-0.046c0,0-0.052-0.629-0.142-1.729c0.013-0.497,0.029-1.1,0.047-1.792
		c0.063-0.746,0.134-1.588,0.211-2.507c0.118-0.929,0.246-1.935,0.382-2.998c0.169-1.066,0.349-2.19,0.534-3.353
		c0.406-2.325,0.872-4.803,1.385-7.277c1.019-4.948,2.168-9.878,3.065-13.566c0.898-3.688,1.554-6.135,1.554-6.135
		s-0.835,2.391-2.005,6.007c-1.17,3.616-2.683,8.454-4.072,13.338c-0.698,2.44-1.353,4.897-1.936,7.213
		c-0.274,1.165-0.542,2.29-0.794,3.357c-0.22,1.082-0.427,2.104-0.619,3.048c-0.154,0.964-0.308,1.83-0.42,2.634
		c-0.077,0.847-0.145,1.586-0.201,2.194c0.009,1.111,0.013,1.746,0.013,1.746c0,0.035,0.002,0.075,0.005,0.111
		c0.011,0.14,0.047,0.27,0.094,0.395H3.224c-0.829,0-1.5,0.671-1.5,1.5S2.396,84.129,3.224,84.129z"/>
</g>
</svg>
