<?xml version="1.0" encoding="utf-8"?>
<!-- Generator: Adobe Illustrator 16.0.0, SVG Export Plug-In . SVG Version: 6.00 Build 0)  -->
<!DOCTYPE svg PUBLIC "-//W3C//DTD SVG 1.1//EN" "http://www.w3.org/Graphics/SVG/1.1/DTD/svg11.dtd">
<svg version="1.1" id="Layer_1" xmlns="http://www.w3.org/2000/svg" xmlns:xlink="http://www.w3.org/1999/xlink" x="0px" y="0px"
	 width="116.615px" height="128.201px" viewBox="0 0 116.615 128.201" enable-background="new 0 0 116.615 128.201"
	 xml:space="preserve">
<path fill="#387CA0" d="M116.546,27.507c-0.035-1.767-0.076-3.807-0.102-6.187c-0.126-11.543-5.162-15.439-19.96-15.439
	c-0.329,0-0.662,0.002-1.002,0.005l-1,0.011l0.08,7.701l1.001-0.011c1.228-0.013,2.314-0.023,3.274-0.023
	c6.192,0,6.368,0,6.404,3.007c-1.215,2.298-2.825,9.538-2.779,13.725c0.002,0.152,0.525,14.236,4.885,16.109
	c-0.017,3.867-0.032,9.82-0.032,18.776c0,15.778,0,30.826-0.755,36.846c-0.917-5.456-0.917-19.527-0.917-33.203
	c0-7.492-1.134-11.804-3.79-14.419c-2.392-2.354-5.341-2.685-7.967-2.705V5.202C93.887,2.333,91.558,0,88.694,0H14.128
	c-2.863,0-5.193,2.333-5.193,5.202v107.859H0.5c-0.276,0-0.5,0.224-0.5,0.5v14.141c0,0.276,0.224,0.5,0.5,0.5h101.812
	c0.276,0,0.5-0.224,0.5-0.5v-14.141c0-0.276-0.224-0.5-0.5-0.5h-8.425V60.695c0.744,0.002,1.438,0.027,1.651,0.122
	c0.045,0.047,1.105,1.24,1.105,8.008c0,19.207,0.125,28.123,0.898,33.616c0.428,3.037,1.43,10.148,9.25,10.148
	c6.616,0,8.103-4.696,8.723-9.772c0.689-5.636,0.801-15.711,0.801-37.635c0-19.831,0.077-25.046,0.077-25.097l-1.081-0.017
	C116.743,37.463,116.688,34.632,116.546,27.507z M111.838,38.276c-0.501,0.512-1.331,0.823-2.272,0.831
	c-1.426,0-2.64-0.794-2.65-1.732l-0.146-13.925c-0.006-0.418,0.229-0.749,0.429-0.953c0.502-0.515,1.335-0.828,2.233-0.837
	l0.061-0.994c0.001,0,0.001,0,0.001,0v0.994c0.618,0,1.213,0.156,1.689,0.432l-3.847,8.602l0.058,5.488l4.808-5.395l0.07,6.529
	C112.275,37.739,112.038,38.072,111.838,38.276z"/>
<rect x="23.127" y="10.024" fill="#FFFFFF" width="56.558" height="35.193"/>
<g>
	<path d="M79.685,47.717H23.127c-1.381,0-2.5-1.119-2.5-2.5V10.024c0-1.381,1.119-2.5,2.5-2.5h56.558c1.381,0,2.5,1.119,2.5,2.5
		v35.193C82.185,46.598,81.065,47.717,79.685,47.717z M25.627,42.717h51.558V12.524H25.627V42.717z"/>
</g>
<g>
	<path d="M93.387,115.562H9.435c-1.104,0-2-0.896-2-2s0.896-2,2-2h83.952c1.104,0,2,0.896,2,2S94.491,115.562,93.387,115.562z"/>
</g>
</svg>
