<?xml version="1.0" encoding="utf-8"?>
<!-- Generator: Adobe Illustrator 16.0.0, SVG Export Plug-In . SVG Version: 6.00 Build 0)  -->
<!DOCTYPE svg PUBLIC "-//W3C//DTD SVG 1.1//EN" "http://www.w3.org/Graphics/SVG/1.1/DTD/svg11.dtd">
<svg version="1.1" id="Layer_1" xmlns="http://www.w3.org/2000/svg" xmlns:xlink="http://www.w3.org/1999/xlink" x="0px" y="0px"
	 width="128.016px" height="268.26px" viewBox="0 0 128.016 268.26" enable-background="new 0 0 128.016 268.26"
	 xml:space="preserve">
<g>
	<polygon fill="#407fa2" points="125.89,52.621 103.453,13.873 103.453,1 23.722,1 23.673,13.873 3.732,52.627 3.732,246.342 
		42.004,265.231 42.004,265.242 125.895,255.791 125.895,52.621 	"/>
</g>
<path d="M125.836,50.947l-82.942-0.005L26.029,15.193h77.365c0.828,0,1.5-0.671,1.5-1.5s-0.672-1.5-1.5-1.5H23.663
	c-0.514,0-0.992,0.263-1.267,0.697c-0.275,0.434-0.309,0.979-0.089,1.443l6.501,13.781L2.676,51.326
	c-0.466,0.414-0.627,1.072-0.406,1.654c0.222,0.583,0.78,0.967,1.402,0.967l36.773-0.005v211.289c0,0.828,0.671,1.5,1.5,1.5
	s1.5-0.672,1.5-1.5V53.942l82.391,0.005c0.828,0,1.5-0.671,1.5-1.5C127.336,51.619,126.664,50.947,125.836,50.947z M30.141,30.941
	l9.436,20.001L7.62,50.947L30.141,30.941z"/>
<path d="M67.8,214.272c-0.101,0.494-0.264,1.191-0.141,1.733c0.013-0.185,0.04-0.392,0.073-0.61
	C67.795,214.979,67.811,214.604,67.8,214.272"/>
<g id="cowB">
	<path d="M61.162,208.658c0.753-0.414,1.528-0.685,2.255-1.146c1.053-0.682,0.407-2.064,0.319-2.938
		c-0.095-0.914,0.425-0.982,1.212-0.922c0.104,0.004,0.205,0.051,0.232,0.164c-0.163-0.679,0.803-0.92,1.1-0.301
		c0.16-0.093,0.324-0.109,0.573-0.125c0.492-0.033,0.209-0.939,0.344-1.183c0.221-0.399,0.744-0.401,0.948-0.899
		c0.309-0.771,0.997-1.513,0.69-2.382c-0.069-0.202,0.104-0.401,0.205-0.539c0.351-0.469,0.33-0.79,0.588-1.307
		c0.18-0.342,0.451-0.658,0.725-0.912c0.224-0.215,0.406-0.483,0.574-0.75c-0.342-0.078-0.555-0.139-0.555-0.139
		c0.519-0.982,1.314-2.626-2.926-2.998c0.765-1.169,0.395-2.873-0.025-3.177c-0.179,0.002-0.635,2.261-2.624,2.531
		c-0.244-0.926-3.001-1.658-5.296-1.58c-2.324,0.068-4.745,0.717-4.745,1.098c-0.453,0.191-2.18-0.79-2.943-2.559
		c0,0-1.045,3.254,2.175,4.49c-1.47-0.234-3.921-0.719-4.364,0.572c-0.441,1.305,0.528,4.646,3.942,4.631
		c0.087,0.945,0.089,2.824-0.518,3.361c-0.605,0.535-2.097,2.846-0.596,4.592c1.478,0.781,2.863,1.91,4.659,1.204
		c0.936,0.798,1.699,1.521,2.54,1.38c0.405,0.344,1.935,2.215,3.36,4.18c0.01-0.355,0.195-0.597-0.283-0.997
		c-0.247-0.198-0.49-0.405-0.719-0.627c-0.393-0.362-0.737-0.729-1.058-1.168C60.497,209.599,60.399,209.078,61.162,208.658z"/>
	<path d="M77.285,226.695c0.349-2.179-1.244-3.068-1.799-4.824c-0.396-1.263-1.302-1.646-2.487-1.761
		c-0.649-0.065-1.495,0.142-2.111-0.01c-1.002-0.25-1.28-0.985-1.229-2.03c0.053-1.138-0.89-2.957-1.969-3.173
		c-0.341-0.075-0.311-0.465-0.349-0.739c-0.127-0.867-1.62-0.308-2.115-0.197c-0.415,0.101-1.114,0.106-1.615-0.11
		c1.002,1.442,1.851,2.825,2.05,3.562c0.503,1.891,1.195,2.037,2.538,3.541c1.332,1.492,1.373,1.363,1.945,3.221
		c0.572,1.854,0.136,5.668,0.863,7.176c0.73,1.492,0.07,6.965-0.563,7.654c-0.631,0.695-1.73,3.932-1.73,3.932l0.728-0.121
		c0,0,0.331,0.795,1.211,0.564c0.875-0.234,1.576-1.361,1.841-2.797c0.819-0.598,0.819-0.678,0.793-2.855
		c-0.022-2.172,0.825-3.131,0.651-4.771c-0.174-1.644,0.848-1.031,1.271-4.308c0.425-3.27,1.216-4.219,1.216-4.219
		s0.742,0.703,0.829,2.479C77.267,226.832,77.277,226.769,77.285,226.695z"/>
	<path d="M121.791,227.715c-0.104-0.543-1.208-1.643-1.056-2.198c0.148-0.556,0.136-2.308-0.236-3.318
		c-0.378-1.019-0.024-2.014-0.447-3.188c-0.426-1.17-1.308-1.768-1.623-4.813c-0.312-3.045-0.486-8.461-0.544-10.191
		c-0.041-1.33-0.511-4.912-1.953-7.109c-0.081,0.129-0.233,0.232-0.482,0.308c-0.508,0.147-0.29,0.746-0.688,0.83
		c-0.347,0.075-0.665-0.474-0.938-0.646c-0.146-0.096-0.366,0.63-0.455,0.701c-0.146,0.121-0.424,0.108-0.51,0.283
		c-0.109,0.229-0.262,0.321-0.426,0.353c0.461,0.596,0.709,1.25,0.468,2.219c-0.283,1.13-1.732,1.483-2.57,1.471
		c-0.236-0.007-0.47-0.062-0.702-0.1c-0.49-0.078-0.179-0.049-0.332,0.444c-0.206,0.647-0.503,1.123-0.939,1.58
		c-0.713,0.736-1.495,1.115-2.379,1.274c0.109,0.125,0.213,0.244,0.24,0.421c0.062,0.321,0.062,0.594,0.056,0.928
		c-0.023,0.918-0.171,1.922-0.391,2.808c-0.476,1.912-2.427,2.092-3.173,3.643c-0.091,0.186-0.234,0.57-0.442,0.627
		c-0.375,0.09-0.906,0.045-1.171,0.396c-0.387,0.508-0.314,1.278-0.73,1.764c-0.453,0.523-1.024,0.77-1.654,0.834
		c-0.468,0.051-1.195,0.254-1.638,0.025c-0.57-0.291-0.423-1.154-0.946-1.39c-0.157-0.074-1.793-0.306-1.629,0.326
		c0.092,0.358,0.082,0.666,0.062,1.043c-0.087,1.557-1.12,2.101-2.337,2.088c-0.218,0-0.482-0.004-0.614-0.219
		c-0.178-0.265-0.393-0.121-0.722-0.089c-0.927,0.089-2.142-0.163-2.895,0.604c-0.875,0.904-2.02,0.117-2.569-0.715
		c-0.626,0.312-1.429,0.312-1.383-0.674c0.026-0.615,0.483-1.056-0.122-1.447c-0.27-0.17-0.562-0.514-0.661-0.853
		c-0.235-0.854-0.217-1.635-0.65-2.422c-0.215-0.381-0.225-0.729-0.168-1.146c0.037-0.267,0.214-0.437,0.365-0.615
		c0.562-0.645,0.098-0.877-0.041-1.305c-0.202-0.627-0.421-1.229-0.504-1.883c-0.078-0.615-0.065-1.232-0.196-1.83
		c-0.031-0.171-0.169-0.546-0.169-0.738c-0.005-0.326,0.021-0.637,0.092-0.957c0.198-0.834-0.447-1.375-0.872-1.883
		c-0.97-1.156,0.327-1.847,0.067-3.229c-0.174-0.918-0.574-1.754-0.944-2.588c-0.123-0.274-0.117-0.839-0.036-1.113
		c0.036-0.115,0.077-0.271,0.132-0.418c-0.927-0.023-1.664,0.012-2.316,0.08c0.091,0.494,0.054,0.932-0.094,1.375
		c0.21,0.629,0.396,1.264,0.335,1.938c-0.097,1.065-0.528,2.062-0.324,3.135c0.16,0.845,0.097,2.257,0.523,2.974
		c0.267,0.447,1.082,0.949,0.925,1.613c-0.232,0.977-0.78,1.791-0.896,2.838c-0.085,0.727,0.217,2.34-0.192,2.989
		c-0.799,1.271-0.939,2.365-0.645,3.806c0.105,0.494-0.012,1.293,0.35,1.643c0.305,0.307,0.688,0.467,1.013,0.73
		c0.478,0.386,0.769,0.787,0.915,1.424c0.185,0.776-0.061,1.326,0.453,2.043c0.194,0.274,0.09,1.32,0.145,1.643
		c0.094,0.555,0.021,1.135-0.072,1.699c-0.168,1.023-0.04,1.787,0.058,2.76c0.053,0.531,0.003,0.965-0.263,1.453
		c-0.271,0.49-0.571,2.09-1.417,1.951c-0.802-0.128-0.819-1.586-1.348-2.012c-0.191-0.158-0.299-0.385-0.356-0.646
		c-0.209,2.67,0.594,2.357,0.822,3.609c0.246,1.365,1.355,4.899-0.288,7.307c-1.659,2.438-1.114,2.93-1.114,2.93l0.92-0.158
		l0.009,0.332c0,0,2.895,0.168,3.15-2.844c0.733-1.104,0.366-3.229,0.352-4.399c-0.019-1.16-0.278-2.654,0.016-3.854
		c0.3-1.197,0.242-5.086,0.233-5.691c-0.011-0.604,0.452-3.377,0.452-3.377s3.696-1.95,4.551-2.518
		c0.973,0.256,7.553,1.486,10.228,0.611c2.627-0.85,6.043-3.297,6.47-3.619c0.048,0.049,0.403,2.594,2.033,2.754
		c0.104,0.326,0.048,2.297,0.491,2.352c0.712,0.086,0.766-1.539,0.842-2.157c0.436,0.336,1.278,0.469,1.797,0.573
		c-0.032,0.5-0.172,2.183,0.345,2.34c0.52,0.16,0.689-2.014,0.689-2.014c0.417,0.004,0.839,3.594,0.573,5.787
		c-0.26,2.201-1.046,5.887-2.348,8.172c-1.319,2.307-0.425,1.814-0.425,1.814s1.853,0.424,2.624-0.328
		c0.159-1.084,0.098-1.004,0.511-1.584c0.406-0.576,1.212-1.43,1.156-3.418c-0.06-1.984,0.991-5.219,1.14-6.334
		c0.151-1.113,1.604-3.793,1.604-3.793s2.37,1.98,2.546,4.771c0.175,2.791-0.141,5.446-0.115,6.1
		c-0.161,0.734-1.794,4.35-1.794,4.35s0.858,0.84,2.246,0.047c1.376-0.774,1.105-2.524,1.105-2.524
		c0.519-0.199,1.143-1.163,0.963-1.349c-0.184-0.188-0.197-7.031-0.197-7.031l0.604,2.115l0.232-0.834l0.479,1.482L120,227.704
		c0,0,0.622,0.82,1.188,0.842l-0.62-1.215C120.561,227.328,121.497,227.808,121.791,227.715z"/>
</g>
<g id="cowW">
	<path fill="#FFFFFF" d="M114.357,195.374c-2.746-1.42-11.156,0.92-13.453,0.873c-2.328-0.047-8.466,0.676-14.407-0.088
		c-2.803-0.359-4.721-0.527-6.171-0.557c-0.055,0.147-0.096,0.303-0.132,0.418c-0.078,0.276-0.084,0.84,0.039,1.114
		c0.37,0.834,0.771,1.67,0.943,2.589c0.26,1.385-1.036,2.073-0.066,3.229c0.425,0.508,1.07,1.049,0.872,1.883
		c-0.071,0.32-0.098,0.631-0.092,0.957c0,0.192,0.138,0.567,0.168,0.738c0.132,0.598,0.118,1.215,0.197,1.831
		c0.083,0.652,0.302,1.255,0.504,1.882c0.139,0.428,0.603,0.661,0.041,1.305c-0.15,0.181-0.328,0.351-0.366,0.615
		c-0.056,0.418-0.047,0.766,0.168,1.146c0.436,0.787,0.415,1.566,0.651,2.422c0.098,0.34,0.393,0.683,0.661,0.853
		c0.605,0.394,0.148,0.832,0.122,1.447c-0.046,0.985,0.757,0.985,1.383,0.674c0.55,0.832,1.694,1.619,2.569,0.715
		c0.753-0.767,1.968-0.515,2.895-0.604c0.329-0.032,0.543-0.176,0.722,0.09c0.132,0.214,0.396,0.218,0.613,0.218
		c1.217,0.012,2.25-0.531,2.338-2.088c0.021-0.377,0.029-0.685-0.062-1.043c-0.164-0.632,1.472-0.4,1.629-0.326
		c0.523,0.233,0.376,1.099,0.946,1.389c0.44,0.229,1.17,0.025,1.638-0.023c0.63-0.065,1.201-0.312,1.654-0.834
		c0.416-0.485,0.345-1.257,0.73-1.765c0.265-0.353,0.795-0.308,1.17-0.396c0.208-0.057,0.354-0.441,0.443-0.627
		c0.746-1.551,2.697-1.73,3.173-3.643c0.22-0.886,0.366-1.89,0.39-2.808c0.008-0.334,0.008-0.604-0.055-0.928
		c-0.028-0.177-0.131-0.296-0.24-0.421c0.884-0.159,1.665-0.538,2.378-1.274c0.438-0.457,0.734-0.933,0.94-1.58
		c0.153-0.494-0.158-0.522,0.332-0.444c0.232,0.037,0.466,0.092,0.702,0.1c0.838,0.014,2.287-0.342,2.57-1.471
		c0.24-0.97-0.008-1.623-0.469-2.22c0.165-0.028,0.316-0.12,0.427-0.352c0.086-0.175,0.363-0.162,0.51-0.283
		c0.089-0.072,0.309-0.797,0.455-0.701c0.273,0.175,0.593,0.724,0.938,0.646c0.398-0.084,0.182-0.683,0.688-0.83
		c0.249-0.074,0.401-0.179,0.481-0.308C115.497,196.239,114.978,195.696,114.357,195.374z"/>
	<path fill="#FFFFFF" d="M80.518,223.834c-0.055-0.322,0.051-1.366-0.145-1.644c-0.514-0.717-0.271-1.265-0.453-2.043
		c-0.146-0.637-0.438-1.039-0.915-1.424c-0.324-0.264-0.708-0.423-1.014-0.729c-0.358-0.351-0.243-1.148-0.349-1.644
		c-0.296-1.438-0.154-2.535,0.645-3.804c0.409-0.651,0.107-2.265,0.192-2.991c0.115-1.046,0.662-1.86,0.896-2.838
		c0.157-0.664-0.658-1.166-0.926-1.613c-0.427-0.717-0.362-2.129-0.522-2.972c-0.204-1.073,0.229-2.069,0.324-3.136
		c0.062-0.676-0.125-1.311-0.335-1.939c0.146-0.442,0.184-0.881,0.094-1.375c-0.564,0.062-1.064,0.146-1.585,0.248
		c-1.614,0.314-4.323-0.242-5.498-0.514c-0.168,0.266-0.352,0.535-0.574,0.75c-0.272,0.254-0.545,0.57-0.725,0.912
		c-0.259,0.516-0.237,0.838-0.589,1.307c-0.102,0.137-0.273,0.336-0.204,0.54c0.307,0.868-0.384,1.61-0.69,2.38
		c-0.203,0.498-0.729,0.5-0.948,0.9c-0.135,0.242,0.148,1.148-0.344,1.182c-0.249,0.017-0.412,0.034-0.572,0.125
		c-0.298-0.619-1.264-0.377-1.101,0.301c-0.026-0.112-0.128-0.159-0.232-0.164c-0.787-0.06-1.308,0.009-1.212,0.923
		c0.088,0.872,0.732,2.258-0.319,2.938c-0.728,0.463-1.502,0.732-2.256,1.146c-0.763,0.42-0.664,0.938-0.209,1.555
		c0.321,0.438,0.665,0.805,1.058,1.169c0.229,0.22,0.473,0.427,0.719,0.627c0.478,0.399,0.293,0.642,0.284,0.998
		c0.203,0.278,0.404,0.558,0.597,0.843c0.501,0.219,1.199,0.211,1.614,0.111c0.495-0.111,1.987-0.67,2.115,0.197
		c0.038,0.272,0.007,0.664,0.349,0.74c1.079,0.215,2.021,2.032,1.969,3.172c-0.051,1.045,0.229,1.781,1.23,2.031
		c0.615,0.149,1.461-0.058,2.11,0.01c1.187,0.113,2.091,0.498,2.487,1.76c0.555,1.756,2.147,2.645,1.798,4.822
		c-0.007,0.072-0.02,0.137-0.032,0.215c0.025,0.4,0.008,0.859-0.056,1.373c-0.037,0.274-0.062,0.527-0.076,0.758
		c0.059,0.263,0.164,0.488,0.355,0.646c0.531,0.426,0.549,1.883,1.351,2.013c0.846,0.139,1.146-1.462,1.417-1.951
		c0.266-0.487,0.314-0.922,0.263-1.453c-0.099-0.974-0.226-1.735-0.058-2.76C80.538,224.969,80.612,224.388,80.518,223.834z"/>
</g>
<path fill="#FFFFFF" d="M98.819,30.756c-1.302-3.535-4.036-6.957-7.896-9.434c-3.564-2.291-7.467-3.359-11.008-3.281l-4.669-3.139
	l-5.088,8.006c-3.749,5.834-0.523,14.58,7.194,19.539c7.723,4.963,17.021,4.252,20.767-1.582l4.595-7.488L98.819,30.756z"/>
<path fill="#407fa2" d="M84.025,36.95L84.025,36.95c-0.097-0.045-0.192-0.095-0.288-0.142c-0.731-0.361-1.456-0.752-2.166-1.208
	c-0.341-0.219-0.661-0.453-0.984-0.686l-0.001,0.002c-0.016-0.012-0.03-0.023-0.046-0.035c-0.964-0.699-1.851-1.455-2.647-2.259
	l-0.003,0.004c-0.018-0.018-0.032-0.036-0.05-0.054c-0.176-0.178-0.338-0.361-0.505-0.544c-0.081-0.09-0.169-0.178-0.249-0.269
	l0.004-0.006c-1.328-1.505-2.366-3.136-3.087-4.81l-0.006,0.01c-0.043-0.101-0.076-0.201-0.117-0.302
	c-1.314-3.229-1.45-6.581-0.144-9.417c-0.081,0.111-0.189,0.195-0.263,0.312c-0.729,1.134-1.187,2.38-1.407,3.686l-3.325,5.463
	c-0.061,0.385-0.105,0.773-0.124,1.167l3.312-5.442c-0.05,0.881,0.008,1.782,0.162,2.689l-3.299,5.418
	c0.08,0.464,0.189,0.928,0.321,1.393l3.294-5.411c0.18,0.643,0.415,1.284,0.689,1.921l-3.291,5.406
	c0.232,0.535,0.491,1.067,0.788,1.591l3.287-5.401c0.296,0.524,0.614,1.043,0.972,1.551l-3.283,5.393
	c0.402,0.569,0.854,1.12,1.332,1.66l3.281-5.39c0.259,0.294,0.521,0.585,0.802,0.869l-3.279,5.387
	c0.587,0.59,1.222,1.152,1.899,1.688l3.277-5.384c0.26,0.206,0.525,0.406,0.797,0.602l-3.277,5.381
	c0.312,0.225,0.622,0.452,0.951,0.664c0.524,0.337,1.057,0.643,1.593,0.927l3.275-5.377c0.297,0.159,0.598,0.298,0.897,0.441
	l-3.274,5.377c0.778,0.368,1.562,0.685,2.351,0.946l3.271-5.372c0.372,0.125,0.745,0.246,1.117,0.347l-3.271,5.373
	c0.698,0.188,1.393,0.32,2.084,0.425l3.268-5.367c0.607,0.094,1.209,0.155,1.805,0.185l-3.266,5.364
	c0.595,0.029,1.183,0.032,1.758-0.002l3.263-5.359c0.688-0.039,1.359-0.123,2.011-0.25l-3.256,5.349
	c0.475-0.095,0.937-0.215,1.387-0.357l3.252-5.342c0.873-0.271,1.694-0.631,2.453-1.077l-3.202,5.261l0.029,0.018
	c0.323-0.196,0.635-0.407,0.933-0.636l3.223-5.293c0.926-0.694,1.736-1.529,2.375-2.524c0.209-0.321,0.383-0.659,0.548-1
	C98.453,39.297,90.934,40.232,84.025,36.95z"/>
<path fill="#FFFFFF" d="M102.335,34.018c-3.744,5.832-13.042,6.543-20.764,1.582c-7.722-4.957-10.942-13.705-7.193-19.543
	c3.746-5.832,13.042-6.543,20.765-1.582C102.859,19.434,106.081,28.186,102.335,34.018"/>
<path fill="#407fa2" d="M96.879,33.688c-0.025-0.057-0.089-0.087-0.149-0.068c-0.947,0.285-1.971,0.429-3.042,0.429
	c-2.567,0-5.29-0.843-7.669-2.375c-2.7-1.735-4.728-4.158-5.709-6.824c-0.977-2.653-0.798-5.228,0.502-7.251
	c0.512-0.801,1.234-1.491,2.211-2.109c0.053-0.033,0.072-0.101,0.046-0.157c-0.025-0.057-0.084-0.088-0.149-0.068
	c-1.913,0.572-3.433,1.667-4.394,3.168c-1.343,2.092-1.529,4.747-0.526,7.474c1,2.716,3.062,5.182,5.808,6.942
	c2.413,1.552,5.174,2.407,7.774,2.407c1.979,0,3.796-0.487,5.252-1.41C96.885,33.812,96.905,33.745,96.879,33.688z"/>
</svg>
