<?xml version="1.0" encoding="utf-8"?>
<!-- Generator: Adobe Illustrator 16.0.0, SVG Export Plug-In . SVG Version: 6.00 Build 0)  -->
<!DOCTYPE svg PUBLIC "-//W3C//DTD SVG 1.1//EN" "http://www.w3.org/Graphics/SVG/1.1/DTD/svg11.dtd">
<svg version="1.1" xmlns="http://www.w3.org/2000/svg" xmlns:xlink="http://www.w3.org/1999/xlink" x="0px" y="0px" width="1000px"
	 height="600px" viewBox="0 0 1000 600" enable-background="new 0 0 1000 600" xml:space="preserve">
<g id="inflght">
	<path id="path8955" fill="#FFFFFF" d="M987.029,122.601c-87.742,101.978-239.401,6.914-327.148,108.886
		c6.638-42.259,13.283-84.515,19.927-126.772c58.582-63.62,152.183-6.546,210.773-70.156
		C922.729,63.905,954.876,93.257,987.029,122.601"/>
	<path fill="#407FA2" d="M989.052,120.385c-20.896-19.071-41.79-38.145-62.684-57.219l-33.765-30.824
		c-1.221-1.114-3.109-1.031-4.229,0.183c-28.454,30.892-64.813,32.455-103.307,34.109c-38.021,1.634-77.335,3.324-107.467,36.047
		c-0.401,0.436-0.664,0.981-0.757,1.566l-4.068,25.877c-5.288,33.631-10.575,67.263-15.858,100.896
		c-0.208,1.324,0.488,2.625,1.705,3.188c0.404,0.187,0.833,0.277,1.258,0.277c0.854,0,1.691-0.365,2.275-1.043
		c19.531-22.698,43.125-36.914,74.253-44.739c27.61-6.941,57.87-7.815,87.133-8.66c8.294-0.239,16.628-0.48,24.949-0.858
		c3.866-0.068,7.738-0.15,11.592-0.265l3.314-0.1l-0.227-0.474c46.303-3.273,91.307-13.313,126.134-53.791
		C990.361,123.328,990.25,121.479,989.052,120.385z M823.368,174.047c-41.405,1.195-83.79,2.42-120.816,20.574
		c1.137-23.367,2.27-46.736,3.402-70.103l1.087-22.413c7.232-3.815,12.242-5.453,21.229-7.676
		c-0.322-5.701-0.482-8.554-0.804-14.255c-8.343,2.063-13.021,3.588-19.705,7.101l0.014-0.286
		c23.319-12.02,49.883-13.171,77.551-14.36c5.726-0.246,11.48-0.494,17.229-0.849c1.617-0.04,3.234-0.078,4.856-0.126
		c13.688,28.666,27.384,57.33,41.078,85.992l7.245,15.162C844.932,173.422,834.083,173.738,823.368,174.047z M664.383,222.162
		c4.771-30.368,9.545-60.736,14.32-91.104l3.926-24.973c6.513-6.949,13.438-12.369,20.701-16.639l-1.691,34.862
		c-1.174,24.195-2.346,48.391-3.524,72.586C686.203,203.257,674.885,211.482,664.383,222.162z M975.295,130.66
		c-29.665-29.215-59.32-58.438-88.979-87.659c1.489-1.354,2.967-2.754,4.417-4.242l31.59,28.838
		c20.169,18.413,40.34,36.827,60.512,55.237C980.389,125.571,977.876,128.176,975.295,130.66z"/>
	<path id="path8975" fill="#407FA2" d="M685.545,115.895c0.304-2.407,0.456-3.611,0.76-6.02c-0.448,0.444-0.675,0.667-1.118,1.123
		c-0.315,2.419-0.476,3.629-0.79,6.047C684.853,116.579,685.084,116.35,685.545,115.895"/>
	<path id="path8979" fill="#407FA2" d="M691.3,109.76c-0.052,0.491-0.078,0.738-0.131,1.229c1.977-1.684,3.335-4.658,3.714-8.506
		c-0.495,0.371-0.742,0.559-1.232,0.942C693.353,106.385,692.557,108.711,691.3,109.76"/>
	<path id="path8983" fill="#407FA2" d="M688.8,107.512c0.476-0.433,0.713-0.646,1.193-1.066c0.366-3.196,1.294-5.543,2.325-6.402
		c0.051-0.492,0.073-0.736,0.125-1.229C690.706,100.304,689.263,103.585,688.8,107.512"/>
	<path id="path8987" fill="#407FA2" d="M700.999,98.315c-0.201,2.897-0.973,5.11-2.295,5.979c-0.004,0.002-0.008,0.001-0.01,0.004
		c-1.164,0.762-1.789-0.41-1.54-3.41c0.001-0.02,0.009-0.036,0.01-0.054c-0.505,0.351-0.758,0.529-1.258,0.891
		c-0.001,0.011-0.001,0.024-0.002,0.035c-0.313,3.824,0.747,5.029,2.636,3.786c0.021-0.014,0.042-0.031,0.064-0.045
		c2.074-1.383,3.43-4.192,3.686-7.968C701.771,97.842,701.515,97.998,700.999,98.315"/>
	<path id="path8991" fill="#407FA2" d="M890.122,106.114c-1.926-2.555-2.894-3.834-4.819-6.389c4.006-1.617,5.973-2.526,9.818-4.588
		c-0.821-1.009-1.231-1.514-2.054-2.522c-2.411,1.295-3.638,1.894-6.113,3.006c-2.99-1.177-4.473-1.792-7.42-3.063
		c-0.821-1.091-1.234-1.638-2.056-2.729c-0.435,0.174-0.657,0.259-1.092,0.426c0.259-0.79,0.047-1.812-0.681-2.779
		c-1.221-1.623-3.372-2.466-4.822-1.932c-1.452,0.534-1.682,2.257-0.502,3.894c0.702,0.975,1.755,1.69,2.813,1.995
		c-0.441,0.155-0.661,0.229-1.104,0.377c0.796,1.103,1.194,1.655,1.989,2.757c-0.19,2.428-0.31,3.633-0.59,6.024
		c-20.942,6.043-42.509,6.48-64.126,6.726c-2.565-1.958-3.832-2.94-6.324-4.904c-0.438-1.141-0.656-1.713-1.094-2.856
		c-0.496-0.001-0.745,0-1.241-0.001c0.54-0.557,0.688-1.446,0.299-2.458c-0.65-1.693-2.508-3.072-4.15-3.08
		c-1.644-0.006-2.489,1.361-1.888,3.057c0.36,1.011,1.172,1.902,2.123,2.465c-0.498-0.002-0.748-0.002-1.246-0.005
		c0.406,1.143,0.608,1.711,1.016,2.854c-1.049,1.96-1.594,2.941-2.717,4.902c-2.879-0.011-4.314-0.016-7.188-0.011
		c0.33,1.076,0.493,1.615,0.823,2.691c4.579-0.007,6.874,0.007,11.463,0.029c0.941,2.652,1.411,3.98,2.353,6.634
		c0.342,0.001,0.514,0.001,0.856,0.002c0.003,0.01,0.003,0.015,0.007,0.025c0.554,0.002,0.833,0.005,1.388,0.006
		c5.406,14.844,10.808,29.69,16.21,44.535c-3.281-0.004-4.917-0.009-8.197-0.011c0.002,0.007,0.006,0.012,0.008,0.021
		c-0.08,0-0.124-0.001-0.205-0.001c1.56,4.658,2.341,6.988,3.899,11.646c10.106,0.032,15.175,0.103,25.25,0.047
		c-0.004-0.009-0.009-0.014-0.013-0.022c0.084-0.001,0.131,0,0.214-0.001c-0.233-0.558-0.35-0.835-0.585-1.393
		c4.929-0.028,7.389-0.055,12.286-0.17c0.009-0.009,0.015-0.014,0.021-0.022c0.07-0.001,0.107-0.001,0.178-0.002
		c3.945-4.957,5.777-7.47,9.149-12.614c3.392-0.2,5.077-0.32,8.436-0.61c3.428-0.297,5.133-0.469,8.52-0.876
		c8.5,4.094,12.85,6.051,21.691,9.679c4.703-0.9,7.025-1.42,11.618-2.629c0.373,0.552,0.56,0.829,0.935,1.382
		c9.228-2.432,13.732-3.948,22.423-7.888c-0.007-0.008-0.007-0.014-0.012-0.021c0.071-0.032,0.107-0.05,0.181-0.083
		c-3.44-4.42-5.164-6.627-8.604-11.047c-2.897,1.308-4.364,1.911-7.33,3.031c-10.587-14.242-21.174-28.486-31.759-42.731
		C888.946,106.584,889.339,106.43,890.122,106.114"/>
	<path fill="#FFFFFF" d="M936.874,156.835l-8.604-11.047c-0.367-0.472-1.008-0.631-1.557-0.385
		c-2.535,1.144-3.941,1.736-6.341,2.653l-30.16-40.58c0.122-0.049,0.252-0.102,0.396-0.159c0.374-0.15,0.656-0.467,0.764-0.855
		c0.108-0.388,0.029-0.805-0.214-1.127l-3.806-5.045c3.131-1.298,5.104-2.251,8.382-4.009c0.342-0.183,0.583-0.509,0.659-0.888
		s-0.021-0.773-0.266-1.073l-2.055-2.523c-0.391-0.48-1.07-0.616-1.618-0.323c-2.181,1.171-3.356,1.756-5.534,2.741
		c-2.477-0.979-3.914-1.573-6.557-2.711l-1.849-2.454c-0.213-0.282-0.523-0.458-0.856-0.504c-0.162-0.626-0.47-1.255-0.916-1.848
		c-1.192-1.585-3.117-2.609-4.903-2.609c-0.499,0-0.971,0.081-1.402,0.24c-0.971,0.356-1.666,1.079-1.958,2.035
		c-0.362,1.183-0.052,2.581,0.852,3.833c0.405,0.562,0.907,1.063,1.472,1.476c-0.034,0.315,0.049,0.636,0.238,0.898l1.71,2.371
		c-0.144,1.8-0.251,2.919-0.448,4.642c-21.05,5.918-43.035,6.212-62.506,6.435c-2.232-1.706-3.482-2.675-5.673-4.4l-0.966-2.522
		c-0.12-0.314-0.354-0.562-0.645-0.703c0.03-0.561-0.068-1.158-0.299-1.758c-0.838-2.183-3.19-3.901-5.371-3.912
		c-1.158,0-2.169,0.491-2.773,1.347c-0.654,0.926-0.772,2.18-0.325,3.442c0.198,0.554,0.499,1.087,0.883,1.574
		c-0.104,0.282-0.108,0.595-0.006,0.885l0.823,2.312c-0.753,1.401-1.253,2.306-2.054,3.709c-1.692-0.006-2.9-0.01-4.381-0.01
		l-2.058,0.002c-0.411,0-0.798,0.196-1.041,0.527c-0.244,0.331-0.317,0.757-0.196,1.15l0.823,2.691
		c0.167,0.544,0.67,0.916,1.239,0.916c0.001,0,0.001,0,0.002,0l2.248-0.002c2.78,0,4.817,0.01,7.757,0.024l0.539,0.002l2.048,5.775
		c0.183,0.516,0.67,0.861,1.218,0.863l0.61,0.002c0.081,0.016,0.166,0.025,0.251,0.025l0.484,0.002
		c4.287,11.77,8.57,23.542,12.854,35.314l2.412,6.629l-6.344-0.008h-0.001c-0.076,0-0.152,0.007-0.227,0.02
		c-0.406,0.009-0.785,0.208-1.023,0.539c-0.243,0.338-0.31,0.773-0.177,1.169l3.899,11.646c0.177,0.527,0.669,0.883,1.226,0.885
		c2.994,0.01,5.547,0.022,7.918,0.035c3.505,0.018,6.614,0.033,10.171,0.033c2.163,0,4.489-0.006,7.172-0.021
		c0.084,0,0.166-0.009,0.246-0.025c0.419-0.017,0.805-0.235,1.034-0.587c0.159-0.245,0.229-0.532,0.206-0.816
		c3.862-0.026,6.283-0.061,10.439-0.159c0.076-0.001,0.151-0.01,0.226-0.025c0.374-0.017,0.724-0.194,0.958-0.488
		c3.895-4.893,5.716-7.387,8.861-12.166c3.072-0.184,4.727-0.306,7.821-0.574c3.222-0.279,4.924-0.445,8.186-0.835
		c8.58,4.128,12.852,6.03,21.421,9.546c0.233,0.095,0.487,0.122,0.736,0.074c4.511-0.863,6.813-1.374,10.814-2.416l0.421,0.623
		c0.309,0.455,0.871,0.667,1.403,0.526c9.083-2.394,13.626-3.88,22.628-7.961c0.081-0.037,0.157-0.081,0.228-0.132
		c0.33-0.17,0.573-0.476,0.664-0.839C937.205,157.559,937.118,157.149,936.874,156.835z M917.851,149.009
		c-1.242,0.464-2.401,0.884-3.509,1.271l-1.152-1.61c-9.42-13.165-18.839-26.329-28.254-39.496c0.905-0.259,1.812-0.518,2.719-0.792
		L917.851,149.009z M882.936,133.132c-5.147-8.025-18.937-13.222-32.073-12.082c-7.812,0.676-13.773,3.596-16.355,8.012
		c-1.707,2.921-1.794,6.261-0.251,9.658l9.594,21.113c-6.252,0.11-10.68,0.121-16.02,0.104
		c-5.439-14.003-10.875-28.007-16.307-42.011c22.601-0.193,46.393-1.415,70.759-8.004c9.597,13.42,19.197,26.838,28.798,40.256
		l0.694,0.97c-4.783,1.558-8.884,2.537-14.871,3.766L882.936,133.132z M871.434,88.678c-0.493-0.684-0.569-1.253-0.476-1.559
		c0.035-0.117,0.11-0.263,0.374-0.36c0.145-0.053,0.314-0.08,0.507-0.08c0.969,0,2.134,0.647,2.831,1.575
		c0.518,0.687,0.59,1.275,0.484,1.595c-0.155,0.476-0.023,0.999,0.34,1.344s0.894,0.448,1.358,0.27l0.138-0.053
		c0.016-0.006,0.03-0.011,0.045-0.017l1.463,1.943c0.136,0.18,0.315,0.321,0.522,0.411c3.062,1.32,4.525,1.924,7.459,3.08
		c0.324,0.129,0.688,0.119,1.006-0.024c2.186-0.982,3.434-1.583,5.25-2.542l0.384,0.471c-2.885,1.513-4.782,2.371-8.302,3.792
		c-0.028,0.011-0.052,0.03-0.079,0.043c-3.497,1.13-6.979,2.136-10.448,3.029c0.263-0.209,0.447-0.508,0.488-0.854
		c0.283-2.423,0.406-3.672,0.595-6.073c0.023-0.306-0.062-0.611-0.241-0.86l-1.039-1.44c0.258-0.248,0.409-0.598,0.398-0.973
		c-0.016-0.564-0.395-1.053-0.937-1.209C872.736,89.95,871.943,89.387,871.434,88.678z M797.797,108.696
		c-2.944-0.014-4.984-0.024-7.77-0.024l-1.291,0.001l-0.03-0.099l0.304,0c1.687,0,3.019,0.005,5.127,0.013c0.002,0,0.003,0,0.005,0
		c0.465,0,0.894-0.249,1.125-0.652c1.151-2.011,1.688-2.979,2.735-4.935c0.172-0.322,0.2-0.703,0.078-1.047l-0.441-1.239
		c0.335-0.157,0.597-0.455,0.7-0.829c0.155-0.564-0.086-1.163-0.59-1.461c-0.734-0.435-1.318-1.102-1.562-1.783
		c-0.159-0.449-0.159-0.852,0-1.077c0.146-0.207,0.437-0.25,0.66-0.25c1.111,0.005,2.488,1.056,2.946,2.249
		c0.185,0.479,0.177,0.887-0.02,1.09c-0.362,0.374-0.466,0.927-0.264,1.406c0.202,0.479,0.671,0.791,1.19,0.792l0.353,0l0.775,2.025
		c0.084,0.218,0.225,0.409,0.408,0.554c2.499,1.969,3.769,2.954,6.341,4.916c0.229,0.175,0.498,0.275,0.801,0.266
		c3.322-0.038,6.724-0.079,10.178-0.146c-6.506,0.185-13.019,0.235-19.559,0.235c-0.25,0-0.506,0-0.757,0v0L797.797,108.696z
		 M802.709,115.365c-0.065-0.013-0.132-0.021-0.199-0.024l-1.436-4.047c27.838-0.022,55.243-0.959,83.756-10.042l3.229,4.283
		c-0.103,0.04-0.214,0.082-0.332,0.127c-28.971,8.921-57.32,9.69-83.877,9.71c-0.001,0-0.002,0-0.003,0L802.709,115.365z
		 M805.693,117.958c1.018-0.002,2.034-0.003,3.057-0.009c5.428,13.994,10.859,27.986,16.294,41.978
		c-0.731-0.003-1.478-0.006-2.26-0.01l-1.82-0.008l-2.738-7.523C814.049,140.91,809.873,129.434,805.693,117.958z M840.417,170.19
		c-0.433,0.002-0.836,0.221-1.074,0.583c-0.166,0.251-0.237,0.549-0.208,0.842c-6.165,0.026-10.476,0.005-15.648-0.021
		c-2.124-0.011-4.393-0.022-6.993-0.031l-3.038-9.073l6.593,0.009v0l2.725,0.012c3.222,0.014,5.964,0.026,8.626,0.026
		c4.208,0,8.233-0.031,13.619-0.132l3.5,7.702C845.994,170.151,843.77,170.171,840.417,170.19z M872.584,143.475
		c-1.839-3.181-7.044-5.257-12.095-4.812c-3.137,0.271-5.522,1.49-6.546,3.343c-0.702,1.272-0.692,2.742,0.027,4.14l6.489,12.605
		c-0.103,0.155-0.202,0.305-0.302,0.456l-8.047-16.007c-0.513-1.021-0.532-1.971-0.057-2.823c0.883-1.58,3.39-2.731,6.541-3.004
		c5.616-0.487,11.782,1.794,13.728,5.086l8.313,14.073c-0.23-0.11-0.463-0.222-0.699-0.336L872.584,143.475z M874.556,141.14
		c-2.484-4.204-9.44-6.932-16.184-6.351c-4.117,0.356-7.245,1.931-8.581,4.322c-0.895,1.602-0.894,3.466,0.004,5.252l8.702,17.311
		c-0.817,1.192-1.594,2.284-2.421,3.403l-11.881-24.831c-0.873-1.824-0.873-3.523,0-5.052c1.508-2.64,5.442-4.478,10.522-4.918
		c8.948-0.771,18.516,2.776,21.783,8.081l14.032,22.788c-1.831-0.816-3.672-1.662-5.708-2.62L874.556,141.14z M870.384,156.776
		c-3.053,0.264-4.712,0.386-7.732,0.567l-6.376-12.385c-0.324-0.631-0.345-1.187-0.062-1.699c0.455-0.824,1.877-1.786,4.5-2.013
		c3.988-0.346,8.303,1.238,9.627,3.527l6.566,11.361C874.624,156.395,873.007,156.548,870.384,156.776z M894.694,162.958
		l-15.986-25.96c-3.798-6.169-14.195-10.173-24.214-9.304c-6.017,0.521-10.591,2.786-12.55,6.215
		c-1.302,2.279-1.333,4.858-0.089,7.458l12.46,26.04c-0.626,0.81-1.3,1.669-2.059,2.625c-0.321,0.007-0.613,0.014-0.916,0.021
		l-14.724-32.403c-1.197-2.635-1.154-5.083,0.129-7.277c2.119-3.625,7.479-6.144,14.339-6.738
		c12.259-1.053,25.004,3.625,29.667,10.898l19.797,30.872C898.371,164.508,896.47,163.715,894.694,162.958z M913.816,164.134
		l-0.418-0.619c-0.309-0.456-0.871-0.668-1.404-0.528c-3.472,0.914-5.627,1.43-8.609,2.035l-4.982-7.77
		c8.408-1.748,13.172-3.068,21.976-6.426l0,0c2.671-1.009,4.17-1.618,6.471-2.643l6.981,8.963
		C926.132,160.583,921.719,162.033,913.816,164.134z"/>
	<g id="g9137" transform="translate(678.8746,394.4744)">
		<path id="path9139" fill="#FFFFFF" d="M213.927-323.974c6.413,5.531,8.648,9.078,4.851,9.19l-0.037-0.002
			c-3.404,0.079-9.355-3.082-15.956-8.754c-0.043-0.036-0.07-0.065-0.11-0.099l-3.737,0.111c0.023,0.02,0.046,0.043,0.071,0.063
			c8.513,7.24,16.825,11.136,22.221,10.976c0.062-0.002,0.109-0.012,0.17-0.015c5.846-0.258,4.583-4.366-3.737-11.583
			L213.927-323.974z M157.946-310.924l3.742-0.111c-6.816-5.882-8.102-9.081-4.874-9.19l-2.658-2.284
			C148.817-322.234,149.594-318.12,157.946-310.924 M177.135-322.879l3.743-0.111c-6.816-5.883-8.101-9.082-4.874-9.19l-2.657-2.285
			C168.008-334.19,168.786-330.075,177.135-322.879 M197.004-314.135l2.653,2.28c5.78-0.281,4.495-4.39-3.797-11.581l-3.729,0.111
			C198.526-317.806,200.765-314.268,197.004-314.135 M178.328-311.594l-12.734-10.942l3.609-0.108l12.735,10.944L178.328-311.594z"
			/>
	</g>
	<g id="path9141">
		<path fill="#407FA2" d="M753.553,131.892h-14.233v-3.642h14.233V131.892z M739.929,131.282h13.015v-2.423h-13.015V131.282z"/>
	</g>
	<g id="g9143" transform="translate(565.3199,359.6584)">
		<g id="path9145">
			<path fill="#407FA2" d="M188.689-245.333h-3.452l-0.003-0.302c-0.021-2.83-3.903-4.401-10.93-4.425L174-250.062v-3.744
				l0.307,0.002c9.132,0.065,14.236,2.962,14.374,8.158L188.689-245.333z M185.829-245.943h2.229
				c-0.324-4.564-5.077-7.129-13.447-7.249v2.524C181.6-250.598,185.559-248.927,185.829-245.943z"/>
		</g>
	</g>
	<g id="g9147" transform="translate(556.3336,353.362)">
		<g id="path9149">
			<path fill="#407FA2" d="M183.596-231.166l-0.306,0c-8.717-0.018-14.227-3.147-14.38-8.165l-0.009-0.314h3.46l0.002,0.303
				c0.015,2.707,4.202,4.401,10.929,4.423l0.304,0.001V-231.166z M169.538-239.036c0.359,4.415,5.46,7.174,13.449,7.258v-2.535
				c-6.688-0.073-10.924-1.865-11.216-4.724H169.538z"/>
		</g>
	</g>
	<g id="g9151" transform="translate(567.293,331.8579)">
		<g id="path9153">
			<path fill="#407FA2" d="M186.336-182.782l-0.306,0c-8.717-0.019-14.227-3.147-14.38-8.166l-0.009-0.314h3.46l0.002,0.303
				c0.015,2.707,4.202,4.401,10.929,4.423l0.304,0.001V-182.782z M172.277-190.652c0.359,4.415,5.46,7.174,13.449,7.259v-2.535
				c-6.688-0.073-10.924-1.865-11.216-4.724H172.277z"/>
		</g>
	</g>
	<g id="g9155" transform="translate(556.3336,378.0887)">
		<g id="path9157">
			<path fill="#407FA2" d="M183.373-274.204l-0.345-0.023l-0.041-0.285v-3.446l0.381,0.003c0.004,0,0.009,0,0.012,0
				c6.677,0,10.811-1.679,10.836-4.381c0.004-2.869-3.877-4.446-10.925-4.465l-0.304-0.001v-3.748l0.307,0.002
				c9.163,0.064,14.268,2.979,14.374,8.208l0.012,0.158c0,4.923-5.348,7.906-14.305,7.979H183.373z M183.596-277.345v2.529
				c8.318-0.116,13.474-2.93,13.474-7.367c-0.008-0.076-0.012-0.112-0.012-0.151c-0.098-4.785-4.875-7.481-13.462-7.603v2.527
				c7.247,0.067,11.232,1.856,11.232,5.049C194.794-279.235,190.601-277.376,183.596-277.345z"/>
		</g>
	</g>
	<g id="g9159" transform="translate(513.258,291.7217)">
		<path id="path9161" fill="#407FA2" d="M172.522-92.78l-0.571-11.676l-1.842,1.126l0.571,11.676L172.522-92.78z"/>
	</g>
	<g id="g9163" transform="translate(520.2421,297.6778)">
		<path id="path9165" fill="#407FA2" d="M174.269-106.182l0.119,2.433c3.007-1.954,4.523-7.284,4.186-14.978l-1.903,1.163
			C176.944-111.668,176.198-107.383,174.269-106.182"/>
	</g>
	<g id="g9167" transform="translate(516.0402,303.0417)">
		<path id="path9169" fill="#407FA2" d="M173.219-118.251l1.909-1.167c-0.292-6.285,0.748-10.358,2.401-11.381l-0.12-2.438
			C174.625-131.412,172.854-125.935,173.219-118.251"/>
	</g>
	<g id="g9171" transform="translate(503.4348,285.6651)">
		<path id="path9173" fill="#407FA2" d="M170.066-79.153l1.91-1.167c-0.292-6.285,0.748-10.358,2.401-11.381l-0.12-2.438
			C171.473-92.313,169.703-86.838,170.066-79.153"/>
	</g>
	<g id="g9175" transform="translate(531.0627,312.2222)">
		<path id="path9177" fill="#407FA2" d="M176.974-138.907c0.276,5.909-0.474,10.205-2.412,11.389l-0.017,0.006
			c-1.726,1.03-3.016-1.725-3.312-7.778c-0.001-0.04,0-0.072-0.001-0.107l-1.909,1.167c0.002,0.021,0,0.047,0.002,0.07
			c0.422,7.7,2.493,10.835,5.248,9.151c0.031-0.019,0.061-0.046,0.092-0.064c3.027-1.94,4.555-7.278,4.216-14.998L176.974-138.907z"
			/>
	</g>
	<g id="g3165" transform="translate(142.6594,406.5312)">
		<path id="path3167" fill="#FFFFFF" d="M79.873-351.102c14.495,80.619,61.54,137.645,139.216,164.54
			c-21.61,26.382-43.215,52.77-64.825,79.151C62.468-124.522-3.008-180.655-31.947-269.667
			C5.324-296.813,42.602-323.954,79.873-351.102"/>
	</g>
	<g>
		<path fill="#407FA2" d="M364.635,219.153c-0.267-0.944-0.978-1.698-1.905-2.019c-37.928-13.133-68.877-33.73-91.986-61.219
			c-22.871-27.207-38.099-61.194-45.259-101.017c-0.183-1.017-0.876-1.869-1.835-2.253c-0.959-0.384-2.048-0.249-2.884,0.359
			l-111.82,81.435c-1.05,0.764-1.488,2.118-1.087,3.353c11.29,34.727,28.148,64.684,50.217,89.441l-0.834,0.774l1.779,1.835
			c21.608,22.289,44.89,39.126,73.269,52.989l1.689,0.825l0.586-0.648c19.006,8.554,39.646,14.931,61.808,19.062
			c0.184,0.034,0.368,0.052,0.55,0.052c0.889,0,1.745-0.396,2.32-1.1l64.825-79.151
			C364.691,221.112,364.903,220.097,364.635,219.153z M114.246,138.002l106.218-77.355c0.327,1.656,0.688,3.289,1.043,4.925
			c-35.056,26.136-70.112,52.275-105.169,78.411C115.628,142.001,114.918,140.019,114.246,138.002z M234.02,276.159
			c-19.051-8.896-36.365-20.07-51.807-33.47c-5.744-4.983-11.207-10.261-16.392-15.821c9.876-9.164,19.753-18.325,29.629-27.487
			c2.594,3.204,5.279,6.384,8.082,9.559c-0.599,2.689-0.889,4.03-1.438,6.698c-0.954,0.923-1.428,1.384-2.381,2.307
			c0.316,0.313,0.475,0.47,0.792,0.781c-0.946-0.02-2.001,0.387-2.847,1.204c-1.415,1.369-1.686,3.341-0.583,4.391
			c1.101,1.049,3.144,0.776,4.542-0.592c0.834-0.816,1.243-1.836,1.218-2.751c0.324,0.307,0.487,0.461,0.811,0.767
			c0.942-0.923,1.411-1.383,2.354-2.305c2.745-0.528,4.115-0.797,6.851-1.344c1.812,1.677,2.732,2.502,4.596,4.125
			c0.87-0.868,1.301-1.301,2.171-2.17c-2.917-2.559-4.341-3.873-7.131-6.564c2.188-2.144,3.282-3.214,5.471-5.356
			c-0.199-0.196-0.299-0.295-0.496-0.491c0.007-0.007,0.012-0.01,0.02-0.019c-0.321-0.317-0.482-0.475-0.801-0.794
			c12.296-11.992,24.591-23.986,36.895-35.971c1.414,1.6,2.129,2.391,3.586,3.952c0.006-0.006,0.012-0.009,0.018-0.015
			c0.036,0.038,0.055,0.057,0.093,0.095c3.807-3.758,5.708-5.637,9.516-9.396c-4.144-4.642-6.123-7.05-9.88-12.027
			c-0.008,0.007-0.01,0.012-0.018,0.02c-0.031-0.041-0.05-0.063-0.082-0.104c-0.474,0.45-0.707,0.675-1.181,1.126
			c-1.854-2.449-2.759-3.692-4.516-6.219c-0.011,0.001-0.019,0-0.029,0.001c-0.026-0.037-0.039-0.055-0.064-0.092
			c-0.152,0.017-0.294,0.033-0.443,0.049l3.372-3.127c14.879,20.282,31.542,36.734,52.093,51.438
			C282.035,223.091,258.029,249.626,234.02,276.159z M295.732,295.841c-20.34-3.916-39.333-9.79-56.915-17.533
			c23.985-26.505,47.967-53.014,71.946-79.523c13.927,8.941,29.264,16.493,45.963,22.583L295.732,295.841z"/>
		<path fill="#407FA2" d="M328.099,226.488c2.817,1.099,6.574-0.17,9.599-3.798c2.974-3.565,2.824-6.274,0.189-7.367
			c-2.988-1.238-6.41,0.062-9.598,3.785C325.302,222.597,325.174,225.349,328.099,226.488z"/>
		<path fill="#407FA2" d="M317.339,221.951c2.717,1.235,6.456,0.038,9.586-3.64c3.077-3.617,3.051-6.439,0.516-7.66
			c-2.877-1.385-6.297-0.141-9.59,3.627C314.766,217.81,314.519,220.667,317.339,221.951z"/>
	</g>
	<g id="g3217" transform="translate(166.1282,331.3164)">
		<path id="path3219" fill="none" stroke="#FFFFFF" stroke-width="3" stroke-miterlimit="10" d="M85.74-181.869
			c-9.526,8.925-19.045,17.858-28.572,26.781c-7.014,6.574-17.864,5.785-23.454-2.394c-5.592-8.183-3.382-20.638,4.173-27.147
			c10.26-8.843,20.52-17.684,30.781-26.526"/>
	</g>
	<g id="g3221" transform="translate(161.7122,332.0103)">
		<path id="path3223" fill="none" stroke="#FFFFFF" stroke-width="3" stroke-miterlimit="10" d="M84.636-183.43
			c-9.376,8.695-14.063,13.042-23.44,21.735c-5.217,4.839-13.062,4.155-17.089-1.856c-4.027-6.014-2.491-15.084,3.02-19.888
			c9.833-8.57,14.749-12.856,24.582-21.426"/>
	</g>
	<g id="g3225" transform="translate(155.7454,331.3291)">
		<path id="path3227" fill="none" stroke="#FFFFFF" stroke-width="3" stroke-miterlimit="10" d="M83.145-181.897
			c-6.336,5.812-9.509,8.719-15.845,14.531c-3.384,3.104-8.319,2.606-10.843-1.247c-2.521-3.853-1.591-9.612,1.914-12.704
			c6.563-5.786,9.847-8.679,16.411-14.465"/>
	</g>
	<g id="g3229" transform="translate(152.7161,330.9698)">
		<path id="path3231" fill="none" stroke="#FFFFFF" stroke-width="3" stroke-miterlimit="10" d="M82.387-181.089
			c-4.657,4.249-6.986,6.373-11.642,10.622c-2.458,2.241-5.977,1.861-7.773-0.917c-1.8-2.783-1.147-6.904,1.373-9.138
			c4.777-4.235,7.169-6.353,11.945-10.589"/>
	</g>
	<g id="g3233" transform="translate(134.6223,280.0859)">
		<path id="path3235" fill="none" stroke="#FFFFFF" stroke-width="3" stroke-linejoin="round" stroke-miterlimit="10" d="
			M77.864-66.6c-18.335-18.947-32.315-38.789-44.245-62.297"/>
	</g>
	<g id="g3237" transform="translate(137.9778,285.414)">
		<path id="path3239" fill="none" stroke="#FFFFFF" stroke-width="3" stroke-linejoin="round" stroke-miterlimit="10" d="
			M78.703-78.588c-16.92-18.302-29.861-37.006-41.226-59.187"/>
	</g>
	<g id="g3241" transform="translate(135.5598,288.3457)">
		<path id="path3243" fill="none" stroke="#FFFFFF" stroke-width="3" stroke-linejoin="round" stroke-miterlimit="10" d="
			M78.098-85.185c12.336-11.9,24.674-23.8,37.005-35.705"/>
	</g>
	<g id="g3245" transform="translate(106.9485,329.4536)">
		<path id="path3247" fill="none" stroke="#FFFFFF" stroke-width="3" stroke-linejoin="round" stroke-miterlimit="10" d="
			M70.945-177.677c14.034-11.701,28.066-23.406,42.098-35.11"/>
	</g>
	<g id="g3249" transform="translate(139.2375,360.9819)">
		<path id="path3251" fill="none" stroke="#FFFFFF" stroke-width="3" stroke-miterlimit="10" d="M79.018-248.616
			c2.566,6.561,3.975,9.76,7.039,15.983"/>
	</g>
	<g id="g3253" transform="translate(167.4934,314.1905)">
		<path id="path3255" fill="none" stroke="#FFFFFF" stroke-width="3" stroke-miterlimit="10" d="M86.082-143.335
			c-4.431-5.062-6.536-7.691-10.522-13.142"/>
	</g>
	<g>
		<path fill="#FFFFFF" d="M267.907,164.491c-4.134-4.629-6.057-6.972-9.802-11.932c-0.079-0.104-0.17-0.197-0.271-0.276
			c-0.246-0.23-0.564-0.373-0.905-0.4c-0.41-0.034-0.812,0.103-1.116,0.374c-1.245-1.663-2.084-2.836-3.47-4.828
			c-0.066-0.095-0.143-0.181-0.227-0.257c-0.32-0.344-0.787-0.525-1.262-0.468c-6.129,0.676-9.26,0.991-15.044,1.507
			c-0.908-1.405-1.503-2.354-2.544-4.065c-1.094-1.799-1.673-2.778-2.627-4.451c2.265-6.913,3.53-10.528,6.209-17.773
			c0.141-0.382,0.121-0.805-0.055-1.171c-1.21-2.512-1.857-3.911-2.857-6.199l0.481-0.409c0.502-0.426,0.667-1.131,0.406-1.737
			c-2.531-5.874-3.661-8.81-5.756-14.956c-0.06-0.176-0.147-0.34-0.257-0.483c-0.197-0.285-0.49-0.496-0.831-0.59
			c-0.466-0.128-0.969-0.025-1.347,0.281l-11.31,9.186c-0.493,0.4-0.68,1.067-0.468,1.666c0.65,1.833,1.038,2.885,1.613,4.388
			L176,145.246c-0.2-0.396-0.566-0.685-1-0.786c-0.453-0.104-0.93,0.006-1.291,0.302l-4.941,4.055
			c-1.185-2.574-1.946-4.34-3.219-7.426c-0.18-0.436-0.555-0.762-1.012-0.88c-0.458-0.119-0.943-0.013-1.312,0.281l-2.644,2.113
			c-0.523,0.417-0.706,1.131-0.449,1.749c0.899,2.157,1.399,3.318,2.314,5.354c-1.047,2.515-1.652,3.994-2.688,6.569l-2.453,2.015
			c-0.285,0.234-0.465,0.555-0.526,0.899c-0.638,0.219-1.266,0.573-1.845,1.047c-2.083,1.71-2.983,4.494-2.179,6.503
			c-2.591,0.414-5.628,1.68-9.023,3.814l1.754,2.746c6.036-3.824,10.694-4.915,12.494-2.141l2.488-1.589
			c-0.442-0.653-0.964-1.186-1.545-1.625c0.158-0.109,0.32-0.21,0.473-0.337c0.553-0.46,1.034-1.008,1.419-1.608
			c0.338-0.006,0.667-0.126,0.932-0.347l2.341-1.948c1.979-0.112,3.216-0.187,5.088-0.309c9.708,16.782,20.134,31.331,32.725,45.663
			c-0.462,2.083-0.742,3.382-1.184,5.523l-2.049,1.984c-0.242,0.234-0.396,0.541-0.442,0.87c-0.581,0.273-1.129,0.649-1.612,1.115
			c-1.098,1.063-1.725,2.451-1.72,3.809c0.004,1.072,0.411,2.048,1.145,2.747c0.713,0.679,1.693,1.053,2.761,1.053
			c1.379,0,2.788-0.605,3.866-1.66c0.479-0.468,0.864-1,1.144-1.565c0.323-0.036,0.636-0.175,0.885-0.419l2.031-1.989
			c2.213-0.426,3.542-0.687,5.668-1.111c1.461,1.347,2.399,2.184,4.067,3.636c0.594,0.517,1.487,0.486,2.044-0.069l2.172-2.17
			c0.294-0.293,0.453-0.695,0.439-1.11c-0.013-0.415-0.198-0.806-0.51-1.079c-2.477-2.173-3.852-3.423-5.966-5.447l4.366-4.274
			c0.288-0.281,0.416-0.7,0.417-1.102c0-0.402-0.194-0.821-0.48-1.104l-0.144-0.142l4.802-4.684
			c9.963-9.717,19.925-19.433,29.894-29.144c0.86,0.962,1.521,1.682,2.569,2.805c0.082,0.088,0.174,0.166,0.274,0.23
			c0.587,0.467,1.441,0.432,1.986-0.107l9.516-9.396C268.41,165.996,268.439,165.087,267.907,164.491z M257.299,172.751
			c-0.852-0.922-1.516-1.663-2.6-2.89c-0.271-0.308-0.658-0.49-1.068-0.506c-0.416-0.019-0.809,0.138-1.103,0.424
			c-10.345,10.077-20.683,20.159-31.021,30.242l-5.875,5.73c-0.287,0.28-0.45,0.663-0.453,1.064
			c-0.002,0.401,0.156,0.786,0.439,1.07l0.219,0.218l-4.402,4.31c-0.289,0.284-0.452,0.672-0.45,1.078s0.167,0.792,0.458,1.074
			c2.428,2.342,3.811,3.63,5.982,5.553l-0.049,0.049c-1.224-1.075-2.083-1.854-3.509-3.174c-0.353-0.326-0.84-0.462-1.312-0.37
			c-2.732,0.546-4.1,0.815-6.84,1.342c-0.289,0.056-0.555,0.195-0.766,0.401l-1.35,1.321c-0.414-0.245-0.926-0.282-1.378-0.08
			c-0.554,0.247-0.905,0.804-0.888,1.411c0.015,0.541-0.272,1.154-0.768,1.639c-0.514,0.503-1.174,0.803-1.767,0.803
			c-0.208,0-0.496-0.039-0.692-0.226c-0.141-0.134-0.212-0.331-0.213-0.586c-0.002-0.537,0.299-1.15,0.805-1.639
			c0.507-0.49,1.157-0.783,1.772-0.783c0,0,0,0,0.001,0c0.626,0.019,1.176-0.351,1.414-0.917c0.182-0.432,0.149-0.916-0.072-1.312
			l1.321-1.28c0.217-0.209,0.365-0.48,0.426-0.775c0.548-2.659,0.837-3.995,1.434-6.675c0.104-0.468-0.022-0.958-0.34-1.318
			c-12.884-14.593-23.479-29.386-33.345-46.557c-0.286-0.496-0.837-0.794-1.399-0.749c-2.594,0.171-3.889,0.25-6.487,0.396
			c-0.321,0.018-0.628,0.139-0.875,0.345l-1.416,1.178c-0.304-0.216-0.685-0.317-1.071-0.264c-0.631,0.085-1.139,0.56-1.268,1.184
			c-0.16,0.776-0.652,1.569-1.317,2.122c-0.488,0.406-1.014,0.639-1.444,0.639c-0.361,0-0.444-0.165-0.49-0.254
			c-0.344-0.674,0.146-2.189,1.293-3.131c0.56-0.46,1.196-0.695,1.607-0.604c0.562,0.119,1.145-0.089,1.499-0.542
			c0.346-0.443,0.415-1.042,0.18-1.551l1.834-1.507c0.195-0.16,0.346-0.367,0.44-0.6c1.202-2.992,1.814-4.488,3.066-7.489
			c0.16-0.383,0.154-0.816-0.017-1.194c-0.904-2.005-1.401-3.139-2.11-4.826l0.204-0.163c1.108,2.646,1.903,4.421,3.321,7.46
			c0.196,0.42,0.575,0.726,1.027,0.829c0.452,0.102,0.925-0.01,1.284-0.303l4.939-4.053c0.201,0.401,0.571,0.692,1.01,0.792
			c0.452,0.104,0.927-0.011,1.285-0.305l42.801-35.274c0.499-0.411,0.678-1.095,0.446-1.697c-0.669-1.737-1.057-2.763-1.618-4.325
			l8.845-7.183c1.609,4.639,2.762,7.606,4.75,12.253l-0.485,0.412c-0.504,0.427-0.669,1.134-0.406,1.741
			c1.189,2.744,1.869,4.239,3.074,6.752c-2.625,7.106-3.887,10.74-6.233,17.916c-0.131,0.402-0.087,0.84,0.122,1.208
			c1.18,2.075,1.768,3.077,3,5.104c1.237,2.033,1.854,3.006,3.082,4.897c0.303,0.466,0.838,0.725,1.391,0.678
			c6.111-0.542,9.251-0.851,15.149-1.499c1.464,2.095,2.394,3.366,4.107,5.63c0.258,0.341,0.648,0.555,1.074,0.59
			c0.419,0.037,0.834-0.109,1.142-0.396c2.915,3.828,4.867,6.201,8.073,9.82L257.299,172.751z"/>
		
			<rect x="156.003" y="186.428" transform="matrix(0.8429 -0.5381 0.5381 0.8429 -75.5415 117.2966)" fill="#FFFFFF" width="14.17" height="3.154"/>
		<path fill="#FFFFFF" d="M138.285,184.032l-2.494,1.593c2.695,3.95,8.882,4.018,16.746-0.979l-1.76-2.756
			C144.345,185.968,139.823,186.411,138.285,184.032z"/>
		<path fill="#FFFFFF" d="M165.339,199.931l-2.494,1.593c2.695,3.95,8.882,4.017,16.747-0.979l-1.76-2.756
			C171.399,201.866,166.877,202.31,165.339,199.931z"/>
		<path fill="#FFFFFF" d="M147.742,155.423l0.012,0.026c1.564,2.505-0.921,6.37-7.114,10.323c-0.04,0.026-0.073,0.041-0.111,0.065
			l1.758,2.753c0.023-0.015,0.049-0.027,0.071-0.042c7.865-5.109,10.521-10.589,7.983-14.564c-0.029-0.045-0.066-0.082-0.095-0.126
			c-2.881-4.317-8.855-4.031-16.764,0.94l1.756,2.751C141.286,153.712,145.958,152.625,147.742,155.423z"/>
	</g>
	<g id="g9319" transform="translate(161.878,285.2368)">
		<g id="path9321">
			<path fill="#407FA2" d="M96.24-67.35L84.189-78.163l2.767-3.084l12.052,10.813L96.24-67.35z M85.167-78.216l11.021,9.887
				l1.841-2.053l-11.021-9.887L85.167-78.216z"/>
		</g>
	</g>
	<g id="g9323" transform="translate(154.6642,273.9382)">
		<g id="path9325">
			<path fill="#407FA2" d="M86.439-37.087l-0.258-0.235c-7.684-6.991-9.806-13.322-5.975-17.827l0.231-0.271l2.924,2.624
				l-0.228,0.258c-2.131,2.412-0.039,6.691,5.893,12.05l0.256,0.232L86.439-37.087z M80.509-54.423
				c-3.193,4.111-1.117,9.894,5.881,16.353l1.916-2.135c-5.865-5.371-7.948-9.793-5.909-12.524L80.509-54.423z"/>
		</g>
	</g>
	<g id="g9327" transform="translate(167.0567,272.4431)">
		<g id="path9329">
			<path fill="#407FA2" d="M91.947-31.55l-2.93-2.628l0.229-0.258c2.042-2.304-0.216-6.921-5.895-12.048l-0.256-0.231l2.852-3.178
				l0.258,0.232c7.368,6.638,9.657,13.473,5.973,17.838L91.947-31.55z M89.98-34.245l1.891,1.696
				c3.05-4.012,0.828-10.223-5.874-16.364l-1.926,2.147C89.677-41.624,91.903-36.889,89.98-34.245z"/>
		</g>
	</g>
	<g id="g9331" transform="translate(174.1128,298.9775)">
		<g id="path9333">
			<path fill="#407FA2" d="M93.711-91.252l-2.93-2.629l0.229-0.258c2.043-2.304-0.215-6.92-5.895-12.047l-0.256-0.231l2.852-3.178
				l0.258,0.232c7.368,6.638,9.656,13.473,5.973,17.838L93.711-91.252z M91.744-93.948l1.891,1.697
				c3.05-4.012,0.827-10.223-5.874-16.364l-1.926,2.147C91.442-101.326,93.667-96.592,91.744-93.948z"/>
		</g>
	</g>
	<g id="g9335" transform="translate(148.2724,251.5055)">
		<g id="path9337">
			<path fill="#407FA2" d="M78.917,0.853l-0.258-0.235c-7.709-7.015-9.818-13.361-5.936-17.87c0.059-0.078,0.084-0.114,0.116-0.147
				c1.354-1.509,3.144-2.277,5.314-2.277c3.671,0,8.116,2.211,12.854,6.394l0.262,0.231l-0.167,0.324l-2.619,2.917l-0.258-0.232
				l0.129-0.35l-0.001-0.001l-0.228,0.254c-3.939-3.534-7.496-5.48-10.015-5.48c-1.033,0-1.86,0.332-2.459,0.987l-0.07,0.061
				c-2.113,2.365-0.024,6.649,5.928,12.02l0.257,0.231L78.917,0.853z M78.153-18.982c-1.965,0-3.582,0.69-4.803,2.051l-0.108,0.139
				c-3.55,4.123-1.553,10.035,5.626,16.662l1.92-2.139c-6.084-5.563-8.101-10.105-5.676-12.809l0.072-0.063
				c0.69-0.763,1.69-1.171,2.926-1.171c2.656,0,6.317,1.959,10.324,5.52l1.921-2.14C85.819-16.891,81.604-18.982,78.153-18.982z"/>
		</g>
	</g>
</g>
<g id="whiteBg">
	<path fill="#FFFFFF" d="M531.324,435.499c-16.991-41.96-33.991-83.913-50.992-125.868l-12.313-30.388
		c-0.495-1.22-1.663-2.032-2.979-2.07l-12.5-0.362c-2.55-5.804-5.1-11.607-7.65-17.411H116.572
		c-23.016,52.381-46.034,104.764-69.046,157.146h2.812c-0.759,1.729-1.519,3.458-2.278,5.187c-0.45,1.026-0.353,2.21,0.26,3.147
		c0.613,0.938,1.658,1.505,2.779,1.505h1.876l-0.821,1.869c-0.45,1.025-0.353,2.209,0.26,3.146c0.613,0.939,1.658,1.506,2.779,1.506
		h1.878c-0.274,0.624-0.547,1.247-0.821,1.871c-0.45,1.024-0.353,2.208,0.26,3.147c0.612,0.938,1.657,1.503,2.779,1.503h1.875
		c-0.273,0.623-0.547,1.247-0.82,1.87c-0.45,1.025-0.353,2.209,0.26,3.147c0.612,0.938,1.658,1.504,2.779,1.504h1.877
		c-0.273,0.624-0.547,1.247-0.821,1.871c-0.451,1.026-0.352,2.21,0.26,3.147c0.614,0.938,1.658,1.504,2.779,1.504h1.876
		c-0.273,0.624-0.547,1.247-0.82,1.871c-0.451,1.024-0.351,2.208,0.261,3.146s1.656,1.504,2.777,1.504h1.876
		c-0.273,0.624-0.547,1.247-0.82,1.871c-0.45,1.025-0.35,2.209,0.263,3.146c0.471,0.722,1.199,1.216,2.02,1.409
		c-1.166,2.661-2.332,5.323-3.498,7.984c-0.45,1.026-0.35,2.209,0.263,3.146s1.656,1.504,2.776,1.504h11.501
		c-0.347,0.792-0.693,1.584-1.04,2.376c-0.45,1.026-0.35,2.209,0.262,3.146c0.613,0.937,1.658,1.503,2.776,1.503h1.875
		c-0.273,0.625-0.546,1.249-0.82,1.874c-0.45,1.025-0.351,2.208,0.263,3.146c0.612,0.938,1.658,1.502,2.776,1.502h1.875
		c-0.273,0.625-0.546,1.25-0.82,1.875c-0.449,1.026-0.35,2.209,0.264,3.146c0.612,0.938,1.657,1.502,2.776,1.502h1.875l-0.819,1.875
		c-0.449,1.025-0.351,2.207,0.264,3.144c0.613,0.938,1.657,1.503,2.776,1.503h8.815l-3.665,8.398
		c-0.449,1.024-0.349,2.207,0.265,3.144c0.613,0.936,1.656,1.501,2.775,1.501h0.515c0.003,0,0.005,0.001,0.008,0.001h0.277
		c-1.312,4.188-2.626,8.373-3.938,12.561l-9.101,29.032c-0.335,1.066-0.109,2.231,0.6,3.097c0.635,0.772,1.579,1.214,2.566,1.214
		c0.117,0,0.236-0.007,0.354-0.02l48.552-5.207c0.065,0.166,0.137,0.331,0.236,0.483c0.491,0.748,1.325,1.198,2.22,1.198h294.423
		c0.895,0,1.729-0.45,2.22-1.199c0.49-0.748,0.571-1.693,0.214-2.514c-2.766-6.359-5.53-12.72-8.295-19.08h0.95
		c1.119,0,2.163-0.565,2.775-1.501c0.613-0.936,0.714-2.118,0.267-3.143l-0.818-1.879h1.87c1.12,0,2.163-0.564,2.776-1.501
		c0.612-0.937,0.712-2.118,0.266-3.144l-0.819-1.878h1.872c1.119,0,2.163-0.564,2.775-1.501c0.613-0.937,0.713-2.118,0.266-3.144
		l-0.818-1.876h1.873c1.118,0,2.162-0.565,2.775-1.501c0.613-0.938,0.713-2.119,0.266-3.146l-1.437-3.292h16.307
		c1.119,0,2.163-0.564,2.775-1.502c0.614-0.937,0.714-2.119,0.265-3.145l-5.897-13.503h0.803c1.12,0,2.164-0.564,2.777-1.502
		c0.612-0.938,0.711-2.12,0.263-3.146c-0.273-0.625-0.547-1.249-0.82-1.874h1.875c1.118,0,2.163-0.566,2.777-1.503
		c0.612-0.938,0.711-2.12,0.261-3.146c-0.347-0.792-0.693-1.584-1.04-2.376h0.881c1.12,0,2.165-0.566,2.777-1.504
		s0.711-2.12,0.263-3.146c-1.152-2.63-2.304-5.26-3.456-7.89h9.821c1.121,0,2.165-0.566,2.777-1.504
		c0.613-0.938,0.712-2.121,0.263-3.146l-0.82-1.871h1.875c1.12,0,2.164-0.566,2.777-1.504c0.612-0.938,0.712-2.121,0.263-3.146
		c-0.273-0.624-0.547-1.247-0.82-1.871h1.876c1.12,0,2.164-0.566,2.776-1.504c0.615-0.938,0.713-2.121,0.262-3.147
		c-0.273-0.624-0.547-1.247-0.821-1.871h1.876c1.121,0,2.166-0.566,2.778-1.504c0.612-0.938,0.711-2.121,0.26-3.147
		c-0.273-0.623-0.547-1.247-0.82-1.87h1.878c0.3,0,0.592-0.047,0.873-0.124l25.146,0.728l1.008,0.028
		c0.034,0.001,0.065,0.001,0.097,0.001c1.083,0,2.104-0.529,2.725-1.424C531.614,437.718,531.746,436.538,531.324,435.499z"/>
</g>
<g id="blueStack">
	<path fill="#407FA2" stroke="#407FA2" stroke-miterlimit="10" d="M531.324,435.499c-16.991-41.96-33.991-83.913-50.992-125.868
		l-12.313-30.388c-0.495-1.22-1.663-2.032-2.979-2.07l-12.5-0.362c-2.55-5.804-5.1-11.607-7.65-17.411H116.572
		c-23.016,52.381-46.034,104.764-69.046,157.146h2.812c-0.759,1.729-1.519,3.458-2.278,5.187c-0.45,1.026-0.353,2.21,0.26,3.147
		c0.613,0.938,1.658,1.505,2.779,1.505h1.876l-0.821,1.869c-0.45,1.025-0.353,2.209,0.26,3.146c0.613,0.939,1.658,1.506,2.779,1.506
		h1.878c-0.274,0.624-0.547,1.247-0.821,1.871c-0.45,1.024-0.353,2.208,0.26,3.147c0.612,0.938,1.657,1.503,2.779,1.503h1.875
		c-0.273,0.623-0.547,1.247-0.82,1.87c-0.45,1.025-0.353,2.209,0.26,3.147c0.612,0.938,1.658,1.504,2.779,1.504h1.877
		c-0.273,0.624-0.547,1.247-0.821,1.871c-0.451,1.026-0.352,2.21,0.26,3.147c0.614,0.938,1.658,1.504,2.779,1.504h1.876
		c-0.273,0.624-0.547,1.247-0.82,1.871c-0.451,1.024-0.351,2.208,0.261,3.146s1.656,1.504,2.777,1.504h1.876
		c-0.273,0.624-0.547,1.247-0.82,1.871c-0.45,1.025-0.35,2.209,0.263,3.146c0.471,0.722,1.199,1.216,2.02,1.409
		c-1.166,2.661-2.332,5.323-3.498,7.984c-0.45,1.026-0.35,2.209,0.263,3.146s1.656,1.504,2.776,1.504h11.501
		c-0.347,0.792-0.693,1.584-1.04,2.376c-0.45,1.026-0.35,2.209,0.262,3.146c0.613,0.937,1.658,1.503,2.776,1.503h1.875
		c-0.273,0.625-0.546,1.249-0.82,1.874c-0.45,1.025-0.351,2.208,0.263,3.146c0.612,0.938,1.658,1.502,2.776,1.502h1.875
		c-0.273,0.625-0.546,1.25-0.82,1.875c-0.449,1.026-0.35,2.209,0.264,3.146c0.612,0.938,1.657,1.502,2.776,1.502h1.875l-0.819,1.875
		c-0.449,1.025-0.351,2.207,0.264,3.144c0.613,0.938,1.657,1.503,2.776,1.503h8.815l-3.665,8.398
		c-0.449,1.024-0.349,2.207,0.265,3.144c0.613,0.936,1.656,1.501,2.775,1.501h0.515c0.003,0,0.005,0.001,0.008,0.001h0.277
		c-1.312,4.188-2.626,8.373-3.938,12.561l-9.101,29.032c-0.335,1.066-0.109,2.231,0.6,3.097c0.635,0.772,1.579,1.214,2.566,1.214
		c0.117,0,0.236-0.007,0.354-0.02l48.552-5.207c0.065,0.166,0.137,0.331,0.236,0.483c0.491,0.748,1.325,1.198,2.22,1.198h294.423
		c0.895,0,1.729-0.45,2.22-1.199c0.49-0.748,0.571-1.693,0.214-2.514c-2.766-6.359-5.53-12.72-8.295-19.08h0.95
		c1.119,0,2.163-0.565,2.775-1.501c0.613-0.936,0.714-2.118,0.267-3.143l-0.818-1.879h1.87c1.12,0,2.163-0.564,2.776-1.501
		c0.612-0.937,0.712-2.118,0.266-3.144l-0.819-1.878h1.872c1.119,0,2.163-0.564,2.775-1.501c0.613-0.937,0.713-2.118,0.266-3.144
		l-0.818-1.876h1.873c1.118,0,2.162-0.565,2.775-1.501c0.613-0.938,0.713-2.119,0.266-3.146l-1.437-3.292h16.307
		c1.119,0,2.163-0.564,2.775-1.502c0.614-0.937,0.714-2.119,0.265-3.145l-5.897-13.503h0.803c1.12,0,2.164-0.564,2.777-1.502
		c0.612-0.938,0.711-2.12,0.263-3.146c-0.273-0.625-0.547-1.249-0.82-1.874h1.875c1.118,0,2.163-0.566,2.777-1.503
		c0.612-0.938,0.711-2.12,0.261-3.146c-0.347-0.792-0.693-1.584-1.04-2.376h0.881c1.12,0,2.165-0.566,2.777-1.504
		s0.711-2.12,0.263-3.146c-1.152-2.63-2.304-5.26-3.456-7.89h9.821c1.121,0,2.165-0.566,2.777-1.504
		c0.613-0.938,0.712-2.121,0.263-3.146l-0.82-1.871h1.875c1.12,0,2.164-0.566,2.777-1.504c0.612-0.938,0.712-2.121,0.263-3.146
		c-0.273-0.624-0.547-1.247-0.82-1.871h1.876c1.12,0,2.164-0.566,2.776-1.504c0.615-0.938,0.713-2.121,0.262-3.147
		c-0.273-0.624-0.547-1.247-0.821-1.871h1.876c1.121,0,2.166-0.566,2.778-1.504c0.612-0.938,0.711-2.121,0.26-3.147
		c-0.273-0.623-0.547-1.247-0.82-1.87h1.878c0.3,0,0.592-0.047,0.873-0.124l25.146,0.728l1.008,0.028
		c0.034,0.001,0.065,0.001,0.097,0.001c1.083,0,2.104-0.529,2.725-1.424C531.614,437.718,531.746,436.538,531.324,435.499z
		 M187.93,478.443c0.056-0.13,0.113-0.259,0.169-0.389h50.543l-0.086,0.389H187.93z M231.674,509.751l-0.286,1.301h-48.364
		l0.144-1.301H231.674z M190.984,471.418c0.856-1.968,1.711-3.936,2.566-5.903h47.849l-1.298,5.903H190.984z M236.203,509.751
		h39.796l0.255,1.301h-40.337L236.203,509.751z M269.776,478.055l0.076,0.389h-26.767l0.086-0.389H269.776z M244.631,471.418
		l1.298-5.903h21.386l1.159,5.903H244.631z M272.951,465.515H317.2l0.514,5.903H274.11L272.951,465.515z M275.489,478.443
		l-0.077-0.389h42.88l0.034,0.389H275.489z M321.053,509.751l0.114,1.301h-39.276l-0.256-1.301H321.053z M173.255,465.515
		L172,471.418h-6.085c0.856-1.968,1.712-3.936,2.568-5.903H173.255z M116.929,471.418c0.86-1.968,1.72-3.936,2.58-5.903h6.075
		c-0.466,1.487-0.932,2.975-1.398,4.461c-0.21,0.481-0.42,0.962-0.629,1.442H116.929z M120.659,478.055
		c-0.056,0.13-0.113,0.259-0.169,0.389h-6.63c0.057-0.13,0.113-0.259,0.17-0.389H120.659z M140.909,416.547h6.601
		c-0.466,1.067-0.933,2.136-1.398,3.203h-6.602C139.976,418.683,140.442,417.614,140.909,416.547z M88.858,471.418h-9.33
		c0.862-1.968,1.724-3.936,2.586-5.903h9.327C90.581,467.482,89.719,469.45,88.858,471.418z M102.163,419.75
		c0.468-1.067,0.936-2.136,1.403-3.203h9.308c-0.467,1.067-0.935,2.136-1.402,3.203H102.163z M150.398,551.463l-46.365,4.972
		l7.588-24.199c0.839-2.676,1.678-5.35,2.517-8.025h0.256l-0.818,1.878c-0.448,1.024-0.348,2.206,0.266,3.143
		c0.613,0.937,1.656,1.501,2.775,1.501h0.515c0.003,0,0.005,0.001,0.008,0.001h1.349l-0.818,1.878
		c-0.448,1.026-0.348,2.207,0.266,3.144c0.614,0.935,1.656,1.5,2.775,1.5h0.515c0.003,0,0.005,0.001,0.008,0.001h1.87l-0.817,1.878
		c-0.447,1.025-0.348,2.207,0.266,3.143s1.658,1.5,2.775,1.5h1.871l-0.818,1.88c-0.446,1.025-0.346,2.206,0.268,3.142
		c0.614,0.935,1.657,1.5,2.775,1.5h21.482L150.398,551.463z M156.47,550.812l0.224-0.515h4.575L156.47,550.812z M167.965,511.052
		h-19.294c0.188-0.434,0.377-0.867,0.566-1.301h19.294C168.343,510.185,168.154,510.618,167.965,511.052z M177.459,511.052h-3.705
		c0.188-0.434,0.377-0.867,0.565-1.301h3.283L177.459,511.052z M181.057,478.443h-18.199c0.057-0.13,0.113-0.259,0.169-0.389H181.1
		L181.057,478.443z M177.584,471.418l1.321-5.902l-0.048-0.001h3.626l-0.651,5.903H177.584z M221.783,554.739h-39.7l40.658-4.36
		L221.783,554.739z M226.312,554.739l0.977-4.442h97.296l0.387,4.442H226.312z M414.825,419.75l-1.398-3.203h6.079l1.4,3.203
		H414.825z M441.088,554.739h-6.823c-0.605-1.498-1.211-2.996-1.817-4.494c0.957-0.122,1.827-0.632,2.362-1.448
		c0.613-0.936,0.714-2.116,0.268-3.143l-0.817-1.879h1.87c0.062,0,0.12-0.02,0.181-0.022
		C437.904,547.415,439.496,551.077,441.088,554.739z M437.38,471.418l-2.577-5.903h6.103l2.58,5.903H437.38z M440.447,478.443
		l-0.169-0.389h6.109l0.17,0.389H440.447z M453.473,416.547h7.645l1.404,3.203h-7.645
		C454.409,418.683,453.941,417.614,453.473,416.547z M462.968,503.114c0.597-0.933,0.695-2.1,0.251-3.116l-0.819-1.874h0.251
		l2.18,4.99H462.968z M506.093,432.784c0.773-0.212,1.456-0.694,1.906-1.383c0.612-0.938,0.71-2.121,0.26-3.146
		c-0.273-0.623-0.548-1.247-0.821-1.87h1.877c1.12,0,2.165-0.566,2.777-1.505c0.614-0.938,0.712-2.121,0.261-3.147
		c-0.759-1.729-1.519-3.458-2.278-5.187h3.858c-19.474-44.341-38.958-88.676-58.44-133.012l7.188,0.208l11.5,28.381
		c16.365,40.384,32.73,80.77,49.087,121.156L506.093,432.784z"/>
</g>
<g id="whites">
	<polygon fill="#FFFFFF" points="173.279,465.401 82.637,465.516 80.051,471.419 171.999,471.419 	"/>
	<polygon fill="#FFFFFF" points="468.112,465.501 458.09,465.501 460.461,471.419 470.788,471.419 	"/>
	<polygon fill="#FFFFFF" points="183.006,419.106 76.391,419.201 75.923,420.332 181.893,423.512 	"/>
	<polygon fill="#FFFFFF" points="134.821,511.053 191.739,511.053 192.026,509.751 135.388,509.751 	"/>
	<polygon fill="#FFFFFF" points="198.227,509.751 197.66,511.053 312.085,511.053 311.882,509.75 	"/>
	<polygon fill="#FFFFFF" points="56.702,419.751 68.777,419.915 69.162,419.104 56.986,419.104 	"/>
	<polygon fill="#FFFFFF" points="115.352,555.277 173.793,549.011 175.09,537.255 121.233,537.255 	"/>
	<path fill="#FFFFFF" d="M250.035,538.441l-0.069-0.749h-0.354l0.314-0.438h-69.174l-1.327,11.151l67.706-7.261l0.002-0.002
		c0.095,0.152,0.209,0.294,0.352,0.411c0.297,0.243,0.67,0.375,1.051,0.375c0.058,0,0.118-0.002,0.176-0.01l21.365-2.292
		c0.095-0.011,0.188-0.029,0.279-0.054c0.407-0.07,0.777-0.29,1.032-0.619c0.2-0.256,0.317-0.565,0.344-0.884l3.531-0.379h-18.249
		L250.035,538.441z"/>
	<path fill="#FFFFFF" d="M309.837,465.609c-0.163,0.155-0.319,0.304-0.487,0.463h-13.104c-0.455,0-0.888,0.187-1.2,0.514
		c-0.313,0.329-0.479,0.771-0.457,1.225l0.002,0.037l-16.655-2.357l-7.738,0.061l-24.271-0.036l0.006-0.017l-67.029,0.018
		l-1.322,5.903h116.771l0.017-0.254h1.724c0.099,0,0.196-0.009,0.29-0.025c0.433-0.015,0.843-0.197,1.143-0.511
		c0.312-0.328,0.479-0.771,0.458-1.223l-0.001-0.017h11.827c0.104,0,0.208-0.01,0.311-0.029c0.396-0.021,0.774-0.181,1.062-0.454
		c1.27-1.203,2.402-2.281,3.456-3.289L309.837,465.609z"/>
	<path fill="#FFFFFF" d="M407.088,465.754l-3.457-0.005l0.608,2.099h-24.411l-0.111-0.486c-0.172-0.754-0.844-1.289-1.618-1.289
		h-13.244c-0.174-0.131-0.336-0.253-0.506-0.382l-5.515-0.008c1.362,1.033,2.825,2.138,4.47,3.375
		c0.289,0.216,0.638,0.332,0.998,0.332h12.475l0.108,0.484c0.171,0.756,0.843,1.291,1.618,1.291h27.712
		c0.099,0,0.196-0.009,0.293-0.025c0.494-0.02,0.958-0.261,1.26-0.662c0.312-0.416,0.411-0.956,0.265-1.458L407.088,465.754z"/>
	<path fill="#FFFFFF" d="M338.9,421.571l-0.791-0.022l-0.106-2.348h-3.338l0.11,2.234l0.021,0.017l-10.961-0.317
		c-0.46,0.002-0.891,0.161-1.215,0.48c-0.223,0.221-0.371,0.499-0.442,0.799l-28.553-0.119l0.138-3.094h-3.321h-11.084h-3.317
		h-78.38h-9.004l-1.002,4.311l71.401,2.1l0.08,0.003l16.944,0.498l0,0.063l3.318,0.11l0-0.077l11.112,0.327l52.159,1.627
		l-0.918-8.962h-0.214C340.708,419.948,339.836,420.731,338.9,421.571z"/>
	<path fill="#FFFFFF" d="M346.476,419.201h-4.726l4.694,0.028C346.455,419.22,346.465,419.211,346.476,419.201z"/>
	<path fill="#FFFFFF" d="M448.942,419.201h-3.429l1.956,7.541l-28.393-0.819l-0.146-0.744c-0.149-0.76-0.807-1.316-1.581-1.34
		l-11.429-0.329l-0.539-4.267h-3.763l0.52,4.157c-1.932-1.545-3.64-2.916-5.229-4.199h-5.266c2.593,2.114,5.371,4.351,8.856,7.138
		c0.281,0.225,0.629,0.352,0.989,0.362l14.441,0.416l0.148,0.749c0.15,0.758,0.805,1.312,1.579,1.335l31.658,0.915h0.048
		c0.084,0,0.165-0.005,0.247-0.018h0.012c0.505,0,0.984-0.231,1.3-0.629c0.322-0.407,0.437-0.942,0.307-1.446L448.942,419.201z"/>
	<polygon fill="#FFFFFF" points="381.62,419.201 381.684,419.439 385.125,419.461 385.055,419.201 	"/>
</g>
<g id="stackHead">
	<g id="g8869" transform="translate(375.7795,117.6376)">
		<path id="path8871" fill="#FFFFFF" d="M138.153,298.909h-466.406c23.012-52.383,46.03-104.766,69.046-157.146H69.109
			C92.126,194.144,115.146,246.523,138.153,298.909"/>
	</g>
	<path fill="#407FA2" d="M516.363,415.479c-18.017-41.024-36.042-82.044-54.067-123.063l-14.978-34.084
		c-0.423-0.964-1.377-1.586-2.43-1.586H116.572c-1.053,0-2.006,0.622-2.43,1.586l-7.048,16.04
		c-20.667,47.035-41.335,94.071-61.998,141.107c-0.361,0.82-0.283,1.768,0.208,2.519s1.326,1.203,2.223,1.203h466.406
		c0.896,0,1.732-0.452,2.223-1.203C516.646,417.248,516.724,416.301,516.363,415.479z M51.592,413.893
		c20.119-45.796,40.241-91.591,60.363-137.385l6.351-14.453h76.532c-0.461,2.072-0.921,4.144-1.381,6.216
		c-11.517,0-23.033,0-34.548-0.001c-2.599,8.159-3.9,12.241-6.5,20.4h36.515c-3.675,16.533-7.352,33.065-11.024,49.599
		c-5.599,25.209-11.2,50.418-16.807,75.625H51.592z M165.623,413.893c5.537-24.888,11.065-49.776,16.594-74.665
		c5.714-25.725,11.429-51.451,17.151-77.173h112.269l2.892,32.834c0.575,6.531,1.149,13.061,1.725,19.591h-21.136
		c-2.476-2.865-3.694-4.298-6.091-7.163c-0.034-1.671-0.052-2.503-0.086-4.175h-1.67c1-0.816,1.631-2.117,1.603-3.597
		c-0.049-2.479-1.888-4.489-4.115-4.489c-2.227,0-4.032,2.01-4.032,4.489c0,1.48,0.66,2.781,1.672,3.597h-1.675
		c0,1.672,0.003,2.504,0.003,4.175c-2.35,2.879-3.544,4.321-5.974,7.2h-9.619c-0.058,1.575-0.087,2.361-0.145,3.937h15.296
		c-0.004,3.884-0.006,5.825-0.01,9.709h1.135v0.034h1.835c0.127,21.719,0.249,43.437,0.375,65.155
		c-4.22,0.013-6.333,0.019-10.553,0.031c0,0.012-0.002,0.018-0.002,0.03c-0.104,0.001-0.152-0.001-0.256,0
		c-0.106,6.813-0.161,10.223-0.268,17.036h32.243c0-0.013-0.002-0.015-0.002-0.027h0.275c-0.038-0.815-0.059-1.227-0.096-2.043
		h15.781c0.015-0.011,0.025-0.02,0.04-0.032h0.229c1.167-1.108,2.231-2.123,3.235-3.085c0.253,2.877,0.507,5.753,0.76,8.63H165.623z
		 M496.501,413.893c-20.67-50.616-41.356-101.225-62.034-151.838h8.688l14.28,32.498c17.48,39.78,34.959,79.556,52.432,119.34
		H496.501z"/>
	<path fill="#FFFFFF" d="M434.43,410.053l-4.949-17.039c-0.165-0.565-0.682-0.955-1.271-0.957l-9.807-0.028l-6.53-24.249
		c-3.435-12.751-6.869-25.502-10.3-38.255h1.247c0.415,0,0.805-0.193,1.056-0.523c0.251-0.329,0.334-0.758,0.224-1.157l-2.234-8.095
		h13.551c0.422,0,0.818-0.201,1.069-0.54c0.25-0.34,0.324-0.778,0.198-1.182l-1.225-3.941c-0.172-0.555-0.686-0.933-1.267-0.933
		h-9.115c-2.886-2.577-4.438-3.981-7.286-6.588l-1.049-3.804c-0.12-0.438-0.453-0.774-0.868-0.91
		c0.173-0.837,0.139-1.759-0.118-2.693c-0.841-3.062-3.716-5.46-6.543-5.46c-1.39,0-2.599,0.572-3.406,1.609
		c-0.916,1.178-1.192,2.829-0.758,4.531c0.223,0.875,0.621,1.711,1.157,2.458c0,0.001-0.001,0.002-0.001,0.002
		c-0.251,0.324-0.339,0.745-0.238,1.143l0.936,3.658c-1.35,2.399-2.144,3.779-3.482,6.054h-87.696
		c-2.107-2.439-3.288-3.829-5.382-6.33l-0.076-3.707c-0.009-0.438-0.229-0.822-0.561-1.058c0.339-0.778,0.511-1.641,0.494-2.54
		c-0.063-3.192-2.504-5.79-5.442-5.79c-2.955,0-5.359,2.609-5.359,5.816c0,0.894,0.188,1.752,0.54,2.527
		c-0.329,0.241-0.542,0.631-0.542,1.07l0.003,3.702c-1.971,2.412-3.136,3.822-5.264,6.346h-9.002c-0.714,0-1.3,0.565-1.326,1.278
		l-0.145,3.937c-0.013,0.36,0.121,0.71,0.371,0.97c0.25,0.26,0.595,0.406,0.956,0.406h13.968l-0.009,8.381
		c0,0.352,0.14,0.689,0.388,0.938c0.249,0.249,0.587,0.39,0.939,0.39h0.835c0.096,0.022,0.197,0.034,0.3,0.034h0.516l0.36,62.505
		l-9.222,0.027c-0.096,0-0.19,0.011-0.28,0.03c-0.714,0.014-1.291,0.591-1.301,1.307l-0.268,17.036
		c-0.006,0.355,0.132,0.698,0.381,0.951c0.25,0.254,0.59,0.396,0.946,0.396h32.243c0.092,0,0.182-0.01,0.269-0.027h0.003
		c0.362,0,0.709-0.148,0.959-0.411c0.25-0.262,0.383-0.615,0.366-0.978l-0.031-0.654h14.39c0.099,0,0.196-0.011,0.292-0.032
		c0.332-0.006,0.65-0.136,0.891-0.365c7.333-6.967,10.852-10.43,17.501-17.233h21.5c8.641,6.9,13.116,10.366,22.409,17.364
		c0.23,0.173,0.51,0.267,0.798,0.267h14.995l0.238,1.041c0.139,0.603,0.675,1.029,1.293,1.029h32.237
		c0.091,0,0.181-0.01,0.268-0.027c0.415-0.003,0.804-0.199,1.053-0.53C434.467,410.886,434.546,410.454,434.43,410.053z
		 M409.311,368.47l6.344,23.556h-6.071l-15.738-62.501h4.981C402.318,342.508,405.814,355.488,409.311,368.47z M384.146,387.85
		c-1.917-9.43-3.833-18.859-5.753-28.289l-0.026-0.105c-4.443-15.3-21.54-22.414-35.543-22.55
		c-9.129-0.053-18.224,3.264-23.745,8.75c-3.91,3.884-5.966,8.786-5.945,14.264l2.287,32.106h-21.671l-1.442-62.501h98.803
		l15.739,62.501h-21.853L384.146,387.85z M280.284,317.127L280.284,317.127h-13.919l0.047-1.282h8.34
		c0.391,0,0.762-0.173,1.014-0.471c2.51-2.975,3.697-4.411,5.988-7.218c0.193-0.236,0.299-0.533,0.299-0.839l-0.002-2.848h0.347
		c0.562,0,1.064-0.355,1.251-0.886c0.187-0.53,0.02-1.121-0.418-1.475c-0.749-0.604-1.178-1.538-1.178-2.564
		c0-1.744,1.213-3.162,2.705-3.162c1.503,0,2.754,1.43,2.789,3.187c0.02,1.022-0.387,1.95-1.115,2.543
		c-0.435,0.355-0.599,0.945-0.411,1.474s0.689,0.882,1.25,0.882h0.37l0.059,2.874c0.006,0.303,0.115,0.594,0.309,0.825
		c2.429,2.903,3.627,4.312,6.105,7.179c0.252,0.292,0.618,0.46,1.004,0.46h89.062c0.47,0,0.904-0.248,1.143-0.653
		c1.684-2.855,2.5-4.271,4.155-7.218c0.167-0.298,0.213-0.647,0.129-0.978l-0.644-2.52c0.566-0.018,1.062-0.395,1.228-0.939
		c0.17-0.559-0.045-1.163-0.53-1.488c-0.995-0.668-1.757-1.726-2.038-2.829c-0.23-0.901-0.127-1.72,0.282-2.246
		c0.301-0.388,0.742-0.584,1.311-0.584c1.637,0,3.461,1.607,3.984,3.509c0.263,0.955,0.129,1.827-0.357,2.331
		c-0.369,0.384-0.473,0.95-0.265,1.44c0.208,0.489,0.689,0.808,1.221,0.808h0.657l0.882,3.197c0.066,0.241,0.199,0.458,0.383,0.627
		c3.165,2.898,4.729,4.312,7.969,7.206c0.243,0.217,0.558,0.337,0.884,0.337h8.644l0.4,1.287h-13.492
		c-0.095,0-0.187,0.013-0.277,0.032H280.284z M281.709,326.87c-0.035-0.008-0.071-0.015-0.107-0.021l0.007-7.068h117.512
		l1.956,7.089h-1.235H283.244H281.709z M291.093,392.025h-6.155l-0.359-62.501h5.071L291.093,392.025z M304.959,407.053
		c-0.362,0-0.709,0.148-0.959,0.41c-0.25,0.263-0.383,0.616-0.366,0.979l0.032,0.682h-29.777l0.226-14.415l9.509-0.028h31.985
		l0.881,12.373H304.959z M339.822,389.422l-2.074-18.092c-0.161-1.401,0.501-2.476,1.084-3.13c1.537-1.724,4.352-2.753,7.528-2.753
		c5.226,0,10.098,2.859,10.638,6.244l2.834,17.73H339.822z M362.619,390.032l-2.999-18.76c-0.759-4.755-6.583-8.479-13.259-8.479
		c-3.921,0-7.476,1.361-9.509,3.641c-1.355,1.519-1.957,3.316-1.741,5.199l2.16,18.849c-0.533,0.546-1.052,1.074-1.549,1.581
		l-2.498-23.568c-0.181-1.705,0.401-3.359,1.684-4.785c2.226-2.475,6.215-3.952,10.672-3.952c7.395,0,14.345,4.166,15.175,9.099
		l3.829,22.744C363.952,391.096,363.299,390.575,362.619,390.032z M367.691,394.065l-4.318-25.651
		c-1.051-6.237-9.032-11.312-17.792-11.312c-5.197,0-9.924,1.807-12.646,4.831c-1.799,2.001-2.612,4.367-2.349,6.841l2.727,25.732
		c-1.986,2.004-3.781,3.787-5.699,5.659c-1.072-12.13-2.146-24.259-3.223-36.388c-0.259-2.929,0.772-5.753,2.982-8.167
		c3.604-3.937,9.875-6.287,16.775-6.287c11.793,0,22.623,6.646,24.142,14.813c1.288,6.941,2.579,13.883,3.869,20.824l2.738,14.732
		C372.511,397.855,370.233,396.075,367.691,394.065z M384.576,407.053c-2.46-1.854-4.576-3.454-6.532-4.946l-3.277-17.63
		c-1.291-6.941-2.582-13.882-3.869-20.823c-1.742-9.365-13.742-16.983-26.751-16.983c-7.632,0-14.635,2.673-18.732,7.149
		c-2.727,2.979-3.995,6.503-3.668,10.193c1.141,12.844,2.278,25.688,3.413,38.532c-1.419,1.367-2.955,2.835-4.715,4.508h-1.295
		l-3.367-47.232c-0.016-4.729,1.722-8.861,5.165-12.283c4.96-4.927,13.537-8.06,21.849-7.978
		c13.038,0.126,28.917,6.621,33.005,20.584c1.917,9.412,3.83,18.823,5.742,28.234l3.797,18.675H384.576z M401.716,409.123
		l-0.237-1.037c-0.137-0.604-0.674-1.033-1.294-1.033H388.05l-2.516-12.373h31.848l9.827,0.028l4.187,14.415H401.716z"/>
	<g id="g8889" transform="translate(62.5042,221.8691)">
		<path id="path8891" fill="#407FA2" d="M59.834,64.388c1.231-3.114,1.847-4.672,3.079-7.787H60.83
			c-1.249,3.115-1.874,4.673-3.123,7.787H59.834z"/>
	</g>
	<g id="g8893" transform="translate(71.052,222.9599)">
		<path id="path8895" fill="#407FA2" d="M61.971,61.934c-0.24,0.647-0.36,0.97-0.6,1.62c3.501-0.075,6.509-2.93,8.374-8.045h-2.151
			C66.157,59.436,64.194,61.92,61.971,61.934"/>
	</g>
	<g id="g8897" transform="translate(68.6272,228.0996)">
		<path id="path8899" fill="#407FA2" d="M61.365,50.369h2.162c1.599-4.188,3.78-6.409,5.624-6.418
			c0.24-0.65,0.358-0.977,0.599-1.627C66.629,42.405,63.343,45.248,61.365,50.369"/>
	</g>
	<g id="g8901" transform="translate(85.6086,228.0996)">
		<path id="path8903" fill="#407FA2" d="M65.61,50.369c-1.309,3.937-3.201,6.425-5.43,6.425c-0.005,0-0.012-0.006-0.017-0.006
			c-1.97-0.008-2.466-2.31-1.069-6.345c0.01-0.027,0.017-0.048,0.026-0.074h-2.156c-0.005,0.015-0.014,0.033-0.02,0.049
			c-1.779,5.12-0.616,7.999,2.56,7.999c0.039,0,0.074-0.003,0.11-0.003c3.486-0.03,6.443-2.912,8.153-8.045H65.61z"/>
	</g>
	<g id="g9259" transform="translate(40.3647,126.2968)">
		<path id="path9261" fill="#407FA2" d="M54.299,279.426l0.805-13.359l-2.975-0.18l-0.804,13.36L54.299,279.426z"/>
	</g>
	<g id="g9263" transform="translate(51.8797,127.4855)">
		<path id="path9265" fill="#407FA2" d="M57.178,276.751l-0.167,2.784c4.871,0.163,7.949-4.562,8.539-13.335l-3.071-0.186
			C62.048,272.75,60.297,276.915,57.178,276.751"/>
	</g>
	<g id="g9267" transform="translate(46.2361,136.6693)">
		<path id="path9269" fill="#407FA2" d="M55.767,256.088l3.084,0.187c0.455-7.181,2.626-10.882,5.297-10.736l0.167-2.789
			C59.802,242.615,56.315,247.303,55.767,256.088"/>
	</g>
	<g id="g9271" transform="translate(24.5019,127.1923)">
		<path id="path9273" fill="#407FA2" d="M50.334,277.411l3.083,0.186c0.455-7.18,2.626-10.881,5.298-10.736l0.167-2.788
			C54.368,263.939,50.881,268.627,50.334,277.411"/>
	</g>
	<g id="g9275" transform="translate(70.4832,135.2092)">
		<path id="path9277" fill="#407FA2" d="M61.829,259.373c-0.425,6.751-2.189,10.924-5.317,10.734l-0.026-0.006
			c-2.781-0.195-4.355-4.241-3.938-11.166c0.002-0.045,0.009-0.08,0.011-0.121l-3.08-0.186c-0.001,0.025-0.006,0.054-0.007,0.079
			c-0.461,8.845,2.251,13.916,6.697,14.184c0.05,0.004,0.099-0.005,0.149-0.001c4.898,0.195,7.996-4.53,8.587-13.333L61.829,259.373
			z"/>
	</g>
	<g id="g9299" transform="translate(154.1497,177.171)">
		<g id="path9301">
			<path fill="#407FA2" d="M82.436,170.453l-23.114-3.43l0.877-5.915l23.114,3.43L82.436,170.453z M60.457,166.182l21.136,3.135
				l0.584-3.937l-21.136-3.135L60.457,166.182z"/>
		</g>
	</g>
	<g id="g9303" transform="translate(153.845,196.5159)">
		<g id="path9305">
			<path fill="#407FA2" d="M87.714,122.686l-5.609-0.832l0.069-0.491c0.647-4.602-5.277-8.089-16.684-9.821l-0.492-0.074l0.9-6.078
				l0.498,0.077c14.815,2.303,22.408,8.236,21.38,16.71L87.714,122.686z M83.214,121.008l3.62,0.537
				c0.574-7.492-6.528-12.803-20.094-15.011l-0.606,4.096C77.47,112.428,83.496,116.095,83.214,121.008z"/>
		</g>
	</g>
	<g id="g9307" transform="translate(137.7336,188.4549)">
		<g id="path9309">
			<path fill="#407FA2" d="M79.062,140.139l-0.495-0.075c-14.153-2.129-22.348-8.539-21.387-16.727l0.06-0.512l5.619,0.834
				l-0.07,0.492c-0.626,4.399,5.767,8.161,16.685,9.818l0.493,0.074L79.062,140.139z M58.126,123.968
				c-0.479,7.259,7.14,12.968,20.095,15.03l0.611-4.116c-10.842-1.732-17.291-5.662-17.079-10.376L58.126,123.968z"/>
		</g>
	</g>
	<g id="g9311" transform="translate(150.3521,150.8903)">
		<g id="path9313">
			<path fill="#407FA2" d="M82.217,224.66l-0.495-0.075c-14.153-2.13-22.349-8.539-21.388-16.727l0.06-0.512l5.619,0.834
				l-0.07,0.492c-0.626,4.399,5.767,8.161,16.685,9.817l0.493,0.074L82.217,224.66z M61.28,208.489
				c-0.479,7.259,7.14,12.968,20.095,15.03l0.611-4.117c-10.842-1.731-17.291-5.662-17.079-10.375L61.28,208.489z"/>
		</g>
	</g>
	<g id="g9315" transform="translate(143.6904,228.613)">
		<g id="path9317">
			<path fill="#407FA2" d="M84.66,70.747c-2.325,0-4.849-0.188-7.503-0.561l-0.499-0.07l-0.056-0.522l0.83-5.594l0.622,0.095
				c10.978,1.641,17.987-0.19,18.669-4.503l0.036-0.127c0.664-4.53-5.26-8.026-16.702-9.756l-0.493-0.074l0.903-6.086l0.498,0.077
				c14.866,2.311,22.455,8.275,21.367,16.795c-0.008,0.139-0.012,0.198-0.021,0.259C101.362,67.077,94.929,70.747,84.66,70.747z
				 M77.665,69.247c2.473,0.332,4.824,0.5,6.996,0.5c9.72,0,15.793-3.359,16.661-9.216c0.007-0.13,0.01-0.19,0.02-0.25
				c0.995-7.792-6.115-13.322-20.033-15.588l-0.609,4.104c11.754,1.856,17.796,5.721,17.027,10.905l-0.037,0.132
				c-0.585,3.753-4.952,5.867-12.274,5.867c-2.161,0-4.562-0.188-7.141-0.559L77.665,69.247z"/>
		</g>
	</g>
	<g id="g9199" transform="translate(249.3756,207.3094)">
		<path id="path9201" fill="#FFFFFF" d="M106.552,97.148l-0.628-19.565l-4.356,0.14l0.627,19.565L106.552,97.148z"/>
	</g>
	<g id="g9203" transform="translate(265.9858,210.5918)">
		<path id="path9205" fill="#FFFFFF" d="M110.705,89.762l0.131,4.076c7.117-0.418,10.963-7.713,10.64-20.57l-4.499,0.144
			C117.258,83.279,115.27,89.581,110.705,89.762"/>
	</g>
	<g id="g9207" transform="translate(256.5293,223.2069)">
		<path id="path9209" fill="#FFFFFF" d="M108.34,61.378l4.515-0.145c-0.303-10.518,2.36-16.202,6.27-16.35l-0.131-4.084
			C112.401,41.212,107.955,48.513,108.34,61.378"/>
	</g>
	<g id="g9211" transform="translate(226.1525,206.4767)">
		<path id="path9213" fill="#FFFFFF" d="M100.746,99.021l4.515-0.146c-0.302-10.518,2.36-16.201,6.27-16.35l-0.131-4.083
			C104.807,78.854,100.361,86.156,100.746,99.021"/>
	</g>
	<g id="g9215" transform="translate(292.0394,224.3467)">
		<path id="path9217" fill="#FFFFFF" d="M117.217,58.813c0.291,9.889-1.715,16.204-6.297,16.35l-0.04-0.005
			c-4.077,0.091-6.914-5.589-7.239-15.731c-0.002-0.068,0.002-0.118,0.001-0.178l-4.512,0.144c0.001,0.037-0.001,0.079,0,0.116
			c0.519,12.943,5.154,19.964,11.664,19.755c0.073-0.002,0.143-0.02,0.216-0.022c7.161-0.376,11.036-7.674,10.713-20.574
			L117.217,58.813z"/>
	</g>
</g>
<g id="inflightOver">
	<g id="g9053" transform="translate(603.3982,34.8173)">
		<g id="path9055">
			<path fill="#FFFFFF" d="M195.058,485.255C55.515,447.106-69.997,377.948-176.789,280.36
				c48.159-34.415,96.316-68.827,144.476-103.241c68.926,62.296,147.987,105.86,237.471,130.851
				C201.79,367.065,198.425,426.159,195.058,485.255"/>
		</g>
	</g>
	<g id="g9073" transform="translate(410.6524,259.1176)">
		<g id="path9075">
			<path fill="#407FA2" d="M146.871-19.421c2.749-2.15,4.124-3.224,6.874-5.374c-0.53-0.47-0.795-0.705-1.324-1.176
				c-2.763,2.137-4.144,3.205-6.907,5.342C146.056-20.145,146.327-19.904,146.871-19.421"/>
		</g>
	</g>
	<g id="g9077" transform="translate(416.8368,255.3086)">
		<g id="path9079">
			<path fill="#407FA2" d="M148.417-10.851c-0.559,0.46-0.839,0.69-1.397,1.15c2.318,1.889,6.04,0.934,10.415-2.72
				c-0.558-0.474-0.835-0.71-1.392-1.185C152.677-10.807,149.866-9.622,148.417-10.851"/>
		</g>
	</g>
	<g id="g9081" transform="translate(418.4872,261.3586)">
		<g id="path9083">
			<path fill="#407FA2" d="M148.83-24.464c0.552,0.484,0.828,0.725,1.384,1.208c3.644-2.934,6.429-3.756,7.613-2.749
				c0.56-0.461,0.84-0.693,1.4-1.154C157.184-28.802,153.31-28.033,148.83-24.464"/>
		</g>
	</g>
	<g id="g9085" transform="translate(429.4832,252.0268)">
		<g id="path9087">
			<path fill="#407FA2" d="M151.578-3.467c-3.261,2.897-6.024,4.153-7.485,2.939c-0.005-0.005-0.005-0.009-0.012-0.012
				c-1.285-1.071-0.198-3.467,3.196-6.397c0.022-0.021,0.041-0.033,0.062-0.05c-0.562-0.471-0.842-0.708-1.401-1.18
				c-0.013,0.01-0.026,0.022-0.04,0.034c-4.322,3.713-5.335,6.996-3.246,8.731c0.022,0.019,0.052,0.033,0.075,0.051
				c2.3,1.875,6.019,0.83,10.268-2.955C152.426-2.77,152.144-3.002,151.578-3.467"/>
		</g>
	</g>
	<path fill="#407FA2" d="M809.345,339.959c-88.566-24.734-168.067-68.54-236.291-130.202c-1.023-0.925-2.553-1.012-3.678-0.211
		L424.901,312.789c-0.721,0.515-1.17,1.328-1.223,2.214c-0.054,0.885,0.295,1.744,0.95,2.344
		c25.717,23.501,52.492,45.322,80.252,65.478l-0.134,0.148l2.235,1.593c11.304,8.056,22.674,15.796,34.149,23.271
		c0.49,0.32,0.981,0.636,1.472,0.955c2.447,1.588,4.9,3.163,7.358,4.727c1.564,0.997,3.129,1.993,4.699,2.98
		c2.565,1.609,5.136,3.208,7.714,4.793c1.774,1.09,3.556,2.167,5.338,3.244c1.852,1.122,3.707,2.236,5.566,3.346
		c1.155,0.687,2.309,1.378,3.467,2.06c19.528,11.533,39.495,22.395,60.131,32.703l2.304,1.151l0.137-0.312
		c50.376,24.487,103.228,44.349,158.365,59.423c0.255,0.069,0.515,0.104,0.773,0.104c0.609,0,1.21-0.19,1.715-0.553
		c0.719-0.519,1.168-1.332,1.218-2.218l10.099-177.284C811.566,341.575,810.675,340.329,809.345,339.959z M431.275,315.454
		l139.598-99.757c15.735,14.112,32.067,27.275,48.955,39.501l-4.981,5.531c-8.705-6.351-13.582-10.125-22.536-17.398
		c-6.665,6.089-9.998,9.132-16.662,15.221c9.641,7.832,14.865,11.872,24.28,18.74l-91.094,101.143
		C482.036,359.008,456.161,338.02,431.275,315.454z M637.267,455.958c-43.404-21.41-84.935-46.311-124.45-74.63l110.871-123.102
		c25.497,17.866,51.451,33.47,79.21,47.625l-22.839,52.235c-5.355-2.602-10.691-5.258-16.008-7.985
		c-0.438-3.728-0.634-5.585-0.984-9.285c0.837-1.598,1.257-2.396,2.095-3.993c-0.51-0.274-0.764-0.41-1.272-0.686
		c1.183-0.366,2.335-1.34,3.077-2.754c1.242-2.37,0.889-5.023-0.792-5.938c-1.679-0.912-4.088,0.238-5.379,2.582
		c-0.771,1.398-0.945,2.903-0.605,4.099c-0.507-0.279-0.761-0.418-1.269-0.698c-0.871,1.58-1.307,2.37-2.176,3.95
		c-3.284,1.739-4.943,2.594-8.297,4.275c-2.924-1.642-4.381-2.47-7.283-4.147c-0.877,1.457-1.315,2.187-2.191,3.645
		c4.626,2.674,6.953,3.987,11.633,6.57c-2.026,3.669-3.04,5.503-5.066,9.171c0.349,0.192,0.524,0.289,0.875,0.481
		c-0.008,0.014-0.012,0.021-0.02,0.035c0.566,0.312,0.85,0.466,1.417,0.776c-11.194,20.603-22.388,41.206-33.583,61.809
		c-3.375-1.831-5.057-2.756-8.411-4.626c-0.006,0.013-0.01,0.018-0.017,0.029c-0.084-0.046-0.126-0.068-0.211-0.114
		c-3.653,6.384-5.48,9.576-9.135,15.96c10.308,5.797,15.512,8.608,26.014,14.047c0.006-0.011,0.009-0.018,0.014-0.028
		c0.089,0.045,0.133,0.067,0.222,0.113c0.386-0.79,0.58-1.186,0.968-1.976c5.137,2.658,7.717,3.966,12.899,6.538
		c0.019-0.006,0.028-0.009,0.049-0.015c0.075,0.037,0.114,0.057,0.188,0.094c1.31-0.502,2.523-0.97,3.675-1.417L637.267,455.958z
		 M795.732,516.275c-3.864-1.072-7.714-2.176-11.556-3.296c4.946-56.63,9.893-113.259,14.838-169.89
		c2.154,0.637,4.31,1.271,6.475,1.884L795.732,516.275z"/>
	<g>
		<path fill="#FFFFFF" d="M759.621,389.699c-2.935-1.004-4.506-1.549-7.229-2.516c-1.125-3.269-1.736-5.107-2.803-8.409l0.918-4.088
			c0.098-0.438-0.012-0.881-0.271-1.216c0.521-0.749,0.912-1.65,1.137-2.646c0.503-2.249,0.073-4.489-0.996-6.019
			c3.115-2.457,5.986-6.775,8.433-12.865l-4.188-1.649c-3.648,9.173-7.969,14.172-12.232,12.53l-1.494,3.795
			c0.425,0.154,0.848,0.277,1.271,0.37c-0.083,0.238-0.168,0.475-0.229,0.727c-0.235,0.961-0.299,1.945-0.196,2.885
			c-0.001,0-0.003,0-0.003,0.002c-0.372,0.194-0.643,0.541-0.742,0.949l-0.981,4c-2.207,1.948-3.5,3.064-5.701,4.919
			c-23.663-9.457-46.215-19.709-68.894-31.317c-0.356-3.056-0.545-4.848-0.85-8.04l1.893-3.606c0.206-0.391,0.217-0.836,0.067-1.219
			c0.686-0.597,1.281-1.351,1.737-2.22c1.636-3.12,1.026-6.595-1.393-7.91c-0.599-0.326-1.263-0.49-1.968-0.49
			c-2.056,0-4.175,1.433-5.396,3.653c-0.472,0.855-0.773,1.77-0.895,2.672c-0.402,0.088-0.767,0.34-0.981,0.729l-1.964,3.565
			c-2.835,1.499-4.437,2.325-7.184,3.705c-2.481-1.395-3.924-2.219-6.586-3.756c-0.698-0.405-1.584-0.174-1.994,0.515l-2.191,3.644
			c-0.202,0.338-0.261,0.743-0.163,1.124c0.099,0.382,0.348,0.708,0.688,0.904c4.232,2.447,6.509,3.737,10.371,5.873l-4.356,7.888
			c-0.188,0.342-0.233,0.742-0.126,1.117c0.108,0.375,0.361,0.691,0.702,0.879l0.584,0.321c0.082,0.074,0.173,0.139,0.272,0.194
			l0.136,0.074l-32.183,59.235c-2.565-1.396-4.213-2.305-7.104-3.919c-0.103-0.056-0.209-0.1-0.317-0.13
			c-0.688-0.326-1.518-0.071-1.901,0.599l-9.134,15.962c-0.195,0.338-0.246,0.741-0.142,1.118c0.104,0.378,0.355,0.697,0.695,0.889
			c10.361,5.828,15.476,8.59,26.059,14.071c0.089,0.047,0.182,0.081,0.276,0.107c0.339,0.16,0.728,0.187,1.089,0.07
			c0.376-0.122,0.688-0.394,0.862-0.75l0.308-0.629c4.371,2.258,6.896,3.531,11.591,5.86c0.088,0.044,0.183,0.077,0.281,0.1
			c0.355,0.163,0.767,0.174,1.132,0.035c9.493-3.638,14.139-5.555,23.015-9.51c3.284,1.541,5.125,2.39,8.615,3.976
			c3.582,1.629,5.469,2.475,8.888,3.978c3.75,9.762,5.804,14.728,10.206,24.714c0.152,0.347,0.433,0.62,0.782,0.766
			c5.021,2.08,7.688,3.161,12.408,5.027l-0.249,0.91c-0.199,0.723,0.18,1.479,0.877,1.754c11.08,4.367,16.518,6.403,27.705,10.373
			c0.097,0.034,0.196,0.057,0.295,0.067c0.145,0.045,0.29,0.067,0.438,0.067c0.25,0,0.5-0.064,0.723-0.189
			c0.369-0.208,0.629-0.565,0.717-0.979l3.817-18.383c0.148-0.718-0.254-1.434-0.942-1.68c-3.272-1.174-5.093-1.837-8.018-2.92
			l15.406-66.892l0.896,0.329c0.396,0.145,0.836,0.111,1.207-0.092c0.37-0.203,0.637-0.556,0.728-0.969l1.977-8.858
			c4.058,1.47,6.519,2.332,11.051,3.881c0.405,0.142,0.851,0.094,1.217-0.121c0.368-0.216,0.625-0.581,0.702-1l0.796-4.281
			C760.723,390.641,760.311,389.936,759.621,389.699z M648.412,360.156c1.139,0.604,2.277,1.19,3.416,1.789l-31.146,59.888
			c-1.393-0.753-2.872-1.557-4.462-2.425L648.412,360.156z M690.322,389.9c-15.348-7.079-30.111-0.221-35.539,10.551l-14.467,31.565
			c-6.856-3.436-11.497-5.821-17.05-8.793l31.164-59.917c25.687,13.378,51.51,25.109,78.477,35.655l-16.573,66.571
			c-5.928-2.244-10.821-4.191-18.007-7.138l10.21-33.791C711.923,411.169,704.092,396.249,690.322,389.9z M633.547,446.79
			c-3.01-1.507-5.386-2.721-9.199-4.694c-0.352-0.183-0.759-0.216-1.135-0.091c-0.375,0.124-0.686,0.393-0.859,0.749l-0.322,0.655
			c-9.372-4.862-14.441-7.598-23.564-12.722l7.696-13.447c2.693,1.499,4.358,2.413,7.362,4.043
			c10.253,5.605,15.532,8.378,25.567,13.405L633.547,446.79z M670.181,443.181c-3.306-1.502-5.137-2.345-8.12-3.743l7.308-18.056
			c0.543-1.341,1.597-2.356,3.048-2.935c1.999-0.797,4.462-0.654,6.757,0.389c4.177,1.898,6.595,6.235,5.389,9.664l-6.418,18.251
			C675.276,445.486,673.424,444.656,670.181,443.181z M680.568,448.712l6.765-19.238c1.727-4.91-1.324-10.755-6.943-13.311
			c-3.025-1.376-6.327-1.536-9.062-0.443c-2.18,0.87-3.842,2.488-4.681,4.562l-7.692,19.002c-0.476,0.212-0.94,0.419-1.393,0.619
			l9.544-22.982c0.837-2.017,2.431-3.536,4.608-4.393c2.88-1.14,6.394-0.942,9.642,0.532c5.957,2.708,9.405,9.007,7.687,14.043
			l-7.896,23.111C680.959,449.729,680.765,449.224,680.568,448.712z M682.8,454.461l9.02-26.409
			c2.23-6.533-1.832-14.294-9.248-17.663c-3.965-1.803-8.316-2.017-11.934-0.594c-2.894,1.14-5.111,3.271-6.245,6.001l-10.72,25.815
			c-2.413,1.048-4.599,1.97-6.868,2.897l15.521-35.548c1.475-3.379,4.187-5.906,7.843-7.308c4.608-1.768,10.146-1.467,15.187,0.825
			c9.38,4.264,14.85,14.45,12.193,22.705l-11.782,36.622C684.774,459.42,683.828,457.076,682.8,454.461z M690.508,472.821
			c-1.13-2.565-2.102-4.794-2.991-6.871l12.827-39.868c3.15-9.791-2.899-21.332-13.773-26.277
			c-5.754-2.613-12.117-2.942-17.454-0.894c-4.344,1.666-7.711,4.817-9.482,8.875l-16.713,38.283
			c-1.838,0.727-3.818,1.495-6.079,2.363c-0.229-0.113-0.446-0.222-0.665-0.33l21.252-46.379
			c6.083-12.066,20.876-14.133,31.662-9.157c12.51,5.768,19.645,19.232,16.617,31.255l-14.851,49.145
			C690.74,472.917,690.628,472.871,690.508,472.821z M732.436,474.611l-3.224,15.516c-9.85-3.504-15.238-5.521-25.031-9.374
			l0.248-0.91c0.197-0.723-0.18-1.479-0.877-1.754c-4.131-1.628-6.668-2.644-9.968-3.999l3.889-12.869
			c10.331,4.231,15.923,6.397,26.91,10.444C727.654,472.879,729.48,473.549,732.436,474.611z M723.834,468.332
			c-1.689-0.624-3.257-1.206-4.733-1.759l16.566-66.538c1.193,0.461,2.377,0.933,3.575,1.39L723.834,468.332z M742.347,399.462
			l-0.88-0.323c-0.004-0.002-0.009-0.002-0.014-0.003c-32.161-12.224-62.561-26.038-92.931-42.234
			c-0.002-0.001-0.003-0.003-0.005-0.004l-1-0.549l3.675-6.652c30.307,16.221,60.707,30.034,92.845,42.185L742.347,399.462z
			 M757.218,393.431c-4.043-1.388-6.489-2.255-10.961-3.883c-0.088-0.032-0.179-0.053-0.27-0.067
			c-32.807-12.357-63.784-26.441-94.686-43.053c-4.206-2.32-6.472-3.596-10.299-5.803l0.678-1.127
			c2.144,1.234,3.568,2.045,6.048,3.436c0.427,0.238,0.94,0.25,1.377,0.033c3.346-1.677,4.981-2.52,8.327-4.29
			c0.253-0.136,0.461-0.34,0.599-0.59l1.468-2.665c0.516,0.275,1.146,0.22,1.606-0.147c0.462-0.369,0.658-0.98,0.496-1.551
			c-0.249-0.873-0.07-1.991,0.479-2.987c0.808-1.467,2.03-2.135,2.825-2.135c0.21,0,0.401,0.045,0.565,0.137
			c0.837,0.454,1.123,2.194,0.193,3.965c-0.527,1.006-1.356,1.768-2.213,2.033c-0.563,0.175-0.967,0.673-1.024,1.26
			s0.241,1.15,0.759,1.432l-1.422,2.706c-0.131,0.251-0.188,0.538-0.161,0.821c0.359,3.768,0.553,5.597,0.989,9.316
			c0.058,0.487,0.354,0.912,0.789,1.135c23.256,11.933,46.369,22.439,70.662,32.116c0.5,0.2,1.074,0.109,1.487-0.241
			c2.772-2.331,4.102-3.476,6.771-5.836c0.225-0.197,0.384-0.46,0.454-0.75l0.699-2.854c0.52,0.113,1.057-0.058,1.413-0.459
			c0.402-0.454,0.484-1.108,0.207-1.648c-0.468-0.908-0.575-2.15-0.288-3.32c0.125-0.509,0.312-0.944,0.529-1.314
			c0.862-0.122,1.714-0.37,2.553-0.75c0.627,0.768,0.989,2.262,0.638,3.832c-0.25,1.115-0.815,2.015-1.513,2.41
			c-0.499,0.279-0.789,0.826-0.742,1.397c0.046,0.569,0.421,1.062,0.959,1.259l0.146,0.055l-0.721,3.222
			c-0.058,0.255-0.045,0.521,0.035,0.77c1.223,3.794,1.845,5.661,3.174,9.515c0.145,0.423,0.475,0.757,0.896,0.905
			c2.738,0.974,4.296,1.519,6.727,2.354L757.218,393.431z"/>
		
			<rect x="721.077" y="338.677" transform="matrix(0.9305 0.3664 -0.3664 0.9305 177.9749 -240.7686)" fill="#FFFFFF" width="4.358" height="19.574"/>
		<path fill="#FFFFFF" d="M754.213,332.785l1.496-3.801c-6.216-2.231-13.19,2.711-17.931,14.678l4.203,1.654
			C745.868,335.539,750.564,331.374,754.213,332.785z"/>
		<path fill="#FFFFFF" d="M711.066,336.955l1.496-3.802c-6.217-2.231-13.191,2.711-17.932,14.678l4.204,1.655
			C702.72,339.708,707.415,335.543,711.066,336.955z"/>
		<path fill="#FFFFFF" d="M779.103,359.929c-3.65,9.196-7.992,14.2-12.257,12.521l-0.035-0.021c-3.78-1.531-4.135-7.87-0.419-17.312
			c0.025-0.062,0.051-0.106,0.071-0.162l-4.198-1.653c-0.014,0.034-0.032,0.071-0.047,0.105c-4.648,12.093-3.172,20.374,2.89,22.76
			c0.068,0.026,0.139,0.038,0.207,0.064c6.726,2.491,13.173-2.677,17.982-14.65L779.103,359.929z"/>
	</g>
	<g id="g9239" transform="translate(338.0334,187.0062)">
		<g id="path9241">
			<path fill="#407FA2" d="M128.717,142.83l8.25-10.539l-2.347-1.836l-8.25,10.538L128.717,142.83z"/>
		</g>
	</g>
	<g id="g9243" transform="translate(348.1858,181.4441)">
		<g id="path9245">
			<path fill="#407FA2" d="M131.255,155.344l-1.719,2.196c3.916,2.901,9.134,0.76,14.601-6.125l-2.422-1.897
				C137.536,154.818,133.729,157.25,131.255,155.344"/>
		</g>
	</g>
	<g id="g9247" transform="translate(348.7572,192.2083)">
		<g id="path9249">
			<path fill="#407FA2" d="M131.397,131.125l2.433,1.903c4.453-5.649,8.342-7.463,10.458-5.826l1.722-2.199
				C142.371,122.327,136.838,124.208,131.397,131.125"/>
		</g>
	</g>
	<g id="g9251" transform="translate(325.4864,196.7531)">
		<g id="path9253">
			<path fill="#407FA2" d="M125.579,120.899l2.433,1.903c4.453-5.65,8.343-7.464,10.458-5.826l1.723-2.2
				C136.554,112.101,131.02,113.981,125.579,120.899"/>
		</g>
	</g>
	<g id="g9255" transform="translate(367.8841,177.2345)">
		<g id="path9257">
			<path fill="#407FA2" d="M136.18,164.816c-4.186,5.314-8.006,7.747-10.475,5.814l-0.017-0.02c-2.181-1.74-1.177-5.964,3.1-11.427
				c0.028-0.036,0.054-0.062,0.079-0.094l-2.429-1.901c-0.017,0.021-0.036,0.04-0.052,0.061c-5.403,7.018-6.051,12.732-2.545,15.478
				c0.04,0.031,0.084,0.052,0.124,0.083c3.921,2.943,9.153,0.814,14.641-6.095L136.18,164.816z"/>
		</g>
	</g>
	<g id="g9279" transform="translate(456.0916,174.4615)">
		<g id="path9281">
			<path fill="#407FA2" d="M155.038,175.536l-17.719-15.232l3.898-4.535l17.719,15.232L155.038,175.536z M138.729,160.198
				l16.202,13.929l2.595-3.019l-16.202-13.929L138.729,160.198z"/>
		</g>
	</g>
	<g id="g9283" transform="translate(466.1557,190.9852)">
		<g id="path9285">
			<path fill="#407FA2" d="M164.346,137.629l-4.301-3.696l0.32-0.379c3.002-3.546-0.148-9.657-8.87-17.208l-0.377-0.326l4.006-4.661
				l0.379,0.331c11.301,9.853,14.556,18.924,9.167,25.541L164.346,137.629z M161.433,133.808l2.776,2.386
				c4.481-6.03,1.309-14.312-8.985-23.418l-2.699,3.142C161.152,123.487,164.293,129.804,161.433,133.808z"/>
		</g>
	</g>
	<g id="g9287" transform="translate(448.2283,192.7641)">
		<g id="path9289">
			<path fill="#407FA2" d="M156.318,130.581l-0.38-0.327c-10.833-9.355-14.344-19.148-9.164-25.559l0.323-0.4l4.311,3.702
				l-0.322,0.379c-2.877,3.387,0.522,9.979,8.872,17.206l0.377,0.326L156.318,130.581z M147.238,105.733
				c-4.276,5.881-0.88,14.775,8.977,23.434l2.713-3.156c-8.245-7.25-11.602-14.014-8.907-17.888L147.238,105.733z"/>
		</g>
	</g>
	<g id="g9291" transform="translate(438.8571,154.2608)">
		<g id="path9293">
			<path fill="#407FA2" d="M153.975,217.213l-0.38-0.327c-10.833-9.354-14.345-19.147-9.164-25.559l0.324-0.4l4.309,3.704
				l-0.322,0.378c-2.876,3.387,0.523,9.979,8.873,17.205l0.377,0.326L153.975,217.213z M144.895,192.365
				c-4.277,5.882-0.881,14.776,8.977,23.434l2.713-3.156c-8.245-7.249-11.602-14.013-8.908-17.887L144.895,192.365z"/>
		</g>
	</g>
	<g id="g9295" transform="translate(474.6935,223.5497)">
		<g id="path9297">
			<path fill="#407FA2" d="M167.641,85.595c-5.245,0-11.63-3.056-18.465-8.836l-0.413-0.4l0.262-0.397l3.685-4.29l0.476,0.413
				c5.758,4.954,10.896,7.654,14.521,7.654c1.562,0,2.797-0.505,3.671-1.501l0.098-0.089c2.979-3.478-0.166-9.596-8.92-17.164
				l-0.377-0.326l4.012-4.666l0.379,0.331c11.341,9.887,14.576,18.98,9.11,25.605c-0.081,0.113-0.116,0.163-0.157,0.21
				C173.58,84.399,170.854,85.595,167.641,85.595z M150.108,76.234c6.542,5.471,12.6,8.36,17.533,8.36
				c2.954,0,5.352-1.047,7.126-3.111c0.072-0.104,0.108-0.155,0.15-0.203c4.997-6.057,1.935-14.528-8.627-23.871l-2.705,3.146
				c8.951,7.842,11.999,14.334,8.582,18.309l-0.101,0.092c-1.01,1.163-2.497,1.782-4.36,1.782c-3.815,0-9.098-2.715-14.894-7.653
				L150.108,76.234z"/>
		</g>
	</g>
</g>
</svg>
