<?xml version="1.0" encoding="utf-8"?>
<!-- Generator: Adobe Illustrator 16.0.0, SVG Export Plug-In . SVG Version: 6.00 Build 0)  -->
<!DOCTYPE svg PUBLIC "-//W3C//DTD SVG 1.1//EN" "http://www.w3.org/Graphics/SVG/1.1/DTD/svg11.dtd">
<svg version="1.1" xmlns="http://www.w3.org/2000/svg" xmlns:xlink="http://www.w3.org/1999/xlink" x="0px" y="0px" width="1000px"
	 height="600px" viewBox="0 0 1000 600" enable-background="new 0 0 1000 600" xml:space="preserve">
<g id="Layer_2">
	<path fill="#407FA2" d="M229.671,590.102l599.068-84.194V104.835c0.017-8.255-4.034-14.965-10.108-18.207
		c0.042,0.022,0.087,0.041,0.129,0.063c-25.623-13.935-51.25-27.877-76.873-41.804c-3.296-1.807-7.227-2.565-11.409-1.985
		L174.302,121.07c-0.975,0.141-1.915,0.367-2.84,0.627c-0.24,0.069-0.47,0.148-0.711,0.216c-0.836,0.272-1.66,0.577-2.445,0.944
		c-0.077,0.025-0.154,0.052-0.229,0.077c-0.013,0.018-0.038,0.031-0.063,0.049c-0.203,0.091-0.395,0.197-0.584,0.3
		c-0.432,0.215-0.861,0.443-1.292,0.689c-0.255,0.148-0.482,0.311-0.723,0.465c-0.267,0.17-0.546,0.329-0.812,0.505
		c-0.063,0.046-0.112,0.101-0.176,0.147c-0.799,0.564-1.561,1.172-2.308,1.826c-0.037,0.039-0.087,0.064-0.114,0.095
		c-0.127,0.101-0.216,0.222-0.317,0.323c-0.546,0.508-1.066,1.033-1.573,1.584c-0.101,0.11-0.215,0.203-0.316,0.317
		c-0.089,0.098-0.152,0.204-0.229,0.298c-0.545,0.628-1.062,1.282-1.558,1.967c-0.052,0.068-0.103,0.132-0.153,0.195
		c-0.013,0.025-0.025,0.039-0.039,0.051c-0.557,0.818-1.079,1.667-1.561,2.536c-0.049,0.089-0.113,0.172-0.165,0.267
		c-0.139,0.272-0.267,0.538-0.405,0.811c-0.114,0.235-0.228,0.468-0.342,0.71c-0.23,0.483-0.431,0.971-0.621,1.472
		c-0.077,0.176-0.154,0.362-0.228,0.545c-0.014,0.031-0.027,0.062-0.039,0.087c-0.127,0.362-0.228,0.741-0.354,1.122
		c-0.116,0.331-0.229,0.661-0.319,0.996c-0.127,0.462-0.228,0.939-0.329,1.418c-0.064,0.282-0.139,0.559-0.202,0.839
		c-0.103,0.569-0.166,1.147-0.243,1.724c-0.023,0.197-0.063,0.387-0.074,0.588c-0.077,0.787-0.114,1.574-0.114,2.359V548.29
		L229.671,590.102 M807.322,84.719"/>
</g>
<g id="svg9415" xmlns:cc="http://creativecommons.org/ns#" xmlns:dc="http://purl.org/dc/elements/1.1/" xmlns:svg="http://www.w3.org/2000/svg" xmlns:rdf="http://www.w3.org/1999/02/22-rdf-syntax-ns#">
	<path fill="#407FA2" d="M898.635,199.426l-35.197-82.769c-0.312-0.732-0.901-1.311-1.639-1.608
		c-0.739-0.298-1.565-0.29-2.297,0.021l-31.035,13.203c-0.038,0.182-0.086,0.367-0.146,0.556c-1.381,4.391-1.103,8.832-0.907,13.374
		c0.168,3.914-0.068,7.786-0.062,11.697c0.016,9.384,0.184,18.771,0.257,28.156c0.066,8.516-0.187,17.029-0.168,25.542l6.793,15.962
		l-6.637,2.823c-0.012,2.193-0.053,4.386-0.135,6.578l69.586-29.601C898.573,202.712,899.283,200.95,898.635,199.426z
		 M889.401,200.093l-32.858-77.243l2.547-1.083l32.85,77.247L889.401,200.093z"/>
	<path fill="none" stroke="#407FA2" stroke-width="1.5" stroke-miterlimit="10" d="M835.408,226.32l-7.967-18.724
		c0.003,1.067-0.007,2.134,0.006,3.201c0.074,6.29,0.23,12.579,0.109,18.863L835.408,226.32z"/>
	<path fill="#407FA2" d="M868.88,208.271l-3.803-8.977l-3.678,1.542l-14.605-34.31l1.154-0.495l-2.182-5.142l6.087-2.592
		l-0.89-2.079l-3.854,1.648l-4.02-2.764l-0.937-2.198l-0.687,0.291c0.229-0.607,0.215-1.414-0.112-2.188
		c-0.559-1.306-1.764-2.042-2.702-1.648c-0.937,0.406-1.242,1.774-0.684,3.087c0.328,0.78,0.887,1.345,1.494,1.604l-0.696,0.292
		l0.939,2.199l-0.787,4.814l-11.479,4.88c0.058,5.274,0.127,10.549,0.168,15.822c0.075,9.582-0.275,19.162-0.162,28.741
		c0.055,4.589,0.156,9.178,0.159,13.765l3.998-1.696v-0.021l0.074-0.037l2.6-12.045l3.805-1.623l3.88-1.648l10.512,6.498
		l5.286-2.257l0.469,1.091l10.575-4.494l-0.014-0.02L868.88,208.271z"/>
	<path fill="none" stroke="#FFFFFF" stroke-miterlimit="10" d="M828.488,168.259c5.76-2.45,11.519-4.9,17.278-7.351"/>
	<path fill="#FFFFFF" d="M869.34,208.076l-3.803-8.977c-0.106-0.254-0.4-0.375-0.653-0.266l-3.219,1.349l-14.216-33.394l0.696-0.299
		c0.253-0.108,0.37-0.401,0.263-0.655l-1.986-4.682l5.628-2.396c0.122-0.052,0.218-0.15,0.268-0.273
		c0.05-0.124,0.048-0.261-0.004-0.383l-0.89-2.079c-0.077-0.181-0.252-0.289-0.437-0.299c2.599-2.616,2.553-7.583-0.301-14.295
		c-3.246-7.621-7.608-11.076-11.893-9.244c-4.146,1.758-5.213,7.433-1.801,15.465c0.265,0.608,0.538,1.178,0.815,1.73
		c-0.674,0.743-0.828,2.019-0.3,3.261c0.221,0.523,0.541,0.979,0.926,1.329c-0.057,0.051-0.102,0.114-0.131,0.186
		c-0.05,0.124-0.048,0.262,0.004,0.384l0.883,2.066l-0.72,4.398l-4.973,2.114c2.505-2.638,2.421-7.576-0.398-14.201
		c-1.675-3.937-3.648-6.752-5.755-8.313c0.022,0.533,0.046,1.066,0.069,1.602c0.038,0.881,0.05,1.759,0.055,2.637
		c1.02,1.377,2.005,3.206,2.931,5.392c2.6,6.112,2.903,10.55,0.077,11.754c-0.957,0.406-2.006,0.24-3.082-0.462
		c0.01,1.045,0.021,2.09,0.031,3.134c0.56,0.194,1.118,0.309,1.672,0.329l-1.661,0.706c0.004,0.361,0.007,0.722,0.011,1.082
		l11.668-4.961c0.158-0.067,0.271-0.21,0.298-0.379l0.787-4.814c0.016-0.094,0.004-0.189-0.033-0.277l-0.742-1.736l0.232-0.098
		c0.186-0.078,0.306-0.258,0.307-0.459c0.001-0.201-0.119-0.382-0.304-0.461c-0.517-0.22-0.965-0.708-1.23-1.34
		c-0.29-0.683-0.307-1.379-0.1-1.866c2.158,3.929,4.628,6.243,7.069,6.913l1.428,0.981c0.141,0.096,0.322,0.114,0.479,0.048
		l3.395-1.452l0.496,1.159l-5.627,2.396c-0.254,0.108-0.372,0.401-0.264,0.655l1.986,4.683l-0.695,0.299l-0.001-0.001l-19.065,8.111
		c0.004,0.36,0.008,0.721,0.012,1.081l15.993-6.804l14.203,33.398l-7.658,3.261l-7.316-17.2c-2.534-5.938-9.119-8.932-15.168-7.147
		c0.001,0.171,0.004,0.343,0.005,0.515c5.848-1.797,12.25,1.083,14.703,6.829l10.684,25.119l-0.472,0.202l-3.318-2.051
		l-8.527-20.041c-0.976-2.294-2.79-4.073-5.107-5.008c-2.317-0.936-4.858-0.914-7.15,0.063c-0.279,0.119-0.549,0.252-0.81,0.395
		c-0.001,0.193,0,0.388-0.001,0.581c0.321-0.188,0.653-0.366,1.006-0.516c2.17-0.924,4.573-0.944,6.769-0.059
		c2.193,0.885,3.91,2.568,4.833,4.739l8.25,19.389l-4.061-2.51l-5.667-13.302c-0.633-1.494-1.812-2.653-3.319-3.262
		c-1.512-0.61-3.169-0.595-4.666,0.042c-1.466,0.623-2.601,1.775-3.218,3.241c-0.021,1.534-0.033,3.068-0.052,4.603
		c0.02,0.048,0.033,0.097,0.054,0.144l5.694,13.397l-1.01,4.676l-4.775-11.221c0,0.428,0.001,0.855,0.002,1.283l4.591,10.786
		l-0.795,3.681l-0.537,0.228l-3.192-7.505c0.007,0.442,0.014,0.884,0.021,1.326l2.711,6.375l-2.637,1.119
		c0.001,0.362,0.002,0.725,0.001,1.086l4.195-1.78c0.05-0.021,0.095-0.052,0.135-0.088c0.119-0.071,0.203-0.188,0.232-0.324
		l2.546-11.792l7.207-3.068l10.292,6.361c0.139,0.085,0.31,0.099,0.459,0.035l4.827-2.062l0.272,0.632
		c0.108,0.253,0.404,0.372,0.654,0.263L869,208.789c0.049-0.021,0.093-0.05,0.131-0.086
		C869.347,208.578,869.439,208.31,869.34,208.076z M848.062,154.499c-2.512,1.07-5.644-1.77-8.292-7.987
		c-2.777-6.53-2.486-10.734-0.077-11.761c2.853-1.21,5.794,2.104,8.292,8.002C850.585,148.87,850.89,153.3,848.062,154.499z
		 M834.241,210.234l-4.119-9.687c-0.415-0.975-0.425-2.054-0.028-3.038c0.397-0.983,1.153-1.754,2.128-2.168
		c2.01-0.856,4.342,0.086,5.2,2.098l4.115,9.689L834.241,210.234z M842.226,207.066c-0.061-0.038-0.129-0.055-0.198-0.064
		l-4.146-9.758c-0.969-2.266-3.592-3.327-5.855-2.362c-1.098,0.467-1.949,1.334-2.396,2.441c-0.447,1.108-0.437,2.323,0.03,3.42
		l4.175,9.818c-0.015,0.032-0.038,0.06-0.046,0.095l-0.382,1.767l-5.417-12.744c-0.586-1.371-0.602-2.89-0.044-4.275
		c0.558-1.387,1.621-2.472,2.995-3.056c1.377-0.586,2.896-0.599,4.283-0.039c1.384,0.559,2.466,1.622,3.046,2.994l5.389,12.649
		L842.226,207.066z M844.456,168.061l2.073-0.882l14.215,33.393l-2.085,0.888L844.456,168.061z M858.492,212.167l-0.272-0.633
		c-0.107-0.253-0.402-0.37-0.655-0.263l-4.115,1.758l-2.977-6.998l11.124-4.736l-0.001-0.001l3.216-1.347l3.423,8.081
		L858.492,212.167z"/>
	<path fill="#FFFFFF" d="M827.373,333.783c-0.082,12.791-0.168,25.582-0.193,38.374c0.814,0.889,1.32,2.063,1.32,3.343
		c0,1.35-0.56,2.585-1.453,3.492c-1.091,5.109-9.375,4.894-9.855-0.646c-0.504-0.052-0.993-0.179-1.453-0.388
		c-0.213,7.374-0.295,14.752-0.128,22.124c2.673-2.17,8.131-0.909,8.556,3.752c0.776,8.532,0.589,16.756,2.466,25.142
		c0.453,2.024,0.854,4.158,0.967,6.26l36.324,18.857l41.437-79.822L827.373,333.783z"/>
	<path fill="#407FA2" d="M906.741,371.608l-79.348-41.193c-0.014,2.246-0.026,4.492-0.041,6.738l39.924,20.727l-38.681,74.493
		l-1.43-0.742c0.405,2.314,0.623,4.686,0.324,6.929l35.051,18.196c0.431,0.224,0.905,0.337,1.382,0.337
		c0.305,0,0.609-0.046,0.905-0.14c0.759-0.24,1.391-0.771,1.758-1.479l41.437-79.822
		C908.785,374.183,908.212,372.371,906.741,371.608z M862.643,450.048l-32.716-16.983l0.958-1.844l15.312,7.955l5.388-10.359
		l-15.32-7.957l32.344-62.288l32.706,16.979L862.643,450.048z"/>
	<polygon fill="#407FA2" points="861.68,440.634 862.554,441.09 864.608,437.135 863.721,436.672 	"/>
	<path fill="#407FA2" d="M859.157,435.183l0.418-0.825c-1.457-0.711-3.031,0.304-4.399,2.896l0.911,0.479
		C857.114,435.732,858.217,434.707,859.157,435.183z"/>
	<path fill="#407FA2" d="M855.758,441.698l-0.42,0.831c1.345,0.648,3.044-0.304,4.402-2.903l-0.913-0.476
		C857.725,441.274,856.557,442.105,855.758,441.698z"/>
	<path fill="#407FA2" d="M854.325,431.62c-0.025-0.007-0.037-0.015-0.051-0.02c-1.457-0.725-3.055,0.298-4.424,2.896l0.912,0.47
		c1.051-1.998,2.143-3.031,3.08-2.542c0.824,0.438,0.749,1.883-0.316,3.937c0,0.012-0.011,0.02-0.011,0.031l0.911,0.476
		c0-0.013,0-0.019,0.012-0.024C855.77,434.217,855.631,432.304,854.325,431.62z"/>
	<path fill="#407FA2" d="M827.35,337.705c-0.024,3.659-0.049,7.317-0.071,10.977l1.536,0.79l0.013-0.021l0.088,0.046l4.489-8.646
		L827.35,337.705z"/>
	<path fill="none" stroke="#FFFFFF" stroke-linejoin="round" stroke-miterlimit="10" d="M827.35,337.705
		c-0.024,3.659-0.049,7.317-0.071,10.977l1.536,0.79l0.013-0.021l0.088,0.046l4.489-8.646L827.35,337.705z"/>
	<path fill="none" stroke="#FFFFFF" stroke-width="0.5" stroke-miterlimit="10" d="M806.119,340.523
		c-1.625,3.129-6.473,16.167-11.668,9.554c-2.874-3.657,2.943-11.042,4.655-14.338"/>
	<path fill="#FFFFFF" d="M827.445,321.785c-0.082,15.598-0.212,31.194-0.258,46.792l75.114-10.946l-12.97-89.001l-61.717,8.997
		C828.312,292.299,827.521,307.174,827.445,321.785z"/>
	<path fill="none" stroke="#407FA2" stroke-width="6" stroke-linejoin="round" stroke-miterlimit="10" d="M827.445,321.785
		c-0.082,15.598-0.212,31.194-0.258,46.792l75.114-10.946l-12.97-89.001l-61.717,8.997
		C828.312,292.299,827.521,307.174,827.445,321.785z"/>
	<path fill="#407FA2" d="M883.665,269.63l-56.043,8.167c0.375,8.028,0.31,16.116,0.159,24.188l9.49,65.122l59.339-8.646
		L883.665,269.63z"/>
	<path fill="none" stroke="#407FA2" stroke-width="1.5" stroke-miterlimit="10" d="M827.781,301.985
		c-0.123,6.625-0.302,13.239-0.336,19.8c-0.082,15.599-0.212,31.195-0.258,46.794l10.085-1.471L827.781,301.985z"/>
	<path fill="#407FA2" d="M872.849,348.531l-3.942,0.554l-5.389-36.902l1.242-0.179l-0.798-5.54l6.543-0.945l-0.331-2.238
		l-4.144,0.604l-3.186-3.696l-0.343-2.358l-0.733,0.103c0.378-0.528,0.558-1.306,0.441-2.144c-0.213-1.408-1.189-2.428-2.19-2.282
		c-1.003,0.151-1.651,1.408-1.448,2.814c0.114,0.832,0.522,1.528,1.029,1.928l-0.737,0.114l0.345,2.358l-1.992,4.451l-29.586,4.312
		c-0.085,4.114-0.163,8.219-0.185,12.302c-0.075,14.423-0.195,28.845-0.25,43.267l1.772-0.258v-0.014l0.089-0.018l-0.165-1.148
		l5.591-0.817v-0.019l0.089-0.014l5.592-10.993l4.082-0.594l4.173-0.609l8.521,8.958l5.68-0.832l0.164,1.174l11.373-1.661v-0.02
		l0.101-0.013L872.849,348.531z"/>
	<path fill="#FFFFFF" d="M873.344,348.459c-0.041-0.272-0.298-0.459-0.564-0.423l-3.45,0.484l-5.244-35.914l0.746-0.107
		c0.131-0.02,0.25-0.09,0.329-0.195c0.079-0.106,0.113-0.24,0.095-0.371l-0.727-5.045l6.048-0.874c0.132-0.02,0.25-0.09,0.33-0.196
		c0.079-0.106,0.112-0.24,0.093-0.372l-0.331-2.238c-0.04-0.273-0.3-0.453-0.566-0.422l-3.872,0.564l-2.911-3.378l-0.321-2.214
		c-0.031-0.216-0.196-0.379-0.398-0.419c0.146-0.497,0.185-1.055,0.105-1.625c-0.252-1.666-1.455-2.898-2.759-2.702
		c-1.294,0.195-2.114,1.68-1.869,3.377c0.076,0.555,0.274,1.085,0.562,1.527c-0.188,0.094-0.302,0.301-0.271,0.52l0.324,2.214
		l-1.82,4.067l-29.232,4.261c-0.007,0.338-0.014,0.676-0.021,1.014l29.669-4.324c0.169-0.025,0.314-0.135,0.384-0.291l1.992-4.451
		c0.039-0.087,0.053-0.183,0.039-0.276l-0.273-1.868l0.247-0.038c0.197-0.03,0.356-0.175,0.407-0.367s-0.018-0.396-0.174-0.52
		c-0.438-0.345-0.753-0.945-0.844-1.607c-0.161-1.111,0.311-2.141,1.025-2.249c0.708-0.101,1.455,0.753,1.623,1.856
		c0.094,0.677-0.038,1.344-0.353,1.784c-0.116,0.163-0.125,0.379-0.021,0.55c0.104,0.17,0.293,0.266,0.497,0.236l0.241-0.034
		l0.271,1.866c0.014,0.094,0.055,0.183,0.116,0.254l3.186,3.696c0.111,0.13,0.275,0.188,0.451,0.169l3.649-0.532l0.185,1.249
		l-6.046,0.873c-0.042,0.006-0.077,0.025-0.114,0.041l-36.184,5.271c-0.007,0.338-0.013,0.676-0.02,1.014l35.969-5.24l0.651,4.525
		l-0.747,0.107h-0.001l-35.949,5.241c-0.005,0.338-0.011,0.676-0.015,1.013l32.402-4.724l5.235,35.912l-8.255,1.203l-2.698-18.49
		c-0.481-3.325-2.235-6.268-4.939-8.283c-2.704-2.017-6.021-2.863-9.354-2.375c-6.873,1.001-11.655,7.409-10.659,14.286
		l2.698,18.499l-4.666,0.681c-0.002,0.337-0.004,0.675-0.005,1.012l4.814-0.702l1.098,7.525l-4.334,0.634
		c-0.272,0.04-0.462,0.293-0.423,0.566l0.097,0.672l-1.296,0.188c-0.002,0.337-0.002,0.675-0.003,1.012l1.846-0.269
		c0.046-0.007,0.091-0.021,0.132-0.04c0.251-0.059,0.417-0.3,0.38-0.558l-0.095-0.654l5.098-0.745
		c0.047-0.007,0.092-0.021,0.134-0.041c0.142-0.034,0.262-0.129,0.328-0.26l5.475-10.763l7.743-1.128l8.342,8.771
		c0.111,0.117,0.273,0.167,0.435,0.15l5.182-0.76l0.095,0.676c0.019,0.132,0.089,0.251,0.195,0.331
		c0.106,0.079,0.24,0.112,0.372,0.095l11.373-1.661c0.043-0.007,0.085-0.019,0.123-0.036c0.12-0.023,0.229-0.091,0.304-0.188
		c0.081-0.107,0.115-0.242,0.097-0.375L873.344,348.459z M860.874,313.073l2.221-0.323l5.244,35.911l-2.229,0.325L860.874,313.073z
		 M840.26,351.252l-1.524-10.418c-0.309-2.166,1.195-4.181,3.354-4.492c2.15-0.316,4.172,1.182,4.494,3.345l1.514,10.423
		L840.26,351.252z M848.78,350.224c-0.05-0.053-0.112-0.087-0.178-0.112l-1.524-10.498c-0.362-2.437-2.633-4.136-5.062-3.766
		c-2.431,0.351-4.124,2.619-3.775,5.058l1.546,10.56c-0.023,0.027-0.053,0.048-0.069,0.08l-0.829,1.631l-2.004-13.719
		c-0.438-3.054,1.685-5.898,4.733-6.341c1.479-0.21,2.953,0.16,4.152,1.057c1.196,0.895,1.972,2.197,2.184,3.669l1.989,13.604
		L848.78,350.224z M850.539,352.073l-2.091-14.303c-0.23-1.604-1.075-3.024-2.378-3.998c-1.307-0.977-2.91-1.39-4.524-1.15
		c-3.32,0.481-5.634,3.58-5.155,6.906l2.105,14.418l-2.173,4.271l-3.052-20.974c-0.34-2.338,0.252-4.67,1.666-6.566
		s3.48-3.127,5.818-3.465c2.334-0.34,4.665,0.246,6.559,1.657c1.896,1.412,3.127,3.478,3.467,5.816l3.045,20.842L850.539,352.073z
		 M857.122,358.994l-2.7-2.839l-3.146-21.541c-0.358-2.471-1.659-4.653-3.662-6.146c-2.002-1.49-4.465-2.113-6.93-1.75
		c-2.47,0.356-4.652,1.656-6.146,3.66s-2.119,4.467-1.76,6.938l3.153,21.673l-1.698,3.339l-0.585,0.086l-3.939-27.016
		c-0.956-6.604,3.637-12.758,10.237-13.72c3.201-0.466,6.387,0.346,8.982,2.281c2.597,1.937,4.281,4.762,4.744,7.955l3.941,27.007
		L857.122,358.994z M863.208,359.301l-0.095-0.676c-0.019-0.132-0.089-0.251-0.195-0.331c-0.106-0.079-0.24-0.109-0.372-0.095
		l-4.438,0.65l-1.099-7.526l11.964-1.743h0.003l3.45-0.484l1.266,8.674L863.208,359.301z"/>
	
		<path id="path9763" display="none" fill="none" stroke="#000000" stroke-width="10" stroke-linecap="round" stroke-miterlimit="10" d="
		M229.671,590.102v-401.07c0.026-12.725,9.7-24.492,21.491-26.151l564.604-79.099"/>
	<path fill="#FFFFFF" d="M339.51,123.868c15.728-2.133,31.502-3.942,47.314-5.197l5.19-40.475L302.805,66.76l-8.18,63.783
		C309.568,128.197,324.52,125.901,339.51,123.868z"/>
	<path fill="none" stroke="#407FA2" stroke-width="1.5" stroke-miterlimit="10" d="M339.51,123.868
		c15.725-2.133,31.497-3.942,47.307-5.197l0.024-0.187l-89.196-11.442l-3.012,23.5C309.573,128.196,324.522,125.901,339.51,123.868z
		"/>
	<path id="path9795" fill="#407FA2" d="M375.722,84.378l4.423,0.57l0.127-0.988l-4.411-0.566L375.722,84.378z"/>
	<path id="path9799" fill="#407FA2" d="M375.898,89.194l-0.925-0.114c-0.152,1.612,1.33,2.739,4.248,3.138l0.126-1.02
		C377.115,90.908,375.771,90.228,375.898,89.194"/>
	<path id="path9803" fill="#407FA2" d="M379.869,87.116l-0.127,1.015c2.383,0.304,3.549,1.113,3.447,2.002l0.926,0.12
		C384.256,88.752,382.771,87.491,379.869,87.116"/>
	<path id="path9807" fill="#407FA2" d="M378.586,97.145c-2.23-0.298-3.587-0.983-3.448-2.014v-0.007
		c0.128-0.92,1.508-1.352,3.804-1.06c0.012,0,0.025,0.008,0.038,0.014l0.128-1.014c0-0.008-0.014-0.014-0.027-0.008
		c-2.917-0.355-4.666,0.432-4.869,1.897c0.013,0.016,0,0.037,0,0.056c-0.166,1.616,1.332,2.751,4.234,3.151L378.586,97.145z"/>
	<path fill="#FFFFFF" d="M695.576,73.405c8.174-1.543,16.171-3.938,24.318-5.62c2.714-0.561,5.523-1.15,8.372-1.639l-51.118-41.779
		l-47.583,58.229C651.513,79.189,673.709,77.534,695.576,73.405z"/>
	<path fill="#407FA2" d="M695.576,73.405c8.174-1.543,16.171-3.938,24.318-5.62c0.34-0.07,0.684-0.142,1.026-0.212l-45.092-36.849
		l1.744-2.135l46.831,38.275c2.583-0.512,5.22-0.983,7.869-1.317l-53.227-43.502c-0.616-0.504-1.41-0.745-2.198-0.662
		c-0.792,0.08-1.52,0.47-2.023,1.086l-49.722,60.846C648.501,79.4,672.227,77.814,695.576,73.405z"/>
	<path fill="none" stroke="#407FA2" stroke-width="1.5" stroke-miterlimit="10" d="M642.324,80.781l-6.763-5.526l-6,7.342
		C633.808,81.938,638.062,81.339,642.324,80.781z"/>
	<path fill="#407FA2" d="M673.129,65.569c0.658,0.53,1.42,0.772,2.065,0.714l-0.468,0.584l1.851,1.515l1.534,4.627l-2.978,3.643
		c4.431-0.603,8.854-1.255,13.268-1.986l-0.908-0.742l0.798-0.969l-4.334-3.545l4.196-5.115l-1.761-1.427l-2.65,3.246l-4.845-0.584
		l-1.838-1.509l-0.482,0.584c-0.076-0.652-0.47-1.352-1.115-1.884c-1.104-0.907-2.522-0.987-3.157-0.209
		C671.657,63.305,672.024,64.659,673.129,65.569z"/>
	<path fill="#FFFFFF" d="M670.048,61.758c0.515,0.415,1.02,0.792,1.52,1.152c-0.26,0.971,0.194,2.181,1.248,3.048
		c0.445,0.359,0.94,0.61,1.441,0.737c-0.071,0.194-0.016,0.42,0.153,0.558l1.738,1.423l1.401,4.229l-3.144,3.846
		c0.485-0.065,0.97-0.132,1.454-0.199l2.638-3.228c0.108-0.132,0.142-0.312,0.088-0.474l-1.534-4.627
		c-0.03-0.09-0.085-0.169-0.158-0.229l-1.468-1.202l0.159-0.198c0.125-0.156,0.145-0.373,0.05-0.549s-0.271-0.279-0.485-0.262
		c-0.535,0.053-1.178-0.178-1.702-0.602c-0.579-0.478-0.918-1.095-0.955-1.625c3.74,2.489,7.007,3.393,9.481,2.846l1.709,0.206
		c0.168,0.018,0.339-0.048,0.447-0.18l2.335-2.86l0.982,0.797l-3.877,4.726c-0.084,0.103-0.124,0.235-0.11,0.367
		c0.013,0.132,0.078,0.253,0.181,0.338l3.945,3.228l-0.479,0.582c-0.085,0.103-0.125,0.235-0.112,0.367
		c0.014,0.132,0.079,0.254,0.182,0.338l0.565,0.461c0.439-0.072,0.88-0.14,1.319-0.213l-0.863-0.705l0.479-0.582
		c0.085-0.103,0.125-0.235,0.112-0.367c-0.014-0.132-0.078-0.254-0.182-0.338l-3.946-3.228l3.879-4.728
		c0.084-0.103,0.124-0.235,0.11-0.368c-0.013-0.132-0.079-0.254-0.183-0.337l-1.761-1.427c-0.154-0.126-0.363-0.141-0.533-0.058
		c1.09-3.529-1.26-7.906-6.909-12.523c-6.4-5.238-11.867-6.271-14.821-2.663C661.591,50.72,663.289,56.241,670.048,61.758z
		 M666.433,49.097c1.967-2.402,6.101-0.83,11.059,3.227c5.146,4.197,7.467,7.994,5.54,10.366c-1.724,2.111-5.82,1.052-11.057-3.228
		C666.484,54.981,664.772,51.126,666.433,49.097z"/>
	<path fill="#FFFFFF" d="M644.992,80.434l0.495-4.122l0.039-0.05l4.353,3.556c1.329-0.164,2.658-0.326,3.986-0.488l-9.037-7.384
		l-1.621,1.979l-0.712,5.665l1.82,0.93C644.541,80.49,644.767,80.463,644.992,80.434z"/>
	<path fill="#FFFFFF" d="M657.95,76.562c0.917,0.738,1.81,1.38,2.679,1.945c1.67-0.204,3.34-0.41,5.01-0.619
		c-1.675-0.676-3.619-1.878-5.759-3.63c-5.491-4.48-7.201-8.337-5.528-10.365c1.952-2.402,6.098-0.824,11.044,3.227
		c4.95,4.04,7.276,7.683,5.742,10.066c1.021-0.133,2.042-0.27,3.062-0.407c0.771-3.447-1.602-7.658-7.018-12.081
		c-6.416-5.243-11.881-6.277-14.835-2.662C649.493,65.521,651.194,71.04,657.95,76.562z"/>
	<path fill="none" stroke="#FFFFFF" stroke-miterlimit="10" d="M680.214,74.022c1.252-1.531,2.504-3.063,3.756-4.595"/>
	<path fill="#FFFFFF" d="M246.946,139.056c0.121-0.139,0.229-0.289,0.352-0.425c1.76-1.966,4.867-1.812,6.787-0.258
		c4.704-0.713,9.371-1.835,13.975-2.863c7.608-1.7,15.2-3.181,22.901-4.394c16.163-2.546,32.334-5.048,48.549-7.248
		c23.734-3.219,47.575-5.705,71.495-6.647l0.103-0.943L247.701,98.496l-4.425,40.625c0.792-0.005,1.583-0.007,2.369-0.015
		C246.079,139.102,246.513,139.072,246.946,139.056z"/>
	<path fill="#407FA2" d="M245.644,139.106c0.218-0.002,0.436-0.02,0.654-0.025l4.061-37.278L287,105.79l-0.224,2.057l-17.152-1.865
		l-1.266,11.599l17.155,1.867l-1.397,12.828c0.513-0.092,1.026-0.187,1.54-0.276l2.837-26.048l6.176,0.672l5.966,0.649l44.069,4.795
		l-1.228,11.272c23.426-3.093,46.954-5.429,70.559-6.229l0.056-0.51c0.086-0.791-0.146-1.584-0.644-2.204s-1.223-1.017-2.014-1.103
		l-20.606-2.242l4.164-32.475c0.101-0.789-0.115-1.586-0.602-2.216c-0.487-0.629-1.203-1.04-1.993-1.141l-89.209-11.437
		c-1.643-0.21-3.146,0.95-3.357,2.594l-4.398,34.294l-47.405-5.158c-1.651-0.179-3.128,1.01-3.307,2.658l-4.465,40.992
		C242.041,139.114,243.856,139.124,245.644,139.106z M305.399,70.117l83.258,10.674l-3.797,29.613l-2.061-0.224l1.303-10.2
		l-11.576-1.484l-1.339,10.421l-69.791-7.595L305.399,70.117z"/>
	<path fill="#407FA2" d="M300.634,107.273"/>
	<path id="path10011" fill="#407FA2" d="M254.192,114.654l0.48-4.432l-0.987-0.114l-0.481,4.438L254.192,114.654z"/>
	<path id="path10015" fill="#407FA2" d="M258.998,114.39l-0.101,0.923c1.621,0.128,2.726-1.386,3.055-4.296l-1.013-0.114
		C260.685,113.139,260.037,114.503,258.998,114.39"/>
	<path id="path10019" fill="#407FA2" d="M256.841,110.458l1.017,0.114c0.266-2.377,1.051-3.576,1.939-3.487l0.102-0.923
		C258.402,106.04,257.16,107.542,256.841,110.458"/>
	<path id="path10023" fill="#407FA2" d="M266.896,111.556c-0.253,2.236-0.913,3.602-1.95,3.481
		c-0.925-0.103-1.383-1.478-1.143-3.779c0-0.014,0.012-0.027,0.012-0.04l-1.014-0.107c-0.012,0.006-0.012,0.013-0.012,0.027
		c-0.292,2.935,0.52,4.658,2.002,4.823h0.05c1.623,0.139,2.727-1.381,3.069-4.291L266.896,111.556z"/>
	<path fill="#FFFFFF" d="M350.3,118.065h0.064l-0.482,4.449c0.987-0.124,1.974-0.247,2.961-0.368l0.765-7.029l-2.546-0.273
		l-5.148,2.499l0.305,2.73L350.3,118.065z"/>
	<path fill="#FFFFFF" d="M362.049,121.063c0.991-1.689,2.204-2.486,3.49-2.344c1.063,0.114,1.865,0.713,2.439,1.699
		c1.017-0.107,2.033-0.213,3.05-0.316c-0.995-2.397-2.688-3.823-5.018-4.078c-2.993-0.323-5.633,1.557-7.339,5.424
		C359.797,121.318,360.923,121.19,362.049,121.063z"/>
	<path fill="#FFFFFF" d="M386.955,118.66c-0.593-0.292-1.238-0.492-1.952-0.57c-1.45-0.156-2.816,0.214-4.036,1.07
		C382.962,118.984,384.958,118.818,386.955,118.66z"/>
	<path fill="#FFFFFF" d="M195.557,314.456c-2.993,0.938-6.932-0.8-6.724-4.622c0.498-9.167,2.421-18.04,3.795-26.947
		c0.567-9.389,0.493-18.823,0.332-28.267c-1.186-7.304-2.6-14.854-2.964-22.339l-41.977,28.424l46.713,68.968
		C195.023,324.602,195.304,319.529,195.557,314.456z"/>
	<path fill="#407FA2" d="M195.002,324.721l-42.816-63.214l30.528-20.672l1.164,1.719l-14.281,9.676l6.53,9.669l14.3-9.673
		l2.554,3.772c-0.007-0.459-0.014-0.918-0.021-1.378c-0.095-0.583-0.192-1.171-0.29-1.757l-8.714-12.87l6.274-4.249
		c-0.206-2.349-0.317-4.696-0.316-7.032l-43.578,29.508c-0.659,0.446-1.113,1.136-1.264,1.917s0.016,1.59,0.462,2.249l48.907,72.208
		C194.636,331.304,194.818,328.013,195.002,324.721z"/>
	<polygon fill="#407FA2" points="160.115,265.701 162.612,269.384 163.437,268.839 160.938,265.144 	"/>
	<path fill="#407FA2" d="M166.149,261.605c1.254,1.869,1.648,3.323,0.785,3.911l0.521,0.772c1.319-0.956,1.18-2.814-0.457-5.254
		L166.149,261.605z"/>
	<path fill="#407FA2" d="M162.815,259.438l-0.521-0.781c-1.218,0.888-1.191,2.834,0.457,5.262l0.836-0.578
		C162.257,261.359,162.08,259.938,162.815,259.438z"/>
	<path fill="#407FA2" d="M171.121,258.245c1.254,1.87,1.635,3.329,0.76,3.911v0.012c-0.773,0.515-2.017-0.24-3.31-2.155
		c0,0-0.013-0.019-0.013-0.03l-0.849,0.577v0.018c1.687,2.435,3.423,3.221,4.654,2.392c0.012-0.014,0.025-0.027,0.037-0.034
		c1.333-0.944,1.193-2.821-0.431-5.256L171.121,258.245z"/>
	<path fill="#FFFFFF" d="M193.149,454.262c-0.094-13.483-1.066-26.93-1.502-40.401c-0.431-13.289-0.033-26.552,0.591-39.828
		c0.43-9.132,0.959-18.261,1.499-27.388l-19.524-24.078l-69.86,56.65L192.495,487.9C192.587,476.679,193.228,465.48,193.149,454.262
		z"/>
	<path fill="none" stroke="#407FA2" stroke-width="1.5" stroke-miterlimit="10" d="M193.149,454.262
		c-0.094-13.483-1.066-26.93-1.502-40.401c-0.225-6.924-0.221-13.841-0.081-20.756l-45.817,37.159l36.554,45.074l10.698-8.673
		C193.104,462.531,193.178,458.398,193.149,454.262z"/>
	<path fill="#407FA2" d="M193.001,466.664l-6.755,5.483l6.388,7.869C192.745,475.564,192.889,471.114,193.001,466.664z"/>
	<path fill="#407FA2" d="M186.513,418.041v-0.014l-0.483-0.604l5.593-4.536c-0.381-12.964,0.006-25.903,0.616-38.855
		c0.349-7.408,0.767-14.813,1.199-22.218l-4.339-5.35l-0.012,0.014l-0.064-0.075l-7.568,6.144l2.484,3.099l-28.96,23.493
		l-0.787-0.98l-4.349,3.525l-4.158-5.137l-1.75,1.427l2.637,3.252l-1.56,4.62l-1.851,1.512l0.47,0.576
		c-0.646-0.058-1.407,0.185-2.068,0.717c-1.103,0.886-1.484,2.263-0.848,3.048c0.646,0.787,2.053,0.703,3.168-0.189
		c0.646-0.532,1.041-1.236,1.116-1.876l0.48,0.576l1.853-1.501l4.844-0.566l24.468,30.177l-1.545,4.597l-1.852,1.503l0.472,0.589
		c-0.648-0.057-1.422,0.178-2.068,0.711c-1.104,0.898-1.485,2.262-0.837,3.048c0.646,0.794,2.054,0.71,3.144-0.184
		c0.673-0.538,1.054-1.236,1.129-1.881l0.482,0.582l1.851-1.504l4.843-0.577l2.65,3.26l1.737-1.407l-4.161-5.147l4.313-3.499
		L186.513,418.041z"/>
	<path fill="none" stroke="#FFFFFF" stroke-miterlimit="10" d="M184.205,414.718c1.941-1.575,3.882-3.149,5.823-4.724"/>
	
		<rect x="181.654" y="359.94" transform="matrix(0.6297 0.7768 -0.7768 0.6297 349.538 -12.4453)" fill="#FFFFFF" width="12.34" height="0.999"/>
	<path fill="#FFFFFF" d="M192.496,493.449c-0.145-13.08,0.744-26.12,0.653-39.188c-0.028-4.018-0.139-8.032-0.286-12.045
		l-72.752,5.848l7.202,89.653l63.937-5.141C192.913,519.62,192.641,506.482,192.496,493.449z"/>
	<path fill="none" stroke="#407FA2" stroke-width="6" stroke-linejoin="round" stroke-miterlimit="10" d="M192.496,493.449
		c-0.145-13.08,0.744-26.12,0.653-39.188c-0.028-4.018-0.139-8.032-0.286-12.045l-72.752,5.848l7.202,89.653l63.937-5.141
		C192.913,519.62,192.641,506.482,192.496,493.449z"/>
	<path fill="#407FA2" d="M192.124,523.684l-2.807-34.94l3.178,3.919c-0.025-3.15,0.003-6.298,0.065-9.444l-4.093-5.047
		l-2.842-35.375l-24.261,1.956l-13.286-16.383l43.489-35.267c0.129-6.356,0.373-12.712,0.672-19.07
		c0.5-10.614,1.128-21.223,1.758-31.831l-17.454-21.524c-0.501-0.618-1.227-1.012-2.019-1.094c-0.791-0.083-1.583,0.152-2.201,0.653
		l-69.86,56.65c-0.618,0.501-1.012,1.228-1.094,2.019s0.153,1.583,0.654,2.201l52.091,64.229l-28.258,2.278l7.19,89.463
		l58.227-4.669C191.64,529.507,191.927,526.599,192.124,523.684z M108.571,379.657l65.2-52.871l1.735,2.14l-65.198,52.873
		L108.571,379.657z"/>
	<path fill="none" stroke="#407FA2" stroke-width="1.5" stroke-miterlimit="10" d="M192.496,493.449
		c-0.145-13.08,0.744-26.12,0.653-39.188c-0.028-4.019-0.139-8.033-0.286-12.047l-7.238,0.581l6.498,80.9
		C192.802,513.64,192.607,503.513,192.496,493.449z"/>
	<path fill="#407FA2" d="M192.577,500.842c-0.024-2.467-0.053-4.932-0.081-7.393c-0.145-13.08,0.744-26.12,0.653-39.188
		c-0.017-2.459-0.071-4.915-0.138-7.372l-4.877,0.395l-0.012,0.019l-0.089,0.008l-6.289,10.606l-4.108,0.335l-4.208,0.335
		l-7.914-9.477l-5.718,0.456l-0.101-1.186l-11.463,0.919v0.02l-0.089,0.006l0.774,9.727l3.981-0.301l2.991,37.171l-1.267,0.1
		l0.458,5.572l-6.594,0.534l0.19,2.243l4.172-0.336l2.929,3.892l0.191,2.391l0.747-0.069c-0.406,0.513-0.645,1.269-0.571,2.116
		c0.103,1.408,1.027,2.499,2.041,2.424c1.002-0.089,1.725-1.3,1.625-2.714c-0.063-0.844-0.431-1.565-0.913-1.992l0.749-0.068
		l-0.191-2.377l2.269-4.312L192.577,500.842z"/>
	<path fill="#FFFFFF" d="M192.581,501.343c-0.003-0.334-0.006-0.668-0.009-1.002l-30.888,2.486
		c-0.171,0.014-0.323,0.113-0.402,0.266l-2.269,4.312c-0.044,0.083-0.063,0.178-0.056,0.272l0.151,1.884l-0.256,0.023
		c-0.199,0.019-0.368,0.152-0.43,0.342c-0.062,0.19-0.006,0.398,0.144,0.53c0.417,0.369,0.696,0.988,0.746,1.653
		c0.08,1.119-0.457,2.117-1.163,2.18l-0.062,0.503v-0.5c-0.705,0-1.366-0.899-1.444-1.971c-0.059-0.674,0.111-1.316,0.465-1.763
		c0.124-0.157,0.143-0.373,0.047-0.549c-0.088-0.162-0.257-0.262-0.439-0.262c-0.015,0-0.031,0.001-0.046,0.002l-0.243,0.022
		l-0.151-1.886c-0.008-0.095-0.042-0.185-0.099-0.261l-2.929-3.892c-0.103-0.137-0.268-0.207-0.439-0.197l-3.676,0.296l-0.105-1.247
		l6.094-0.494c0.031-0.003,0.058-0.017,0.087-0.024l37.352-3.005c-0.004-0.334-0.007-0.668-0.011-1.002l-37.013,2.978l-0.375-4.558
		l0.767-0.061c0.001,0,0.002-0.001,0.004-0.001l36.563-2.939c0-0.01,0-0.021,0-0.03c-0.004-0.324,0-0.647-0.002-0.972l-32.899,2.645
		l-2.91-36.175l8.306-0.671l1.494,18.627c0.269,3.354,1.831,6.404,4.397,8.59c2.301,1.96,5.158,3.01,8.138,3.01
		c0.343,0,0.688-0.014,1.033-0.042c3.349-0.265,6.398-1.824,8.585-4.391c2.189-2.569,3.247-5.831,2.978-9.185l-2.191-27.204
		l3.601-0.291c-0.009-0.334-0.019-0.667-0.028-1.001l-4.904,0.396c-0.042,0.003-0.083,0.013-0.124,0.028
		c-0.153,0.02-0.288,0.108-0.367,0.241l-6.157,10.384l-7.799,0.629l-7.748-9.278c-0.104-0.124-0.263-0.186-0.423-0.178l-5.222,0.416
		l-0.059-0.689c-0.023-0.274-0.255-0.474-0.538-0.456l-11.463,0.919c-0.046,0.003-0.091,0.014-0.133,0.03
		c-0.114,0.02-0.218,0.078-0.294,0.166c-0.087,0.102-0.131,0.233-0.12,0.367l0.774,9.727c0.022,0.275,0.269,0.487,0.536,0.459
		l3.485-0.264l2.911,36.176l-0.768,0.061c-0.133,0.01-0.255,0.072-0.342,0.174c-0.086,0.102-0.128,0.232-0.118,0.365l0.417,5.073
		l-6.095,0.494c-0.132,0.011-0.255,0.073-0.341,0.175s-0.128,0.233-0.117,0.365l0.19,2.243c0.023,0.274,0.258,0.479,0.538,0.456
		l3.898-0.313l2.676,3.556l0.18,2.246c0.011,0.133,0.074,0.257,0.177,0.343c0.059,0.049,0.127,0.084,0.201,0.103
		c-0.178,0.49-0.25,1.041-0.201,1.598c0.118,1.621,1.19,2.892,2.44,2.892c0.015,0,0.128-0.005,0.143-0.006
		c1.288-0.114,2.201-1.541,2.079-3.249c-0.042-0.561-0.208-1.103-0.469-1.562c0.193-0.082,0.322-0.28,0.304-0.501l-0.18-2.232
		l2.074-3.939L192.581,501.343z M181.613,458.429l0.857,10.498c0.168,2.182-1.462,4.099-3.636,4.271
		c-2.173,0.164-4.093-1.459-4.27-3.639l-0.848-10.495L181.613,458.429z M173.045,458.907c0.045,0.055,0.105,0.093,0.168,0.123
		l0.854,10.57c0.189,2.333,2.151,4.11,4.453,4.11c0.117,0,0.236-0.005,0.355-0.015c2.448-0.194,4.285-2.352,4.094-4.81
		l-0.869-10.638c0.025-0.026,0.057-0.046,0.075-0.077l0.938-1.582l1.109,13.834c0.241,3.062-2.057,5.764-5.122,6.021
		c-3.063,0.241-5.777-2.056-6.033-5.13l-1.098-13.696L173.045,458.907z M171.415,456.955l1.154,14.4
		c0.265,3.185,2.943,5.607,6.083,5.607c0.162,0,0.326-0.006,0.49-0.02c3.338-0.28,5.841-3.223,5.579-6.559l-1.165-14.54l2.436-4.108
		l1.693,21.13c0.19,2.354-0.55,4.642-2.084,6.444c-1.534,1.803-3.675,2.898-6.03,3.087c-2.352,0.179-4.642-0.556-6.443-2.093
		c-1.799-1.535-2.892-3.675-3.076-6.027l-1.696-20.987L171.415,456.955z M165.297,449.629l2.502,2.997l1.752,21.691
		c0.195,2.484,1.349,4.746,3.25,6.368c1.709,1.458,3.834,2.24,6.052,2.24c0.25,0,0.502-0.01,0.755-0.03
		c2.488-0.198,4.75-1.356,6.371-3.261c1.621-1.904,2.403-4.322,2.201-6.809l-1.75-21.834l1.911-3.224l0.583-0.047l2.191,27.205
		c0.258,3.22-0.757,6.352-2.86,8.818c-2.101,2.465-5.028,3.963-8.245,4.218c-3.214,0.253-6.343-0.751-8.807-2.851
		c-2.465-2.099-3.965-5.028-4.224-8.248l-2.182-27.195L165.297,449.629z M152.862,458.252l-3.484,0.264l-0.696-8.75l10.559-0.847
		l0.059,0.689c0.023,0.274,0.269,0.471,0.538,0.456l4.466-0.356l0.607,7.571l-12.04,0.974
		C152.867,458.253,152.865,458.252,152.862,458.252z M153.438,459.21l2.25-0.182l2.91,36.174l-2.249,0.181L153.438,459.21z"/>
	<path fill="#FFFFFF" d="M184.171,387.269c-0.939-1.16-1.372-2.618-1.217-4.106c0.155-1.49,0.88-2.829,2.043-3.77l7.269-5.899
		c0.011-0.225,0.024-0.448,0.035-0.673l-7.619,6.184c-1.267,1.024-2.057,2.482-2.226,4.106c-0.168,1.621,0.302,3.21,1.326,4.474
		c1.204,1.478,2.962,2.244,4.735,2.244c1.087,0,2.173-0.304,3.146-0.894c0.006-0.207,0.014-0.415,0.02-0.622
		C189.308,389.959,186.025,389.544,184.171,387.269z"/>
	<path fill="#FFFFFF" d="M177.11,384.477c-0.26,2.487,0.462,4.926,2.032,6.867c1.573,1.939,3.813,3.149,6.308,3.405
		c0.327,0.034,0.652,0.051,0.976,0.051c1.838,0,3.612-0.54,5.137-1.558c0.004-0.209,0.011-0.418,0.015-0.627
		c-1.756,1.275-3.892,1.859-6.077,1.637c-2.361-0.243-4.481-1.388-5.97-3.223c-1.486-1.838-2.169-4.146-1.923-6.501
		c0.247-2.355,1.393-4.471,3.229-5.955l11.656-9.455c0.011-0.225,0.023-0.448,0.035-0.673l-12.006,9.739
		C178.582,379.753,177.371,381.987,177.11,384.477z"/>
	<path fill="#FFFFFF" d="M175.193,394.539c-2.035-2.502-2.97-5.655-2.633-8.877c0.337-3.221,1.903-6.116,4.409-8.153l15.751-12.768
		c0.012-0.224,0.023-0.448,0.035-0.672l-16.101,13.051c-2.609,2.122-4.24,5.137-4.591,8.489c-0.352,3.355,0.622,6.639,2.742,9.245
		c2.482,3.07,6.125,4.663,9.801,4.663c2.388,0,4.787-0.678,6.894-2.055c0.002-0.206,0.006-0.411,0.009-0.617
		C186.344,400.434,179.199,399.493,175.193,394.539z"/>
	<path fill="#FFFFFF" d="M189.372,386.655c-1.055-0.109-2.002-0.622-2.667-1.442c-0.669-0.82-0.977-1.853-0.868-2.907
		s0.62-2.002,1.44-2.667l4.886-3.961c0.01-0.223,0.02-0.445,0.03-0.668l-5.231,4.24c-0.924,0.749-1.501,1.816-1.624,3.004
		c-0.123,1.188,0.225,2.352,0.978,3.274c0.748,0.924,1.814,1.501,3.003,1.624c0.158,0.017,0.315,0.024,0.472,0.024
		c0.681,0,1.339-0.167,1.942-0.463c0.006-0.191,0.012-0.384,0.019-0.575C191.036,386.555,190.212,386.743,189.372,386.655z"/>
	<path fill="#FFFFFF" d="M187.196,418.097l-0.241-0.304c-0.015-0.027-0.032-0.054-0.052-0.078l-0.173-0.216l4.908-3.98
		c-0.013-0.421-0.02-0.842-0.031-1.263l-5.504,4.464l-28.366-34.976l28.572-23.174l-0.63-0.777l-28.572,23.175l-1.424-1.756
		l28.571-23.178c0.214-0.174,0.247-0.487,0.075-0.701l-2.173-2.711l6.809-5.528l4.429,5.462c0.028-0.494,0.057-0.987,0.086-1.481
		l-3.994-4.924c-0.03-0.037-0.065-0.068-0.104-0.095c-0.178-0.185-0.472-0.204-0.675-0.041l-7.568,6.145
		c-0.214,0.173-0.247,0.486-0.075,0.7l2.173,2.711l-28.184,22.863l-0.472-0.588c-0.083-0.104-0.205-0.171-0.337-0.185
		c-0.134-0.016-0.265,0.024-0.368,0.108l-3.96,3.211l-3.843-4.748c-0.083-0.104-0.205-0.169-0.337-0.183
		c-0.133-0.017-0.265,0.025-0.367,0.109l-1.75,1.427c-0.214,0.175-0.246,0.488-0.072,0.702l2.463,3.038l-1.425,4.224l-1.74,1.42
		c-0.167,0.138-0.223,0.36-0.156,0.553c-0.5,0.128-0.993,0.38-1.438,0.738c-0.745,0.599-1.242,1.441-1.329,2.254
		c-0.062,0.576,0.079,1.095,0.407,1.501c0.8,0.976,2.569,0.923,3.873-0.121c0.439-0.361,0.786-0.798,1.012-1.263
		c0.177,0.11,0.41,0.105,0.582-0.034l1.74-1.41l4.426-0.518l24.122,29.75l-1.412,4.198l-1.739,1.411
		c-0.171,0.14-0.227,0.368-0.153,0.564c-0.512,0.128-1.014,0.382-1.443,0.736c-0.761,0.619-1.244,1.445-1.326,2.266
		c-0.057,0.572,0.088,1.087,0.417,1.485c0.383,0.471,0.972,0.729,1.659,0.729c0.739,0,1.537-0.307,2.185-0.838
		c0.448-0.358,0.801-0.797,1.03-1.268c0.176,0.112,0.412,0.105,0.584-0.034l1.739-1.412l4.426-0.527l2.477,3.046
		c0.175,0.213,0.488,0.248,0.703,0.073l1.737-1.407c0.214-0.174,0.248-0.488,0.074-0.703l-3.847-4.759l3.925-3.185
		C187.333,418.624,187.367,418.312,187.196,418.097z M185.95,426.98l-0.961,0.778l-2.335-2.872
		c-0.108-0.133-0.275-0.206-0.447-0.181l-4.843,0.577c-0.094,0.011-0.183,0.049-0.256,0.108l-1.466,1.191l-0.166-0.201
		c-0.128-0.154-0.336-0.217-0.527-0.16c-0.192,0.057-0.332,0.223-0.355,0.421c-0.065,0.557-0.41,1.121-0.95,1.553
		c-0.831,0.682-1.992,0.804-2.441,0.252c-0.199-0.241-0.216-0.542-0.195-0.752c0.055-0.55,0.415-1.145,0.965-1.592
		c0.466-0.385,1.033-0.604,1.557-0.604c0.05,0,0.1,0.002,0.149,0.006c0.203,0.012,0.39-0.086,0.484-0.262
		c0.094-0.177,0.074-0.393-0.051-0.549l-0.161-0.201l1.466-1.189c0.074-0.061,0.129-0.14,0.159-0.229l1.545-4.597
		c0.054-0.162,0.022-0.341-0.086-0.474l-24.468-30.177c-0.107-0.133-0.273-0.197-0.446-0.183l-4.844,0.566
		c-0.094,0.012-0.183,0.049-0.257,0.108l-1.469,1.19l-0.165-0.197c-0.127-0.152-0.334-0.213-0.526-0.159
		c-0.192,0.057-0.331,0.223-0.354,0.421c-0.064,0.539-0.414,1.118-0.932,1.544c-0.492,0.394-1.07,0.619-1.586,0.619
		c-0.27,0-0.642-0.062-0.881-0.354c-0.197-0.243-0.211-0.549-0.188-0.763c0.059-0.555,0.418-1.146,0.961-1.581
		c0.532-0.428,1.168-0.654,1.71-0.608c0.206,0.015,0.392-0.087,0.486-0.264c0.094-0.178,0.073-0.395-0.055-0.551l-0.154-0.188
		l1.464-1.195c0.073-0.06,0.127-0.139,0.157-0.228l1.56-4.62c0.055-0.163,0.023-0.342-0.085-0.475l-2.322-2.865l0.975-0.794
		l3.842,4.746c0.021,0.026,0.051,0.043,0.077,0.064l32.572,40.16h0L185.95,426.98z M182.564,421.204l-32.002-39.459l3.554-2.882
		l0.472,0.588c0.001,0.001,0.002,0.002,0.004,0.003l-0.001,0.001l31.051,38.285l0.43,0.536c0.01,0.019,0.021,0.037,0.034,0.055
		L182.564,421.204z"/>
	<rect x="728.498" y="106.165" fill="#407FA2" width="100.241" height="378.335"/>
</g>
<g id="Layer_3">
	<g>
		<path fill="#000000" d="M190.506,573.788c-2.761,0-5-2.238-5-5V167.723c0.031-15.165,11.598-29.113,25.783-31.103l564.609-79.097
			c2.729-0.38,5.262,1.524,5.645,4.258c0.384,2.735-1.522,5.262-4.258,5.646l-564.608,79.097
			c-9.287,1.302-17.15,11.015-17.171,21.209v401.055C195.506,571.55,193.267,573.788,190.506,573.788z"/>
		<path id="path10415" fill="#407FA2" d="M551.301,37.871l-10.979-5.979c5.809,3.165,9.674,9.629,9.648,17.58l-0.076,44.698
			l10.98,5.975l0.076-44.7C560.975,47.493,557.109,41.028,551.301,37.871"/>
		<path fill="#407FA2" d="M580.305,52.82c-0.05-1.979-0.24-4.605-0.456-6.576c-0.103-0.995-0.38-2.306-0.596-3.289
			c-1.23-5.396-3.157-8.94-3.234-9.09c-0.463-0.826-1.006-1.959-1.526-2.74c-1.901-2.84-2.538-3.792-3.613-4.906
			c-1.219-1.287-2.891-2.994-4.273-4.103c-1.586-1.262-1.586-1.262-4.944-3.296c-3.664-1.99-7.33-3.987-10.98-5.971
			c-6.174-3.362-13.504-4.782-21.363-3.677l-97.871,13.75c-22.1,3.119-40.052,25.004-40.104,48.847l-0.076,44.692l10.98,5.974v0
			h0.001l0,0l0,0c0.069,0.034,19.345-2.684,19.345-2.684c0.016,0-0.023-0.062-0.049-0.101c0.012,0.025,0.064,0.077,0.064,0.087
			c0.012-12.485,0.037-24.975,0.063-37.458c0-2.389,0.012-4.774,0.012-7.163c0-2.954,0.558-5.965,1.661-8.958
			c0.99-2.701,2.575-5.466,4.475-7.786c1.104-1.335,3.41-3.854,6.619-5.757c1.915-1.122,2.79-1.432,4.703-2.116
			c0.838-0.306,1.408-0.406,3.335-0.762l9.789-1.375l9.788-1.377c6.529-0.925,13.048-1.838,19.576-2.75l9.788-1.383
			c4.4-0.615,10.283-1.438,14.684-2.059c1.459-0.209,3.41-0.687,4.893-0.687c9.79-1.375,19.565-2.752,29.353-4.127
			c2.903-0.399,5.045-0.036,5.136-0.024c0.913,0.157,2.128,0.406,3.004,0.704c0.977,0.315,0.977,0.315,2.814,1.211
			c5.809,3.157,9.674,9.622,9.649,17.574l-0.076,44.7c0.051,0.03,13.784-1.909,19.344-2.697c0.023,0-0.027-0.048-0.052-0.1
			c0.024,0.025,0.063,0.077,0.063,0.095C580.255,82.563,580.28,67.698,580.305,52.82z M402.322,77.739
			c0.042-16.089,8.231-31.277,20.341-40.418C410.554,46.463,402.364,61.651,402.322,77.739z"/>
		<path fill="#000000" d="M583.201,97.029c-0.229-1.641-1.754-2.784-3.386-2.557l-15.936,2.223l0.07-41.242
			c0.027-8.828-4.166-16.386-11.217-20.219c-0.04-0.022-0.08-0.042-0.121-0.062c-1.872-0.91-2.025-0.984-3.16-1.353
			c-1.092-0.371-2.482-0.65-3.458-0.819c-0.023-0.004-0.081-0.013-0.104-0.016c-0.836-0.124-3.088-0.369-5.951,0.023
			c-1.642,0.225-2.789,1.739-2.563,3.38c0.225,1.642,1.73,2.786,3.38,2.564c2.154-0.295,3.803-0.1,4.256-0.033c0,0,0.001,0,0.001,0
			c1.047,0.183,1.96,0.394,2.547,0.593c0.769,0.25,0.778,0.253,2.366,1.025c5.047,2.772,8.046,8.336,8.025,14.902l-0.067,39.662
			l-4.994-2.717l-0.07-23.788c-0.005-1.654-1.347-2.991-3-2.991c-0.003,0-0.006,0-0.009,0c-1.657,0.005-2.996,1.352-2.991,3.009
			l0.075,25.565c0.003,1.096,0.604,2.103,1.566,2.626l10.98,5.973c0.03,0.017,0.063,0.021,0.095,0.037
			c0.163,0.082,0.332,0.148,0.507,0.198c0.062,0.018,0.12,0.037,0.182,0.05c0.21,0.046,0.423,0.078,0.64,0.079
			c0.003,0,0.005,0.001,0.008,0.001l0.001,0c0.001,0,0.001,0,0.002,0c0.138,0,0.276-0.009,0.414-0.029l19.355-2.7
			C582.285,100.186,583.43,98.67,583.201,97.029z"/>
		<path fill="#000000" d="M442.843,31.865l97.882-13.757c6.946-0.974,13.692,0.185,19.501,3.347c1.457,0.792,3.277,0.255,4.069-1.2
			c0.792-1.456,0.255-3.277-1.2-4.069c-6.947-3.782-14.969-5.171-23.204-4.019l-97.885,13.757
			c-23.47,3.311-42.618,26.552-42.685,51.811l-0.066,39.657l-4.991-2.715l-0.036-24.089c-0.002-1.655-1.345-2.996-3-2.996
			c-0.001,0-0.003,0-0.004,0c-1.657,0.002-2.998,1.348-2.996,3.004l0.039,25.869c0.001,1.098,0.603,2.106,1.566,2.631l10.979,5.973
			c0.034,0.019,0.071,0.024,0.106,0.042c0.158,0.078,0.321,0.142,0.489,0.191c0.065,0.019,0.128,0.039,0.193,0.054
			c0.199,0.044,0.402,0.072,0.607,0.075c0.012,0,0.024,0.004,0.036,0.004c0.004,0,0.008-0.002,0.013-0.002
			c0.133,0,0.268-0.009,0.402-0.027l19.346-2.683c1.641-0.228,2.787-1.743,2.56-3.384c-0.228-1.642-1.749-2.785-3.384-2.56
			l-15.928,2.209l0.069-41.241C405.381,55.358,422.213,34.775,442.843,31.865z"/>
		<path id="path10451" fill="#FFFFFF" d="M852.663,294.676l-1.613-10.042l-2.234,0.359l1.612,10.042L852.663,294.676z"/>
		<path id="path10455" fill="#FFFFFF" d="M863.093,291.194l0.336,2.093c3.639-0.685,5.142-4.698,4.128-11.303l-2.31,0.371
			C866.043,287.422,865.433,290.8,863.093,291.194"/>
		<path id="path10459" fill="#FFFFFF" d="M855.962,283.846l2.318-0.372c-0.85-5.399,0.148-8.505,2.153-8.838l-0.336-2.097
			C856.728,273.187,854.916,277.242,855.962,283.846"/>
		<path id="path10463" fill="#FFFFFF" d="M837.771,297.124l2.317-0.372c-0.849-5.399,0.148-8.504,2.154-8.838l-0.337-2.098
			C838.536,286.464,836.725,290.52,837.771,297.124"/>
		<path id="path10467" fill="#FFFFFF" d="M878.743,280.188c0.801,5.078,0.183,8.463-2.168,8.841h-0.021
			c-2.097,0.316-3.933-2.425-4.767-7.63c-0.006-0.036-0.008-0.062-0.012-0.092l-2.315,0.371c0.003,0.019,0.004,0.042,0.007,0.061
			c1.121,6.636,3.971,9.948,7.313,9.412c0.037-0.006,0.071-0.02,0.109-0.025c3.665-0.665,5.182-4.682,4.165-11.307L878.743,280.188z
			"/>
		<path id="path10471" fill="#407FA2" d="M888.225,372.666l-3.181,5.168l1.151,0.707l3.179-5.166L888.225,372.666z"/>
		<path id="path10475" fill="#407FA2" d="M882.152,370.181l0.663-1.078c-1.912-1.107-4.153,0.123-6.267,3.504l1.188,0.73
			C879.35,370.737,880.94,369.446,882.152,370.181"/>
		<path id="path10479" fill="#407FA2" d="M882.517,376.278l-1.193-0.733c-1.718,2.771-3.378,3.787-4.416,3.157l-0.662,1.079
			C878.021,380.801,880.417,379.673,882.517,376.278"/>
		<path id="path10483" fill="#407FA2" d="M895.911,377.356l-1.193-0.733c-1.718,2.771-3.378,3.786-4.415,3.156l-0.663,1.079
			C891.415,381.878,893.812,380.75,895.911,377.356"/>
		<path id="path10487" fill="#407FA2" d="M870.792,369.063c1.613-2.606,3.211-3.897,4.422-3.154l0.01,0.01
			c1.069,0.673,0.832,2.626-0.815,5.306c-0.011,0.018-0.021,0.029-0.031,0.046l1.191,0.732c0.006-0.009,0.015-0.02,0.021-0.03
			c2.077-3.437,2.078-6.044,0.357-7.102c-0.02-0.013-0.04-0.02-0.06-0.031c-1.916-1.127-4.166,0.099-6.285,3.491L870.792,369.063z"
			/>
		<path id="path10491" fill="#407FA2" d="M306.141,80.004l6.069,0.889l0.199-1.352l-6.069-0.889L306.141,80.004z"/>
		<path id="path10495" fill="#407FA2" d="M306.258,86.636l-1.264-0.185c-0.265,2.219,1.773,3.809,5.757,4.421l0.205-1.396
			C307.896,89.017,306.061,88.055,306.258,86.636"/>
		<path id="path10499" fill="#407FA2" d="M311.776,83.862l-0.204,1.401c3.261,0.489,4.866,1.625,4.695,2.84l1.267,0.185
			C317.772,86.231,315.767,84.456,311.776,83.862"/>
		<path id="path10503" fill="#407FA2" d="M307.427,70.992l-0.205,1.4c3.261,0.489,4.866,1.625,4.696,2.84l1.267,0.185
			C313.422,73.36,311.417,71.585,307.427,70.992"/>
		<path id="path10507" fill="#407FA2" d="M309.76,97.634c-3.066-0.458-4.903-1.426-4.695-2.847l0.004-0.012
			c0.197-1.263,2.106-1.825,5.253-1.364c0.021,0.003,0.037,0.007,0.055,0.01l0.205-1.399c-0.011-0.001-0.024-0.004-0.036-0.006
			c-4.021-0.557-6.443,0.485-6.739,2.505c-0.003,0.022-0.001,0.045-0.004,0.068c-0.28,2.229,1.756,3.828,5.753,4.442L309.76,97.634z
			"/>
		<path id="path10511" fill="#FFFFFF" d="M142.282,398.707l-7.448,5.605l1.248,1.659l7.448-5.605L142.282,398.707z"/>
		<path id="path10515" fill="#FFFFFF" d="M134.995,391.745l1.552-1.168c-2.112-2.657-6.008-2.157-10.928,1.492l1.29,1.712
			C130.674,390.969,133.674,390.017,134.995,391.745"/>
		<path id="path10519" fill="#FFFFFF" d="M132.092,400.669l-1.294-1.719c-4.014,3-6.956,3.52-8.085,2.038l-1.555,1.171
			C123.125,404.613,127.186,404.345,132.092,400.669"/>
		<path id="path10523" fill="#FFFFFF" d="M150.641,409.729l-1.294-1.719c-4.014,2.999-6.956,3.52-8.085,2.037l-1.555,1.171
			C141.674,413.673,145.735,413.404,150.641,409.729"/>
		<path id="path10527" fill="#FFFFFF" d="M119.375,383.771c3.772-2.822,6.781-3.771,8.094-2.027l0.009,0.018
			c1.153,1.562-0.283,4.225-4.144,7.129c-0.025,0.02-0.046,0.031-0.07,0.049l1.292,1.717c0.013-0.011,0.031-0.021,0.044-0.031
			c4.9-3.748,6.364-7.478,4.5-9.955c-0.022-0.028-0.047-0.051-0.068-0.079c-2.109-2.686-6.013-2.195-10.949,1.466L119.375,383.771z"
			/>
		<path id="path10531" fill="#FFFFFF" d="M158.918,520.209l0.868,7.555l1.683-0.193l-0.869-7.556L158.918,520.209z"/>
		<path id="path10535" fill="#FFFFFF" d="M151.01,522.461l-0.181-1.573c-2.742,0.39-3.997,3.338-3.462,8.304l1.737-0.199
			C148.68,525.182,149.248,522.678,151.01,522.461"/>
		<path id="path10539" fill="#FFFFFF" d="M156.091,528.188l-1.743,0.2c0.453,4.062-0.396,6.348-1.905,6.532l0.181,1.576
			C155.164,536.125,156.652,533.158,156.091,528.188"/>
		<path id="path10543" fill="#FFFFFF" d="M170.124,518.877l-1.743,0.2c0.454,4.062-0.396,6.349-1.905,6.532l0.181,1.576
			C169.196,526.814,170.684,523.847,170.124,518.877"/>
		<path id="path10547" fill="#FFFFFF" d="M138.951,530.16c-0.428-3.819,0.146-6.329,1.915-6.532l0.016,0.002
			c1.576-0.166,2.854,1.941,3.305,5.858c0.003,0.025,0.003,0.046,0.006,0.068l1.742-0.2c-0.001-0.015-0.001-0.031-0.003-0.044
			c-0.615-4.995-2.634-7.565-5.149-7.276c-0.028,0.003-0.055,0.013-0.083,0.017c-2.76,0.373-4.027,3.323-3.489,8.308L138.951,530.16
			z"/>
	</g>
</g>
</svg>
