<?xml version="1.0" encoding="utf-8"?>
<!-- Generator: Adobe Illustrator 16.0.0, SVG Export Plug-In . SVG Version: 6.00 Build 0)  -->
<!DOCTYPE svg PUBLIC "-//W3C//DTD SVG 1.1//EN" "http://www.w3.org/Graphics/SVG/1.1/DTD/svg11.dtd">
<svg version="1.1" xmlns="http://www.w3.org/2000/svg" xmlns:xlink="http://www.w3.org/1999/xlink" x="0px" y="0px" width="1000px"
	 height="600px" viewBox="0 0 1000 600" enable-background="new 0 0 1000 600" xml:space="preserve">
<g id="whitebg">
	<path id="path2997" fill="#FFFFFF" d="M806.519,419.278l-590.04,62.64l-32.92-336.105l590.04-62.64L806.519,419.278z"/>
</g>
<g id="blue">
	<g>
		<path fill="#407FA2" d="M776.584,82.88c-0.077-0.796-0.471-1.528-1.091-2.033s-1.42-0.742-2.211-0.658l-590.04,62.64
			c-1.638,0.174-2.83,1.636-2.669,3.276l32.92,336.105c0.078,0.797,0.471,1.528,1.091,2.034c0.538,0.438,1.208,0.674,1.895,0.674
			c0.105,0,0.211-0.006,0.316-0.017l590.04-62.64c1.639-0.174,2.83-1.637,2.669-3.275L776.584,82.88z M219.17,478.615
			l-32.335-330.134l140.321-14.896l1.565,15.981l-62.146,6.597l4.274,43.63l62.146-6.597l21.022,214.627l-1.216,0.129
			c0.006,0.068,0.006,0.146,0.012,0.212c0.563,5.327,1.458,10.076,2.632,14.232l4.047,41.321L219.17,478.615z M364.465,463.19
			l-2.648-27.034c3.889,5.117,8.724,7.501,14.089,6.932c0.13-0.014,0.25-0.057,0.38-0.068c12.636-1.613,18.597-15.564,16.432-39.304
			l-7.962,0.845c1.732,18.194-1.039,30.092-9.136,30.951l-0.07-0.004c-7.21,0.69-12.933-9.417-14.76-28.072
			c-0.012-0.124-0.01-0.219-0.02-0.328l-1.781,0.189l-26.862-274.24l203.375-21.59l11.247,114.829l-34.094,3.62l-10.821-14.335
			l-0.876-8.934l-2.691,0.287c1.454-1.922,2.248-4.817,1.938-7.979c-0.518-5.303-3.893-9.292-7.546-8.903
			c-3.652,0.388-6.192,5.003-5.674,10.306c0.309,3.162,1.654,5.831,3.446,7.407l-2.692,0.285l0.875,8.933l-7.851,16.385
			l-15.068,1.601l0.825,8.424l23.739-2.519l2.035,20.76l1.72-0.184l0.008,0.075l2.79-0.295l13.649,139.358l-13.948,1.549
			l0.008,0.064l-0.346,0.042l3.569,36.436l41.261-4.381l-0.006-0.066l0.346-0.036l-0.428-4.361l20.28-2.152l0.043-0.071l0.295-0.032
			l4.174-7.704l2.128,21.727L364.465,463.19z M785.547,418.488L753.209,88.354l17.699-1.879l32.335,330.134L785.547,418.488z"/>
		<polygon fill="#407FA2" points="213.444,183.85 215.076,200.504 218.637,200.126 217.006,183.472 		"/>
		<path fill="#407FA2" d="M243.304,180.678l-3.678,0.392c0.794,8.4-0.478,13.895-4.208,14.321l0.34,3.471
			C241.566,198.082,244.302,191.629,243.304,180.678z"/>
		<path fill="#407FA2" d="M224.831,182.64l3.691-0.392c-0.849-8.956,1.01-13.963,4.206-14.321l-0.342-3.477
			C227.01,165.193,223.781,171.687,224.831,182.64z"/>
		<path fill="#407FA2" d="M261.126,178.787c0.802,8.42-0.482,13.927-4.228,14.325l-0.033-0.004
			c-3.336,0.321-5.985-4.357-6.832-12.991c-0.006-0.057-0.004-0.101-0.008-0.151l-3.689,0.392c0.004,0.03,0.004,0.066,0.006,0.097
			c1.165,11.014,5.363,16.729,10.688,16.163c0.06-0.006,0.114-0.026,0.175-0.032c5.849-0.746,8.606-7.203,7.604-18.188
			L261.126,178.787z"/>
		<polygon fill="#407FA2" points="281.723,415.498 285.25,451.486 292.945,450.67 289.421,414.681 		"/>
		<path fill="#407FA2" d="M338.297,409.493c1.716,18.153-1.029,30.026-9.09,30.946l0.734,7.498
			c12.55-1.684,18.463-15.629,16.306-39.29L338.297,409.493z"/>
		<path fill="#407FA2" d="M306.33,412.886l7.979-0.847c-1.835-19.351,2.179-30.171,9.086-30.947l-0.736-7.512
			C311.035,375.188,304.062,389.217,306.33,412.886z"/>
		<path fill="#407FA2" d="M241.668,456.315l7.977-0.847c-1.833-19.351,2.181-30.171,9.088-30.947l-0.736-7.512
			C246.374,418.617,239.4,432.646,241.668,456.315z"/>
	</g>
</g>
<g id="numbers" xmlns:cc="http://creativecommons.org/ns#" xmlns:dc="http://purl.org/dc/elements/1.1/" xmlns:svg="http://www.w3.org/2000/svg" xmlns:rdf="http://www.w3.org/1999/02/22-rdf-syntax-ns#">
	<path id="path3089" fill="#FFFFFF" d="M643.744,174.522l-3.524-35.989l-7.698,0.817l3.526,35.989L643.744,174.522z"/>
	<path id="path3093" fill="#FFFFFF" d="M680.005,164.292l0.734,7.498c12.55-1.684,18.463-15.629,16.306-39.29l-7.95,0.845
		C690.812,151.5,688.065,163.373,680.005,164.292"/>
	<path id="path3097" fill="#FFFFFF" d="M657.128,136.739l7.978-0.847c-1.833-19.351,2.181-30.17,9.088-30.947l-0.736-7.512
		C661.833,99.04,654.858,113.07,657.128,136.739"/>
	<path id="path3101" fill="#FFFFFF" d="M592.467,180.168l7.977-0.847c-1.833-19.351,2.181-30.17,9.088-30.947l-0.735-7.512
		C597.172,142.469,590.198,156.5,592.467,180.168"/>
	<path id="path3105" fill="#FFFFFF" d="M735.556,128.413c1.731,18.194-1.039,30.092-9.137,30.953l-0.07-0.006
		c-7.21,0.691-12.933-9.417-14.76-28.072c-0.012-0.123-0.01-0.218-0.02-0.328l-7.969,0.845c0.006,0.069,0.006,0.146,0.012,0.212
		c2.517,23.798,11.589,36.145,23.092,34.923c0.131-0.012,0.251-0.057,0.381-0.069c12.636-1.611,18.597-15.564,16.432-39.304
		L735.556,128.413z"/>
	<g id="path3129">
		<path fill="#407FA2" d="M394.362,263.107l-0.882-9.009l35.562-3.775l0.883,9.007L394.362,263.107z M394.572,254.988l0.688,7.019
			l33.574-3.566l-0.688-7.017L394.572,254.988z"/>
	</g>
	<g id="path3133">
		<path fill="#407FA2" d="M418.324,213.672l-0.052-0.498c-0.828-7.873-11.345-9.525-20.021-9.525c-2.794,0-5.875,0.17-9.157,0.507
			l-0.5,0.051l-0.909-9.273l0.497-0.049c3.064-0.303,6.01-0.457,8.755-0.457c17.616,0,28.104,6.346,29.53,17.868l0.062,0.505
			L418.324,213.672z M398.251,202.65c12.711,0,19.938,3.428,20.95,9.924l6.205-0.658c-1.603-10.638-11.686-16.487-28.469-16.487
			c-2.564,0-5.307,0.136-8.16,0.404l0.714,7.279C392.621,202.805,395.565,202.65,398.251,202.65z"/>
	</g>
	<g id="path3137">
		<path fill="#407FA2" d="M384.109,237.884C384.109,237.884,384.109,237.884,384.109,237.884c-17.393,0-28.629-6.685-30.058-17.881
			l-0.064-0.507l8.222-0.873l0.052,0.499c0.615,5.933,8.381,9.474,20.773,9.474c2.612,0,5.439-0.154,8.404-0.459l0.5-0.051
			l0.911,9.3l-0.494,0.052C389.5,237.733,386.726,237.884,384.109,237.884z M355.116,220.382
			c1.634,10.345,12.42,16.502,28.993,16.502c0,0,0,0,0,0c2.431,0,5.001-0.132,7.647-0.392l-0.716-7.311
			c-2.817,0.275-5.508,0.414-8.006,0.414c-12.817,0-20.679-3.59-21.702-9.874L355.116,220.382z"/>
	</g>
	<g id="path3141">
		<path fill="#407FA2" d="M425.829,305.202c-0.001,0-0.001,0-0.002,0c-17.395-0.001-28.631-6.686-30.06-17.881l-0.064-0.507
			l8.223-0.873l0.052,0.499c0.614,5.933,8.38,9.474,20.773,9.474c2.612,0,5.439-0.154,8.404-0.459l0.5-0.051l0.911,9.301
			l-0.494,0.051C431.217,305.052,428.444,305.202,425.829,305.202z M396.832,287.7c1.634,10.345,12.42,16.501,28.995,16.502
			c0,0,0.002,0,0.002,0c2.429,0,4.998-0.132,7.643-0.392l-0.716-7.311c-2.817,0.275-5.508,0.414-8.006,0.414
			c-12.817,0-20.679-3.59-21.702-9.874L396.832,287.7z"/>
	</g>
	<g id="path3145">
		<path fill="#407FA2" d="M387.193,189.095l-0.127-0.489l-0.86-8.794l0.812-0.068c17.003-1.805,27.165-7.486,26.516-14.825
			l-0.003-0.035l0.005-0.108c-0.773-7.838-11.301-9.499-19.997-9.499c-2.802,0-5.891,0.172-9.182,0.512l-0.5,0.051l-0.909-9.286
			l0.497-0.049c3.064-0.303,6.009-0.457,8.754-0.457c17.685,0,28.177,6.394,29.545,18.002c0.006,0.066,0.017,0.114,0.027,0.162
			c0.017,0.08,0.032,0.16,0.041,0.243c1.255,12.814-11.45,22.005-33.986,24.588L387.193,189.095z M387.3,180.719l0.713,7.29
			c21.759-2.572,33.991-11.325,32.803-23.456c-0.005-0.047-0.015-0.093-0.025-0.14c-0.018-0.086-0.034-0.173-0.042-0.263
			c-1.299-11.024-11.439-17.104-28.55-17.104c-2.563,0-5.306,0.136-8.158,0.404l0.714,7.291c3.138-0.31,6.09-0.466,8.784-0.466
			c13.063,0,20.323,3.623,20.994,10.477l0.004,0.038l-0.006,0.111C415.24,172.867,405.065,178.801,387.3,180.719z"/>
	</g>
</g>
<g id="architecture">
	<path fill="#FFFFFF" d="M706.791,416.645l-3.569-36.439c-0.039-0.396-0.234-0.762-0.543-1.014s-0.7-0.368-1.102-0.332
		l-12.811,1.299l-13.356-136.38l3.037-0.322c0.819-0.087,1.415-0.818,1.335-1.638l-1.902-19.421l22.256-2.362
		c0.819-0.087,1.415-0.818,1.335-1.638l-0.826-8.426c-0.039-0.398-0.235-0.764-0.546-1.017c-0.31-0.252-0.711-0.37-1.105-0.329
		l-14.217,1.51l-10.106-13.388l-0.834-8.509c-0.039-0.398-0.235-0.764-0.546-1.017c-0.277-0.226-0.627-0.36-0.979-0.336
		c0.714-1.898,0.99-4.092,0.771-6.343c-0.603-6.154-4.66-10.72-9.203-10.244c-4.533,0.482-7.608,5.727-7.001,11.94
		c0.223,2.26,0.922,4.358,1.994,6.072c-0.769,0.131-1.315,0.837-1.238,1.624l0.834,8.512l-7.316,15.257l-137.809,14.631
		l-10.056-13.321l-0.834-8.513c-0.039-0.398-0.235-0.764-0.546-1.017c-0.277-0.226-0.625-0.365-0.979-0.336
		c0.715-1.898,0.991-4.091,0.771-6.338c-0.601-6.157-4.628-10.727-9.198-10.25c-4.538,0.482-7.616,5.729-7.008,11.943
		c0.22,2.254,0.921,4.352,1.998,6.068c-0.772,0.129-1.321,0.836-1.244,1.625l0.834,8.517l-7.308,15.252l-14.236,1.513
		c-0.819,0.087-1.415,0.818-1.334,1.638l0.825,8.425c0.039,0.398,0.235,0.764,0.545,1.017c0.311,0.252,0.71,0.369,1.106,0.329
		l22.236-2.359l1.888,19.255c0.039,0.398,0.235,0.764,0.545,1.017c0.311,0.252,0.708,0.371,1.106,0.329l1.254-0.134
		c0.153,0.032,0.313,0.041,0.472,0.025l1.287-0.136l13.358,136.38l-12.477,1.385c-0.144,0.017-0.282,0.057-0.412,0.117
		c-0.778,0.125-1.331,0.836-1.253,1.627l3.569,36.436c0.039,0.397,0.235,0.764,0.545,1.017c0.269,0.219,0.604,0.337,0.947,0.337
		c0.053,0,0.105-0.003,0.158-0.009l41.261-4.381c0.148-0.016,0.289-0.055,0.42-0.113c0.777-0.124,1.332-0.834,1.255-1.627
		l-0.283-2.88l18.801-1.996c0.137-0.014,0.273-0.054,0.403-0.111c0.465-0.07,0.87-0.354,1.096-0.769l6.784-12.523l0.034-0.003
		l-0.005-0.051l14.674-27.087l28.371-3.012l28.777,34.381c0.321,0.384,0.813,0.583,1.309,0.528l19.122-2.029l0.285,2.921
		c0.039,0.398,0.235,0.765,0.546,1.018c0.31,0.252,0.708,0.372,1.105,0.328l41.257-4.378c0.142-0.015,0.277-0.054,0.406-0.111
		C706.307,418.156,706.869,417.442,706.791,416.645z M685.783,380.469l-8.707,0.925l-13.357-136.375l8.708-0.925L685.783,380.469z
		 M637.604,314.643c-1.281-13.062-7.477-24.729-17.446-32.852c-9.438-7.69-21.194-11.225-33.094-9.965
		c-25.273,2.685-43.741,26.248-41.167,52.528l6.879,70.235l-29.277,3.107l-13.357-136.373l150.595-15.988l13.357,136.375
		l-29.612,3.144L637.604,314.643z M467.867,241.742l-0.533-5.438l13.589-1.444c0.517-0.055,0.969-0.374,1.194-0.844l7.851-16.385
		c0.119-0.247,0.167-0.521,0.14-0.794l-0.73-7.452l1.213-0.128c0.592-0.062,1.091-0.47,1.271-1.037
		c0.181-0.567,0.009-1.188-0.438-1.581c-1.587-1.396-2.688-3.799-2.944-6.427c-0.43-4.403,1.557-8.373,4.34-8.668
		c2.776-0.311,5.47,3.206,5.895,7.558c0.259,2.637-0.354,5.227-1.641,6.928c-0.361,0.477-0.404,1.123-0.109,1.643
		c0.294,0.521,0.87,0.812,1.465,0.753l1.187-0.127l0.729,7.428c0.027,0.275,0.129,0.537,0.295,0.757l10.821,14.335
		c0.316,0.42,0.831,0.639,1.355,0.588L652.3,216.598c0.518-0.055,0.97-0.374,1.194-0.843l7.859-16.389
		c0.118-0.247,0.167-0.522,0.141-0.794l-0.729-7.449l1.206-0.128c0.593-0.063,1.092-0.471,1.271-1.039
		c0.181-0.568,0.007-1.188-0.44-1.581c-1.58-1.385-2.679-3.789-2.938-6.429c-0.431-4.401,1.553-8.369,4.331-8.665
		c2.801-0.306,5.474,3.204,5.9,7.553c0.259,2.641-0.354,5.232-1.639,6.931c-0.36,0.477-0.403,1.122-0.109,1.643
		c0.293,0.519,0.86,0.811,1.464,0.753l1.186-0.126l0.729,7.425c0.027,0.275,0.13,0.537,0.296,0.757l10.872,14.402
		c0.317,0.42,0.832,0.639,1.355,0.588l13.557-1.439l0.534,5.44l-22.256,2.362c-0.146,0.015-0.281,0.057-0.41,0.111l-185.571,19.701
		L467.867,241.742z M494.332,259.984c-0.153-0.034-0.314-0.041-0.475-0.025l-0.215,0.023l-1.743-17.773l183.005-19.428l1.748,17.849
		l-3.037,0.322v0l-176.958,18.787c0,0,0,0,0,0L494.332,259.984z M498.451,262.564l8.706-0.925l13.356,136.373l-8.705,0.925
		L498.451,262.564z M540.761,428.343c-0.819,0.087-1.415,0.817-1.335,1.638l0.289,2.946l-38.623,4.101l-3.285-33.525l12.821-1.423
		c0.002,0,0.004-0.001,0.006-0.001l42.434-4.504l2.856,29.159L540.761,428.343z M580.556,345.898
		c-0.77-7.867,4.726-14.916,12.249-15.714c3.536-0.374,7.011,0.674,9.807,2.95c2.976,2.424,4.825,5.92,5.21,9.844l3.89,39.729
		l-27.266,2.895L580.556,345.898z M610.808,342.686c-0.464-4.726-2.701-8.943-6.302-11.876c-3.42-2.787-7.689-4.07-12.018-3.607
		c-9.155,0.97-15.848,9.488-14.919,18.989l4.036,41.193l-2.444,4.512l-5.042-51.471c-1.101-11.219,6.747-21.274,17.492-22.415
		c5.043-0.53,10.017,0.966,14.02,4.227c4.252,3.465,6.895,8.447,7.441,14.03l5.004,51.08l-3.279-3.917L610.808,342.686z
		 M616.059,335.975c-0.626-6.385-3.656-12.09-8.533-16.062c-4.628-3.771-10.396-5.51-16.23-4.884
		c-12.377,1.313-21.422,12.838-20.162,25.69l5.475,55.891l-7.46,13.771l-7.724-78.847c-1.755-17.933,10.807-34.007,28.003-35.833
		c8.067-0.858,16.042,1.546,22.45,6.767c6.797,5.538,11.021,13.501,11.896,22.422l7.685,78.444l-9.967-11.907L616.059,335.975z
		 M634.871,407.414l-8.112-82.816c-0.953-9.723-5.565-18.407-12.987-24.455c-7.031-5.729-15.78-8.365-24.661-7.425
		c-18.828,1.999-32.588,19.543-30.673,39.109l8.156,83.268l-6.038,11.146l-1.648,0.175l-10.024-102.355
		c-2.415-24.646,14.855-46.74,38.497-49.251c11.102-1.18,22.068,2.126,30.883,9.308c9.345,7.613,15.152,18.558,16.354,30.819
		l10.027,102.379l-1.365,0.145L634.871,407.414z M665.047,419.621l-0.285-2.921c-0.039-0.398-0.235-0.765-0.546-1.018
		c-0.311-0.252-0.71-0.372-1.105-0.328l-15.482,1.643l-2.855-29.158l42.798-4.544c0.001,0,0.002,0,0.002,0l12.811-1.299
		l3.283,33.527L665.047,419.621z"/>
</g>
</svg>
