<?xml version="1.0" encoding="UTF-8" standalone="no"?>
<!-- Created with Inkscape (http://www.inkscape.org/) -->

<svg
   xmlns:dc="http://purl.org/dc/elements/1.1/"
   xmlns:cc="http://creativecommons.org/ns#"
   xmlns:rdf="http://www.w3.org/1999/02/22-rdf-syntax-ns#"
   xmlns:svg="http://www.w3.org/2000/svg"
   xmlns="http://www.w3.org/2000/svg"
   version="1.1"
   width="44"
   height="52.610001"
   viewBox="0 0 44 52.61"
   id="_x2014_ÎÓÈ_1"
   xml:space="preserve"><metadata
   id="metadata3142"><rdf:RDF><cc:Work
       rdf:about=""><dc:format>image/svg+xml</dc:format><dc:type
         rdf:resource="http://purl.org/dc/dcmitype/StillImage" /><dc:title></dc:title></cc:Work></rdf:RDF></metadata><defs
   id="defs3140" />
<g
   id="g3132">
	
		<circle
   cx="22"
   cy="30.610001"
   r="21"
   id="circle3134"
   style="fill:none;stroke:#ff6f4a;stroke-width:2;stroke-linecap:round;stroke-linejoin:round;stroke-miterlimit:10;stroke-dasharray:5, 5, 5, 5, 5, 5" />
	<path
   d="m 18.806,44.241 c -1.809,-0.535 -2.896,-2.96 -3.562,-7.274 l -1.311,-7.094 c -1.17,-5.419 -1.95,-8.237 -2.135,-8.576 0.592,-1.547 2.035,-2.078 4.328,-1.59 2.224,0.659 3.671,2.139 4.339,4.444 l -0.413,0.261 c 0.416,0.124 0.455,0.42 0.258,0.938 l 1.33,6.232 0.283,0.084 0.293,-0.771 0.02,-0.857 c 0.135,0.041 0.312,-0.003 0.345,-0.088 l -0.282,-0.084 c 0.098,-0.259 0.433,-0.733 0.942,-1.639 0.328,-0.856 0.48,-1.675 0.575,-2.317 1.684,-4.002 2.919,-6.412 3.621,-7.447 -0.138,-0.04 -0.205,-0.252 -0.21,-0.639 0.065,-0.171 0.232,-0.215 0.505,-0.134 0.035,-0.089 0.103,-0.259 0.061,-0.561 l 0.27,-0.301 c 0.133,-0.343 0.232,-0.603 0.163,-0.812 l 0.497,-0.905 1.023,-2.669 0.192,-0.896 c 0.135,0.042 0.135,0.042 0.167,-0.05 l -0.137,-0.04 0.467,-0.816 -3.788,9.886 0.415,-0.258 -0.285,-0.084 c 0.333,-0.862 0.875,-1.848 1.436,-2.928 l -0.048,-0.687 c 0.243,-0.211 0.811,-0.904 1.389,-1.979 -0.15,-0.044 -0.285,-0.084 -0.253,-0.169 l 0.418,-0.259 c 0.098,-0.262 0.114,-0.732 0.207,-1.377 0.601,-1.164 1.148,-1.764 1.348,-1.896 C 31.139,10.85 31.086,10.162 31.377,9.001 31.68,8.614 31.992,8.23 32.09,7.969 32.122,7.888 32.04,7.666 32,7.37 l 0.625,-0.005 c 0.261,-1.074 0.42,-1.887 0.618,-2.404 L 33.735,3.672 34.14,3.409 33.647,3.071 c 0.205,-0.134 0.883,-1.079 2.061,-2.934 0.068,-0.171 0.99,-0.184 2.799,-0.031 l 0.272,0.08 c 1.528,0.454 2.488,1.601 3.041,3.39 -0.3,0.773 -0.636,1.249 -1.218,1.559 l 0.282,0.085 c -0.032,0.084 -0.242,0.211 -0.478,0.43 l -0.085,1.028 -0.425,1.115 c -0.165,0.431 -0.538,0.989 -0.94,1.639 0.07,0.212 0.082,0.598 -0.085,1.028 -0.027,0.085 -0.24,0.218 -0.473,0.433 l 0.28,0.082 -0.711,1.037 -0.297,0.773 -0.016,0.859 c -0.145,-0.044 -0.31,-10e-4 -0.348,0.087 0.138,0.04 0.253,0.167 0.218,0.256 l -0.415,0.257 0.282,0.084 c -0.032,0.088 -0.242,0.217 -0.444,0.348 -0.133,0.346 -0.128,0.73 -0.147,1.199 l -0.928,0.779 0.284,0.085 c -0.43,1.117 -1.058,2.366 -2.04,3.704 0.067,0.211 0.107,0.512 -0.025,0.854 l -0.13,0.343 -0.57,0.695 c 0.136,0.04 0.24,0.167 0.205,0.25 l -0.367,0.18 5.111,-12.56 c -0.2,0.131 -0.4,0.267 -0.433,0.35 0.135,0.039 0.237,0.168 0.205,0.252 l -1.065,1.603 c 0.138,0.039 0.103,0.123 0.07,0.212 l -1.354,3.524 -0.024,0.852 c -0.135,-0.04 -0.306,0.004 -0.402,0.266 -0.098,0.258 -0.033,0.47 0.037,0.68 -0.235,0.221 -0.433,0.353 -0.53,0.606 l -0.098,0.261 -0.127,1.112 c -0.203,0.132 -0.4,0.262 -0.436,0.349 -0.095,0.257 -0.03,0.473 0.04,0.684 -0.237,0.214 -0.532,0.606 -0.965,1.339 0.132,0.042 0.102,0.128 0.067,0.212 l -0.265,0.303 0.04,0.297 c -0.133,0.349 -0.266,0.688 -0.568,1.081 -0.032,0.083 -0.098,0.254 -0.062,0.556 l -0.56,1.075 c -0.098,0.26 -0.266,0.689 -0.295,1.16 -0.301,0.388 -0.46,0.816 -0.628,1.248 l -0.53,1.375 -0.415,0.259 c 0.138,0.04 0.252,0.171 0.218,0.257 l -0.953,2.494 -0.49,1.674 c -0.138,-0.042 -0.17,0.047 -0.205,0.133 l 0.343,0.291 c -0.5,0.524 -0.8,0.91 -0.867,1.082 l -0.193,0.901 c -0.135,-0.041 -0.135,-0.041 -0.17,0.048 0.04,0.295 -0.03,0.469 -0.125,0.725 l -0.133,0.343 c -0.297,0.774 -0.692,1.807 -1.293,2.97 l 0.041,0.3 -1.615,2.202 c -0.463,1.202 -2.016,1.605 -4.816,1.252 l -0.493,-0.338 -0.485,0.046 z"
   id="path3136"
   style="fill:#ffffff" />
</g>
</svg>