<?xml version="1.0" encoding="UTF-8" standalone="no"?>
<!-- Created with Inkscape (http://www.inkscape.org/) -->

<svg
   xmlns:dc="http://purl.org/dc/elements/1.1/"
   xmlns:cc="http://creativecommons.org/ns#"
   xmlns:rdf="http://www.w3.org/1999/02/22-rdf-syntax-ns#"
   xmlns:svg="http://www.w3.org/2000/svg"
   xmlns="http://www.w3.org/2000/svg"
   version="1.1"
   width="44"
   height="52.610001"
   viewBox="0 0 44 52.610001"
   id="_x2014_ÎÓÈ_1"
   xml:space="preserve"><metadata
   id="metadata3349"><rdf:RDF><cc:Work
       rdf:about=""><dc:format>image/svg+xml</dc:format><dc:type
         rdf:resource="http://purl.org/dc/dcmitype/StillImage" /><dc:title></dc:title></cc:Work></rdf:RDF></metadata><defs
   id="defs3347" />
<g
   transform="translate(0,8.61)"
   id="g3337">
	<g
   id="g3339">
		<path
   d="m 24.4,14.619 c 0,0.16 -0.08,0.24 -0.32,0.24 l 0.32,0.64 -0.32,0.16 0.16,0.72 v 0.16 c 0,0.24 -0.08,0.4 -0.16,0.56 l 0.16,0.32 c -0.08,0.72 -0.16,1.2 -0.16,1.6 v 0.72 c 0.24,0 0.32,0.08 0.32,0.16 l 0.32,-0.16 c 0.08,0 0.159,0.08 0.159,0.16 l 0.24,-0.16 h 0.16 c 0.08,0 0.16,0.08 0.16,0.16 l 0.32,-0.16 0.56,0.16 0.72,-0.16 0.801,0.16 c 1.04,-0.08 2.079,-0.16 2.96,-0.16 h 0.239 l 0.721,-0.08 c 0.88,0.4 1.359,0.72 1.359,0.88 0.4,0.56 0.641,1.12 0.721,1.76 -0.24,0.88 -0.721,1.36 -1.44,1.36 h -0.16 l -0.319,-0.16 -0.16,0.24 c -0.16,0 -0.24,0 -0.24,-0.08 -1.68,0.08 -2.88,0.08 -3.68,0.08 H 25.84 c -0.239,0 -0.399,0 -0.56,-0.08 l -1.36,0.4 v 0.16 l 0.16,0.72 h -0.16 c 0,0.08 0.08,0.16 0.16,0.16 l -0.16,0.72 c 0,0.24 0.08,0.4 0.16,0.64 l -0.16,0.24 c 0.08,0.24 0.16,0.4 0.16,0.48 h -0.16 l 0.16,0.32 v 0.24 c 0,0.08 -0.08,0.16 -0.16,0.16 l 0.16,0.32 -0.16,1.04 0.16,1.44 c -0.56,0.88 -0.96,1.36 -1.2,1.36 l -0.239,-0.16 -0.721,0.16 c -1.359,-0.48 -2,-1.04 -2,-1.6 0,-2.24 0,-3.52 -0.08,-3.76 l 0.08,-0.24 -0.08,-0.32 0.08,-0.32 c -0.08,-0.16 -0.08,-0.32 -0.08,-0.4 h 0.08 l -0.08,-0.32 v -0.16 l 0.08,-0.32 c -0.399,-0.16 -0.56,-0.32 -0.56,-0.4 -0.08,0 -0.16,0.08 -0.16,0.16 -0.08,0 -0.24,-0.08 -0.4,-0.16 l -1.359,0.16 c -1.92,0 -3.761,-0.64 -5.601,-1.92 l 0.16,-0.32 -0.48,-0.56 c 0.16,0 0.48,-0.32 0.881,-0.88 0.239,0 0.479,-0.24 0.88,-0.64 0.16,-0.08 0.399,-0.16 0.64,-0.16 1.68,0.32 3.36,0.48 5.04,0.48 0.08,0 0.48,-0.16 1.12,-0.48 l -0.16,-0.72 v -1.6 l -0.08,-0.88 c 0,-1.76 0.48,-2.72 1.44,-2.96 0.4,-0.4 0.72,-0.64 0.88,-0.64 0.799,0 1.52,0.48 2.239,1.52 z"
   id="path3341"
   style="fill:#ffffff" />
	</g>
	
		<circle
   cx="22"
   cy="22"
   r="21"
   id="circle3343"
   style="fill:none;stroke:#ff6f4a;stroke-width:2;stroke-linecap:round;stroke-linejoin:round;stroke-miterlimit:10;stroke-dasharray:5, 5, 5, 5, 5, 5" />
</g>
</svg>