<?xml version="1.0" encoding="utf-8"?>
<!-- Generator: Adobe Illustrator 16.0.0, SVG Export Plug-In . SVG Version: 6.00 Build 0)  -->
<!DOCTYPE svg PUBLIC "-//W3C//DTD SVG 1.1//EN" "http://www.w3.org/Graphics/SVG/1.1/DTD/svg11.dtd">
<svg version="1.1" id="notepad" xmlns="http://www.w3.org/2000/svg" xmlns:xlink="http://www.w3.org/1999/xlink" x="0px" y="0px"
	 width="968.582px" height="1083.04px" viewBox="0 0 968.582 1083.04" enable-background="new 0 0 968.582 1083.04"
	 xml:space="preserve">
<g class="notepad-svg">
	<rect x="36.491" y="73.979" fill="#FFFFFF" width="926.041" height="974.814"/>
	<rect x="36.491" y="73.979" fill="#FFFFFF" width="926.042" height="974.814"/>
	<path fill="#CCC4B7" d="M33.61,1051.793L33.49,73.979L7.394,97.721c-2.692,2.753-4.894,8.155-4.894,12.005v963.813
		c0,3.852,3.15,7,7,7h925.675c3.85,0,9.158-2.295,11.794-5.098l15.381-18.551c2.639-2.807,5.021-5.102,1.173-5.102H33.61V1051.793z"
		/>
	<path fill="#CCC4B7" d="M33.609,1051.793L33.49,73.979L7.394,97.721c-2.692,2.753-4.894,8.155-4.894,12.005v963.813
		c0,3.852,3.15,7,7,7h925.676c3.85,0,9.158-2.295,11.794-5.098l15.381-18.551c2.639-2.807,5.021-5.102,1.173-5.102H33.609V1051.793z
		"/>

	<path fill="#407fa2" d="M678.137,1031.211c-1.319,0-2.525-0.879-2.892-2.209c-0.43-1.568,0.471-3.197,2.03-3.666
		c31.733-9.533,99.505-39.482,196.812-132.949c0.781-0.75,1.905-1.021,2.946-0.709c1.038,0.314,1.825,1.164,2.061,2.223
		c8.538,38.469,30.952,52.176,49.082,52.176c8.41,0,16.252-2.961,22.08-8.336c1.087-1.002,2.741-1.062,3.896-0.146
		c1.158,0.92,1.477,2.541,0.75,3.826c-3.34,5.918-9.379,12.109-16.155,16.562c-23.922,15.582-130.478,41.547-216.095,62.41
		c-15.574,3.797-30.284,7.381-43.795,10.73C678.618,1031.182,678.376,1031.211,678.137,1031.211z M874.491,900.303
		c-66.5,63.254-119.255,96.98-156.007,114.932c0.913-0.223,1.831-0.445,2.75-0.67c85.175-20.756,191.178-46.586,214.229-61.604
		c0.979-0.641,2.022-1.389,3.097-2.225c-3.324,0.883-6.812,1.338-10.383,1.338c-11.566,0-23.092-4.828-32.449-13.6
		C886.091,929.444,878.804,916.319,874.491,900.303z"/>
	<path fill="#407fa2" d="M678.137,1031.211c-1.319,0-2.525-0.879-2.892-2.209c-0.43-1.568,0.471-3.197,2.03-3.666
		c31.733-9.533,99.505-39.482,196.812-132.949c0.781-0.75,1.906-1.021,2.947-0.709c1.037,0.314,1.824,1.164,2.061,2.223
		c8.537,38.469,30.952,52.176,49.082,52.176c8.41,0,16.252-2.961,22.08-8.336c1.087-1.002,2.741-1.062,3.896-0.146
		c1.158,0.92,1.477,2.541,0.75,3.826c-3.34,5.918-9.379,12.109-16.155,16.562c-23.922,15.582-130.479,41.547-216.096,62.41
		c-15.574,3.797-30.284,7.381-43.795,10.73C678.618,1031.182,678.376,1031.211,678.137,1031.211z M874.492,900.303
		c-66.501,63.254-119.256,96.98-156.008,114.932c0.913-0.223,1.831-0.445,2.75-0.67c85.175-20.756,191.179-46.586,214.229-61.604
		c0.979-0.641,2.022-1.389,3.097-2.225c-3.324,0.883-6.812,1.338-10.383,1.338c-11.566,0-23.092-4.828-32.449-13.6
		C886.092,929.444,878.805,916.319,874.492,900.303z"/>
	<path d="M129.173,122.275c0,15.275-12.377,27.644-27.651,27.644c-15.267,0-27.636-12.369-27.636-27.644
		c0-15.267,12.369-27.636,27.636-27.636C116.796,94.639,129.173,107.008,129.173,122.275"/>
	<path d="M129.172,122.275c0,15.275-12.377,27.644-27.651,27.644c-15.267,0-27.636-12.369-27.636-27.644
		c0-15.267,12.369-27.636,27.636-27.636C116.795,94.639,129.172,107.008,129.172,122.275"/>
	<path d="M217.258,122.275c0,15.275-12.378,27.644-27.651,27.644c-15.268,0-27.637-12.369-27.637-27.644
		c0-15.267,12.369-27.636,27.637-27.636C204.88,94.639,217.258,107.008,217.258,122.275"/>
	<path d="M217.257,122.275c0,15.275-12.378,27.644-27.651,27.644c-15.268,0-27.637-12.369-27.637-27.644
		c0-15.267,12.369-27.636,27.637-27.636C204.879,94.639,217.257,107.008,217.257,122.275"/>
	<path d="M305.343,122.275c0,15.275-12.377,27.644-27.651,27.644c-15.268,0-27.637-12.369-27.637-27.644
		c0-15.267,12.369-27.636,27.637-27.636C292.966,94.639,305.343,107.008,305.343,122.275"/>
	<path d="M305.343,122.275c0,15.275-12.377,27.644-27.651,27.644c-15.268,0-27.637-12.369-27.637-27.644
		c0-15.267,12.369-27.636,27.637-27.636C292.966,94.639,305.343,107.008,305.343,122.275"/>
	<path d="M393.428,122.275c0,15.275-12.378,27.644-27.649,27.644c-15.271,0-27.639-12.369-27.639-27.644
		c0-15.267,12.369-27.636,27.639-27.636C381.05,94.639,393.428,107.008,393.428,122.275"/>
	<path d="M393.428,122.275c0,15.275-12.378,27.644-27.649,27.644c-15.271,0-27.639-12.369-27.639-27.644
		c0-15.267,12.369-27.636,27.639-27.636C381.05,94.639,393.428,107.008,393.428,122.275"/>
	<path d="M481.513,122.275c0,15.275-12.378,27.644-27.649,27.644s-27.641-12.369-27.641-27.644
		c0-15.267,12.369-27.636,27.641-27.636S481.513,107.008,481.513,122.275"/>
	<path d="M481.513,122.275c0,15.275-12.378,27.644-27.649,27.644s-27.641-12.369-27.641-27.644
		c0-15.267,12.369-27.636,27.641-27.636S481.513,107.008,481.513,122.275"/>
	<path d="M569.598,122.275c0,15.275-12.379,27.644-27.647,27.644c-15.272,0-27.644-12.369-27.644-27.644
		c0-15.267,12.369-27.636,27.644-27.636C557.219,94.639,569.598,107.008,569.598,122.275"/>
	<path d="M569.598,122.275c0,15.275-12.379,27.644-27.647,27.644c-15.272,0-27.644-12.369-27.644-27.644
		c0-15.267,12.369-27.636,27.644-27.636C557.219,94.639,569.598,107.008,569.598,122.275"/>
	<path d="M657.685,122.275c0,15.275-12.381,27.644-27.65,27.644c-15.271,0-27.644-12.369-27.644-27.644
		c0-15.267,12.37-27.636,27.644-27.636C645.305,94.639,657.685,107.008,657.685,122.275"/>
	<path d="M657.685,122.275c0,15.275-12.381,27.644-27.65,27.644c-15.271,0-27.644-12.369-27.644-27.644
		c0-15.267,12.37-27.636,27.644-27.636C645.305,94.639,657.685,107.008,657.685,122.275"/>
	<path d="M745.769,122.275c0,15.275-12.38,27.644-27.648,27.644c-15.273,0-27.646-12.369-27.646-27.644
		c0-15.267,12.37-27.636,27.646-27.636C733.389,94.639,745.769,107.008,745.769,122.275"/>
	<path d="M745.769,122.275c0,15.275-12.38,27.644-27.648,27.644c-15.273,0-27.646-12.369-27.646-27.644
		c0-15.267,12.37-27.636,27.646-27.636C733.389,94.639,745.769,107.008,745.769,122.275"/>
	<path d="M833.854,122.275c0,15.275-12.381,27.644-27.65,27.644c-15.273,0-27.645-12.369-27.645-27.644
		c0-15.267,12.369-27.636,27.645-27.636C821.474,94.639,833.854,107.008,833.854,122.275"/>
	<path d="M833.855,122.275c0,15.275-12.381,27.644-27.651,27.644c-15.273,0-27.645-12.369-27.645-27.644
		c0-15.267,12.369-27.636,27.645-27.636C821.475,94.639,833.855,107.008,833.855,122.275"/>
	<path d="M921.938,122.275c0,15.275-12.381,27.644-27.648,27.644c-15.274,0-27.646-12.369-27.646-27.644
		c0-15.267,12.37-27.636,27.646-27.636C909.558,94.639,921.938,107.008,921.938,122.275"/>
	<path d="M921.939,122.275c0,15.275-12.381,27.644-27.648,27.644c-15.275,0-27.646-12.369-27.646-27.644
		c0-15.267,12.369-27.636,27.646-27.636C909.559,94.639,921.939,107.008,921.939,122.275"/>
	<path fill="#407fa2" d="M120.124,114.887c-0.025-0.247-0.049-0.493-0.073-0.737l-0.02-0.182l-0.009-0.091l-0.005-0.046
		l-0.003-0.022c-0.004,0.141,0.004-0.217,0.002-0.189l-0.056-0.358c-0.038-0.238-0.075-0.474-0.112-0.707
		c-0.074-0.467-0.141-0.925-0.227-1.374c-0.285-1.651-0.586-3.167-0.884-4.537V48.309c0-23.386-6.882-39.652-19.379-45.801
		c-3.384-1.666-6.958-2.51-10.62-2.51c-5.671,0-11.328,2.052-16.359,5.933C57.922,17.067,47.02,42.717,47.02,65.595v5.525h34.42
		v-5.525c0-5.092,1.049-10.947,2.875-16.492v57.494c-0.302,1.381-0.608,2.915-0.897,4.585c-0.087,0.449-0.15,0.907-0.226,1.374
		c-0.037,0.233-0.075,0.469-0.113,0.707l-0.056,0.358l-0.039,0.438c-0.125,1.182-0.1,2.427,0.033,3.713
		c0.307,2.562,1.232,5.254,2.838,7.674c0.767,1.238,1.774,2.339,2.861,3.385c0.556,0.507,1.15,0.989,1.757,1.457
		c0.648,0.408,1.272,0.876,1.971,1.218c0.688,0.364,1.383,0.726,2.123,0.997c0.368,0.14,0.729,0.304,1.107,0.417l1.145,0.31
		c0.715,0.221,1.69,0.336,2.549,0.465l0.332,0.043l0.229,0.016l0.448,0.028l0.448,0.029l0.224,0.014l0.479,0.017
		c3.166-0.035,6.354-0.833,9.077-2.343c0.698-0.344,1.325-0.806,1.968-1.221c0.606-0.467,1.201-0.948,1.757-1.456
		c1.09-1.042,2.091-2.148,2.858-3.383c1.605-2.417,2.529-5.111,2.834-7.67c0.092-0.635,0.101-1.383,0.131-2.041
		C120.176,115.354,120.143,115.137,120.124,114.887z"/>
	<path fill="#407fa2" d="M120.124,114.887c-0.025-0.247-0.049-0.493-0.073-0.737l-0.02-0.182l-0.009-0.091l-0.005-0.046
		l-0.003-0.022c-0.004,0.141,0.004-0.217,0.002-0.189l-0.056-0.358c-0.038-0.238-0.075-0.474-0.112-0.707
		c-0.074-0.467-0.141-0.925-0.227-1.374c-0.285-1.651-0.586-3.167-0.884-4.537V48.309c0-23.386-6.882-39.652-19.379-45.801
		c-3.384-1.666-6.958-2.51-10.62-2.51c-5.671,0-11.328,2.052-16.359,5.933C57.921,17.067,47.02,42.717,47.02,65.595v5.525h34.42
		v-5.525c0-5.092,1.049-10.947,2.875-16.492v57.494c-0.302,1.381-0.608,2.915-0.897,4.585c-0.087,0.449-0.15,0.907-0.226,1.374
		c-0.037,0.233-0.075,0.469-0.113,0.707l-0.056,0.358l-0.039,0.438c-0.125,1.182-0.1,2.427,0.033,3.713
		c0.307,2.562,1.232,5.254,2.838,7.674c0.767,1.238,1.774,2.339,2.861,3.385c0.556,0.507,1.15,0.989,1.757,1.457
		c0.648,0.408,1.272,0.876,1.971,1.218c0.688,0.364,1.383,0.726,2.123,0.997c0.368,0.14,0.729,0.304,1.107,0.417l1.145,0.31
		c0.715,0.221,1.69,0.336,2.549,0.465l0.332,0.043l0.229,0.016l0.448,0.028l0.448,0.029l0.224,0.014l0.479,0.017
		c3.166-0.035,6.354-0.833,9.077-2.343c0.698-0.344,1.325-0.806,1.968-1.221c0.606-0.467,1.201-0.948,1.757-1.456
		c1.09-1.042,2.091-2.148,2.858-3.383c1.605-2.417,2.529-5.111,2.834-7.67c0.092-0.635,0.101-1.383,0.131-2.041
		C120.175,115.354,120.143,115.137,120.124,114.887z"/>
	<path d="M83.408,14.654l5,44.726c0.309,2.761-1.68,5.25-4.441,5.558c-2.762,0.309-5.25-1.68-5.559-4.44
		c-0.042-0.37-0.038-0.763,0-1.118L83.408,14.654z"/>
	<path d="M83.408,14.654l5,44.726c0.309,2.761-1.68,5.25-4.441,5.558c-2.762,0.309-5.25-1.68-5.559-4.44
		c-0.042-0.37-0.038-0.763,0-1.118L83.408,14.654z"/>
	<path fill="#407fa2" d="M208.209,114.886c-0.025-0.247-0.05-0.493-0.074-0.736l-0.019-0.183l-0.01-0.09l-0.004-0.046l-0.003-0.023
		c-0.004,0.142,0.004-0.216,0.001-0.188l-0.056-0.359c-0.037-0.237-0.075-0.473-0.111-0.707c-0.074-0.466-0.141-0.924-0.227-1.374
		c-0.285-1.649-0.586-3.166-0.884-4.534V48.308c0-23.385-6.883-39.651-19.38-45.8c-3.384-1.665-6.957-2.509-10.619-2.509
		c-5.671,0-11.328,2.052-16.358,5.933c-14.458,11.136-25.361,36.785-25.361,59.664v5.525h34.421v-5.525
		c0-5.092,1.048-10.947,2.874-16.491V106.6c-0.302,1.38-0.607,2.912-0.896,4.58c-0.088,0.45-0.15,0.908-0.227,1.374
		c-0.037,0.234-0.075,0.47-0.112,0.707l-0.057,0.359l-0.039,0.438c-0.124,1.183-0.1,2.428,0.034,3.714
		c0.306,2.562,1.231,5.254,2.837,7.674c0.767,1.237,1.775,2.339,2.861,3.385c0.557,0.507,1.15,0.989,1.758,1.457
		c0.648,0.408,1.271,0.876,1.97,1.218c0.689,0.364,1.383,0.726,2.124,0.997c0.367,0.139,0.729,0.303,1.106,0.417l1.146,0.308
		c0.715,0.223,1.689,0.338,2.548,0.466l0.332,0.044l0.229,0.016l0.448,0.028l0.465,0.028l0.224,0.016l0.136,0.004
		c0.042,0.002,0.329,0.012,0.327,0.012c0.028-0.001,0.057-0.002,0.089-0.003h0.038c0.021-0.001,0.053-0.003,0.075-0.004
		c0.044-0.001,0.105-0.003,0.149-0.003c0.087-0.002,0.208-0.007,0.296-0.012c0.176-0.008,0.417-0.021,0.593-0.034
		c0.394-0.03,0.788-0.067,1.18-0.121c0.785-0.11,1.563-0.254,2.328-0.455c0.339-0.087,0.802-0.219,1.133-0.326
		c0.373-0.122,0.741-0.256,1.104-0.4c0.721-0.282,1.419-0.614,2.091-0.985c0.697-0.345,1.325-0.806,1.967-1.221
		c0.608-0.468,1.201-0.948,1.758-1.456c1.09-1.043,2.09-2.148,2.858-3.384c1.605-2.417,2.528-5.11,2.834-7.669
		c0.091-0.636,0.1-1.384,0.131-2.042C208.26,115.354,208.228,115.136,208.209,114.886z"/>
	<path fill="#407fa2" d="M208.208,114.886c-0.025-0.247-0.05-0.493-0.074-0.736l-0.019-0.183l-0.01-0.09l-0.004-0.046l-0.003-0.023
		c-0.004,0.142,0.004-0.216,0.001-0.188l-0.056-0.359c-0.037-0.237-0.075-0.473-0.111-0.707c-0.074-0.466-0.141-0.924-0.227-1.374
		c-0.285-1.649-0.586-3.166-0.884-4.534V48.308c0-23.385-6.883-39.651-19.38-45.8c-3.384-1.665-6.957-2.509-10.619-2.509
		c-5.671,0-11.328,2.052-16.358,5.933c-14.458,11.136-25.361,36.785-25.361,59.664v5.525h34.421v-5.525
		c0-5.092,1.048-10.947,2.874-16.491V106.6c-0.302,1.38-0.607,2.912-0.896,4.58c-0.088,0.45-0.15,0.908-0.227,1.374
		c-0.037,0.234-0.075,0.47-0.112,0.707l-0.057,0.359l-0.039,0.438c-0.124,1.183-0.1,2.428,0.034,3.714
		c0.306,2.562,1.231,5.254,2.837,7.674c0.767,1.237,1.775,2.339,2.861,3.385c0.557,0.507,1.15,0.989,1.758,1.457
		c0.648,0.408,1.271,0.876,1.97,1.218c0.689,0.364,1.383,0.726,2.124,0.997c0.367,0.139,0.729,0.303,1.106,0.417l1.146,0.308
		c0.715,0.223,1.689,0.338,2.548,0.466l0.332,0.044l0.229,0.016l0.448,0.028l0.465,0.028l0.224,0.016l0.136,0.004
		c0.042,0.002,0.329,0.012,0.327,0.012c0.028-0.001,0.057-0.002,0.089-0.003h0.038c0.021-0.001,0.053-0.003,0.075-0.004
		c0.044-0.001,0.105-0.003,0.149-0.003c0.087-0.002,0.208-0.007,0.296-0.012c0.176-0.008,0.417-0.021,0.593-0.034
		c0.394-0.03,0.788-0.067,1.18-0.121c0.785-0.11,1.563-0.254,2.328-0.455c0.339-0.087,0.802-0.219,1.133-0.326
		c0.373-0.122,0.741-0.256,1.104-0.4c0.721-0.282,1.419-0.614,2.091-0.985c0.697-0.345,1.325-0.806,1.967-1.221
		c0.608-0.468,1.201-0.948,1.758-1.456c1.09-1.043,2.09-2.148,2.858-3.384c1.605-2.417,2.528-5.11,2.834-7.669
		c0.091-0.636,0.1-1.384,0.131-2.042C208.259,115.354,208.228,115.136,208.208,114.886z"/>
	<path d="M171.493,14.654l5,44.726c0.309,2.761-1.68,5.25-4.441,5.558c-2.762,0.309-5.251-1.68-5.56-4.44
		c-0.041-0.37-0.037-0.763,0-1.118L171.493,14.654z"/>
	<path d="M171.493,14.654l5,44.726c0.309,2.761-1.68,5.25-4.441,5.558c-2.762,0.309-5.251-1.68-5.56-4.44
		c-0.041-0.37-0.037-0.763,0-1.118L171.493,14.654z"/>
	<path fill="#407fa2" d="M296.293,114.887c-0.024-0.248-0.049-0.494-0.073-0.737l-0.019-0.183l-0.01-0.09l-0.004-0.046l-0.004-0.023
		c-0.004,0.142,0.005-0.216,0.002-0.188l-0.056-0.359c-0.037-0.237-0.075-0.473-0.111-0.707c-0.075-0.466-0.142-0.924-0.228-1.374
		c-0.285-1.65-0.586-3.167-0.884-4.536V48.309c0-23.386-6.883-39.652-19.38-45.801c-3.383-1.665-6.956-2.509-10.619-2.509
		c-5.671,0-11.328,2.052-16.358,5.933c-14.458,11.136-25.361,36.785-25.361,59.664v5.525h34.42v-5.525
		c0-5.093,1.049-10.948,2.875-16.492V106.6c-0.302,1.38-0.608,2.913-0.897,4.581c-0.087,0.45-0.15,0.908-0.227,1.374
		c-0.037,0.234-0.075,0.47-0.112,0.707l-0.057,0.359l-0.038,0.438c-0.125,1.183-0.102,2.428,0.033,3.714
		c0.307,2.562,1.232,5.255,2.838,7.674c0.767,1.237,1.774,2.339,2.861,3.385c0.556,0.507,1.15,0.989,1.757,1.457
		c0.648,0.408,1.272,0.876,1.971,1.218c0.688,0.364,1.383,0.726,2.123,0.997c0.368,0.139,0.729,0.303,1.107,0.417l1.146,0.309
		c0.714,0.222,1.688,0.337,2.548,0.466l0.332,0.043l0.229,0.016l0.449,0.028l0.483,0.03l0.222,0.014l0.129,0.006
		c0.083,0.002,0.324,0.01,0.318,0.009c0.023,0,0.049-0.001,0.083-0.001c0.009,0,0.027-0.001,0.037-0.001
		c0.019-0.001,0.055-0.002,0.074-0.003c0.039-0.002,0.111-0.004,0.15-0.005c0.076-0.001,0.219-0.008,0.296-0.012
		c0.153-0.007,0.439-0.022,0.592-0.034c0.396-0.03,0.789-0.063,1.181-0.119c0.785-0.113,1.566-0.248,2.329-0.454
		c0.297-0.077,0.844-0.23,1.134-0.325c0.374-0.121,0.741-0.258,1.104-0.401c0.726-0.281,1.421-0.617,2.095-0.986
		c0.698-0.345,1.325-0.807,1.968-1.222c0.608-0.468,1.201-0.948,1.758-1.456c1.089-1.042,2.09-2.148,2.858-3.384
		c1.605-2.417,2.528-5.11,2.833-7.669c0.092-0.636,0.101-1.384,0.132-2.042C296.345,115.354,296.313,115.136,296.293,114.887z"/>
	<path fill="#407fa2" d="M296.293,114.887c-0.024-0.248-0.049-0.494-0.073-0.737l-0.019-0.183l-0.011-0.09l-0.004-0.046
		l-0.004-0.023c-0.004,0.142,0.005-0.216,0.002-0.188l-0.056-0.359c-0.037-0.237-0.075-0.473-0.111-0.707
		c-0.075-0.466-0.142-0.924-0.228-1.374c-0.285-1.65-0.586-3.167-0.884-4.536V48.309c0-23.386-6.884-39.652-19.381-45.801
		c-3.383-1.665-6.956-2.509-10.619-2.509c-5.671,0-11.328,2.052-16.358,5.933c-14.458,11.136-25.361,36.785-25.361,59.664v5.525
		h34.42v-5.525c0-5.093,1.049-10.948,2.875-16.492V106.6c-0.302,1.38-0.608,2.913-0.897,4.581c-0.087,0.45-0.15,0.908-0.227,1.374
		c-0.037,0.234-0.075,0.47-0.112,0.707l-0.057,0.359l-0.038,0.438c-0.125,1.183-0.102,2.428,0.033,3.714
		c0.307,2.562,1.232,5.255,2.838,7.674c0.767,1.237,1.774,2.339,2.861,3.385c0.556,0.507,1.15,0.989,1.757,1.457
		c0.648,0.408,1.272,0.876,1.971,1.218c0.688,0.364,1.383,0.726,2.123,0.997c0.368,0.139,0.729,0.303,1.107,0.417l1.146,0.309
		c0.714,0.222,1.688,0.337,2.548,0.466l0.332,0.043l0.229,0.016l0.449,0.028l0.483,0.03l0.222,0.014l0.129,0.006
		c0.083,0.002,0.324,0.01,0.318,0.009c0.023,0,0.049-0.001,0.083-0.001c0.009,0,0.027-0.001,0.037-0.001
		c0.019-0.001,0.055-0.002,0.074-0.003c0.039-0.002,0.111-0.004,0.15-0.005c0.076-0.001,0.219-0.008,0.296-0.012
		c0.153-0.007,0.439-0.022,0.592-0.034c0.396-0.03,0.789-0.063,1.181-0.119c0.785-0.113,1.566-0.248,2.329-0.454
		c0.297-0.077,0.844-0.23,1.134-0.325c0.374-0.121,0.741-0.258,1.104-0.401c0.726-0.281,1.421-0.617,2.095-0.986
		c0.698-0.345,1.325-0.807,1.968-1.222c0.608-0.468,1.201-0.948,1.758-1.456c1.089-1.042,2.09-2.148,2.858-3.384
		c1.605-2.417,2.528-5.11,2.833-7.669c0.093-0.636,0.102-1.384,0.133-2.042C296.345,115.354,296.312,115.136,296.293,114.887z"/>
	<path d="M259.577,14.654l5,44.726c0.309,2.761-1.68,5.25-4.44,5.558c-2.762,0.309-5.251-1.68-5.56-4.44
		c-0.041-0.37-0.038-0.763,0-1.118L259.577,14.654z"/>
	<path d="M259.577,14.654l5,44.726c0.309,2.761-1.68,5.25-4.44,5.558c-2.762,0.309-5.251-1.68-5.56-4.44
		c-0.041-0.37-0.038-0.763,0-1.118L259.577,14.654z"/>
	<path fill="#407fa2" d="M384.378,114.887c-0.025-0.248-0.049-0.494-0.074-0.737l-0.019-0.183l-0.009-0.09l-0.006-0.046
		l-0.003-0.022c-0.004,0.141,0.004-0.217,0.002-0.189l-0.056-0.358c-0.037-0.238-0.075-0.474-0.112-0.707
		c-0.074-0.467-0.141-0.925-0.227-1.375c-0.285-1.649-0.586-3.166-0.883-4.534V48.309c0-23.386-6.883-39.652-19.381-45.801
		c-3.384-1.665-6.956-2.509-10.619-2.509c-5.671,0-11.328,2.052-16.358,5.933c-14.458,11.135-25.361,36.785-25.361,59.664v5.525
		h34.421v-5.525c0-5.094,1.049-10.95,2.875-16.494v57.496c-0.303,1.381-0.608,2.915-0.897,4.584c-0.087,0.45-0.15,0.908-0.227,1.375
		c-0.037,0.233-0.075,0.469-0.112,0.707l-0.057,0.358l-0.039,0.438c-0.125,1.183-0.101,2.428,0.032,3.714
		c0.308,2.562,1.232,5.255,2.839,7.675c0.768,1.236,1.773,2.338,2.86,3.385c0.558,0.506,1.151,0.988,1.758,1.456
		c0.648,0.409,1.272,0.876,1.972,1.218c0.688,0.364,1.383,0.726,2.123,0.997c0.368,0.139,0.729,0.303,1.106,0.417l1.146,0.309
		c0.714,0.222,1.688,0.337,2.548,0.466l0.332,0.043l0.229,0.016l0.448,0.028l0.502,0.031l0.22,0.015l0.121,0.004
		c0.124,0.003,0.32,0.01,0.312,0.009c0.019,0,0.041-0.001,0.074-0.001c0.008,0,0.028-0.001,0.037-0.001
		c0.017-0.001,0.058-0.003,0.074-0.003c0.033-0.002,0.116-0.005,0.149-0.005c0.063-0.002,0.229-0.009,0.296-0.013
		c0.132-0.006,0.462-0.024,0.594-0.034c0.395-0.03,0.789-0.058,1.181-0.117c0.783-0.116,1.567-0.243,2.329-0.452
		c0.255-0.066,0.888-0.243,1.137-0.323c0.374-0.121,0.739-0.261,1.104-0.405c0.727-0.279,1.422-0.618,2.099-0.987
		c0.697-0.345,1.324-0.807,1.968-1.222c0.605-0.468,1.2-0.948,1.757-1.456c1.09-1.042,2.091-2.148,2.858-3.383
		c1.604-2.418,2.528-5.111,2.834-7.67c0.091-0.636,0.101-1.383,0.131-2.042C384.431,115.354,384.396,115.137,384.378,114.887z"/>
	<path fill="#407fa2" d="M384.378,114.887c-0.025-0.248-0.049-0.494-0.074-0.737l-0.019-0.183l-0.009-0.09l-0.006-0.046
		l-0.003-0.022c-0.004,0.141,0.004-0.217,0.002-0.189l-0.056-0.358c-0.037-0.238-0.075-0.474-0.112-0.707
		c-0.074-0.467-0.141-0.925-0.227-1.375c-0.285-1.649-0.586-3.166-0.883-4.534V48.309c0-23.386-6.883-39.652-19.381-45.801
		c-3.384-1.665-6.956-2.509-10.619-2.509c-5.671,0-11.328,2.052-16.358,5.933c-14.458,11.135-25.361,36.785-25.361,59.664v5.525
		h34.421v-5.525c0-5.094,1.049-10.95,2.875-16.494v57.496c-0.303,1.381-0.608,2.915-0.897,4.584c-0.087,0.45-0.15,0.908-0.227,1.375
		c-0.037,0.233-0.075,0.469-0.112,0.707l-0.057,0.358l-0.039,0.438c-0.125,1.183-0.101,2.428,0.032,3.714
		c0.308,2.562,1.232,5.255,2.839,7.675c0.768,1.236,1.773,2.338,2.86,3.385c0.558,0.506,1.151,0.988,1.758,1.456
		c0.648,0.409,1.272,0.876,1.972,1.218c0.688,0.364,1.383,0.726,2.123,0.997c0.368,0.139,0.729,0.303,1.106,0.417l1.146,0.309
		c0.714,0.222,1.688,0.337,2.548,0.466l0.332,0.043l0.229,0.016l0.448,0.028l0.502,0.031l0.22,0.015l0.121,0.004
		c0.124,0.003,0.32,0.01,0.312,0.009c0.019,0,0.041-0.001,0.074-0.001c0.008,0,0.028-0.001,0.037-0.001
		c0.017-0.001,0.058-0.003,0.074-0.003c0.033-0.002,0.116-0.005,0.149-0.005c0.063-0.002,0.229-0.009,0.296-0.013
		c0.132-0.006,0.462-0.024,0.594-0.034c0.395-0.03,0.789-0.058,1.181-0.117c0.783-0.116,1.567-0.243,2.329-0.452
		c0.255-0.066,0.888-0.243,1.137-0.323c0.374-0.121,0.739-0.261,1.104-0.405c0.727-0.279,1.422-0.618,2.099-0.987
		c0.697-0.345,1.324-0.807,1.968-1.222c0.605-0.468,1.2-0.948,1.757-1.456c1.09-1.042,2.091-2.148,2.858-3.383
		c1.604-2.418,2.528-5.111,2.834-7.67c0.091-0.636,0.101-1.383,0.131-2.042C384.431,115.354,384.396,115.137,384.378,114.887z"/>
	<path d="M347.661,14.654l5,44.726c0.309,2.761-1.68,5.25-4.441,5.558c-2.762,0.309-5.251-1.68-5.559-4.44
		c-0.042-0.37-0.038-0.763,0-1.118L347.661,14.654z"/>
	<path d="M347.661,14.654l5,44.726c0.309,2.761-1.68,5.25-4.441,5.558c-2.762,0.309-5.251-1.68-5.559-4.44
		c-0.042-0.37-0.038-0.763,0-1.118L347.661,14.654z"/>
	<path fill="#407fa2" d="M472.463,114.886c-0.024-0.247-0.049-0.493-0.074-0.736l-0.019-0.183l-0.009-0.09l-0.005-0.046
		l-0.004-0.022c-0.005,0.141,0.004-0.217,0-0.189l-0.056-0.358c-0.037-0.238-0.075-0.474-0.11-0.707
		c-0.074-0.467-0.142-0.925-0.228-1.375c-0.285-1.649-0.586-3.166-0.884-4.534V48.309c0-23.386-6.883-39.652-19.381-45.801
		c-3.386-1.665-6.957-2.509-10.62-2.509c-5.671,0-11.328,2.052-16.357,5.933c-14.458,11.136-25.36,36.786-25.36,59.664v5.525h34.421
		v-5.525c0-5.093,1.049-10.948,2.875-16.492v57.497c-0.304,1.38-0.607,2.913-0.896,4.581c-0.087,0.45-0.148,0.908-0.227,1.375
		c-0.037,0.233-0.075,0.469-0.112,0.707l-0.057,0.358l-0.038,0.438c-0.125,1.184-0.102,2.428,0.032,3.714
		c0.308,2.562,1.231,5.254,2.838,7.675c0.768,1.236,1.773,2.338,2.86,3.385c0.559,0.506,1.15,0.988,1.757,1.457
		c0.649,0.408,1.272,0.875,1.974,1.217c0.688,0.364,1.383,0.726,2.123,0.997c0.366,0.139,0.729,0.303,1.105,0.417l1.146,0.309
		c0.714,0.222,1.688,0.337,2.547,0.466l0.333,0.043l0.229,0.016l0.449,0.028l0.521,0.032l0.22,0.014l0.113,0.005
		c0.166,0.004,0.313,0.009,0.303,0.008c0.014-0.001,0.032-0.001,0.064-0.001c0.008,0,0.03-0.001,0.037-0.001
		c0.016-0.001,0.062-0.003,0.074-0.003c0.028-0.002,0.122-0.005,0.149-0.006c0.055,0,0.241-0.01,0.297-0.013
		c0.108-0.005,0.481-0.026,0.593-0.034c0.396-0.031,0.79-0.053,1.181-0.115c0.785-0.119,1.569-0.24,2.331-0.451
		c0.212-0.055,0.932-0.254,1.139-0.321c0.375-0.121,0.738-0.265,1.104-0.408c0.729-0.277,1.424-0.621,2.104-0.989
		c0.696-0.343,1.323-0.806,1.969-1.221c0.605-0.468,1.2-0.948,1.757-1.456c1.09-1.041,2.09-2.148,2.858-3.383
		c1.604-2.418,2.527-5.111,2.834-7.67c0.091-0.636,0.101-1.383,0.131-2.041C472.515,115.354,472.481,115.137,472.463,114.886z"/>
	<path fill="#407fa2" d="M472.463,114.886c-0.024-0.247-0.049-0.493-0.074-0.736l-0.019-0.183l-0.009-0.09l-0.005-0.046
		l-0.004-0.022c-0.005,0.141,0.004-0.217,0-0.189l-0.056-0.358c-0.037-0.238-0.075-0.474-0.11-0.707
		c-0.074-0.467-0.142-0.925-0.228-1.375c-0.285-1.649-0.586-3.166-0.884-4.534V48.309c0-23.386-6.883-39.652-19.381-45.801
		c-3.386-1.665-6.957-2.509-10.62-2.509c-5.671,0-11.328,2.052-16.357,5.933c-14.458,11.136-25.36,36.786-25.36,59.664v5.525h34.421
		v-5.525c0-5.093,1.049-10.948,2.875-16.492v57.497c-0.304,1.38-0.607,2.913-0.896,4.581c-0.087,0.45-0.148,0.908-0.227,1.375
		c-0.037,0.233-0.075,0.469-0.112,0.707l-0.057,0.358l-0.038,0.438c-0.125,1.184-0.102,2.428,0.032,3.714
		c0.308,2.562,1.231,5.254,2.838,7.675c0.768,1.236,1.773,2.338,2.86,3.385c0.559,0.506,1.15,0.988,1.757,1.457
		c0.649,0.408,1.272,0.875,1.974,1.217c0.688,0.364,1.383,0.726,2.123,0.997c0.366,0.139,0.729,0.303,1.105,0.417l1.146,0.309
		c0.714,0.222,1.688,0.337,2.547,0.466l0.333,0.043l0.229,0.016l0.449,0.028l0.521,0.032l0.22,0.014l0.113,0.005
		c0.166,0.004,0.313,0.009,0.303,0.008c0.014-0.001,0.032-0.001,0.064-0.001c0.008,0,0.03-0.001,0.037-0.001
		c0.016-0.001,0.062-0.003,0.074-0.003c0.028-0.002,0.122-0.005,0.149-0.006c0.055,0,0.241-0.01,0.297-0.013
		c0.108-0.005,0.481-0.026,0.593-0.034c0.396-0.031,0.79-0.053,1.181-0.115c0.785-0.119,1.569-0.24,2.331-0.451
		c0.212-0.055,0.932-0.254,1.139-0.321c0.375-0.121,0.738-0.265,1.104-0.408c0.729-0.277,1.424-0.621,2.104-0.989
		c0.696-0.343,1.323-0.806,1.969-1.221c0.605-0.468,1.2-0.948,1.757-1.456c1.09-1.041,2.09-2.148,2.858-3.383
		c1.604-2.418,2.527-5.111,2.834-7.67c0.091-0.636,0.101-1.383,0.131-2.041C472.515,115.354,472.481,115.137,472.463,114.886z"/>
	<path d="M435.745,14.654l5,44.726c0.309,2.761-1.68,5.25-4.441,5.558c-2.762,0.309-5.25-1.68-5.559-4.44
		c-0.041-0.37-0.038-0.763,0-1.118L435.745,14.654z"/>
	<path d="M435.745,14.654l5,44.726c0.309,2.761-1.68,5.25-4.441,5.558c-2.762,0.309-5.25-1.68-5.559-4.44
		c-0.041-0.37-0.038-0.763,0-1.118L435.745,14.654z"/>
	<path fill="#407fa2" d="M560.547,114.887c-0.022-0.248-0.05-0.494-0.073-0.737l-0.02-0.183l-0.009-0.09l-0.005-0.046l-0.004-0.022
		c-0.005,0.141,0.005-0.217,0.002-0.189l-0.059-0.358c-0.036-0.238-0.073-0.474-0.109-0.707c-0.073-0.467-0.143-0.925-0.229-1.375
		c-0.285-1.649-0.586-3.165-0.884-4.534V48.309c0-23.386-6.883-39.651-19.381-45.801c-3.384-1.665-6.957-2.509-10.62-2.509
		c-5.671,0-11.328,2.052-16.358,5.933c-14.457,11.135-25.357,36.785-25.357,59.664v5.525h34.42v-5.525
		c0-5.093,1.049-10.95,2.876-16.496v57.493c-0.305,1.382-0.608,2.917-0.898,4.588c-0.088,0.45-0.147,0.908-0.227,1.375
		c-0.037,0.233-0.075,0.469-0.112,0.707l-0.057,0.358l-0.038,0.438c-0.125,1.184-0.103,2.428,0.033,3.714
		c0.306,2.562,1.229,5.255,2.838,7.675c0.767,1.236,1.771,2.338,2.858,3.385c0.56,0.506,1.15,0.988,1.759,1.457
		c0.647,0.408,1.271,0.875,1.973,1.217c0.688,0.364,1.383,0.726,2.123,0.997c0.367,0.139,0.729,0.303,1.104,0.417l1.146,0.309
		c0.714,0.222,1.688,0.337,2.547,0.465l0.333,0.044l0.229,0.016l0.447,0.028l0.537,0.033l0.219,0.014l0.105,0.005
		c0.207,0.004,0.311,0.008,0.295,0.007c0.01-0.001,0.022-0.001,0.057-0.001c0.007,0,0.032-0.001,0.038-0.001
		c0.013-0.001,0.063-0.003,0.074-0.004c0.021-0.001,0.127-0.005,0.147-0.005c0.045-0.001,0.254-0.012,0.299-0.014
		c0.087-0.004,0.505-0.028,0.593-0.035c0.396-0.031,0.79-0.049,1.183-0.113c0.782-0.122,1.568-0.235,2.331-0.45
		c0.169-0.043,0.976-0.265,1.14-0.318c0.375-0.121,0.738-0.267,1.104-0.41c0.73-0.276,1.428-0.623,2.107-0.99
		c0.695-0.344,1.323-0.807,1.968-1.222c0.605-0.468,1.2-0.948,1.756-1.456c1.09-1.041,2.091-2.148,2.858-3.383
		c1.604-2.418,2.527-5.111,2.834-7.67c0.092-0.636,0.102-1.383,0.132-2.041C560.6,115.354,560.565,115.137,560.547,114.887z"/>
	<path fill="#407fa2" d="M560.547,114.887c-0.022-0.248-0.05-0.494-0.073-0.737l-0.02-0.183l-0.009-0.09l-0.005-0.046l-0.004-0.022
		c-0.005,0.141,0.005-0.217,0.002-0.189l-0.059-0.358c-0.036-0.238-0.073-0.474-0.109-0.707c-0.073-0.467-0.143-0.925-0.229-1.375
		c-0.285-1.649-0.586-3.165-0.884-4.534V48.309c0-23.386-6.883-39.651-19.381-45.801c-3.384-1.665-6.957-2.509-10.62-2.509
		c-5.671,0-11.328,2.052-16.358,5.933c-14.457,11.135-25.357,36.785-25.357,59.664v5.525h34.42v-5.525
		c0-5.093,1.049-10.95,2.876-16.496v57.493c-0.305,1.382-0.608,2.917-0.898,4.588c-0.088,0.45-0.147,0.908-0.227,1.375
		c-0.037,0.233-0.075,0.469-0.112,0.707l-0.057,0.358l-0.038,0.438c-0.125,1.184-0.103,2.428,0.033,3.714
		c0.306,2.562,1.229,5.255,2.838,7.675c0.767,1.236,1.771,2.338,2.858,3.385c0.56,0.506,1.15,0.988,1.759,1.457
		c0.647,0.408,1.271,0.875,1.973,1.217c0.688,0.364,1.383,0.726,2.123,0.997c0.367,0.139,0.729,0.303,1.104,0.417l1.146,0.309
		c0.714,0.222,1.688,0.337,2.547,0.465l0.333,0.044l0.229,0.016l0.447,0.028l0.537,0.033l0.219,0.014l0.105,0.005
		c0.207,0.004,0.311,0.008,0.295,0.007c0.01-0.001,0.022-0.001,0.057-0.001c0.007,0,0.032-0.001,0.038-0.001
		c0.013-0.001,0.063-0.003,0.074-0.004c0.021-0.001,0.127-0.005,0.147-0.005c0.045-0.001,0.254-0.012,0.299-0.014
		c0.087-0.004,0.505-0.028,0.593-0.035c0.396-0.031,0.79-0.049,1.183-0.113c0.782-0.122,1.568-0.235,2.331-0.45
		c0.169-0.043,0.976-0.265,1.14-0.318c0.375-0.121,0.738-0.267,1.104-0.41c0.73-0.276,1.428-0.623,2.107-0.99
		c0.695-0.344,1.323-0.807,1.968-1.222c0.605-0.468,1.2-0.948,1.756-1.456c1.09-1.041,2.091-2.148,2.858-3.383
		c1.604-2.418,2.527-5.111,2.834-7.67c0.092-0.636,0.102-1.383,0.132-2.041C560.6,115.354,560.565,115.137,560.547,114.887z"/>
	<path d="M523.83,14.654l5,44.726c0.309,2.761-1.681,5.25-4.441,5.558c-2.762,0.309-5.25-1.68-5.559-4.44
		c-0.043-0.37-0.038-0.763,0-1.118L523.83,14.654z"/>
	<path d="M523.83,14.654l5,44.726c0.309,2.761-1.681,5.25-4.441,5.558c-2.762,0.309-5.25-1.68-5.559-4.44
		c-0.043-0.37-0.038-0.763,0-1.118L523.83,14.654z"/>
	<path fill="#407fa2" d="M648.632,114.887c-0.023-0.248-0.049-0.494-0.074-0.737l-0.019-0.183l-0.01-0.09l-0.005-0.045l-0.004-0.023
		c-0.004,0.141,0.005-0.217,0.003-0.189l-0.058-0.358c-0.038-0.238-0.076-0.473-0.111-0.707c-0.074-0.467-0.142-0.925-0.228-1.375
		c-0.285-1.649-0.586-3.166-0.884-4.534V48.309c0-23.386-6.883-39.652-19.382-45.801c-3.384-1.665-6.957-2.509-10.62-2.509
		c-5.671,0-11.328,2.052-16.358,5.933c-14.457,11.135-25.357,36.785-25.357,59.664v5.525h34.421v-5.525
		c0-5.094,1.049-10.95,2.875-16.495v57.496c-0.303,1.381-0.608,2.915-0.897,4.584c-0.087,0.45-0.148,0.908-0.228,1.375
		c-0.036,0.234-0.074,0.469-0.111,0.707l-0.058,0.358l-0.038,0.438c-0.125,1.183-0.103,2.428,0.031,3.713
		c0.309,2.562,1.232,5.255,2.839,7.675c0.769,1.236,1.773,2.338,2.86,3.385c0.559,0.506,1.15,0.988,1.76,1.457
		c0.646,0.408,1.271,0.875,1.972,1.217c0.687,0.364,1.383,0.726,2.122,0.997c0.367,0.139,0.729,0.303,1.104,0.416l1.146,0.31
		c0.714,0.222,1.688,0.337,2.548,0.465l0.332,0.044l0.229,0.016l0.448,0.028l0.556,0.034l0.219,0.014l0.098,0.004
		c0.249,0.006,0.305,0.007,0.288,0.007c0.005-0.001,0.015-0.001,0.049-0.001c0.003,0,0.033-0.001,0.037-0.001
		c0.008-0.001,0.065-0.003,0.073-0.004c0.018,0,0.134-0.005,0.148-0.005c0.032-0.001,0.265-0.014,0.297-0.015
		c0.065-0.003,0.527-0.03,0.594-0.035c0.396-0.031,0.791-0.044,1.184-0.111c0.783-0.125,1.57-0.229,2.332-0.449
		c0.127-0.033,1.018-0.276,1.141-0.315c0.375-0.121,0.739-0.271,1.104-0.413c0.732-0.274,1.429-0.625,2.11-0.991
		c0.695-0.344,1.322-0.806,1.969-1.222c0.605-0.468,1.199-0.948,1.757-1.456c1.09-1.041,2.09-2.147,2.857-3.383
		c1.604-2.418,2.526-5.11,2.834-7.67c0.092-0.636,0.102-1.383,0.132-2.041C648.685,115.355,648.65,115.137,648.632,114.887z"/>
	<path fill="#407fa2" d="M648.632,114.887c-0.023-0.248-0.049-0.494-0.074-0.737l-0.019-0.183l-0.01-0.09l-0.005-0.045l-0.004-0.023
		c-0.004,0.141,0.005-0.217,0.003-0.189l-0.058-0.358c-0.038-0.238-0.076-0.473-0.111-0.707c-0.074-0.467-0.142-0.925-0.228-1.375
		c-0.285-1.649-0.586-3.166-0.884-4.534V48.309c0-23.386-6.883-39.652-19.382-45.801c-3.384-1.665-6.957-2.509-10.62-2.509
		c-5.671,0-11.328,2.052-16.358,5.933c-14.457,11.135-25.357,36.785-25.357,59.664v5.525h34.421v-5.525
		c0-5.094,1.049-10.95,2.875-16.495v57.496c-0.303,1.381-0.608,2.915-0.897,4.584c-0.087,0.45-0.148,0.908-0.228,1.375
		c-0.036,0.234-0.074,0.469-0.111,0.707l-0.058,0.358l-0.038,0.438c-0.125,1.183-0.103,2.428,0.031,3.713
		c0.309,2.562,1.232,5.255,2.839,7.675c0.769,1.236,1.773,2.338,2.86,3.385c0.559,0.506,1.15,0.988,1.76,1.457
		c0.646,0.408,1.271,0.875,1.972,1.217c0.687,0.364,1.383,0.726,2.122,0.997c0.367,0.139,0.729,0.303,1.104,0.416l1.146,0.31
		c0.714,0.222,1.688,0.337,2.548,0.465l0.332,0.044l0.229,0.016l0.448,0.028l0.556,0.034l0.219,0.014l0.098,0.004
		c0.249,0.006,0.305,0.007,0.288,0.007c0.005-0.001,0.015-0.001,0.049-0.001c0.003,0,0.033-0.001,0.037-0.001
		c0.008-0.001,0.065-0.003,0.073-0.004c0.018,0,0.134-0.005,0.148-0.005c0.032-0.001,0.265-0.014,0.297-0.015
		c0.065-0.003,0.527-0.03,0.594-0.035c0.396-0.031,0.791-0.044,1.184-0.111c0.783-0.125,1.57-0.229,2.332-0.449
		c0.127-0.033,1.018-0.276,1.141-0.315c0.375-0.121,0.739-0.271,1.104-0.413c0.732-0.274,1.429-0.625,2.11-0.991
		c0.695-0.344,1.322-0.806,1.969-1.222c0.605-0.468,1.199-0.948,1.757-1.456c1.09-1.041,2.09-2.147,2.857-3.383
		c1.604-2.418,2.526-5.11,2.834-7.67c0.092-0.636,0.102-1.383,0.132-2.041C648.685,115.355,648.65,115.137,648.632,114.887z"/>
	<path d="M611.914,14.654l5,44.726c0.309,2.761-1.681,5.25-4.441,5.558c-2.761,0.309-5.25-1.68-5.559-4.44
		c-0.041-0.37-0.037-0.763,0-1.118L611.914,14.654z"/>
	<path d="M611.914,14.654l5,44.726c0.309,2.761-1.681,5.25-4.441,5.558c-2.761,0.309-5.25-1.68-5.559-4.44
		c-0.041-0.37-0.037-0.763,0-1.118L611.914,14.654z"/>
	<path fill="#407fa2" d="M736.716,114.887c-0.022-0.248-0.049-0.494-0.072-0.737l-0.021-0.183l-0.009-0.09l-0.005-0.045
		l-0.003-0.023c-0.007,0.141,0.005-0.217,0.002-0.189l-0.059-0.358c-0.038-0.238-0.075-0.474-0.111-0.707
		c-0.073-0.467-0.142-0.925-0.228-1.375c-0.285-1.65-0.586-3.167-0.884-4.536V48.309c0-23.386-6.883-39.652-19.382-45.801
		c-3.386-1.665-6.957-2.509-10.619-2.509c-5.671,0-11.328,2.052-16.358,5.933c-14.458,11.136-25.361,36.785-25.361,59.664v5.525
		h34.424v-5.525c0-5.095,1.05-10.952,2.876-16.497v57.494c-0.305,1.382-0.609,2.917-0.898,4.588
		c-0.088,0.45-0.147,0.908-0.227,1.375c-0.037,0.233-0.075,0.469-0.112,0.707l-0.057,0.358l-0.039,0.438
		c-0.124,1.183-0.103,2.428,0.033,3.713c0.307,2.562,1.229,5.255,2.838,7.675c0.768,1.237,1.772,2.339,2.859,3.385
		c0.56,0.507,1.15,0.988,1.759,1.457c0.647,0.408,1.271,0.875,1.973,1.217c0.688,0.364,1.383,0.726,2.123,0.997
		c0.366,0.139,0.729,0.303,1.104,0.417l1.146,0.309c0.714,0.222,1.688,0.337,2.547,0.465l0.332,0.044l0.229,0.016l0.448,0.028
		l0.573,0.035l0.217,0.013l0.089,0.004c0.291,0.008,0.302,0.007,0.281,0.006h0.039c0.003,0,0.034-0.001,0.038-0.001
		c0.005,0,0.066-0.003,0.072-0.004c0.013,0,0.14-0.006,0.148-0.006c0.021-0.001,0.275-0.014,0.297-0.015
		c0.045-0.002,0.551-0.031,0.595-0.035c0.396-0.032,0.791-0.04,1.184-0.109c0.782-0.129,1.571-0.225,2.334-0.448
		c0.084-0.021,1.058-0.288,1.142-0.314c0.375-0.121,0.739-0.274,1.104-0.416c0.734-0.273,1.431-0.627,2.113-0.992
		c0.698-0.344,1.325-0.806,1.97-1.222c0.605-0.468,1.199-0.948,1.757-1.455c1.09-1.042,2.09-2.149,2.856-3.384
		c1.604-2.418,2.528-5.111,2.836-7.67c0.091-0.636,0.101-1.383,0.131-2.041C736.769,115.354,736.735,115.137,736.716,114.887z"/>
	<path fill="#407fa2" d="M736.716,114.887c-0.022-0.248-0.049-0.494-0.072-0.737l-0.021-0.183l-0.009-0.09l-0.005-0.045
		l-0.003-0.023c-0.007,0.141,0.005-0.217,0.002-0.189l-0.059-0.358c-0.038-0.238-0.075-0.474-0.111-0.707
		c-0.073-0.467-0.142-0.925-0.228-1.375c-0.285-1.65-0.586-3.167-0.884-4.536V48.309c0-23.386-6.883-39.652-19.382-45.801
		c-3.386-1.665-6.957-2.509-10.619-2.509c-5.671,0-11.328,2.052-16.358,5.933c-14.458,11.136-25.361,36.785-25.361,59.664v5.525
		h34.424v-5.525c0-5.095,1.05-10.952,2.876-16.497v57.494c-0.305,1.382-0.609,2.917-0.898,4.588
		c-0.088,0.45-0.147,0.908-0.227,1.375c-0.037,0.233-0.075,0.469-0.112,0.707l-0.057,0.358l-0.039,0.438
		c-0.124,1.183-0.103,2.428,0.033,3.713c0.307,2.562,1.229,5.255,2.838,7.675c0.768,1.237,1.772,2.339,2.859,3.385
		c0.56,0.507,1.15,0.988,1.759,1.457c0.647,0.408,1.271,0.875,1.973,1.217c0.688,0.364,1.383,0.726,2.123,0.997
		c0.366,0.139,0.729,0.303,1.104,0.417l1.146,0.309c0.714,0.222,1.688,0.337,2.547,0.465l0.332,0.044l0.229,0.016l0.448,0.028
		l0.573,0.035l0.217,0.013l0.089,0.004c0.291,0.008,0.302,0.007,0.281,0.006h0.039c0.003,0,0.034-0.001,0.038-0.001
		c0.005,0,0.066-0.003,0.072-0.004c0.013,0,0.14-0.006,0.148-0.006c0.021-0.001,0.275-0.014,0.297-0.015
		c0.045-0.002,0.551-0.031,0.595-0.035c0.396-0.032,0.791-0.04,1.184-0.109c0.782-0.129,1.571-0.225,2.334-0.448
		c0.084-0.021,1.058-0.288,1.142-0.314c0.375-0.121,0.739-0.274,1.104-0.416c0.734-0.273,1.431-0.627,2.113-0.992
		c0.698-0.344,1.325-0.806,1.97-1.222c0.605-0.468,1.199-0.948,1.757-1.455c1.09-1.042,2.09-2.149,2.856-3.384
		c1.604-2.418,2.528-5.111,2.836-7.67c0.091-0.636,0.101-1.383,0.131-2.041C736.769,115.354,736.735,115.137,736.716,114.887z"/>
	<path d="M699.998,14.654l5,44.726c0.309,2.761-1.68,5.25-4.441,5.558c-2.762,0.309-5.25-1.68-5.559-4.44
		c-0.042-0.37-0.038-0.763,0-1.118L699.998,14.654z"/>
	<path d="M699.998,14.654l5,44.726c0.309,2.761-1.68,5.25-4.441,5.558c-2.762,0.309-5.25-1.68-5.559-4.44
		c-0.042-0.37-0.038-0.763,0-1.118L699.998,14.654z"/>
	<path fill="#407fa2" d="M824.801,114.887c-0.022-0.248-0.049-0.494-0.071-0.737l-0.021-0.183l-0.008-0.09l-0.005-0.045
		l-0.005-0.023c-0.004,0.141,0.005-0.217,0.004-0.189l-0.059-0.358c-0.037-0.238-0.074-0.473-0.109-0.707
		c-0.075-0.467-0.144-0.925-0.229-1.375c-0.285-1.65-0.586-3.167-0.884-4.536V48.309c0-23.386-6.884-39.652-19.383-45.801
		c-3.385-1.665-6.956-2.509-10.619-2.509c-5.671,0-11.328,2.052-16.357,5.933c-14.458,11.136-25.359,36.785-25.359,59.664v5.525
		h34.421v-5.525c0-5.095,1.05-10.952,2.876-16.497v57.495c-0.305,1.382-0.608,2.917-0.897,4.588
		c-0.087,0.45-0.149,0.908-0.228,1.375c-0.037,0.234-0.074,0.469-0.112,0.707l-0.057,0.358l-0.038,0.438
		c-0.125,1.183-0.103,2.428,0.031,3.713c0.309,2.562,1.232,5.255,2.84,7.675c0.768,1.237,1.772,2.338,2.859,3.385
		c0.559,0.507,1.15,0.988,1.758,1.457c0.648,0.408,1.272,0.875,1.973,1.217c0.688,0.364,1.384,0.726,2.123,0.997
		c0.367,0.139,0.729,0.303,1.105,0.416l1.146,0.31c0.715,0.222,1.688,0.337,2.548,0.465l0.333,0.044l0.229,0.016l0.448,0.028
		l0.591,0.036l0.216,0.014l0.081,0.003c0.332,0.008,0.298,0.007,0.273,0.006c-0.005-0.001-0.003-0.001,0.031,0
		c0.001,0,0.035-0.002,0.037-0.002c0.003,0,0.07-0.004,0.072-0.004c0.008,0,0.146-0.006,0.149-0.007
		c0.012,0,0.286-0.014,0.298-0.015c0.021-0.001,0.571-0.033,0.592-0.035c0.396-0.032,0.792-0.036,1.186-0.107
		c0.783-0.133,1.572-0.22,2.335-0.447c0.041-0.011,1.101-0.298,1.143-0.312c0.376-0.121,0.74-0.277,1.105-0.418
		c0.735-0.272,1.433-0.63,2.118-0.994c0.696-0.344,1.323-0.806,1.968-1.222c0.606-0.468,1.201-0.948,1.758-1.456
		c1.09-1.041,2.09-2.147,2.858-3.383c1.604-2.418,2.526-5.11,2.834-7.67c0.091-0.636,0.101-1.383,0.131-2.041
		C824.854,115.355,824.82,115.137,824.801,114.887z"/>
	<path fill="#407fa2" d="M824.801,114.887c-0.021-0.248-0.049-0.494-0.07-0.737l-0.021-0.183l-0.008-0.09l-0.006-0.045l-0.004-0.023
		c-0.004,0.141,0.004-0.217,0.004-0.189l-0.059-0.358c-0.037-0.238-0.074-0.473-0.109-0.707c-0.076-0.467-0.145-0.925-0.23-1.375
		c-0.285-1.65-0.586-3.167-0.883-4.536V48.309c0-23.386-6.885-39.652-19.384-45.801c-3.385-1.665-6.956-2.509-10.619-2.509
		c-5.671,0-11.328,2.052-16.357,5.933c-14.458,11.136-25.359,36.785-25.359,59.664v5.525h34.421v-5.525
		c0-5.095,1.05-10.952,2.876-16.497v57.495c-0.305,1.382-0.608,2.917-0.897,4.588c-0.087,0.45-0.149,0.908-0.228,1.375
		c-0.037,0.234-0.074,0.469-0.112,0.707l-0.057,0.358l-0.038,0.438c-0.125,1.183-0.103,2.428,0.031,3.713
		c0.309,2.562,1.232,5.255,2.84,7.675c0.768,1.237,1.772,2.338,2.859,3.385c0.559,0.507,1.15,0.988,1.758,1.457
		c0.648,0.408,1.272,0.875,1.973,1.217c0.688,0.364,1.384,0.726,2.123,0.997c0.367,0.139,0.729,0.303,1.105,0.416l1.146,0.31
		c0.715,0.222,1.688,0.337,2.548,0.465l0.333,0.044l0.229,0.016l0.448,0.028l0.591,0.036l0.216,0.014l0.081,0.003
		c0.332,0.008,0.298,0.007,0.273,0.006c-0.005-0.001-0.003-0.001,0.031,0c0.001,0,0.035-0.002,0.037-0.002
		c0.003,0,0.07-0.004,0.072-0.004c0.008,0,0.146-0.006,0.149-0.007c0.012,0,0.286-0.014,0.298-0.015
		c0.021-0.001,0.571-0.033,0.592-0.035c0.396-0.032,0.792-0.036,1.186-0.107c0.783-0.133,1.572-0.22,2.335-0.447
		c0.041-0.011,1.101-0.298,1.143-0.312c0.376-0.121,0.74-0.277,1.105-0.418c0.735-0.272,1.434-0.63,2.119-0.994
		c0.695-0.344,1.322-0.806,1.967-1.222c0.607-0.468,1.201-0.948,1.758-1.456c1.09-1.041,2.09-2.147,2.859-3.383
		c1.604-2.418,2.525-5.11,2.834-7.67c0.09-0.636,0.1-1.383,0.131-2.041C824.855,115.355,824.82,115.137,824.801,114.887z"/>
	<path d="M788.082,14.654l4.999,44.726c0.311,2.761-1.679,5.25-4.439,5.558c-2.762,0.309-5.25-1.68-5.56-4.44
		c-0.042-0.37-0.037-0.763,0-1.118L788.082,14.654z"/>
	<path d="M788.082,14.654l4.999,44.726c0.311,2.761-1.679,5.25-4.439,5.558c-2.762,0.309-5.25-1.68-5.56-4.44
		c-0.042-0.37-0.037-0.763,0-1.118L788.082,14.654z"/>
	<path fill="#407fa2" d="M912.886,114.888c-0.023-0.248-0.05-0.494-0.072-0.738l-0.021-0.182l-0.009-0.091l-0.005-0.045
		l-0.003-0.022c-0.005,0.14,0.004-0.218,0.002-0.19l-0.058-0.357c-0.037-0.239-0.074-0.474-0.11-0.707
		c-0.075-0.468-0.143-0.926-0.229-1.375c-0.285-1.652-0.587-3.169-0.885-4.539V48.309c0-23.386-6.883-39.652-19.382-45.801
		c-3.385-1.665-6.957-2.509-10.62-2.509c-5.672,0-11.328,2.052-16.357,5.933c-14.458,11.136-25.359,36.785-25.359,59.664v5.525
		h34.421v-5.525c0-5.095,1.05-10.952,2.876-16.497v57.499c-0.304,1.381-0.608,2.915-0.897,4.585
		c-0.087,0.449-0.148,0.907-0.228,1.375c-0.037,0.233-0.074,0.468-0.111,0.707l-0.058,0.357l-0.038,0.439
		c-0.125,1.182-0.102,2.427,0.032,3.712c0.308,2.562,1.231,5.255,2.839,7.675c0.768,1.238,1.773,2.339,2.86,3.385
		c0.559,0.507,1.149,0.988,1.76,1.457c0.646,0.408,1.271,0.875,1.971,1.217c0.688,0.364,1.384,0.726,2.123,0.997
		c0.367,0.14,0.729,0.304,1.105,0.416l1.146,0.311c0.714,0.221,1.688,0.336,2.548,0.464l0.331,0.044l0.229,0.016l0.449,0.028
		l0.896,0.054c0.518,0.013,0.164,0.002,0.289,0.005l0.037-0.002l0.073-0.004l0.148-0.007l0.298-0.015l0.594-0.036
		c0.396-0.033,0.792-0.031,1.185-0.105c0.78-0.136,1.572-0.215,2.335-0.445l1.146-0.311c0.376-0.121,0.739-0.279,1.104-0.421
		c0.738-0.269,1.436-0.632,2.122-0.995c0.697-0.344,1.323-0.806,1.969-1.222c0.606-0.467,1.2-0.948,1.758-1.455
		c1.09-1.042,2.09-2.148,2.857-3.384c1.604-2.417,2.527-5.11,2.834-7.669c0.091-0.636,0.102-1.383,0.131-2.041
		C912.938,115.356,912.904,115.138,912.886,114.888z"/>
	<path fill="#407fa2" d="M912.887,114.888c-0.023-0.248-0.05-0.494-0.072-0.738l-0.021-0.182l-0.009-0.091l-0.005-0.045
		l-0.003-0.022c-0.005,0.14,0.004-0.218,0.002-0.19l-0.058-0.357c-0.037-0.239-0.074-0.474-0.11-0.707
		c-0.075-0.468-0.143-0.926-0.229-1.375c-0.285-1.652-0.587-3.169-0.885-4.539V48.309c0-23.386-6.884-39.652-19.382-45.801
		c-3.385-1.665-6.957-2.509-10.621-2.509c-5.672,0-11.328,2.052-16.357,5.933c-14.457,11.136-25.359,36.785-25.359,59.664v5.525
		h34.422v-5.525c0-5.095,1.049-10.952,2.875-16.497v57.499c-0.303,1.381-0.607,2.915-0.896,4.585
		c-0.088,0.449-0.148,0.907-0.229,1.375c-0.037,0.233-0.074,0.468-0.111,0.707l-0.057,0.357l-0.039,0.439
		c-0.125,1.182-0.102,2.427,0.033,3.712c0.307,2.562,1.23,5.255,2.838,7.675c0.768,1.238,1.773,2.339,2.861,3.385
		c0.559,0.507,1.148,0.988,1.76,1.457c0.646,0.408,1.27,0.875,1.971,1.217c0.688,0.364,1.383,0.726,2.123,0.997
		c0.367,0.14,0.729,0.304,1.105,0.416l1.146,0.311c0.713,0.221,1.688,0.336,2.547,0.464l0.332,0.044l0.229,0.016l0.449,0.028
		l0.896,0.054c0.518,0.013,0.164,0.002,0.289,0.005l0.037-0.002l0.072-0.004l0.148-0.007l0.299-0.015l0.594-0.036
		c0.396-0.033,0.791-0.031,1.184-0.105c0.781-0.136,1.572-0.215,2.336-0.445l1.145-0.311c0.377-0.121,0.74-0.279,1.105-0.421
		c0.738-0.269,1.436-0.632,2.121-0.995c0.697-0.344,1.324-0.806,1.969-1.222c0.607-0.467,1.201-0.948,1.758-1.455
		c1.091-1.042,2.091-2.148,2.858-3.384c1.604-2.417,2.527-5.11,2.834-7.669c0.091-0.636,0.102-1.383,0.131-2.041
		C912.939,115.356,912.905,115.138,912.887,114.888z"/>
	<path d="M876.166,14.654l5,44.726c0.31,2.761-1.68,5.25-4.44,5.558c-2.762,0.309-5.25-1.68-5.56-4.44
		c-0.042-0.37-0.037-0.763,0-1.118L876.166,14.654z"/>
	<path d="M876.166,14.654l5,44.726c0.311,2.761-1.68,5.25-4.439,5.558c-2.762,0.309-5.25-1.68-5.561-4.44
		c-0.041-0.37-0.037-0.763,0-1.118L876.166,14.654z"/>
	<path fill="#FFFFFF" d="M901.854,54.423c-2.484,0-4.5-2.015-4.5-4.5c0-22.043-8.27-32.23-8.353-32.327
		c-1.625-1.881-1.417-4.723,0.464-6.347c1.882-1.625,4.725-1.417,6.348,0.463c0.432,0.499,10.541,12.498,10.541,38.211
		C906.354,52.409,904.34,54.423,901.854,54.423z"/>
	<path fill="#FFFFFF" d="M901.855,54.423c-2.484,0-4.5-2.015-4.5-4.5c0-22.043-8.27-32.23-8.354-32.327
		c-1.625-1.881-1.416-4.723,0.465-6.347c1.881-1.625,4.725-1.417,6.348,0.463c0.432,0.499,10.541,12.498,10.541,38.211
		C906.355,52.409,904.34,54.423,901.855,54.423z"/>
	<path fill="#FFFFFF" d="M813.771,54.423c-2.484,0-4.5-2.015-4.5-4.5c0-22.076-8.293-32.254-8.377-32.354
		c-1.586-1.896-1.355-4.729,0.525-6.329c1.886-1.6,4.692-1.397,6.309,0.473c0.432,0.498,10.543,12.498,10.543,38.211
		C818.271,52.409,816.257,54.423,813.771,54.423z"/>
	<path fill="#FFFFFF" d="M813.771,54.423c-2.484,0-4.5-2.015-4.5-4.5c0-22.076-8.293-32.254-8.377-32.354
		c-1.586-1.896-1.355-4.729,0.525-6.329c1.886-1.6,4.692-1.397,6.309,0.473c0.432,0.498,10.544,12.498,10.544,38.211
		C818.271,52.409,816.258,54.423,813.771,54.423z"/>
	<path fill="#FFFFFF" d="M725.688,54.423c-2.484,0-4.5-2.015-4.5-4.5c0-22.042-8.271-32.23-8.354-32.327
		c-1.625-1.881-1.417-4.722,0.463-6.347c1.881-1.625,4.722-1.417,6.349,0.462c0.431,0.499,10.545,12.498,10.545,38.211
		C730.188,52.409,728.173,54.423,725.688,54.423z"/>
	<path fill="#FFFFFF" d="M725.688,54.423c-2.484,0-4.5-2.015-4.5-4.5c0-22.042-8.271-32.23-8.354-32.327
		c-1.625-1.881-1.417-4.722,0.463-6.347c1.881-1.625,4.722-1.417,6.349,0.462c0.431,0.499,10.545,12.498,10.545,38.211
		C730.188,52.409,728.173,54.423,725.688,54.423z"/>
	<path fill="#FFFFFF" d="M637.604,54.423c-2.484,0-4.5-2.015-4.5-4.5c0-22.042-8.271-32.23-8.354-32.327
		c-1.625-1.881-1.417-4.722,0.463-6.347c1.881-1.625,4.724-1.417,6.349,0.462c0.431,0.499,10.545,12.498,10.545,38.211
		C642.104,52.409,640.089,54.423,637.604,54.423z"/>
	<path fill="#FFFFFF" d="M637.604,54.423c-2.484,0-4.5-2.015-4.5-4.5c0-22.042-8.271-32.23-8.354-32.327
		c-1.625-1.881-1.417-4.722,0.463-6.347c1.881-1.625,4.724-1.417,6.349,0.462c0.431,0.499,10.545,12.498,10.545,38.211
		C642.104,52.409,640.089,54.423,637.604,54.423z"/>
	<path fill="#FFFFFF" d="M549.519,54.423c-2.483,0-4.5-2.015-4.5-4.5c0-22.042-8.271-32.23-8.354-32.327
		c-1.625-1.881-1.417-4.722,0.463-6.347c1.881-1.625,4.723-1.417,6.348,0.462c0.432,0.499,10.545,12.498,10.545,38.211
		C554.019,52.409,552.004,54.423,549.519,54.423z"/>
	<path fill="#FFFFFF" d="M549.519,54.423c-2.483,0-4.5-2.015-4.5-4.5c0-22.042-8.271-32.23-8.354-32.327
		c-1.625-1.881-1.417-4.722,0.463-6.347c1.881-1.625,4.723-1.417,6.348,0.462c0.432,0.499,10.545,12.498,10.545,38.211
		C554.019,52.409,552.004,54.423,549.519,54.423z"/>
	<path fill="#FFFFFF" d="M461.434,54.423c-2.483,0-4.5-2.015-4.5-4.5c0-22.076-8.293-32.254-8.377-32.354
		c-1.584-1.896-1.354-4.729,0.527-6.329c1.881-1.601,4.691-1.397,6.307,0.472c0.433,0.499,10.544,12.498,10.544,38.211
		C465.934,52.409,463.919,54.423,461.434,54.423z"/>
	<path fill="#FFFFFF" d="M461.434,54.423c-2.483,0-4.5-2.015-4.5-4.5c0-22.076-8.293-32.254-8.377-32.354
		c-1.584-1.896-1.354-4.729,0.527-6.329c1.881-1.601,4.691-1.397,6.307,0.472c0.433,0.499,10.544,12.498,10.544,38.211
		C465.934,52.409,463.919,54.423,461.434,54.423z"/>
	<path fill="#FFFFFF" d="M373.35,54.423c-2.484,0-4.5-2.015-4.5-4.5c0-22.076-8.293-32.254-8.377-32.354
		c-1.584-1.896-1.355-4.729,0.527-6.329c1.883-1.599,4.691-1.397,6.307,0.473c0.431,0.498,10.543,12.498,10.543,38.211
		C377.85,52.409,375.835,54.423,373.35,54.423z"/>
	<path fill="#FFFFFF" d="M373.35,54.423c-2.484,0-4.5-2.015-4.5-4.5c0-22.076-8.293-32.254-8.377-32.354
		c-1.584-1.896-1.355-4.729,0.527-6.329c1.883-1.599,4.691-1.397,6.307,0.473c0.431,0.498,10.543,12.498,10.543,38.211
		C377.85,52.409,375.835,54.423,373.35,54.423z"/>
	<path fill="#FFFFFF" d="M285.266,54.423c-2.485,0-4.5-2.015-4.5-4.5c0-22.042-8.271-32.23-8.354-32.327
		c-1.625-1.881-1.418-4.722,0.462-6.347c1.881-1.625,4.723-1.417,6.347,0.462c0.431,0.499,10.544,12.498,10.544,38.211
		C289.766,52.409,287.751,54.423,285.266,54.423z"/>
	<path fill="#FFFFFF" d="M285.266,54.423c-2.485,0-4.5-2.015-4.5-4.5c0-22.042-8.271-32.23-8.354-32.327
		c-1.625-1.881-1.418-4.722,0.462-6.347c1.881-1.625,4.723-1.417,6.347,0.462c0.431,0.499,10.544,12.498,10.544,38.211
		C289.766,52.409,287.75,54.423,285.266,54.423z"/>
	<path fill="#FFFFFF" d="M197.18,54.423c-2.485,0-4.5-2.015-4.5-4.5c0-22.043-8.27-32.23-8.353-32.327
		c-1.625-1.88-1.417-4.722,0.463-6.347c1.88-1.624,4.722-1.417,6.347,0.463c0.43,0.498,10.542,12.498,10.542,38.211
		C201.68,52.409,199.666,54.423,197.18,54.423z"/>
	<path fill="#FFFFFF" d="M197.179,54.423c-2.485,0-4.5-2.015-4.5-4.5c0-22.043-8.27-32.23-8.353-32.327
		c-1.625-1.88-1.417-4.722,0.463-6.347c1.88-1.624,4.722-1.417,6.347,0.463c0.43,0.498,10.542,12.498,10.542,38.211
		C201.679,52.409,199.666,54.423,197.179,54.423z"/>
	<path fill="#FFFFFF" d="M108.626,54.894c-2.485,0-4.5-2.015-4.5-4.5c0-22.076-8.293-32.254-8.377-32.354
		c-1.584-1.896-1.356-4.729,0.527-6.329c1.881-1.601,4.69-1.397,6.307,0.472c0.431,0.499,10.544,12.498,10.544,38.211
		C113.126,52.879,111.111,54.894,108.626,54.894z"/>
	<path fill="#FFFFFF" d="M108.625,54.894c-2.485,0-4.5-2.015-4.5-4.5c0-22.076-8.293-32.254-8.377-32.354
		c-1.584-1.896-1.356-4.729,0.527-6.329c1.881-1.601,4.69-1.397,6.307,0.472c0.431,0.499,10.544,12.498,10.544,38.211
		C113.125,52.879,111.11,54.894,108.625,54.894z"/>
	<path fill="#407fa2" d="M968.583,73.979c0-1.657-1.343-3-3-3h-0.222H33.49l0,0c-1.397,0-2.562,0.96-2.896,2.254L5.711,95.872
		c-0.036,0.033-0.071,0.066-0.105,0.102C2.462,99.188,0,105.229,0,109.726v963.813c0,5.238,4.262,9.5,9.5,9.5h925.675
		c4.532,0,10.514-2.586,13.615-5.887c0.036-0.037,0.07-0.076,0.104-0.115l15.329-18.486l0.363-0.387
		c1.549-1.639,2.876-3.051,3.312-4.484c0.423-0.518,0.686-1.168,0.686-1.887V73.979L968.583,73.979z M962.583,1048.793H599.409
		c27.502-3.646,43.159-7.93,59.147-12.305c3.712-1.018,7.55-2.064,11.509-3.1c18.705-4.877,42.403-10.701,67.496-16.867
		c83.812-20.6,178.808-43.943,201.183-58.535c12.562-8.211,19.723-20.027,23.839-33.775V1048.793z M962.363,76.979
		c0.024,52.102,0.377,753.543-0.002,787.617l-0.001,0.137c-0.379,34.98-0.771,71.154-26.896,88.23
		c-21.518,14.033-120.111,38.264-199.333,57.732c-25.112,6.172-48.833,12.002-67.579,16.891c-3.992,1.041-7.849,2.098-11.577,3.115
		c-25.747,7.045-50.625,13.85-126.823,18.092H38.518c-0.112-0.482-0.341-0.943-0.701-1.334c-0.374-0.404-0.835-0.67-1.326-0.816
		V76.979H962.363z M5.021,1073.754C5.018,1073.682,5,1073.614,5,1073.54V109.726c0-3.163,1.926-7.91,4.133-10.208l1.143-1.04
		v130.306c0,1.657,1.343,3,3,3c1.657,0,3-1.343,3-3v-133.3c0-0.707-0.255-1.348-0.664-1.861L30.49,80.088v970.057l-25.078,23.17
		C5.265,1073.45,5.136,1073.598,5.021,1073.754z M960.425,1055.297l-8.637,10.416c-0.062-0.004-0.117-0.018-0.178-0.018H434.476
		c-1.655,0-3,1.342-3,3c0,1.656,1.345,3,3,3h512.354l-1.729,2.084c-2.181,2.273-6.795,4.26-9.925,4.26H9.5
		c-0.132,0-0.257-0.027-0.386-0.039c0.127-0.086,0.253-0.174,0.369-0.281l21.514-19.875c0.539,0.803,1.453,1.33,2.492,1.33h273.276
		c104.458,0,174.409-1.662,223.404-4.381h430.725l-0.364,0.387C960.492,1055.217,960.458,1055.256,960.425,1055.297z"/>
	<path fill="#407fa2" d="M968.584,73.979c0-1.657-1.343-3-3-3h-0.222H33.49l0,0c-1.397,0-2.562,0.96-2.896,2.254L5.71,95.872
		c-0.036,0.033-0.071,0.066-0.105,0.102C2.461,99.188,0,105.229,0,109.726v963.813c0,5.238,4.262,9.5,9.5,9.5h925.676
		c4.532,0,10.514-2.586,13.615-5.887c0.036-0.037,0.07-0.076,0.104-0.115l15.329-18.486l0.363-0.387
		c1.549-1.639,2.876-3.051,3.312-4.484c0.423-0.518,0.686-1.168,0.686-1.887V73.979L968.584,73.979z M962.584,1048.793H599.409
		c27.502-3.646,43.159-7.93,59.147-12.305c3.712-1.018,7.55-2.064,11.509-3.1c18.705-4.877,42.403-10.701,67.496-16.867
		c83.813-20.6,178.809-43.943,201.184-58.535c12.562-8.211,19.723-20.027,23.839-33.775V1048.793z M962.364,76.979
		c0.024,52.102,0.377,753.543-0.002,787.617l-0.001,0.137c-0.379,34.98-0.771,71.154-26.896,88.23
		c-21.518,14.033-120.111,38.264-199.334,57.732c-25.112,6.172-48.833,12.002-67.579,16.891c-3.992,1.041-7.849,2.098-11.577,3.115
		c-25.747,7.045-50.625,13.85-126.823,18.092H38.518c-0.112-0.482-0.341-0.943-0.701-1.334c-0.374-0.404-0.835-0.67-1.326-0.816
		V76.979H962.364z M5.021,1073.754C5.018,1073.682,5,1073.614,5,1073.54V109.726c0-3.163,1.926-7.91,4.133-10.208l1.143-1.04
		v130.306c0,1.657,1.343,3,3,3c1.657,0,3-1.343,3-3v-133.3c0-0.707-0.255-1.348-0.664-1.861L30.49,80.088v970.057l-25.078,23.17
		C5.265,1073.45,5.135,1073.598,5.021,1073.754z M960.426,1055.297l-8.637,10.416c-0.062-0.004-0.117-0.018-0.178-0.018H434.476
		c-1.655,0-3,1.342-3,3c0,1.656,1.345,3,3,3H946.83l-1.729,2.084c-2.181,2.273-6.795,4.26-9.925,4.26H9.5
		c-0.132,0-0.257-0.027-0.386-0.039c0.127-0.086,0.253-0.174,0.369-0.281l21.514-19.875c0.539,0.803,1.453,1.33,2.492,1.33h273.276
		c104.458,0,174.409-1.662,223.404-4.381h430.726l-0.364,0.387C960.493,1055.217,960.459,1055.256,960.426,1055.297z"/>
	<path fill="#407fa2" d="M894.288,300.38H101.522c-0.276,0-0.5-0.224-0.5-0.5c0-0.276,0.224-0.5,0.5-0.5h792.766
		c0.275,0,0.5,0.224,0.5,0.5C894.788,300.156,894.563,300.38,894.288,300.38z"/>
	<path fill="#407fa2" d="M894.289,300.38H101.521c-0.276,0-0.5-0.224-0.5-0.5c0-0.276,0.224-0.5,0.5-0.5h792.768
		c0.275,0,0.5,0.224,0.5,0.5C894.789,300.156,894.564,300.38,894.289,300.38z"/>
	<path fill="#407fa2" d="M894.288,468.779H101.522c-0.276,0-0.5-0.225-0.5-0.5c0-0.276,0.224-0.5,0.5-0.5h792.766
		c0.275,0,0.5,0.224,0.5,0.5C894.788,468.555,894.563,468.779,894.288,468.779z"/>
	<path fill="#407fa2" d="M894.289,468.779H101.521c-0.276,0-0.5-0.225-0.5-0.5c0-0.276,0.224-0.5,0.5-0.5h792.768
		c0.275,0,0.5,0.224,0.5,0.5C894.789,468.555,894.564,468.779,894.289,468.779z"/>
	<path fill="#407fa2" d="M894.288,637.188H101.522c-0.276,0-0.5-0.225-0.5-0.5c0-0.277,0.224-0.5,0.5-0.5h792.766
		c0.275,0,0.5,0.223,0.5,0.5C894.788,636.963,894.563,637.188,894.288,637.188z"/>
	<path fill="#407fa2" d="M894.289,637.188H101.521c-0.276,0-0.5-0.225-0.5-0.5c0-0.277,0.224-0.5,0.5-0.5h792.768
		c0.275,0,0.5,0.223,0.5,0.5C894.789,636.963,894.564,637.188,894.289,637.188z"/>
	<path fill="#407fa2" d="M894.288,805.577H101.522c-0.276,0-0.5-0.223-0.5-0.5c0-0.275,0.224-0.5,0.5-0.5h792.766
		c0.275,0,0.5,0.225,0.5,0.5C894.788,805.354,894.563,805.577,894.288,805.577z"/>
	<path fill="#407fa2" d="M894.289,805.577H101.521c-0.276,0-0.5-0.223-0.5-0.5c0-0.275,0.224-0.5,0.5-0.5h792.768
		c0.275,0,0.5,0.225,0.5,0.5C894.789,805.354,894.564,805.577,894.289,805.577z"/>
	<path fill="#407fa2" d="M782.16,973.979H101.517c-0.273,0-0.495-0.225-0.495-0.5c0-0.277,0.221-0.5,0.495-0.5H782.16
		c0.271,0,0.494,0.223,0.494,0.5C782.654,973.754,782.435,973.979,782.16,973.979z"/>
	<path fill="#407fa2" d="M782.16,973.979H101.517c-0.273,0-0.495-0.225-0.495-0.5c0-0.277,0.221-0.5,0.495-0.5H782.16
		c0.271,0,0.494,0.223,0.494,0.5C782.654,973.754,782.435,973.979,782.16,973.979z"/>
</g>
</svg>
