<?xml version="1.0" encoding="utf-8"?>
<!-- Generator: Adobe Illustrator 16.0.0, SVG Export Plug-In . SVG Version: 6.00 Build 0)  -->
<!DOCTYPE svg PUBLIC "-//W3C//DTD SVG 1.1//EN" "http://www.w3.org/Graphics/SVG/1.1/DTD/svg11.dtd">
<svg version="1.1" id="Layer_1" xmlns="http://www.w3.org/2000/svg" xmlns:xlink="http://www.w3.org/1999/xlink" x="0px" y="0px"
	 width="209.444px" height="211.116px" viewBox="0 0 209.444 211.116" enable-background="new 0 0 209.444 211.116"
	 xml:space="preserve">
<path fill="#E30613" d="M208.51,105.872c-0.048,0.976,0.78,0.625,0.935,0.773C209.219,104.998,208.294,105.917,208.51,105.872"/>
<polygon fill="#E30613" points="205.297,90.114 205.684,90.337 204.447,88.179 "/>
<path fill="#E30613" d="M203.726,83.494l-0.219,0.494l1.39,0.915c-0.47-1.549-1.06-3.313-1.686-4.932
	c-0.633-1.619-1.145-3.136-1.282-4.277C200.94,77.447,203.691,80.766,203.726,83.494"/>
<path fill="#E30613" d="M202.663,68.571c-0.128-0.303-0.292-0.726-0.538-1.458c-0.333,0.674-1.089-1.458,0.532,1.828
	C202.647,68.748,202.661,68.687,202.663,68.571"/>
<path fill="#E30613" d="M202.663,68.571C203.29,70.054,202.714,67.424,202.663,68.571"/>
<path fill="#E30613" d="M200.806,63.595c0.119-0.535-0.596-2.294-0.089-1.752c-1.15-1.88-1.254-1.319-1.234,0.029L200.806,63.595z"
	/>
<path fill="#E30613" d="M198.356,61.403c0.046-0.232-0.023-0.52-0.662-0.884l0.341,0.436
	C198.196,61.179,198.356,61.403,198.356,61.403"/>
<path fill="#E30613" d="M198.938,62.299c-0.461,0.007,0.095,0.247,0.771,1.02l-1.353-1.915
	C198.274,61.78,197.867,62.001,198.938,62.299"/>
<path fill="#E30613" d="M199.372,65.53c0.859,1.793,1.422,2.486,1.609,2.254c0.16-0.22-0.013-1.396-0.933-3.187
	C200.265,65.79,200.621,67.269,199.372,65.53"/>
<path fill="#E30613" d="M201.158,78.125c-0.204-0.283-0.312-1.014-0.419-1.649c-0.118-0.632-0.265-1.159-0.458-1.047
	c0,0,0.021,0.391,0.044,0.782c0.021,0.391,0.016,0.788,0.016,0.788L201.158,78.125z"/>
<path fill="#E30613" d="M193.847,51.869c0.269,0.292,0.538,0.584,0.538,0.584c-0.199-0.812-0.874-2.183-0.548-2.515
	c-0.328,0.051-0.304,1.029-0.551,1.363C193.286,51.301,193.577,51.578,193.847,51.869"/>
<path fill="#E30613" d="M193.287,51.301l-1.69-1.672C192.657,51.398,193.07,51.587,193.287,51.301"/>
<path fill="#E30613" d="M197.411,62.337c0.637,0.744,1.273,1.487,1.273,1.487s-0.715-0.907-1.43-1.813
	c-0.347-0.456-0.738-0.887-1.02-1.214c-0.283-0.326-0.474-0.543-0.474-0.543l0.342,0.634
	C196.104,60.889,196.792,61.59,197.411,62.337"/>
<path fill="#E30613" d="M189.484,42.843c0.336,0.168,0.671,0.337,0.671,0.337l-1.118-0.654l-1.153-0.613l0.927,0.601
	C188.811,42.514,189.151,42.674,189.484,42.843"/>
<path fill="#E30613" d="M185.006,37.943c1.095,0.375-0.135-1.662,0.824-1.101c-1.154-1.165-2.426-1.903-3.596-2.516
	C183.31,35.132,184.176,36.266,185.006,37.943"/>
<path fill="#E30613" d="M180.318,33.265c0.554,0.379,1.207,0.701,1.916,1.061C181.65,33.909,181.033,33.54,180.318,33.265"/>
<path fill="#E30613" d="M189.173,44.284l-0.164,1.244c0.156,0.228,0.336,0.487,0.517,0.75
	C189.571,46.027,189.767,45.47,189.173,44.284"/>
<path fill="#E30613" d="M189.004,45.57l0.004-0.042c-0.554-0.819-0.938-1.387-1.102-1.63
	C188.044,44.109,188.375,44.612,189.004,45.57"/>
<path fill="#E30613" d="M189.655,46.467c-0.048-0.07-0.082-0.121-0.13-0.19C189.508,46.397,189.515,46.457,189.655,46.467"/>
<path fill="#E30613" d="M191.779,54.867c0.981,0.534,0.568-1.017,2.198,0.377C192.888,54.305,191.07,52.174,191.779,54.867"/>
<path fill="#E30613" d="M189.426,47.99c0,0,0.312,0.523,0.591,1.067c0.287,0.538,0.574,1.076,0.574,1.076
	c0.164-0.162,0.202-0.714,0.763-0.279l-0.958-0.94c-0.238-0.234-0.478-0.468-0.656-0.643
	C189.551,48.102,189.426,47.99,189.426,47.99"/>
<polygon fill="#E30613" points="188.514,47.174 189.426,47.99 188.964,47.213 "/>
<path fill="#E30613" d="M182.588,36.93c-0.488-0.28-0.928-0.632-1.357-1.034c-0.442-0.391-0.891-0.817-1.363-1.272
	c0.865,1.114,1.742,2.27,2.64,3.312C182.836,37.906,183.601,38.052,182.588,36.93"/>
<path fill="#E30613" d="M185.759,41.097c-0.057-0.048-0.13-0.11-0.184-0.155C185.608,41.101,185.662,41.207,185.759,41.097"/>
<path fill="#E30613" d="M170.507,25.771c0.019,0.087,0.037,0.166,0.056,0.255c0.045-0.028,0.084-0.058,0.132-0.082L170.507,25.771z"
	/>
<path fill="#E30613" d="M182.54,38.217c0.562,0.902,1.131,1.24,1.728,1.526c-0.582-0.541-1.17-1.135-1.761-1.808
	C182.357,37.949,182.287,37.989,182.54,38.217"/>
<path fill="#E30613" d="M177.493,30.949c0.279,0.506,0.622,1.049,0.969,1.63C178.294,31.99,177.797,30.921,177.493,30.949"/>
<path fill="#E30613" d="M185.539,40.513c0.044,0.033,0.085,0.061,0.127,0.101C185.596,40.225,185.552,40.316,185.539,40.513"/>
<path fill="#E30613" d="M185.539,40.513c-0.434-0.35-0.859-0.555-1.271-0.77c0.45,0.459,0.889,0.87,1.307,1.198
	C185.541,40.801,185.532,40.64,185.539,40.513"/>
<path fill="#E30613" d="M162.275,25.946c0,0,0.155,0.071,0.39,0.178c0.233,0.105,0.545,0.249,0.844,0.41l1.212,0.628
	c-0.1,0.208-1.083-0.105-0.624,0.516c0.311-0.259,1.099-0.124,1.974,0.34c0.436,0.234,0.9,0.54,1.319,0.936
	c0.409,0.405,0.787,0.883,1.081,1.418c2.086,1.022,2.722-1.875,2.092-4.346c-0.283,0.229-0.459,0.423-2.645-0.683
	c0.439,0.816,3.401,4.173,1.424,3.409c-1.301-0.878-1.768-1.31-2.004-1.717c-0.236-0.406-0.251-0.77-0.723-1.407
	C167.021,27.184,162.611,24.324,162.275,25.946"/>
<path fill="#E30613" d="M173.765,28.728l0.548,0.537l-0.327-0.148l0.788,0.615c-0.717-0.898-1.12-1.658-1.856-3.112
	c-1.52-0.805-1.966-0.802-2.223-0.675c0,0,0.91,0.824,1.82,1.649C172.97,28.005,173.424,28.418,173.765,28.728"/>
<path fill="#E30613" d="M177.989,32.841c-1.134,0.017-3.126-1.311-2.723,0.34c2.082,1.967,1.915,0.929,3.392,1.907
	c-3.382-3.236,1.278,0.644-0.714-2.151c0.744,0.567,1.354,1.141,1.923,1.687c-0.51-0.688-0.983-1.372-1.405-2.045
	c0.015,0.046,0.024,0.079,0.037,0.116l0.018,0.014c-0.005,0.005-0.009,0.003-0.013,0.006c0.063,0.224,0.063,0.318-0.051,0.107
	c-0.02-0.002-0.062-0.042-0.08-0.059c-0.108,0.062-0.243,0.072-0.381,0.075c-0.817-1.114,0.011-0.315,0.381-0.075
	c0.039-0.017,0.095-0.019,0.131-0.048c0.001-0.007-0.002-0.013-0.005-0.02c0,0-0.896-0.783-1.85-1.502l-1.876-1.461
	C175.405,30.52,176.36,31.329,177.989,32.841"/>
<path fill="#E30613" d="M188.941,53.726c-0.012-0.158,0.045-0.186,0.092-0.227C188.785,53.307,188.665,53.252,188.941,53.726"/>
<path fill="#E30613" d="M189.033,53.499c0.548,0.416,1.732,1.611,1.011-0.347l-0.275-0.211c-0.581-1.34-0.951-3.24-0.951-3.89
	c-0.295,0.794-0.463,1.504-0.444,2.823c0.279,0.214,0.721,0.262,1.229,1.219C189.887,54.019,189.247,53.307,189.033,53.499"/>
<path fill="#E30613" d="M188.817,49.05c0.027-0.073,0.054-0.147,0.084-0.222C188.844,48.784,188.817,48.875,188.817,49.05"/>
<path fill="#E30613" d="M182.103,40.837c-0.71-0.658-1.42-1.317-1.42-1.317l0.709,1.957l0.279-0.362
	c1.255,1.786,1.359,1.096,1.807,1.086c0,0-0.17-0.173-0.424-0.432C182.801,41.509,182.465,41.161,182.103,40.837"/>
<path fill="#E30613" d="M171.419,24.791c0,0-0.634-0.14-1.294-0.237c-0.651-0.103-1.303-0.207-1.303-0.207l1.615,0.8L171.419,24.791
	z"/>
<path fill="#E30613" d="M166.956,21.536c0,0-0.342-0.113-0.692-0.212c-0.349-0.101-0.697-0.202-0.697-0.202l0.765,0.93
	L166.956,21.536z"/>
<path fill="#E30613" d="M20.772,155.423l0.718,0.796C21.179,155.825,20.959,155.585,20.772,155.423"/>
<path fill="#E30613" d="M17.188,148.693l-0.436,0.005C17.107,148.919,17.315,148.977,17.188,148.693"/>
<path fill="#E30613" d="M44.269,17.941l0.918,0.441c0.91-0.769,1.73-1.178,2.475-1.435C45.853,17.228,43.602,17.312,44.269,17.941"
	/>
<path fill="#E30613" d="M4.812,86.911c0.111-0.133,0.227-0.272,0.341-0.41c-0.204-0.442-0.396-0.858-0.568-1.231
	C4.657,85.767,4.702,86.321,4.812,86.911"/>
<path fill="#E30613" d="M7.23,90.61c0.274-0.423,0.575-1.04,0.912-1.92L7.23,90.61z"/>
<path fill="#E30613" d="M51.043,184.809c-1.566-1.052-1.123-0.232-1.496,0.047c0,0,0.372-0.006,0.743-0.012
	C50.667,184.827,51.043,184.809,51.043,184.809"/>
<path fill="#E30613" d="M118.142,2.473c-1.396-0.52-2.538-0.808-3.548-0.978C116.293,2.211,117.581,3.129,118.142,2.473"/>
<path fill="#E30613" d="M11.213,157.269c0.49,0.537,0.793,0.711,0.951,0.598C11.674,157.312,11.325,157.034,11.213,157.269"/>
<path fill="#E30613" d="M114.594,1.495c-1.25-0.531-2.74-0.83-4.21-0.35c0.251,0.106,0.5,0.169,0.756,0.262
	C112.213,1.356,113.303,1.279,114.594,1.495"/>
<path fill="#E30613" d="M182.381,160.081c0.094-0.069,0.179-0.171,0.271-0.229C182.57,159.758,182.485,159.883,182.381,160.081"/>
<path fill="#E30613" d="M206.333,122.505c0.104-0.342,0.174-0.934,0.184-1.963C206.51,121.018,206.413,121.782,206.333,122.505"/>
<path fill="#E30613" d="M148.83,11.025C149.84,11.45,149.032,11.004,148.83,11.025"/>
<path fill="#E30613" d="M151.937,16.455c-0.247-0.017-0.457,0.014-0.576,0.179C151.536,16.489,151.731,16.439,151.937,16.455"/>
<path fill="#E30613" d="M99.706,6.36c-0.031,0-0.055,0-0.09,0C99.93,6.522,99.875,6.491,99.706,6.36"/>
<path fill="#E30613" d="M150.126,12.115c-0.317-0.28-0.697-0.578-1.13-0.864C149.169,11.41,149.509,11.682,150.126,12.115"/>
<path fill="#E30613" d="M150.111,11.647c0.321,0.201,0.573,0.36,0.813,0.51C151.113,12.091,151.045,11.954,150.111,11.647"/>
<path fill="#E30613" d="M148.83,11.025c-0.296-0.124-0.714-0.298-1.407-0.588c0.575,0.247,1.089,0.524,1.573,0.813
	C148.826,11.108,148.765,11.026,148.83,11.025"/>
<path fill="#E30613" d="M116.01,203.648c0.069,0.019,0.148,0.026,0.226,0.053C117.197,203.217,116.762,203.33,116.01,203.648"/>
<path fill="#E30613" d="M32.459,41.039c0.026-0.04,0.026-0.073,0.047-0.111c-0.039,0.027-0.088,0.061-0.123,0.086L32.459,41.039z"/>
<path fill="#E30613" d="M29.717,40.198l0.414,1.982c0.219,0.976,0.439,1.953,0.439,1.953c0.184-1.846,0.833-2.457,1.813-3.119
	l-1.332-0.417C30.384,40.397,29.717,40.198,29.717,40.198"/>
<path fill="#E30613" d="M178.479,165.459c-0.076,0.072-0.132,0.125-0.132,0.125C178.387,165.554,178.431,165.512,178.479,165.459"/>
<path fill="#E30613" d="M93.359,200.947c-0.079-0.007-0.153-0.01-0.218-0.008C93.217,200.94,93.285,200.945,93.359,200.947"/>
<path fill="#E30613" d="M18.911,152.615c0.124,0.198,0.204,0.324,0.204,0.324C19.048,152.807,18.979,152.704,18.911,152.615"/>
<path fill="#E30613" d="M206.016,119.587c0.259-0.729,0.519-1.457,0.712-2.003c0.196-0.549,0.293-0.92,0.293-0.92
	c-0.615-0.613-0.516-2.217-0.415-3.767c0.117-1.548,0.081-3.046-0.522-3.374l0.179,1.901c-0.718-1.291-1.553-0.432-2.486,0.641
	c-0.967,1.077-2.003,2.363-2.944,2.112c0.372,0.7,0.368,1.487,0.186,2.332c-0.207,0.844-0.63,1.742-1.016,2.688
	c-0.738,1.904-1.578,3.93-0.772,6.316c-0.552,0.875-0.461-0.929-0.987-0.504c0.645,1.244,0.472,2.597-0.438,4.93l-0.135-0.32
	c-0.304,1.715-0.803,3.127-1.21,4.442c-0.404,1.319-0.921,2.485-1.453,3.669c-0.526,1.186-1.072,2.387-1.779,3.696
	c-0.682,1.318-1.391,2.794-2.343,4.483l1.103-0.139c-0.807,1.475-1.22,1.669-1.755,2.278c0.508,2.366,2.007-4.243,2.732-2.003
	c-0.673,0.317-1.314,1.146-1.938,2.218c-0.628,1.071-1.339,2.34-1.997,3.611c-0.64,1.281-1.428,2.457-2.117,3.377
	c-0.709,0.91-1.388,1.523-2.068,1.54c-1.388,2.142,1.338-0.055-0.059,2.099l-0.865,0.251l0.289,0.965
	c-1.008,1.365-2.165,1.593-2.593,1.365c0.282-0.295,0.551-1.016,0.766-1.392c-0.915,0.683-1.742,1.946-2.423,3.111
	c-0.598,1.014-1.146,1.903-1.479,2.267c0.164-0.154,0.46-0.435,0.767-0.724c0.452-0.423,0.895-0.855,0.895-0.855
	c-0.961,1.45-2.027,2.952-3.218,4.411c-1.229,1.426-2.445,2.925-3.794,4.294c-0.653,0.705-1.304,1.408-1.95,2.104
	c-0.673,0.672-1.331,1.347-1.967,2.025c-1.244,1.389-2.524,2.655-3.603,4.007l0.681,0.003c-0.839,1.024-1.509,1.651-2.087,2.09
	c-0.572,0.448-1.043,0.723-1.532,0.993c-0.967,0.564-2.051,1.053-4.271,2.854l0.109-0.207c-0.658,1.053-1.846,2.046-3.193,2.854
	c0.93-1.218-2.816,0.6-1.537-0.912c-2.14,1.845-2.695,2.291-2.945,2.771c-0.275,0.448-0.244,0.93-1.527,2.522l-1.116-0.261
	c-0.414,0.588-0.607,0.976-1.008,1.4c-0.404,0.42-0.997,0.916-2.288,1.582c1.884-1.548-2.144-0.271-0.104-2.115
	c-1.533,0.247-2.746,0.686-3.777,1.197c-1.04,0.484-1.912,1-2.695,1.484c-1.554,0.987-2.847,1.636-4.515,0.946
	c-0.969,1.412,0.336,1.27,1.744,0.882c1.414-0.354,2.846-1.108,2.209-0.604c0.723,0.075,0.331,0.643-0.486,1.259
	c-0.827,0.582-2.093,1.174-3.03,1.385c-0.931,0.295-1.914-0.057-3.239-0.371c-0.66-0.148-1.401-0.271-2.26-0.272
	c-0.431-0.001-0.891,0.027-1.386,0.099c-0.501,0.049-1.039,0.134-1.619,0.274c0.466-0.099,0.46-0.256,0.924-0.354
	c-0.934-0.055-1.738,0.313-2.611,0.655c-0.437,0.171-0.888,0.335-1.374,0.435c-0.491,0.078-1.02,0.086-1.596-0.025
	c-0.99,1.436-2.808,0.429-2.911,2.055l4.295-1.138c-1.192,0.422-2.288,1.192-3.637,1.843c-1.348,0.643-2.972,1.042-5.097,0.875
	c0.291-0.36,1.474-0.933,2.282-1.272c-1.259-0.327-2.278,0.641-3.582,0.246c0.108-0.78,1.423-1.019,3.026-1.272
	c0.802-0.123,1.678-0.236,2.505-0.428c0.821-0.227,1.594-0.517,2.191-0.93c-0.688-0.228-1.861,0.309-2.76,0.582
	c-0.898,0.271-1.49,0.371-0.948-0.562c-0.795,1.199-1.983,1.281-3.322,1.318c-1.353-0.021-2.849-0.113-4.415,0.844l0.158-0.964
	c-0.496,0.207-1.534,0.677-2.479,0.674l1.644-1.271c-2.564,1.104-5-0.743-7.457-0.29c2.586,0.058,2.879,0.337,2.796,0.708
	c-0.081,0.379-0.548,0.857,0.568,1.175c-6.475,1.14-3.751-2.352-10.576-2.53c1.083,0.08,3.251,0.864,1.806,1.175
	c-1.356-0.266-3.109-0.859-3.87-1.466c-4.721-0.399,0.595,1.058-1.489,1.383c-1.453-1.323-2.384,0.105-4.553,0.108l0.163-0.95
	c-1.318-0.379-2.08-0.49-2.565-0.464c-0.487,0.039-0.701,0.243-0.899,0.447c-0.392,0.409-0.726,0.814-3.066-0.107l2.355-0.831
	c0,0-0.644-0.061-1.289-0.119c-0.323-0.03-0.646-0.061-0.888-0.083c-0.24-0.034-0.4-0.058-0.4-0.058l0.783-0.925
	c-1.433,0.028-2.352-0.086-3.225-0.318c-0.874-0.233-1.704-0.594-2.935-1.195c0.39,0.851-0.879,1.55-3.219,0.793
	c-1.367-1.109,1.174-0.51-2.083-1.636c0.955-0.296,1.967-0.636,3.085,0.652c0.25-0.247,0.922-0.328,1.169-0.571
	c-1.463-1.135-4.077-1.679-5.233-2.112c0.426,0.206,0.932,0.461,1.151,0.696c0,0-1.274-0.148-2.549-0.295
	c-1.268-0.208-2.536-0.415-2.536-0.415c-0.565-0.653,0.126-0.66,0.8-0.668c-0.948-0.332-1.792-0.169-3.149-0.771
	c0.687-0.535,0.95-1.267,2.984-0.766c0,0-0.288-0.07-0.72-0.177c-0.433-0.103-1.013-0.24-1.575-0.42
	c-1.139-0.34-2.278-0.679-2.278-0.679c-0.131-0.438-1.684-1.929-1.008-1.904c-0.997-0.847-2.55-1.282-4.194-1.833
	c-1.595-0.617-3.345-1.258-4.575-2.505c-0.232,0.021-0.607-0.066-1.27-0.401c-0.635-0.507-1.222-1.037-1.802-1.569
	c-0.562-0.558-1.109-1.127-1.698-1.669c-0.585-0.547-1.219-1.06-1.918-1.557c-0.684-0.517-1.452-0.995-2.355-1.422l-0.355-1.236
	c-0.182-0.607-0.326-1.244-0.326-1.244c-2.384-1.835,0.942,3.347-3.061,0.26c-2.903-2.156-0.13-1.768-0.727-2.926
	c-0.855-0.385-2.075-0.885-3.27-1.693c-1.18-0.816-2.261-2.011-2.903-3.605c0.912,0.646,1.308,1.421,2.047,2.117l-1.033-2.383
	c2.918,1.422,3.97,3.278,3.289,0.837c-0.562,0.39-1.244,0.146-1.991-0.418c-0.742-0.566-1.576-1.426-2.319-2.358
	c-0.764-0.917-1.528-1.832-2.253-2.437c-0.689-0.63-1.349-0.946-1.95-0.621l-0.484-1.666c0.25,0.397,0.424,0.366,0.67,0.759
	c-0.775-3.31-2.974-0.822-4.918-4.541c-0.585-1.345-0.714-2.429,0.042-1.737l-2.183-2.449c-0.345-0.708-0.033-0.827,0.322-0.358
	c-0.058-0.095-0.124-0.198-0.202-0.323c-0.227-0.399-0.529-0.931-0.831-1.462l-1.214-2.13l0.088-0.002
	c-0.71-0.428-1.932-1.617-2.521-2.216c-0.164-1.305,0.521,0.458,0.698,0.024c0,0-0.432-0.556-0.864-1.112
	c-0.217-0.279-0.435-0.56-0.597-0.77c-0.154-0.215-0.256-0.358-0.256-0.358c0.12-0.657,0.544-0.517,1.017,0
	c0.5,0.506,1.058,1.384,1.398,2.259c0.715-1.713,0.331-2.131-0.33-2.854c-0.615-0.732-1.539-1.777-1.762-4.587
	c0,0,0.072,0.143,0.18,0.356c0.118,0.209,0.275,0.489,0.432,0.769c0.313,0.558,0.627,1.115,0.627,1.115
	c0.43-1.044,0.292-1.94,0.128-2.988c-0.169-1.044-0.456-2.208-0.449-3.679c-0.275,0.74-0.47,6.166-2.04,3.632
	c-0.066-0.857-0.339-1.904-1.345-3.255c0.918-0.302,0.274-1.709-0.308-3.554l1.272-0.206c-0.927-1.885-1.444-1.591-2.305-2.649
	c-0.404-2.307,0.451-2.971,1.19-3.665c-0.445-3.663-1.111,2.824-2.119-1.457c-0.016-0.786-0.084-1.5-0.2-2.188
	c-0.089-0.691-0.209-1.359-0.381-2.041c-0.334-1.363-0.881-2.785-1.369-4.626c0.273-2.214,0.81,0.319,1.114-0.49l-1.164-1.856
	c-0.012-0.475,0.312-0.339,0.476-0.27c-0.481-1.61-1.292-0.062-1.715-2.646c-0.699-0.33-0.263-1.693,0.247-3.332
	c0.552-1.645,1.008-3.555,0.329-5.195c0.422-0.762,0.753,0.425,1.266,0.213c-0.358-2.195-0.477-3.153-0.649-4.013
	c-0.162-0.862-0.324-1.62-0.803-3.517l0.61-1.477c0.313-0.734,0.671-1.453,0.671-1.453c-1.348,2.079-1.962-0.936-2.418-3.7
	c-0.6,0.723-1.124,1.351-1.399,1.788c0,0,0.016-1.069,0.033-2.137c-0.004-0.539,0.056-1.066,0.075-1.468
	c0.026-0.4,0.044-0.667,0.044-0.667c0.32-0.453,0.651,0.062,1.02,0.843c-0.04-0.3-0.08-0.587-0.127-0.814
	c0.799-1.358,1.341-0.422,1.801,0.757c-0.372,0.434-0.744,0.867-1.105,1.288c0.58,1.166,1.261,2.249,2.035,2.179
	c-0.099-0.286-0.135-0.81-0.106-1.375c0.161,0.3,0.316,0.5,0.462,0.406c0.165-0.108-0.066-0.582-0.225-1.294l1.601-0.594
	l-0.503-0.338c0,0,0.512-1.229,1.024-2.458c0.24-0.616,0.556-1.209,0.763-1.66c0.214-0.449,0.357-0.748,0.357-0.748
	c-0.089-0.994-0.231-1.984-0.36-3.001c-0.091-1.006-0.18-2.045-0.217-3.153c-0.047-1.111-0.029-2.287,0.163-3.542
	c0.189-1.255,0.411-2.643,0.92-4.108c0.331,1.806,1.436,0.968,2.539,1.537c-0.943,0.487-1.217,1.649-1.469,2.998
	c-0.119,0.674-0.247,1.396-0.379,2.141c-0.127,0.745-0.31,1.494-0.621,2.207c0.649-1.489,1.09-0.953,1.155-0.5
	c0,0,0.04-0.35,0.099-0.874c0.048-0.528,0.145-1.224,0.269-1.914l0.458-2.791c0.886,0.499,1.121-0.805,2.118-1.932
	c-1.14,0.09-1.021-0.98-0.565-2.378c0.421-1.414,1.363-3.045,1.586-4.21c0.658,0.189,1.021,0.989-0.372,3.351
	c1.366-1.011,1.278-2.129,1.179-3.289c-0.122-1.163-0.174-2.323,1.129-3.309c-0.323,0.594-0.596,0.86-0.431,1.258
	c0.132-0.829,0.786-2.029,1.409-2.878c0.631-0.847,1.279-1.308,1.276-0.778l-0.35,0.571c0.653-0.907,1.437-2.072,2.229-3.336
	c0.816-1.247,1.709-2.547,2.451-3.815c1.574-2.466,2.731-4.699,2.311-5.495c0.194,0.107,1.189,1.755,1.3,2.186
	c0,0,0.022-0.617,0.108-1.521c0.088-0.921,0.206-2.149,0.323-3.378c0.116-1.256,0.309-2.477,0.455-3.407
	c0.15-0.936,0.25-1.559,0.25-1.559c0.572,1.517,4.927,1.994,2.982,5.228c0.899-0.606,1.907-1.424,3.152-3.323
	c-0.665,0.336-2.795-0.24-2.171-1.035c3.136-0.716,1.974-0.734,5.382-1.957c-1.029,0.475-1.653-2.012-0.272-3.113
	c0.019,0.438,1.581,1.622,1.266,2.211c0,0,0.442-1.127,0.884-2.254c0.463-1.119,0.978-2.218,0.978-2.218
	c-0.599,0.985,1.048,1.6,2.178,1.52c-0.308-0.037,0.419-0.595,1.315-1.253c0.913-0.636,2.027-1.324,2.419-1.748l-1.772,0.62
	c2.065-1.24,2.547-2.62,3.126-3.927c0.57-1.308,1.103-2.749,3.265-3.936c-0.289,0.702,0.225,3.168,2.467,2.206
	c0.201-0.758,0.556-2.629,1.412-4.586c0.858-1.934,2.129-4.16,4.019-5.449l1.055,0.245c0,0,0.707-0.525,1.415-1.05
	c0.351-0.271,0.719-0.509,0.992-0.693c0.274-0.184,0.457-0.307,0.457-0.307c-0.69,1.162-1.995,3.271-3.367,5.315
	c-1.368,2.068-2.719,4.246-3.748,5.563c1.833-0.371,0.809,0.454,3.152-0.817c1.109,0.124-0.862,1.494-1.533,1.877
	c0,0,1.411-0.61,2.821-1.221c0.696-0.32,1.423-0.571,1.96-0.777c0.538-0.202,0.897-0.337,0.897-0.337
	c-0.403-0.555,0.53-1.347,1.494-2.124c0.982-0.729,2.001-1.424,1.684-1.904c0,0-0.364,0.237-0.908,0.592
	c-0.549,0.343-1.264,0.829-1.959,1.351c-1.39,1.011-2.78,2.021-2.78,2.021c-0.416-0.549,0.056-1.808,1.197-3.155
	c0.575-0.661,1.294-1.391,2.175-1.971c0.88-0.582,1.885-1.097,2.964-1.459c1.254,0.081,0.048,2.554,0.308,2.933
	c0.188-0.307,1.071-0.944,2.013-1.378c0.937-0.445,1.891-0.793,2.136-0.702l-1.544,1.281c1.244-0.153,2.044-0.895,2.953-1.571
	c0.908-0.664,1.952-1.188,3.548-0.985c1.01-0.233,3.365,0.916,3.346,0.111c-1.953-1.125-3.526-5.631-2.641-7.018
	c0.199,0.007,1.685,0.039,3.268,0.135c1.58,0.066,3.289,0.376,3.95,0.62c1.906,0.881-2.045,3.278-0.403,4.034
	c-0.008-0.372,0.835-0.983,1.199-1.196c1.122,0.118-0.247,1.201,2.033,0.623c0.184-1.406,4.772-0.491,0.937-1.284
	c1.124-0.339,1.748-0.348,2.422-0.321c0.676,0.03,1.398,0.063,2.753-0.05c-0.471-0.405,0.066-1.198,1.039-1.962
	c0.971-0.749,2.379-1.538,3.574-1.731c-0.127,0.351,0.428,0.788,0.692,0.986c1.216,0.001,2.29,0.035,3.287,0.086
	c0.997,0.084,1.917,0.209,2.824,0.314c0.905,0.103,1.8,0.205,2.748,0.313c0.946,0.134,1.945,0.251,3.066,0.34
	c0.391,0.352,2.497,0.935,1.524,1.434c0.656-0.165,1.293-0.546,2.667-0.405c2.481,1.503-3.058-0.204-1.219,1.457
	c0.254-0.745,3.646-0.701,5.655-0.778c-0.193-0.64-1.305-0.95-2.63-0.957c-1.325-0.01-2.837,0.171-3.835,0.293
	c0.084-0.839,1.024-1.59,2.582-2.149c0.776-0.27,1.713-0.53,2.755-0.661c1.041-0.121,2.199-0.175,3.432-0.153
	c1.947,0.116,2.289,0.54,2.248,0.816c-0.043,0.293-0.476,0.519-0.127,0.476c1.737,0.476,3.019,0.621,4.062,0.613
	c1.03,0.037,1.826-0.089,2.583-0.198c1.508-0.22,2.892-0.386,5.571,1.198c1.919,1.785-0.604,2.054-0.354,2.958
	c-1.529-0.297-2.587-0.853-3.537-1.377c-0.957-0.497-1.79-1.006-2.809-1.272l2.345,1.194c-1.052,0.072-3.091-0.224-4.089-0.832
	c0.411,0.368,1.33,0.767,2.556,1.195c0.612,0.215,1.303,0.431,2.042,0.667c0.731,0.26,1.511,0.537,2.317,0.823
	c0.805,0.288,1.644,0.562,2.468,0.882c0.813,0.346,1.631,0.694,2.428,1.032c1.598,0.667,3.041,1.468,4.183,2.232
	c1.024,0.067,2.714,0.422,2.178-0.295l-1.644-0.578c-1.105-1.452,3.502,0.267,1.655-1.012c1.218,0.185,2.487,0.455,3.844,0.846
	c0.675,0.204,1.363,0.45,2.055,0.774c0.674,0.352,1.351,0.778,2.018,1.303l-0.07,1.374c0.122-0.342-1.524-1.724-2.521-1.856
	c0.736,0.101,1.644,1.107,2.617,1.991c0.485,0.445,0.994,0.853,1.506,1.128c0.503,0.289,1.021,0.427,1.555,0.293l-0.76-0.992
	c-0.188-0.252-0.384-0.495-0.536-0.669c-0.149-0.178-0.25-0.297-0.25-0.297c1.201,0.32,2.561,0.681,3.963,1.141
	c1.407,0.45,2.77,1.139,3.883,2.178c-0.429-1.786-0.632-0.292-1.606-2.698c0.603,2.466-6.517-4.248-4.959-1.067
	c-0.517-1.259-1.268-1.883-2.098-2.53c-0.835-0.644-1.742-1.323-2.726-2.589c-0.108,0.401,0.556,1.155-1.629-0.188
	c-0.156,0.053-0.466,0.063-0.659,0.063c-0.062-0.048-0.086-0.065-0.14-0.106c0.038,0.039,0.065,0.068,0.104,0.107
	c-0.125,0.004-0.14,0.011,0.04,0.038c0.461,0.435,0.801,0.848,0.874,1.139c-0.776,0.135-2.034-0.291-3.305-0.702
	c-1.279-0.394-2.541-0.84-3.25-0.896c-1.278-0.789,0.753-0.17,0.185-0.9c0,0-0.531-0.043-1.063-0.086
	c-0.537-0.021-1.075-0.042-1.075-0.042c0.171-0.899-3.164-2.852,0.345-2.033l-2.977-1.216c-1.601-1.12-4.037-2.146-5.683-2.274
	c-1.413-0.606-3.961-0.092-2.5-0.408c0,0-1.248-0.205-2.497-0.409c-1.258-0.148-2.514-0.295-2.514-0.295l0.005-0.23
	c-2.396-0.666-4.997-0.685-7.606-0.976c-2.64-0.146-5.298-0.559-8.068-1.525c-0.842,0.052-1.695,0.106-2.684,0.109
	c-0.99,0.04-2.114,0.017-3.505-0.145l-0.534-0.791c-1.078,0.079-2.693-0.051-4.164-0.145c-1.47-0.087-2.792-0.126-3.23,0.336
	c-0.609-0.479-1.578-0.697-2.746-0.754c-0.584-0.029-1.218-0.018-1.881,0.02c-0.662,0.053-1.35,0.164-2.048,0.274
	c-1.395,0.242-2.835,0.484-4.146,0.788c-1.313,0.303-2.515,0.551-3.473,0.629l0.052,1.021c-1.295,0.172-2.515,0.58-3.812,0.977
	c-0.646,0.209-1.307,0.436-1.995,0.681c-0.684,0.262-1.388,0.572-2.135,0.886l0.43,0.811c-1.22,0.741-2.969,1.013-4.898,1.453
	c-0.97,0.201-1.997,0.401-3.039,0.645c-1.032,0.274-2.068,0.622-3.078,1.041c0.149-0.427,1.219-0.753,2.022-0.846
	c-1.394,0.004-2.715,0.352-3.973,0.871c-1.242,0.555-2.405,1.32-3.544,2.07c-1.15,0.73-2.212,1.582-3.321,2.24
	c-1.105,0.668-2.246,1.166-3.441,1.455c-0.864,0.872-1.654,1.198-2.488,1.418c0.094-0.056,0.171-0.12,0.23-0.186
	c-0.111,0.051-0.267,0.139-0.426,0.232c-0.536,0.12-1.085,0.255-1.651,0.451c0.535-0.08,1.022-0.191,1.427-0.318
	c-0.779,0.472-1.87,1.337-2.889,2.247l-1.013-0.494c-0.088,0.068-0.158,0.122-0.25,0.193c-1.325,0.428-0.645,0.957,0.351,1.177
	c-0.49,0.487-0.875,1.023-1.137,1.486c-0.878-0.329-1.528,0.293-2.217,0.928c-0.697,0.628-1.416,1.288-2.49,1.095
	c-0.113,0.603-1.352,1.771-2.493,3.004c-0.931,1.098-1.778,2.241-1.827,3.092c-1.254,0.797-2.437,1.695-3.063,2.948l-1.306-0.446
	c0,0-0.3,0.855-0.6,1.71c-0.265,0.872-0.531,1.745-0.531,1.745c-1.883,0.894-2.784,1.212-2.103-0.869
	c-0.561,1.116-0.983,1.862-1.318,2.432c-0.319,0.584-0.568,0.975-0.803,1.35c-0.463,0.751-0.899,1.423-1.628,3.411l-0.491-0.657
	c-0.872,1.157-1.444,3.6-2.495,3.881c-0.781,0.414-1.743,1.443-2.867,2.824c-1.147,1.367-2.263,3.215-3.546,5.139
	c-2.4,3.962-4.861,8.59-7.134,12.152c1.406-0.265,0.751,0.498-0.018,1.483c-0.744,0.995-1.646,2.213-0.864,2.691
	c-0.69,0.248-1.411,1.229-1.361-0.206c-0.569,2.074-1.205,3.549-1.784,4.881c-0.577,1.329-0.89,2.584-0.558,4.209
	c-0.667,0.321-0.528-1.104-0.962-0.775c0.02,0.367,0.09,1.443-0.35,1.786c-0.436,0.337-0.274-0.727-0.319-1.452
	c-0.279,1.07-0.394,1.926-0.383,2.617c0.041,0.698,0.196,1.229,0.426,1.643c0.461,0.828,1.222,1.196,1.964,1.528
	c-0.612,0.972-0.956,1.737-1.058,2.472c-0.069,0.742,0.096,1.453,0.474,2.315c-0.645,0.644-1.408,1.809-1.12-0.865
	c-0.09,0.367-0.272,1.112-0.496,2.025c-0.105,0.458-0.221,0.958-0.34,1.474c-0.091,0.521-0.174,1.06-0.248,1.59
	c-0.29,2.12-0.402,4.09,0.261,4.228c-0.359,0.439-0.254,2.086-0.137,2.489c-0.175,1.675-0.281,2.586-0.31,3.494
	c-0.046,0.907-0.068,1.809-0.049,3.462l0.232-0.913c1.478,1.313,0.339,2.727,0.59,5.381l-0.16-0.07
	c-0.262,1.531-0.267,2.463-0.246,3.09c0.026,0.626,0.112,0.948,0.193,1.267c0.082,0.318,0.158,0.634,0.163,1.252
	c-0.009,0.619-0.052,1.535-0.163,3.069l0.911-0.438c1.06,0.158,0.922,1.487,0.676,3.229c-0.187,1.728-0.423,3.882,0.276,5.522
	l0.312-1.342c0.487,0.868,0.11,2.285-0.39,3.777c-0.492,1.486-1.131,3.058-0.961,4.028c-0.051,0.457-0.475-0.572-0.742-1.122
	c0.205,5.284,1.39,0.326,2.701,3.893c-0.441,0.87-1.932-0.373-1.28,2.137c-0.052,0.694,1.064,2.316,2.197,4.182
	c0.607,0.92,1.215,1.904,1.676,2.891c0.23,0.494,0.424,0.989,0.564,1.479c0.155,0.481,0.265,0.956,0.295,1.421
	c0.16-0.916,0.331-1.804,1.41-0.367c0.657,1.172,0.884,3.062,1.459,4.781c0.549,1.726,1.204,3.395,2.559,4.031
	c0.046,0.364-0.009,0.545-0.114,0.621c0.714,0.78,1.649,2.173,2.702,3.36c1.043,1.194,2.076,2.26,2.777,2.526
	c-0.452,0.866-0.086,1.873,0.609,2.957c0.705,1.077,1.747,2.221,2.85,3.226c1.09,1.018,2.103,2.001,2.768,2.793
	c0.661,0.795,0.897,1.472,0.312,1.962c0,0,0.267,0.293,0.667,0.732c0.407,0.432,0.92,1.036,1.483,1.593
	c1.122,1.118,2.243,2.235,2.243,2.235l-0.338,0.098c1.304,1.562,2.447,2.363,3.356,2.915c0.93,0.532,1.678,0.769,2.455,0.959
	c0.561,0.762-0.141,0.532-0.307,0.6c2.025,2.154,3.161,3.346,4.456,4.135c1.286,0.797,2.585,1.397,5.046,2.17l-0.16,1.103
	c0.709,0.156,2.2,1.722,4.324,3.41c0.525,0.429,1.081,0.878,1.669,1.317c0.603,0.414,1.233,0.826,1.884,1.216
	c1.299,0.785,2.676,1.489,4.114,1.869c-0.102,0.074-0.298,0.189-0.775,0.102c3.159,1.012,6.379,3.3,9.425,4.922
	c3.015,1.664,5.803,2.627,7.482,1.294c0,0,1.077,0.157,2.175,0.216c1.086,0.076,2.173,0.154,2.173,0.154
	c-5.196-1.768,1.215-1.282-0.779-2.474c1.047,0.187,2.289,0.823,2.962,1.348c0.681,0.491,0.775,0.919-0.522,0.669l-0.35-0.287
	c-1.445,1.646,6.455,2.253,6.066,3.41c5.36,1.036,10.697,1.82,16.003,2.33c5.308,0.519,10.59,0.508,15.731,0.044
	c0,0-0.333-0.326-0.665-0.651c-0.331-0.321-0.659-0.674-0.659-0.674s0.222-0.003,0.553-0.037c0.332-0.034,0.773-0.079,1.215-0.124
	c0.885-0.093,1.769-0.184,1.769-0.184c0.97,0.222,1.409,0.975-1.145,1.238c1.453,0.662,4.168-1.235,4.165-1.602
	c5.019-0.293-1.644,2.026-0.138,1.793l2.053-0.477l-0.496-0.085c0.786-0.444,1.184-0.828,1.763-1.159
	c0.583-0.317,1.339-0.615,2.835-0.936c1.953-0.15,1.175,0.654,1.936,0.538c0.02,0.101,0.285,0.089,1.159-0.227
	c0,0,0.281-0.048,0.692-0.159c0.412-0.104,0.962-0.243,1.513-0.384c1.101-0.281,2.202-0.561,2.202-0.561l-2.062-0.615
	c1.764-1.077,4.063-1.117,1.706-1.782c1.727,0.522,5.791-0.595,9.528-2.14c1.881-0.74,3.646-1.657,5.107-2.297
	c1.438-0.69,2.515-1.234,3.007-1.3c0.524-0.507,1.067-0.962,1.637-1.384c0.557-0.441,1.132-0.864,1.742-1.265
	c1.214-0.806,2.573-1.514,4.011-2.413c-0.841,0.252-1.937-0.586,0.573-2.006c0.271,1.394,1.589,0.969,3.147,0.099
	c1.55-0.883,3.443-2.023,4.947-2.034c-1.229,0.152,0.38-1.21,1.814-2.523c1.435-1.323,2.599-2.693,0.771-2.286
	c1.982-1.43,0.759,0.668,2.582-0.077c0.958-1.136,2.006-2.263,3.165-3.364c1.182-1.077,2.409-2.195,3.668-3.344
	c0.628-0.577,1.291-1.14,1.918-1.75c0.615-0.623,1.237-1.252,1.863-1.885c1.264-1.262,2.4-2.675,3.456-4.161
	c-0.21-0.301-1.38,0.316-0.84-1.218c0,0,0.233-0.12,0.585-0.301c0.356-0.178,0.816-0.428,1.267-0.69
	c0.913-0.525,1.826-1.051,1.826-1.051c0.348-0.638,0.124-1.199,0.125-1.776c0.011-0.574,0.226-1.171,1.433-1.94
	c-0.447,0.148-1.113,0.362-0.693-0.501c4.582-5.446,7.65-12.14,10.112-18.94c2.479-6.839,4.391-13.765,7.138-20.678
	c-1.019,1.827-0.854,0.521-0.618-0.953c-0.329,0.932-0.855-0.154-1.359-0.038c0,0,0.137-0.356,0.33-0.896
	C205.499,121.03,205.757,120.308,206.016,119.587 M137.477,7.239c-0.038,0.004-0.063,0.007-0.096,0.017
	C135.824,6.333,136.372,6.674,137.477,7.239 M35.123,29.368c-0.007,0.144,0.002,0.283,0.045,0.409
	C34.993,29.644,34.645,29.805,35.123,29.368 M7.888,81.777c0.159,0.612-0.164,1.403-0.743,2.258
	C7.23,83.336,7.425,82.564,7.888,81.777 M12.419,138.363c0.212,0.31,0.579,0.753,0.849,1.202c0.293,0.442,0.486,0.893,0.318,1.239
	C12.242,140.433,12.499,139.64,12.419,138.363 M128.161,207.973l-0.75-0.085C128.901,207.258,128.525,207.602,128.161,207.973"/>
<path fill="#E30613" d="M7.759,88.467c-0.197,0.174-0.384,0.197-0.57,0.212C7.297,88.995,7.481,89.033,7.759,88.467"/>
<path fill="#E30613" d="M49.271,184.859c0.026,0.029,0.058,0.047,0.085,0.075c0.083-0.012,0.144-0.042,0.191-0.078L49.271,184.859z"
	/>
<path fill="#E30613" d="M86.467,11.549c-0.707-0.015-1.122-0.121-1.41-0.255C85.063,11.533,85.413,11.673,86.467,11.549"/>
<path fill="#E30613" d="M158.491,16.442c0.064-0.192-0.088-0.613,0.293-0.461c-0.202-0.103-0.524-0.264-0.874-0.412
	c-0.547-0.243-1.093-0.485-1.093-0.485C157.835,15.619,158.09,15.992,158.491,16.442"/>
<path fill="#E30613" d="M158.851,16.015c0.043,0.021,0.083,0.039,0.137,0.072C158.987,16.087,158.931,16.057,158.851,16.015"/>
<path fill="#E30613" d="M158.784,15.98c0.021,0.011,0.048,0.024,0.066,0.034C158.829,16.004,158.803,15.988,158.784,15.98"/>
<path fill="#E30613" d="M171.344,32.954c0.318,0.14,0.514,0.471,0.829,0.607l0.243-0.388
	C171.376,32.222,170.426,31.815,171.344,32.954"/>
<path fill="#E30613" d="M159.102,19.967c-0.3,0.801,1.103,1.279,2.483,2.117c-0.081-0.054-0.159-0.101-0.232-0.165
	C162.393,21.254,160.765,20.555,159.102,19.967"/>
<path fill="#E30613" d="M161.905,22.278c0.427,0.257,0.853,0.532,1.226,0.847C163.551,22.864,162.692,22.696,161.905,22.278"/>
<path fill="#E30613" d="M145.287,10.153c0.628,0.512,0.868-0.746,1.14-0.261c0.614-0.29-0.717-0.548-1.669-0.567
	c-0.473-0.016-0.863,0.055-0.868,0.183C143.887,9.631,144.259,9.833,145.287,10.153"/>
<polygon fill="#E30613" points="157.61,21.957 158.724,22.9 158.798,21.758 "/>
<path fill="#E30613" d="M148.292,16.023l2.126,1.401c0.045-0.166,0.378-0.107,0.766,0.007
	C149.81,16.69,148.371,15.731,148.292,16.023"/>
<path fill="#E30613" d="M153.042,18.292c-0.391-0.205-1.221-0.668-1.858-0.861C151.894,17.83,152.565,18.214,153.042,18.292"/>
<path fill="#E30613" d="M155.15,20.725l-1.502-0.949l1.021,0.75c0.516,0.363,1,0.775,1,0.775L155.15,20.725z"/>
<path fill="#E30613" d="M122.604,7.094l-2.776-0.204c-0.332,0.29,0.371,0.629,1.403,0.673
	C121.923,7.444,122.958,7.495,122.604,7.094"/>
<path fill="#E30613" d="M129.063,10.623l-0.4,1.177l1.348-0.118C129.364,11.283,129.376,11.054,129.063,10.623"/>
<path fill="#E30613" d="M121.653,10.931c0.329-0.307,3.025-0.06,0.658-0.808C121.974,10.413,118.313,10.414,121.653,10.931"/>
<polygon fill="#E30613" points="81.891,6.858 81.737,9 82.411,8.828 "/>
<path fill="#E30613" d="M51.144,27.05c2.857-1.244-0.064-1.469,2.631-2.439c0.367-0.81-2.207,0.795-1.791,0.046
	C50.665,26.107,49.686,26.392,51.144,27.05"/>
<path fill="#E30613" d="M51.984,24.657c0.212-0.231,0.431-0.488,0.65-0.785C52.239,24.277,52.073,24.499,51.984,24.657"/>
<path fill="#E30613" d="M208.375,112.686c0,0,0.162-0.539,0.271-1.085c0.121-0.546,0.241-1.092,0.241-1.092l-0.721,1.389
	L208.375,112.686z"/>
<path fill="#E30613" d="M208.314,107.959l-1.144-1.314c0.046,0.488,0.135,1.441-0.168,1.808L208.314,107.959z"/>
<path fill="#E30613" d="M12.977,134.021l0.282-1.675l-0.341-0.058C12.676,132.672,12.777,133.121,12.977,134.021"/>
<polygon fill="#E30613" points="23.162,156.886 22.937,156.484 22.409,157.838 "/>
<path fill="#E30613" d="M36.53,171.69c1.043,1.223,0.975,2.586,1.726,1.504C37.755,172.687,37.082,172.212,36.53,171.69"/>
<path fill="#E30613" d="M36.124,171.275c0.121,0.144,0.262,0.28,0.406,0.415C36.409,171.55,36.278,171.41,36.124,171.275"/>
<path fill="#E30613" d="M143.795,88.545l25.119-25.118l-22.536-22.537l-0.519,0.519c1.464,1.007,3.019,2.085,4.113,3.662
	c-1.754,0.403,1.675,1.212,1.507,2.517l-1.377,0.761c0.354-1.541-1.021-2.668-2.617-3.588l0.169,0.584
	c-1.934-1.395-2.397-1.991-3.035-2.696l-8.286,8.285c0.042,0.051,0.083,0.098,0.124,0.15c0.835,0.704,1.408,0.789,2.387,0.823
	c0.527,0.931,0.288,1.961,1.011,2.662c0.382-0.119,0.438-0.8,0.281-1.262l-0.188-0.33c0.08,0.078,0.142,0.196,0.188,0.33
	l0.868,1.538l0.976-0.318c1.303,0.851,1.38,1.145,0.856,2.094l-2.119-1.851c-0.522,0.964,2.365,2.718,1.548,3.609
	c-0.691,0.371-1.386-1.138-1.264-1.651c-0.904,0.678-2.807-3.454-4.544-5.644c-0.047-0.04-0.097-0.082-0.146-0.127l-19.287,19.287
	c0.103,0.045,0.17,0.135,0.16,0.311c1.227,0.561,0.332-0.729,0.813-0.894l3.592,5.17c-0.853-0.199-1.991-0.461-3.013-1.242
	l-0.445,3.131c-0.242-0.851-0.444-1.55-1.087-2.311c-0.134-0.059-0.273-0.125-0.429-0.205c0.052-0.043,0.083-0.083,0.123-0.123
	c-0.167-0.169-0.35-0.341-0.57-0.521c-2.121,0.039,1.881,2.871,0.404,3.327l-1.585-0.909c0.527-0.954,0.483-0.159,1.221,0.558
	c0.658-0.357-0.841-2.419-1.934-3.543l-8.424,8.424c-0.504,1.76,4.652,5.118,5.998,7.056l0.399-0.455
	c5.604,4.216,7.188,10.294,11.79,14.41c-0.827-0.718-2.162-1.728-2.862-2.584c-3.384,2.163,4.644,5.134,4.357,8.848l0.122-0.518
	c1.589,2.808,7.955,4.573,4.856,6.811c1.301,0.854,1.873,2.871,2.975,2.058c2.442,2.994,2.486,5.979,5.137,8.765l-0.081-0.293
	c0.362,0.362,1.018,0.781,0.895,1.291c-0.652,1.468-2.243-1.337-3.749-1.953l0.244,0.858c-0.783-1.801-2.246-1.328-2.735-3.068
	c2.284,0.536-0.653-2.318-0.979-3.475c-0.499-0.323-0.809,0.026-1.146,0.281c0.239,0.316,0.477,0.634,0.702,0.956l-1.021-0.771
	c0.113-0.038,0.217-0.107,0.318-0.185c-2.141-2.829-4.793-5.349-7.532-7.452c-0.21,0.222,0.118,1.378,0.854,2.088l0.691-0.371
	c1.057,1.859-1.305,1.044-1.064,1.896c0.374,0.372,1.187,1.374,1.226,0.568c0.536,0.938,2.045,3.456,0.332,3.052
	c0.774,1.796,2.932,4.731,5.784,5.399l0.29,3.85c2.721,1.183,4.925,5.205,7.783,7.78c0.863,3.976-2.94-2.852-4.887-2.23
	c-1.716-4.188-7.717-3.711-9.097-8.623l-0.444,1.246c-1.961-3.159-5.1-5.793-7.415-9.308c-2.614,0.188-4.09-3.111-6.118-4.673
	l1.635,0.114c-1.518-0.632-0.536-2.83-2.497-2.203c-0.301,0.092-0.05,1.056,0.121,1.554c0.028,0.036,0.056,0.068,0.085,0.105
	c0.091,0.326,0.017,0.194-0.085-0.105c-2.048-2.571-3.94-3.842-3.173-5.793c0.727,0.718,1.385,1.137,1.918,2.073
	c2.813-0.413-2.211-2.137-0.979-3.463c-0.9-1.298-0.456,1.237-1.804-0.702c0.451-1.244-0.802-2.882-1.986-4.239
	c0.36,2.239-0.609-1.226-0.98,0.31l1.144,2.153c-0.579-0.135-2.736-3.071-0.897-3.18c-0.981-1.579-3.058-4.233-4.765-4.625
	c-2.738-3.077,0.276-1.826-1.308-4.63c1.793,2.586,1.349,0.047,2.887,1.757l0.052-4.573c-1.105-1.071-3.307-1.315-4.327-3.99
	c-0.609,0.667-2.283-2.428-2.569-0.602c0.446-1.247-2.526-3.287-3.509-2.988c1.02,2.801,4.294,5.133,6.273,7.193
	c0.002-0.015,0.002-0.028,0.004-0.043l0.381,0.461c-0.122-0.138-0.25-0.277-0.385-0.418c-0.151,1.289-0.113,2.371,0.007,3.731
	c-1.71-0.4-3.257-4.005-4.404-4.276c-1.216-0.55-2.282-0.525-2.533,0.494c-1.178-1.361-1.908-2.079-1.661-3.098
	c-1.598-0.912-3.506-1.094-2.853,1.223c1.624,0.107,1.179,1.356,2.48,2.2l-1.422-0.335c1.901,2.046,1.52,4.355,4.668,6.458
	c0.19-0.162,0.407-0.302,0.634-0.429c0.307-0.576,0.306-1.327,1.253-0.706c-0.346,0.258-0.815,0.462-1.253,0.706
	c-0.115,0.217-0.272,0.409-0.541,0.494c-0.033-0.021-0.06-0.043-0.093-0.065c-0.599,0.513-0.902,1.268-0.225,2.69
	c1.257-0.25,1.95,1.262,1.91,2.06l-4.925-5.198c-0.123,0.504-1.189,0.524-0.168,1.302l-2.766-2.261l0.852,0.197
	c1.996-1.427-3.996-4.721-5.298-7.461c-0.812-0.998-0.695,0.375-1.432-0.334c-0.203-1.671,0.377-1.534,0.903-2.495
	c-0.093-0.217-0.197-0.383-0.306-0.512c-0.361-0.086-0.784-0.184-1.29-0.34c-0.343,0.072-0.585,0.148-0.567-0.187
	c0.205,0.075,0.387,0.132,0.567,0.187c0.377-0.078,0.875-0.149,1.29,0.34c0.812,0.193,1.359,0.364,2.097,1.211
	c-0.161-2.47-0.769-1.799-2.241-3.228l1.146,0.271c0.403-0.445-0.85-2.086-1.39-1.14c0.002-1.883,1.793,0.695,2.575,0.611
	c1.377-0.754,0.118-2.408-0.287-3.849l2.56,0.601c0.901,3.189,3.108,3.44,5.018,5.507c1.019-1.114-1.425-2.235-2.194-4.026
	c0.932-1.409,2.439,1.107,2.934-0.938c-3.679-1.515-3.319-3.69-5.044-5.939l-1.603-1.562c0.696,0.52,1.205,1.043,1.603,1.562
	l0.225,0.22c0.252-1.018-2.484-4.092-3.742-5.741l-0.204,0.232l-0.446-2.54l1.666,1.199c-0.006-0.164,0.012-0.323,0.037-0.479
	l-5.049-5.049c-0.623-0.032-0.926,0.636-2.157-1.011c0.576,0.559,1.11,0.522,1.574,0.428L59.942,40.891l-1.923,1.924l1.2,1.685
	c-0.404,0.648-1.305,0.113-2.283-0.602l-19.53,19.53l43.218,43.217l-27.931,27.93c0.295,0.281,0.527,0.654,0.69,1.223l-1.014-0.897
	l-7.005,7.004l-0.058,1.169c-0.075-0.268-0.109-0.584-0.195-0.915l-0.683,0.683l0.019,0.035l-0.032-0.022l-3.417,3.417
	c0.974,0.061,0.192,1.011,0.597,1.598c-0.549-0.53-0.893-0.866-0.981-1.213l-1.18,1.18c0.617,0.648,1.336,1.084,1.87,1.85
	l-0.118-1.378c1.341,1.941-0.492,2.048-0.407,2.337l-1.775-2.378l-1.598,1.597l8.817,8.817c1.603,0.256,0.742-1.719,2.3-1.356
	c0.81,1,0.693,3.402,2.24,3.228l-1.108,0.819c4.288,1.006,6.773,5.105,9.055,7.531l0.735,2.601c0.217,0.243,0.445,0.481,0.677,0.718
	l4.168-4.168l-0.529-0.125c-0.604-1.217,0.611-0.666,1.023-1.105l0.026,0.71l6.237-6.236c-0.132-1.059-0.845-2.375-1.772-3.134
	l0.162,2.466c-1.182-1.357-1.84-3.673-2.568-4.388c2.159-1.995,4.491,3.968,5.896,3.337l0.288-0.288
	c-0.436-1.445-2.601-3.558-3.129-4.487c-0.498-0.116-1.253-0.2-1.641-0.057c0.025,0.273,0.022,0.528-0.031,0.745
	c-0.338-0.419-0.247-0.641,0.031-0.745c-0.146-1.653-1.61-4.213-3.33-6.242l-0.201,0.229c-2.042-3.454-6.036-6.283-8.689-9.067
	l1.595-0.967c2.281,2.422,4.81,3.826,5.461,6.143c0.654,0.416,0.778-0.092,0.901-0.6c4.684,2.449,1.795,4.471,5.787,7.3l0.2-0.229
	c3.665,2.28,2.049,4.551,3.506,7.519l29.647-29.647l43.218,43.218l22.536-22.537l-13.389-13.389
	c-0.547-0.407-1.024-0.866-1.395-1.395l-28.434-28.434l8.191-8.191c-0.868-1.654-2.997-3.571-1.941-3.904
	c-0.613-1.227-0.946-0.496-1.716-0.405c0.042-0.802-0.326-1.156-0.78-1.81l1.713,0.406c-0.074-2.174-1.137-0.265-2.07-2.65
	c2.322-0.255,2.649,0.902,4.73,1.662c1.166,1.241,1.896,2.663,2.703,4.061l6.797-6.796c-2.14-2.611-5.92-4.809-6.366-7.872
	l0.902,1.299l0.202-2.121c-0.042,0.802,1.423,2.238,0.163,2.471c2.244,1.343,3.872,3.346,5.581,3.75l-0.449,1.237
	C143.479,88.063,143.633,88.312,143.795,88.545 M149.562,64.413c-0.036,0.804-1.592-0.918-0.899,0.597
	c3.101,1.536,3.916,6.317,7.095,8.146L154.411,75c-1.394-3.028-4.36-5.071-6.152-7.663l0.089,1.024
	c-0.128-0.709-0.57-1.403,0.404-1.17l-3.792-4.937C146.792,64.029,148.374,63.053,149.562,64.413 M54.572,69.587l-0.623-1.236
	l1.356,0.061L54.572,69.587z M62.318,46.039l2.116,3.744l-2.936-2.854C61.624,46.414,62.644,47.194,62.318,46.039 M59.587,59.972
	c1.015,0.781,3.136,2.624,2.239,3.223C61.375,62.555,58.56,61.08,59.587,59.972 M60.438,77.177c0.571,0.136,1.586,0.916,2.247,1.34
	C61.584,79.336,61.452,77.956,60.438,77.177 M67.125,81.99l0.125-0.506c-1.385-3.028-3.838-0.365-4.08-1.237
	c-0.082-0.282-0.599-1.196,0.013-0.811l0.59,0.145c-0.322-1.157,1.842-0.108,0.37-1.53c2.285,0.536,2.66,2.78,4.125,4.207
	L67.125,81.99z M69.333,57.677l0.767-0.087l0.86,2.091L69.333,57.677z M76.986,71.628c-1.913-0.184-3.342-2.414-4.328-3.989
	C74.142,69.064,77.354,70.098,76.986,71.628 M65.318,152.644c0.616,1.215-1.101,0.812,0.652,2.312
	c-0.851-0.203-1.71-0.408-1.753-1.501C65.155,153.947,64.912,153.079,65.318,152.644 M45.583,154.469l-1.299-0.842l1.552-0.178
	L45.583,154.469z M50.113,154.459l-2.404-1.913l-0.859,1.685c-1.593-2.808,1.059-1.915-0.897-5.073
	c-0.241,1.03-2.24-1.332-3.46-1.888c-0.123-1.385,0.125-4.288,2.566-1.281c0.284,3.837,5.343,4.76,6.519,8.003
	C50.728,153.795,49.052,152.585,50.113,154.459 M48.732,141.987l1.26-2.133c2.083,0.76,0.493,1.734,3.017,3.137l-1.339-0.043
	c1.75,1.49,2.031,3.445,1.545,3.607C51.173,144.99,51.46,143.169,48.732,141.987 M53.102,157.187
	c-0.078,0.145-0.184,0.26-0.261,0.34C52.875,157.384,52.984,157.279,53.102,157.187c0.129-0.242,0.183-0.569-0.092-0.963
	C53.737,156.781,53.397,156.948,53.102,157.187 M61.245,153.297c-0.121,0.519,1.138,2.166,2.078,2.652
	c-0.167,1.309-2.571-0.606-2.979-0.165C59.322,153.118,60.751,155.343,61.245,153.297 M59.241,156.606
	c-0.246-0.868-1.992-2.354-0.649-2.316l0.938,2.383L59.241,156.606z M59.366,152.315c0.088,2.183-4.081-1.228-2.326,2.154
	c-2.445-3.003,1.884-2.796-1.665-4.984c0.381-0.416,0.005-0.908-0.367-1.357c-0.172-0.148-0.298-0.322-0.396-0.519
	c0.099,0.161,0.245,0.335,0.396,0.519c0.659,0.565,1.774,0.896,2.651,1.903l-0.735,1.174
	C57.86,151.694,57.743,150.316,59.366,152.315 M56.958,144.28l0.864,0.662C57.5,144.796,57.211,144.56,56.958,144.28l-2.199-1.686
	l1.106-0.817C55.833,142.364,56.249,143.5,56.958,144.28 M96.956,97.105c2.698,1.982-0.242,2.911-0.36,3.429l-0.782,0.073
	L96.956,97.105z M94.836,95.254c0.533,0.938-2.078-0.757-2.118-1.845C94.763,93.078,92.852,94.794,94.836,95.254 M93.129,98.632
	c0.197-0.219,0.774-0.085,1.056-0.016l-0.163,1.307C93.383,99.508,93.21,98.919,93.129,98.632 M99.077,112.178
	c-1.227-0.563-3.38-3.492-4.239-3.69c-2.571-2.497-0.485-3.621,1.145-1.624c-1.179,0.533,1.215,2.44,2.437,3.006
	c0.492-0.157,0.044-0.802-0.195-1.673C100.421,110.339,98.952,110.8,99.077,112.178 M99.922,96.151
	c-0.098-0.321-0.054-0.587,0.305-0.698C100.021,95.678,99.938,95.916,99.922,96.151c0.307,0.998,2.026,2.539,0.173,1.693
	C100.405,97.522,99.876,96.841,99.922,96.151 M106.535,115.013l-4.235-3.698l-0.905,0.593l-0.685-1.506l0.891,1.291l0.528-2.687
	c-0.052-0.199-0.024-0.414,0.13-0.662l-0.13,0.662c0.197,0.745,1.588,1.251,2.291,2.27l0.889-0.599
	C108.085,112.95,105.763,113.219,106.535,115.013 M132.137,143.08l-3.428-2.327c-1.345-1.94,0.941-1.41,0.901-2.494l-0.374-0.356
	C132.493,138.462,132.124,142.039,132.137,143.08l0.203,0.139C132.174,143.483,132.14,143.384,132.137,143.08 M130.962,134.528
	l0.809-0.887c-0.366-0.354-1.028-0.791-0.988-1.589l2.133,1.859L130.962,134.528z M138.377,145.723
	c0.85,0.2,1.333,0.043,1.545-0.187l0.733,2.604C139.473,146.792,138.979,146.937,138.377,145.723 M143.876,145.396
	c-0.98-0.633-1.094-1.265-1.017-1.82c-0.108-0.051-0.216-0.095-0.326-0.121c0.145-0.006,0.253-0.03,0.357-0.057
	c0.099-0.482,0.291-0.895,0.091-1.186c-1.924-0.178-1.349-1.936-2.569-0.599c-1.303-2.741,0.652-1.469,1.305-2.934l1.094,1.064
	c-2.783-0.903,2.07,3.142,0.08,3.653c-0.013,0.058-0.023,0.118-0.031,0.178c1.014,0.484,1.923,1.93,2.402,1.062
	C145.22,145.438,143.996,144.88,143.876,145.396 M156.841,140.353c-2.199-0.247-2.279-2.428-3.756-3.854
	C155.135,136.172,156.924,138.743,156.841,140.353 M139.681,127.676c4.361,3.181,2.443,4.891,5.337,8.543
	c0.202-0.229,0.495-0.155,0.041-0.801c2.61,3.588,3.667,3.559,5.054,6.586c-1.581-0.909-0.736,1.178-1.063,1.907
	c-1.021-0.779-1.293-2.728-1.338-3.821c-0.453,1.238-1.47,0.461-1.631,1.777l-1.589-2.808l-0.204,0.226
	c-0.167-2.468-5.22-7.17-5.668-7.808l0.371,0.353l-0.122-3.27l0.729,0.71C141.312,129.682,138.785,128.273,139.681,127.676
	 M122.772,87.529c-1.062-1.872-3.832-0.366-3.792-3.058c1.426,0.344,2.935,2.857,3.951,1.739c-0.25-0.869-0.5-1.735,0.733-1.172
	C123.06,87.596,123.665,85.039,122.772,87.529 M122.692,79.68c-0.413,0.451,0.321,1.156,0.493,1.737l-1.641-0.115
	c-3.219-4.807,2.573,0.606,0.211-3.996c-0.29-0.071-0.854-0.196-1.059,0.017c-0.499-1.738,0.479-0.156,0.359-1.537l1.181,1.36
	c0.415-0.447,0.168-1.309,1.104-0.824c-0.291,2.38,5.016,4.528,4.986,6.877l0.069-0.29c1.915,2.075-0.972,0.32-0.778,1.979
	C127.179,82.354,123.747,81.555,122.692,79.68 M127.549,88.386c-1.042-0.852-0.509-0.882-0.273-1.202
	c-0.089-0.206-0.1-0.381,0.064-0.469c0.061,0.218,0.016,0.36-0.064,0.469C127.564,87.851,128.696,88.857,127.549,88.386
	 M127.988,89.025l-0.448,1.243l-0.605-1.218C127.216,89.109,127.871,89.54,127.988,89.025 M129.652,94.007l-1.26,0.247
	c1.469,1.425,3.435,2.693,4.411,4.277c-1.76,2.271-2.868-2.571-5.79-3.534l1.012-1.107c-0.449-0.641-2.403-1.921-1.996-2.354
	c0.408,1.445,1.759,1.486,2.076,0.754L129.652,94.007z M134.644,54.963l0.978,1.582l-2.043-1.564L134.644,54.963z M131.904,80.228
	l1.634,0.12l0.161,0.578L131.904,80.228z M134.717,64.699c-0.813-1-0.776,0.084-1.626-0.119c0.161-1.303-0.078-2.171-0.812-2.884
	c0.861,0.208,2.035,1.561,2.277,0.538C135.662,63.304,135.747,65.475,134.717,64.699 M134.726,60.92l1.429,0.337
	c-1.022-0.778-1.961-3.16-2.902-1.764c0.323-0.738-0.229-2.752-1.753-3.384c2.738,1.192,4.893,2.234,5.103,5.792L134.726,60.92z
	 M140.191,65.177l-0.654-2.303l0.929,2.364L140.191,65.177z M142.143,79.672l0.573,0.137l0.642,2.3L142.143,79.672z"/>
</svg>
