<?xml version="1.0" encoding="utf-8"?>
<!-- Generator: Adobe Illustrator 16.0.0, SVG Export Plug-In . SVG Version: 6.00 Build 0)  -->
<!DOCTYPE svg PUBLIC "-//W3C//DTD SVG 1.1//EN" "http://www.w3.org/Graphics/SVG/1.1/DTD/svg11.dtd">
<svg version="1.1" xmlns="http://www.w3.org/2000/svg" xmlns:xlink="http://www.w3.org/1999/xlink" x="0px" y="0px"
	 width="485.504px" height="804.91px" viewBox="0 0 485.504 804.91" enable-background="new 0 0 485.504 804.91"
	 xml:space="preserve">
<g id="yes" class="selectable">
	<g>
		<path class="bg" fill="#387CA0" d="M342.987,563.126c-0.354-0.477-0.713-0.947-1.086-1.412c-0.523-0.65-1.07-1.275-1.625-1.893
			c-0.23-0.256-0.463-0.508-0.697-0.758c-0.068-0.074-0.135-0.15-0.205-0.225l0.004-0.004l-1.213-1.209
			c-0.135-0.131-0.262-0.27-0.398-0.398l-29.832-29.766l-0.012,0.01c-15.678-17.322-43.695-20.945-73.729-12.021
			c-0.249-0.064-0.492-0.127-0.732-0.188c-0.229-0.061-0.458-0.121-0.689-0.176c-0.601-0.145-1.209-0.283-1.858-0.418
			c-0.007-0.002-0.016-0.004-0.023-0.008c-0.594-0.123-1.24-0.25-1.956-0.387c-0.192-0.035-0.388-0.07-0.58-0.104
			c-0.354-0.064-0.739-0.135-1.136-0.203c-0.946-0.166-1.906-0.332-2.894-0.496c-3.325-0.564-7.26-1.234-11.5-2.238
			c-0.03-0.008-0.059-0.014-0.092-0.021c-0.884-0.209-1.787-0.445-2.694-0.688c-0.363-0.096-0.751-0.205-1.141-0.312
			c-0.56-0.156-1.127-0.326-1.693-0.496c-0.464-0.141-0.922-0.275-1.417-0.436c-0.502-0.158-1.005-0.34-1.508-0.51
			c-0.574-0.199-1.134-0.383-1.745-0.607c-0.333-0.121-0.667-0.266-1-0.396c-0.759-0.291-1.515-0.578-2.322-0.92
			c-0.103-0.043-0.198-0.09-0.302-0.133c-0.57-0.246-1.139-0.504-1.706-0.771c-0.209-0.098-0.424-0.195-0.625-0.293
			c-0.613-0.301-1.217-0.607-1.807-0.922c-0.156-0.082-0.307-0.164-0.459-0.244c-0.594-0.326-1.174-0.654-1.729-0.988
			c-0.115-0.068-0.23-0.137-0.34-0.205c-0.62-0.377-1.214-0.76-1.76-1.135c-0.473-0.326-0.912-0.643-1.325-0.947
			c-0.006-0.008-0.012-0.014-0.022-0.02c-0.479-0.357-0.906-0.697-1.304-1.027c-0.3-0.246-0.605-0.506-0.924-0.789
			c-0.537-0.484-0.996-0.93-1.379-1.33c-0.399-0.426-0.798-0.895-1.418-1.619c-1.435-1.934-3.293-4.557-4.607-6.572
			c-0.148-0.229-0.302-0.48-0.457-0.738c-0.179-0.295-0.355-0.592-0.525-0.889c-1.088-1.916-2.421-4.541-3.375-6.531
			c-0.715-1.652-1.574-3.811-2.233-5.605c-0.248-0.695-0.433-1.229-0.581-1.674c-0.234-0.729-0.505-1.633-0.78-2.633
			c-0.034-0.129-0.068-0.238-0.108-0.383c-0.148-0.537-0.276-1.051-0.398-1.551c-0.019-0.074-0.037-0.152-0.055-0.23
			c-0.333-1.406-0.559-2.609-0.727-3.539c-0.199-1.26-0.324-2.061-0.416-2.785c-0.096-0.809-0.178-1.648-0.238-2.484
			c-0.003-0.047-0.006-0.104-0.009-0.15c-0.048-0.689-0.077-1.361-0.093-2.012c-0.01-0.783-0.006-1.781,0.069-2.627v-0.006
			c0.005-0.031,0.007-0.061,0.014-0.092c0.191-1.072,0.336-2.125,0.438-3.164c0.007-0.076,0.019-0.156,0.027-0.232
			c0.097-1.072,0.15-2.123,0.151-3.156c0-0.047-0.003-0.09-0.003-0.135c0-0.965-0.05-1.91-0.132-2.838
			c-0.011-0.111-0.019-0.225-0.029-0.334c-0.1-0.957-0.236-1.893-0.423-2.805c-0.015-0.078-0.036-0.152-0.053-0.23
			c-0.171-0.814-0.383-1.611-0.627-2.389c-0.045-0.152-0.09-0.305-0.141-0.455c-0.274-0.824-0.581-1.629-0.931-2.404
			c-0.046-0.104-0.101-0.203-0.148-0.305c-0.317-0.674-0.663-1.326-1.036-1.959c-0.097-0.166-0.192-0.33-0.293-0.492
			c-0.162-0.262-0.331-0.518-0.501-0.773c1.408-6.049,2.176-12.346,2.176-18.824c0-45.709-37.057-82.768-82.767-82.768
			c-45.713,0-82.769,37.058-82.769,82.768c0,41.184,30.082,75.326,69.468,81.689c1.54,1.914,3.079,3.826,4.619,5.738
			c0.238,0.295,0.522,0.555,0.773,0.838c0.397,0.445,0.781,0.9,1.216,1.316c0.318,0.307,0.674,0.582,1.014,0.869
			c0.442,0.381,0.874,0.771,1.349,1.121c0.373,0.275,0.782,0.518,1.177,0.773c0.489,0.32,0.967,0.646,1.486,0.938
			c0.429,0.238,0.887,0.443,1.332,0.662c0.535,0.262,1.059,0.525,1.62,0.758c0.479,0.197,0.986,0.357,1.483,0.533
			c0.576,0.201,1.148,0.406,1.75,0.578c0.528,0.148,1.079,0.268,1.624,0.393c0.62,0.145,1.237,0.287,1.883,0.398
			c0.571,0.1,1.164,0.164,1.755,0.238c0.663,0.082,1.326,0.164,2.013,0.215c0.241,0.02,0.472,0.053,0.716,0.064
			c0.112,0.018,0.224,0.037,0.338,0.059c0.074,0.012,0.147,0.021,0.222,0.037c0.565,0.105,1.115,0.23,1.606,0.354
			c1.668,0.424,3.574,1.049,5.244,1.68c0.584,0.23,1.26,0.512,2.217,0.908c0.854,0.379,1.953,0.871,3.222,1.514
			c0.093,0.047,0.186,0.092,0.278,0.143c0.425,0.217,0.861,0.447,1.313,0.695c0.029,0.016,0.063,0.033,0.092,0.049
			c0.047,0.027,0.079,0.047,0.126,0.072c0.996,0.547,1.891,1.066,2.593,1.496c0.389,0.242,0.851,0.539,1.448,0.926
			c1.601,1.07,3.514,2.42,4.965,3.512c1.627,1.324,3.715,3.105,5.303,4.574c0.249,0.234,0.498,0.467,0.725,0.688
			c0.097,0.094,0.191,0.184,0.293,0.285c0.142,0.137,0.27,0.268,0.406,0.4c1.099,1.104,2.481,2.584,4.108,4.521
			c0.465,0.562,0.934,1.117,1.391,1.697c0.57,0.783,0.934,1.285,1.256,1.779c0.295,0.459,0.615,0.998,0.953,1.625
			c0.203,0.373,0.381,0.73,0.551,1.078c0.228,0.467,0.459,0.961,0.694,1.512c0.004,0.006,0.007,0.012,0.009,0.018
			c0.203,0.473,0.407,0.975,0.615,1.514c0.238,0.615,0.465,1.281,0.688,1.967c0.041,0.129,0.084,0.264,0.126,0.396
			c0.189,0.609,0.374,1.244,0.549,1.889c0.045,0.17,0.089,0.344,0.135,0.521c0.165,0.643,0.324,1.297,0.468,1.959
			c0.047,0.219,0.093,0.453,0.143,0.68c0.122,0.604,0.24,1.207,0.343,1.811c0.023,0.125,0.045,0.244,0.067,0.369
			c0.033,0.203,0.059,0.406,0.091,0.607c0.138,0.873,0.258,1.742,0.363,2.609c0.041,0.35,0.084,0.695,0.122,1.049
			c0.112,1.041,0.208,2.078,0.276,3.104c0.007,0.084,0.009,0.174,0.014,0.258c0.067,0.99,0.109,1.967,0.139,2.932
			c0.01,0.318,0.017,0.643,0.026,0.967c0.013,0.703,0.024,1.396,0.024,2.084c0,0.422,0.003,0.842,0,1.273
			c-0.007,0.551-0.017,1.086-0.031,1.621c-0.009,0.506-0.019,1.008-0.038,1.529c-0.017,0.52-0.039,1.02-0.06,1.52
			c-0.02,0.479-0.041,0.951-0.067,1.443c-0.039,0.732-0.079,1.449-0.122,2.135c-0.055,0.906-0.111,1.814-0.184,2.777
			c-0.073,1.027-0.139,2.021-0.2,3.006c-0.021,0.359-0.042,0.709-0.061,1.033c-0.013,0.219-0.026,0.438-0.036,0.656
			c-0.036,0.715-0.063,1.363-0.081,1.959c-0.001,0.02-0.001,0.039-0.001,0.057c-0.019,0.654-0.027,1.271-0.027,1.885
			c0,0.238,0.006,0.479,0.008,0.719c0.008,0.467,0.017,0.941,0.032,1.463c0.001,0.021,0.003,0.041,0.003,0.062
			c0.005,0.105,0.01,0.207,0.016,0.312c0.037,0.879,0.104,1.709,0.188,2.486c-13.749,27.061-14.969,54.371-0.443,72.49
			c2.051,2.561,4.367,4.832,6.885,6.861l-0.012,0.012l25.357,25.357c0.695,0.867,1.425,1.697,2.176,2.502
			c0.244,0.262,0.5,0.508,0.75,0.764c0.521,0.533,1.049,1.061,1.595,1.564c0.306,0.283,0.62,0.557,0.933,0.83
			c0.519,0.455,1.047,0.898,1.586,1.33c0.334,0.268,0.67,0.529,1.012,0.787c0.558,0.42,1.128,0.824,1.705,1.221
			c0.336,0.229,0.668,0.465,1.011,0.688c0.662,0.43,1.342,0.836,2.029,1.234c0.272,0.158,0.536,0.328,0.812,0.48
			c0.966,0.535,1.952,1.045,2.96,1.521c0.224,0.105,0.458,0.197,0.684,0.301c0.797,0.363,1.603,0.715,2.425,1.043
			c0.383,0.152,0.775,0.291,1.164,0.436c0.687,0.256,1.378,0.506,2.081,0.736c0.433,0.143,0.87,0.275,1.308,0.408
			c0.687,0.209,1.379,0.406,2.08,0.592c0.448,0.119,0.896,0.236,1.349,0.348c0.736,0.178,1.483,0.338,2.234,0.49
			c0.424,0.088,0.843,0.182,1.271,0.262c0.929,0.172,1.871,0.318,2.819,0.455c0.258,0.035,0.511,0.084,0.771,0.117
			c1.203,0.158,2.422,0.285,3.655,0.389c0.384,0.031,0.776,0.047,1.164,0.072c0.867,0.059,1.737,0.109,2.618,0.141
			c0.488,0.018,0.981,0.021,1.473,0.031c0.487,0.008,0.968,0.029,1.458,0.029c0.426,0,0.857-0.012,1.286-0.018
			c0.222-0.004,0.444-0.004,0.667-0.01c1.196-0.027,2.402-0.078,3.618-0.154c0.254-0.016,0.509-0.033,0.764-0.051
			c1.23-0.086,2.468-0.191,3.717-0.326c0.188-0.021,0.378-0.045,0.567-0.066c1.234-0.141,2.476-0.303,3.726-0.49
			c0.116-0.018,0.231-0.031,0.348-0.051c1.293-0.197,2.596-0.43,3.904-0.678c0.247-0.049,0.493-0.094,0.74-0.143
			c1.272-0.252,2.551-0.527,3.835-0.826c0.26-0.062,0.52-0.125,0.779-0.188c1.312-0.314,2.626-0.648,3.946-1.012
			c0.164-0.045,0.326-0.096,0.488-0.141c1.291-0.361,2.586-0.744,3.883-1.152c0.154-0.049,0.309-0.094,0.463-0.143
			c1.334-0.426,2.674-0.881,4.015-1.355c0.261-0.092,0.521-0.184,0.78-0.277c1.314-0.473,2.631-0.969,3.947-1.488
			c0.256-0.102,0.512-0.205,0.768-0.309c1.354-0.545,2.711-1.105,4.066-1.699c0.129-0.057,0.256-0.115,0.385-0.174
			c1.318-0.58,2.637-1.186,3.955-1.812c0.185-0.088,0.369-0.172,0.555-0.262c1.338-0.645,2.676-1.316,4.012-2.008
			c0.266-0.137,0.531-0.273,0.797-0.414c1.319-0.691,2.637-1.404,3.952-2.145c0.242-0.137,0.484-0.275,0.728-0.414
			c1.361-0.773,2.724-1.566,4.08-2.391c0.082-0.051,0.164-0.104,0.246-0.152c1.319-0.805,2.637-1.639,3.947-2.49
			c0.208-0.135,0.416-0.266,0.623-0.402c1.305-0.854,2.604-1.736,3.896-2.639c0.265-0.184,0.529-0.369,0.793-0.555
			c1.285-0.906,2.564-1.832,3.839-2.785c0.226-0.168,0.448-0.34,0.674-0.51c1.313-0.99,2.622-2,3.92-3.039
			c0.022-0.02,0.047-0.037,0.069-0.055C346.43,646.566,365.161,593.16,342.987,563.126z"/>
		<path d="M71.667,496.697c0,0-0.47-0.488-1.351-1.404c-0.868-0.926-2.168-2.264-3.768-4.008c-0.794-0.871-1.694-1.904-2.521-3.123
			c-0.229-0.357-0.402-0.574-0.627-0.967l-0.286-0.484l-0.301-0.539c-0.096-0.184-0.177-0.303-0.288-0.545l-0.258-0.535
			l-0.277-0.586c-0.09-0.205-0.159-0.328-0.266-0.604c-0.153-0.395-0.307-0.795-0.464-1.201l-0.114-0.301l-0.057-0.15l-0.028-0.076
			l-0.04-0.135l-0.19-0.623l-0.192-0.633l-0.112-0.379l-0.048-0.16l-0.047-0.207c-0.099-0.441-0.2-0.885-0.302-1.336
			c-0.397-2.021-0.591-3.875-0.603-6.105c-0.031-0.957,0.049-2.217,0.104-3.209c0.086-1.111,0.239-2.303,0.39-3.352
			c0.126-0.693,0.178-1.072,0.319-1.74l0.185-0.873l0.202-0.82l0.218-0.875c0.081-0.299,0.119-0.496,0.237-0.881
			c0.172-0.562,0.343-1.133,0.517-1.707l0.13-0.418l0.091-0.275l0.073-0.207l0.296-0.826l0.298-0.834l0.149-0.418l0.037-0.107
			L62.792,456l0.081-0.189l0.089-0.205c0.474-1.094,0.953-2.197,1.438-3.316c0.431-1.111,1.105-2.271,1.73-3.42
			c0.648-1.137,1.236-2.367,1.982-3.434c0.716-1.098,1.439-2.209,2.166-3.324c0.762-1.094,1.597-2.141,2.403-3.225
			c0.411-0.535,0.807-1.086,1.235-1.611l1.333-1.541c0.91-1.014,1.778-2.08,2.759-3.043c3.804-3.975,8.09-7.57,12.592-10.869
			c4.566-3.219,9.463-5.959,14.492-8.217c1.276-0.521,2.548-1.045,3.812-1.562c1.276-0.492,2.598-0.855,3.881-1.285
			c0.649-0.199,1.284-0.424,1.935-0.598c0.657-0.158,1.311-0.314,1.964-0.471c0.652-0.154,1.301-0.309,1.949-0.465l0.968-0.227
			l0.983-0.154c1.309-0.199,2.606-0.396,3.891-0.594c1.296-0.127,2.593-0.174,3.867-0.24l0.954-0.045l0.527-0.021l0.453,0.012
			c0.631,0.014,1.259,0.029,1.883,0.045c0.611,0.043,1.217,0.086,1.82,0.129l0.513,0.041l0.436,0.051l0.918,0.115l0.922,0.123
			l0.904,0.152l0.841,0.156l0.274,0.053l0.207,0.047l0.414,0.094c0.673,0.158,1.075,0.252,1.728,0.43l0.4,0.113l0.271,0.078
			l0.197,0.062l0.846,0.275l0.822,0.295l0.752,0.301c0.361,0.139,0.524,0.219,0.795,0.33l0.242,0.105l0.18,0.084l0.358,0.172
			c1.001,0.461,2.011,1.016,2.934,1.576c0.442,0.289,0.88,0.576,1.312,0.859l0.077,0.053l0.096,0.066l0.036,0.027l0.148,0.111
			l0.294,0.225l0.582,0.443l0.335,0.258l0.32,0.273l0.535,0.477c0.193,0.176,0.318,0.27,0.563,0.51l0.533,0.545
			c0.628,0.631,1.292,1.43,1.855,2.15c0.574,0.756,1.05,1.441,1.506,2.131c1.863,2.719,3.438,5.127,4.746,7.102
			c1.316,1.969,2.305,3.551,2.999,4.613c0.68,1.074,1.043,1.646,1.043,1.646s-0.458-0.5-1.317-1.438
			c-0.846-0.947-2.114-2.314-3.672-4.096c-1.567-1.777-3.482-3.926-5.621-6.436c-1.108-1.318-2.131-2.424-3.547-3.584l-0.493-0.398
			l-0.525-0.389l-0.575-0.426c0.01,0.01-0.072-0.055,0.012,0.014l-0.036-0.025l-0.073-0.055l-0.145-0.105
			c0.048,0.035-0.075-0.045-0.105-0.062l-0.153-0.098l-0.62-0.389l-0.313-0.197l-0.157-0.098l-0.039-0.025
			c-0.064-0.043,0.044,0.031,0.019,0.016l-0.082-0.045c-0.419-0.223-0.842-0.449-1.27-0.678c-0.854-0.412-1.696-0.781-2.644-1.121
			l-0.372-0.137l-0.187-0.068c-0.028-0.012,0.081,0.033,0.012,0.008l-0.047-0.018l-0.096-0.029c-0.228-0.07-0.562-0.188-0.708-0.223
			l-0.775-0.23l-0.736-0.188c-0.487-0.109-0.978-0.219-1.474-0.328c-0.424-0.092-1.121-0.211-1.552-0.281l-0.419-0.066l-0.21-0.033
			c0.012,0.004-0.099-0.018,0.013,0.004l-0.053-0.006l-0.105-0.014l-0.85-0.104l-0.803-0.082l-0.802-0.053l-0.823-0.047
			l-0.437-0.023l-0.366-0.002c-0.573-0.004-1.149-0.008-1.728-0.012c-0.567,0.023-1.138,0.049-1.711,0.072l-0.453,0.02l-0.377,0.047
			l-0.863,0.102c-1.152,0.131-2.316,0.264-3.491,0.396c-1.165,0.227-2.343,0.453-3.53,0.684c-4.719,1.084-9.484,2.73-14.131,4.887
			c-4.612,2.217-9.171,4.775-13.424,7.807c-4.245,3.033-8.307,6.346-11.909,10.016c-3.533,3.711-6.94,7.479-9.614,11.564
			c-0.752,0.984-1.274,2.018-1.904,3.014c-0.594,1.02-1.246,1.943-1.778,3.076c-0.556,1.084-1.106,2.158-1.65,3.219l-0.101,0.197
			c-0.062,0.141,0.055-0.135,0.035-0.088l-0.023,0.051l-0.044,0.104l-0.175,0.408l-0.351,0.812l-0.349,0.807l-0.087,0.201
			c0.044-0.119,0.001-0.004,0.006-0.016l-0.019,0.049l-0.039,0.104l-0.157,0.406c-1.581,4.146-2.642,8.148-2.946,12.096
			c-0.182,1.82-0.113,3.854,0.02,5.486c0.049,0.459,0.098,0.912,0.147,1.361c0.004,0.035,0.018,0.154,0.014,0.123l0.029,0.166
			c-0.007-0.008,0.032,0.186,0.047,0.27l0.119,0.65l0.118,0.643c-0.003,0,0.026,0.111-0.002,0.02l0.021,0.078l0.039,0.156
			l0.079,0.311c0.103,0.398,0.206,0.795,0.307,1.182c0.883,2.986,2.224,5.436,3.581,7.357c1.363,1.936,2.39,3.492,3.11,4.537
			C71.291,496.132,71.667,496.697,71.667,496.697"/>
		<path d="M76.471,502.662c0,0-0.384-0.43-1.104-1.232c-0.352-0.408-0.732-0.965-1.215-1.605c-0.425-0.666-0.951-1.426-1.397-2.352
			c-0.959-1.818-1.911-4.188-2.445-7.049c-0.568-2.852-0.765-6.172-0.41-9.744c0.346-3.572,1.214-7.389,2.592-11.246l0.253-0.729
			l0.064-0.184l0.016-0.045c0.023-0.055-0.029,0.055,0.055-0.133l0.036-0.086l0.147-0.344c0.198-0.457,0.396-0.92,0.596-1.383
			c0.4-0.93,0.805-1.867,1.214-2.816c0.512-0.965,1.031-1.939,1.554-2.924c0.534-0.98,1.051-1.998,1.674-2.908
			c0.602-0.938,1.21-1.883,1.822-2.834c0.589-0.973,1.336-1.83,2.007-2.758c0.701-0.904,1.362-1.855,2.11-2.734
			c0.763-0.871,1.529-1.744,2.298-2.621c0.39-0.434,0.763-0.887,1.168-1.309l1.241-1.244c0.833-0.828,1.668-1.66,2.505-2.492
			l2.667-2.332c0.889-0.781,1.777-1.564,2.732-2.266l2.829-2.146c0.941-0.715,1.955-1.328,2.928-1.996
			c1.926-1.363,4.001-2.48,6.025-3.639c0.997-0.605,2.064-1.076,3.1-1.594c1.047-0.49,2.07-1.018,3.122-1.469
			c1.064-0.424,2.122-0.848,3.171-1.268c0.526-0.205,1.05-0.41,1.572-0.615c0.537-0.168,1.071-0.334,1.604-0.502
			c1.064-0.33,2.118-0.658,3.163-0.982c1.058-0.285,2.126-0.502,3.173-0.74c2.078-0.533,4.187-0.754,6.212-1.029
			c1.008-0.17,2.03-0.16,3.025-0.213c0.995-0.037,1.974-0.074,2.937-0.109c0.957,0.057,1.897,0.109,2.821,0.164
			c0.447,0.027,0.889,0.057,1.327,0.082c0.45,0.043,0.92,0.133,1.371,0.199c0.901,0.146,1.785,0.291,2.647,0.432
			c0.848,0.182,1.65,0.43,2.439,0.645c1.588,0.373,3.005,1.059,4.349,1.588c0.683,0.24,1.276,0.646,1.875,0.959
			c0.594,0.326,1.159,0.648,1.697,0.963c0.996,0.75,1.91,1.439,2.736,2.061c0.739,0.727,1.386,1.373,1.937,1.939
			c0.289,0.27,0.513,0.562,0.709,0.836c0.2,0.27,0.382,0.514,0.545,0.732c0.638,0.871,0.978,1.336,0.978,1.336
			s-0.429-0.383-1.233-1.104c-0.196-0.182-0.417-0.381-0.659-0.602c-0.235-0.227-0.5-0.461-0.832-0.668
			c-0.64-0.438-1.36-0.941-2.153-1.51c-0.866-0.453-1.823-0.953-2.866-1.5c-0.547-0.209-1.118-0.428-1.708-0.652
			c-0.594-0.211-1.17-0.512-1.839-0.645c-1.316-0.316-2.661-0.77-4.175-0.908c-0.746-0.09-1.502-0.246-2.278-0.32
			c-0.771-0.035-1.56-0.072-2.366-0.109c-0.405-0.016-0.796-0.055-1.219-0.057c-0.439,0.018-0.882,0.035-1.33,0.051
			c-0.863,0.033-1.743,0.07-2.637,0.105c-0.884,0.111-1.781,0.229-2.694,0.346c-0.909,0.127-1.835,0.188-2.756,0.43
			c-1.849,0.422-3.761,0.723-5.655,1.365c-0.951,0.293-1.92,0.549-2.884,0.859c-0.952,0.354-1.913,0.713-2.882,1.074
			c-0.484,0.18-0.97,0.357-1.457,0.541c-0.477,0.213-0.955,0.426-1.436,0.641c-0.96,0.428-1.927,0.857-2.899,1.291
			c-0.962,0.457-1.898,0.99-2.855,1.482c-0.952,0.506-1.935,0.961-2.853,1.553c-1.868,1.121-3.763,2.223-5.562,3.504
			c-0.903,0.633-1.848,1.207-2.723,1.885l-2.629,2.025c-0.901,0.646-1.734,1.373-2.57,2.098l-2.51,2.16
			c-0.793,0.764-1.585,1.527-2.374,2.289l-1.188,1.133c-0.388,0.387-0.743,0.799-1.115,1.195c-0.739,0.801-1.474,1.598-2.205,2.389
			c-0.731,0.793-1.372,1.652-2.058,2.469c-1.402,1.611-2.572,3.357-3.79,5.031c-0.641,0.83-1.128,1.693-1.651,2.539
			c-0.527,0.846-1.048,1.684-1.564,2.512c-0.473,0.92-0.942,1.828-1.405,2.729c-0.232,0.447-0.461,0.895-0.69,1.338l-0.172,0.332
			l-0.043,0.082c0.07-0.16,0.008-0.02,0.019-0.045l-0.017,0.041l-0.073,0.162l-0.289,0.648c-1.551,3.449-2.676,6.857-3.344,10.08
			c-0.669,3.223-0.911,6.262-0.749,8.947c0.164,2.686,0.648,5.02,1.274,6.877c0.132,0.475,0.306,0.906,0.473,1.311
			c0.165,0.406,0.297,0.805,0.457,1.15c0.338,0.682,0.597,1.289,0.866,1.756C76.184,502.164,76.471,502.662,76.471,502.662"/>
		<path d="M309.67,529.486c0,0-0.768-0.799-2.203-2.289c-0.732-0.73-1.717-1.539-2.816-2.531c-0.591-0.451-1.229-0.938-1.906-1.451
			c-0.342-0.256-0.681-0.535-1.05-0.795c-0.377-0.246-0.767-0.5-1.168-0.762c-3.172-2.113-7.312-4.238-12.325-5.883
			c-5.013-1.637-10.893-2.734-17.356-3.102c-6.474-0.285-13.513,0.191-20.832,1.447c-7.312,1.328-14.892,3.443-22.489,6.303
			c-7.59,2.881-15.171,6.541-22.56,10.805c-7.366,4.268-14.587,9.238-21.271,14.615c-1.681,1.41-3.451,2.795-5.068,4.213
			c-1.608,1.426-3.244,2.799-4.805,4.305l-2.363,2.213l-2.283,2.277c-1.544,1.496-2.978,3.088-4.444,4.639
			c-5.762,6.293-10.99,12.889-15.451,19.674c-4.443,6.791-8.152,13.73-11.042,20.578c-2.819,6.869-4.81,13.637-5.941,20.016
			c-1.052,6.389-1.255,12.367-0.751,17.615c0.512,5.25,1.687,9.754,3.058,13.309c0.168,0.447,0.331,0.883,0.489,1.309
			c0.174,0.416,0.371,0.807,0.547,1.193c0.356,0.775,0.691,1.502,1.002,2.18c0.73,1.295,1.31,2.432,1.861,3.303
			c1.142,1.725,1.75,2.645,1.75,2.645s-0.702-0.854-2.019-2.459c-0.642-0.816-1.338-1.895-2.214-3.133
			c-0.396-0.643-0.799-1.35-1.238-2.102c-0.213-0.381-0.448-0.766-0.662-1.174c-0.198-0.418-0.402-0.848-0.612-1.289
			c-1.708-3.514-3.351-8.053-4.237-13.477c-0.919-5.412-1.154-11.674-0.385-18.404c0.795-6.719,2.486-13.902,5.182-21.168
			c2.722-7.244,6.266-14.645,10.758-21.785c1.14-1.771,2.254-3.588,3.495-5.33c0.61-0.881,1.222-1.764,1.837-2.648
			c0.641-0.865,1.284-1.734,1.93-2.605c1.264-1.766,2.68-3.426,4.026-5.156c1.424-1.666,2.846-3.352,4.332-4.988
			c1.506-1.617,2.982-3.279,4.567-4.842l2.347-2.381l2.429-2.311c1.593-1.559,3.318-3.039,4.999-4.549
			c1.691-1.496,3.383-2.854,5.08-4.281c7.115-5.635,14.521-10.635,22.225-15.021c1.922-1.092,3.872-2.121,5.812-3.139
			c1.984-0.938,3.911-1.961,5.91-2.811c0.991-0.438,1.978-0.879,2.962-1.316c0.998-0.406,1.994-0.812,2.985-1.217
			c1.971-0.832,3.984-1.523,5.962-2.252c7.946-2.834,15.942-4.674,23.604-5.76c7.674-1.053,15.057-1.137,21.786-0.455
			c6.736,0.711,12.796,2.305,17.878,4.375c5.104,2.043,9.176,4.635,12.234,7.064c0.384,0.301,0.76,0.594,1.124,0.877
			c0.353,0.299,0.677,0.609,1.001,0.898c0.638,0.592,1.24,1.141,1.783,1.666c1.021,1.127,1.924,2.043,2.578,2.848
			C308.989,528.615,309.67,529.486,309.67,529.486"/>
		<path fill="#FFFFFF" d="M217.603,711.31c-18.102,0-32.355-5.844-41.222-16.898c-22.083-27.547-3.799-79.021,40.757-114.746
			c25.145-20.158,54.174-31.717,79.647-31.717c18.098,0,32.35,5.842,41.215,16.895c22.084,27.547,3.805,79.023-40.75,114.748
			C272.107,699.748,243.074,711.31,217.603,711.31C217.602,711.31,217.604,711.31,217.603,711.31"/>
		<path fill="none" stroke="#006633" stroke-width="5" stroke-linecap="round" stroke-miterlimit="10" d="M217.603,696.31
			c-9.339,0-22.04-1.957-29.52-11.281c-4.111-5.131-9.893-17.021-2.395-39.01c6.536-19.166,21.419-39.086,40.833-54.648
			c22.199-17.797,48.467-28.422,70.265-28.422c9.336,0,22.037,1.957,29.512,11.277c4.113,5.131,9.896,17.021,2.398,39.012
			c-6.533,19.166-21.416,39.086-40.828,54.648C265.668,685.683,239.399,696.31,217.603,696.31
			C217.602,696.31,217.604,696.31,217.603,696.31z"/>
		<path fill="none" stroke="#3AAA35" stroke-width="5" stroke-linecap="round" stroke-miterlimit="10" d="M220.438,699.146
			c-9.339,0-22.04-1.957-29.52-11.283c-4.111-5.129-9.893-17.021-2.395-39.01c6.536-19.164,21.419-39.086,40.833-54.648
			c22.199-17.797,48.467-28.422,70.264-28.422c9.338,0,22.037,1.957,29.514,11.279c4.113,5.131,9.896,17.021,2.398,39.012
			c-6.535,19.166-21.416,39.084-40.828,54.648C268.502,688.519,242.234,699.146,220.438,699.146
			C220.438,699.146,220.439,699.146,220.438,699.146z"/>
		<polygon fill="#006633" points="297.875,581.988 292.116,578.333 239.136,644.5 244.896,648.156 		"/>
		<polygon fill="#3AAA35" points="297.875,581.988 244.896,648.156 229.046,630.244 211.066,648.835 243.394,685.365 
			314.518,596.542 		"/>
		<polygon fill="#006633" points="229.046,630.244 223.286,626.589 205.308,645.183 211.067,648.835 		"/>
		<polygon fill="#006633" points="211.067,648.835 205.308,645.183 237.632,681.71 243.393,685.365 		"/>
		<path d="M341.901,561.714c0,0-0.188-0.201-0.551-0.594c-0.354-0.398-0.902-0.971-1.639-1.689
			c-1.461-1.441-3.742-3.434-6.906-5.545c-3.172-2.1-7.297-4.223-12.289-5.873c-4.99-1.656-10.859-2.74-17.305-3.104
			c-6.451-0.33-13.471,0.15-20.771,1.398c-7.3,1.273-14.851,3.418-22.433,6.238c-7.586,2.826-15.131,6.508-22.513,10.729
			c-7.38,4.23-14.531,9.139-21.272,14.557c-6.782,5.381-13.17,11.23-18.912,17.5c-5.719,6.279-10.947,12.834-15.275,19.662
			c-4.339,6.814-7.938,13.783-10.654,20.674c-2.695,6.898-4.569,13.686-5.631,20.068c-1.04,6.387-1.311,12.355-0.968,17.615
			c0.354,5.26,1.285,9.805,2.448,13.426c1.167,3.621,2.497,6.336,3.537,8.105c0.519,0.887,0.946,1.553,1.252,1.988
			c0.303,0.439,0.459,0.666,0.459,0.666s-0.179-0.209-0.525-0.615c-0.351-0.402-0.847-1.021-1.459-1.859
			c-1.213-1.676-2.899-4.258-4.387-7.871c-1.504-3.598-2.893-8.189-3.615-13.605c-0.369-2.705-0.597-5.605-0.65-8.674
			c-0.046-3.066,0.133-6.293,0.486-9.641c0.716-6.695,2.283-13.873,4.845-21.16c2.537-7.291,5.974-14.727,10.37-21.912
			c4.37-7.193,9.538-14.242,15.482-20.771c5.912-6.551,12.484-12.691,19.461-18.279c7.02-5.555,14.464-10.576,22.148-14.902
			c7.676-4.344,15.653-7.865,23.584-10.646c7.932-2.797,15.896-4.656,23.545-5.691c3.826-0.5,7.576-0.818,11.213-0.873
			c3.638-0.045,7.152,0.111,10.508,0.465c6.715,0.709,12.762,2.287,17.818,4.377c5.082,2.053,9.139,4.641,12.197,7.051
			c3.07,2.416,5.117,4.705,6.449,6.287c0.666,0.799,1.148,1.422,1.463,1.854C341.735,561.494,341.901,561.714,341.901,561.714"/>
		<path fill="#FFFFFF" d="M51.439,403.312c0,10.855-8.801,19.656-19.657,19.656c-10.856,0-19.656-8.801-19.656-19.656
			c0-10.854,8.8-19.655,19.656-19.655C42.638,383.657,51.439,392.458,51.439,403.312"/>
	</g>
</g>
<g id="no" class="selectable">
	<g>
		<path class="bg" fill="#387CA0" d="M400.202,0c-45.709,0-82.768,37.058-82.768,82.768c0,6.479,0.77,12.774,2.178,18.825
			c-0.172,0.255-0.34,0.511-0.502,0.772c-0.102,0.163-0.197,0.328-0.293,0.494c-0.373,0.632-0.721,1.284-1.037,1.958
			c-0.047,0.101-0.102,0.201-0.146,0.304c-0.352,0.776-0.658,1.58-0.932,2.405c-0.051,0.151-0.098,0.302-0.143,0.454
			c-0.242,0.777-0.457,1.574-0.627,2.39c-0.018,0.077-0.037,0.152-0.053,0.23c-0.188,0.912-0.322,1.847-0.424,2.804
			c-0.01,0.11-0.018,0.224-0.027,0.334c-0.082,0.928-0.133,1.873-0.133,2.838c0,0.046-0.002,0.089-0.002,0.135
			c0,1.033,0.053,2.085,0.15,3.157c0.008,0.076,0.02,0.155,0.025,0.233c0.104,1.038,0.248,2.091,0.439,3.163
			c0.006,0.031,0.01,0.06,0.014,0.091v0.007c0.074,0.845,0.08,1.844,0.068,2.626c-0.016,0.651-0.045,1.323-0.092,2.012
			c-0.004,0.047-0.008,0.105-0.01,0.15c-0.061,0.837-0.143,1.678-0.238,2.485c-0.092,0.726-0.217,1.527-0.416,2.786
			c-0.168,0.929-0.395,2.133-0.727,3.54c-0.02,0.078-0.037,0.155-0.057,0.231c-0.121,0.498-0.25,1.013-0.396,1.549
			c-0.041,0.144-0.074,0.255-0.107,0.384c-0.275,1-0.547,1.904-0.779,2.631c-0.148,0.447-0.334,0.978-0.582,1.675
			c-0.658,1.795-1.518,3.952-2.234,5.606c-0.951,1.988-2.285,4.614-3.375,6.531c-0.168,0.297-0.344,0.594-0.523,0.889
			c-0.154,0.256-0.309,0.51-0.457,0.737c-1.312,2.018-3.172,4.641-4.605,6.573c-0.621,0.725-1.02,1.195-1.418,1.619
			c-0.383,0.401-0.842,0.846-1.379,1.33c-0.319,0.285-0.624,0.544-0.924,0.79c-0.398,0.33-0.826,0.67-1.305,1.027
			c-0.011,0.007-0.017,0.012-0.021,0.019c-0.413,0.307-0.854,0.622-1.326,0.948c-0.545,0.376-1.139,0.758-1.76,1.135
			c-0.109,0.068-0.225,0.137-0.34,0.205c-0.556,0.333-1.135,0.663-1.729,0.988c-0.152,0.08-0.303,0.163-0.459,0.245
			c-0.59,0.314-1.193,0.622-1.807,0.921c-0.201,0.097-0.416,0.196-0.625,0.293c-0.567,0.268-1.137,0.527-1.707,0.773
			c-0.104,0.043-0.199,0.088-0.303,0.132c-0.807,0.341-1.562,0.629-2.32,0.921c-0.334,0.129-0.668,0.273-1,0.395
			c-0.611,0.225-1.172,0.409-1.745,0.607c-0.503,0.171-1.007,0.351-1.509,0.511c-0.494,0.158-0.952,0.294-1.416,0.435
			c-0.566,0.169-1.135,0.339-1.693,0.496c-0.391,0.108-0.777,0.217-1.141,0.313c-0.907,0.242-1.812,0.477-2.694,0.687
			c-0.033,0.007-0.062,0.014-0.092,0.022c-4.24,1.003-8.175,1.673-11.5,2.238c-0.988,0.163-1.948,0.33-2.896,0.496
			c-0.396,0.069-0.781,0.138-1.136,0.203c-0.192,0.034-0.388,0.07-0.58,0.105c-0.716,0.135-1.362,0.262-1.956,0.386
			c-0.007,0.003-0.016,0.005-0.021,0.007c-0.649,0.134-1.258,0.273-1.858,0.419c-0.229,0.055-0.46,0.115-0.688,0.174
			c-0.231,0.059-0.485,0.128-0.729,0.191c-30.034-8.926-58.053-5.305-73.732,12.021l-0.012-0.011l-29.832,29.766
			c-0.137,0.129-0.265,0.268-0.399,0.398l-1.211,1.208l0.004,0.004c-0.068,0.071-0.132,0.146-0.199,0.217
			c-0.238,0.253-0.473,0.509-0.706,0.769c-0.555,0.614-1.101,1.238-1.623,1.889c-23.848,29.746-5.26,84.265,41.521,121.776
			c0.012,0.009,0.023,0.018,0.035,0.027c1.315,1.053,2.64,2.075,3.97,3.079c0.217,0.164,0.433,0.33,0.65,0.493
			c1.277,0.954,2.561,1.883,3.85,2.792c0.263,0.185,0.526,0.369,0.789,0.553c1.294,0.901,2.593,1.783,3.897,2.638
			c0.208,0.137,0.417,0.269,0.625,0.404c1.312,0.852,2.627,1.684,3.947,2.489c0.082,0.05,0.164,0.103,0.246,0.152
			c1.354,0.823,2.714,1.614,4.075,2.388c0.245,0.139,0.49,0.28,0.735,0.418c1.312,0.737,2.628,1.45,3.945,2.141
			c0.269,0.141,0.537,0.279,0.806,0.418c1.333,0.689,2.668,1.36,4.003,2.003c0.188,0.09,0.377,0.177,0.565,0.267
			c1.315,0.626,2.631,1.231,3.947,1.811c0.128,0.057,0.256,0.116,0.384,0.172c1.356,0.593,2.711,1.155,4.066,1.699
			c0.256,0.103,0.513,0.208,0.77,0.309c1.317,0.52,2.633,1.017,3.947,1.49c0.26,0.094,0.521,0.185,0.781,0.277
			c1.342,0.474,2.681,0.929,4.017,1.354c0.151,0.048,0.301,0.092,0.453,0.14c1.303,0.41,2.603,0.795,3.898,1.158
			c0.159,0.044,0.318,0.092,0.476,0.136c1.326,0.365,2.646,0.7,3.96,1.016c0.255,0.061,0.508,0.122,0.761,0.181
			c1.29,0.301,2.575,0.578,3.854,0.831c0.238,0.047,0.479,0.091,0.717,0.137c1.315,0.251,2.627,0.483,3.928,0.684
			c0.104,0.016,0.207,0.028,0.311,0.044c1.269,0.191,2.526,0.355,3.777,0.497c0.178,0.02,0.355,0.043,0.532,0.062
			c1.259,0.136,2.506,0.243,3.747,0.329c0.242,0.017,0.484,0.034,0.728,0.049c1.226,0.076,2.442,0.128,3.648,0.155
			c0.211,0.004,0.42,0.005,0.629,0.008c0.437,0.007,0.876,0.018,1.31,0.018c0.5,0,0.989-0.022,1.484-0.03
			c0.479-0.009,0.958-0.013,1.434-0.03c0.9-0.031,1.791-0.084,2.68-0.144c0.367-0.025,0.738-0.04,1.104-0.07
			c1.239-0.102,2.465-0.23,3.676-0.389c0.232-0.031,0.461-0.074,0.692-0.107c0.976-0.138,1.942-0.291,2.897-0.467
			c0.414-0.077,0.82-0.167,1.231-0.251c0.765-0.156,1.524-0.32,2.276-0.502c0.441-0.107,0.88-0.222,1.316-0.338
			c0.713-0.189,1.416-0.389,2.114-0.601c0.429-0.13,0.856-0.262,1.278-0.401c0.716-0.235,1.418-0.488,2.115-0.748
			c0.379-0.142,0.76-0.276,1.135-0.425c0.838-0.333,1.658-0.691,2.47-1.062c0.212-0.097,0.433-0.183,0.642-0.283
			c1.012-0.479,2.002-0.989,2.969-1.526c0.271-0.15,0.529-0.315,0.795-0.47c0.693-0.402,1.379-0.812,2.047-1.245
			c0.341-0.221,0.671-0.454,1.005-0.684c0.578-0.396,1.149-0.801,1.708-1.222c0.342-0.258,0.679-0.521,1.014-0.788
			c0.537-0.429,1.062-0.872,1.58-1.325c0.316-0.277,0.635-0.553,0.941-0.838c0.539-0.499,1.059-1.017,1.572-1.543
			c0.258-0.263,0.523-0.517,0.775-0.787c0.721-0.774,1.418-1.573,2.088-2.403c0.025-0.032,0.057-0.061,0.082-0.093l25.355-25.358
			l-0.014-0.011c2.52-2.029,4.834-4.302,6.887-6.861c14.525-18.119,13.305-45.431-0.443-72.491c0.084-0.777,0.15-1.608,0.188-2.487
			c0.008-0.105,0.012-0.208,0.018-0.313c0-0.021,0.002-0.041,0.002-0.062c0.016-0.52,0.023-0.996,0.033-1.463
			c0.002-0.241,0.008-0.481,0.008-0.719c0-0.612-0.008-1.229-0.027-1.883c0-0.019,0-0.038,0-0.057
			c-0.02-0.596-0.045-1.244-0.082-1.96c-0.01-0.218-0.021-0.437-0.035-0.656c-0.02-0.324-0.041-0.673-0.062-1.032
			c-0.061-0.986-0.127-1.98-0.199-3.007c-0.072-0.963-0.129-1.87-0.184-2.778c-0.043-0.685-0.084-1.401-0.123-2.134
			c-0.025-0.492-0.047-0.966-0.066-1.443c-0.021-0.5-0.043-1.001-0.061-1.52c-0.02-0.521-0.027-1.024-0.037-1.53
			c-0.016-0.535-0.023-1.071-0.031-1.62c-0.002-0.432,0-0.852,0-1.275c0-0.687,0.012-1.381,0.023-2.083
			c0.01-0.324,0.018-0.649,0.025-0.967c0.029-0.965,0.072-1.942,0.141-2.932c0.004-0.084,0.006-0.173,0.014-0.257
			c0.068-1.024,0.164-2.063,0.275-3.104c0.037-0.352,0.082-0.699,0.121-1.048c0.105-0.868,0.227-1.737,0.363-2.609
			c0.033-0.201,0.059-0.405,0.092-0.608c0.021-0.125,0.043-0.244,0.066-0.369c0.104-0.603,0.221-1.208,0.344-1.811
			c0.049-0.226,0.096-0.46,0.143-0.68c0.145-0.661,0.305-1.317,0.469-1.959c0.047-0.176,0.09-0.35,0.135-0.519
			c0.176-0.646,0.359-1.28,0.549-1.889c0.043-0.134,0.086-0.268,0.127-0.397c0.223-0.686,0.449-1.352,0.688-1.967
			c0.207-0.539,0.412-1.041,0.615-1.513c0.002-0.007,0.004-0.012,0.008-0.017c0.234-0.551,0.467-1.046,0.693-1.513
			c0.172-0.347,0.35-0.704,0.553-1.077c0.338-0.627,0.656-1.166,0.953-1.626c0.32-0.494,0.686-0.995,1.256-1.778
			c0.457-0.581,0.928-1.137,1.391-1.699c1.627-1.937,3.01-3.418,4.107-4.52c0.137-0.134,0.266-0.264,0.406-0.401
			c0.104-0.102,0.195-0.192,0.293-0.285c0.229-0.22,0.477-0.452,0.725-0.688c1.59-1.47,3.678-3.251,5.305-4.575
			c1.451-1.092,3.363-2.441,4.965-3.511c0.598-0.387,1.059-0.684,1.447-0.926c0.701-0.43,1.598-0.95,2.594-1.497
			c0.047-0.025,0.078-0.045,0.125-0.071c0.029-0.016,0.062-0.033,0.094-0.05c0.451-0.247,0.887-0.478,1.312-0.695
			c0.092-0.05,0.186-0.096,0.277-0.142c1.27-0.642,2.367-1.135,3.223-1.514c0.957-0.397,1.633-0.677,2.217-0.907
			c1.67-0.632,3.576-1.256,5.244-1.68c0.49-0.122,1.041-0.247,1.605-0.353c0.074-0.015,0.146-0.026,0.223-0.038
			c0.113-0.02,0.225-0.04,0.338-0.057c0.242-0.014,0.475-0.047,0.715-0.065c0.688-0.05,1.352-0.132,2.014-0.215
			c0.592-0.074,1.186-0.139,1.756-0.239c0.646-0.112,1.264-0.255,1.885-0.399c0.543-0.125,1.094-0.243,1.621-0.391
			c0.604-0.172,1.176-0.377,1.75-0.579c0.498-0.175,1.006-0.336,1.482-0.534c0.562-0.231,1.086-0.496,1.621-0.757
			c0.445-0.218,0.902-0.423,1.332-0.662c0.52-0.29,0.996-0.616,1.486-0.937c0.395-0.258,0.803-0.498,1.176-0.775
			c0.477-0.35,0.908-0.739,1.35-1.12c0.34-0.288,0.695-0.562,1.016-0.869c0.434-0.416,0.818-0.871,1.215-1.317
			c0.252-0.284,0.537-0.543,0.773-0.838c1.539-1.913,3.08-3.825,4.619-5.738c39.387-6.365,69.469-40.508,69.469-81.69
			C482.971,37.058,445.915,0,400.202,0z"/>
		<path d="M413.838,164.042c0,0,0.377-0.564,1.084-1.619c0.719-1.046,1.746-2.603,3.109-4.538c1.355-1.922,2.697-4.371,3.58-7.356
			c0.102-0.388,0.205-0.783,0.309-1.183l0.078-0.31l0.039-0.156l0.02-0.078c-0.027,0.091,0.002-0.021-0.002-0.021l0.119-0.641
			l0.117-0.652c0.016-0.083,0.055-0.277,0.049-0.269l0.027-0.165c-0.004,0.031,0.01-0.088,0.016-0.124
			c0.049-0.449,0.098-0.902,0.146-1.362c0.133-1.632,0.201-3.666,0.02-5.485c-0.305-3.948-1.363-7.95-2.945-12.095l-0.156-0.407
			l-0.039-0.103l-0.02-0.05c0.006,0.012-0.039-0.103,0.006,0.016l-0.088-0.201l-0.35-0.807l-0.35-0.813l-0.176-0.408l-0.045-0.103
			l-0.021-0.051c-0.021-0.046,0.096,0.229,0.035,0.088l-0.102-0.198c-0.545-1.06-1.096-2.134-1.65-3.219
			c-0.531-1.132-1.184-2.057-1.777-3.075c-0.631-0.996-1.152-2.029-1.904-3.013c-2.674-4.087-6.08-7.854-9.613-11.566
			c-3.604-3.669-7.664-6.982-11.908-10.014c-4.254-3.032-8.812-5.59-13.426-7.808c-4.646-2.154-9.41-3.802-14.131-4.885
			c-1.188-0.23-2.363-0.458-3.529-0.685c-1.176-0.132-2.34-0.265-3.49-0.396l-0.863-0.101l-0.377-0.046l-0.453-0.019
			c-0.572-0.024-1.145-0.049-1.711-0.073c-0.578,0.003-1.154,0.007-1.729,0.01l-0.365,0.003l-0.438,0.024l-0.822,0.047l-0.803,0.053
			l-0.803,0.082l-0.852,0.102l-0.104,0.013l-0.055,0.007c0.113-0.021,0.002-0.001,0.014-0.004l-0.209,0.033l-0.42,0.066
			c-0.432,0.071-1.129,0.19-1.553,0.282c-0.496,0.11-0.986,0.219-1.475,0.328l-0.734,0.189l-0.775,0.231
			c-0.145,0.034-0.479,0.151-0.707,0.222l-0.098,0.03l-0.047,0.016c-0.068,0.026,0.041-0.019,0.014-0.008l-0.188,0.07l-0.373,0.136
			c-0.947,0.339-1.789,0.71-2.645,1.121c-0.428,0.229-0.852,0.455-1.27,0.678l-0.082,0.045c-0.025,0.016,0.082-0.058,0.02-0.014
			l-0.039,0.024l-0.156,0.098l-0.314,0.197l-0.619,0.388l-0.152,0.097c-0.029,0.018-0.152,0.099-0.105,0.064l-0.145,0.105
			l-0.072,0.054l-0.037,0.026c0.084-0.067,0.002-0.003,0.014-0.012l-0.576,0.425l-0.523,0.388l-0.494,0.399
			c-1.416,1.161-2.438,2.265-3.547,3.585c-2.139,2.508-4.053,4.656-5.621,6.433c-1.559,1.783-2.826,3.15-3.672,4.097
			c-0.857,0.937-1.316,1.436-1.316,1.436s0.363-0.572,1.043-1.645c0.693-1.064,1.684-2.645,3-4.614
			c1.309-1.975,2.883-4.383,4.744-7.102c0.457-0.687,0.934-1.374,1.508-2.13c0.562-0.721,1.227-1.52,1.854-2.15l0.533-0.545
			c0.244-0.24,0.369-0.334,0.562-0.51l0.535-0.475l0.32-0.276l0.334-0.257l0.582-0.443l0.295-0.224l0.146-0.112l0.035-0.028
			l0.098-0.066l0.076-0.052c0.434-0.284,0.869-0.571,1.312-0.862c0.924-0.56,1.934-1.115,2.936-1.576l0.357-0.171l0.18-0.085
			l0.242-0.103c0.27-0.112,0.434-0.192,0.795-0.331l0.752-0.3l0.822-0.295l0.846-0.277l0.197-0.062l0.27-0.078l0.4-0.112
			c0.652-0.179,1.055-0.273,1.729-0.43l0.414-0.094l0.207-0.046l0.273-0.053l0.84-0.156l0.904-0.153l0.922-0.124l0.918-0.114
			l0.438-0.051l0.514-0.041c0.602-0.043,1.209-0.086,1.818-0.129c0.625-0.015,1.252-0.031,1.883-0.045l0.453-0.011l0.527,0.021
			l0.953,0.046c1.273,0.066,2.572,0.113,3.867,0.24c1.285,0.196,2.582,0.394,3.891,0.593l0.984,0.154l0.967,0.228
			c0.648,0.155,1.297,0.309,1.949,0.463c0.652,0.156,1.307,0.313,1.965,0.47c0.65,0.175,1.285,0.4,1.936,0.599
			c1.281,0.428,2.604,0.792,3.881,1.284c1.264,0.519,2.535,1.041,3.812,1.564c5.029,2.257,9.926,4.998,14.492,8.216
			c4.502,3.299,8.787,6.897,12.592,10.87c0.98,0.962,1.85,2.029,2.76,3.042l1.332,1.542c0.428,0.525,0.824,1.077,1.234,1.612
			c0.807,1.083,1.643,2.131,2.402,3.223c0.729,1.117,1.451,2.227,2.168,3.326c0.744,1.064,1.332,2.295,1.98,3.431
			c0.625,1.149,1.299,2.309,1.729,3.421c0.486,1.118,0.965,2.224,1.439,3.317l0.09,0.205l0.08,0.19l0.02,0.052l0.037,0.106
			l0.148,0.418l0.299,0.834l0.295,0.828l0.072,0.207l0.092,0.276l0.131,0.417c0.174,0.574,0.346,1.143,0.518,1.707
			c0.117,0.384,0.154,0.583,0.236,0.882l0.219,0.874l0.201,0.82l0.186,0.873c0.141,0.668,0.193,1.047,0.318,1.74
			c0.15,1.049,0.305,2.24,0.391,3.353c0.055,0.992,0.135,2.252,0.104,3.209c-0.012,2.229-0.205,4.085-0.604,6.105
			c-0.102,0.451-0.203,0.895-0.303,1.335l-0.047,0.207l-0.049,0.161l-0.111,0.378l-0.191,0.633l-0.189,0.624l-0.039,0.135
			l-0.029,0.076l-0.057,0.15l-0.113,0.3c-0.156,0.407-0.312,0.808-0.465,1.203c-0.105,0.275-0.176,0.397-0.266,0.602l-0.277,0.588
			l-0.258,0.533c-0.111,0.242-0.191,0.362-0.287,0.546l-0.303,0.539l-0.285,0.483c-0.227,0.394-0.398,0.61-0.627,0.968
			c-0.826,1.218-1.729,2.251-2.521,3.122c-1.6,1.745-2.898,3.082-3.768,4.009C414.307,163.555,413.838,164.042,413.838,164.042"/>
		<path d="M409.034,170.007c0,0,0.287-0.499,0.826-1.435c0.27-0.467,0.527-1.074,0.865-1.756c0.16-0.347,0.291-0.744,0.457-1.15
			c0.166-0.405,0.342-0.836,0.475-1.31c0.625-1.859,1.107-4.193,1.271-6.878c0.162-2.686-0.08-5.725-0.748-8.947
			c-0.67-3.223-1.793-6.63-3.344-10.08l-0.289-0.649l-0.074-0.163l-0.016-0.041c0.01,0.025-0.053-0.113,0.018,0.046l-0.043-0.082
			l-0.172-0.332c-0.229-0.444-0.457-0.89-0.689-1.339c-0.463-0.899-0.932-1.808-1.404-2.727c-0.516-0.829-1.037-1.667-1.562-2.512
			c-0.523-0.845-1.012-1.708-1.65-2.538c-1.219-1.675-2.389-3.42-3.791-5.033c-0.688-0.816-1.326-1.674-2.059-2.467
			c-0.73-0.794-1.467-1.589-2.205-2.389c-0.371-0.397-0.727-0.81-1.115-1.195l-1.188-1.134c-0.789-0.761-1.582-1.525-2.375-2.289
			l-2.51-2.16c-0.836-0.724-1.668-1.452-2.57-2.098l-2.629-2.025c-0.875-0.677-1.818-1.252-2.723-1.884
			c-1.799-1.28-3.693-2.383-5.561-3.505c-0.92-0.591-1.9-1.046-2.854-1.552c-0.957-0.493-1.895-1.025-2.855-1.483
			c-0.973-0.433-1.938-0.864-2.898-1.29c-0.48-0.215-0.959-0.429-1.438-0.642c-0.486-0.181-0.973-0.361-1.457-0.541
			c-0.969-0.361-1.93-0.72-2.883-1.074c-0.963-0.311-1.932-0.567-2.883-0.86c-1.895-0.642-3.807-0.944-5.654-1.365
			c-0.922-0.241-1.848-0.303-2.756-0.429c-0.914-0.117-1.811-0.233-2.693-0.346c-0.895-0.035-1.773-0.071-2.639-0.105
			c-0.447-0.016-0.891-0.034-1.328-0.051c-0.424,0.003-0.814,0.042-1.221,0.056c-0.807,0.038-1.594,0.075-2.365,0.111
			c-0.775,0.073-1.531,0.229-2.277,0.32c-1.514,0.139-2.859,0.592-4.176,0.908c-0.67,0.133-1.244,0.433-1.84,0.644
			c-0.59,0.226-1.16,0.443-1.707,0.652c-1.045,0.547-2.002,1.048-2.865,1.501c-0.793,0.566-1.514,1.073-2.152,1.509
			c-0.332,0.207-0.598,0.443-0.832,0.669c-0.242,0.22-0.465,0.421-0.66,0.6c-0.805,0.721-1.232,1.105-1.232,1.105
			s0.34-0.465,0.979-1.337c0.164-0.219,0.344-0.463,0.545-0.732c0.195-0.274,0.42-0.567,0.709-0.837
			c0.551-0.567,1.197-1.213,1.938-1.939c0.826-0.622,1.74-1.312,2.736-2.062c0.537-0.313,1.104-0.636,1.697-0.962
			c0.598-0.312,1.191-0.718,1.875-0.958c1.344-0.53,2.76-1.215,4.348-1.588c0.789-0.217,1.592-0.465,2.439-0.646
			c0.863-0.141,1.746-0.284,2.646-0.431c0.451-0.067,0.922-0.156,1.369-0.2c0.439-0.026,0.881-0.053,1.328-0.081
			c0.924-0.055,1.865-0.109,2.82-0.165c0.965,0.036,1.941,0.073,2.938,0.11c0.996,0.053,2.018,0.044,3.025,0.213
			c2.025,0.276,4.135,0.496,6.213,1.03c1.047,0.238,2.113,0.455,3.172,0.739c1.045,0.325,2.1,0.653,3.164,0.984
			c0.533,0.166,1.066,0.334,1.604,0.501c0.523,0.205,1.047,0.411,1.572,0.617c1.049,0.419,2.107,0.842,3.17,1.267
			c1.053,0.451,2.076,0.978,3.123,1.469c1.035,0.516,2.104,0.987,3.1,1.593c2.025,1.156,4.1,2.274,6.025,3.638
			c0.973,0.667,1.986,1.281,2.928,1.996l2.83,2.146c0.953,0.701,1.842,1.485,2.73,2.266l2.668,2.333
			c0.836,0.833,1.672,1.663,2.504,2.491l1.242,1.245c0.404,0.422,0.777,0.874,1.168,1.308c0.77,0.877,1.535,1.751,2.297,2.621
			c0.748,0.88,1.41,1.831,2.109,2.735c0.672,0.928,1.418,1.786,2.008,2.758c0.611,0.952,1.219,1.896,1.822,2.834
			c0.623,0.909,1.141,1.928,1.674,2.908c0.521,0.984,1.043,1.959,1.555,2.923c0.408,0.949,0.812,1.888,1.213,2.817
			c0.201,0.464,0.398,0.925,0.598,1.383l0.146,0.344l0.035,0.086c0.084,0.187,0.031,0.078,0.055,0.133l0.018,0.044l0.062,0.184
			l0.254,0.728c1.377,3.858,2.246,7.673,2.592,11.247c0.355,3.572,0.158,6.893-0.41,9.744c-0.533,2.86-1.484,5.229-2.443,7.048
			c-0.447,0.925-0.973,1.685-1.396,2.352c-0.482,0.64-0.865,1.196-1.217,1.605C409.418,169.578,409.034,170.007,409.034,170.007"/>
		<path d="M175.834,196.831c0,0,0.682-0.87,1.959-2.5c0.655-0.802,1.558-1.719,2.58-2.846c0.543-0.526,1.145-1.073,1.783-1.665
			c0.324-0.29,0.648-0.602,1.001-0.9c0.364-0.284,0.74-0.577,1.124-0.878c3.059-2.429,7.132-5.02,12.234-7.064
			c5.082-2.07,11.142-3.663,17.878-4.375c6.73-0.682,14.112-0.598,21.786,0.455c7.663,1.086,15.657,2.927,23.604,5.76
			c1.979,0.727,3.989,1.42,5.961,2.252c0.991,0.404,1.987,0.81,2.984,1.217c0.984,0.437,1.973,0.877,2.963,1.317
			c1.998,0.849,3.926,1.871,5.91,2.809c1.939,1.018,3.891,2.046,5.812,3.139c7.703,4.387,15.108,9.387,22.226,15.021
			c1.696,1.428,3.39,2.785,5.079,4.282c1.682,1.51,3.406,2.989,5,4.548l2.43,2.31l2.346,2.381c1.586,1.563,3.062,3.224,4.566,4.842
			c1.486,1.637,2.908,3.322,4.332,4.988c1.348,1.732,2.764,3.391,4.025,5.157c0.646,0.871,1.289,1.74,1.932,2.606
			c0.615,0.885,1.227,1.768,1.836,2.648c1.242,1.744,2.355,3.558,3.496,5.331c4.492,7.141,8.035,14.541,10.758,21.786
			c2.695,7.263,4.387,14.448,5.182,21.168c0.77,6.729,0.535,12.992-0.385,18.403c-0.887,5.425-2.529,9.964-4.236,13.478
			c-0.211,0.44-0.414,0.87-0.611,1.287c-0.215,0.41-0.449,0.794-0.662,1.173c-0.439,0.752-0.842,1.459-1.238,2.102
			c-0.875,1.239-1.572,2.316-2.213,3.133c-1.318,1.604-2.021,2.459-2.021,2.459s0.609-0.92,1.75-2.644
			c0.553-0.871,1.133-2.01,1.861-3.303c0.312-0.677,0.646-1.403,1.002-2.179c0.176-0.388,0.373-0.779,0.547-1.195
			c0.158-0.424,0.322-0.86,0.49-1.307c1.371-3.555,2.545-8.059,3.057-13.308c0.506-5.248,0.303-11.227-0.75-17.615
			c-1.133-6.38-3.123-13.146-5.939-20.017c-2.893-6.846-6.602-13.786-11.043-20.578c-4.461-6.785-9.689-13.381-15.451-19.673
			c-1.465-1.549-2.9-3.141-4.443-4.638l-2.283-2.279l-2.361-2.212c-1.562-1.505-3.197-2.878-4.807-4.304
			c-1.616-1.417-3.387-2.803-5.067-4.213c-6.685-5.376-13.905-10.348-21.271-14.614c-7.389-4.265-14.971-7.925-22.561-10.806
			c-7.597-2.858-15.177-4.975-22.489-6.303c-7.32-1.256-14.359-1.732-20.832-1.445c-6.465,0.365-12.345,1.464-17.358,3.1
			c-5.012,1.644-9.154,3.769-12.325,5.882c-0.401,0.26-0.79,0.515-1.168,0.762c-0.37,0.26-0.708,0.538-1.049,0.794
			c-0.679,0.516-1.316,1-1.907,1.451c-1.101,0.992-2.083,1.801-2.817,2.532C176.602,196.035,175.834,196.831,175.834,196.831"/>
		<path fill="#FFFFFF" d="M267.901,378.657c-25.472,0-54.501-11.563-79.647-31.722c-44.554-35.724-62.833-87.2-40.748-114.747
			c8.863-11.052,23.115-16.895,41.214-16.895c25.472,0,54.502,11.56,79.647,31.718c44.557,35.724,62.84,87.199,40.756,114.746
			C300.256,372.812,286.004,378.657,267.901,378.657"/>
		<path fill="none" stroke="#8E1315" stroke-width="5" stroke-linecap="round" stroke-miterlimit="10" d="M267.901,363.657
			c-21.797,0-48.063-10.626-70.267-28.425c-19.41-15.564-34.292-35.483-40.826-54.649c-7.497-21.989-1.715-33.881,2.4-39.013
			c7.474-9.32,20.174-11.277,29.511-11.277c21.797,0,48.065,10.625,70.265,28.422c19.413,15.564,34.298,35.484,40.832,54.65
			c7.499,21.987,1.718,33.878-2.396,39.01C289.941,361.699,277.241,363.657,267.901,363.657z"/>
		<path fill="none" stroke="#D33416" stroke-width="5" stroke-linecap="round" stroke-miterlimit="10" d="M265.066,366.492
			c-21.797,0-48.063-10.626-70.267-28.425c-19.41-15.564-34.292-35.483-40.826-54.649c-7.497-21.989-1.715-33.881,2.4-39.013
			c7.474-9.32,20.174-11.277,29.511-11.277c21.797,0,48.065,10.625,70.265,28.422c19.413,15.564,34.297,35.484,40.832,54.65
			c7.498,21.987,1.717,33.878-2.396,39.01C287.106,364.534,274.407,366.492,265.066,366.492z"/>
		<polygon fill="#8E1315" points="178.211,298.595 180.981,297.474 213.539,288.329 210.77,289.449 		"/>
		<polygon fill="#8E1315" points="235.691,305.62 238.461,304.5 250.459,342.558 247.688,343.678 		"/>
		<polygon fill="#8E1315" points="198.78,251.394 201.549,250.275 219.76,245.156 216.991,246.276 		"/>
		<polygon fill="#8E1315" points="216.991,246.276 219.76,245.156 231.751,283.211 228.98,284.332 		"/>
		<polygon fill="#8E1315" points="261.54,275.18 264.31,274.06 271.051,295.457 268.249,296.476 		"/>
		<polygon fill="#8E1315" points="228.981,284.332 231.751,283.211 264.309,274.06 261.54,275.181 		"/>
		<polygon fill="#D33416" points="216.991,246.276 228.98,284.332 261.54,275.18 268.249,296.476 235.691,305.62 247.688,343.677 
			229.47,348.793 217.479,310.738 184.922,319.882 178.212,298.595 210.769,289.45 198.78,251.394 		"/>
		<path d="M143.604,229.06c0,0,0.166-0.22,0.486-0.646c0.313-0.433,0.798-1.056,1.463-1.854c1.333-1.582,3.379-3.871,6.45-6.287
			c3.059-2.411,7.114-4.999,12.196-7.051c5.059-2.089,11.106-3.668,17.819-4.376c3.356-0.355,6.871-0.511,10.508-0.466
			c3.636,0.055,7.386,0.374,11.213,0.873c7.649,1.037,15.613,2.896,23.545,5.692c7.931,2.782,15.908,6.303,23.583,10.647
			c7.684,4.327,15.129,9.349,22.147,14.902c6.978,5.589,13.55,11.73,19.461,18.282c5.944,6.528,11.112,13.576,15.481,20.77
			c4.396,7.185,7.834,14.622,10.371,21.912c2.561,7.286,4.129,14.465,4.844,21.16c0.355,3.347,0.533,6.573,0.486,9.64
			c-0.053,3.068-0.281,5.97-0.65,8.675c-0.721,5.416-2.109,10.008-3.615,13.605c-1.486,3.614-3.174,6.195-4.387,7.871
			c-0.609,0.837-1.105,1.457-1.459,1.86c-0.346,0.405-0.523,0.615-0.523,0.615s0.154-0.226,0.459-0.666
			c0.307-0.435,0.732-1.101,1.252-1.988c1.041-1.77,2.371-4.485,3.537-8.107c1.162-3.621,2.094-8.164,2.447-13.424
			c0.342-5.26,0.072-11.229-0.969-17.615c-1.061-6.384-2.936-13.171-5.631-20.069c-2.715-6.89-6.314-13.859-10.654-20.674
			c-4.327-6.829-9.555-13.383-15.273-19.662c-5.742-6.269-12.131-12.119-18.912-17.5c-6.742-5.419-13.893-10.326-21.271-14.558
			c-7.383-4.219-14.927-7.9-22.513-10.727c-7.582-2.82-15.133-4.964-22.433-6.237c-7.299-1.25-14.318-1.73-20.77-1.4
			c-6.444,0.362-12.313,1.446-17.304,3.103c-4.993,1.651-9.117,3.774-12.29,5.871c-3.164,2.114-5.444,4.104-6.906,5.547
			c-0.735,0.717-1.284,1.29-1.638,1.688C143.791,228.858,143.604,229.06,143.604,229.06"/>
		<path fill="#FFFFFF" d="M395.598,33.917c0,10.856-8.801,19.657-19.654,19.657c-10.857,0-19.658-8.801-19.658-19.657
			s8.801-19.656,19.658-19.656C386.797,14.262,395.598,23.062,395.598,33.917"/>
	</g>
</g>
</svg>
