<?xml version="1.0" encoding="utf-8"?>
<!-- Generator: Adobe Illustrator 16.0.0, SVG Export Plug-In . SVG Version: 6.00 Build 0)  -->
<!DOCTYPE svg PUBLIC "-//W3C//DTD SVG 1.1//EN" "http://www.w3.org/Graphics/SVG/1.1/DTD/svg11.dtd">
<svg version="1.1" id="Layer_1" xmlns="http://www.w3.org/2000/svg" xmlns:xlink="http://www.w3.org/1999/xlink" x="0px" y="0px"
	 width="209.444px" height="211.116px" viewBox="0 0 209.444 211.116" enable-background="new 0 0 209.444 211.116"
	 xml:space="preserve">
<path fill="#009640" d="M208.51,105.872c-0.048,0.976,0.78,0.625,0.935,0.773C209.219,104.998,208.294,105.917,208.51,105.872"/>
<polygon fill="#009640" points="205.297,90.114 205.684,90.337 204.447,88.179 "/>
<path fill="#009640" d="M203.726,83.494l-0.219,0.494l1.39,0.915c-0.469-1.549-1.06-3.313-1.686-4.932
	c-0.633-1.619-1.145-3.136-1.282-4.277C200.94,77.448,203.691,80.766,203.726,83.494"/>
<path fill="#009640" d="M202.663,68.571c-0.128-0.304-0.292-0.726-0.538-1.458c-0.332,0.673-1.089-1.458,0.532,1.828
	C202.647,68.748,202.661,68.686,202.663,68.571"/>
<path fill="#009640" d="M202.663,68.571C203.29,70.054,202.714,67.424,202.663,68.571"/>
<path fill="#009640" d="M200.806,63.595c0.119-0.536-0.596-2.294-0.089-1.752c-1.15-1.88-1.254-1.319-1.234,0.029L200.806,63.595z"
	/>
<path fill="#009640" d="M198.356,61.403c0.046-0.232-0.023-0.52-0.661-0.884l0.34,0.436
	C198.196,61.179,198.356,61.403,198.356,61.403"/>
<path fill="#009640" d="M198.938,62.299c-0.461,0.007,0.095,0.247,0.771,1.02l-1.353-1.915
	C198.274,61.78,197.867,62.001,198.938,62.299"/>
<path fill="#009640" d="M199.372,65.53c0.859,1.793,1.423,2.487,1.609,2.254c0.16-0.22-0.013-1.396-0.933-3.187
	C200.265,65.79,200.621,67.269,199.372,65.53"/>
<path fill="#009640" d="M201.158,78.125c-0.204-0.283-0.312-1.014-0.419-1.649c-0.118-0.632-0.265-1.159-0.458-1.047
	c0,0,0.021,0.391,0.044,0.782c0.021,0.391,0.016,0.788,0.016,0.788L201.158,78.125z"/>
<path fill="#009640" d="M193.847,51.869c0.269,0.292,0.538,0.584,0.538,0.584c-0.199-0.812-0.874-2.183-0.548-2.515
	c-0.328,0.051-0.304,1.029-0.551,1.363C193.286,51.301,193.577,51.578,193.847,51.869"/>
<path fill="#009640" d="M193.287,51.301l-1.69-1.672C192.657,51.398,193.07,51.587,193.287,51.301"/>
<path fill="#009640" d="M197.411,62.337c0.637,0.744,1.273,1.487,1.273,1.487s-0.715-0.907-1.43-1.813
	c-0.347-0.456-0.738-0.887-1.02-1.214c-0.283-0.326-0.474-0.543-0.474-0.543l0.342,0.634
	C196.104,60.889,196.792,61.59,197.411,62.337"/>
<path fill="#009640" d="M189.484,42.843c0.336,0.168,0.671,0.337,0.671,0.337s-0.559-0.327-1.118-0.655
	c-0.576-0.306-1.153-0.612-1.153-0.612l0.927,0.601C188.811,42.514,189.151,42.674,189.484,42.843"/>
<path fill="#009640" d="M185.006,37.943c1.095,0.375-0.135-1.662,0.824-1.101c-1.153-1.165-2.426-1.903-3.596-2.516
	C183.309,35.132,184.177,36.266,185.006,37.943"/>
<path fill="#009640" d="M180.318,33.265c0.554,0.379,1.207,0.701,1.916,1.061C181.65,33.909,181.033,33.54,180.318,33.265"/>
<path fill="#009640" d="M189.173,44.284l-0.164,1.244c0.156,0.228,0.336,0.487,0.517,0.75
	C189.571,46.027,189.767,45.47,189.173,44.284"/>
<path fill="#009640" d="M189.004,45.57l0.004-0.042c-0.554-0.819-0.938-1.386-1.102-1.63
	C188.044,44.109,188.375,44.612,189.004,45.57"/>
<path fill="#009640" d="M189.655,46.467c-0.048-0.07-0.082-0.121-0.13-0.189C189.508,46.397,189.515,46.457,189.655,46.467"/>
<path fill="#009640" d="M191.779,54.867c0.981,0.534,0.568-1.017,2.198,0.377C192.888,54.305,191.07,52.174,191.779,54.867"/>
<path fill="#009640" d="M189.426,47.99c0,0,0.312,0.523,0.591,1.067l0.574,1.076c0.164-0.162,0.202-0.714,0.763-0.278
	c0,0-0.479-0.471-0.958-0.941c-0.238-0.234-0.478-0.468-0.656-0.643C189.551,48.102,189.426,47.99,189.426,47.99"/>
<polygon fill="#009640" points="188.514,47.174 189.426,47.99 188.964,47.213 "/>
<path fill="#009640" d="M182.588,36.93c-0.488-0.28-0.928-0.632-1.357-1.034c-0.442-0.391-0.891-0.817-1.363-1.272
	c0.865,1.114,1.742,2.27,2.64,3.312C182.836,37.906,183.601,38.052,182.588,36.93"/>
<path fill="#009640" d="M185.759,41.097c-0.057-0.048-0.13-0.11-0.184-0.155C185.608,41.101,185.662,41.207,185.759,41.097"/>
<path fill="#009640" d="M170.507,25.771c0.019,0.087,0.036,0.166,0.056,0.255c0.045-0.029,0.084-0.058,0.132-0.082L170.507,25.771z"
	/>
<path fill="#009640" d="M182.54,38.217c0.562,0.902,1.131,1.24,1.728,1.526c-0.582-0.541-1.17-1.135-1.761-1.808
	C182.357,37.949,182.287,37.989,182.54,38.217"/>
<path fill="#009640" d="M177.493,30.949c0.279,0.506,0.622,1.049,0.969,1.63C178.294,31.99,177.797,30.921,177.493,30.949"/>
<path fill="#009640" d="M185.539,40.513c0.044,0.033,0.085,0.061,0.127,0.101C185.596,40.225,185.552,40.316,185.539,40.513"/>
<path fill="#009640" d="M185.539,40.513c-0.434-0.35-0.859-0.555-1.271-0.77c0.45,0.459,0.889,0.87,1.307,1.198
	C185.541,40.801,185.532,40.64,185.539,40.513"/>
<path fill="#009640" d="M162.275,25.946c0,0,0.155,0.071,0.39,0.178c0.233,0.106,0.545,0.249,0.844,0.41l1.212,0.628
	c-0.1,0.208-1.083-0.105-0.624,0.517c0.311-0.26,1.099-0.125,1.974,0.339c0.437,0.234,0.9,0.541,1.319,0.936
	c0.409,0.405,0.787,0.883,1.081,1.418c2.086,1.023,2.722-1.875,2.092-4.346c-0.283,0.229-0.459,0.423-2.645-0.683
	c0.439,0.816,3.401,4.173,1.424,3.409c-1.301-0.878-1.768-1.31-2.004-1.717c-0.236-0.406-0.251-0.77-0.723-1.407
	C167.021,27.184,162.611,24.324,162.275,25.946"/>
<path fill="#009640" d="M173.765,28.728c0.329,0.322,0.548,0.537,0.548,0.537l-0.327-0.148l0.788,0.615
	c-0.717-0.898-1.12-1.658-1.856-3.112c-1.52-0.805-1.966-0.802-2.223-0.675c0,0,0.91,0.824,1.82,1.649
	C172.97,28.005,173.424,28.418,173.765,28.728"/>
<path fill="#009640" d="M177.989,32.841c-1.134,0.017-3.126-1.311-2.723,0.34c2.082,1.967,1.915,0.929,3.392,1.907
	c-3.382-3.236,1.278,0.644-0.714-2.151c0.744,0.567,1.354,1.141,1.923,1.687c-0.51-0.688-0.983-1.372-1.405-2.045
	c0.015,0.046,0.024,0.078,0.037,0.116l0.018,0.014c-0.005,0.005-0.009,0.003-0.013,0.006c0.063,0.224,0.063,0.318-0.051,0.107
	c-0.02-0.003-0.062-0.042-0.08-0.059c-0.108,0.062-0.243,0.072-0.381,0.075c-0.817-1.114,0.011-0.315,0.381-0.075
	c0.039-0.017,0.095-0.019,0.131-0.048c0.001-0.007-0.002-0.013-0.005-0.02c0,0-0.896-0.783-1.85-1.502
	c-0.938-0.731-1.876-1.462-1.876-1.462C175.405,30.52,176.36,31.329,177.989,32.841"/>
<path fill="#009640" d="M188.942,53.726c-0.013-0.158,0.044-0.186,0.091-0.227C188.785,53.307,188.665,53.252,188.942,53.726"/>
<path fill="#009640" d="M188.817,49.05c0.027-0.073,0.054-0.147,0.084-0.222C188.844,48.784,188.817,48.875,188.817,49.05"/>
<path fill="#009640" d="M189.033,53.499c0.548,0.417,1.732,1.611,1.011-0.347l-0.275-0.211c-0.581-1.34-0.951-3.24-0.951-3.89
	c-0.295,0.795-0.463,1.504-0.444,2.823c0.279,0.214,0.721,0.262,1.229,1.22C189.887,54.019,189.247,53.307,189.033,53.499"/>
<path fill="#009640" d="M182.103,40.837c-0.71-0.658-1.42-1.317-1.42-1.317l0.709,1.957l0.279-0.362
	c1.255,1.786,1.359,1.096,1.807,1.086c0,0-0.169-0.173-0.424-0.432C182.801,41.509,182.465,41.161,182.103,40.837"/>
<path fill="#009640" d="M171.419,24.791c0,0-0.634-0.14-1.294-0.237c-0.651-0.103-1.303-0.207-1.303-0.207l1.615,0.8L171.419,24.791
	z"/>
<path fill="#009640" d="M166.956,21.536c0,0-0.342-0.113-0.692-0.212c-0.349-0.101-0.697-0.202-0.697-0.202l0.765,0.93
	L166.956,21.536z"/>
<path fill="#009640" d="M20.772,155.423l0.718,0.796C21.179,155.825,20.959,155.585,20.772,155.423"/>
<path fill="#009640" d="M17.188,148.692l-0.436,0.005C17.107,148.919,17.315,148.977,17.188,148.692"/>
<path fill="#009640" d="M44.269,17.941l0.918,0.441c0.91-0.769,1.73-1.178,2.475-1.435C45.853,17.228,43.602,17.312,44.269,17.941"
	/>
<path fill="#009640" d="M4.812,86.911c0.111-0.133,0.227-0.272,0.341-0.41c-0.204-0.443-0.396-0.858-0.568-1.231
	C4.657,85.767,4.702,86.321,4.812,86.911"/>
<path fill="#009640" d="M7.23,90.61c0.274-0.423,0.575-1.04,0.912-1.92L7.23,90.61z"/>
<path fill="#009640" d="M51.043,184.809c-1.566-1.052-1.123-0.232-1.496,0.047c0,0,0.372-0.006,0.743-0.012
	C50.667,184.827,51.043,184.809,51.043,184.809"/>
<path fill="#009640" d="M118.142,2.473c-1.396-0.52-2.538-0.808-3.548-0.978C116.293,2.211,117.581,3.129,118.142,2.473"/>
<path fill="#009640" d="M11.213,157.269c0.49,0.536,0.793,0.711,0.951,0.598C11.674,157.312,11.325,157.034,11.213,157.269"/>
<path fill="#009640" d="M114.594,1.495c-1.25-0.531-2.74-0.829-4.21-0.35c0.251,0.106,0.5,0.169,0.756,0.262
	C112.213,1.356,113.303,1.279,114.594,1.495"/>
<path fill="#009640" d="M182.381,160.081c0.094-0.069,0.179-0.171,0.271-0.229C182.57,159.758,182.485,159.883,182.381,160.081"/>
<path fill="#009640" d="M206.334,122.505c0.103-0.342,0.173-0.934,0.183-1.963C206.51,121.018,206.413,121.782,206.334,122.505"/>
<path fill="#009640" d="M148.83,11.025C149.84,11.45,149.032,11.004,148.83,11.025"/>
<path fill="#009640" d="M151.937,16.455c-0.247-0.017-0.457,0.014-0.576,0.179C151.536,16.489,151.731,16.439,151.937,16.455"/>
<path fill="#009640" d="M99.706,6.36c-0.031,0-0.055,0-0.09,0C99.93,6.522,99.875,6.491,99.706,6.36"/>
<path fill="#009640" d="M150.126,12.115c-0.317-0.28-0.697-0.578-1.13-0.864C149.169,11.41,149.509,11.682,150.126,12.115"/>
<path fill="#009640" d="M150.111,11.647c0.321,0.202,0.573,0.36,0.813,0.51C151.113,12.091,151.045,11.954,150.111,11.647"/>
<path fill="#009640" d="M148.83,11.025c-0.296-0.124-0.714-0.298-1.407-0.588c0.575,0.247,1.089,0.524,1.573,0.813
	C148.826,11.108,148.765,11.026,148.83,11.025"/>
<path fill="#009640" d="M116.01,203.648c0.069,0.019,0.148,0.026,0.226,0.053C117.197,203.217,116.762,203.33,116.01,203.648"/>
<path fill="#009640" d="M32.459,41.039c0.026-0.04,0.026-0.073,0.047-0.111c-0.039,0.027-0.088,0.061-0.123,0.086L32.459,41.039z"/>
<path fill="#009640" d="M29.717,40.198c0,0,0.207,0.991,0.414,1.982c0.219,0.976,0.439,1.953,0.439,1.953
	c0.184-1.846,0.833-2.457,1.813-3.119c0,0-0.666-0.208-1.332-0.417L29.717,40.198z"/>
<path fill="#009640" d="M206.016,119.587c0.259-0.729,0.519-1.457,0.712-2.003c0.196-0.549,0.293-0.92,0.293-0.92
	c-0.615-0.613-0.516-2.217-0.415-3.767c0.117-1.548,0.081-3.046-0.522-3.374l0.179,1.901c-0.718-1.291-1.553-0.432-2.486,0.641
	c-0.967,1.077-2.004,2.363-2.944,2.112c0.372,0.7,0.368,1.487,0.186,2.332c-0.207,0.844-0.63,1.742-1.016,2.688
	c-0.738,1.904-1.578,3.93-0.772,6.316c-0.552,0.875-0.462-0.929-0.987-0.504c0.644,1.244,0.472,2.597-0.438,4.93l-0.135-0.32
	c-0.304,1.715-0.803,3.127-1.21,4.442c-0.404,1.319-0.921,2.485-1.453,3.668c-0.526,1.187-1.072,2.388-1.779,3.697
	c-0.683,1.318-1.391,2.794-2.343,4.483l1.102-0.139c-0.806,1.475-1.219,1.669-1.754,2.278c0.507,2.366,2.007-4.243,2.732-2.003
	c-0.673,0.317-1.314,1.146-1.938,2.218c-0.628,1.071-1.339,2.34-1.997,3.611c-0.64,1.281-1.428,2.457-2.117,3.377
	c-0.709,0.91-1.388,1.523-2.068,1.54c-1.388,2.142,1.338-0.055-0.059,2.099l-0.865,0.251l0.289,0.965
	c-1.008,1.365-2.165,1.593-2.593,1.365c0.282-0.295,0.551-1.016,0.766-1.392c-0.915,0.683-1.742,1.946-2.424,3.111
	c-0.597,1.014-1.145,1.903-1.478,2.267c0.164-0.154,0.46-0.435,0.767-0.724c0.451-0.423,0.895-0.855,0.895-0.855
	c-0.961,1.45-2.029,2.952-3.218,4.411c-1.229,1.426-2.445,2.925-3.794,4.294c-0.653,0.704-1.304,1.408-1.95,2.104
	c-0.673,0.672-1.331,1.347-1.967,2.025c-1.244,1.389-2.524,2.655-3.603,4.007l0.68,0.003c-0.838,1.024-1.508,1.651-2.086,2.09
	c-0.572,0.448-1.043,0.723-1.532,0.993c-0.967,0.564-2.051,1.052-4.271,2.854l0.108-0.207c-0.657,1.053-1.845,2.046-3.192,2.854
	c0.93-1.218-2.816,0.599-1.537-0.912c-2.14,1.845-2.695,2.291-2.945,2.771c-0.275,0.448-0.244,0.93-1.527,2.522l-1.116-0.261
	c-0.414,0.588-0.607,0.976-1.008,1.4c-0.404,0.42-0.997,0.916-2.288,1.582c1.884-1.548-2.144-0.271-0.104-2.115
	c-1.533,0.247-2.747,0.686-3.777,1.197c-1.04,0.484-1.912,1-2.695,1.484c-1.554,0.987-2.847,1.636-4.515,0.946
	c-0.969,1.411,0.336,1.27,1.744,0.882c1.414-0.354,2.846-1.108,2.209-0.604c0.723,0.075,0.331,0.643-0.486,1.259
	c-0.827,0.582-2.093,1.174-3.03,1.385c-0.931,0.295-1.914-0.057-3.239-0.371c-0.66-0.148-1.401-0.271-2.261-0.272
	c-0.43-0.001-0.89,0.027-1.385,0.099c-0.501,0.049-1.039,0.134-1.619,0.274c0.466-0.099,0.46-0.256,0.924-0.354
	c-0.934-0.055-1.738,0.313-2.611,0.655c-0.437,0.171-0.888,0.335-1.374,0.435c-0.491,0.078-1.02,0.086-1.596-0.025
	c-0.99,1.436-2.808,0.429-2.911,2.055l4.295-1.138c-1.192,0.421-2.288,1.192-3.637,1.843c-1.348,0.643-2.972,1.042-5.097,0.874
	c0.291-0.359,1.474-0.932,2.282-1.271c-1.259-0.329-2.278,0.64-3.582,0.246c0.108-0.78,1.423-1.02,3.026-1.272
	c0.802-0.123,1.678-0.236,2.505-0.428c0.821-0.227,1.594-0.517,2.191-0.93c-0.688-0.228-1.861,0.309-2.76,0.582
	c-0.898,0.271-1.49,0.371-0.948-0.562c-0.795,1.199-1.983,1.281-3.322,1.318c-1.353-0.021-2.849-0.113-4.415,0.844l0.158-0.964
	c-0.496,0.207-1.534,0.677-2.479,0.674l1.644-1.271c-2.564,1.104-5-0.743-7.457-0.291c2.586,0.059,2.879,0.338,2.796,0.709
	c-0.081,0.379-0.548,0.857,0.568,1.175c-6.475,1.14-3.751-2.352-10.575-2.53c1.082,0.08,3.25,0.864,1.805,1.175
	c-1.356-0.266-3.109-0.859-3.87-1.466c-4.721-0.399,0.595,1.058-1.489,1.383c-1.454-1.323-2.384,0.105-4.553,0.108l0.163-0.95
	c-1.318-0.379-2.08-0.49-2.565-0.464c-0.488,0.039-0.701,0.243-0.899,0.447c-0.392,0.409-0.727,0.814-3.066-0.107l2.355-0.831
	c0,0-0.644-0.061-1.289-0.12c-0.323-0.029-0.646-0.06-0.888-0.082c-0.24-0.034-0.4-0.058-0.4-0.058l0.783-0.925
	c-1.433,0.028-2.352-0.086-3.225-0.318c-0.874-0.233-1.704-0.594-2.935-1.195c0.389,0.851-0.88,1.55-3.219,0.793
	c-1.367-1.109,1.174-0.51-2.083-1.637c0.955-0.295,1.967-0.635,3.085,0.653c0.25-0.247,0.922-0.329,1.169-0.571
	c-1.463-1.135-4.077-1.68-5.233-2.112c0.426,0.206,0.932,0.461,1.151,0.696c0,0-1.274-0.148-2.549-0.295
	c-1.268-0.208-2.536-0.415-2.536-0.415c-0.565-0.653,0.126-0.66,0.8-0.668c-0.948-0.332-1.792-0.169-3.149-0.771
	c0.687-0.535,0.95-1.267,2.984-0.766c0,0-0.288-0.07-0.72-0.177c-0.433-0.104-1.013-0.24-1.575-0.42l-2.278-0.68
	c-0.131-0.437-1.684-1.928-1.008-1.903c-0.997-0.847-2.55-1.283-4.194-1.833c-1.595-0.617-3.346-1.258-4.575-2.505
	c-0.232,0.021-0.607-0.066-1.27-0.401c-0.635-0.507-1.222-1.037-1.802-1.569c-0.562-0.558-1.109-1.127-1.698-1.669
	c-0.585-0.547-1.219-1.06-1.918-1.557c-0.684-0.517-1.452-0.995-2.355-1.422l-0.355-1.236c-0.182-0.607-0.326-1.244-0.326-1.244
	c-2.384-1.835,0.942,3.347-3.061,0.26c-2.903-2.156-0.13-1.768-0.727-2.926c-0.855-0.385-2.075-0.885-3.27-1.693
	c-1.18-0.816-2.261-2.011-2.903-3.605c0.912,0.646,1.308,1.421,2.047,2.117l-1.033-2.383c2.918,1.422,3.97,3.278,3.289,0.837
	c-0.562,0.39-1.244,0.146-1.991-0.418c-0.743-0.566-1.576-1.426-2.319-2.358c-0.764-0.917-1.528-1.832-2.253-2.437
	c-0.689-0.63-1.349-0.946-1.95-0.621l-0.484-1.666c0.25,0.397,0.424,0.366,0.67,0.759c-0.775-3.31-2.974-0.822-4.918-4.541
	c-0.585-1.345-0.714-2.429,0.042-1.737l-2.183-2.449c-0.345-0.708-0.033-0.827,0.322-0.358c-0.058-0.095-0.124-0.199-0.202-0.323
	c-0.227-0.399-0.529-0.932-0.832-1.462c-0.606-1.065-1.213-2.13-1.213-2.13l0.088-0.002c-0.71-0.428-1.932-1.617-2.521-2.216
	c-0.164-1.305,0.521,0.458,0.698,0.024c0,0-0.432-0.556-0.864-1.112c-0.218-0.279-0.435-0.56-0.597-0.77
	c-0.154-0.215-0.256-0.358-0.256-0.358c0.12-0.657,0.544-0.517,1.017,0c0.5,0.506,1.058,1.384,1.398,2.259
	c0.715-1.713,0.331-2.131-0.33-2.854c-0.615-0.732-1.539-1.777-1.762-4.587c0,0,0.072,0.143,0.18,0.356
	c0.118,0.209,0.275,0.489,0.432,0.769c0.313,0.557,0.626,1.115,0.626,1.115c0.431-1.044,0.293-1.94,0.129-2.988
	c-0.169-1.044-0.456-2.208-0.449-3.679c-0.275,0.74-0.47,6.166-2.04,3.632c-0.066-0.857-0.339-1.904-1.345-3.255
	c0.918-0.302,0.274-1.709-0.308-3.554l1.272-0.206c-0.927-1.885-1.444-1.591-2.305-2.649c-0.404-2.307,0.451-2.971,1.19-3.665
	c-0.445-3.663-1.111,2.824-2.119-1.458c-0.016-0.785-0.084-1.499-0.2-2.188c-0.089-0.691-0.209-1.359-0.381-2.041
	c-0.334-1.363-0.881-2.785-1.369-4.626c0.273-2.214,0.809,0.319,1.114-0.49l-1.165-1.856c-0.012-0.475,0.313-0.339,0.477-0.27
	c-0.481-1.61-1.292-0.062-1.716-2.646c-0.699-0.33-0.262-1.693,0.248-3.332c0.552-1.645,1.008-3.555,0.329-5.195
	c0.422-0.762,0.753,0.425,1.266,0.213c-0.358-2.195-0.477-3.153-0.649-4.013c-0.162-0.862-0.324-1.62-0.803-3.517
	c0,0,0.305-0.739,0.61-1.477c0.313-0.734,0.671-1.453,0.671-1.453c-1.348,2.079-1.962-0.936-2.418-3.7
	c-0.6,0.723-1.124,1.351-1.399,1.788c0,0,0.016-1.069,0.033-2.137c-0.004-0.539,0.056-1.066,0.075-1.468
	c0.026-0.4,0.044-0.667,0.044-0.667c0.32-0.453,0.651,0.062,1.02,0.843c-0.04-0.3-0.08-0.587-0.127-0.814
	c0.799-1.358,1.34-0.422,1.801,0.757c-0.372,0.434-0.744,0.867-1.105,1.288c0.58,1.166,1.261,2.249,2.035,2.179
	c-0.099-0.286-0.135-0.81-0.106-1.375c0.161,0.3,0.316,0.5,0.462,0.406c0.165-0.108-0.066-0.582-0.225-1.294l1.601-0.594
	l-0.504-0.338c0,0,0.513-1.229,1.025-2.458c0.24-0.616,0.556-1.209,0.763-1.66c0.214-0.449,0.357-0.748,0.357-0.748
	c-0.089-0.994-0.231-1.984-0.36-3.002c-0.091-1.005-0.18-2.044-0.217-3.152c-0.047-1.111-0.029-2.287,0.163-3.542
	c0.189-1.255,0.411-2.643,0.92-4.108c0.331,1.806,1.436,0.968,2.539,1.537c-0.943,0.487-1.217,1.649-1.469,2.998
	c-0.119,0.674-0.247,1.396-0.379,2.141c-0.127,0.745-0.31,1.494-0.621,2.207c0.649-1.489,1.09-0.953,1.155-0.5
	c0,0,0.04-0.35,0.098-0.874c0.049-0.528,0.146-1.224,0.269-1.914c0.23-1.395,0.459-2.791,0.459-2.791
	c0.885,0.499,1.121-0.805,2.118-1.932c-1.14,0.09-1.021-0.98-0.566-2.379c0.422-1.413,1.364-3.044,1.587-4.209
	c0.658,0.189,1.021,0.989-0.372,3.351c1.366-1.012,1.278-2.129,1.179-3.289c-0.122-1.163-0.174-2.323,1.129-3.309
	c-0.323,0.594-0.596,0.86-0.431,1.258c0.132-0.829,0.786-2.029,1.409-2.878c0.631-0.847,1.279-1.308,1.276-0.778l-0.35,0.571
	c0.653-0.907,1.437-2.072,2.229-3.336c0.816-1.247,1.709-2.547,2.451-3.815c1.574-2.466,2.731-4.699,2.311-5.495
	c0.194,0.107,1.189,1.755,1.3,2.186c0,0,0.022-0.617,0.108-1.521c0.088-0.921,0.206-2.149,0.323-3.378
	c0.116-1.256,0.309-2.477,0.455-3.407c0.15-0.936,0.25-1.559,0.25-1.559c0.572,1.517,4.927,1.994,2.982,5.228
	c0.899-0.606,1.907-1.424,3.152-3.323c-0.665,0.336-2.795-0.24-2.171-1.035c3.136-0.716,1.974-0.734,5.382-1.957
	c-1.029,0.475-1.653-2.012-0.272-3.113c0.019,0.438,1.581,1.622,1.266,2.211c0,0,0.442-1.127,0.884-2.254
	c0.463-1.12,0.978-2.218,0.978-2.218c-0.599,0.985,1.048,1.6,2.178,1.52c-0.308-0.037,0.419-0.595,1.315-1.253
	c0.913-0.636,2.027-1.324,2.419-1.748l-1.772,0.62c2.065-1.24,2.547-2.62,3.126-3.927c0.57-1.308,1.103-2.749,3.264-3.936
	c-0.288,0.702,0.226,3.168,2.468,2.206c0.201-0.758,0.556-2.629,1.411-4.586c0.859-1.934,2.13-4.16,4.02-5.449l1.055,0.245
	l1.414-1.05c0.352-0.271,0.72-0.509,0.993-0.694c0.274-0.183,0.457-0.306,0.457-0.306c-0.69,1.162-1.995,3.271-3.367,5.315
	c-1.368,2.068-2.719,4.246-3.748,5.563c1.833-0.371,0.809,0.454,3.152-0.817c1.109,0.124-0.862,1.494-1.533,1.877l2.821-1.221
	c0.696-0.32,1.423-0.571,1.96-0.777c0.538-0.202,0.897-0.337,0.897-0.337c-0.403-0.555,0.53-1.347,1.494-2.124
	c0.982-0.729,2.001-1.424,1.684-1.904c0,0-0.364,0.237-0.908,0.592c-0.549,0.343-1.264,0.829-1.959,1.351l-2.78,2.021
	c-0.416-0.549,0.056-1.808,1.197-3.155c0.575-0.661,1.294-1.391,2.175-1.971c0.88-0.582,1.885-1.097,2.964-1.459
	c1.254,0.081,0.048,2.554,0.308,2.933c0.188-0.307,1.07-0.944,2.013-1.378c0.937-0.445,1.891-0.793,2.136-0.702l-1.544,1.281
	c1.244-0.153,2.044-0.895,2.953-1.571c0.908-0.664,1.952-1.188,3.548-0.985c1.01-0.233,3.365,0.915,3.346,0.111
	c-1.954-1.125-3.526-5.631-2.641-7.018c0.199,0.007,1.685,0.039,3.268,0.135c1.58,0.066,3.289,0.376,3.95,0.62
	c1.906,0.881-2.045,3.278-0.403,4.034c-0.008-0.372,0.835-0.983,1.199-1.196c1.122,0.118-0.247,1.201,2.033,0.623
	c0.184-1.406,4.772-0.491,0.937-1.284c1.124-0.339,1.748-0.348,2.422-0.321c0.676,0.03,1.398,0.063,2.753-0.05
	c-0.471-0.405,0.066-1.198,1.039-1.962c0.971-0.749,2.379-1.538,3.574-1.731c-0.127,0.35,0.428,0.788,0.692,0.986
	c1.216,0.001,2.29,0.035,3.287,0.086c0.997,0.084,1.917,0.209,2.824,0.314c0.905,0.103,1.8,0.205,2.748,0.313
	c0.946,0.134,1.945,0.251,3.066,0.34c0.391,0.352,2.497,0.935,1.524,1.434c0.656-0.165,1.293-0.546,2.667-0.405
	c2.481,1.503-3.058-0.204-1.219,1.457c0.254-0.745,3.646-0.701,5.655-0.778c-0.193-0.64-1.305-0.95-2.63-0.957
	c-1.325-0.01-2.837,0.171-3.835,0.293c0.084-0.839,1.024-1.59,2.582-2.149c0.776-0.27,1.712-0.53,2.755-0.661
	c1.041-0.121,2.199-0.175,3.432-0.153c1.947,0.116,2.289,0.54,2.248,0.816c-0.044,0.293-0.476,0.519-0.127,0.476
	c1.737,0.476,3.019,0.621,4.062,0.613c1.03,0.037,1.826-0.089,2.583-0.198c1.508-0.22,2.892-0.386,5.571,1.198
	c1.919,1.785-0.604,2.054-0.354,2.958c-1.529-0.297-2.587-0.853-3.537-1.377c-0.957-0.497-1.79-1.006-2.809-1.272l2.344,1.194
	c-1.051,0.072-3.091-0.224-4.088-0.832c0.411,0.368,1.33,0.767,2.556,1.195c0.612,0.215,1.303,0.431,2.042,0.667
	c0.731,0.26,1.511,0.537,2.317,0.823c0.805,0.288,1.644,0.562,2.468,0.882c0.813,0.346,1.631,0.694,2.428,1.032
	c1.598,0.667,3.041,1.468,4.183,2.232c1.024,0.067,2.714,0.422,2.178-0.295l-1.644-0.578c-1.105-1.452,3.502,0.267,1.655-1.012
	c1.218,0.185,2.487,0.455,3.844,0.846c0.675,0.204,1.363,0.45,2.055,0.774c0.674,0.352,1.351,0.778,2.018,1.303l-0.07,1.374
	c0.122-0.342-1.524-1.724-2.521-1.856c0.736,0.101,1.644,1.107,2.617,1.991c0.485,0.445,0.994,0.853,1.506,1.128
	c0.503,0.289,1.021,0.427,1.555,0.293c0,0-0.38-0.496-0.76-0.992c-0.188-0.252-0.384-0.495-0.536-0.669
	c-0.149-0.178-0.25-0.297-0.25-0.297c1.201,0.32,2.561,0.681,3.963,1.141c1.407,0.45,2.77,1.139,3.883,2.178
	c-0.43-1.786-0.632-0.292-1.606-2.698c0.603,2.466-6.517-4.248-4.959-1.067c-0.517-1.259-1.268-1.883-2.098-2.53
	c-0.835-0.644-1.742-1.323-2.726-2.589c-0.108,0.4,0.556,1.155-1.629-0.188c-0.156,0.053-0.466,0.063-0.659,0.063
	c-0.062-0.048-0.086-0.065-0.14-0.106c0.038,0.039,0.065,0.068,0.104,0.107c-0.125,0.004-0.14,0.011,0.04,0.038
	c0.461,0.435,0.801,0.848,0.874,1.139c-0.776,0.135-2.034-0.291-3.305-0.702c-1.279-0.394-2.541-0.84-3.25-0.896
	c-1.278-0.789,0.753-0.17,0.185-0.9l-1.063-0.086c-0.537-0.021-1.075-0.042-1.075-0.042c0.171-0.899-3.165-2.852,0.345-2.033
	l-2.977-1.216c-1.601-1.12-4.037-2.146-5.683-2.274c-1.414-0.606-3.961-0.092-2.5-0.408c0,0-1.248-0.205-2.497-0.409
	c-1.258-0.148-2.514-0.295-2.514-0.295l0.005-0.23c-2.396-0.666-4.997-0.685-7.606-0.976c-2.64-0.146-5.298-0.559-8.068-1.525
	c-0.842,0.052-1.695,0.106-2.684,0.109c-0.99,0.04-2.114,0.017-3.505-0.146l-0.534-0.79c-1.078,0.079-2.693-0.051-4.164-0.145
	c-1.47-0.087-2.792-0.126-3.23,0.336c-0.609-0.479-1.578-0.697-2.746-0.754c-0.584-0.029-1.218-0.018-1.881,0.02
	c-0.662,0.053-1.35,0.164-2.048,0.274c-1.395,0.242-2.835,0.484-4.146,0.788c-1.313,0.303-2.515,0.551-3.473,0.629l0.052,1.021
	c-1.295,0.172-2.516,0.58-3.812,0.977c-0.646,0.209-1.307,0.436-1.995,0.681c-0.684,0.262-1.388,0.572-2.135,0.886l0.43,0.811
	c-1.22,0.741-2.969,1.013-4.898,1.453c-0.97,0.201-1.997,0.401-3.04,0.645c-1.031,0.274-2.067,0.622-3.077,1.041
	c0.149-0.428,1.219-0.754,2.022-0.846c-1.394,0.004-2.715,0.352-3.973,0.871c-1.243,0.555-2.405,1.32-3.544,2.07
	c-1.15,0.73-2.213,1.582-3.321,2.24c-1.105,0.667-2.246,1.166-3.441,1.455c-0.864,0.872-1.654,1.198-2.488,1.418
	c0.094-0.056,0.171-0.12,0.23-0.186c-0.111,0.051-0.267,0.139-0.426,0.232c-0.536,0.12-1.085,0.255-1.651,0.451
	c0.535-0.08,1.022-0.191,1.427-0.318c-0.779,0.472-1.871,1.337-2.889,2.247l-1.013-0.494c-0.088,0.068-0.158,0.122-0.25,0.193
	c-1.325,0.428-0.645,0.956,0.351,1.177c-0.49,0.487-0.875,1.023-1.137,1.486c-0.878-0.329-1.528,0.293-2.217,0.928
	c-0.697,0.627-1.417,1.288-2.49,1.095c-0.113,0.603-1.353,1.77-2.493,3.004c-0.931,1.098-1.778,2.241-1.827,3.092
	c-1.254,0.796-2.437,1.695-3.063,2.948l-1.306-0.446c0,0-0.3,0.855-0.6,1.71l-0.531,1.745c-1.883,0.894-2.785,1.212-2.103-0.869
	c-0.561,1.116-0.983,1.862-1.318,2.432c-0.319,0.584-0.568,0.975-0.803,1.35c-0.463,0.75-0.899,1.423-1.628,3.411l-0.491-0.657
	c-0.872,1.157-1.444,3.6-2.495,3.881c-0.781,0.414-1.743,1.443-2.868,2.824c-1.146,1.367-2.262,3.215-3.545,5.139
	c-2.4,3.962-4.861,8.59-7.134,12.152c1.406-0.265,0.751,0.498-0.018,1.483c-0.744,0.995-1.646,2.213-0.864,2.691
	c-0.69,0.248-1.411,1.229-1.361-0.206c-0.569,2.074-1.205,3.549-1.784,4.881c-0.577,1.329-0.89,2.584-0.558,4.209
	c-0.667,0.321-0.528-1.104-0.962-0.775c0.02,0.366,0.09,1.443-0.35,1.786c-0.436,0.337-0.274-0.727-0.319-1.452
	c-0.279,1.07-0.394,1.926-0.383,2.617c0.04,0.698,0.196,1.229,0.426,1.643c0.461,0.828,1.222,1.196,1.964,1.528
	c-0.612,0.972-0.956,1.737-1.058,2.472c-0.069,0.742,0.096,1.453,0.474,2.315c-0.645,0.644-1.408,1.809-1.12-0.865
	c-0.09,0.367-0.272,1.112-0.496,2.024c-0.105,0.459-0.221,0.959-0.34,1.475c-0.091,0.521-0.174,1.06-0.248,1.59
	c-0.29,2.12-0.402,4.09,0.261,4.228c-0.359,0.439-0.254,2.086-0.137,2.489c-0.175,1.675-0.281,2.586-0.31,3.494
	c-0.047,0.907-0.068,1.809-0.049,3.462l0.232-0.913c1.478,1.313,0.339,2.727,0.59,5.381l-0.16-0.07
	c-0.262,1.531-0.267,2.463-0.246,3.09c0.026,0.626,0.112,0.948,0.193,1.267c0.082,0.318,0.158,0.634,0.163,1.252
	c-0.009,0.619-0.052,1.535-0.163,3.069l0.911-0.438c1.06,0.158,0.922,1.487,0.676,3.229c-0.187,1.728-0.423,3.881,0.276,5.522
	l0.312-1.342c0.487,0.868,0.11,2.285-0.39,3.777c-0.492,1.486-1.131,3.058-0.961,4.028c-0.051,0.457-0.475-0.572-0.742-1.122
	c0.205,5.283,1.39,0.326,2.701,3.893c-0.441,0.87-1.932-0.373-1.28,2.137c-0.052,0.694,1.064,2.316,2.197,4.182
	c0.607,0.92,1.215,1.904,1.676,2.891c0.23,0.494,0.424,0.989,0.564,1.479c0.155,0.482,0.265,0.957,0.295,1.422
	c0.16-0.916,0.331-1.804,1.41-0.367c0.657,1.172,0.884,3.062,1.459,4.781c0.549,1.726,1.204,3.395,2.559,4.031
	c0.046,0.364-0.009,0.545-0.115,0.621c0.715,0.78,1.65,2.173,2.703,3.36c1.043,1.194,2.076,2.26,2.777,2.526
	c-0.452,0.866-0.086,1.873,0.609,2.956c0.705,1.078,1.747,2.222,2.85,3.227c1.09,1.018,2.103,2.001,2.768,2.793
	c0.661,0.795,0.897,1.472,0.312,1.962c0,0,0.267,0.293,0.667,0.732c0.407,0.432,0.92,1.036,1.483,1.593
	c1.121,1.118,2.243,2.235,2.243,2.235l-0.338,0.097c1.304,1.563,2.447,2.364,3.356,2.916c0.93,0.532,1.678,0.769,2.455,0.959
	c0.561,0.762-0.141,0.532-0.307,0.6c2.025,2.154,3.161,3.346,4.456,4.135c1.285,0.797,2.584,1.397,5.046,2.17l-0.161,1.103
	c0.71,0.156,2.201,1.722,4.325,3.41c0.525,0.429,1.081,0.878,1.669,1.317c0.603,0.414,1.233,0.826,1.884,1.216
	c1.299,0.785,2.676,1.489,4.114,1.869c-0.102,0.074-0.298,0.189-0.775,0.102c3.159,1.012,6.379,3.3,9.425,4.922
	c3.015,1.664,5.803,2.626,7.482,1.294c0,0,1.077,0.157,2.175,0.216c1.086,0.076,2.173,0.154,2.173,0.154
	c-5.196-1.768,1.215-1.282-0.779-2.474c1.047,0.187,2.289,0.823,2.962,1.348c0.681,0.491,0.775,0.919-0.522,0.669l-0.35-0.287
	c-1.445,1.646,6.455,2.253,6.066,3.41c5.36,1.036,10.697,1.82,16.003,2.33c5.308,0.519,10.589,0.508,15.731,0.044
	c0,0-0.333-0.326-0.665-0.652c-0.331-0.32-0.659-0.673-0.659-0.673s0.222-0.003,0.553-0.037c0.332-0.034,0.773-0.079,1.215-0.125
	c0.885-0.092,1.769-0.183,1.769-0.183c0.97,0.222,1.409,0.975-1.145,1.238c1.453,0.662,4.168-1.235,4.165-1.602
	c5.019-0.293-1.644,2.026-0.138,1.793l2.053-0.477l-0.496-0.085c0.786-0.444,1.184-0.828,1.763-1.159
	c0.583-0.317,1.339-0.615,2.835-0.936c1.953-0.15,1.175,0.654,1.936,0.537c0.02,0.102,0.285,0.09,1.159-0.226
	c0,0,0.281-0.048,0.691-0.159c0.413-0.104,0.963-0.244,1.514-0.384c1.101-0.281,2.202-0.561,2.202-0.561l-2.062-0.615
	c1.764-1.077,4.063-1.117,1.706-1.782c1.727,0.522,5.791-0.596,9.528-2.14c1.881-0.74,3.646-1.657,5.107-2.297
	c1.438-0.69,2.515-1.234,3.007-1.3c0.524-0.507,1.067-0.962,1.637-1.384c0.557-0.441,1.132-0.864,1.742-1.265
	c1.214-0.806,2.573-1.514,4.011-2.413c-0.841,0.252-1.937-0.586,0.573-2.006c0.271,1.394,1.589,0.969,3.147,0.099
	c1.55-0.883,3.443-2.023,4.947-2.034c-1.229,0.152,0.38-1.21,1.814-2.523c1.435-1.323,2.599-2.693,0.771-2.286
	c1.982-1.43,0.759,0.668,2.582-0.077c0.958-1.136,2.006-2.263,3.165-3.364c1.182-1.077,2.409-2.195,3.668-3.344
	c0.628-0.577,1.291-1.14,1.918-1.75c0.615-0.623,1.237-1.252,1.863-1.885c1.264-1.262,2.4-2.675,3.456-4.162
	c-0.21-0.3-1.38,0.317-0.84-1.217c0,0,0.233-0.12,0.585-0.301c0.356-0.178,0.816-0.428,1.267-0.69
	c0.913-0.525,1.826-1.051,1.826-1.051c0.348-0.638,0.124-1.199,0.125-1.776c0.011-0.574,0.226-1.171,1.433-1.94
	c-0.447,0.148-1.113,0.362-0.693-0.501c4.582-5.446,7.65-12.14,10.111-18.94c2.48-6.839,4.392-13.765,7.139-20.678
	c-1.019,1.827-0.854,0.52-0.618-0.953c-0.33,0.932-0.855-0.155-1.359-0.038c0,0,0.137-0.356,0.329-0.896
	C205.499,121.03,205.757,120.308,206.016,119.587 M137.476,7.239c-0.037,0.004-0.062,0.007-0.095,0.017
	C135.824,6.333,136.372,6.674,137.476,7.239 M35.123,29.367c-0.007,0.145,0.002,0.284,0.045,0.41
	C34.993,29.644,34.645,29.805,35.123,29.367 M7.888,81.777c0.159,0.612-0.164,1.403-0.743,2.258
	C7.23,83.336,7.425,82.564,7.888,81.777 M12.419,138.363c0.212,0.31,0.579,0.753,0.849,1.202c0.293,0.442,0.486,0.893,0.318,1.239
	C12.242,140.433,12.499,139.64,12.419,138.363 M128.161,207.973l-0.75-0.085C128.9,207.258,128.525,207.602,128.161,207.973"/>
<path fill="#009640" d="M178.479,165.459c-0.076,0.071-0.132,0.125-0.132,0.125C178.387,165.554,178.431,165.512,178.479,165.459"/>
<path fill="#009640" d="M18.911,152.615c0.124,0.198,0.204,0.324,0.204,0.324C19.048,152.807,18.979,152.704,18.911,152.615"/>
<path fill="#009640" d="M93.359,200.947c-0.079-0.007-0.153-0.01-0.218-0.008C93.217,200.94,93.286,200.944,93.359,200.947"/>
<path fill="#009640" d="M7.759,88.467c-0.197,0.174-0.384,0.197-0.57,0.212C7.297,88.995,7.481,89.033,7.759,88.467"/>
<path fill="#009640" d="M49.271,184.859c0.026,0.029,0.058,0.047,0.085,0.075c0.083-0.012,0.144-0.042,0.191-0.078L49.271,184.859z"
	/>
<path fill="#009640" d="M86.467,11.549c-0.707-0.016-1.122-0.122-1.41-0.255C85.063,11.533,85.413,11.673,86.467,11.549"/>
<path fill="#009640" d="M158.784,15.98c0.021,0.011,0.048,0.024,0.066,0.034C158.83,16.005,158.803,15.988,158.784,15.98"/>
<path fill="#009640" d="M158.491,16.442c0.064-0.192-0.088-0.613,0.293-0.461c-0.202-0.103-0.524-0.264-0.874-0.412
	c-0.547-0.243-1.093-0.485-1.093-0.485C157.835,15.619,158.09,15.992,158.491,16.442"/>
<path fill="#009640" d="M158.851,16.015c0.043,0.021,0.083,0.039,0.137,0.072C158.987,16.086,158.931,16.057,158.851,16.015"/>
<path fill="#009640" d="M171.344,32.954c0.318,0.14,0.514,0.471,0.829,0.607l0.243-0.388
	C171.376,32.222,170.426,31.815,171.344,32.954"/>
<path fill="#009640" d="M159.102,19.967c-0.3,0.801,1.103,1.279,2.483,2.117c-0.081-0.054-0.159-0.101-0.232-0.165
	C162.393,21.254,160.765,20.555,159.102,19.967"/>
<path fill="#009640" d="M161.905,22.278c0.427,0.257,0.853,0.532,1.226,0.847C163.552,22.864,162.692,22.696,161.905,22.278"/>
<path fill="#009640" d="M145.287,10.153c0.628,0.512,0.868-0.746,1.14-0.261c0.614-0.29-0.717-0.548-1.669-0.567
	c-0.473-0.016-0.863,0.055-0.868,0.183C143.887,9.631,144.259,9.833,145.287,10.153"/>
<polygon fill="#009640" points="157.61,21.957 158.724,22.9 158.798,21.758 "/>
<path fill="#009640" d="M148.292,16.023l2.126,1.401c0.045-0.166,0.378-0.107,0.766,0.007
	C149.81,16.69,148.371,15.73,148.292,16.023"/>
<path fill="#009640" d="M153.042,18.292c-0.391-0.205-1.221-0.668-1.858-0.861C151.894,17.83,152.565,18.214,153.042,18.292"/>
<path fill="#009640" d="M155.15,20.725l-1.502-0.949c0,0,0.51,0.375,1.021,0.75c0.516,0.363,1,0.774,1,0.774L155.15,20.725z"/>
<path fill="#009640" d="M122.604,7.094l-2.776-0.204c-0.332,0.29,0.371,0.628,1.403,0.673
	C121.923,7.444,122.958,7.495,122.604,7.094"/>
<path fill="#009640" d="M129.063,10.623l-0.4,1.177l1.348-0.118C129.364,11.283,129.376,11.054,129.063,10.623"/>
<path fill="#009640" d="M121.653,10.931c0.329-0.307,3.025-0.06,0.658-0.808C121.974,10.413,118.313,10.414,121.653,10.931"/>
<polygon fill="#009640" points="81.737,9 82.411,8.828 81.891,6.857 "/>
<path fill="#009640" d="M51.144,27.05c2.857-1.244-0.064-1.469,2.631-2.439c0.367-0.81-2.207,0.795-1.791,0.046
	C50.665,26.107,49.686,26.392,51.144,27.05"/>
<path fill="#009640" d="M51.984,24.657c0.212-0.232,0.431-0.488,0.65-0.785C52.239,24.277,52.073,24.499,51.984,24.657"/>
<path fill="#009640" d="M208.375,112.686c0,0,0.162-0.539,0.271-1.085c0.121-0.546,0.241-1.092,0.241-1.092l-0.721,1.389
	L208.375,112.686z"/>
<path fill="#009640" d="M208.314,107.959l-1.144-1.314c0.046,0.488,0.135,1.441-0.168,1.808L208.314,107.959z"/>
<path fill="#009640" d="M12.977,134.021l0.282-1.675l-0.341-0.058C12.676,132.672,12.777,133.121,12.977,134.021"/>
<polygon fill="#009640" points="23.162,156.886 22.937,156.484 22.409,157.837 "/>
<path fill="#009640" d="M36.124,171.275c0.121,0.144,0.262,0.279,0.405,0.415C36.409,171.549,36.277,171.408,36.124,171.275"/>
<path fill="#009640" d="M38.256,173.194c-0.501-0.508-1.174-0.983-1.727-1.504C37.573,172.912,37.505,174.277,38.256,173.194"/>
<path fill="#009640" d="M117.533,137.426c-0.34-0.203-0.677-0.48-0.959-0.938c0.588,1.437,0.104,1.916-0.005,2.74L117.533,137.426z"
	/>
<path fill="#009640" d="M109.093,153.206l0.408-0.763c-0.115-0.062-0.234-0.091-0.353-0.056
	C108.981,152.581,109,152.817,109.093,153.206"/>
<path fill="#009640" d="M163.702,51.107l-12.056-6.449c0.42,0.488,0.808,0.995,1.033,1.491c-0.62-0.144-1.961-0.759-1.592,0.512
	l0.393,0.373c-1.057,1.521-2.479-2.001-3.402-4.284l-7.772-4.157l-28.062,52.464c0.616,0.136,1.509,0.335,2.034,0.178
	c2.22,1.693,1.511,5.349,4.569,6.957c-1.914,0.432-1.685-1.864-4.091-2.138c1.932-1.284-2.42-2.902-2.556-4.916l-11.398,21.309
	c1.588,1.514,3.208,3.146,3.96,4.794c1.159-0.022,2.668-0.846,3.725,0.867c-1.546-0.356-2.528,0.296-2.794,1.413
	c1.686,1.871,2.173,0.507,2.841-0.224c-0.578,1.046,1.253,2.366,0.757,3.706c0.627,0.153,1.645,0.68,0.753-0.407
	c2.661,3.274,6.051,7.022,5.991,9.941l-2.077-2.251c0,0-0.232,0.232-0.136,0.556c-2.53-3.832-4.752-5.529-8.139-9.269
	c-0.263,1.116,0.714,2.516-0.493,3.406c-2.207-1.687-2.032-5.171-3.854-6.494c-0.527,0.17-0.58,1.043,0.222,1.817
	c-0.702-0.367-2.639-1.721-3.353-3l-7.665,14.33L66.968,94.298l-19.176,12.108c1.42,1.561,3.369,3.814,3.425,5.288
	c-0.571-0.132-2.92-2.251-5.086-4.239l-1.598,1.009l2.829,4.481c1.594,1.441,3.415,2.89,4.882,3.405
	c-1.293,0.576,2.879,3.024,0.44,3.635c3.503,3.176,0.302-1.989,3.279-0.698l3.071,3.659c-0.089-0.312,0.086-1.741,0.135-0.553
	c0.531,1.889,2.839,1.838,3.598,3.488l-1.43,1.134c2.355,1.149,5.514,1.006,7.561,4.145c-0.182,1.419,3.372,3.731,2.174,4.621
	c-1.69-3.93-7.341-4.367-8.711-8.229c-0.264,1.124,0.849,1.965,0.267,3.003l-2.803-0.661c-1.885-5.079-4.358-5.188-6.669-7.773
	l30.787,48.758c0.472,0.153,0.948,0.491,1.42,1.22c0.44,0.938,0.924,2.358,1.63,3.611l0.456,0.723c0.448,0.642,0.97,1.2,1.617,1.54
	l-0.606,0.061l2.96,4.689c0.373,0.478,0.753,0.954,1.129,1.416l6.502-12.156c-0.849-1.244-1.289-2.86-1.886-3.254
	c-0.094-0.041-0.188-0.076-0.283-0.1c0.1-0.002,0.192,0.039,0.283,0.1c1.132,0.494,2.163,2.175,2.784,1.506l0.015,0.04l1.167-2.182
	c-0.501-0.34-0.991-0.748-0.697-1.273c0.423,0.22,0.732,0.477,0.973,0.757l7.623-14.252l-3.038-4.906
	c0.672-2.785,2.495,2.646,4.005,1.822c-0.176,0.184-0.024,0.446,0.277,0.758l4.13-7.722l-0.536-0.951l0.726,0.596l0.486-0.908
	c-0.608-0.569-1.216-1.106-1.758-1.579l1.571,0.375c0.318-0.749-1.76-2.062-2.489-2.112c0.013,0.12,0.005,0.234-0.051,0.333
	l-0.095-0.323c0.038-0.012,0.089-0.014,0.146-0.01c-0.121-1.144-2.975-3.148-2.538-4.37c1.459,2.104,3.285,1.353,3.823,3.257
	c0.838-0.104,1.952-1.314,0.93-1.851c0.58,0.381,1.939,0.181,3.404,0.778l3.121-5.837c-0.135-0.691-0.368-1.428-1.11-2.494
	c-0.521,0.173-0.042,0.871,0.143,1.504c-1.867-2.493-4.844-3.776-5.817-7.244l-0.14,0.555c0.049-0.876-1.193-3.22-2.353-3.204
	c-0.311-4.19,4.885,4.97,4.582,0.793c-0.537,0.161-0.182-0.638-0.489-0.714c0.23-0.24,0.134-0.546,0.747-0.408
	c-0.346,0.804,1.788,2.185-0.082,1.752c1.198,1.159,2.534,1.764,3.383,1.673c-0.094-0.309-0.5-0.709-0.583-1.027l1.815,1.315
	l-1.156,0.02c0.662-0.069,2.008,2.888,3.198,3.485l27.789-51.956c-0.372-0.456-0.701-0.945-0.928-1.521
	c0.578-0.025,1.111,0.069,1.606,0.252L163.702,51.107z M155.304,50.296c1.915,1.627,2.574,2.952,2.574,5.012l-0.625-0.148
	c0.021-0.414-0.097-0.857-0.162-1.196c-0.391,1.415,0.942,3.033,1.056,4.355l-1.869-2.501c-0.225,0.241-0.528,0.175-0.358,0.794
	l-0.58-1.02l0.41,0.401l0.744-2.479c-0.922-2.271-1.595,0.508-1.638-0.678C155.515,52.104,155.974,51.63,155.304,50.296
	 M49.305,112.131l1.157-0.021l1.016,2.593L49.305,112.131z M78.57,149.027c1.265,0.566,1.221,1.1,1.626,1.746
	c0.145,0.048,0.199,0.08,0.073,0.118c-0.028-0.04-0.049-0.078-0.073-0.118C79.726,150.619,78.268,150.298,78.57,149.027
	 M63.965,133.231c0.14-0.551-1.024-2.603,0.706-1.596C64.938,132.575,65.072,134.078,63.965,133.231 M70.538,146.251
	c-1.155,0.012-0.926-0.218-1.826-1.319l1.602-0.504l1.603,1.548c-0.353,0.803,1.589,3.613-0.58,3.11
	c0.71,0.464,2.343,3.197,2.443,1.451l0.082,2.37C70.712,150.996,70.755,148.068,70.538,146.251 M75.11,151.149l-0.45-1.58
	c1.254,0.3,2.323,2.015,2.628,2.082L75.11,151.149z M78.535,154.012l-0.443,0.491c0.352-0.803-0.311-2.134,1.24-1.768l1.064,3.767
	C78.446,155.759,80.046,155.25,78.535,154.012 M87.644,156.453l-0.847-1.968l2.361,3.206L87.644,156.453z M95.788,128.655
	c0.524-0.171,0.663-0.718,1.362-0.267C97.021,128.942,97.164,130.455,95.788,128.655 M98.041,143.896l-0.884-1.094
	c0.216-0.241,0.758-0.413,0.173-1.428C97.915,142.39,99.114,143.555,98.041,143.896 M96.091,124.611
	c0.716,0.462,2.751,1.527,2.485,2.639C97.776,126.477,96.671,125.629,96.091,124.611 M98.757,125.821
	c-2.131-1.369,0.14-2.603-2.139-3.444C97.692,122.045,99.512,125.412,98.757,125.821 M100.885,149.857l-1.373-1.789l1.686,1.872
	L100.885,149.857z M105.805,127.267c0.47,0.146,0.641-0.267,1.079-0.413l0.136,1.502
	C106.444,127.979,106.209,127.512,105.805,127.267 M109.602,131.317c0.752-0.404,1.604-0.499,2.265,0.827
	C111.111,132.554,110.529,131.535,109.602,131.317 M120.269,115.592l-1.825-3.372C120.235,112.352,121.117,115.49,120.269,115.592
	 M138.367,77.783c-3.165-1.922-2.4-4.389-5.066-7.666c-0.666-1.329-1.15,0.015-1.642-0.678c0.077-1.756,1.959,0.755,2.39,0.259
	c-0.109-1.707-0.551-3.728-1.563-5.37c-0.258-0.262-0.428-0.511-0.528-0.75c-0.495-0.619-1.09-1.158-1.813-1.56
	c-1.15-2.031,0.359-0.797,0.625-1.914c1.496,1.452,0.727,2.383,1.188,3.474c0.191,0.238,0.367,0.489,0.528,0.75
	c0.131,0.134,0.278,0.271,0.467,0.414c0.528-0.167,0.034-0.878-0.143-1.506c1.828,1.316,3.289,3.428,4.664,5.21
	c-5.372,0.511,2.849,5.974-0.567,7.224l2.742,1.531L138.367,77.783z M147.205,77.221c-0.488-0.71-0.883-1.101-0.049-1.195
	l1.604,1.563C146.538,75.886,149.207,79.155,147.205,77.221 M146.36,67.013l3.335,4.605l-0.306-0.066
	C148.405,70.139,145.573,68.306,146.36,67.013 M149.785,76.061l-0.174-0.634l0.266-1.112L149.785,76.061z"/>
<path fill="#009640" d="M103.795,115.839c-1.889-1.321-2.472-2.01-3.367-2.689l-1.543,2.884c0.934,0.789,2.495,2.326,2.145,0.321
	c1.288,1.48,2.042,3.128,3.681,3.811c0.046-0.866,1.335-1.446-0.173-2.688c-1.333-0.607-2.758-1.532-2.626-2.09
	C102.885,116.793,102.935,115.926,103.795,115.839"/>
</svg>
