<?xml version="1.0" encoding="UTF-8" standalone="no"?>
<!-- Created with Inkscape (http://www.inkscape.org/) -->

<svg
   xmlns:dc="http://purl.org/dc/elements/1.1/"
   xmlns:cc="http://creativecommons.org/ns#"
   xmlns:rdf="http://www.w3.org/1999/02/22-rdf-syntax-ns#"
   xmlns:svg="http://www.w3.org/2000/svg"
   xmlns="http://www.w3.org/2000/svg"
   version="1.1"
   width="400"
   height="480"
   id="svg3234">
  <defs
     id="defs3236" />
  <metadata
     id="metadata3239">
    <rdf:RDF>
      <cc:Work
         rdf:about="">
        <dc:format>image/svg+xml</dc:format>
        <dc:type
           rdf:resource="http://purl.org/dc/dcmitype/StillImage" />
        <dc:title></dc:title>
      </cc:Work>
    </rdf:RDF>
  </metadata>
  <g
     transform="matrix(1.25,0,0,-1.25,222.9638,15.36295)"
     id="g3043">
    <path
       d="m 0,0 c 0,0 10.425,-34.838 -0.903,-48.104 -11.325,-13.257 -64.224,-6.677 -64.224,-6.677 0,0 40.053,-11.203 45.296,-29.78 5.241,-18.569 -16.58,-31.794 -16.58,-31.794 0,0 17.742,9.91 36.382,-1.411 18.633,-11.326 9.822,-51.267 9.822,-51.267 0,0 10.967,39.871 33.792,46.311 22.828,6.441 45.204,-12.566 45.204,-12.566 0,0 -16.722,30.497 -10.612,39.593 6.109,9.097 59.228,21.344 59.228,21.344 0,0 -53.289,-5.448 -59.711,17.32 -6.429,22.761 17.16,51.822 17.16,51.822 0,0 -29.646,-35.042 -52.357,-30.648 C 19.787,-31.459 0,0 0,0"
       id="path3045"
       style="fill:#ffffff;fill-opacity:1;fill-rule:nonzero;stroke:none" />
  </g>
  <g
     transform="matrix(1.25,0,0,-1.25,174.3663,236.75458)"
     id="g3047">
    <path
       d="M 0,0 C 7.746,57.504 -8.4,79.787 40.256,96.855 69.036,106.951 104.109,83.686 73.221,70.219 13,43.959 27.008,16.546 35.117,-15.602 23.549,-64.488 99.995,-96.865 99.995,-96.865 97.868,-112.654 78.268,-158.818 78.268,-158.818 l -191.016,91.416 25.284,107.097 C -87.464,39.695 -13.793,1.858 0,0"
       id="path3049"
       style="fill:#377c9f;fill-opacity:1;fill-rule:nonzero;stroke:none" />
  </g>
  <g
     transform="matrix(1.25,0,0,-1.25,26.607546,317.7117)"
     id="g3051">
    <path
       d="M 0,0 C 16.682,-8.471 27.684,-13.373 27.684,-13.373 L 35.573,0.875 -17.349,26.791 C -17.349,26.791 -19.847,10.08 0,0"
       id="path3053"
       style="fill:#377c9f;fill-opacity:1;fill-rule:nonzero;stroke:none" />
  </g>
  <g
     transform="matrix(1.25,0,0,-1.25,170.3808,231.98657)"
     id="g3055">
    <path
       d="M 0,0 C 0,0 -32.099,-21.365 -15.046,-57.594"
       id="path3057"
       style="fill:none;stroke:#1d1d1b;stroke-width:7.61899996;stroke-linecap:round;stroke-linejoin:miter;stroke-miterlimit:10;stroke-opacity:1;stroke-dasharray:none" />
  </g>
  <g
     transform="matrix(1.25,0,0,-1.25,119.67642,256.49095)"
     id="g3059">
    <path
       d="m 0,0 c 3.098,5.85 3.389,12.449 1.354,18.246 3.599,1.947 6.679,4.935 8.735,8.813 5.536,10.455 1.537,23.464 -8.917,29 l -28.301,14.99 c -10.45,5.543 -23.46,1.543 -28.998,-8.91 -2.229,-4.211 -2.91,-8.834 -2.253,-13.215 -5.684,-1.843 -10.341,-5.746 -13.141,-11.037 -2.917,-5.504 -3.352,-11.666 -1.699,-17.211 -3.952,-1.918 -7.351,-5.065 -9.561,-9.237 -3.02,-5.701 -3.203,-12.163 -1.051,-17.759 -2.35,-1.659 -4.352,-3.873 -5.787,-6.581 -4.879,-9.214 -1.356,-20.683 7.859,-25.568 l 23.021,-12.195 c 9.214,-4.881 20.686,-1.354 25.564,7.857 1.4,2.639 2.107,5.461 2.193,8.258 5.963,1.295 11.343,5.111 14.416,10.914 2.032,3.832 2.836,8.084 2.383,12.301 5.878,1.606 11.113,5.535 14.182,11.33 L 0,0 z"
       id="path3061"
       style="fill:#377c9f;fill-opacity:1;fill-rule:nonzero;stroke:none" />
  </g>
  <g
     transform="matrix(1.25,0,0,-1.25,17.476666,304.57682)"
     id="g3063">
    <path
       d="m 0,0 23.021,-12.195 c 9.213,-4.881 20.686,-1.354 25.564,7.857 1.399,2.639 2.106,5.461 2.192,8.258 5.964,1.295 11.344,5.111 14.416,10.914 2.033,3.832 2.836,8.084 2.384,12.301 5.878,1.606 11.112,5.535 14.182,11.33 l 0.001,0.004 c 3.097,5.849 3.388,12.449 1.353,18.246 3.6,1.947 6.68,4.934 8.736,8.812"
       id="path3065"
       style="fill:none;stroke:#1d1d1b;stroke-width:7.61899996;stroke-linecap:round;stroke-linejoin:round;stroke-miterlimit:10;stroke-opacity:1;stroke-dasharray:none" />
  </g>
  <g
     transform="matrix(1.25,0,0,-1.25,121.3683,233.68332)"
     id="g3067">
    <path
       d="M 0,0 -59.332,31.432"
       id="path3069"
       style="fill:none;stroke:#1d1d1b;stroke-width:7.61899996;stroke-linecap:round;stroke-linejoin:round;stroke-miterlimit:10;stroke-opacity:1;stroke-dasharray:none" />
  </g>
  <g
     transform="matrix(1.25,0,0,-1.25,28.151666,230.6462)"
     id="g3071">
    <path
       d="M 0,0 59.345,-31.434"
       id="path3073"
       style="fill:none;stroke:#1d1d1b;stroke-width:7.61899996;stroke-linecap:round;stroke-linejoin:round;stroke-miterlimit:10;stroke-opacity:1;stroke-dasharray:none" />
  </g>
  <g
     transform="matrix(1.25,0,0,-1.25,14.886296,264.39132)"
     id="g3075">
    <path
       d="M 0,0 52.943,-28.047"
       id="path3077"
       style="fill:none;stroke:#1d1d1b;stroke-width:7.61899996;stroke-linecap:round;stroke-linejoin:round;stroke-miterlimit:10;stroke-opacity:1;stroke-dasharray:none" />
  </g>
  <g
     transform="matrix(1.25,0,0,-1.25,194.22167,434.7112)"
     id="g3079">
    <path
       d="M 0,0 52.077,-26.641 102.553,72.021 50.479,98.662 0,0 z"
       id="path3081"
       style="fill:#377c9f;fill-opacity:1;fill-rule:nonzero;stroke:none" />
  </g>
  <g
     transform="matrix(1.25,0,0,-1.25,233.7243,437.77758)"
     id="g3083">
    <path
       d="M 0,0 C 7.877,-4.037 17.432,-1.301 22.066,6.053 21.877,5.578 21.675,5.113 21.44,4.658 17.166,-3.688 6.95,-6.986 -1.393,-2.721 -9.74,1.548 -13.037,11.771 -8.771,20.113 c 0.235,0.463 0.494,0.893 0.76,1.328 C -11.26,13.381 -7.886,4.031 0,0"
       id="path3085"
       style="fill:#ffffff;fill-opacity:1;fill-rule:nonzero;stroke:none" />
  </g>
  <g
     transform="matrix(1.25,0,0,-1.25,248.61555,410.86595)"
     id="g3087">
    <path
       d="m 0,0 c -5.546,2.835 -12.346,0.639 -15.182,-4.908 -0.292,-0.573 -0.497,-1.164 -0.688,-1.756 0.105,1.469 0.497,2.94 1.208,4.336 2.844,5.547 9.641,7.746 15.186,4.906 C 5.499,0.031 7.744,-5.695 6.114,-10.85 6.425,-6.477 4.153,-2.129 0,0"
       id="path3089"
       style="fill:#ffffff;fill-opacity:1;fill-rule:nonzero;stroke:none" />
  </g>
  <g
     transform="matrix(1.25,0,0,-1.25,240.34905,412.15745)"
     id="g3091">
    <path
       d="M 0,0 4.017,-12.42"
       id="path3093"
       style="fill:none;stroke:#1d1d1b;stroke-width:3.80999994;stroke-linecap:round;stroke-linejoin:miter;stroke-miterlimit:10;stroke-opacity:1;stroke-dasharray:none" />
  </g>
  <g
     transform="matrix(1.25,0,0,-1.25,250.6188,417.41133)"
     id="g3095">
    <path
       d="M 0,0 -12.42,-4.012"
       id="path3097"
       style="fill:none;stroke:#1d1d1b;stroke-width:3.80999994;stroke-linecap:round;stroke-linejoin:miter;stroke-miterlimit:10;stroke-opacity:1;stroke-dasharray:none" />
  </g>
</svg>
