<?xml version="1.0" encoding="UTF-8" standalone="no"?>
<!-- Created with Inkscape (http://www.inkscape.org/) -->

<svg
   xmlns:dc="http://purl.org/dc/elements/1.1/"
   xmlns:cc="http://creativecommons.org/ns#"
   xmlns:rdf="http://www.w3.org/1999/02/22-rdf-syntax-ns#"
   xmlns:svg="http://www.w3.org/2000/svg"
   xmlns="http://www.w3.org/2000/svg"
   version="1.1"
   width="400"
   height="480"
   id="svg3329">
  <defs
     id="defs3331" />
  <metadata
     id="metadata3334">
    <rdf:RDF>
      <cc:Work
         rdf:about="">
        <dc:format>image/svg+xml</dc:format>
        <dc:type
           rdf:resource="http://purl.org/dc/dcmitype/StillImage" />
        <dc:title></dc:title>
      </cc:Work>
    </rdf:RDF>
  </metadata>
  <g
     transform="matrix(1.25,0,0,-1.25,175.85264,465.40698)"
     id="g3011">
    <path
       d="M 0,0 C 0,0 -7.484,27.029 -20.324,31.049 -33.159,35.061 -65.01,9.063 -65.01,9.063 c 0,0 21.565,23.748 17.37,38.033 -4.198,14.277 -23.874,13.961 -23.874,13.961 0,0 15.655,0.808 23.181,15.847 7.524,15.039 -14.614,37.512 -14.614,37.512 0,0 23.519,-21.543 41.067,-16.383 17.554,5.155 24.369,26.748 24.369,26.748 0,0 1.588,-26.779 9.314,-30.209 7.719,-3.435 47.44,10.356 47.44,10.356 0,0 -37.041,-18.305 -31.896,-35.807 5.138,-17.502 32.466,-26.807 32.466,-26.807 0,0 -33.739,10.729 -46.767,-1.459 C 0.015,28.664 0,0 0,0"
       id="path3013"
       style="fill:#ffffff;fill-opacity:1;fill-rule:nonzero;stroke:none" />
  </g>
  <g
     transform="matrix(1.25,0,0,-1.25,30.916142,147.87528)"
     id="g3015">
    <path
       d="m 0,0 200.357,24.541 c 0,0 3.645,-49.037 0.646,-64.365 0,0 -81.181,-5.957 -85.853,-54.99 -23.133,-32.194 -22.053,-43.245 -4.319,-73.911 18.584,-32.121 -11.741,-54.207 -29.349,-30.037 -23.968,32.897 -11.507,64.619 -3.858,100.533 -4.84,0.951 -6.01,1.164 -21.403,-0.439 -1.695,-8.336 -8.367,-15.17 -17.245,-16.598 l -22.782,-3.63 c -11.448,-1.852 -22.265,5.96 -24.113,17.416 -0.744,4.609 0.08,9.117 2.077,12.977 -4.699,3.501 -7.792,8.593 -8.725,14.386 -0.969,6.031 0.567,11.892 3.852,16.515 -3.063,3.028 -5.23,7.016 -5.965,11.59 -1.007,6.246 0.862,12.301 4.624,16.823 -1.66,2.279 -2.821,4.964 -3.299,7.931 C -16.981,-11.168 -10.098,-1.629 0,0"
       id="path3017"
       style="fill:#377c9f;fill-opacity:1;fill-rule:nonzero;stroke:none" />
  </g>
  <g
     transform="matrix(1.25,0,0,-1.25,102.96327,271.58138)"
     id="g3019">
    <path
       d="M 0,0 -32.496,-5.236"
       id="path3021"
       style="fill:none;stroke:#1d1d1b;stroke-width:7.61899996;stroke-linecap:round;stroke-linejoin:round;stroke-miterlimit:10;stroke-opacity:1;stroke-dasharray:none" />
  </g>
  <g
     transform="matrix(1.25,0,0,-1.25,299.41952,217.13798)"
     id="g3023">
    <path
       d="M 0,0 -56.74,-8.314 -72.501,99.197 -15.758,107.514 0,0 z"
       id="path3025"
       style="fill:#377c9f;fill-opacity:1;fill-rule:nonzero;stroke:none" />
  </g>
  <g
     transform="matrix(1.25,0,0,-1.25,261.78164,207.52608)"
     id="g3027">
    <path
       d="m 0,0 c -8.589,-1.266 -16.595,4.287 -18.578,12.576 0.024,-0.504 0.069,-0.998 0.142,-1.492 1.332,-9.098 9.781,-15.381 18.874,-14.051 9.091,1.332 15.379,9.783 14.044,18.873 -0.071,0.504 -0.173,0.983 -0.288,1.475 C 14.669,8.871 8.592,1.258 0,0"
       id="path3029"
       style="fill:#ffffff;fill-opacity:1;fill-rule:nonzero;stroke:none" />
  </g>
  <g
     transform="matrix(1.25,0,0,-1.25,256.43989,177.85088)"
     id="g3031">
    <path
       d="m 0,0 c 6.043,0.885 11.665,-3.298 12.549,-9.342 0.093,-0.623 0.095,-1.236 0.081,-1.846 0.368,1.393 0.471,2.887 0.246,4.407 C 11.987,-0.738 6.37,3.447 0.327,2.559 -5.095,1.764 -8.985,-2.848 -9.098,-8.143 -8.008,-3.986 -4.526,-0.664 0,0"
       id="path3033"
       style="fill:#ffffff;fill-opacity:1;fill-rule:nonzero;stroke:none" />
  </g>
  <g
     transform="matrix(1.25,0,0,-1.25,263.7104,181.65448)"
     id="g3035">
    <path
       d="M 0,0 -7.642,-10.264"
       id="path3037"
       style="fill:none;stroke:#1d1d1b;stroke-width:3.80999994;stroke-linecap:round;stroke-linejoin:miter;stroke-miterlimit:10;stroke-opacity:1;stroke-dasharray:none" />
  </g>
  <g
     transform="matrix(1.25,0,0,-1.25,252.5129,183.29508)"
     id="g3039">
    <path
       d="M 0,0 10.271,-7.639"
       id="path3041"
       style="fill:none;stroke:#1d1d1b;stroke-width:3.80999994;stroke-linecap:round;stroke-linejoin:miter;stroke-miterlimit:10;stroke-opacity:1;stroke-dasharray:none" />
  </g>
</svg>
