<?xml version="1.0" encoding="utf-8"?>
<!-- Generator: Adobe Illustrator 16.0.0, SVG Export Plug-In . SVG Version: 6.00 Build 0)  -->
<!DOCTYPE svg PUBLIC "-//W3C//DTD SVG 1.1//EN" "http://www.w3.org/Graphics/SVG/1.1/DTD/svg11.dtd">
<svg version="1.1" id="Layer_3" xmlns="http://www.w3.org/2000/svg" xmlns:xlink="http://www.w3.org/1999/xlink" x="0px" y="0px"
	 width="1376.794px" height="677.926px" viewBox="194.443 -712.667 1376.794 677.926"
	 enable-background="new 194.443 -712.667 1376.794 677.926" xml:space="preserve">
<g>
	<g>
		<path fill="#407BA2" d="M1569.738-173.667c0,5.775-4.725,10.496-10.5,10.491l-1185-0.982c-5.775-0.005-14.141,3.003-18.591,6.684
			L209.829-36.859c-4.45,3.681-6.03,2.44-3.51-2.756l55.316-114.104c2.52-5.196-0.145-9.448-5.919-9.448h-49.271
			c-5.775,0-10.5-4.725-10.5-10.5v-527c0-5.775,4.725-10.5,10.5-10.5h1352.794c5.775,0,10.5,4.725,10.5,10.5V-173.667z"/>
	</g>
	<g>
		<path fill="#FFFFFF" d="M206.012-33.241c-0.844,0-1.57-0.386-1.992-1.06c-0.748-1.194-0.447-3.091,0.949-5.968l55.316-114.104
			c0.985-2.031,1.066-3.886,0.229-5.222c-0.837-1.336-2.542-2.072-4.799-2.072h-49.271c-6.617,0-12-5.383-12-12v-527
			c0-6.617,5.383-12,12-12h1352.794c6.617,0,12,5.383,12,12v527c0,6.612-5.379,11.991-11.991,11.991l-1185.01-0.982
			c-5.409,0-13.479,2.903-17.633,6.339L210.785-35.703C208.116-33.496,206.783-33.241,206.012-33.241z M206.443-709.667
			c-4.962,0-9,4.038-9,9v527c0,4.962,4.038,9,9,9h49.271c3.329,0,5.936,1.235,7.341,3.479s1.38,5.129-0.072,8.124L207.668-38.96
			c-0.566,1.168-0.83,1.951-0.95,2.451c0.457-0.236,1.155-0.678,2.155-1.505L354.691-158.63c4.686-3.875,13.448-7.028,19.533-7.028
			l1185.015,0.982c4.966,0,8.999-4.033,8.999-8.991v-527c0-4.962-4.037-9-9-9H206.443z"/>
	</g>
</g>
</svg>
