<?xml version="1.0" encoding="utf-8"?>
<!-- Generator: Adobe Illustrator 16.0.0, SVG Export Plug-In . SVG Version: 6.00 Build 0)  -->
<!DOCTYPE svg PUBLIC "-//W3C//DTD SVG 1.1//EN" "http://www.w3.org/Graphics/SVG/1.1/DTD/svg11.dtd">
<svg version="1.1" id="Layer_1" xmlns="http://www.w3.org/2000/svg" xmlns:xlink="http://www.w3.org/1999/xlink" x="0px" y="0px"
	 width="172.393px" height="249.602px" viewBox="0 0 172.393 249.602" enable-background="new 0 0 172.393 249.602"
	 xml:space="preserve">
<g>
	<path class="hover" fill="none" stroke="#fe6f48" stroke-width="4" stroke-miterlimit="10" stroke-dasharray="7.9231,7.9231" d="M86.195,229.443
		c-41.727,0-75.675-33.947-75.675-75.677c0-41.727,33.948-75.674,75.675-75.674c41.729,0,75.677,33.947,75.677,75.674
		C161.872,195.494,127.924,229.443,86.195,229.443z"/>
	<path class="turns-red" fill="#FFFFFF" d="M86.195,218.443c-35.661,0-64.675-29.014-64.675-64.677c0-35.662,29.014-64.674,64.675-64.674
		c35.662,0,64.677,29.013,64.677,64.674C150.872,189.429,121.858,218.443,86.195,218.443z"/>
	<path fill="none" stroke="#000000" stroke-width="1.8202" d="M100.712,173.196c0,0-8.741-11.161-21.654-3.299"/>
	<g>
		<path fill="#407fa2" d="M41.098,200.442c-4.411-4.452-8.221-9.49-11.325-14.976l-0.358-0.633l29.762-32.427
			c-1.411-8.587,0.354-14.855,1.648-19.456c0.6-2.131,1.074-3.815,1.031-5.065c-0.825-24.478-6.638-35.282-12.797-43.31
			c-4.609-6.008-5.753-12.143-3.222-17.275c2.569-5.208,8.611-8.574,15.395-8.574c8.779,0,19.183,5.802,22.054,22.086
			c0.609,3.461,0.231,8.899-0.206,15.194c-0.509,7.317-1.085,15.611-0.185,22.474c0.051,0.265,0.234,1.237,3.074,1.237
			c2.146,0,5.153-0.551,9.457-1.732c2.246-0.98,4.628-1.97,7.147-3.018c4.311-1.792,8.769-3.645,12.483-5.439
			c0.968-0.469,1.993-0.706,3.046-0.706c3.782,0,7.594,3.197,9.062,7.601c1.398,4.192,0.385,8.33-2.703,11.367
			c2.689,1.321,4.975,4.079,5.956,7.339c0.991,3.293,0.503,6.559-1.33,9.155c2.881,1.574,5.164,4.751,5.863,8.301
			c0.663,3.362-0.172,6.492-2.356,8.931c2.458,2.295,3.681,6.498,2.884,10.335c-0.984,4.738-4.758,8.006-10.352,8.965
			c-2.096,0.356-4.239,0.739-6.322,1.111l-2.615,0.465c-5.722,3.441-16.677,9.091-26.909,9.092c-0.001,0-0.001,0-0.002,0
			c-3.16,0-6.073-0.537-8.658-1.596c-0.888-0.363-1.766-0.804-2.615-1.311l-36.469,12.309L41.098,200.442z"/>
		<path class="turns-red" fill="#FFFFFF" d="M61.233,59.726c8.734,0.001,18.376,5.987,21.069,21.26c1.291,7.33-2.076,24.832-0.397,37.624
			c0.288,1.529,1.832,2.107,4.066,2.107c2.62,0,6.187-0.795,9.791-1.787c6.196-2.706,13.847-5.66,19.731-8.502
			c0.86-0.416,1.74-0.606,2.611-0.606c6.851,0,13.122,11.786,4.423,18.314c5.823,1.433,10.396,10.641,4.976,16.522
			c5.675,2.062,9.746,11.357,3.598,16.945c5.078,3.324,6.273,16.097-6.141,18.226c-3.051,0.519-6.207,1.094-9.126,1.609
			c-5.966,3.606-16.606,9.044-26.554,9.044c-2.859,0-5.663-0.45-8.279-1.521c-1.013-0.414-1.967-0.913-2.87-1.482l-36.321,12.259
			c-4.346-4.386-8.103-9.352-11.165-14.764l29.602-32.252c-2.255-12.771,2.758-20.552,2.611-24.871
			c-0.772-22.931-5.754-34.436-13.003-43.885C39.479,70.443,49.544,59.725,61.233,59.726 M61.233,57.726v2V57.726
			c-7.16,0-13.555,3.583-16.291,9.13c-1.569,3.181-3.224,9.792,3.325,18.327c6.058,7.896,11.776,18.539,12.591,42.735
			c0.037,1.096-0.441,2.795-0.995,4.762c-1.223,4.346-3.048,10.831-1.749,19.406L29.17,183.621l-0.983,1.071l0.716,1.267
			c3.147,5.562,7.012,10.672,11.485,15.186l0.878,0.887l1.182-0.399l35.447-11.963c0.767,0.435,1.553,0.818,2.348,1.144
			c2.706,1.107,5.746,1.67,9.036,1.67c10.381,0,21.413-5.636,27.267-9.139c0.798-0.142,1.612-0.287,2.437-0.435
			c2.079-0.371,4.221-0.753,6.312-1.108c6.023-1.033,10.092-4.586,11.165-9.748c0.791-3.81-0.274-7.97-2.532-10.589
			c1.931-2.557,2.659-5.763,2.007-9.073c-0.681-3.452-2.76-6.583-5.456-8.426c1.535-2.684,1.872-5.895,0.898-9.126
			c-0.918-3.048-2.905-5.696-5.329-7.289c2.672-3.193,3.453-7.292,2.068-11.444c-1.627-4.878-5.744-8.285-10.012-8.285
			c-1.205,0-2.376,0.271-3.482,0.806c-3.688,1.781-8.133,3.629-12.431,5.416c-2.499,1.039-4.862,2.022-7.098,2.996
			c-4.123,1.129-7.107,1.678-9.123,1.678c-1.266,0-2.01-0.231-2.094-0.456c-0.871-6.747-0.301-14.947,0.202-22.186
			c0.442-6.361,0.824-11.855,0.193-15.437C81.294,63.746,70.418,57.727,61.233,57.726L61.233,57.726z"/>
	</g>
	<path fill="#000000" d="M114.985,180.917c-5.151,0.913-8.555,1.518-10.44,1.383c-1.857-0.132-3.604-2.256-4.15-5.05
		c-0.456-2.326,0-5.271,2.628-6.617c5.984-0.991,16.004-3.351,22.472-5.286l-0.392-1.309c-9.247,2.769-23.823,5.925-26.437,5.696
		c-1.807-0.148-3.473-2.453-4.055-5.604c-0.63-3.417,0.133-7.535,3.253-9.035c6.244-2.999,26.012-8.489,26.211-8.544l-0.364-1.316
		c-0.817,0.228-20.082,5.578-26.438,8.63c-0.421,0.201-0.801,0.446-1.153,0.719c-2.099-0.291-4.366-3.668-5.102-7.644
		c-0.274-1.483-0.896-6.462,2.609-8.145c3.812-1.831,9.015-3.721,14.521-5.724c3.609-1.312,7.34-2.668,10.835-4.064l-0.508-1.269
		c-3.476,1.391-7.196,2.741-10.794,4.049c-5.541,2.015-10.774,3.917-14.646,5.775c-0.646,0.312-1.207,0.731-1.687,1.237
		c-2.01-0.595-4.128-4.035-4.87-8.055c-0.602-3.258-0.251-7.215,2.535-8.553c4.301-2.063,11.521-4.84,18.502-7.523
		c3.356-1.291,6.525-2.509,9.351-3.64l-0.508-1.268c-2.815,1.126-5.981,2.344-9.333,3.632c-7.007,2.693-14.253,5.479-18.603,7.568
		c-2.956,1.419-4.187,5.169-3.288,10.031c0.691,3.745,2.732,7.804,5.36,8.948c-1.052,1.812-1.361,4.325-0.822,7.246
		c0.657,3.561,2.675,7.424,5.311,8.495c-1.851,2.291-2.263,5.732-1.716,8.693c0.586,3.173,2.446,6.482,5.283,6.719
		c0.106,0.009,0.224,0.013,0.357,0.013c0.386,0,0.891-0.036,1.488-0.103c-1.526,1.854-1.759,4.396-1.345,6.506
		c0.675,3.444,2.894,5.973,5.395,6.15c0.212,0.015,0.435,0.021,0.672,0.021c2.078,0,5.225-0.557,10.105-1.423
		c1.619-0.287,3.422-0.607,5.421-0.947l-0.229-1.347C118.414,180.309,116.609,180.629,114.985,180.917z"/>
	<g>
		<g>
			<path class="turns-red" fill="#FFFFFF" d="M66.738,54.846c-0.271,0-0.544-0.058-0.805-0.182c-0.936-0.446-1.333-1.564-0.889-2.5l5.54-11.646
				c0.444-0.936,1.562-1.332,2.5-0.888c0.935,0.445,1.333,1.563,0.888,2.5l-5.539,11.646C68.111,54.451,67.439,54.846,66.738,54.846
				z"/>
		</g>
		<g>
			<path class="turns-red" fill="#FFFFFF" d="M41.066,61.198c-0.375,0-0.755-0.112-1.083-0.347l-11.186-7.938c-0.845-0.601-1.043-1.771-0.444-2.615
				c0.6-0.845,1.771-1.044,2.614-0.444l11.185,7.938c0.846,0.6,1.044,1.77,0.444,2.615C42.232,60.923,41.653,61.198,41.066,61.198z"
				/>
		</g>
		<g>
			<path class="turns-red" fill="#FFFFFF" d="M53.598,55.556c-0.847,0-1.616-0.578-1.822-1.438l-4.954-20.646c-0.241-1.007,0.38-2.02,1.387-2.263
				c1.011-0.24,2.021,0.38,2.262,1.387l4.954,20.646c0.241,1.008-0.379,2.021-1.387,2.262C53.891,55.54,53.743,55.556,53.598,55.556
				z"/>
		</g>
	</g>
</g>
</svg>
