<?xml version="1.0" encoding="utf-8"?>
<!-- Generator: Adobe Illustrator 16.0.0, SVG Export Plug-In . SVG Version: 6.00 Build 0)  -->
<!DOCTYPE svg PUBLIC "-//W3C//DTD SVG 1.1//EN" "http://www.w3.org/Graphics/SVG/1.1/DTD/svg11.dtd">
<svg version="1.1" id="Layer_1" xmlns="http://www.w3.org/2000/svg" xmlns:xlink="http://www.w3.org/1999/xlink" x="0px" y="0px"
	 width="1567.25px" height="867.044px" viewBox="0 0 1567.25 867.044" enable-background="new 0 0 1567.25 867.044"
	 xml:space="preserve">
<path id="q6-arrow-path" fill="#fe6f48" d="M893.507,345.794c3.763,1.133,5.519-0.87,3.903-4.452L786.563,95.548c-1.615-3.581-4.258-3.581-5.874,0
	L669.844,341.343c-1.615,3.582,0.141,5.585,3.903,4.452l69.412-20.906c3.762-1.133,6.965,1.152,7.118,5.078l17.315,444.363
	c0.153,3.926,3.492,7.138,7.421,7.138h17.233c3.929,0,7.269-3.212,7.422-7.138l17.307-444.363c0.153-3.926,3.356-6.211,7.118-5.078
	L893.507,345.794z"/>
</svg>
