<?xml version="1.0" encoding="utf-8"?>
<!-- Generator: Adobe Illustrator 16.0.0, SVG Export Plug-In . SVG Version: 6.00 Build 0)  -->
<!DOCTYPE svg PUBLIC "-//W3C//DTD SVG 1.1//EN" "http://www.w3.org/Graphics/SVG/1.1/DTD/svg11.dtd">
<svg version="1.1" id="Layer_1" xmlns="http://www.w3.org/2000/svg" xmlns:xlink="http://www.w3.org/1999/xlink" x="0px" y="0px"
	 width="1567.25px" height="74.402px" viewBox="0 0 1567.25 74.402" enable-background="new 0 0 1567.25 74.402"
	 xml:space="preserve">
<path fill="#407fa2" d="M820.826,37.201c0,20.543-16.654,37.201-37.199,37.201c-20.546,0-37.199-16.658-37.199-37.201
	S763.081,0,783.627,0C804.172,0,820.826,16.658,820.826,37.201"/>
<path fill="none" stroke="#000000" stroke-width="10" stroke-linecap="round" stroke-miterlimit="10" d="M804.555,38.414
	c0,11.557-9.369,20.928-20.928,20.928c-11.558,0-20.929-9.371-20.929-20.928"/>
<path fill="#FFFFFF" d="M783.627,20.85c7.986,0,14.762,5.123,17.265,12.255h1.048c0-10.112-8.198-18.313-18.312-18.313
	c-10.115,0-18.313,8.201-18.313,18.313h1.047C768.865,25.973,775.64,20.85,783.627,20.85"/>
<path fill="none" stroke="#FFFFFF" stroke-width="3" stroke-miterlimit="10" d="M783.627,20.85c7.986,0,14.762,5.123,17.265,12.255
	h1.048c0-10.112-8.198-18.313-18.312-18.313c-10.115,0-18.313,8.201-18.313,18.313h1.047C768.865,25.973,775.64,20.85,783.627,20.85
	z"/>
</svg>
