<?xml version="1.0" encoding="utf-8"?>
<!-- Generator: Adobe Illustrator 16.0.0, SVG Export Plug-In . SVG Version: 6.00 Build 0)  -->
<!DOCTYPE svg PUBLIC "-//W3C//DTD SVG 1.1//EN" "http://www.w3.org/Graphics/SVG/1.1/DTD/svg11.dtd">
<svg version="1.1" xmlns="http://www.w3.org/2000/svg" xmlns:xlink="http://www.w3.org/1999/xlink" x="0px" y="0px"
	 width="1567.25px" height="867.044px" viewBox="0 0 1567.25 867.044" enable-background="new 0 0 1567.25 867.044"
	 xml:space="preserve">
<g id="base">
	<g>
		<path fill="#407fa2" d="M783.627,758.973h745.868l0.055-1.964c2.066-75.054-11.61-160.611-38.511-240.91
			c-16.076-47.986-36.766-93.922-61.494-136.532c-28.273-48.718-62-93.352-100.242-132.661
			c-63.664-65.441-139.915-116.451-226.638-151.615C1008.093,56.944,900.752,37.5,783.627,37.5"/>
	</g>
	<g>
		<path fill="#407fa2" d="M1529.495,796.473H783.627v-75h708.242c-2.309-61.912-14.912-129.357-36.388-193.462
			c-15.272-45.588-34.911-89.198-58.37-129.622c-26.731-46.06-58.588-88.228-94.688-125.334
			c-60.021-61.696-131.97-109.812-213.85-143.013C998.497,93.519,895.898,75,783.627,75V0c121.978,0,234.058,20.368,333.129,60.539
			c91.564,37.127,172.118,91.032,239.426,160.218c40.386,41.512,75.98,88.61,105.797,139.987
			c25.998,44.798,47.738,93.059,64.618,143.443c28.262,84.362,42.623,174.517,40.438,253.854l-0.055,1.976
			C1566.415,780.312,1549.799,796.473,1529.495,796.473z"/>
	</g>
	<g>
		<path d="M783.627,758.973H37.759l-0.055-1.964c-2.066-75.054,11.611-160.611,38.511-240.91
			c16.076-47.986,36.766-93.922,61.494-136.532c28.273-48.718,62-93.352,100.242-132.661
			c63.664-65.441,139.915-116.451,226.638-151.615C559.161,56.944,666.502,37.5,783.627,37.5"/>
	</g>
	<g>
		<path d="M783.627,796.473H37.759c-20.304,0-36.92-16.16-37.485-36.456l-0.055-1.964c-2.184-79.35,12.177-169.504,40.438-253.866
			c16.879-50.382,38.619-98.643,64.618-143.442c29.815-51.375,65.411-98.474,105.797-139.988
			c67.307-69.186,147.862-123.09,239.425-160.218C549.569,20.368,661.65,0,783.627,0v75c-112.271,0-214.871,18.519-304.947,55.043
			c-81.879,33.2-153.829,81.316-213.85,143.012c-36.101,37.107-67.958,79.276-94.688,125.334
			c-23.459,40.424-43.098,84.036-58.37,129.622c-21.473,64.101-34.077,131.547-36.387,193.462h708.242V796.473z"/>
	</g>
	<g>
		<path fill="#407fa2" d="M783.627,784.064v-565.38c-493.038,0-600.653,395.635-595.979,565.38H783.627z"/>
	</g>
	<g>
		<path fill="#407fa2" d="M783.627,789.064H187.648c-2.708,0-4.923-2.155-4.998-4.862c-1.587-57.643,9.732-127.208,31.056-190.859
			c27.933-83.382,71.059-155.43,128.178-214.144c49.576-50.959,109.191-90.778,177.19-118.35
			c77.184-31.296,166.192-47.165,264.553-47.165c2.762,0,5,2.239,5,5v565.38C788.627,786.826,786.389,789.064,783.627,789.064z
			 M192.544,779.064h586.083V223.698c-95.08,0.529-181.119,16.139-255.795,46.418c-66.708,27.048-125.176,66.095-173.78,116.056
			c-56.064,57.63-98.411,128.4-125.863,210.348C202.819,657.319,191.732,723.52,192.544,779.064z"/>
	</g>
	<g>
		<path fill="#FFFFFF" d="M783.627,784.064v-565.38c493.038,0,600.653,395.635,595.979,565.38H783.627z"/>
	</g>
	<g>
		<path fill="#FFFFFF" d="M1379.605,789.064H783.627c-2.761,0-5-2.238-5-5v-565.38c0-2.761,2.239-5,5-5
			c98.361,0,187.37,15.869,264.554,47.165c68,27.572,127.615,67.391,177.19,118.351c57.12,58.714,100.245,130.762,128.178,214.144
			c21.323,63.651,32.643,133.217,31.055,190.858C1384.529,786.909,1382.313,789.064,1379.605,789.064z M788.627,779.064h586.083
			c0.812-55.544-10.275-121.745-30.644-182.545c-27.452-81.946-69.799-152.717-125.862-210.346
			c-48.604-49.961-107.072-89.008-173.78-116.057c-74.677-30.28-160.717-45.89-255.797-46.418V779.064z"/>
	</g>
	<g>
		<path fill="#FFFFFF" d="M1242.518,740.929c-44.544-212.59-233.061-372.244-458.891-372.244
			c-225.831,0-414.347,159.654-458.89,372.244c-5.174,24.691,1.506,37.889,65.515,37.889h257.457
			c26.398,0.109,52.545,11.05,71.413,32.178c16.738,17.322,39.949,27.365,64.505,27.365c24.555,0,47.767-10.043,64.505-27.365
			c18.868-21.128,45.015-32.068,71.413-32.178H1177C1241.011,778.817,1247.691,765.62,1242.518,740.929"/>
	</g>
	<g>
		<path d="M783.627,838.36c24.555,0,47.767-10.043,64.505-27.365c18.868-21.129,45.015-32.068,71.413-32.178H1177
			c64.011,0,70.691-13.197,65.518-37.889c-44.544-212.591-233.061-372.244-458.891-372.244V838.36z"/>
	</g>
	<g>
		<path fill="#FFFFFF" d="M783.627,368.685c-225.831,0-414.348,159.654-458.891,372.244c-5.173,24.691,1.506,37.889,65.516,37.889
			h257.457c26.397,0.109,52.545,11.049,71.413,32.178c16.737,17.322,39.948,27.365,64.505,27.365V368.685z"/>
	</g>
	<g>
		<path d="M783.627,867.044c-2.761,0-5-2.238-5-5V348.736c0-2.761,2.239-5,5-5c2.762,0,5,2.239,5,5v513.308
			C788.627,864.806,786.389,867.044,783.627,867.044z"/>
	</g>
	<g>
		<path fill="#407fa2" d="M653.315,412.686l8.048,19.431c36.113-10.893,73.723-17.005,111.801-17.953v-20.935
			C732.324,394.197,691.988,400.824,653.315,412.686"/>
	</g>
	<g>
		<path fill="#FFFFFF" d="M913.943,412.688c-38.671-11.865-79.012-18.492-119.854-19.46v20.935
			c38.079,0.948,75.691,7.06,111.807,17.953L913.943,412.688z"/>
	</g>
	<g>
		<path fill="#407fa2" d="M537.006,493.215c32.169-23.036,67.369-41.366,104.418-54.564l-8.016-19.354
			c-39.59,14.213-77.147,34.027-111.373,58.947L537.006,493.215z"/>
	</g>
	<g>
		<path fill="#FFFFFF" d="M1144.802,616.351c17.757,28.973,32.095,60.094,42.541,92.881c1.419,4.448,5.532,7.289,9.967,7.289
			c1.05,0,2.122-0.161,3.177-0.498c5.506-1.754,8.547-7.639,6.793-13.146c-10.622-33.334-25.091-65.029-42.929-94.621
			L1144.802,616.351z"/>
	</g>
	<g>
		<path fill="#407fa2" d="M434.001,598.483c22.529-32.913,49.706-62.676,80.977-88.369c1.712-1.404,3.446-2.779,5.18-4.158
			l-14.884-14.884c-1.191,0.961-2.393,1.903-3.577,2.878c-33.961,27.896-63.315,60.378-87.424,96.359L434.001,598.483z"/>
	</g>
	<g>
		<path fill="#407fa2" d="M366.767,716.022c5.499,1.758,11.389-1.287,13.144-6.791c10.447-32.787,24.784-63.912,42.544-92.885
			l-19.55-8.096c-17.839,29.596-32.309,61.287-42.932,94.625C358.219,708.384,361.261,714.269,366.767,716.022"/>
	</g>
	<g>
		<path fill="#FFFFFF" d="M1030.247,493.215l14.972-14.972c-34.225-24.916-71.777-44.73-111.366-58.939l-8.015,19.352
			C962.881,451.853,998.08,470.179,1030.247,493.215"/>
	</g>
	<g>
		<path fill="#FFFFFF" d="M1061.979,491.072l-14.883,14.884c1.733,1.379,3.467,2.754,5.179,4.158
			c31.271,25.697,58.45,55.459,80.979,88.373l19.729-8.174c-24.11-35.982-53.465-68.463-87.428-96.363
			C1064.373,492.976,1063.17,492.033,1061.979,491.072"/>
	</g>
	<g>
		<path fill="#407fa2" d="M945.808,370.51c-9.167,0-16.597-7.429-16.597-16.597c0-1.937,0.334-3.794,0.943-5.521
			c-1.32,2.381-2.077,5.119-2.077,8.034c0,9.169,7.435,16.6,16.599,16.6c7.232,0,13.382-4.624,15.654-11.075
			C957.5,367.053,952.06,370.51,945.808,370.51"/>
	</g>
	<g>
		<path fill="#407fa2" d="M944.676,375.526c-10.531,0-19.099-8.568-19.099-19.1c0-3.228,0.827-6.425,2.391-9.247
			c0.632-1.136,2.027-1.6,3.212-1.067c1.186,0.533,1.765,1.886,1.332,3.112c-0.531,1.506-0.801,3.083-0.801,4.689
			c0,7.773,6.324,14.097,14.097,14.097c5.121,0,9.849-2.786,12.336-7.272c0.632-1.136,2.027-1.599,3.212-1.067
			c1.185,0.533,1.765,1.885,1.333,3.111C960.003,370.404,952.765,375.526,944.676,375.526z"/>
	</g>
	<g>
		<path d="M960.913,365.5c-0.444,0-0.896-0.06-1.344-0.185c-2.66-0.741-4.217-3.498-3.476-6.158
			c0.831-2.986,0.449-6.117-1.074-8.815c-1.523-2.698-4.006-4.642-6.99-5.472c-6.162-1.715-12.568,1.903-14.283,8.064
			c-0.74,2.661-3.503,4.216-6.157,3.476c-2.66-0.74-4.217-3.497-3.476-6.158c3.192-11.473,15.119-18.209,26.597-15.016
			c5.558,1.546,10.182,5.165,13.018,10.19c2.837,5.025,3.547,10.854,1.999,16.413C965.111,364.051,963.102,365.5,960.913,365.5z"/>
	</g>
	<g>
		<path fill="#407fa2" d="M1091.265,447.585c-9.166,0-16.599-7.432-16.599-16.6c0-1.934,0.334-3.793,0.946-5.517
			c-1.321,2.377-2.078,5.119-2.078,8.033c0,9.169,7.434,16.6,16.599,16.6c7.231,0,13.38-4.627,15.654-11.079
			C1102.957,444.128,1097.516,447.585,1091.265,447.585"/>
	</g>
	<g>
		<path fill="#407fa2" d="M1090.133,452.601c-10.531,0-19.099-8.568-19.099-19.1c0-3.234,0.827-6.432,2.393-9.248
			c0.633-1.137,2.033-1.597,3.215-1.063c1.185,0.535,1.762,1.89,1.326,3.115c-0.532,1.499-0.802,3.074-0.802,4.681
			c0,7.775,6.324,14.1,14.099,14.1c5.122,0,9.849-2.788,12.336-7.275c0.63-1.137,2.028-1.601,3.212-1.068
			c1.186,0.533,1.765,1.886,1.332,3.111C1105.457,447.478,1098.219,452.601,1090.133,452.601z"/>
	</g>
	<g>
		<path d="M1106.368,442.572c-0.444,0-0.896-0.06-1.344-0.185c-2.66-0.74-4.217-3.497-3.477-6.157
			c0.832-2.986,0.451-6.116-1.072-8.813c-1.522-2.697-4.004-4.64-6.988-5.47c-2.986-0.831-6.115-0.45-8.813,1.072
			c-2.696,1.522-4.64,4.005-5.47,6.991c-0.741,2.66-3.495,4.219-6.157,3.477c-2.661-0.74-4.218-3.497-3.478-6.157
			c1.547-5.56,5.166-10.183,10.189-13.019c5.022-2.836,10.851-3.546,16.409-1.998c5.559,1.546,10.181,5.165,13.017,10.188
			c2.835,5.023,3.545,10.852,1.997,16.411C1110.566,441.124,1108.557,442.572,1106.368,442.572z"/>
	</g>
	<g>
		<path fill="#407fa2" d="M1215.86,575.005c-9.167,0-16.597-7.432-16.597-16.6c0-1.936,0.333-3.795,0.943-5.519
			c-1.32,2.377-2.077,5.118-2.077,8.035c0,9.168,7.433,16.601,16.598,16.601c7.232,0,13.382-4.631,15.655-11.08
			C1227.553,571.548,1222.112,575.005,1215.86,575.005"/>
	</g>
	<g>
		<path fill="#407fa2" d="M1214.728,580.022c-10.53,0-19.098-8.568-19.098-19.101c0-3.234,0.827-6.433,2.392-9.249
			c0.632-1.137,2.033-1.597,3.213-1.065c1.186,0.535,1.764,1.889,1.329,3.114c-0.53,1.499-0.8,3.074-0.8,4.684
			c0,7.774,6.324,14.1,14.097,14.1c5.122,0,9.849-2.787,12.336-7.274c0.632-1.137,2.027-1.601,3.212-1.068
			c1.186,0.533,1.765,1.886,1.332,3.111C1230.053,574.899,1222.813,580.022,1214.728,580.022z"/>
	</g>
	<g>
		<path d="M1230.965,569.992c-0.444,0-0.896-0.06-1.344-0.185c-2.66-0.74-4.217-3.497-3.476-6.157
			c0.831-2.985,0.449-6.116-1.073-8.814c-1.523-2.697-4.005-4.64-6.988-5.469c-2.986-0.83-6.115-0.452-8.813,1.071
			c-2.698,1.522-4.642,4.006-5.474,6.991c-0.74,2.661-3.503,4.215-6.157,3.476c-2.66-0.74-4.217-3.497-3.476-6.157
			c1.548-5.56,5.167-10.183,10.19-13.019c5.024-2.835,10.852-3.545,16.409-1.996c5.557,1.544,10.181,5.162,13.017,10.188
			c2.836,5.023,3.546,10.852,1.998,16.411C1235.163,568.544,1233.153,569.992,1230.965,569.992z"/>
	</g>
	<g>
		<path fill="#FFFFFF" d="M624.52,370.51c9.167,0,16.599-7.429,16.599-16.597c0-1.937-0.334-3.794-0.946-5.521
			c1.323,2.381,2.078,5.119,2.078,8.034c0,9.169-7.433,16.6-16.598,16.6c-7.233,0-13.381-4.624-15.654-11.075
			C612.829,367.053,618.27,370.51,624.52,370.51"/>
	</g>
	<g>
		<path fill="#FFFFFF" d="M625.652,375.526c-8.087,0-15.326-5.122-18.012-12.745c-0.432-1.226,0.147-2.578,1.333-3.111
			c1.186-0.532,2.582-0.068,3.211,1.067c2.488,4.486,7.214,7.272,12.335,7.272c7.774,0,14.099-6.324,14.099-14.097
			c0-1.606-0.27-3.183-0.803-4.686c-0.434-1.226,0.144-2.579,1.328-3.114c1.188-0.535,2.582-0.072,3.213,1.064
			c1.565,2.817,2.393,6.015,2.393,9.249C644.75,366.958,636.183,375.526,625.652,375.526z"/>
	</g>
	<g>
		<path d="M609.417,365.5c-2.189,0-4.198-1.449-4.814-3.661c-1.547-5.559-0.838-11.388,1.999-16.413
			c2.836-5.025,7.459-8.644,13.017-10.19c11.471-3.195,23.402,3.544,26.598,15.015c0.741,2.66-0.814,5.417-3.475,6.158
			c-2.661,0.74-5.417-0.814-6.158-3.475c-1.716-6.161-8.125-9.779-14.284-8.065c-2.984,0.831-5.466,2.773-6.989,5.472
			c-1.523,2.699-1.904,5.83-1.073,8.815c0.74,2.66-0.816,5.417-3.476,6.158C610.312,365.441,609.86,365.5,609.417,365.5z"/>
	</g>
	<g>
		<path fill="#FFFFFF" d="M479.064,447.585c9.166,0,16.598-7.432,16.598-16.6c0-1.934-0.334-3.793-0.946-5.517
			c1.322,2.377,2.078,5.119,2.078,8.033c0,9.169-7.433,16.6-16.598,16.6c-7.232,0-13.382-4.627-15.654-11.079
			C467.372,444.128,472.812,447.585,479.064,447.585"/>
	</g>
	<g>
		<path fill="#FFFFFF" d="M480.196,452.601c-8.088,0-15.327-5.123-18.012-12.749c-0.432-1.226,0.148-2.578,1.333-3.11
			c1.186-0.534,2.582-0.068,3.211,1.068c2.486,4.487,7.212,7.275,12.335,7.275c7.774,0,14.098-6.325,14.098-14.1
			c0-1.607-0.27-3.182-0.802-4.681c-0.435-1.225,0.142-2.579,1.326-3.115c1.188-0.535,2.583-0.073,3.214,1.063
			c1.566,2.815,2.394,6.013,2.394,9.249C499.294,444.032,490.727,452.601,480.196,452.601z"/>
	</g>
	<g>
		<path d="M463.96,442.572c-2.189,0.001-4.198-1.448-4.814-3.66c-1.548-5.559-0.838-11.387,1.998-16.411
			c2.836-5.023,7.459-8.642,13.017-10.188c5.557-1.548,11.384-0.838,16.408,1.998c5.024,2.836,8.644,7.459,10.19,13.019
			c0.74,2.661-0.816,5.417-3.477,6.157c-2.658,0.744-5.417-0.816-6.157-3.477c-0.831-2.986-2.774-5.468-5.471-6.991
			s-5.826-1.902-8.812-1.073c-2.985,0.831-5.467,2.773-6.99,5.47c-1.523,2.698-1.904,5.828-1.072,8.813
			c0.741,2.66-0.815,5.417-3.476,6.157C464.856,442.513,464.404,442.572,463.96,442.572z"/>
	</g>
	<g>
		<path fill="#FFFFFF" d="M354.469,575.005c9.165,0,16.597-7.432,16.597-16.6c0-1.936-0.333-3.795-0.945-5.519
			c1.322,2.377,2.078,5.118,2.078,8.035c0,9.168-7.433,16.601-16.598,16.601c-7.232,0-13.382-4.631-15.654-11.08
			C342.776,571.548,348.217,575.005,354.469,575.005"/>
	</g>
	<g>
		<path fill="#FFFFFF" d="M355.601,580.022c-8.087,0-15.325-5.124-18.012-12.749c-0.432-1.227,0.147-2.578,1.333-3.111
			c1.186-0.534,2.581-0.067,3.211,1.068c2.486,4.487,7.213,7.274,12.335,7.274c7.773,0,14.097-6.325,14.097-14.1
			c0-1.61-0.27-3.186-0.801-4.683c-0.435-1.225,0.142-2.579,1.327-3.114s2.583-0.073,3.214,1.063
			c1.566,2.814,2.394,6.013,2.394,9.25C374.699,571.454,366.131,580.022,355.601,580.022z"/>
	</g>
	<g>
		<path d="M339.364,569.992c-2.189,0-4.198-1.448-4.814-3.66c-1.547-5.56-0.837-11.388,1.999-16.411
			c2.836-5.025,7.459-8.644,13.018-10.188c5.556-1.547,11.383-0.839,16.407,1.997c5.024,2.836,8.644,7.46,10.19,13.02
			c0.74,2.66-0.816,5.417-3.477,6.157c-2.658,0.735-5.417-0.815-6.157-3.478c-0.831-2.985-2.774-5.468-5.471-6.99
			c-2.696-1.522-5.826-1.9-8.812-1.072c-2.986,0.83-5.468,2.772-6.991,5.47c-1.523,2.698-1.904,5.829-1.073,8.814
			c0.74,2.66-0.816,5.417-3.476,6.157C340.259,569.933,339.808,569.992,339.364,569.992z"/>
	</g>
</g>
<g id="arrow">
	<path fill="#fe6f48" d="M893.504,335.672c3.764,1.133,5.52-0.87,3.904-4.452L786.561,85.425c-1.615-3.581-4.258-3.581-5.873,0
		L669.842,331.22c-1.615,3.582,0.141,5.585,3.903,4.452l69.412-20.906c3.762-1.133,6.965,1.152,7.118,5.078l17.315,444.364
		c0.153,3.926,3.492,7.137,7.421,7.137h17.233c3.928,0,7.268-3.211,7.422-7.137l17.307-444.364c0.152-3.926,3.355-6.211,7.117-5.078
		L893.504,335.672z"/>
</g>
<g id="cap">
	<g>
		<path fill="#407fa2" d="M820.826,767.882c0,20.543-16.654,37.201-37.199,37.201c-20.546,0-37.199-16.658-37.199-37.201
			s16.653-37.201,37.199-37.201C804.172,730.681,820.826,747.339,820.826,767.882"/>
	</g>
	<g>
		<path d="M783.627,795.022c-14.297,0-25.929-11.631-25.929-25.928c0-2.762,2.239-5,5-5s5,2.238,5,5
			c0,8.782,7.146,15.928,15.929,15.928c8.782,0,15.928-7.146,15.928-15.928c0-2.762,2.238-5,5-5s5,2.238,5,5
			C809.555,783.392,797.924,795.022,783.627,795.022z"/>
	</g>
	<g>
		<path fill="#FFFFFF" d="M783.627,751.53c7.986,0,14.762,5.123,17.265,12.255h1.048c0-10.112-8.198-18.313-18.312-18.313
			c-10.115,0-18.313,8.201-18.313,18.313h1.047C768.865,756.653,775.64,751.53,783.627,751.53"/>
	</g>
	<g>
		<path fill="#FFFFFF" d="M803.439,765.285h-3.611l-0.352-1.003c-2.362-6.73-8.731-11.252-15.85-11.252
			c-7.118,0-13.487,4.521-15.851,11.252l-0.353,1.003h-3.61v-1.5c0-10.925,8.888-19.813,19.813-19.813s19.812,8.889,19.812,19.813
			V765.285z M783.627,750.03c6.261,0,12.03,2.967,15.711,7.769c-2.417-6.324-8.548-10.827-15.711-10.827
			s-13.294,4.503-15.712,10.827C771.597,752.997,777.367,750.03,783.627,750.03z"/>
	</g>
</g>
</svg>
