<?xml version="1.0" encoding="utf-8"?>
<!-- Generator: Adobe Illustrator 16.0.0, SVG Export Plug-In . SVG Version: 6.00 Build 0)  -->
<!DOCTYPE svg PUBLIC "-//W3C//DTD SVG 1.1//EN" "http://www.w3.org/Graphics/SVG/1.1/DTD/svg11.dtd">
<svg version="1.1" id="Layer_1" xmlns="http://www.w3.org/2000/svg" xmlns:xlink="http://www.w3.org/1999/xlink" x="0px" y="0px"
	 width="1567.25px" height="867.043px" viewBox="0 0 1567.25 867.043" enable-background="new 0 0 1567.25 867.043"
	 xml:space="preserve">
<path fill="#407fa2" d="M783.627,758.973h745.868l0.055-1.965c2.066-75.053-11.609-160.609-38.511-240.91
	c-16.076-47.984-36.767-93.921-61.494-136.531c-28.272-48.719-62-93.353-100.241-132.661
	c-63.664-65.441-139.916-116.451-226.639-151.615C1008.093,56.944,900.752,37.5,783.627,37.5"/>
<path fill="none" stroke="#407fa2" stroke-width="75" stroke-linejoin="round" stroke-miterlimit="10" d="M783.627,758.973h745.868
	l0.055-1.965c2.066-75.053-11.609-160.609-38.511-240.91c-16.076-47.984-36.767-93.921-61.494-136.531
	c-28.272-48.719-62-93.353-100.241-132.661c-63.664-65.441-139.916-116.451-226.639-151.615
	C1008.093,56.944,900.752,37.5,783.627,37.5"/>
<path d="M783.627,758.973H37.759l-0.055-1.965c-2.066-75.053,11.611-160.609,38.511-240.91
	c16.076-47.984,36.766-93.921,61.494-136.531c28.273-48.719,62-93.353,100.242-132.661
	c63.664-65.441,139.915-116.451,226.638-151.615C559.161,56.944,666.502,37.5,783.627,37.5"/>
<path fill="none" stroke="#000000" stroke-width="75" stroke-linejoin="round" stroke-miterlimit="10" d="M783.627,758.973H37.759
	l-0.055-1.965c-2.066-75.053,11.611-160.609,38.511-240.91c16.076-47.984,36.766-93.921,61.494-136.531
	c28.273-48.719,62-93.353,100.242-132.661c63.664-65.441,139.915-116.451,226.638-151.615C559.161,56.944,666.502,37.5,783.627,37.5
	"/>
<path fill="#407fa2" d="M783.627,784.065V218.684c-493.038,0-600.653,395.635-595.979,565.381H783.627z"/>
<path fill="none" stroke="#407fa2" stroke-width="10" stroke-linejoin="round" stroke-miterlimit="10" d="M783.627,784.065V218.684
	c-493.038,0-600.653,395.635-595.979,565.381H783.627z"/>
<path fill="#FFFFFF" d="M783.627,784.065V218.684c493.038,0,600.653,395.635,595.979,565.381H783.627z"/>
<path fill="none" stroke="#FFFFFF" stroke-width="10" stroke-linejoin="round" stroke-miterlimit="10" d="M783.627,784.065V218.684
	c493.038,0,600.653,395.635,595.979,565.381H783.627z"/>
<path fill="#FFFFFF" d="M1242.519,740.928c-44.545-212.59-233.062-372.243-458.892-372.243
	c-225.831,0-414.347,159.653-458.89,372.243c-5.174,24.691,1.506,37.891,65.515,37.891h257.457
	c26.397,0.107,52.545,11.049,71.413,32.178c16.738,17.322,39.949,27.365,64.505,27.365c24.555,0,47.767-10.043,64.505-27.365
	c18.868-21.129,45.016-32.068,71.413-32.178H1177C1241.011,778.817,1247.69,765.62,1242.519,740.928"/>
<path d="M783.627,848.36c24.555,0,47.767-10.043,64.505-27.365c18.868-21.129,45.016-32.068,71.413-32.178H1177
	c64.011,0,70.69-13.197,65.519-37.889c-44.545-212.592-233.062-372.245-458.892-372.245V848.36z"/>
<path fill="#FFFFFF" d="M783.627,378.685c-225.831,0-414.348,159.654-458.891,372.244c-5.173,24.691,1.506,37.891,65.516,37.891
	h257.457c26.397,0.107,52.545,11.049,71.413,32.178c16.737,17.322,39.948,27.365,64.505,27.365V378.685z"/>
<line fill="none" stroke="#000000" stroke-width="10" stroke-linecap="round" stroke-linejoin="round" stroke-miterlimit="10" x1="783.627" y1="348.736" x2="783.627" y2="862.043"/>
<path fill="#407fa2" d="M653.315,412.686l8.048,19.432c36.112-10.894,73.723-17.005,111.801-17.953v-20.936
	C732.324,394.197,691.988,400.824,653.315,412.686"/>
<path fill="#FFFFFF" d="M913.943,412.688c-38.671-11.864-79.013-18.491-119.854-19.459v20.935
	c38.079,0.948,75.691,7.06,111.807,17.953L913.943,412.688z"/>
<path fill="#407fa2" d="M537.006,493.215c32.169-23.037,67.369-41.367,104.418-54.564l-8.016-19.354
	c-39.591,14.213-77.147,34.028-111.373,58.948L537.006,493.215z"/>
<path fill="#FFFFFF" d="M1144.802,616.35c17.758,28.975,32.096,60.096,42.541,92.883c1.419,4.447,5.532,7.289,9.967,7.289
	c1.051,0,2.123-0.162,3.178-0.498c5.506-1.756,8.547-7.641,6.793-13.146c-10.622-33.334-25.092-65.029-42.93-94.621L1144.802,616.35
	z"/>
<path fill="#407fa2" d="M434.001,598.483c22.529-32.912,49.706-62.676,80.977-88.369c1.713-1.404,3.446-2.779,5.181-4.158
	l-14.884-14.883c-1.191,0.961-2.394,1.902-3.577,2.877c-33.961,27.896-63.315,60.379-87.425,96.359L434.001,598.483z"/>
<path fill="#407fa2" d="M366.767,716.022c5.499,1.758,11.389-1.287,13.144-6.791c10.447-32.787,24.784-63.912,42.544-92.885
	l-19.55-8.096c-17.839,29.596-32.309,61.287-42.932,94.625C358.219,708.383,361.261,714.268,366.767,716.022"/>
<path fill="#FFFFFF" d="M1030.247,493.215l14.972-14.973c-34.225-24.916-71.776-44.73-111.366-58.939l-8.015,19.353
	C962.881,451.854,998.08,470.178,1030.247,493.215"/>
<path fill="#FFFFFF" d="M1061.979,491.073l-14.884,14.883c1.733,1.379,3.468,2.754,5.179,4.158
	c31.271,25.697,58.45,55.459,80.979,88.373l19.729-8.174c-24.11-35.982-53.465-68.463-87.429-96.363
	C1064.373,492.975,1063.17,492.034,1061.979,491.073"/>
<path fill="#407fa2" d="M945.808,370.51c-9.167,0-16.597-7.429-16.597-16.597c0-1.938,0.334-3.794,0.943-5.521
	c-1.32,2.382-2.077,5.119-2.077,8.034c0,9.169,7.435,16.601,16.599,16.601c7.232,0,13.382-4.624,15.654-11.075
	C957.5,367.053,952.06,370.51,945.808,370.51"/>
<path fill="none" stroke="#407fa2" stroke-width="5" stroke-linejoin="round" stroke-miterlimit="10" d="M945.808,370.51
	c-9.167,0-16.597-7.429-16.597-16.597c0-1.938,0.334-3.794,0.943-5.521c-1.32,2.382-2.077,5.119-2.077,8.034
	c0,9.169,7.435,16.601,16.599,16.601c7.232,0,13.382-4.624,15.654-11.075C957.5,367.053,952.06,370.51,945.808,370.51z"/>
<path fill="none" stroke="#000000" stroke-width="10" stroke-linecap="round" stroke-linejoin="round" stroke-miterlimit="10" d="
	M928.93,351.594c2.458-8.831,11.609-13.997,20.439-11.54c8.832,2.457,14,11.611,11.541,20.445"/>
<path fill="#407fa2" d="M1091.265,447.584c-9.166,0-16.599-7.432-16.599-16.599c0-1.935,0.334-3.793,0.946-5.518
	c-1.321,2.377-2.078,5.119-2.078,8.033c0,9.169,7.434,16.599,16.599,16.599c7.231,0,13.38-4.627,15.654-11.078
	C1102.957,444.127,1097.517,447.584,1091.265,447.584"/>
<path fill="none" stroke="#407fa2" stroke-width="5" stroke-linejoin="round" stroke-miterlimit="10" d="M1091.265,447.584
	c-9.166,0-16.599-7.432-16.599-16.599c0-1.935,0.334-3.793,0.946-5.518c-1.321,2.377-2.078,5.119-2.078,8.033
	c0,9.169,7.434,16.599,16.599,16.599c7.231,0,13.38-4.627,15.654-11.078C1102.957,444.127,1097.517,447.584,1091.265,447.584z"/>
<path fill="none" stroke="#000000" stroke-width="10" stroke-linecap="round" stroke-linejoin="round" stroke-miterlimit="10" d="
	M1074.387,428.67c2.458-8.835,11.607-13.998,20.441-11.54c8.83,2.457,13.996,11.607,11.537,20.441"/>
<path fill="#407fa2" d="M1215.86,575.004c-9.168,0-16.598-7.432-16.598-16.6c0-1.936,0.333-3.795,0.943-5.52
	c-1.32,2.377-2.077,5.119-2.077,8.035c0,9.168,7.433,16.602,16.599,16.602c7.231,0,13.381-4.631,15.654-11.08
	C1227.553,571.547,1222.112,575.004,1215.86,575.004"/>
<path fill="none" stroke="#407fa2" stroke-width="5" stroke-linejoin="round" stroke-miterlimit="10" d="M1215.86,575.004
	c-9.168,0-16.598-7.432-16.598-16.6c0-1.936,0.333-3.795,0.943-5.52c-1.32,2.377-2.077,5.119-2.077,8.035
	c0,9.168,7.433,16.602,16.599,16.602c7.231,0,13.381-4.631,15.654-11.08C1227.553,571.547,1222.112,575.004,1215.86,575.004z"/>
<path fill="none" stroke="#000000" stroke-width="10" stroke-linecap="round" stroke-linejoin="round" stroke-miterlimit="10" d="
	M1198.979,556.088c2.461-8.834,11.611-13.998,20.442-11.539c8.831,2.455,13.998,11.607,11.539,20.441"/>
<path fill="#FFFFFF" d="M624.521,370.51c9.166,0,16.599-7.429,16.599-16.597c0-1.938-0.334-3.794-0.946-5.521
	c1.323,2.382,2.078,5.119,2.078,8.034c0,9.169-7.433,16.601-16.598,16.601c-7.233,0-13.381-4.624-15.654-11.075
	C612.829,367.053,618.271,370.51,624.521,370.51"/>
<path fill="none" stroke="#FFFFFF" stroke-width="5" stroke-linejoin="round" stroke-miterlimit="10" d="M624.521,370.51
	c9.166,0,16.599-7.429,16.599-16.597c0-1.938-0.334-3.794-0.946-5.521c1.323,2.382,2.078,5.119,2.078,8.034
	c0,9.169-7.433,16.601-16.598,16.601c-7.233,0-13.381-4.624-15.654-11.075C612.829,367.053,618.271,370.51,624.521,370.51z"/>
<path fill="none" stroke="#000000" stroke-width="10" stroke-linecap="round" stroke-linejoin="round" stroke-miterlimit="10" d="
	M641.399,351.594c-2.461-8.831-11.61-13.997-20.441-11.54s-13.998,11.611-11.539,20.445"/>
<path fill="#FFFFFF" d="M479.063,447.584c9.166,0,16.599-7.432,16.599-16.599c0-1.935-0.334-3.793-0.946-5.518
	c1.322,2.377,2.078,5.119,2.078,8.033c0,9.169-7.433,16.599-16.598,16.599c-7.232,0-13.383-4.627-15.654-11.078
	C467.372,444.127,472.812,447.584,479.063,447.584"/>
<path fill="none" stroke="#FFFFFF" stroke-width="5" stroke-linejoin="round" stroke-miterlimit="10" d="M479.063,447.584
	c9.166,0,16.599-7.432,16.599-16.599c0-1.935-0.334-3.793-0.946-5.518c1.322,2.377,2.078,5.119,2.078,8.033
	c0,9.169-7.433,16.599-16.598,16.599c-7.232,0-13.383-4.627-15.654-11.078C467.372,444.127,472.812,447.584,479.063,447.584z"/>
<path fill="none" stroke="#000000" stroke-width="10" stroke-linecap="round" stroke-linejoin="round" stroke-miterlimit="10" d="
	M495.942,428.67c-2.458-8.835-11.61-13.998-20.441-11.54c-8.831,2.457-13.998,11.607-11.538,20.441"/>
<path fill="#FFFFFF" d="M354.469,575.004c9.165,0,16.597-7.432,16.597-16.6c0-1.936-0.333-3.795-0.945-5.52
	c1.322,2.377,2.078,5.119,2.078,8.035c0,9.168-7.433,16.602-16.598,16.602c-7.232,0-13.382-4.631-15.654-11.08
	C342.776,571.547,348.217,575.004,354.469,575.004"/>
<path fill="none" stroke="#FFFFFF" stroke-width="5" stroke-linejoin="round" stroke-miterlimit="10" d="M354.469,575.004
	c9.165,0,16.597-7.432,16.597-16.6c0-1.936-0.333-3.795-0.945-5.52c1.322,2.377,2.078,5.119,2.078,8.035
	c0,9.168-7.433,16.602-16.598,16.602c-7.232,0-13.382-4.631-15.654-11.08C342.776,571.547,348.217,575.004,354.469,575.004z"/>
<path fill="none" stroke="#000000" stroke-width="10" stroke-linecap="round" stroke-linejoin="round" stroke-miterlimit="10" d="
	M371.347,556.088c-2.458-8.834-11.609-13.998-20.44-11.539c-8.831,2.455-13.998,11.607-11.539,20.441"/>
</svg>
