<?xml version="1.0" encoding="UTF-8" standalone="no"?>
<svg
xmlns:dc="http://purl.org/dc/elements/1.1/"
xmlns:cc="http://creativecommons.org/ns#"
xmlns:rdf="http://www.w3.org/1999/02/22-rdf-syntax-ns#"
xmlns:svg="http://www.w3.org/2000/svg"
xmlns="http://www.w3.org/2000/svg"
version="1.1"
width="100%"
height="100%"
viewBox="0 0 302.014 352.814"
id="trash"
xml:space="preserve"><g
id="basket-back"><path
d="M 254.419,11.508 C 226.7,4.087 189.974,0 151.005,0 112.038,0 75.312,4.087 47.594,11.509 16.013,19.964 0,31.543 0,45.924 v 10.455 c 0,0.005 0,0.014 0,0.019 0,0.942 0.086,1.919 0.257,2.934 0.029,0.212 0.062,0.423 0.107,0.634 0.194,0.982 0.47,1.831 0.688,2.467 0.012,0.03 0.054,0.15 0.064,0.185 0.066,0.2 0.139,0.398 0.236,0.654 0.833,2.101 2.061,4.11 3.64,6.034 L 55.684,321.73 c -0.061,0.5 -0.097,1.004 -0.097,1.515 0,9.419 10.23,16.936 30.413,22.338 17.433,4.668 40.518,7.238 65.002,7.238 24.483,0 47.57,-2.57 65.003,-7.238 20.181,-5.402 30.412,-12.919 30.412,-22.338 0,-0.51 -0.036,-1.014 -0.097,-1.513 L 297.017,69.293 c 1.525,-1.86 2.727,-3.805 3.553,-5.834 0.127,-0.308 0.237,-0.62 0.348,-0.931 l 0.046,-0.132 c 0.018,-0.048 0.033,-0.098 0.05,-0.146 0.208,-0.63 0.443,-1.373 0.617,-2.24 0.048,-0.229 0.087,-0.463 0.125,-0.729 0.172,-1.029 0.255,-1.972 0.255,-2.879 V 45.924 C 302.013,31.543 286,19.964 254.419,11.508 z m 24.73,41.449 0.599,1.214 c -0.539,0.354 -1.113,0.708 -1.719,1.066 l 1.12,-2.28 z M 264.657,40.911 c 4.136,1.528 7.803,3.149 10.937,4.811 l 0.213,0.434 10e-4,10e-4 -6.608,13.445 c -0.142,0.059 -0.284,0.118 -0.428,0.177 l -6.692,-13.624 2.577,-5.244 z m 1.164,46.435 -1.649,3.358 -1.194,-2.431 c 0.958,-0.302 1.909,-0.611 2.843,-0.927 z m -13.122,-22.104 6.036,-12.285 4.414,8.982 c -3.133,1.119 -6.607,2.225 -10.45,3.303 z m 6.24,-26.296 -0.201,0.409 -10e-4,-10e-4 -0.271,-0.559 c 0.156,0.051 0.314,0.1 0.473,0.151 z m -12.054,-3.401 c 0.272,0.068 0.548,0.135 0.82,0.202 0.442,0.111 0.892,0.228 1.354,0.351 0.543,0.141 1.068,0.285 1.604,0.43 l 4.729,9.629 -6.86,13.963 -0.002,0.001 -6.86,-13.963 5.215,-10.613 z m -1.696,31.375 -0.151,0.313 c -0.339,0.082 -0.659,0.165 -1.002,0.246 -3.57,0.842 -7.299,1.625 -11.14,2.358 l -1.432,-2.916 6.863,-13.965 6.862,13.964 0,0 z m -7.443,-33.466 1.921,0.401 c 0.416,0.091 0.815,0.184 1.227,0.274 l -2.564,5.225 -3.159,-6.43 c 0.865,0.175 1.724,0.352 2.575,0.53 z m -2.762,12.702 -6.861,13.965 -6.863,-13.965 h -0.001 l 6.864,-13.966 6.861,13.966 z m -19.712,85.283 1.836,-3.735 -1.836,3.735 -8.873,18.057 -8.873,-18.056 8.873,-18.059 5.57,-11.336 1.761,-3.582 c 4.508,-0.573 8.938,-1.223 13.274,-1.931 l 2.71,5.515 -8.871,18.056 -8.872,-18.057 -5.572,11.336 8.873,18.057 z m -86.662,117.558 -8.873,18.055 -8.873,-18.055 8.873,-18.055 8.873,18.055 z m -3.301,-29.391 8.871,-18.05 8.873,18.054 -8.87,18.051 -8.874,-18.055 z m 14.442,-29.388 8.874,-18.056 8.873,18.054 v 0.001 l -8.874,18.059 -8.873,-18.058 z m 14.569,-87.917 c 5.799,-0.036 11.66,-0.172 17.543,-0.405 l 0.075,0.15 0.077,-0.155 h 0.001 l -0.078,0.156 -8.872,18.056 -2.735,5.568 2.735,-5.569 -8.746,-17.801 z m -4.5,-35.378 6.862,-13.964 h 0.002 l 6.861,13.965 h 0.001 l -4.848,9.865 c -1.334,0.021 -2.674,0.03 -4.014,0.04 l -4.864,-9.906 z m 15.635,9.723 1.435,-2.919 v 10e-4 l -1.435,2.918 z m 34.365,23.351 1.01,2.05 -8.874,18.058 -8.873,-18.06 0.362,-0.739 c 5.492,-0.343 10.957,-0.789 16.375,-1.309 z m -9.177,-33.073 6.863,-13.965 6.861,13.962 -3.696,7.521 c -2.001,0.201 -4.021,0.389 -6.056,0.564 l -3.972,-8.082 z m -11.179,9.145 c -1.535,0.084 -3.074,0.164 -4.622,0.234 l -4.609,-9.382 6.863,-13.965 6.862,13.964 -4.494,9.149 z m -16.397,66.703 8.873,18.055 5.572,-11.336 -8.874,-18.056 8.871,-18.056 8.873,18.059 -8.87,18.053 -5.571,11.336 -8.873,18.054 -8.874,-18.055 8.873,-18.054 z m 0,58.783 8.874,18.055 -8.874,18.056 -8.873,-18.056 8.873,-18.055 z m 5.572,-11.337 8.873,-18.054 8.872,18.059 5.57,-11.34 -8.873,-18.055 8.872,-18.053 8.873,18.056 -8.872,18.053 -5.57,11.339 -8.872,18.054 -8.873,-18.059 z m 42.414,-123.298 6.86,-13.962 h 10e-4 l 6.861,13.965 -2.323,4.732 c -2.771,0.436 -5.6,0.844 -8.472,1.228 l -2.927,-5.963 z m 3.75,-37.372 0.808,0.112 c 1.035,0.14 2.078,0.281 3.109,0.433 0.372,0.057 0.737,0.111 1.103,0.172 l 0.656,0.102 c 0.572,0.086 1.146,0.181 1.723,0.271 l -4.285,8.721 -4.94,-10.058 c 0.613,0.078 1.219,0.162 1.826,0.247 z m -0.23,16.608 -6.862,13.963 -6.86,-13.962 v -10e-4 l 6.861,-13.962 6.861,13.962 z M 194.434,27.299 c 1.106,0.096 2.206,0.194 3.324,0.304 l 0.181,0.017 c 0.93,0.086 1.854,0.172 2.784,0.267 0.764,0.077 1.527,0.159 2.302,0.243 l -5.52,11.229 -6.045,-12.302 c 0.99,0.075 1.973,0.155 2.974,0.242 z m -0.271,18.857 -6.862,13.965 -6.862,-13.964 6.862,-13.965 6.862,13.964 z M 171.706,25.877 c 0.772,0.031 1.542,0.066 2.311,0.104 l 0.903,0.042 c 1.162,0.052 2.323,0.104 3.481,0.166 0.99,0.052 1.975,0.106 2.975,0.168 0.688,0.039 1.372,0.08 2.048,0.122 l -6.328,12.877 -6.646,-13.521 c 0.418,0.014 0.84,0.025 1.256,0.042 z m -4.816,6.314 6.861,13.965 h 0.001 l -6.862,13.966 h -10e-4 l -6.863,-13.965 h -0.001 l 6.863,-13.966 h 0.002 z m -8.874,-6.673 c 0.511,0.005 1.02,0.016 1.524,0.024 l 0.774,0.019 c 1.052,0.017 2.081,0.04 3.115,0.061 l -6.748,13.734 V 39.355 L 149.86,25.478 c 2.718,-0.006 5.439,0.003 8.156,0.04 z m -4.676,20.639 0,0 -6.862,13.966 v -10e-4 l -6.861,-13.966 -0.003,-10e-4 6.864,-13.964 6.862,13.966 z m -6.861,27.569 -1.518,3.087 h -0.001 l 1.519,-3.087 0,0 z m -64.5,116.492 8.873,-18.054 8.871,18.05 -8.873,18.056 v 10e-4 l -8.871,-18.053 z m 3.299,29.387 -8.87,18.054 -8.871,-18.051 8.872,-18.053 8.869,18.05 z m 11.144,-58.777 8.871,-18.05 8.871,18.05 -8.871,18.049 -8.871,-18.049 z m 14.442,-29.386 8.874,-18.059 8.87,18.053 5.572,-11.336 -8.871,-18.053 0.177,-0.358 c 5.843,0.285 11.68,0.472 17.466,0.562 l -8.771,17.852 -5.571,11.336 -8.874,18.056 -8.872,-18.053 z m 7.483,-55.618 c -1.722,-0.109 -3.439,-0.222 -5.144,-0.349 L 109,66.923 l 6.861,-13.966 6.861,13.961 -4.375,8.906 z m 6.503,0.372 1.216,-2.474 10e-4,0.001 -1.215,2.473 c -0.001,0 -0.001,0 -0.002,0 z m 13.481,0.502 c -1.398,-0.034 -2.787,-0.081 -4.18,-0.125 l -4.742,-9.653 -0.001,-0.001 6.86,-13.962 0.001,10e-4 6.862,13.965 v 0.001 l -4.8,9.774 z m -8.023,-50.821 c 1.188,-0.048 2.386,-0.084 3.583,-0.122 l 3.208,-0.104 c 1.523,-0.039 3.062,-0.065 4.61,-0.091 l 0.768,-0.018 c 0.192,-0.004 0.395,-0.006 0.586,-0.01 l -6.792,13.819 -6.608,-13.449 c 0.215,-0.006 0.428,-0.017 0.645,-0.025 z m 2.621,20.279 -6.862,13.962 -6.859,-13.963 6.859,-13.962 6.862,13.963 z M 110.593,27.048 c 1.144,-0.092 2.289,-0.179 3.491,-0.265 0.622,-0.048 1.247,-0.09 1.873,-0.133 l 1.058,-0.073 c 1.201,-0.077 2.409,-0.153 3.644,-0.223 0.544,-0.032 1.095,-0.062 1.641,-0.092 l -6.436,13.092 -6.018,-12.245 c 0.249,-0.02 0.495,-0.041 0.747,-0.061 z m 1.927,19.107 0,0 -6.861,13.967 v -10e-4 l -6.863,-13.964 6.864,-13.966 6.86,13.964 z m -10.206,20.768 -3.559,7.242 C 96.394,73.913 94.06,73.645 91.754,73.359 L 88.59,66.92 95.451,52.959 h 0.001 l 6.862,13.964 z m -11.18,-37.89 1.195,-0.147 c 0.934,-0.112 1.861,-0.229 2.832,-0.342 0.912,-0.105 1.84,-0.207 2.762,-0.304 l 0.197,-0.021 c 0.979,-0.104 1.963,-0.212 2.96,-0.312 l -5.628,11.451 -5.03,-10.234 c 0.237,-0.032 0.474,-0.062 0.712,-0.091 z m 0.975,17.124 -6.859,13.961 -6.862,-13.961 10e-4,-0.002 6.86,-13.961 6.86,13.963 z m -39.018,85.282 8.873,-18.058 8.871,18.055 5.571,-11.336 -8.871,-18.055 3.068,-6.246 c 4.103,0.725 8.304,1.383 12.574,1.98 l 2.098,4.268 1.835,-3.732 c 0,0 0,0 0.001,0 l -1.834,3.73 -8.869,18.053 -5.571,11.336 -8.875,18.056 -8.871,-18.051 z m 3.301,29.386 -8.872,18.052 -8.872,-18.05 8.873,-18.052 8.871,18.05 z m 1.597,-93.347 c -3.324,-0.785 -6.405,-1.597 -9.304,-2.419 l 5.947,-12.104 6.862,13.964 -0.597,1.212 C 59.926,67.916 58.942,67.703 57.989,67.478 z M 68.18,66.922 75.042,52.958 81.903,66.92 h 0.003 l -2.328,4.736 C 76.186,71.123 72.884,70.549 69.662,69.938 L 68.18,66.922 z m 4.39,-35.091 0.883,-0.147 c 1.926,-0.341 3.883,-0.659 5.838,-0.97 l -4.248,8.642 -3.593,-7.313 c 0.373,-0.073 0.742,-0.145 1.12,-0.212 z m -8.357,1.632 0.116,-0.022 c 0.336,-0.07 0.677,-0.144 1.018,-0.212 L 71.7,46.155 64.837,60.12 57.976,46.156 64.213,33.463 z m -9.895,2.279 c 0.779,-0.197 1.571,-0.392 2.377,-0.586 l -2.062,4.198 -1.611,-3.279 c 0.424,-0.112 0.853,-0.222 1.296,-0.333 z m -13.592,3.977 c 0.019,-0.005 0.034,-0.012 0.051,-0.018 l 0.691,-0.234 c 1.02,-0.338 2.065,-0.671 3.125,-1.005 l 0.911,-0.276 c 0.535,-0.161 1.076,-0.322 1.629,-0.483 l 4.155,8.455 -6.862,13.962 -6.862,-13.964 3.162,-6.437 z m -6.504,13.238 4.363,8.88 C 35.9,60.873 33.47,59.903 31.283,58.938 l 2.939,-5.981 z m 0.715,33.965 -1.859,3.788 -2.684,-5.458 c 1.474,0.571 2.987,1.129 4.543,1.67 z M 19.446,50.192 c 0.029,-0.03 0.063,-0.061 0.099,-0.087 2.55,-2.052 6.046,-4.107 10.29,-6.079 l 1.046,2.129 -4.99,10.152 c -2.142,-1.161 -3.939,-2.303 -5.421,-3.4 l -1.241,-2.524 c 0.073,-0.062 0.143,-0.131 0.217,-0.191 z m -1.162,34.506 0.347,-0.706 8.874,18.054 -4.072,8.287 -5.149,-25.635 z m 11.783,58.668 -3.4,-16.94 6.41,-13.044 5.569,-11.336 5.946,-12.098 c 2.186,0.62 4.438,1.212 6.732,1.784 l 5.067,10.312 -8.873,18.058 -8.873,-18.059 -5.569,11.336 8.873,18.059 -8.873,18.052 -3.009,-6.124 z m 10.126,50.42 -2.426,-12.078 4.183,8.506 -1.757,3.572 z m 3.233,16.096 4.094,-8.33 8.873,18.058 5.57,-11.336 -8.873,-18.058 10e-4,-0.002 8.872,-18.051 8.873,18.054 5.572,-11.336 -8.874,-18.054 10e-4,-0.003 8.872,-18.052 8.871,18.055 5.572,-11.336 -8.874,-18.055 0.001,-0.003 8.87,-18.05 8.873,18.057 5.57,-11.336 -8.872,-18.057 10e-4,-0.002 1.223,-2.486 c 5.275,0.558 10.62,1.021 15.991,1.405 l 0.532,1.082 0.492,-1.001 c 0,0 0,0 0.001,0 l -0.492,1.001 -8.874,18.06 -5.57,11.336 -8.871,18.05 -5.569,11.336 -8.873,18.055 -5.571,11.336 -8.872,18.056 -5.57,11.337 -7.817,15.909 -5.153,-25.639 z m 9.665,39.117 8.873,-18.054 8.871,18.051 -8.873,18.054 -8.871,-18.051 z m 18.732,56.765 4.583,-9.324 -8.872,-18.053 -5.573,11.337 8.253,16.79 c -2.522,1.199 -4.752,2.461 -6.619,3.794 l -3.409,-16.974 1.775,-3.61 5.571,-11.336 8.871,-18.058 5.571,-11.337 8.872,-18.053 5.57,-11.337 8.873,-18.058 5.569,-11.336 8.871,-18.05 5.571,-11.336 8.874,-18.057 5.57,-11.336 8.873,-18.057 8.873,18.056 -0.001,0.001 -8.872,18.054 -8.873,-18.054 -5.569,11.335 8.871,18.055 -8.873,18.056 -8.872,-18.054 -5.571,11.337 8.872,18.053 -8.871,18.054 -8.872,-18.057 -5.569,11.336 8.873,18.056 v 0.001 l -8.873,18.055 -8.872,-18.055 -5.57,11.337 8.873,18.053 v 0.001 l -8.872,18.052 -8.873,-18.053 -5.569,11.337 8.87,18.054 1.838,-3.733 -1.838,3.736 -8.871,18.055 -4.583,9.323 z m 14.18,-4.861 c -0.259,0.069 -0.497,0.143 -0.752,0.213 l 5.599,-11.393 4.427,9.006 c -3.238,0.664 -6.338,1.388 -9.274,2.174 z m 19.29,-4.461 -0.267,0.538 0.267,-0.538 -8.873,-18.057 8.872,-18.055 8.874,18.058 -8.873,18.054 z m 11.643,-1.019 2.801,-5.696 2.548,5.181 c -1.803,0.157 -3.59,0.326 -5.349,0.515 z m 18.432,-1.394 c -0.776,0.036 -1.542,0.082 -2.313,0.123 l -7.748,-15.764 8.873,-18.058 8.874,18.06 -7.686,15.639 z m 11.306,-0.335 1.95,-3.968 1.938,3.941 c -1.299,0.004 -2.596,0.012 -3.888,0.027 z m 1.951,-26.64 -8.873,-18.06 8.871,-18.051 8.873,18.057 -8.871,18.054 z m 15.681,26.871 c -0.83,-0.03 -1.675,-0.047 -2.51,-0.071 l -7.601,-15.46 8.871,-18.055 8.871,18.054 5.57,-11.338 -8.87,-18.052 8.874,-18.056 8.87,18.05 5.57,-11.336 -8.87,-18.05 8.872,-18.055 8.871,18.049 5.569,-11.335 -8.871,-18.05 8.872,-18.056 5.569,-11.336 8.874,-18.056 5.571,-11.336 8.872,-18.057 5.569,-11.336 4.438,-9.03 c 2.705,-0.61 5.348,-1.252 7.922,-1.927 l 5.383,10.953 -10e-4,0.002 -8.871,18.054 -8.87,-18.05 -5.569,11.336 8.87,18.051 -8.871,18.055 -8.87,-18.051 -5.571,11.337 8.87,18.05 -8.873,18.056 -8.871,-18.05 -5.57,11.336 8.871,18.05 -8.871,18.055 -5.569,11.336 -8.873,18.055 -5.57,11.336 -8.874,18.058 -5.57,11.338 -7.633,15.532 z m 10.84,0.608 2.362,-4.808 2.562,5.211 c -1.627,-0.145 -3.266,-0.282 -4.924,-0.403 z m 27.241,3.355 4.011,-8.161 4.922,10.014 c -2.86,-0.668 -5.835,-1.289 -8.933,-1.853 z m 36.03,12.42 c -2.783,-1.985 -6.314,-3.822 -10.536,-5.518 l 7.404,-15.065 5.156,10.493 -2.024,10.09 z m 5.258,-26.183 -2.819,-5.734 0.001,-0.002 6.718,-13.666 -3.9,19.402 z m 11.599,-57.75 -5.547,11.286 -5.569,11.336 -8.872,18.052 -5.57,11.337 -8.873,18.058 -2.515,5.117 h -0.001 l 2.515,-5.118 -8.87,-18.05 v -10e-4 l 8.873,-18.057 8.87,18.051 5.57,-11.337 -8.87,-18.05 v -0.001 l 8.871,-18.052 8.869,18.051 5.572,-11.336 -8.871,-18.051 v -0.001 l 8.873,-18.059 7.478,15.213 -1.933,9.612 z m 5.162,-25.705 -5.137,-10.454 8.872,-18.053 1.413,2.875 -5.148,25.632 z m 16.761,-83.454 -7.453,-15.171 -5.571,11.336 8.872,18.058 2.193,-4.467 -10e-4,0.004 -2.191,4.463 -8.873,18.053 -8.872,-18.054 -5.57,11.336 8.873,18.054 -8.873,18.054 -5.569,11.336 -8.873,18.06 -5.571,11.336 -8.871,18.053 -5.57,11.336 -8.873,18.057 -5.568,11.337 -8.787,17.877 c -0.062,-0.01 -0.125,-0.018 -0.188,-0.023 l -8.772,-17.853 0.001,-0.002 8.872,-18.057 8.873,18.057 5.568,-11.338 -8.872,-18.055 0.001,-0.002 8.872,-18.053 8.87,18.052 5.57,-11.336 -8.873,-18.055 -2.736,5.567 2.736,-5.568 8.872,-18.052 8.871,18.053 5.571,-11.336 -8.872,-18.055 10e-4,-10e-4 8.872,-18.055 8.872,18.053 5.57,-11.336 -8.873,-18.053 0.001,-0.001 8.872,-18.054 5.57,-11.336 8.872,-18.056 5.571,-11.336 8.869,-18.052 1.102,-2.237 c 0,0 0.001,0 0.002,-0.001 l -1.101,2.238 3.729,7.592 -5.145,25.633 z"
class="change-color"
style="fill:#407fa2" />
</g><g
id="basket-bottom"><path
d="m 240.92,323.239 c 0,13.299 -40.255,24.076 -89.915,24.076 -49.66,0 -89.915,-10.777 -89.915,-24.076 0,-13.295 40.255,-24.072 89.915,-24.072 49.66,0 89.915,10.777 89.915,24.072"
style="fill:#000000" />
</g><g
style="opacity:0"
id="paper"><g
transform="matrix(0.35238316,0.93585582,0.93585582,-0.35238316,-150.00365,136.28867)"
class="paper"
id="paper-2"><g><path
d="m 116.826,323.093 c 0.166,0 0.335,0.014 0.504,0.043 l 15.217,2.588 8.033,-13.902 -0.383,-4.09 c -0.151,-1.607 0.998,-3.045 2.6,-3.254 1.602,-0.215 3.081,0.889 3.346,2.482 l 0.055,0.328 h 2.604 c 0.591,0 1.17,0.176 1.662,0.504 l 13.101,8.719 25.87,6.539 13.115,-1.475 11.203,-11.203 c 0.268,-0.268 0.583,-0.482 0.931,-0.633 1.764,-0.762 3.255,-1.338 4.466,-1.725 0.023,-2.52 0.14,-5.791 0.172,-6.658 0.033,-0.885 0.455,-1.709 1.153,-2.254 l 5.643,-4.398 c 2.531,-17.994 2.902,-18.09 5.062,-18.646 l 4.625,-1.119 -7.501,-11.252 -16.811,-9.201 c -0.962,-0.525 -1.56,-1.535 -1.56,-2.631 v -5.514 c 0,-1.372 0.932,-2.569 2.262,-2.907 l 10.776,-2.737 3.827,-3.826 c 0.265,-0.266 0.576,-0.479 0.919,-0.628 l 15.843,-6.931 v -6.822 l -2.598,-1.573 c -0.983,-0.6 -1.253,-0.766 -15.443,-30.241 l -17.243,-9.875 h -13.629 c 0.14,0.225 0.285,0.454 0.434,0.691 0.653,1.039 0.605,2.373 -0.119,3.365 -0.725,0.99 -1.98,1.44 -3.171,1.135 l -7.083,-1.826 -17.553,-3.42 c -1.064,-0.209 -1.936,-0.976 -2.275,-2.006 -0.972,-2.949 -2.284,-6.398 -3.215,-8.361 -1.969,0.548 -5.268,0.991 -10.955,1.045 l -5.761,5.281 c -0.819,0.752 -1.987,0.988 -3.035,0.614 l -21.956,-7.833 c -1.459,-0.408 -5.426,-1.377 -7.842,-1.395 -0.155,0.505 -0.404,0.99 -0.742,1.437 -2.203,2.918 -9.072,4.345 -13.242,4.958 l -11.449,26.021 c -0.053,0.121 -0.115,0.238 -0.184,0.352 l -7.28,11.962 v 9.081 c 0,0.342 -0.059,0.682 -0.173,1.004 l -2.021,5.695 c -0.207,0.585 -0.59,1.091 -1.097,1.449 l -11.675,8.239 -5.799,18.167 v 8.135 l 5.996,9.586 4.691,-4.693 c 0.596,-0.596 1.412,-0.91 2.26,-0.875 0.844,0.039 1.632,0.432 2.17,1.082 l 4.957,5.975 c 0.639,0.771 0.852,1.811 0.566,2.771 l -4.023,13.516 10.205,8.291 c 0.763,0.619 1.174,1.572 1.1,2.553 l -0.931,12.416 28.417,10.104 0.281,-0.562 c 0.513,-1.032 1.56,-1.662 2.683,-1.662 z"
style="fill:#ffffff" /></g><g><path
d="m 248.114,218.233 -3.413,-2.067 c -1.711,-3.174 -9.409,-19.022 -14.18,-28.934 -0.263,-0.546 -0.686,-1.001 -1.212,-1.302 l -18.744,-10.734 c -0.454,-0.26 -0.968,-0.396 -1.491,-0.396 h -19.846 c -1.09,0 -2.095,0.592 -2.623,1.545 -0.349,0.628 -0.455,1.348 -0.321,2.031 l -0.165,-0.043 c -0.059,-0.016 -0.116,-0.028 -0.175,-0.04 l -15.927,-3.104 c -3.963,-11.563 -5.725,-11.563 -7.43,-11.563 -0.854,0 -1.654,0.326 -2.269,0.912 -1.354,0.48 -6.224,0.889 -10.783,0.89 -0.75,0 -1.474,0.282 -2.027,0.788 l -5.281,4.844 -20.35,-7.26 c -0.061,-0.021 -0.123,-0.041 -0.186,-0.059 -0.593,-0.17 -5.9,-1.65 -9.642,-1.65 -0.83,0 -3.356,0 -4.827,1.723 -0.56,0.656 -0.88,1.453 -0.938,2.308 -1.494,0.916 -6.211,2.11 -10.579,2.636 -1.053,0.127 -1.961,0.801 -2.388,1.771 l -12.047,27.38 -7.614,12.51 c -0.286,0.471 -0.438,1.01 -0.438,1.561 v 9.406 l -1.53,4.311 -11.718,8.271 c -0.533,0.376 -0.929,0.916 -1.128,1.539 l -6.247,19.57 c -0.095,0.295 -0.142,0.602 -0.142,0.912 v 9.463 c 0,0.562 0.158,1.113 0.456,1.59 l 8.452,13.512 c 0.484,0.775 1.297,1.287 2.205,1.391 0.912,0.113 1.814,-0.213 2.46,-0.859 l 5.028,-5.029 1.83,2.205 -4.137,13.9 c -0.346,1.162 0.043,2.418 0.984,3.184 l 10.543,8.566 -0.985,13.137 c -0.101,1.348 0.712,2.598 1.987,3.051 l 33.076,11.76 c 0.332,0.117 0.67,0.174 1.005,0.174 1.108,0 2.164,-0.617 2.685,-1.66 l 0.474,-0.949 15.081,2.566 c 1.236,0.215 2.473,-0.371 3.101,-1.457 l 9.556,-16.537 c 0.129,-0.225 0.227,-0.461 0.295,-0.707 h 1.346 l 12.774,8.502 c 0.283,0.189 0.597,0.328 0.927,0.41 l 26.896,6.801 c 0.35,0.088 0.712,0.113 1.07,0.072 l 14.701,-1.652 c 0.676,-0.076 1.306,-0.379 1.786,-0.859 l 11.534,-11.535 c 1.796,-0.754 3.679,-1.436 4.395,-1.59 0.719,0.047 1.468,-0.168 2.061,-0.635 0.797,-0.627 1.224,-1.615 1.134,-2.625 -0.073,-0.816 0.003,-4.33 0.096,-7.205 l 5.495,-4.283 c 0.614,-0.479 1.019,-1.178 1.126,-1.949 0.824,-5.889 1.845,-12.449 2.418,-15.266 l 7.077,-1.713 c 0.952,-0.23 1.732,-0.91 2.089,-1.822 0.356,-0.914 0.245,-1.941 -0.298,-2.758 l -10.29,-15.436 c -0.269,-0.402 -0.631,-0.734 -1.056,-0.967 l -15.897,-8.703 v -1.4 l 9.314,-2.366 c 0.523,-0.133 1.001,-0.405 1.383,-0.786 l 4.01,-4.01 17.122,-7.491 c 1.092,-0.478 1.798,-1.557 1.798,-2.749 V 220.8 c 0,-1.05 -0.548,-2.024 -1.446,-2.567 z m -4.554,11.078 -15.843,6.931 c -0.343,0.149 -0.654,0.362 -0.919,0.628 l -3.827,3.826 -10.776,2.737 c -1.33,0.338 -2.262,1.535 -2.262,2.907 v 5.514 c 0,1.096 0.598,2.105 1.56,2.631 l 16.811,9.201 7.501,11.252 -4.625,1.119 c -2.159,0.557 -2.53,0.652 -5.062,18.646 l -5.643,4.398 c -0.698,0.545 -1.12,1.369 -1.153,2.254 -0.032,0.867 -0.148,4.139 -0.172,6.658 -1.211,0.387 -2.702,0.963 -4.466,1.725 -0.348,0.15 -0.663,0.365 -0.931,0.633 l -11.203,11.203 -13.115,1.475 -25.87,-6.539 -13.101,-8.719 c -0.492,-0.328 -1.071,-0.504 -1.662,-0.504 h -2.604 l -0.055,-0.328 c -0.207,-1.25 -1.168,-2.189 -2.344,-2.436 l -4.238,-39.102 v -0.012 c -0.01,-0.086 -0.057,-0.168 -0.133,-0.221 l -9.953,-6.693 -8.067,-5.742 -6.992,-7.162 -0.776,-8.49 c -0.009,-0.094 -0.045,-0.186 -0.111,-0.262 l -0.008,-0.01 -9.771,-11.432 23.652,-2.896 -2.828,6.834 c -0.032,0.08 -0.053,0.172 -0.054,0.266 v 0.018 l -0.239,20.396 v 0.023 c 0.006,0.551 0.459,0.994 1.013,0.988 0.551,-0.008 0.993,-0.461 0.987,-1.012 l -0.237,-20.26 2.895,-7.488 c 0.435,-0.16 0.723,-0.59 0.652,-1.066 -0.037,-0.252 -0.172,-0.461 -0.353,-0.613 l -0.101,-8.511 9.018,-23.348 20.04,-7.493 -20.319,7.06 c -0.063,0.022 -0.119,0.071 -0.146,0.138 l -0.002,0.006 -9.646,23.336 c -0.023,0.057 -0.037,0.123 -0.039,0.189 v 0.014 l -0.1,8.455 -25.629,3.764 -0.017,0.002 c -0.128,0.018 -0.252,0.074 -0.354,0.166 -0.279,0.25 -0.303,0.68 -0.053,0.959 l 10.798,12.039 0.977,8.438 v 0.01 c 0.01,0.082 0.047,0.162 0.11,0.223 l 7.279,7.107 0.004,0.006 0.031,0.025 8.223,5.559 9.631,6.893 3.094,39.07 c -1.185,0.494 -1.964,1.701 -1.838,3.037 l 0.383,4.09 -8.033,13.902 -15.217,-2.588 c -0.169,-0.029 -0.338,-0.043 -0.504,-0.043 -1.123,0 -2.17,0.631 -2.684,1.66 l -0.281,0.562 -28.417,-10.104 0.931,-12.416 c 0.074,-0.98 -0.337,-1.934 -1.1,-2.553 l -10.205,-8.291 4.023,-13.516 c 0.285,-0.961 0.072,-2 -0.566,-2.771 l -4.957,-5.975 c -0.538,-0.65 -1.326,-1.043 -2.17,-1.082 -0.848,-0.035 -1.664,0.279 -2.26,0.875 l -4.691,4.693 -5.996,-9.586 v -8.135 l 5.799,-18.167 11.675,-8.239 c 0.507,-0.358 0.89,-0.864 1.097,-1.449 l 2.021,-5.695 c 0.114,-0.322 0.173,-0.662 0.173,-1.004 v -9.081 l 7.28,-11.962 c 0.068,-0.113 0.131,-0.23 0.184,-0.352 l 11.449,-26.021 c 4.17,-0.613 11.039,-2.04 13.242,-4.958 0.338,-0.446 0.587,-0.932 0.742,-1.437 2.416,0.018 6.383,0.986 7.842,1.395 l 21.956,7.833 c 1.048,0.374 2.216,0.138 3.035,-0.614 l 5.761,-5.281 c 5.688,-0.054 8.986,-0.497 10.955,-1.045 0.931,1.963 2.243,5.412 3.215,8.361 0.34,1.03 1.211,1.797 2.275,2.006 l 17.553,3.42 7.083,1.826 c 1.19,0.306 2.446,-0.145 3.171,-1.135 0.725,-0.992 0.772,-2.326 0.119,-3.365 -0.148,-0.237 -0.294,-0.467 -0.434,-0.691 h 13.629 l 17.243,9.875 c 14.19,29.476 14.46,29.642 15.443,30.241 l 2.598,1.573 v 6.824 z"
style="fill:#407fa2" /><path
d="m 154.407,196.635 7.724,7.739 5.199,22.034 c 0.017,0.07 0.053,0.139 0.108,0.191 l 0.004,0.006 16.887,16.631 -8.467,4.26 c -0.319,0.162 -0.469,0.545 -0.329,0.883 l 0.004,0.01 4.764,11.619 -5.097,22.689 c -0.001,0.002 -0.002,0.012 -0.003,0.016 -0.113,0.541 0.235,1.07 0.776,1.182 0.539,0.113 1.069,-0.234 1.182,-0.775 l 4.771,-23.012 0.002,-0.012 c 0.031,-0.152 0.019,-0.316 -0.047,-0.469 l -4.807,-11.189 7.883,-4.131 c 0.055,0.024 0.103,0.062 0.163,0.076 0.535,0.135 1.078,-0.193 1.212,-0.729 l 7.737,-31.125 4.321,-0.059 8.795,9.094 0.008,0.006 c 0.029,0.031 0.066,0.057 0.108,0.072 l 21.612,7.977 -21.315,-8.535 -8.647,-9.441 c -0.085,-0.092 -0.207,-0.152 -0.343,-0.154 H 198.6 l -4.962,-0.068 c -0.242,-0.002 -0.467,0.156 -0.535,0.402 l -0.004,0.014 -8.364,30.111 -16.639,-15.854 -5.55,-21.887 c -0.01,-0.037 -0.029,-0.076 -0.061,-0.105 l -7.844,-7.602 3.553,-15.264 -3.823,15.275 c -0.01,0.043 0.002,0.093 0.036,0.124 z"
style="fill:#407fa2" /><path
d="m 88.432,245.245 c -0.277,-0.352 -0.785,-0.41 -1.136,-0.133 l -0.021,0.016 -8.934,7.053 c -0.007,0.006 -0.018,0.016 -0.025,0.021 -0.422,0.355 -0.476,0.986 -0.119,1.408 0.355,0.424 0.985,0.477 1.408,0.121 l 7.982,-6.723 14.396,23.879 -11.25,19.602 11.979,-19.422 c 0.063,-0.105 0.071,-0.24 0.007,-0.355 l -0.006,-0.01 -14.21,-25.352 c -0.02,-0.035 -0.046,-0.072 -0.071,-0.105 z"
style="fill:#407fa2" /></g></g><g
class="paper"
id="paper-1"><g><path
d="m 116.826,323.093 c 0.166,0 0.335,0.014 0.504,0.043 l 15.217,2.588 8.033,-13.902 -0.383,-4.09 c -0.151,-1.607 0.998,-3.045 2.6,-3.254 1.602,-0.215 3.081,0.889 3.346,2.482 l 0.055,0.328 h 2.604 c 0.591,0 1.17,0.176 1.662,0.504 l 13.101,8.719 25.87,6.539 13.115,-1.475 11.203,-11.203 c 0.268,-0.268 0.583,-0.482 0.931,-0.633 1.764,-0.762 3.255,-1.338 4.466,-1.725 0.023,-2.52 0.14,-5.791 0.172,-6.658 0.033,-0.885 0.455,-1.709 1.153,-2.254 l 5.643,-4.398 c 2.531,-17.994 2.902,-18.09 5.062,-18.646 l 4.625,-1.119 -7.501,-11.252 -16.811,-9.201 c -0.962,-0.525 -1.56,-1.535 -1.56,-2.631 v -5.514 c 0,-1.372 0.932,-2.569 2.262,-2.907 l 10.776,-2.737 3.827,-3.826 c 0.265,-0.266 0.576,-0.479 0.919,-0.628 l 15.843,-6.931 v -6.822 l -2.598,-1.573 c -0.983,-0.6 -1.253,-0.766 -15.443,-30.241 l -17.243,-9.875 h -13.629 c 0.14,0.225 0.285,0.454 0.434,0.691 0.653,1.039 0.605,2.373 -0.119,3.365 -0.725,0.99 -1.98,1.44 -3.171,1.135 l -7.083,-1.826 -17.553,-3.42 c -1.064,-0.209 -1.936,-0.976 -2.275,-2.006 -0.972,-2.949 -2.284,-6.398 -3.215,-8.361 -1.969,0.548 -5.268,0.991 -10.955,1.045 l -5.761,5.281 c -0.819,0.752 -1.987,0.988 -3.035,0.614 l -21.956,-7.833 c -1.459,-0.408 -5.426,-1.377 -7.842,-1.395 -0.155,0.505 -0.404,0.99 -0.742,1.437 -2.203,2.918 -9.072,4.345 -13.242,4.958 l -11.449,26.021 c -0.053,0.121 -0.115,0.238 -0.184,0.352 l -7.28,11.962 v 9.081 c 0,0.342 -0.059,0.682 -0.173,1.004 l -2.021,5.695 c -0.207,0.585 -0.59,1.091 -1.097,1.449 l -11.675,8.239 -5.799,18.167 v 8.135 l 5.996,9.586 4.691,-4.693 c 0.596,-0.596 1.412,-0.91 2.26,-0.875 0.844,0.039 1.632,0.432 2.17,1.082 l 4.957,5.975 c 0.639,0.771 0.852,1.811 0.566,2.771 l -4.023,13.516 10.205,8.291 c 0.763,0.619 1.174,1.572 1.1,2.553 l -0.931,12.416 28.417,10.104 0.281,-0.562 c 0.513,-1.032 1.56,-1.662 2.683,-1.662 z"
style="fill:#ffffff" /></g><g><path
d="m 248.114,218.233 -3.413,-2.067 c -1.711,-3.174 -9.409,-19.022 -14.18,-28.934 -0.263,-0.546 -0.686,-1.001 -1.212,-1.302 l -18.744,-10.734 c -0.454,-0.26 -0.968,-0.396 -1.491,-0.396 h -19.846 c -1.09,0 -2.095,0.592 -2.623,1.545 -0.349,0.628 -0.455,1.348 -0.321,2.031 l -0.165,-0.043 c -0.059,-0.016 -0.116,-0.028 -0.175,-0.04 l -15.927,-3.104 c -3.963,-11.563 -5.725,-11.563 -7.43,-11.563 -0.854,0 -1.654,0.326 -2.269,0.912 -1.354,0.48 -6.224,0.889 -10.783,0.89 -0.75,0 -1.474,0.282 -2.027,0.788 l -5.281,4.844 -20.35,-7.26 c -0.061,-0.021 -0.123,-0.041 -0.186,-0.059 -0.593,-0.17 -5.9,-1.65 -9.642,-1.65 -0.83,0 -3.356,0 -4.827,1.723 -0.56,0.656 -0.88,1.453 -0.938,2.308 -1.494,0.916 -6.211,2.11 -10.579,2.636 -1.053,0.127 -1.961,0.801 -2.388,1.771 l -12.047,27.38 -7.614,12.51 c -0.286,0.471 -0.438,1.01 -0.438,1.561 v 9.406 l -1.53,4.311 -11.718,8.271 c -0.533,0.376 -0.929,0.916 -1.128,1.539 l -6.247,19.57 c -0.095,0.295 -0.142,0.602 -0.142,0.912 v 9.463 c 0,0.562 0.158,1.113 0.456,1.59 l 8.452,13.512 c 0.484,0.775 1.297,1.287 2.205,1.391 0.912,0.113 1.814,-0.213 2.46,-0.859 l 5.028,-5.029 1.83,2.205 -4.137,13.9 c -0.346,1.162 0.043,2.418 0.984,3.184 l 10.543,8.566 -0.985,13.137 c -0.101,1.348 0.712,2.598 1.987,3.051 l 33.076,11.76 c 0.332,0.117 0.67,0.174 1.005,0.174 1.108,0 2.164,-0.617 2.685,-1.66 l 0.474,-0.949 15.081,2.566 c 1.236,0.215 2.473,-0.371 3.101,-1.457 l 9.556,-16.537 c 0.129,-0.225 0.227,-0.461 0.295,-0.707 h 1.346 l 12.774,8.502 c 0.283,0.189 0.597,0.328 0.927,0.41 l 26.896,6.801 c 0.35,0.088 0.712,0.113 1.07,0.072 l 14.701,-1.652 c 0.676,-0.076 1.306,-0.379 1.786,-0.859 l 11.534,-11.535 c 1.796,-0.754 3.679,-1.436 4.395,-1.59 0.719,0.047 1.468,-0.168 2.061,-0.635 0.797,-0.627 1.224,-1.615 1.134,-2.625 -0.073,-0.816 0.003,-4.33 0.096,-7.205 l 5.495,-4.283 c 0.614,-0.479 1.019,-1.178 1.126,-1.949 0.824,-5.889 1.845,-12.449 2.418,-15.266 l 7.077,-1.713 c 0.952,-0.23 1.732,-0.91 2.089,-1.822 0.356,-0.914 0.245,-1.941 -0.298,-2.758 l -10.29,-15.436 c -0.269,-0.402 -0.631,-0.734 -1.056,-0.967 l -15.897,-8.703 v -1.4 l 9.314,-2.366 c 0.523,-0.133 1.001,-0.405 1.383,-0.786 l 4.01,-4.01 17.122,-7.491 c 1.092,-0.478 1.798,-1.557 1.798,-2.749 V 220.8 c 0,-1.05 -0.548,-2.024 -1.446,-2.567 z m -4.554,11.078 -15.843,6.931 c -0.343,0.149 -0.654,0.362 -0.919,0.628 l -3.827,3.826 -10.776,2.737 c -1.33,0.338 -2.262,1.535 -2.262,2.907 v 5.514 c 0,1.096 0.598,2.105 1.56,2.631 l 16.811,9.201 7.501,11.252 -4.625,1.119 c -2.159,0.557 -2.53,0.652 -5.062,18.646 l -5.643,4.398 c -0.698,0.545 -1.12,1.369 -1.153,2.254 -0.032,0.867 -0.148,4.139 -0.172,6.658 -1.211,0.387 -2.702,0.963 -4.466,1.725 -0.348,0.15 -0.663,0.365 -0.931,0.633 l -11.203,11.203 -13.115,1.475 -25.87,-6.539 -13.101,-8.719 c -0.492,-0.328 -1.071,-0.504 -1.662,-0.504 h -2.604 l -0.055,-0.328 c -0.207,-1.25 -1.168,-2.189 -2.344,-2.436 l -4.238,-39.102 v -0.012 c -0.01,-0.086 -0.057,-0.168 -0.133,-0.221 l -9.953,-6.693 -8.067,-5.742 -6.992,-7.162 -0.776,-8.49 c -0.009,-0.094 -0.045,-0.186 -0.111,-0.262 l -0.008,-0.01 -9.771,-11.432 23.652,-2.896 -2.828,6.834 c -0.032,0.08 -0.053,0.172 -0.054,0.266 v 0.018 l -0.239,20.396 v 0.023 c 0.006,0.551 0.459,0.994 1.013,0.988 0.551,-0.008 0.993,-0.461 0.987,-1.012 l -0.237,-20.26 2.895,-7.488 c 0.435,-0.16 0.723,-0.59 0.652,-1.066 -0.037,-0.252 -0.172,-0.461 -0.353,-0.613 l -0.101,-8.511 9.018,-23.348 20.04,-7.493 -20.319,7.06 c -0.063,0.022 -0.119,0.071 -0.146,0.138 l -0.002,0.006 -9.646,23.336 c -0.023,0.057 -0.037,0.123 -0.039,0.189 v 0.014 l -0.1,8.455 -25.629,3.764 -0.017,0.002 c -0.128,0.018 -0.252,0.074 -0.354,0.166 -0.279,0.25 -0.303,0.68 -0.053,0.959 l 10.798,12.039 0.977,8.438 v 0.01 c 0.01,0.082 0.047,0.162 0.11,0.223 l 7.279,7.107 0.004,0.006 0.031,0.025 8.223,5.559 9.631,6.893 3.094,39.07 c -1.185,0.494 -1.964,1.701 -1.838,3.037 l 0.383,4.09 -8.033,13.902 -15.217,-2.588 c -0.169,-0.029 -0.338,-0.043 -0.504,-0.043 -1.123,0 -2.17,0.631 -2.684,1.66 l -0.281,0.562 -28.417,-10.104 0.931,-12.416 c 0.074,-0.98 -0.337,-1.934 -1.1,-2.553 l -10.205,-8.291 4.023,-13.516 c 0.285,-0.961 0.072,-2 -0.566,-2.771 l -4.957,-5.975 c -0.538,-0.65 -1.326,-1.043 -2.17,-1.082 -0.848,-0.035 -1.664,0.279 -2.26,0.875 l -4.691,4.693 -5.996,-9.586 v -8.135 l 5.799,-18.167 11.675,-8.239 c 0.507,-0.358 0.89,-0.864 1.097,-1.449 l 2.021,-5.695 c 0.114,-0.322 0.173,-0.662 0.173,-1.004 v -9.081 l 7.28,-11.962 c 0.068,-0.113 0.131,-0.23 0.184,-0.352 l 11.449,-26.021 c 4.17,-0.613 11.039,-2.04 13.242,-4.958 0.338,-0.446 0.587,-0.932 0.742,-1.437 2.416,0.018 6.383,0.986 7.842,1.395 l 21.956,7.833 c 1.048,0.374 2.216,0.138 3.035,-0.614 l 5.761,-5.281 c 5.688,-0.054 8.986,-0.497 10.955,-1.045 0.931,1.963 2.243,5.412 3.215,8.361 0.34,1.03 1.211,1.797 2.275,2.006 l 17.553,3.42 7.083,1.826 c 1.19,0.306 2.446,-0.145 3.171,-1.135 0.725,-0.992 0.772,-2.326 0.119,-3.365 -0.148,-0.237 -0.294,-0.467 -0.434,-0.691 h 13.629 l 17.243,9.875 c 14.19,29.476 14.46,29.642 15.443,30.241 l 2.598,1.573 v 6.824 z"
style="fill:#407fa2" /><path
d="m 154.407,196.635 7.724,7.739 5.199,22.034 c 0.017,0.07 0.053,0.139 0.108,0.191 l 0.004,0.006 16.887,16.631 -8.467,4.26 c -0.319,0.162 -0.469,0.545 -0.329,0.883 l 0.004,0.01 4.764,11.619 -5.097,22.689 c -0.001,0.002 -0.002,0.012 -0.003,0.016 -0.113,0.541 0.235,1.07 0.776,1.182 0.539,0.113 1.069,-0.234 1.182,-0.775 l 4.771,-23.012 0.002,-0.012 c 0.031,-0.152 0.019,-0.316 -0.047,-0.469 l -4.807,-11.189 7.883,-4.131 c 0.055,0.024 0.103,0.062 0.163,0.076 0.535,0.135 1.078,-0.193 1.212,-0.729 l 7.737,-31.125 4.321,-0.059 8.795,9.094 0.008,0.006 c 0.029,0.031 0.066,0.057 0.108,0.072 l 21.612,7.977 -21.315,-8.535 -8.647,-9.441 c -0.085,-0.092 -0.207,-0.152 -0.343,-0.154 H 198.6 l -4.962,-0.068 c -0.242,-0.002 -0.467,0.156 -0.535,0.402 l -0.004,0.014 -8.364,30.111 -16.639,-15.854 -5.55,-21.887 c -0.01,-0.037 -0.029,-0.076 -0.061,-0.105 l -7.844,-7.602 3.553,-15.264 -3.823,15.275 c -0.01,0.043 0.002,0.093 0.036,0.124 z"
style="fill:#407fa2" /><path
d="m 88.432,245.245 c -0.277,-0.352 -0.785,-0.41 -1.136,-0.133 l -0.021,0.016 -8.934,7.053 c -0.007,0.006 -0.018,0.016 -0.025,0.021 -0.422,0.355 -0.476,0.986 -0.119,1.408 0.355,0.424 0.985,0.477 1.408,0.121 l 7.982,-6.723 14.396,23.879 -11.25,19.602 11.979,-19.422 c 0.063,-0.105 0.071,-0.24 0.007,-0.355 l -0.006,-0.01 -14.21,-25.352 c -0.02,-0.035 -0.046,-0.072 -0.071,-0.105 z"
style="fill:#407fa2" /></g></g><g
class="paper"
id="paper-3"><g><path
d="m 112.485,176.313 c 0.128,0.079 0.252,0.172 0.369,0.276 l 10.523,9.322 12.902,-6.887 1.672,-3.347 c 0.656,-1.315 2.237,-1.875 3.576,-1.265 1.342,0.604 1.956,2.169 1.394,3.53 l -0.116,0.279 2.014,1.254 c 0.457,0.283 0.82,0.697 1.043,1.188 l 5.936,13.048 16.861,17.505 10.854,5.171 14.055,-3.274 c 0.335,-0.078 0.684,-0.093 1.023,-0.042 1.731,0.26 3.161,0.532 4.284,0.815 1.23,-1.938 2.895,-4.411 3.336,-5.066 0.452,-0.667 1.175,-1.104 1.978,-1.188 l 6.479,-0.687 c 10.617,-12.699 10.95,-12.594 12.888,-11.985 l 4.115,1.359 -0.389,-12.311 -8.572,-15.206 c -0.492,-0.869 -0.468,-1.938 0.06,-2.785 l 2.653,-4.264 c 0.659,-1.062 1.957,-1.538 3.148,-1.159 l 9.65,3.067 4.801,-1.117 c 0.333,-0.078 0.676,-0.094 1.014,-0.044 l 15.587,2.263 3.283,-5.276 -1.253,-2.467 c -0.472,-0.936 -0.6,-1.195 2.607,-30.819 l -8.583,-15.934 -10.542,-6.558 c 0.001,0.241 0.003,0.488 0.003,0.743 0.006,1.118 -0.673,2.126 -1.711,2.545 -1.037,0.417 -2.225,0.161 -2.999,-0.648 l -4.599,-4.821 -11.93,-11.091 c -0.723,-0.673 -1.028,-1.686 -0.795,-2.646 0.668,-2.748 1.312,-6.047 1.538,-8.013 -1.786,-0.523 -4.551,-1.768 -8.976,-4.463 l -6.998,1.312 c -0.995,0.188 -2.013,-0.192 -2.643,-0.985 L 188.818,59.02 c -0.933,-1.018 -3.534,-3.676 -5.394,-4.852 -0.363,0.316 -0.789,0.572 -1.267,0.754 -3.106,1.196 -9.105,-1.005 -12.626,-2.538 L 148.156,67 c -0.099,0.069 -0.204,0.129 -0.312,0.184 l -11.386,5.749 -4.37,7.023 c -0.164,0.264 -0.373,0.499 -0.616,0.693 l -4.304,3.432 c -0.441,0.353 -0.981,0.56 -1.546,0.593 l -12.993,0.754 -13.226,11.26 -3.914,6.292 0.024,10.298 5.887,-1.373 c 0.747,-0.174 1.53,-0.025 2.168,0.411 0.633,0.436 1.055,1.118 1.158,1.881 l 0.959,7.006 c 0.123,0.903 -0.213,1.811 -0.896,2.416 l -9.615,8.516 3.903,11.324 c 0.292,0.845 0.151,1.781 -0.377,2.503 l -6.694,9.155 17.116,21.486 0.488,-0.299 c 0.894,-0.547 2.007,-0.532 2.875,0.009 z"
style="fill:#ffffff" /></g><g><path
d="m 264.477,158.386 -1.644,-3.241 c 0.202,-3.279 1.875,-19.24 2.955,-29.2 0.058,-0.549 -0.05,-1.104 -0.312,-1.59 l -9.331,-17.321 c -0.227,-0.419 -0.559,-0.772 -0.962,-1.024 l -15.35,-9.549 c -0.842,-0.524 -1.904,-0.55 -2.771,-0.067 -0.572,0.317 -1.001,0.823 -1.228,1.416 l -0.105,-0.111 c -0.038,-0.041 -0.077,-0.079 -0.116,-0.116 L 224.789,87.52 c 2.498,-10.851 1.137,-11.698 -0.183,-12.518 -0.66,-0.411 -1.437,-0.544 -2.193,-0.386 -1.279,-0.28 -5.241,-2.308 -8.767,-4.5 -0.582,-0.362 -1.276,-0.492 -1.947,-0.366 l -6.416,1.205 -12.246,-15.406 c -0.036,-0.045 -0.075,-0.09 -0.113,-0.134 -0.378,-0.417 -3.77,-4.116 -6.663,-5.916 -0.643,-0.399 -2.597,-1.615 -4.562,-0.99 -0.749,0.238 -1.381,0.7 -1.836,1.333 -1.597,-0.011 -5.818,-1.357 -9.45,-3.052 -0.875,-0.409 -1.901,-0.324 -2.698,0.221 l -22.495,15.376 -11.908,6.011 c -0.447,0.227 -0.824,0.57 -1.09,0.997 l -4.525,7.274 -3.258,2.597 -13.042,0.759 c -0.593,0.034 -1.159,0.262 -1.612,0.648 L 95.536,92.802 c -0.215,0.184 -0.398,0.398 -0.548,0.638 l -4.553,7.318 c -0.271,0.436 -0.414,0.938 -0.413,1.449 l 0.036,14.517 c 0.002,0.833 0.383,1.62 1.036,2.138 0.651,0.525 1.506,0.708 2.316,0.519 l 6.309,-1.471 0.354,2.586 -9.888,8.76 c -0.827,0.733 -1.13,1.891 -0.771,2.936 l 4.033,11.698 -7.083,9.686 c -0.726,0.993 -0.699,2.351 0.069,3.315 l 19.922,25.011 c 0.2,0.25 0.435,0.456 0.694,0.617 0.857,0.534 1.97,0.564 2.875,0.008 l 0.822,-0.506 10.429,9.241 c 0.852,0.762 2.091,0.903 3.099,0.365 l 15.347,-8.191 c 0.208,-0.112 0.397,-0.249 0.568,-0.405 l 1.041,0.648 5.789,12.721 c 0.128,0.283 0.304,0.541 0.52,0.764 l 17.529,18.201 c 0.228,0.236 0.495,0.431 0.792,0.571 l 12.166,5.796 c 0.559,0.267 1.192,0.334 1.794,0.194 l 14.471,-3.371 c 1.753,0.281 3.536,0.66 4.164,0.885 0.533,0.382 1.217,0.577 1.9,0.5 0.916,-0.101 1.723,-0.66 2.139,-1.484 0.337,-0.666 2.086,-3.347 3.541,-5.526 l 6.312,-0.668 c 0.704,-0.075 1.354,-0.422 1.809,-0.966 3.471,-4.157 7.417,-8.74 9.216,-10.643 l 6.297,2.08 c 0.847,0.28 1.777,0.13 2.492,-0.404 0.715,-0.535 1.124,-1.383 1.098,-2.276 l -0.531,-16.889 c -0.015,-0.441 -0.136,-0.872 -0.353,-1.255 l -8.107,-14.381 0.676,-1.084 8.341,2.653 c 0.469,0.148 0.97,0.168 1.448,0.057 l 5.029,-1.171 16.848,2.445 c 1.073,0.156 2.139,-0.339 2.713,-1.261 l 5.039,-8.099 c 0.503,-0.814 0.547,-1.83 0.115,-2.682 z m -8.853,6.376 -15.587,-2.263 c -0.338,-0.049 -0.681,-0.033 -1.014,0.044 l -4.801,1.117 -9.65,-3.067 c -1.191,-0.379 -2.489,0.098 -3.148,1.159 l -2.653,4.264 c -0.527,0.848 -0.552,1.916 -0.06,2.785 l 8.572,15.206 0.389,12.311 -4.115,-1.359 c -1.938,-0.608 -2.271,-0.714 -12.888,11.985 l -6.479,0.687 c -0.803,0.085 -1.525,0.521 -1.978,1.188 -0.441,0.655 -2.105,3.129 -3.336,5.066 -1.123,-0.283 -2.553,-0.556 -4.284,-0.815 -0.34,-0.051 -0.688,-0.036 -1.023,0.042 l -14.055,3.274 -10.854,-5.171 -16.861,-17.505 -5.936,-13.048 c -0.223,-0.49 -0.586,-0.904 -1.043,-1.188 l -2.014,-1.254 0.116,-0.279 c 0.441,-1.067 0.15,-2.256 -0.641,-3.012 l 15.538,-32.281 0.005,-0.01 c 0.034,-0.071 0.037,-0.157 0.003,-0.234 l -4.477,-9.965 -3.477,-8.323 -1.961,-8.904 3.484,-6.939 c 0.039,-0.077 0.054,-0.165 0.04,-0.256 l -0.001,-0.011 -2.056,-13.542 19.687,9.141 -5.476,3.924 c -0.062,0.047 -0.124,0.108 -0.169,0.18 l -0.009,0.014 -10,15.66 -0.011,0.017 c -0.261,0.43 -0.123,0.99 0.308,1.252 0.43,0.259 0.99,0.122 1.251,-0.307 l 9.564,-15.782 5.842,-4.399 c 0.413,0.085 0.844,-0.108 1.017,-0.511 0.094,-0.213 0.09,-0.439 0.023,-0.645 l 4.018,-6.63 18.209,-13.718 19.104,3.848 -19.112,-4.317 c -0.06,-0.013 -0.126,-0.001 -0.179,0.036 l -0.005,0.004 -18.688,13.406 c -0.046,0.033 -0.088,0.078 -0.122,0.128 l -0.006,0.01 -4.146,6.491 -21.632,-9.421 -0.015,-0.006 c -0.107,-0.048 -0.229,-0.064 -0.354,-0.042 -0.336,0.059 -0.561,0.38 -0.502,0.716 l 2.558,14.507 -3.305,6.995 -0.005,0.008 c -0.032,0.068 -0.042,0.147 -0.021,0.225 l 2.21,8.999 v 0.007 l 0.012,0.035 3.684,8.255 4.133,9.965 -16.407,31.706 c -1.154,-0.188 -2.337,0.371 -2.882,1.464 l -1.672,3.347 -12.902,6.887 -10.523,-9.322 c -0.117,-0.104 -0.241,-0.197 -0.369,-0.276 -0.868,-0.541 -1.981,-0.556 -2.874,-0.008 l -0.488,0.299 -17.116,-21.486 6.694,-9.155 c 0.529,-0.722 0.67,-1.658 0.377,-2.503 l -3.903,-11.324 9.615,-8.516 c 0.683,-0.605 1.019,-1.513 0.896,-2.416 l -0.959,-7.006 c -0.103,-0.763 -0.524,-1.445 -1.158,-1.881 -0.638,-0.436 -1.421,-0.585 -2.168,-0.411 l -5.887,1.373 -0.024,-10.298 3.914,-6.292 13.226,-11.26 12.993,-0.754 c 0.564,-0.033 1.104,-0.24 1.546,-0.593 l 4.304,-3.432 c 0.244,-0.195 0.453,-0.429 0.616,-0.693 l 4.37,-7.023 11.386,-5.749 c 0.107,-0.055 0.212,-0.115 0.312,-0.184 l 21.375,-14.616 c 3.521,1.532 9.52,3.734 12.626,2.538 0.478,-0.183 0.903,-0.438 1.267,-0.754 1.859,1.176 4.461,3.834 5.394,4.852 l 13.211,16.622 c 0.63,0.793 1.647,1.173 2.643,0.985 l 6.998,-1.312 c 4.425,2.695 7.189,3.939 8.976,4.463 -0.226,1.966 -0.87,5.265 -1.538,8.013 -0.233,0.96 0.072,1.973 0.795,2.646 l 11.93,11.091 4.599,4.821 c 0.774,0.809 1.962,1.065 2.999,0.648 1.038,-0.419 1.717,-1.427 1.711,-2.545 0,-0.255 -0.002,-0.502 -0.003,-0.743 l 10.542,6.558 8.583,15.934 c -3.207,29.624 -3.079,29.883 -2.607,30.819 l 1.253,2.467 -3.289,5.272 z"
style="fill:#407fa2" /><path
d="m 202.397,96.594 2.249,9.702 -6.58,19.543 c -0.021,0.062 -0.026,0.132 -0.008,0.2 v 0.006 l 5.058,20.989 -8.598,-0.78 c -0.325,-0.028 -0.625,0.196 -0.679,0.525 l -0.002,0.01 -1.907,11.277 -14.858,15.095 c -0.003,0.001 -0.008,0.009 -0.01,0.012 -0.349,0.364 -0.334,0.941 0.031,1.288 0.361,0.347 0.939,0.333 1.288,-0.033 l 14.762,-15.5 0.008,-0.008 c 0.097,-0.103 0.167,-0.236 0.188,-0.386 l 1.666,-10.965 8.084,0.597 c 0.032,0.047 0.05,0.099 0.09,0.139 0.35,0.362 0.928,0.369 1.288,0.02 l 20.961,-20.349 3.37,2.034 2.426,11.265 0.004,0.008 c 0.007,0.039 0.024,0.075 0.048,0.108 l 12.878,16.568 -12.379,-16.858 -2.145,-11.464 c -0.021,-0.111 -0.087,-0.217 -0.19,-0.284 l -0.012,-0.006 -3.804,-2.441 c -0.188,-0.117 -0.437,-0.104 -0.608,0.055 l -0.01,0.008 -20.957,19.263 -5.24,-20.267 6.24,-19.597 c 0.01,-0.034 0.014,-0.072 0.003,-0.111 l -2.409,-9.653 10.093,-10.095 -10.307,9.975 c -0.029,0.025 -0.043,0.07 -0.032,0.11 z"
style="fill:#407fa2" /><path
d="m 127.983,102.443 c -0.045,-0.405 -0.409,-0.695 -0.814,-0.649 l -0.023,0.001 -10.303,1.157 c -0.008,0.001 -0.021,0.003 -0.03,0.003 -0.497,0.072 -0.843,0.535 -0.77,1.032 0.071,0.5 0.533,0.844 1.031,0.771 l 9.409,-1.357 -0.356,25.395 -18.133,9.747 18.61,-9.257 c 0.1,-0.05 0.171,-0.151 0.177,-0.271 v -0.01 l 1.207,-26.446 c 0.001,-0.038 -0.002,-0.078 -0.005,-0.116 z"
style="fill:#407fa2" /></g></g><g
class="paper"
id="paper-4"><g><path
d="m 45.316,92.671 c 0.081,0.127 0.15,0.265 0.209,0.41 l 5.327,13.01 14.617,-0.483 2.978,-2.266 c 1.169,-0.891 2.834,-0.695 3.767,0.444 0.938,1.134 0.797,2.81 -0.308,3.783 l -0.228,0.199 1.254,2.014 c 0.285,0.456 0.428,0.988 0.412,1.526 l -0.434,14.328 7.402,23.15 7.456,9.431 14.057,3.267 c 0.335,0.078 0.654,0.219 0.937,0.414 1.439,0.997 2.602,1.873 3.484,2.623 1.959,-1.195 4.544,-2.681 5.23,-3.073 0.7,-0.399 1.542,-0.472 2.299,-0.193 l 6.117,2.244 c 15.133,-6.708 15.385,-6.467 16.854,-5.065 l 3.092,3.036 5.086,-11.217 -0.979,-17.428 c -0.058,-0.997 0.436,-1.945 1.283,-2.473 l 4.263,-2.655 c 1.061,-0.661 2.435,-0.516 3.336,0.35 l 7.306,7.012 4.801,1.117 c 0.334,0.078 0.647,0.214 0.929,0.408 l 12.988,8.912 5.274,-3.285 -0.036,-2.767 c -0.009,-1.048 -0.01,-1.337 15.945,-26.503 l -0.667,-18.085 -6.564,-10.539 c -0.105,0.217 -0.213,0.44 -0.325,0.668 -0.488,1.006 -1.543,1.611 -2.659,1.529 -1.114,-0.083 -2.066,-0.837 -2.405,-1.906 l -1.997,-6.355 -5.809,-15.218 c -0.352,-0.923 -0.179,-1.967 0.454,-2.726 1.813,-2.17 3.848,-4.847 4.917,-6.511 -1.371,-1.258 -3.302,-3.595 -6.083,-7.966 l -6.858,-1.912 c -0.976,-0.271 -1.721,-1.061 -1.937,-2.051 l -4.516,-20.747 c -0.388,-1.325 -1.549,-4.859 -2.697,-6.735 -0.466,0.123 -0.961,0.165 -1.471,0.118 -3.314,-0.298 -7.726,-4.921 -10.208,-7.851 l -25.632,3.679 c -0.119,0.018 -0.24,0.025 -0.36,0.027 l -12.754,0.132 -7.021,4.373 c -0.263,0.165 -0.554,0.283 -0.859,0.35 l -5.377,1.18 c -0.552,0.122 -1.127,0.069 -1.649,-0.15 l -11.991,-5.059 -16.838,4.264 -6.29,3.918 -4.524,9.251 5.889,1.367 c 0.747,0.173 1.383,0.653 1.764,1.326 0.376,0.67 0.453,1.468 0.208,2.199 l -2.232,6.709 c -0.288,0.865 -0.99,1.531 -1.87,1.772 L 49.286,45.39 47.789,57.274 c -0.111,0.887 -0.65,1.665 -1.443,2.079 l -10.048,5.26 5.873,26.835 0.57,-0.053 c 1.042,-0.098 2.035,0.407 2.575,1.276 z"
style="fill:#ffffff" /></g><g><path
d="m 189.61,143.681 -0.043,-3.633 c 1.628,-2.853 10.176,-16.437 15.542,-24.896 0.293,-0.468 0.441,-1.013 0.421,-1.565 l -0.727,-19.661 c -0.019,-0.476 -0.16,-0.94 -0.41,-1.344 l -9.558,-15.344 c -0.524,-0.842 -1.466,-1.334 -2.457,-1.284 -0.654,0.032 -1.261,0.297 -1.726,0.729 l -0.046,-0.146 c -0.017,-0.054 -0.035,-0.105 -0.054,-0.156 l -5.271,-13.808 c 7.032,-8.633 6.185,-9.995 5.363,-11.312 -0.411,-0.66 -1.05,-1.123 -1.797,-1.315 -1.024,-0.816 -3.686,-4.384 -5.881,-7.908 -0.362,-0.582 -0.928,-1.005 -1.585,-1.188 l -6.289,-1.751 -4.188,-19.23 c -0.012,-0.057 -0.027,-0.114 -0.042,-0.17 -0.155,-0.541 -1.565,-5.357 -3.367,-8.25 -0.4,-0.642 -1.617,-2.595 -3.656,-2.903 -0.777,-0.117 -1.549,0.019 -2.236,0.386 -1.428,-0.714 -4.622,-3.786 -7.133,-6.91 -0.604,-0.753 -1.562,-1.13 -2.519,-0.993 l -26.972,3.87 -13.338,0.137 c -0.501,0.006 -0.992,0.148 -1.418,0.414 l -7.271,4.53 -4.07,0.892 L 86.845,5.793 C 86.298,5.562 85.69,5.516 85.112,5.663 l -18.139,4.592 c -0.274,0.07 -0.533,0.182 -0.774,0.331 l -7.316,4.557 c -0.436,0.271 -0.785,0.659 -1.01,1.118 l -6.376,13.042 c -0.366,0.748 -0.372,1.623 -0.014,2.375 0.353,0.759 1.039,1.3 1.849,1.488 l 6.311,1.465 -0.824,2.477 -12.74,3.495 c -1.065,0.293 -1.848,1.198 -1.987,2.294 l -1.546,12.277 -10.632,5.564 c -1.09,0.571 -1.665,1.801 -1.401,3.005 l 6.835,31.236 c 0.069,0.312 0.189,0.601 0.35,0.86 0.533,0.858 1.519,1.376 2.576,1.276 l 0.961,-0.091 5.278,12.896 c 0.428,1.06 1.478,1.733 2.62,1.696 l 17.387,-0.575 c 0.236,-0.009 0.467,-0.048 0.689,-0.113 l 0.648,1.042 -0.421,13.969 c -0.01,0.311 0.034,0.62 0.129,0.915 l 7.694,24.07 c 0.1,0.312 0.254,0.604 0.458,0.862 l 8.358,10.571 c 0.384,0.485 0.922,0.826 1.524,0.966 l 14.473,3.363 c 1.449,1.026 2.881,2.153 3.346,2.631 0.31,0.578 0.837,1.057 1.484,1.289 0.866,0.312 1.837,0.168 2.574,-0.389 0.597,-0.449 3.349,-2.082 5.617,-3.395 l 5.958,2.186 c 0.665,0.244 1.401,0.219 2.049,-0.068 4.949,-2.198 10.513,-4.568 12.967,-5.481 l 4.732,4.646 c 0.637,0.626 1.538,0.901 2.415,0.737 0.878,-0.165 1.62,-0.744 1.99,-1.557 l 6.979,-15.389 c 0.183,-0.402 0.264,-0.842 0.238,-1.281 l -0.926,-16.483 1.085,-0.674 6.312,6.062 c 0.355,0.34 0.797,0.579 1.275,0.69 l 5.029,1.169 14.039,9.631 c 0.893,0.613 2.068,0.64 2.99,0.066 l 8.097,-5.043 c 0.812,-0.504 1.301,-1.397 1.288,-2.352 z m -10.757,1.814 -12.988,-8.912 c -0.281,-0.193 -0.595,-0.33 -0.929,-0.408 l -4.801,-1.117 -7.306,-7.012 c -0.901,-0.866 -2.275,-1.011 -3.336,-0.35 l -4.263,2.655 c -0.847,0.527 -1.341,1.476 -1.283,2.473 l 0.979,17.428 -5.086,11.217 -3.092,-3.036 c -1.47,-1.401 -1.721,-1.643 -16.854,5.065 l -6.117,-2.244 c -0.758,-0.278 -1.599,-0.206 -2.299,0.193 -0.686,0.393 -3.271,1.878 -5.23,3.073 -0.882,-0.75 -2.045,-1.626 -3.484,-2.623 -0.283,-0.195 -0.602,-0.336 -0.937,-0.414 l -14.057,-3.267 -7.456,-9.431 -7.402,-23.15 0.434,-14.328 c 0.016,-0.539 -0.127,-1.07 -0.412,-1.526 l -1.254,-2.014 0.228,-0.199 c 0.866,-0.763 1.13,-1.958 0.754,-2.986 l 28.192,-22.106 0.009,-0.006 c 0.062,-0.049 0.103,-0.125 0.106,-0.209 l 0.382,-10.917 0.555,-9.003 2.171,-8.855 6.19,-4.688 c 0.068,-0.052 0.121,-0.124 0.148,-0.212 l 0.004,-0.011 4.133,-13.059 13.629,16.893 -6.646,1.104 c -0.077,0.015 -0.159,0.042 -0.231,0.086 l -0.014,0.009 -15.886,9.637 -0.017,0.01 c -0.424,0.271 -0.547,0.834 -0.277,1.259 0.271,0.422 0.835,0.547 1.258,0.277 l 15.549,-9.939 7.184,-1.369 c 0.333,0.259 0.805,0.275 1.138,-0.009 0.178,-0.15 0.274,-0.354 0.306,-0.568 l 6.532,-4.176 22.395,-4.271 15.442,11.885 -15.243,-12.311 c -0.048,-0.039 -0.113,-0.057 -0.177,-0.047 l -0.006,0.001 -22.687,3.779 c -0.056,0.01 -0.113,0.031 -0.166,0.062 l -0.01,0.006 -6.585,3.995 -15.251,-18.002 -0.011,-0.012 c -0.075,-0.09 -0.177,-0.159 -0.299,-0.194 -0.327,-0.095 -0.671,0.093 -0.766,0.42 l -4.109,14.146 -6.053,4.817 -0.008,0.005 c -0.059,0.047 -0.103,0.114 -0.119,0.192 l -1.99,9.05 -0.003,0.006 -0.004,0.037 -0.338,9.033 -0.691,10.766 -28.718,21.208 c -0.952,-0.678 -2.261,-0.699 -3.232,0.042 l -2.978,2.266 -14.617,0.483 -5.327,-13.01 c -0.059,-0.145 -0.129,-0.283 -0.209,-0.41 -0.541,-0.869 -1.533,-1.374 -2.575,-1.276 l -0.57,0.053 -5.873,-26.835 10.048,-5.26 c 0.793,-0.415 1.333,-1.192 1.443,-2.079 l 1.497,-11.884 12.386,-3.397 c 0.88,-0.242 1.582,-0.908 1.87,-1.772 l 2.232,-6.709 c 0.245,-0.73 0.167,-1.528 -0.208,-2.199 -0.38,-0.673 -1.017,-1.153 -1.764,-1.326 l -5.889,-1.367 4.524,-9.251 6.29,-3.918 16.838,-4.265 11.991,5.059 c 0.521,0.219 1.097,0.272 1.649,0.15 l 5.377,-1.18 c 0.305,-0.067 0.596,-0.185 0.859,-0.35 l 7.021,-4.373 12.754,-0.132 c 0.12,-0.001 0.241,-0.009 0.36,-0.027 l 25.632,-3.679 c 2.483,2.929 6.894,7.553 10.208,7.851 0.51,0.047 1.005,0.005 1.471,-0.118 1.148,1.876 2.31,5.41 2.697,6.735 l 4.516,20.747 c 0.216,0.99 0.961,1.78 1.937,2.051 l 6.858,1.912 c 2.781,4.371 4.712,6.708 6.083,7.966 -1.069,1.665 -3.104,4.341 -4.917,6.511 -0.633,0.759 -0.806,1.802 -0.454,2.726 l 5.809,15.218 1.997,6.355 c 0.339,1.068 1.291,1.822 2.405,1.906 1.116,0.082 2.171,-0.523 2.659,-1.529 0.112,-0.229 0.22,-0.451 0.325,-0.668 l 6.564,10.539 0.667,18.085 c -15.955,25.166 -15.954,25.455 -15.945,26.503 l 0.036,2.767 -5.272,3.283 z"
style="fill:#407fa2" /><path
d="m 161.185,60.831 -2.266,9.698 -14.531,14.631 c -0.046,0.047 -0.083,0.107 -0.096,0.176 l -0.002,0.005 -4.728,21.065 -7.37,-4.496 c -0.279,-0.168 -0.647,-0.1 -0.84,0.171 l -0.006,0.008 -6.689,9.277 -19.996,6.985 c -0.003,0 -0.011,0.004 -0.014,0.006 -0.473,0.172 -0.715,0.697 -0.54,1.169 0.171,0.471 0.696,0.713 1.17,0.54 l 20.088,-7.392 0.011,-0.004 c 0.132,-0.05 0.254,-0.138 0.34,-0.263 l 6.335,-9.104 6.99,4.104 c 0.008,0.057 0.001,0.111 0.02,0.164 0.154,0.479 0.669,0.741 1.147,0.586 l 27.791,-9.006 2.127,3.313 -2.797,11.179 v 0.009 c -0.012,0.037 -0.012,0.078 -0.006,0.118 l 4.242,20.552 -3.665,-20.591 3.136,-11.233 c 0.03,-0.109 0.018,-0.233 -0.046,-0.339 l -0.008,-0.01 -2.335,-3.869 c -0.116,-0.188 -0.347,-0.286 -0.57,-0.22 l -0.013,0.003 -27.308,8.033 L 145,85.6 159.25,70.77 c 0.023,-0.026 0.044,-0.059 0.052,-0.098 l 2.1,-9.726 13.513,-4.603 -13.651,4.4 c -0.039,0.013 -0.071,0.047 -0.079,0.088 z"
style="fill:#407fa2" /><path
d="m 91.832,33.229 c 0.138,-0.384 -0.061,-0.804 -0.444,-0.942 l -0.021,-0.009 -9.756,-3.51 c -0.008,-0.003 -0.02,-0.007 -0.028,-0.01 -0.478,-0.155 -0.992,0.107 -1.146,0.586 -0.157,0.48 0.106,0.992 0.585,1.147 l 9.042,2.936 -11.53,22.63 -20.573,0.741 20.786,-0.091 c 0.111,-10e-4 0.22,-0.061 0.278,-0.166 l 0.004,-0.009 12.757,-23.196 c 0.016,-0.034 0.032,-0.071 0.046,-0.107 z"
style="fill:#407fa2" /></g></g></g><g
id="basket-front"><path
class="change-color"
d="m 299.921,48.438 c -0.949,-2.004 -2.768,-3.543 -5.034,-4.085 -3.37,-0.806 -6.863,0.806 -8.433,3.901 -2.708,5.338 -15.275,13.324 -42.426,19.727 -25.628,6.043 -58.664,9.371 -93.022,9.371 -24.667,0 -48.634,-1.724 -69.685,-4.927 0,0 -0.857,-0.41 -1.066,-0.163 C 72.376,71.038 64.903,69.612 57.984,67.981 30.836,61.577 18.27,53.591 15.563,48.253 14.446,46.048 12.315,44.536 9.866,44.21 7.421,43.881 4.964,44.784 3.307,46.618 2.858,47.114 2.481,47.667 2.182,48.257 H 2.181 C 0.735,51.098 0,54.007 0,56.899 c 0,0.931 0.083,1.884 0.253,2.908 0.03,0.227 0.067,0.449 0.114,0.674 0.195,0.975 0.467,1.819 0.684,2.451 0.014,0.038 0.053,0.152 0.066,0.189 0.072,0.211 0.146,0.42 0.237,0.648 0.833,2.102 2.059,4.113 3.64,6.037 l 44.623,222.197 -0.008,0.018 c 0.005,0.012 0.014,0.023 0.019,0.035 l 6.476,32.248 c 0.912,19.588 49.617,28.514 94.902,28.514 45.283,0 93.988,-8.926 94.9,-28.514 l 19.341,-96.298 0.005,-0.011 -0.002,-0.004 31.771,-158.189 c 1.523,-1.858 2.719,-3.797 3.544,-5.821 0.131,-0.315 0.245,-0.636 0.356,-0.955 l 0.045,-0.132 c 0.02,-0.053 0.037,-0.105 0.055,-0.158 0.206,-0.629 0.44,-1.369 0.611,-2.221 0.046,-0.222 0.083,-0.443 0.115,-0.662 0.182,-1.088 0.267,-2.027 0.267,-2.955 0,-2.831 -0.704,-5.677 -2.093,-8.46 z m -39.348,152.049 -5.06,-10.312 6.885,-14.008 2.227,-4.53 1.244,2.481 -5.296,26.369 z m -16.822,83.762 -1.983,-4.054 -1.081,-2.21 4.55,-9.259 2.761,-5.618 -4.247,21.141 z m -200.308,-73.775 4.047,-8.235 4.426,9.02 4.296,8.754 -4.806,9.779 -2.899,5.899 -5.064,-25.217 z m 7.88,-118.228 3.303,6.726 1.638,3.334 -2.244,4.565 -5.571,11.336 -1.11,2.258 -2.595,-5.284 -5.568,-11.337 -0.742,-1.51 5.877,-11.96 c 2.279,0.65 4.615,1.275 7.012,1.872 z m 31.528,5.994 2.302,4.691 -8.306,16.9 -0.417,0.849 -0.556,-1.133 -8.469,-17.241 1.058,-2.153 1.912,-3.89 c 4.07,0.721 8.237,1.378 12.476,1.977 z m 117.503,2.227 0.431,0.877 -3.266,6.645 -5.571,11.338 -0.079,0.16 -7.512,-15.354 -1.103,-2.253 0.029,-0.06 c 5.724,-0.355 11.429,-0.806 17.071,-1.353 z m 26.852,-3.452 2.063,4.115 0.36,0.719 -5.566,11.327 -3.169,6.449 -2.201,-4.486 -6.769,-13.793 0.035,-0.071 1.089,-2.216 c 4.81,-0.605 9.537,-1.288 14.158,-2.044 z m 26.429,-5.526 3.384,6.896 1.73,3.526 -2.034,4.14 -6.826,13.89 -2.559,-5.103 -5.662,-11.29 -0.781,-1.558 4.129,-8.402 c 2.95,-0.663 5.825,-1.363 8.619,-2.099 z m -43.229,167.805 -3.674,7.476 -8.835,-17.847 -0.127,-0.257 6.742,-13.719 1.949,-3.967 6.764,13.786 2.146,4.37 -4.789,9.746 -0.189,0.385 c 0.004,0.009 0.01,0.018 0.013,0.027 z m -44.21,-27.992 -3.128,6.365 -0.301,0.612 -4.641,-9.375 -1.86,-3.757 -2.589,-5.275 0.511,-1.039 5.571,-11.336 3.224,-6.56 2.395,4.836 5.604,11.319 1.012,2.041 -5.703,11.605 -0.189,0.385 c 0.025,0.06 0.064,0.119 0.094,0.179 z m -67.497,-16.499 6.412,-13.047 1.694,3.449 5.57,11.338 1.455,2.963 -3.521,7.167 -5.324,10.836 -2.275,-4.599 -5.605,-11.319 -0.874,-1.764 2.468,-5.024 z m -5.571,-11.335 -2.49,5.066 -2.46,-4.97 -2.734,-5.521 -2.957,-6.021 -0.688,-1.4 4.066,-8.273 4.858,-9.885 1.646,3.351 5.568,11.337 1.604,3.267 -6.413,13.049 z m 17.555,-13.049 2.46,-5.006 6.247,-12.711 1.726,3.516 6.99,14.244 -3.352,6.819 -5.324,10.83 -2.252,-4.548 -4.689,-9.47 -1.806,-3.674 z m 0.181,58.578 8.728,-17.76 1.651,3.361 2.566,5.225 0.219,0.108 4.221,8.524 0.104,0.209 -7.727,15.724 -1.161,2.362 -2.227,-4.496 -5.604,-11.318 -0.864,-1.748 0.094,-0.191 z m 15.24,-27.412 -0.888,-1.792 0.092,-0.187 8.497,-17.29 6.332,12.79 2.362,4.771 -7.431,15.123 -1.155,2.354 -2.203,-4.45 -5.606,-11.319 z m 31.271,-31.969 -7.862,15.998 -1.417,2.883 -0.176,-0.359 -5.566,-11.339 -2.916,-5.944 0.312,-0.636 8.874,-18.056 0.274,-0.558 1.287,2.623 5.564,11.34 0.927,1.89 -0.225,0.293 0.924,1.865 z m -16.737,56.721 6.523,-13.271 c 0.008,0.005 0.016,0.01 0.024,0.015 l 0.922,-1.876 6.561,13.251 2.541,5.132 -8.583,17.467 -0.005,0.011 -2.382,-4.811 -5.604,-11.318 -1.132,-2.287 1.135,-2.313 z m 28.073,-57.057 5.491,-11.174 3.158,-6.426 7.014,14.292 1.956,3.986 -5.599,11.391 -3.052,6.211 -0.693,-1.412 -8.275,-16.868 z m -0.073,59.722 8.874,-18.057 0.163,-0.332 2.232,4.509 5.605,11.32 1.108,2.238 -2.124,4.321 -7.193,14.638 -4.646,-9.386 -4.301,-8.683 0.282,-0.568 z m 14.701,-29.911 8.616,-17.532 0.034,-0.069 6.811,13.879 2.095,4.269 -1.954,3.977 -6.696,13.626 -0.831,-1.693 -8.075,-16.457 z m 14.302,-29.103 8.745,-17.795 5.627,11.465 3.28,6.684 -1.907,3.881 -6.853,13.944 -2.383,-4.871 -5.551,-11.347 -0.958,-1.961 z m 15.348,31.374 -0.897,-1.835 6.865,-13.971 1.902,-3.872 5.58,11.37 3.33,6.785 -4.744,9.652 -4.038,8.219 -2.447,-5.002 -5.551,-11.346 z m 29.283,-85.921 -6.813,13.864 -2.341,-4.771 -6.564,-13.377 8.732,-17.769 0.064,-0.132 8.599,17.148 0.403,0.804 -2.08,4.233 z m -12.387,25.205 -2.058,4.187 -6.903,14.05 -7.785,-15.915 -1.107,-2.263 8.811,-17.926 0.138,-0.28 5.325,10.854 3.579,7.293 z m -20.266,-18.077 -3.237,6.587 -7.635,-15.607 -1.32,-2.699 0.092,-0.187 5.57,-11.336 3.263,-6.638 5.529,11.269 3.44,7.009 -5.702,11.602 z m -12.033,11.689 3.142,6.403 -5.551,11.296 -3.187,6.481 -2.231,-4.562 -5.55,-11.346 -1.174,-2.399 0.039,-0.079 5.571,-11.335 3.113,-6.334 5.828,11.875 z m -14.512,-16.877 -4.661,9.483 -0.015,-0.031 -0.937,1.906 -2.094,-4.28 -5.55,-11.346 -0.955,-1.952 2.688,-5.472 5.572,-11.336 0.44,-0.896 5.597,11.405 3.03,6.175 -3.115,6.344 z m -13.126,19.191 1.831,3.732 -7.822,15.919 -0.827,1.683 -0.567,-1.157 -8.046,-16.393 2.593,-5.275 5.571,-11.336 0.486,-0.991 6.781,13.818 z m -12.453,-25.137 -3.664,7.456 -0.191,-0.39 -4.928,10.025 -0.577,-1.176 -8.138,-16.582 2.033,-4.136 6.617,-13.466 6.875,14.011 2.031,4.139 -0.058,0.119 z m -16.173,24.732 1.816,3.701 -3.942,8.022 -5.517,11.229 -0.187,-0.381 -5.564,-11.339 -2.964,-6.041 2.621,-5.334 6.839,-13.916 1.334,2.719 5.564,11.34 z m -19.308,-11.479 -2.617,5.327 -0.331,-0.674 -5.564,-11.339 -2.919,-5.949 4.168,-8.481 5.292,-10.769 1.291,2.631 5.565,11.34 1.958,3.991 -6.843,13.923 z m -8.191,16.668 -6.251,12.719 -2.458,5.004 -0.367,-0.748 -8.451,-17.206 4.013,-8.167 4.701,-9.564 1.68,3.424 7.133,14.538 z m -19.085,-19.734 -4.012,8.163 -0.417,-0.848 -8.309,-16.916 0.419,-0.853 8.301,-16.893 1.545,3.148 7.176,14.624 -4.703,9.575 z m -11.238,16.135 1.653,3.366 -4.86,9.89 -4.064,8.27 -2.611,-5.317 -5.568,-11.337 -0.546,-1.112 0.472,-0.96 8.452,-17.199 1.504,3.062 5.568,11.337 z m -21.095,-8.537 -0.471,0.958 -2.751,-5.601 -5.568,-11.338 -0.705,-1.436 1.111,-2.261 5.571,-11.336 2.242,-4.562 1.663,3.386 5.569,11.337 1.793,3.651 -8.454,17.202 z m -6.733,10.892 0.689,1.404 -8.401,17.095 -0.463,0.942 -3.196,-6.512 -5.824,-11.87 1.1,-2.239 5.571,-11.336 2.189,-4.456 8.335,16.972 z m -2.141,29.835 8.399,-17.092 8.178,16.65 0.548,1.116 -4.807,9.78 -4.024,8.188 -2.322,-4.69 -5.603,-11.32 -0.006,0.009 -0.829,-1.689 0.466,-0.952 z m 17.89,21.79 4.805,-9.777 8.319,16.938 0.5,1.018 -6.36,12.941 -2.413,4.909 -2.238,-4.521 -5.604,-11.319 -1.012,-2.043 4.003,-8.146 z m 12.835,32.455 6.359,-12.939 8.368,17.038 0.351,0.715 -3.467,7.055 -5.249,10.681 -2.054,-4.146 -5.604,-11.319 -1.097,-2.216 2.393,-4.869 z m 6.588,45.539 8.696,17.562 -7.8,15.876 -1.181,2.401 -4.27,-8.624 -4.427,-8.939 0.113,-0.23 8.869,-18.046 z m 6.647,-9.118 -1.087,-2.194 0.016,-0.033 8.792,-17.889 8.566,17.302 0.13,0.261 -7.725,15.719 -1.083,2.204 -2.005,-4.05 -5.604,-11.32 z m 14.261,24.501 7.745,-15.76 8.81,17.793 0.309,0.622 -0.006,0.011 -8.802,17.913 -2.185,-4.413 -5.604,-11.319 -1.329,-2.685 1.062,-2.162 z m 14.411,-24.834 -1.106,-2.235 1.14,-2.319 7.748,-15.767 8.833,17.842 0.284,0.574 -0.008,0.017 -8.873,18.055 -0.006,0.014 -2.407,-4.86 -5.605,-11.321 z m 22.461,9.446 0.027,-0.059 8.654,17.479 0.291,0.588 -1.988,4.045 -6.897,14.041 -2.414,-4.875 -5.604,-11.319 -0.928,-1.874 8.859,-18.026 z m 6.54,-9.447 -0.951,-1.921 8.589,-17.478 6.396,12.918 2.549,5.149 -1.69,3.44 -6.896,14.035 -2.393,-4.825 -5.604,-11.318 z m 20.463,13.447 1.711,-3.481 6.389,12.903 2.573,5.197 -1.688,3.436 -6.899,14.04 -2.414,-4.875 -5.604,-11.319 -0.943,-1.907 6.875,-13.994 z m 7.269,-14.794 7.172,-14.595 2.146,-4.364 2.225,4.492 5.603,11.321 1.134,2.29 -2.119,4.312 -7.196,14.645 -4.672,-9.436 -4.293,-8.665 z m 21.731,14.793 2.14,-4.354 2.2,4.443 5.604,11.32 0.817,1.651 -4.61,9.379 -4.707,9.579 -4.354,-8.798 -4.267,-8.618 7.177,-14.602 z m 7.802,-15.457 -0.103,-0.206 6.742,-13.721 1.91,-3.89 8.416,17.205 0.156,0.318 -4.325,8.802 -4.275,8.701 -8.521,-17.209 z m 14.95,-27.489 -0.822,-1.681 6.956,-14.152 1.836,-3.735 5.516,11.242 2.566,5.227 0.02,0.01 0.482,0.986 0.008,0.017 -4.273,8.698 -4.538,9.233 -2.2,-4.498 -5.551,-11.347 z m 12.091,-50.679 -4.093,8.326 -7.85,-16.046 -1.026,-2.099 3.686,-7.5 5.284,-10.753 5.262,10.723 3.629,7.395 -4.892,9.954 z m 1.574,-39.413 3.585,-7.295 5.369,-10.924 8.63,17.208 0.357,0.713 -5.073,10.322 -3.977,8.092 -2.391,-4.87 -6.5,-13.246 z m -77.784,-40.981 -2.28,-4.662 -5.551,-11.347 -0.438,-0.894 c 5.545,-0.042 11.15,-0.177 16.771,-0.401 l -8.502,17.304 z m -26.801,-4.41 -2.028,4.127 -0.72,-1.468 -7.723,-15.737 c 5.564,0.266 11.122,0.443 16.636,0.532 l -6.165,12.546 z m -22.023,-13.76 -5.257,10.698 -4.165,8.474 -0.374,-0.762 -5.564,-11.339 -2.783,-5.672 0.569,-1.157 0.839,-1.708 c 5.52,0.583 11.113,1.07 16.735,1.466 z M 32.27,92.203 28.796,85.134 c 1.881,0.758 3.846,1.488 5.869,2.196 l -2.395,4.873 z m -13.509,-4.63 2.909,5.919 0.046,-0.093 4.983,10.14 -1.188,2.416 -2.171,4.419 -4.579,-22.801 z m 7.812,38.896 4.51,-9.178 1.779,-3.62 8.375,17.05 0.531,1.081 -2.191,4.458 -5.571,11.336 -1.096,2.23 -2.787,-5.679 -3.55,-17.678 z m 11.267,56.106 4.083,8.32 -1.712,3.485 -2.371,-11.805 z m 15.039,66.893 4.099,-8.34 4.802,-9.771 4.564,9.301 4.25,8.662 -6.353,12.928 -2.508,5.103 -4.5,-9.087 -4.354,-8.796 z m 16.933,24.115 6.494,-13.215 8.754,17.683 -3.636,7.4 -5.345,10.874 -4.317,-8.72 -4.438,-8.962 2.488,-5.06 z m 6.494,45.732 6.526,13.18 0.984,1.988 c -5.321,-1.683 -9.48,-3.459 -12.423,-5.172 l 4.913,-9.996 z m 19.846,17.548 1.159,-2.358 7.822,-15.918 0.105,0.215 8.927,18.028 0.085,0.173 -0.083,0.168 -1.629,3.315 c -5.83,-0.76 -11.151,-1.667 -15.918,-2.678 l -0.468,-0.945 z m 30.397,2.446 -1.149,-2.321 8.782,-17.871 0.026,-0.053 8.632,17.433 0.313,0.635 -1.985,4.04 -0.729,1.484 c -4.365,-0.135 -8.547,-0.351 -12.547,-0.636 l -1.343,-2.711 z m 28.675,-0.333 -0.921,-1.86 6.879,-13.998 2.009,-4.087 8.648,17.467 0.313,0.635 -1.985,4.04 -0.558,1.135 c -4,0.224 -8.172,0.378 -12.512,0.453 l -1.873,-3.785 z m 29,10e-4 -0.921,-1.86 6.879,-13.998 1.709,-3.478 6.366,12.856 2.257,4.56 -0.922,1.876 c -4.405,0.787 -9.199,1.486 -14.366,2.068 l -1.002,-2.024 z m 32.128,-11.473 4.63,-9.422 2.518,5.084 3.876,7.829 c -3.844,1.795 -8.973,3.601 -15.317,5.244 l 4.293,-8.735 z m 19.567,-3.761 c 0,0.402 -0.117,0.828 -0.347,1.272 l -8.614,-17.399 -0.418,-0.844 4.256,-8.659 4.312,-8.775 5.403,11.045 -4.494,22.376 c -0.065,0.324 -0.098,0.654 -0.098,0.984 z m 19.779,-98.976 -1.588,3.229 -4.59,9.343 -7.603,-15.542 -0.969,-1.981 7.008,-14.261 1.984,-4.04 5.22,10.635 2.179,4.441 -1.641,8.176 z m 12.659,-83.447 -3.835,7.804 -2.514,-5.012 -5.661,-11.291 -0.812,-1.619 3.538,-7.2 5.262,-10.707 1.545,3.146 5.566,11.342 1.78,3.628 -4.869,9.909 z m -4.015,-50.712 -0.511,-1.042 -2.023,-0.412 c 1.311,-0.406 2.6,-0.821 3.861,-1.247 l -1.327,2.701 z M 60.09,293.366 l 1.678,-3.413 6.533,13.194 2.22,4.482 -3.54,7.204 -1.831,3.725 -5.06,-25.192 z m 217.236,-176.294 -7.417,-15.12 3.605,-7.337 5.571,-11.336 0.454,-0.925 c 1.873,-0.901 3.651,-1.832 5.32,-2.795 l -7.533,37.513 z"
style="fill:#407fa2" />
</g></svg>