<?xml version="1.0" encoding="UTF-8" standalone="no"?>
<svg
xmlns:dc="http://purl.org/dc/elements/1.1/"
xmlns:cc="http://creativecommons.org/ns#"
xmlns:rdf="http://www.w3.org/1999/02/22-rdf-syntax-ns#"
xmlns:svg="http://www.w3.org/2000/svg"
xmlns="http://www.w3.org/2000/svg"
version="1.1"
width="495"
height="495"
viewBox="0 0 495 495"
id="note"
xml:space="preserve">
<path d="m 396.07897,491.64504 h -378.461 c 0,0 -13.5200003,5.679 -13.5200003,-220.318 V 4.9750441 H 487.75097 c 0,0 6.333,114.8829959 0,236.3479959 -6.943,133.167 -4.058,150.876 4.537,182.5 1.404,5.168 -60.395,71.501 -96.209,67.822"
style="fill:#ffffff" />
<path d="m 399.02997,493.44104 c -1.032,0 -2.052,-0.05 -3.034,-0.147 h -378.265 c -0.08,0.01 -0.153,0.013 -0.223,0.013 -1.457,0 -5.265,-0.147 -8.7720003,-30.929 -4.171,-36.61 -6.286,-100.89 -6.286,-191.051 V 4.9750441 c 0,-0.911 0.738,-1.648 1.648,-1.648 H 487.75097 c 0.875,0 1.598,0.684 1.646,1.558 0.063,1.15 6.266,116.3619959 10e-4,236.5249959 -6.89,132.128 -4.229,149.936 4.481,181.982 0.264,0.971 0.206,2.45 -3.843,7.744 -14.019,18.335 -60.119,62.305 -91.006,62.305 z m -381.14,-3.444 h 378.189 c 0.057,0 0.112,0.003 0.169,0.009 0.896,0.092 1.832,0.139 2.782,0.139 35.018,0 90.226,-59.912 91.617,-66.073 -8.772,-32.309 -11.444,-50.454 -4.542,-182.833 5.86,-112.394 0.798,-220.442996 0.081,-234.6139959 H 5.7469697 V 271.32804 c 0,196.675 10.3220003,216.677 12.1430003,218.669 z"
style="fill:#407fa2" />
<path d="m 396.07897,493.29404 c -0.91,0 -1.648,-0.738 -1.648,-1.648 0,-0.91 0.738,-1.648 1.648,-1.648 0.006,0 0.011,0 0.017,0 42.757,-0.013 56.964,-52.129 61.633,-69.256 0.637,-2.335 1.097,-4.022 1.478,-5.079 0.205,-0.57 0.706,-0.982 1.306,-1.072 0.603,-0.092 1.2,0.156 1.563,0.641 4.519,6.021 10.756,9.073 18.538,9.073 6.137,0 10.995,-1.981 11.043,-2.002 0.669,-0.278 1.437,-0.088 1.898,0.468 0.462,0.555 0.511,1.345 0.118,1.95 -0.11,0.171 -11.274,17.309 -28.72,34.199 -16.189,15.675 -41.272,34.359 -68.84,34.375 h -0.004 c -0.007,-0.002 -0.021,-0.002 -0.03,-10e-4 z m 65.377,-73.683 c -0.168,0.607 -0.351,1.277 -0.547,1.997 -3.405,12.489 -11.71,42.953 -32.151,59.872 29.08,-14.692 51.981,-44.234 59.508,-54.741 -2.079,0.463 -4.723,0.861 -7.653,0.861 -7.656,0.001 -14.217,-2.749 -19.157,-7.989 z"
style="fill:#407fa2" />
</svg>
