<?xml version="1.0" encoding="utf-8"?>
<!-- Generator: Adobe Illustrator 16.0.0, SVG Export Plug-In . SVG Version: 6.00 Build 0)  -->
<!DOCTYPE svg PUBLIC "-//W3C//DTD SVG 1.1//EN" "http://www.w3.org/Graphics/SVG/1.1/DTD/svg11.dtd">
<svg version="1.1" id="Layer_2_1_" xmlns="http://www.w3.org/2000/svg" xmlns:xlink="http://www.w3.org/1999/xlink" x="0px" y="0px"
	 width="492.411px" height="520.312px" viewBox="0 0 492.411 520.312" enable-background="new 0 0 492.411 520.312"
	 xml:space="preserve">
<path fill="#FFFFFF" d="M197.442,149.114c0.177,0.253,0.365,0.521,0.573,0.819c0.606,0.875,1.337,1.941,2.156,3.176
	c0.408,0.618,0.839,1.279,1.27,1.988c0.212,0.355,0.435,0.723,0.609,1.113l0.052,0.145c0.009,0.041,0.016,0.085,0.013,0.146
	l-0.002,0.333c-0.001,0.223-0.003,0.45-0.004,0.677c-0.024,3.735-0.052,8.108-0.082,12.791l-15.601-7.447L197.442,149.114z
	 M201.824,202.327l-4.795-15.264l4.991-15.433c-0.026,4.076-0.054,8.359-0.081,12.643
	C201.899,190.505,201.859,196.733,201.824,202.327z M168.253,195.244c-0.062-0.298-0.184-0.58-0.358-0.83l-33.485-47.944
	l9.558-9.558l12.552,13.948c0.375,0.416,0.892,0.678,1.449,0.733l14.912,1.492l10.088,10.088c0.453,0.452,1.073,0.693,1.715,0.656
	c0.639-0.035,1.233-0.341,1.633-0.839l0.094-0.117l15.567,7.777l-5.599,16.31c-0.02,0.06-0.023,0.126-0.003,0.191l0.001,0.006
	l5.336,18.118c0.001,0.002,0.001,0.006,0.002,0.008c0.013,0.039,0.037,0.07,0.057,0.104l-25.966,26.113L168.253,195.244z
	 M333.705,225.108c-0.125,2.988-0.223,5.35-0.223,6.378v41.422c-0.486,2.525-5.153,26.785-7.061,38.068l-0.172,1.019
	c-0.021,0.131-0.044,0.269-0.064,0.395c-0.744,4.539-0.86,5.236-0.053,6.185c0.007,0.01,0.016,0.019,0.023,0.027
	c0.712,2.388,2.482,12.54,3.976,22.132l-20.67,12.025c-0.167,0.099-0.322,0.217-0.458,0.355l-8.757,8.757
	c-2.734,2.733-9.085,5.625-12.357,5.625c-2.562,0-12.945-3.622-19.15-5.998c-7.856-6.644-17.753-14.428-20.993-14.428
	c-0.881,0-3.441-0.509-5.915-1.001c-4.073-0.81-8.69-1.727-11.775-1.727c-1.262,0-2.221,0.151-2.977,0.477
	c-1.146-0.569-3.651-3.733-5.569-7.047l-0.045-0.45c-0.113-1.152-1.083-2.03-2.24-2.03h-9.972c-0.274,0-0.546,0.049-0.802,0.147
	l-33.159,12.648c-0.723,0.275-1.253,0.903-1.406,1.662l-0.76,3.808l-11.394-16.273l14.359-48.181
	c0.063-0.211,0.095-0.432,0.094-0.653l-0.281-54.238c0.207-0.437,0.27-0.935,0.169-1.421l-0.267-1.279l25.993-25.846
	c-0.064,10.178-0.111,17.527-0.111,17.527v0.007c0.002,0.273,0.225,0.493,0.498,0.492c0.035,0,0.064-0.014,0.097-0.021l0.284-0.178
	c0.067-0.085,0.112-0.188,0.111-0.304c0,0-0.047-7.463-0.112-17.763c0.098-0.125,0.143-0.287,0.092-0.449l-0.097-0.308
	c-0.039-6.168-0.084-13.285-0.13-20.406c-0.029-4.641-0.059-9.278-0.086-13.655l0.001-0.002c0.002-0.007-0.002-0.013-0.001-0.019
	c-0.031-4.793-0.059-9.272-0.083-13.085c-0.001-0.228-0.003-0.454-0.004-0.677l-0.001-0.333c0.003-0.051-0.003-0.113-0.02-0.182
	c-0.018-0.057-0.04-0.11-0.06-0.163c-0.188-0.405-0.414-0.767-0.632-1.123c-0.441-0.706-0.881-1.362-1.297-1.976
	c-0.835-1.226-1.581-2.282-2.197-3.15c-0.214-0.297-0.407-0.566-0.589-0.819l0.314-0.392l5.967-5.966l12.971-11.888l24.704,12.167
	c0.919,0.453,2.03,0.228,2.701-0.55c2.38-2.762,4.811-6.409,5.831-7.987l17.702-4.38l23.127,4.235
	c-1.445,9.985-3.091,20.506-3.527,21.817c-0.376,1.127,0.019,1.921,0.289,2.294c0.422,0.588,1.169,0.964,1.891,0.964
	c1.06,0,1.979-0.001,11.535-10.901l8.602-3.808c1.599-0.094,7.66-0.43,12.378-0.43c4.09,0,4.99,0.258,5.032,0.269
	c0.482,0.211,1.012,0.318,1.574,0.318c1.561,0,3.354-0.92,4.933-2.014v22.977l-9.237,21.173c-0.247,0.567-0.25,1.212-0.009,1.781
	c5.645,13.27,8.332,16.582,9.896,17.408C334.332,210.056,333.918,219.966,333.705,225.108z"/>
<path fill="#377C9F" d="M337.632,202.326c-0.503-0.524-1.206-0.788-1.914-0.729c-1.52-2.039-4.554-8.151-6.96-13.704l9.038-20.71
	c0.123-0.283,0.188-0.59,0.188-0.9v-28.281c0-0.91-0.548-1.73-1.39-2.079c-0.843-0.349-1.808-0.157-2.454,0.486
	c-1.96,1.956-4.586,3.821-5.52,3.933c-0.8-0.31-2.276-0.581-6.68-0.581c-5.593,0-12.756,0.443-13.058,0.462
	c-0.266,0.017-0.526,0.08-0.771,0.188l-9.426,4.174c-0.298,0.133-0.565,0.33-0.783,0.576c-1.646,1.885-3.473,3.913-5.082,5.648
	c1.071-6.502,2.371-15.527,2.722-17.988c0.171-1.197-0.637-2.315-1.825-2.532l-25.733-4.713c-0.313-0.058-0.637-0.047-0.947,0.029
	l-19.043,4.713c-0.567,0.14-1.059,0.496-1.368,0.992c-0.026,0.043-2.348,3.745-4.818,6.873l-24.485-12.061
	c-0.833-0.41-1.832-0.267-2.516,0.36l-14.14,12.963c-0.024,0.021-0.047,0.044-0.07,0.067l-6.089,6.088
	c-0.058,0.059-0.113,0.121-0.164,0.184l-9.965,12.427l-8.88-8.879c-0.367-0.367-0.85-0.596-1.367-0.647l-14.845-1.485
	l-13.558-15.064c-0.413-0.459-0.997-0.729-1.614-0.744c-0.614-0.017-1.214,0.222-1.651,0.659l-12.569,12.57
	c-0.771,0.771-0.878,1.986-0.253,2.881l34.301,49.113l7.55,36.239c-0.059,0.205-0.089,0.418-0.088,0.635l0.284,54.655
	l-14.575,48.902c-0.196,0.658-0.081,1.371,0.313,1.934l15.036,21.478c0.517,0.737,1.423,1.096,2.307,0.913
	c0.882-0.186,1.568-0.879,1.745-1.763l1.548-7.753l31.61-12.058h7.811c2.09,3.684,6.012,9.586,9.672,9.586
	c0.622,0,1.209-0.149,1.7-0.424c0.012-0.005,0.303-0.113,1.204-0.113c2.643,0,7.22,0.91,10.898,1.643
	c3.303,0.656,5.421,1.065,6.693,1.085c2.075,0.492,11.167,7.419,18.472,13.609c0.193,0.162,0.411,0.292,0.646,0.383
	c2.788,1.076,16.912,6.435,21.121,6.435c4.919,0,12.262-3.666,15.54-6.943l8.55-8.552l21.746-12.651
	c0.797-0.465,1.232-1.372,1.092-2.288c-0.009-0.062-0.968-6.293-2.02-12.443c-0.62-3.626-1.152-6.52-1.58-8.604
	c-0.362-1.764-0.646-3.144-1.083-4.103c0.062-0.521,0.202-1.495,0.497-3.298c1.798-10.965,7.259-39.284,7.314-39.568
	c0.026-0.142,0.041-0.284,0.041-0.426v-41.637c0-0.935,0.101-3.37,0.218-6.19C339.052,204.89,338.721,203.459,337.632,202.326z
	 M197.442,149.114c0.177,0.253,0.365,0.521,0.573,0.819c0.606,0.875,1.337,1.941,2.156,3.176c0.408,0.618,0.839,1.279,1.27,1.988
	c0.212,0.355,0.435,0.723,0.609,1.113l0.052,0.145c0.009,0.041,0.016,0.085,0.013,0.146l-0.002,0.333
	c-0.001,0.223-0.003,0.45-0.004,0.677c-0.024,3.735-0.052,8.108-0.082,12.791l-15.601-7.447L197.442,149.114z M201.824,202.327
	l-4.795-15.264l4.991-15.433c-0.026,4.076-0.054,8.359-0.081,12.643C201.899,190.505,201.859,196.733,201.824,202.327z
	 M168.253,195.244c-0.062-0.298-0.184-0.58-0.358-0.83l-33.485-47.944l9.558-9.558l12.552,13.948
	c0.375,0.416,0.892,0.678,1.449,0.733l14.912,1.492l10.088,10.088c0.453,0.452,1.073,0.693,1.715,0.656
	c0.639-0.035,1.233-0.341,1.633-0.839l0.094-0.117l15.567,7.777l-5.599,16.31c-0.02,0.06-0.023,0.126-0.003,0.191l0.001,0.006
	l5.336,18.118c0.001,0.002,0.001,0.006,0.002,0.008c0.013,0.039,0.037,0.07,0.057,0.104l-25.966,26.113L168.253,195.244z
	 M333.705,225.108c-0.125,2.988-0.223,5.35-0.223,6.378v41.422c-0.486,2.525-5.153,26.785-7.061,38.068l-38.003-22.93l-3.886-29.445
	l3.518,29.584c0.009,0.054,0.04,0.11,0.091,0.14l38.108,23.67c-0.021,0.131-0.044,0.268-0.064,0.394
	c-0.744,4.539-0.86,5.237-0.053,6.186c0.007,0.009,0.016,0.018,0.023,0.027c0.712,2.387,2.482,12.54,3.976,22.131l-20.67,12.027
	c-0.167,0.098-0.322,0.217-0.458,0.354l-8.757,8.757c-2.734,2.732-9.085,5.624-12.357,5.624c-2.562,0-12.945-3.621-19.15-5.997
	c-7.856-6.643-17.753-14.428-20.993-14.428c-0.881,0-3.441-0.509-5.915-1.001c-4.073-0.809-8.69-1.727-11.775-1.727
	c-1.262,0-2.221,0.151-2.977,0.477c-1.146-0.568-3.651-3.733-5.569-7.046l-0.045-0.452c-0.113-1.151-1.083-2.029-2.24-2.029h-9.972
	c-0.274,0-0.546,0.048-0.802,0.146l-33.159,12.649c-0.723,0.275-1.253,0.903-1.406,1.661l-0.76,3.809l-11.394-16.274l14.359-48.181
	c0.063-0.21,0.095-0.432,0.094-0.653l-0.281-54.237c0.207-0.437,0.27-0.935,0.169-1.421l-0.267-1.278l25.993-25.846
	c-0.064,10.178-0.111,17.527-0.111,17.527v0.006c0.002,0.273,0.225,0.493,0.498,0.492c0.035,0,0.064-0.014,0.097-0.02l11.424,18.576
	l-11.801,24.808c-0.011,0.024-0.021,0.054-0.026,0.083l-5.825,36.391l-2.801,4.241c-1.851,1.524-3.697,3.058-5.533,4.603
	l-0.001,0.001c-0.208,0.178-0.233,0.488-0.056,0.696c0.177,0.209,0.489,0.234,0.697,0.057l0.002-0.003
	c1.018-0.864,2.041-1.726,3.063-2.585l-11.653,17.649l-0.001,0.003c-0.149,0.229-0.085,0.535,0.144,0.685
	c0.229,0.147,0.535,0.083,0.684-0.146l13.109-20.1c3.781-3.147,7.6-6.252,11.487-9.259c1.434-1.104,2.879-2.192,4.348-3.245
	c1.468-1.045,2.958-2.085,4.515-2.918l0.585-0.276l0.288-0.103l0.142-0.052l0.121-0.018l0.12-0.021l0.015-0.004
	c0.041-0.006-0.073,0.007,0.098-0.014l0.042-0.009l0.083-0.019c0.13-0.031,0.417-0.198,0.471-0.277
	c0.111-0.097,0.199-0.195,0.276-0.295c0.086-0.1,0.154-0.199,0.222-0.3c0.538-0.805,0.907-1.642,1.281-2.484
	c0.723-1.684,1.344-3.396,1.937-5.114c1.181-3.441,2.245-6.913,3.275-10.394c1.029-3.481,2.015-6.975,2.978-10.473
	c1.906-6.942,3.729-13.904,5.481-20.886l17.839-3.333c1.843,0.463,3.7,0.805,5.579,1.048c1.894,0.233,3.812,0.372,5.73,0.247
	c0.956-0.067,1.918-0.182,2.852-0.438c0.933-0.256,1.854-0.639,2.622-1.264c0.771-0.614,1.333-1.512,1.527-2.481
	c0.206-0.968,0.109-1.962-0.071-2.9l-0.529-2.802l-0.262-1.402l-0.2-1.409l-0.396-2.817l-0.296-2.833
	c-0.109-0.944-0.181-1.891-0.248-2.838c-0.064-0.947-0.155-1.893-0.197-2.843l-0.143-2.847l-0.09-2.849l-0.049-2.851l-0.008-1.425
	c0.01-0.474-0.021-0.964-0.16-1.433c-0.522-1.852-1.286-3.593-2.037-5.343c-1.525-3.487-3.175-6.915-4.844-10.333
	c-3.349-6.83-6.817-13.601-10.348-20.338c3.497,6.755,6.931,13.542,10.245,20.388c1.648,3.425,3.281,6.862,4.788,10.351
	c0.739,1.746,1.496,3.505,1.999,5.317c0.052,0.225,0.113,0.446,0.129,0.688l0.019,0.177v0.168v0.357l0.002,1.426l0.034,2.854
	l0.076,2.853l0.128,2.852c0.038,0.951,0.125,1.899,0.184,2.849c0.062,0.951,0.13,1.899,0.234,2.845l0.281,2.842l0.386,2.833
	l0.192,1.417l0.257,1.403l0.516,2.806c0.171,0.925,0.255,1.859,0.06,2.759c-0.186,0.897-0.696,1.703-1.415,2.268
	c-0.713,0.575-1.586,0.937-2.484,1.18c-0.901,0.243-1.841,0.351-2.777,0.411c-1.882,0.115-3.775-0.033-5.651-0.273
	c-1.873-0.252-3.741-0.607-5.567-1.078c-0.03-0.008-0.067-0.01-0.101-0.004l-18.077,3.283c-0.103,0.02-0.19,0.096-0.217,0.204
	c-1.799,7.024-3.672,14.032-5.627,21.015c-0.979,3.489-1.983,6.976-3.027,10.446c-1.047,3.469-2.125,6.927-3.318,10.343
	c-0.598,1.705-1.224,3.405-1.939,5.049c-0.364,0.813-0.743,1.642-1.217,2.341c-0.059,0.085-0.118,0.173-0.182,0.245
	c-0.062,0.08-0.125,0.149-0.188,0.202c-0.125,0.088,0.001,0.097-0.407,0.142l-0.215,0.037l-0.178,0.062l-0.355,0.124l-0.645,0.301
	c-1.649,0.87-3.143,1.909-4.634,2.957c-1.486,1.054-2.943,2.14-4.389,3.242c-3.116,2.386-6.183,4.828-9.223,7.304l1.351-2.072
	c0.03-0.047,0.053-0.105,0.062-0.162l5.627-36.47l11.693-24.946c0.032-0.067,0.03-0.15-0.013-0.217l-11.595-18.616
	c0.067-0.085,0.112-0.188,0.111-0.304c0,0-0.047-7.463-0.113-17.763c0.099-0.125,0.143-0.287,0.093-0.449l-0.097-0.308
	c-0.039-6.168-0.084-13.285-0.129-20.406c-0.029-4.641-0.059-9.278-0.086-13.655l0-0.002c0.002-0.007-0.002-0.013,0-0.019
	c-0.031-4.793-0.06-9.272-0.083-13.085c-0.001-0.228-0.003-0.454-0.005-0.677l-0.001-0.333c0.003-0.051-0.003-0.113-0.02-0.182
	c-0.018-0.057-0.04-0.11-0.06-0.163c-0.188-0.405-0.414-0.767-0.632-1.123c-0.441-0.706-0.881-1.362-1.297-1.976
	c-0.834-1.226-1.58-2.282-2.196-3.15c-0.214-0.297-0.407-0.566-0.589-0.819l0.314-0.392l5.966-5.966l12.97-11.885l24.704,12.167
	c0.919,0.453,2.03,0.228,2.701-0.55c2.38-2.762,4.811-6.409,5.831-7.987l17.702-4.38l23.127,4.235
	c-1.445,9.985-3.091,20.506-3.527,21.817c-0.376,1.127,0.019,1.921,0.289,2.294c0.422,0.588,1.169,0.964,1.891,0.964
	c1.06,0,1.979-0.001,11.535-10.901l8.602-3.808c1.599-0.094,7.66-0.43,12.378-0.43c4.09,0,4.99,0.258,5.032,0.269
	c0.482,0.211,1.012,0.318,1.574,0.318c1.561,0,3.354-0.92,4.933-2.014v22.977l-9.237,21.173c-0.247,0.567-0.25,1.212-0.009,1.781
	c5.645,13.27,8.332,16.582,9.896,17.408C334.332,210.056,333.918,219.966,333.705,225.108z"/>
</svg>
