<?xml version="1.0" encoding="utf-8"?>
<!-- Generator: Adobe Illustrator 16.0.0, SVG Export Plug-In . SVG Version: 6.00 Build 0)  -->
<!DOCTYPE svg PUBLIC "-//W3C//DTD SVG 1.1//EN" "http://www.w3.org/Graphics/SVG/1.1/DTD/svg11.dtd">
<svg version="1.1" id="Layer_1" xmlns="http://www.w3.org/2000/svg" xmlns:xlink="http://www.w3.org/1999/xlink" x="0px" y="0px"
	 width="492.411px" height="520.312px" viewBox="0 0 492.411 520.312" enable-background="new 0 0 492.411 520.312"
	 xml:space="preserve">
<g id="Layer_4">
	<g>
		<path fill="#FFFFFF" d="M216.332,319.925c0.131,0,0.264,0.011,0.396,0.034l11.962,2.035l6.692-11.58
			c0.255-0.441,0.645-0.787,1.113-0.988l4.045-1.734c0.731-0.312,1.572-0.235,2.235,0.205l10.299,6.854l20.337,5.142l10.31-1.16
			l8.807-8.807c0.211-0.21,0.459-0.379,0.732-0.497c1.385-0.599,2.559-1.052,3.51-1.356c0.019-1.98,0.109-4.553,0.136-5.234
			c0.025-0.695,0.358-1.344,0.906-1.771l4.436-3.458c1.992-14.145,2.282-14.221,3.978-14.657l3.638-0.88l-5.896-8.846l-13.216-7.233
			c-0.756-0.413-1.225-1.207-1.225-2.068v-4.334c0-1.079,0.73-2.02,1.777-2.286l8.472-2.151l3.009-3.008
			c0.207-0.208,0.452-0.375,0.722-0.493l12.454-5.449v-5.362l-2.042-1.237c-0.773-0.471-0.984-0.602-12.141-23.773l-13.555-7.763
			h-10.715c0.11,0.177,0.226,0.358,0.342,0.544c0.514,0.818,0.477,1.866-0.093,2.646c-0.571,0.779-1.561,1.133-2.494,0.892
			l-5.567-1.436l-13.799-2.689c-0.836-0.164-1.521-0.767-1.788-1.577c-0.765-2.318-1.796-5.03-2.527-6.573
			c-1.548,0.431-4.143,0.779-8.612,0.821l-4.529,4.152c-0.644,0.592-1.562,0.778-2.386,0.483l-17.26-6.158
			c-1.147-0.321-4.266-1.083-6.164-1.097c-0.122,0.397-0.318,0.778-0.583,1.129c-1.732,2.294-7.132,3.416-10.41,3.898l-9,20.455
			c-0.042,0.096-0.09,0.188-0.144,0.276l-5.724,9.404v7.139c0,0.269-0.045,0.535-0.136,0.789l-1.589,4.477
			c-0.162,0.459-0.463,0.857-0.862,1.138l-9.178,6.479l-4.559,14.281v6.395l4.714,7.535l3.688-3.688
			c0.469-0.47,1.105-0.72,1.777-0.688c0.663,0.032,1.282,0.34,1.706,0.851l3.895,4.697c0.502,0.607,0.669,1.424,0.445,2.179
			l-3.162,10.624l8.022,6.52c0.6,0.485,0.922,1.234,0.865,2.006l-0.732,9.761L214,321.673l0.221-0.442
			C214.626,320.421,215.449,319.925,216.332,319.925z"/>
	</g>
	<g>
		<g>
			<path fill="#407fa2" d="M186.079,264.181l7.023-5.545l0.015-0.012c0.277-0.219,0.676-0.17,0.894,0.104
				c0.021,0.026,0.041,0.056,0.056,0.083l11.171,19.929l0.005,0.008c0.05,0.091,0.044,0.197-0.006,0.28l-9.416,15.267l8.929-15.557
				l-0.001,0.288l-11.796-19.566l0.965,0.176l-6.844,5.764c-0.333,0.28-0.829,0.238-1.108-0.094
				c-0.28-0.332-0.236-0.828,0.095-1.108C186.065,264.191,186.073,264.186,186.079,264.181"/>
		</g>
		<g>
			<path fill="#407fa2" d="M233.957,274.612l-14.273-9.652l-0.024-0.021l-0.005-0.005l-5.723-5.585
				c-0.049-0.049-0.078-0.112-0.086-0.176v-0.006l-0.783-6.761l0.094,0.213l-8.566-9.55c-0.197-0.219-0.179-0.557,0.04-0.754
				c0.082-0.073,0.18-0.115,0.28-0.131l0.012-0.002l20.552-3.018c0.43-0.063,0.829,0.234,0.893,0.664
				c0.062,0.429-0.234,0.83-0.665,0.893c-0.004,0-0.014,0.001-0.018,0.002l-20.618,2.524l0.333-0.887l8.335,9.753l0.006,0.007
				c0.052,0.06,0.081,0.133,0.087,0.206l0.62,6.776l-0.087-0.182l5.587,5.723l-0.028-0.023L233.957,274.612z"/>
		</g>
		<g>
			<path fill="#407fa2" d="M219.799,264.79l14.3,9.618c0.061,0.041,0.097,0.104,0.104,0.173l0,0.009l4.001,36.931
				c0.048,0.432-0.265,0.819-0.697,0.866c-0.431,0.046-0.819-0.266-0.865-0.697c0-0.006-0.002-0.016-0.002-0.023l-2.933-37.03
				l0.106,0.182L219.799,264.79z"/>
		</g>
		<g>
			<path fill="#407fa2" d="M248.852,208.411l-15.839,5.921l0.116-0.111l-7.152,18.516l0.031-0.16l0.085,7.367
				c0.001,0.062-0.011,0.125-0.032,0.18l-0.004,0.013l-2.524,6.531l0.043-0.223l0.187,16.034c0.005,0.435-0.343,0.791-0.777,0.795
				c-0.434,0.005-0.791-0.343-0.796-0.777v-0.014l0.188-16.039v-0.014c0-0.073,0.017-0.144,0.043-0.208l2.676-6.471l-0.038,0.192
				l0.087-7.367v-0.009c0.001-0.054,0.011-0.104,0.031-0.15l7.582-18.345l0.002-0.004c0.023-0.052,0.065-0.091,0.115-0.107
				L248.852,208.411z"/>
		</g>
		<g>
			<path fill="#407fa2" d="M215.178,326.952c-0.263,0.001-0.529-0.044-0.79-0.137l-26.002-9.243
				c-1.002-0.356-1.642-1.34-1.562-2.399l0.774-10.326l-8.287-6.735c-0.741-0.601-1.045-1.589-0.774-2.502l3.252-10.927
				l-1.438-1.734l-3.954,3.953c-0.508,0.51-1.217,0.762-1.934,0.676c-0.714-0.081-1.352-0.483-1.733-1.093l-6.644-10.621
				c-0.235-0.374-0.359-0.809-0.359-1.251v-7.438c0-0.244,0.038-0.486,0.111-0.717l4.911-15.385c0.156-0.489,0.468-0.914,0.887-1.21
				l9.212-6.502l1.202-3.389v-7.394c0-0.433,0.12-0.857,0.344-1.226l5.986-9.835l9.471-21.525c0.336-0.763,1.049-1.292,1.877-1.392
				c3.434-0.414,7.141-1.353,8.316-2.073c0.045-0.671,0.297-1.298,0.737-1.814c1.155-1.354,3.142-1.354,3.794-1.354
				c2.941,0,7.114,1.164,7.58,1.297c0.049,0.014,0.098,0.029,0.146,0.047l15.997,5.707l4.153-3.808
				c0.435-0.398,1.003-0.62,1.593-0.62c3.584-0.001,7.412-0.322,8.477-0.7c0.483-0.46,1.112-0.716,1.783-0.716
				c1.341,0,2.726,0,5.841,9.09l12.521,2.439c0.046,0.009,0.092,0.02,0.138,0.032l0.13,0.033c-0.105-0.537-0.022-1.103,0.251-1.597
				c0.417-0.749,1.206-1.214,2.063-1.214h15.601c0.411,0,0.815,0.107,1.172,0.312l14.736,8.438c0.413,0.237,0.745,0.594,0.952,1.024
				c3.751,7.791,9.803,20.25,11.146,22.745l2.684,1.625c0.706,0.428,1.137,1.192,1.137,2.017v8.234c0,0.937-0.555,1.785-1.414,2.161
				l-13.46,5.888l-3.15,3.152c-0.301,0.3-0.677,0.514-1.088,0.619l-7.322,1.859v1.102l12.497,6.841
				c0.334,0.183,0.619,0.443,0.83,0.761l8.09,12.135c0.426,0.64,0.514,1.449,0.234,2.167c-0.281,0.717-0.895,1.252-1.643,1.433
				l-5.563,1.346c-0.449,2.215-1.254,7.372-1.9,12c-0.085,0.606-0.403,1.156-0.886,1.533l-4.32,3.367
				c-0.072,2.259-0.132,5.021-0.075,5.664c0.071,0.795-0.265,1.571-0.894,2.064c-0.464,0.365-1.052,0.542-1.618,0.498
				c-0.562,0.121-2.042,0.657-3.453,1.249l-9.067,9.068c-0.378,0.378-0.873,0.616-1.405,0.676l-11.557,1.3
				c-0.281,0.032-0.566,0.013-0.842-0.058l-21.144-5.346c-0.26-0.065-0.506-0.175-0.729-0.323l-9.573-6.37l-2.15,0.921
				l-7.121,12.322c-0.493,0.854-1.468,1.313-2.438,1.145l-11.855-2.017l-0.372,0.745
				C216.879,326.468,216.05,326.952,215.178,326.952z M216.332,319.925c0.131,0,0.264,0.011,0.396,0.034l11.962,2.035l6.692-11.58
				c0.255-0.441,0.645-0.787,1.113-0.988l4.045-1.734c0.731-0.312,1.572-0.235,2.235,0.205l10.299,6.854l20.337,5.142l10.31-1.16
				l8.807-8.807c0.211-0.21,0.459-0.379,0.732-0.497c1.385-0.599,2.559-1.052,3.51-1.356c0.019-1.98,0.109-4.553,0.136-5.234
				c0.025-0.695,0.358-1.344,0.906-1.771l4.436-3.458c1.992-14.145,2.282-14.221,3.978-14.657l3.638-0.88l-5.896-8.846
				l-13.216-7.233c-0.756-0.413-1.225-1.207-1.225-2.068v-4.334c0-1.079,0.73-2.02,1.777-2.286l8.472-2.151l3.009-3.008
				c0.207-0.208,0.452-0.375,0.722-0.493l12.454-5.449v-5.362l-2.042-1.237c-0.773-0.471-0.984-0.602-12.141-23.773l-13.555-7.763
				h-10.715c0.11,0.177,0.226,0.358,0.342,0.544c0.514,0.818,0.477,1.866-0.093,2.646c-0.571,0.779-1.561,1.133-2.494,0.892
				l-5.567-1.436l-13.799-2.689c-0.836-0.164-1.521-0.767-1.788-1.577c-0.765-2.318-1.796-5.03-2.527-6.573
				c-1.548,0.431-4.143,0.779-8.612,0.821l-4.529,4.152c-0.644,0.592-1.562,0.778-2.386,0.483l-17.26-6.158
				c-1.147-0.321-4.266-1.083-6.164-1.097c-0.122,0.397-0.318,0.778-0.583,1.129c-1.732,2.294-7.132,3.416-10.41,3.898l-9,20.455
				c-0.042,0.096-0.09,0.188-0.144,0.276l-5.724,9.404v7.139c0,0.269-0.045,0.535-0.136,0.789l-1.589,4.477
				c-0.162,0.459-0.463,0.857-0.862,1.138l-9.178,6.479l-4.559,14.281v6.395l4.714,7.535l3.688-3.688
				c0.469-0.47,1.105-0.72,1.777-0.688c0.663,0.032,1.282,0.34,1.706,0.851l3.895,4.697c0.502,0.607,0.669,1.424,0.445,2.179
				l-3.162,10.624l8.022,6.52c0.6,0.485,0.922,1.234,0.865,2.006l-0.732,9.761L214,321.673l0.221-0.442
				C214.626,320.421,215.449,319.925,216.332,319.925z"/>
		</g>
		<g>
			<path fill="#407fa2" d="M269.454,257.079l6.838-24.613l0.003-0.011c0.055-0.191,0.229-0.317,0.42-0.315l3.901,0.053h0.01
				c0.107,0.001,0.203,0.048,0.27,0.121l6.834,7.461l-0.092-0.061l16.812,6.731l-16.989-6.271c-0.034-0.012-0.062-0.032-0.086-0.055
				l-0.006-0.006l-7.033-7.271l0.279,0.12l-3.901,0.054l0.425-0.326l-6.163,24.789c-0.105,0.422-0.532,0.678-0.953,0.574
				s-0.678-0.531-0.573-0.953C269.452,257.094,269.453,257.084,269.454,257.079"/>
		</g>
		<g>
			<path fill="#407fa2" d="M262.223,288.171l4.05-18.025l0.035,0.378l-3.822-9.323l-0.005-0.009
				c-0.107-0.264,0.01-0.566,0.261-0.692l7.253-3.65l-0.115,0.774l-13.757-13.548l-0.004-0.003
				c-0.042-0.042-0.072-0.097-0.084-0.151l-4.1-17.369l0.046,0.083l-6.106-6.118c-0.026-0.026-0.036-0.064-0.028-0.098l3.005-12.007
				l-2.807,12.056l-0.026-0.097l6.208,6.015c0.022,0.023,0.039,0.055,0.047,0.083l4.386,17.3l-0.089-0.155l13.979,13.319
				c0.192,0.182,0.198,0.486,0.017,0.678c-0.036,0.038-0.078,0.069-0.123,0.093l-0.009,0.004l-7.191,3.769l0.256-0.701l3.978,9.26
				c0.052,0.121,0.062,0.249,0.036,0.368l-0.002,0.01l-3.751,18.09c-0.088,0.425-0.504,0.698-0.928,0.609
				c-0.426-0.087-0.699-0.504-0.611-0.929C262.222,288.18,262.223,288.173,262.223,288.171"/>
		</g>
	</g>
</g>
<g id="Layer_2" display="none">
</g>
</svg>
