<?xml version="1.0" encoding="utf-8"?>
<!-- Generator: Adobe Illustrator 16.0.0, SVG Export Plug-In . SVG Version: 6.00 Build 0)  -->
<!DOCTYPE svg PUBLIC "-//W3C//DTD SVG 1.1//EN" "http://www.w3.org/Graphics/SVG/1.1/DTD/svg11.dtd">
<svg version="1.1" id="Layer_2" xmlns="http://www.w3.org/2000/svg" xmlns:xlink="http://www.w3.org/1999/xlink" x="0px" y="0px"
	 width="760px" height="760px" viewBox="-0.331 2.583 760 760" enable-background="new -0.331 2.583 760 760" xml:space="preserve">
<g>
	<path fill="#1D1D1B" d="M724.56,228.018c20.094,44.642,31.385,93.235,32.916,142.208c1.584,48.973-6.566,98.248-23.729,144.248
		c-8.606,22.986-19.36,45.197-32.235,66.151c-12.857,20.958-27.793,40.67-44.537,58.736c-16.751,18.061-35.248,34.548-55.241,49.026
		c-19.982,14.495-41.427,27.014-63.884,37.37c-44.899,20.744-94.012,32.715-143.675,34.563
		c-49.652,1.856-99.745-6.175-146.449-23.606c-46.711-17.393-90.011-44.13-126.463-78.313
		c-18.215-17.093-34.767-35.984-49.252-56.355c-14.481-20.385-26.91-42.165-37.172-65c-10.186-22.758-18.188-46.603-23.758-70.957
		c-5.591-24.366-8.652-49.297-9.292-74.268c-1.263-49.956,7.599-100.079,25.708-146.52c18.056-46.473,45.427-89.203,79.86-125.025
		c34.433-35.85,76.07-64.532,121.438-84.233c22.68-9.868,46.297-17.538,70.416-22.806c24.12-5.279,48.736-8.119,73.366-8.586
		c24.631-0.473,49.287,1.503,73.485,5.857c24.209,4.336,47.942,11.104,70.823,19.981c45.756,17.809,87.959,44.527,123.453,78.308
		C675.868,142.538,704.616,183.31,724.56,228.018z M724.56,228.018c-10.032-22.326-22.22-43.684-36.394-63.634
		c-14.173-19.952-30.386-38.437-48.217-55.173c-35.687-33.467-78.094-59.648-123.841-76.671
		C470.371,15.468,421.313,7.625,372.713,9.456c-48.624,1.823-96.684,13.552-140.65,33.882
		c-21.993,10.151-42.979,22.412-62.534,36.604c-19.568,14.181-37.662,30.321-54.053,48.001c-16.385,17.686-30.998,36.983-43.58,57.5
		c-12.591,20.516-23.121,42.257-31.542,64.761c-8.4,22.515-14.569,45.836-18.491,69.509c-3.917,23.676-5.456,47.721-4.723,71.678
		c1.507,47.934,12.534,95.445,32.221,139.206c19.515,43.728,47.647,83.66,82.413,116.667
		c34.728,33.065,76.036,59.227,120.826,76.666c22.402,8.691,45.635,15.33,69.332,19.572c23.691,4.265,47.821,6.2,71.931,5.743
		c24.108-0.451,48.201-3.227,71.811-8.39c23.61-5.152,46.73-12.655,68.946-22.315c44.437-19.289,85.186-47.354,118.899-82.441
		c33.714-35.062,60.516-76.896,78.207-122.399c17.742-45.476,26.42-94.552,25.193-143.46c-0.621-24.448-3.627-48.852-9.088-72.709
		C742.375,273.675,734.544,250.364,724.56,228.018z"/>
	<path fill="#1D1D1B" d="M384.749,55.225c-179.202,0-324.477,145.271-324.477,324.475c0,179.203,145.273,324.474,324.477,324.474
		c179.202,0,324.478-145.273,324.478-324.476C709.226,200.495,563.951,55.225,384.749,55.225z M601.891,601.057
		c-28.201,28.749-61.043,51.321-97.607,67.088c-37.863,16.322-78.081,24.602-119.535,24.602c-41.456,0-81.67-8.279-119.534-24.604
		c-36.567-15.767-69.407-38.339-97.608-67.088c-28.201-28.748-50.343-62.225-65.811-99.504
		c-16.014-38.598-24.134-79.595-24.134-121.853c0-42.259,8.12-83.257,24.134-121.854c15.466-37.277,37.609-70.755,65.811-99.503
		c28.201-28.75,61.041-51.321,97.608-67.087C303.079,74.93,343.292,66.65,384.749,66.65c41.454,0,81.674,8.279,119.535,24.603
		c36.564,15.766,69.406,38.337,97.607,67.087c28.204,28.748,50.342,62.227,65.811,99.503
		c16.015,38.597,24.133,79.596,24.133,121.854c0,42.258-8.118,83.255-24.133,121.855
		C652.233,538.833,630.091,572.309,601.891,601.057z"/>
	<path fill="#377C9F" d="M384.821,7.994c-205.14,0-371.438,166.299-371.438,371.437c0,205.139,166.299,371.437,371.438,371.437
		c205.14,0,371.437-166.3,371.437-371.437C756.257,174.293,589.96,7.994,384.821,7.994z M383.33,706.078
		c-179.578,0-325.155-145.579-325.155-325.157c0-179.58,145.577-325.155,325.155-325.155c179.581,0,325.156,145.576,325.156,325.155
		C708.486,560.499,562.911,706.078,383.33,706.078z"/>
</g>
</svg>
