<?xml version="1.0" encoding="UTF-8" standalone="no"?>
<!-- Created with Inkscape (http://www.inkscape.org/) -->

<svg
   xmlns:dc="http://purl.org/dc/elements/1.1/"
   xmlns:cc="http://creativecommons.org/ns#"
   xmlns:rdf="http://www.w3.org/1999/02/22-rdf-syntax-ns#"
   xmlns:svg="http://www.w3.org/2000/svg"
   xmlns="http://www.w3.org/2000/svg"
   version="1.1"
   width="90.273376"
   height="90.275871"
   id="svg3007"
   xml:space="preserve"><metadata
     id="metadata3013"><rdf:RDF><cc:Work
         rdf:about=""><dc:format>image/svg+xml</dc:format><dc:type
           rdf:resource="http://purl.org/dc/dcmitype/StillImage" /><dc:title></dc:title></cc:Work></rdf:RDF></metadata><defs
     id="defs3011"><clipPath
       id="clipPath3021"><path
         d="m 0,72.221 72.219,0 L 72.219,0 0,0 0,72.221 z"
         id="path3023" /></clipPath></defs><g
     transform="matrix(1.25,0,0,-1.25,0,90.275875)"
     id="g3015"><g
       id="g3017"><g
         clip-path="url(#clipPath3021)"
         id="g3019"><g
           transform="translate(50.7949,42.6357)"
           id="g3025"><path
             d="m 0,0 c 0.014,-0.302 0.014,-0.611 0.014,-0.92 0,-9.398 -7.145,-20.235 -20.225,-20.235 -4.018,0 -7.758,1.178 -10.904,3.196 0.552,-0.064 1.119,-0.1 1.699,-0.1 3.334,0 6.398,1.136 8.832,3.045 -3.117,0.058 -5.742,2.115 -6.645,4.94 0.438,-0.083 0.875,-0.128 1.34,-0.128 0.643,0 1.274,0.087 1.873,0.251 -3.25,0.653 -5.709,3.527 -5.709,6.971 l 0,0.09 c 0.965,-0.531 2.059,-0.853 3.225,-0.888 -1.912,1.274 -3.162,3.45 -3.162,5.919 0,1.303 0.348,2.526 0.961,3.575 3.508,-4.303 8.746,-7.135 14.656,-7.431 -0.115,0.521 -0.18,1.065 -0.18,1.622 0,3.926 3.18,7.11 7.106,7.11 2.047,0 3.9,-0.863 5.195,-2.244 1.615,0.319 3.149,0.911 4.512,1.725 C 2.061,4.838 0.934,3.444 -0.539,2.563 0.902,2.736 2.279,3.116 3.555,3.682 2.602,2.256 1.391,1.004 0,0 m -14.689,29.585 c -19.942,0 -36.106,-16.17 -36.106,-36.112 0,-19.942 16.164,-36.109 36.106,-36.109 19.949,0 36.113,16.167 36.113,36.109 0,19.942 -16.164,36.112 -36.113,36.112"
             id="path3027"
             style="fill:#ffffff;fill-opacity:1;fill-rule:nonzero;stroke:none" /></g></g></g></g></svg>
