<?xml version="1.0" encoding="UTF-8" standalone="no"?>
<!-- Created with Inkscape (http://www.inkscape.org/) -->

<svg
   xmlns:dc="http://purl.org/dc/elements/1.1/"
   xmlns:cc="http://creativecommons.org/ns#"
   xmlns:rdf="http://www.w3.org/1999/02/22-rdf-syntax-ns#"
   xmlns:svg="http://www.w3.org/2000/svg"
   xmlns="http://www.w3.org/2000/svg"
   version="1.1"
   width="90.263626"
   height="90.275871"
   id="svg2985"
   xml:space="preserve"><metadata
     id="metadata2991"><rdf:RDF><cc:Work
         rdf:about=""><dc:format>image/svg+xml</dc:format><dc:type
           rdf:resource="http://purl.org/dc/dcmitype/StillImage" /><dc:title></dc:title></cc:Work></rdf:RDF></metadata><defs
     id="defs2989"><clipPath
       id="clipPath2999"><path
         d="m 0,72.221 72.211,0 L 72.211,0 0,0 0,72.221 z"
         id="path3001" /></clipPath></defs><g
     transform="matrix(1.25,0,0,-1.25,0,90.275875)"
     id="g2993"><g
       id="g2995"><g
         clip-path="url(#clipPath2999)"
         id="g2997"><g
           transform="translate(44.6602,47.2676)"
           id="g3003"><path
             d="m 0,0 -5.434,0 c -0.644,0 -1.351,-0.847 -1.351,-1.973 l 0,-3.921 6.785,0 0,-5.59 -6.785,0 0,-16.778 -6.412,0 0,16.778 -5.805,0 0,5.59 5.805,0 0,3.287 c 0,4.718 3.271,8.551 7.763,8.551 L 0,5.944 0,0 z m -8.555,24.953 c -19.943,0 -36.105,-16.17 -36.105,-36.112 0,-19.942 16.162,-36.109 36.105,-36.109 19.948,0 36.106,16.167 36.106,36.109 0,19.942 -16.158,36.112 -36.106,36.112"
             id="path3005"
             style="fill:#ffffff;fill-opacity:1;fill-rule:nonzero;stroke:none" /></g></g></g></g></svg>
