<?xml version="1.0" encoding="UTF-8" standalone="no"?>
<!-- Created with Inkscape (http://www.inkscape.org/) -->

<svg
   xmlns:dc="http://purl.org/dc/elements/1.1/"
   xmlns:cc="http://creativecommons.org/ns#"
   xmlns:rdf="http://www.w3.org/1999/02/22-rdf-syntax-ns#"
   xmlns:svg="http://www.w3.org/2000/svg"
   xmlns="http://www.w3.org/2000/svg"
   version="1.1"
   width="90.278374"
   height="90.275871"
   id="svg3029"
   xml:space="preserve"><metadata
     id="metadata3035"><rdf:RDF><cc:Work
         rdf:about=""><dc:format>image/svg+xml</dc:format><dc:type
           rdf:resource="http://purl.org/dc/dcmitype/StillImage" /><dc:title></dc:title></cc:Work></rdf:RDF></metadata><defs
     id="defs3033"><clipPath
       id="clipPath3043"><path
         d="m 0,72.221 72.223,0 L 72.223,0 0,0 0,72.221 z"
         id="path3045" /></clipPath></defs><g
     transform="matrix(1.25,0,0,-1.25,0,90.275875)"
     id="g3037"><g
       id="g3039"><g
         clip-path="url(#clipPath3043)"
         id="g3041"><g
           transform="translate(29.4219,31.7764)"
           id="g3047"><path
             d="m 0,0 c -0.191,0 -0.393,-0.006 -0.584,-0.019 -1.674,-0.123 -3.213,-0.747 -4.334,-1.764 -1.1,-1.001 -1.666,-2.259 -1.59,-3.54 0.168,-2.671 3.039,-4.239 6.528,-3.985 3.437,0.251 5.716,2.221 5.548,4.896 C 5.414,-1.896 3.227,0 0,0 m 23.721,4.368 -5.703,0 0,-5.703 -3.618,0 0,5.703 -5.697,0 0,3.611 5.697,0 0,5.7 3.618,0 0,-5.7 5.703,0 0,-3.611 z M 4.604,-11.171 c -2.266,-1.101 -4.713,-1.22 -5.653,-1.22 -0.18,0 -0.283,0.003 -0.283,0.003 l -0.205,0 c -1.469,0 -8.807,0.338 -8.807,7.023 0,6.569 7.996,7.081 10.442,7.081 L 0.162,1.713 c -1.416,1.889 -1.121,3.798 -1.121,3.798 -0.129,-0.01 -0.309,-0.02 -0.527,-0.02 -0.926,0 -2.703,0.148 -4.235,1.133 -1.867,1.204 -2.814,3.254 -2.814,6.093 0,8.013 8.748,8.339 8.838,8.339 l 8.742,0 0,-0.187 C 9.045,19.888 7.287,19.704 6.09,19.54 5.686,19.482 4.873,19.398 4.643,19.279 6.855,18.098 7.211,16.241 7.211,13.47 7.211,10.319 5.98,8.651 4.668,7.48 3.857,6.759 3.219,6.187 3.219,5.427 c 0,-0.747 0.877,-1.516 1.886,-2.405 1.661,-1.458 3.94,-3.453 3.94,-6.81 0,-3.47 -1.494,-5.954 -4.441,-7.383 m 2.085,51.615 c -19.943,0 -36.111,-16.17 -36.111,-36.111 0,-19.942 16.168,-36.109 36.111,-36.109 19.942,0 36.112,16.167 36.112,36.109 0,19.941 -16.17,36.111 -36.112,36.111 M 3.291,14.545 c -0.908,3.196 -2.377,4.142 -4.662,4.142 -0.244,0 -0.488,-0.032 -0.727,-0.103 -0.984,-0.277 -1.769,-1.101 -2.207,-2.327 -0.451,-1.242 -0.476,-2.536 -0.091,-4.017 0.695,-2.633 2.562,-4.544 4.455,-4.544 0.244,0 0.496,0.032 0.734,0.1 2.059,0.582 3.353,3.733 2.498,6.749"
             id="path3049"
             style="fill:#ffffff;fill-opacity:1;fill-rule:nonzero;stroke:none" /></g></g></g></g></svg>
