<?xml version="1.0" encoding="UTF-8" standalone="no"?>
<!-- Created with Inkscape (http://www.inkscape.org/) -->

<svg
   xmlns:dc="http://purl.org/dc/elements/1.1/"
   xmlns:cc="http://creativecommons.org/ns#"
   xmlns:rdf="http://www.w3.org/1999/02/22-rdf-syntax-ns#"
   xmlns:svg="http://www.w3.org/2000/svg"
   xmlns="http://www.w3.org/2000/svg"
   version="1.1"
   width="178.89471"
   height="520.01324"
   id="svg5524"
   xml:space="preserve"><metadata
     id="metadata5530"><rdf:RDF><cc:Work
         rdf:about=""><dc:format>image/svg+xml</dc:format><dc:type
           rdf:resource="http://purl.org/dc/dcmitype/StillImage" /><dc:title></dc:title></cc:Work></rdf:RDF></metadata><defs
     id="defs5528"><clipPath
       id="clipPath5542"><path
         d="m 0,444.121 143.116,0 L 143.116,0 0,0 0,444.121 z"
         id="path5544" /></clipPath></defs><g
     transform="matrix(1.25,0,0,-1.25,3.75e-4,520.01323)"
     id="g5532"><g
       transform="translate(22.7097,444.1212)"
       id="g5534"><path
         d="m 5.9690521,-28.110612 -28.6790521,0 73.395,-269.381388 65.348,7.85 z"
         id="path5536"
         style="fill:#3c7e9e;fill-opacity:1;fill-rule:nonzero;stroke:none" /></g><g
       id="g5538"><g
         clip-path="url(#clipPath5542)"
         id="g5540"><g
           transform="translate(123.2966,155.1799)"
           id="g5546"><path
             d="m 0,0 c -11.415,7.83 -30.961,3.871 -38.58,-3.744 -5.574,-13.58 -28.694,-24.807 -28.694,-24.807 0,0 10.828,-32.825 8.9,-44.924 l 71.154,26.512 c 0,0 4.771,34.929 -12.78,46.963"
             id="path5548"
             style="fill:#3c7e9e;fill-opacity:1;fill-rule:nonzero;stroke:none" /></g><g
           transform="translate(79.8526,110.7291)"
           id="g5550"><path
             d="m 0,0 c 1.891,-20.004 16.319,-67.706 17.814,-84.994 2.705,-31.461 -34.644,-35.989 -33.95,-2.893 0.517,24.595 2.805,72.983 -0.689,85.83 C -19.993,9.578 -0.367,3.905 0,0"
             id="path5552"
             style="fill:#3c7e9e;fill-opacity:1;fill-rule:nonzero;stroke:none" /></g><g
           transform="translate(96.0179,156.5018)"
           id="g5554"><path
             d="m 0,0 c -20.755,-4.281 -33.269,-14.503 -41.847,-24.752 -11.66,-13.941 -12.449,-30.07 0.136,-31.819 8.442,-1.181 33.827,13.447 35.571,15.646 C 0.245,-32.827 2.093,0.426 0,0"
             id="path5556"
             style="fill:#3c7e9e;fill-opacity:1;fill-rule:nonzero;stroke:none" /></g><g
           transform="translate(113.2195,121.5432)"
           id="g5558"><path
             d="M 0,0 C 0,0 -17.143,1.433 -17.762,19.768"
             id="path5560"
             style="fill:none;stroke:#231f20;stroke-width:1.98399997;stroke-linecap:butt;stroke-linejoin:miter;stroke-miterlimit:10;stroke-opacity:1;stroke-dasharray:none" /></g><g
           transform="translate(131.7228,127.7744)"
           id="g5562"><path
             d="m 0,0 c 1.778,-2.336 7.41,-11.508 9.759,-21.419 4.155,-17.397 -13.124,-22.819 -15.843,-13.95 -2.891,9.428 -6.555,20.875 -9.469,28.918 C -18.059,0.469 -3.188,4.179 0,0"
             id="path5564"
             style="fill:#3c7e9e;fill-opacity:1;fill-rule:nonzero;stroke:none" /></g><g
           transform="translate(131.7228,127.7744)"
           id="g5566"><path
             d="m 0,0 c 1.778,-2.336 7.41,-11.508 9.759,-21.419 4.155,-17.397 -13.124,-22.819 -15.843,-13.95 -2.891,9.428 -6.555,20.875 -9.469,28.918 C -18.059,0.469 -3.188,4.179 0,0 z"
             id="path5568"
             style="fill:none;stroke:#231f20;stroke-width:1.98399997;stroke-linecap:butt;stroke-linejoin:miter;stroke-miterlimit:10;stroke-opacity:1;stroke-dasharray:none" /></g><g
           transform="translate(115.8817,122.8584)"
           id="g5570"><path
             d="m 0,0 c 1.397,-2.878 6.045,-15.923 9.113,-26.183 5.631,-18.857 -15.328,-20.274 -18.981,-10.384 -3.726,10.08 -6.946,22.393 -8.012,30.349 C -18.934,1.737 -2.229,4.589 0,0"
             id="path5572"
             style="fill:#3c7e9e;fill-opacity:1;fill-rule:nonzero;stroke:none" /></g><g
           transform="translate(115.8817,122.8584)"
           id="g5574"><path
             d="m 0,0 c 1.397,-2.878 6.045,-15.923 9.113,-26.183 5.631,-18.857 -15.328,-20.274 -18.981,-10.384 -3.726,10.08 -6.946,22.393 -8.012,30.349 C -18.934,1.737 -2.229,4.589 0,0 z"
             id="path5576"
             style="fill:none;stroke:#231f20;stroke-width:1.98399997;stroke-linecap:butt;stroke-linejoin:miter;stroke-miterlimit:10;stroke-opacity:1;stroke-dasharray:none" /></g><g
           transform="translate(98.002,116.6406)"
           id="g5578"><path
             d="m 0,0 c 0.875,-3.081 5.091,-21.034 8.161,-31.294 5.628,-18.855 -17.703,-17.939 -19.832,-7.415 -2.143,10.539 -5.077,22.349 -6.524,30.251 C -20.823,5.946 -1.927,6.791 0,0"
             id="path5580"
             style="fill:#3c7e9e;fill-opacity:1;fill-rule:nonzero;stroke:none" /></g><g
           transform="translate(98.002,116.6406)"
           id="g5582"><path
             d="m 0,0 c 0.875,-3.081 5.091,-21.034 8.161,-31.294 5.628,-18.855 -17.703,-17.939 -19.832,-7.415 -2.143,10.539 -5.077,22.349 -6.524,30.251 C -20.823,5.946 -1.927,6.791 0,0 z"
             id="path5584"
             style="fill:none;stroke:#231f20;stroke-width:1.98399997;stroke-linecap:butt;stroke-linejoin:miter;stroke-miterlimit:10;stroke-opacity:1;stroke-dasharray:none" /></g><g
           transform="translate(54.6421,101.151)"
           id="g5586"><path
             d="M 0,0 C 4.526,-1.104 20.279,-4.444 30.712,-5.805 48.018,-8.047 49.006,24.601 29.313,22.472 19.179,21.374 2.968,21.381 -2.848,19.081 -10.988,15.855 -8.36,2.039 0,0"
             id="path5588"
             style="fill:#3c7e9e;fill-opacity:1;fill-rule:nonzero;stroke:none" /></g><g
           transform="translate(54.6421,101.151)"
           id="g5590"><path
             d="M 0,0 C 4.533,-1.104 20.279,-4.444 30.712,-5.805 48.018,-8.047 49.006,24.601 29.313,22.472 19.179,21.374 2.968,21.381 -2.848,19.081"
             id="path5592"
             style="fill:none;stroke:#231f20;stroke-width:1.98399997;stroke-linecap:butt;stroke-linejoin:miter;stroke-miterlimit:10;stroke-opacity:1;stroke-dasharray:none" /></g></g></g></g></svg>